<?xml version="1.0" encoding="UTF-8" standalone="no"?>
<!-- Generator: Adobe Illustrator 24.1.0, SVG Export Plug-In . SVG Version: 6.00 Build 0)  -->

<svg
   version="1.1"
   id="Layer_1"
   x="0px"
   y="0px"
   viewBox="0 0 60 60"
   xml:space="preserve"
   sodipodi:docname="facebook.svg"
   width="60"
   height="60"
   inkscape:version="1.1.1 (3bf5ae0d25, 2021-09-20)"
   xmlns:inkscape="http://www.inkscape.org/namespaces/inkscape"
   xmlns:sodipodi="http://sodipodi.sourceforge.net/DTD/sodipodi-0.dtd"
   xmlns="http://www.w3.org/2000/svg"
   xmlns:svg="http://www.w3.org/2000/svg"><defs
   id="defs16" /><sodipodi:namedview
   id="namedview14"
   pagecolor="#ffffff"
   bordercolor="#666666"
   borderopacity="1.0"
   inkscape:pageshadow="2"
   inkscape:pageopacity="0.0"
   inkscape:pagecheckerboard="0"
   showgrid="false"
   inkscape:zoom="6.8059028"
   inkscape:cx="-4.1140758"
   inkscape:cy="33.133003"
   inkscape:window-width="1920"
   inkscape:window-height="951"
   inkscape:window-x="-8"
   inkscape:window-y="-8"
   inkscape:window-maximized="1"
   inkscape:current-layer="Layer_1" />
<style
   type="text/css"
   id="style2">
	.st0{fill:url(#SVGID_1_);}
	.st1{fill:#FFFFFF;}
</style>
<linearGradient
   id="SVGID_1_"
   gradientUnits="userSpaceOnUse"
   x1="-277.375"
   y1="406.60181"
   x2="-277.375"
   y2="407.5726"
   gradientTransform="matrix(40,0,0,-39.7778,11115.001,16212.334)">
	<stop
   offset="0"
   style="stop-color:#0062E0"
   id="stop4" />
	<stop
   offset="1"
   style="stop-color:#19AFFF"
   id="stop6" />
</linearGradient>

<g
   id="g839"
   transform="matrix(1.331,0,0,1.331,3.38,3.38)"><g
     id="g834"><path
       class="st0"
       d="M 16.7,39.8 C 7.2,38.1 0,29.9 0,20 0,9 9,0 20,0 31,0 40,9 40,20 40,29.9 32.8,38.1 23.3,39.8 l -1.1,-0.9 h -4.4 z"
       id="path9"
       style="fill:url(#SVGID_1_)" /></g><path
     class="st1"
     d="M 27.8,25.6 28.7,20 h -5.3 v -3.9 c 0,-1.6 0.6,-2.8 3,-2.8 H 29 V 8.2 C 27.6,8 26,7.8 24.6,7.8 20,7.8 16.8,10.6 16.8,15.6 V 20 h -5 v 5.6 h 5 v 14.1 c 1.1,0.2 2.2,0.3 3.3,0.3 1.1,0 2.2,-0.1 3.3,-0.3 V 25.6 Z"
     id="path11" /></g>
</svg>
