<?xml version="1.0" encoding="UTF-8" standalone="no"?>
<!-- Created with Inkscape (http://www.inkscape.org/) -->

<svg
   width="60"
   height="60"
   id="svg2"
   version="1.1"
   inkscape:version="1.1.1 (3bf5ae0d25, 2021-09-20)"
   sodipodi:docname="twitter.svg"
   xmlns:inkscape="http://www.inkscape.org/namespaces/inkscape"
   xmlns:sodipodi="http://sodipodi.sourceforge.net/DTD/sodipodi-0.dtd"
   xmlns="http://www.w3.org/2000/svg"
   xmlns:svg="http://www.w3.org/2000/svg"
   xmlns:rdf="http://www.w3.org/1999/02/22-rdf-syntax-ns#"
   xmlns:cc="http://creativecommons.org/ns#"
   xmlns:dc="http://purl.org/dc/elements/1.1/">
  <defs
     id="defs4" />
  <sodipodi:namedview
     id="base"
     pagecolor="#ffffff"
     bordercolor="#666666"
     borderopacity="1.0"
     inkscape:pageopacity="0.0"
     inkscape:pageshadow="2"
     inkscape:zoom="3.7200571"
     inkscape:cx="87.633063"
     inkscape:cy="50.133639"
     inkscape:document-units="px"
     inkscape:current-layer="layer1"
     showgrid="false"
     inkscape:window-width="1920"
     inkscape:window-height="951"
     inkscape:window-x="-8"
     inkscape:window-y="-8"
     inkscape:window-maximized="1"
     fit-margin-top="0"
     fit-margin-left="0"
     fit-margin-right="0"
     fit-margin-bottom="0"
     inkscape:pagecheckerboard="0" />
  <metadata
     id="metadata7">
    <rdf:RDF>
      <cc:Work
         rdf:about="">
        <dc:format>image/svg+xml</dc:format>
        <dc:type
           rdf:resource="http://purl.org/dc/dcmitype/StillImage" />
      </cc:Work>
    </rdf:RDF>
  </metadata>
  <g
     inkscape:label="Layer 1"
     inkscape:groupmode="layer"
     id="layer1"
     transform="translate(-282.32053,-396.30734)">
    <path
       style="fill:#2aa9e0;stroke-width:0.31381"
       inkscape:connector-curvature="0"
       id="path5"
       d="m 339.22981,409.61565 c -1.98006,0.87834 -4.10837,1.47172 -6.34165,1.73867 2.27956,-1.3665 4.0306,-3.53035 4.85486,-6.10888 -2.13371,1.26558 -4.49669,2.18429 -7.01198,2.67945 -2.01395,-2.14608 -4.88365,-3.48676 -8.05959,-3.48676 -6.09785,0 -11.04203,4.94367 -11.04203,11.0415 0,0.86544 0.0977,1.70827 0.28605,2.51637 -9.17691,-0.46043 -17.31292,-4.85647 -22.75899,-11.53692 -0.95048,1.63075 -1.49513,3.52738 -1.49513,5.55103 0,3.83094 1.94936,7.21058 4.91218,9.19062 -1.80999,-0.0573 -3.51257,-0.55408 -5.00126,-1.38103 -0.004,0.046 -0.004,0.0923 -0.004,0.13886 0,5.34974 3.80619,9.81225 8.85748,10.8273 -0.92651,0.25242 -1.90201,0.38723 -2.90899,0.38723 -0.7115,0 -1.40309,-0.0694 -2.07746,-0.19805 1.40525,4.38662 5.48294,7.57897 10.31494,7.66778 -3.779,2.96172 -8.53994,4.72704 -13.71342,4.72704 -0.89127,0 -1.77016,-0.0524 -2.63397,-0.15446 4.88661,3.13313 10.6906,4.96115 16.92622,4.96115 20.3099,0 31.41652,-16.82503 31.41652,-31.4168 0,-0.47873 -0.0109,-0.95477 -0.032,-1.42866 2.15712,-1.55648 4.02899,-3.50101 5.50932,-5.71544 z" />
  </g>
</svg>
