<?xml version="1.0" encoding="utf-8"?>
<!-- Generator: Adobe Illustrator 23.0.3, SVG Export Plug-In . SVG Version: 6.00 Build 0)  -->
<svg version="1.1" id="Layer_1" xmlns="http://www.w3.org/2000/svg" xmlns:xlink="http://www.w3.org/1999/xlink" x="0px" y="0px"
	 viewBox="0 0 69.61 69.68" style="enable-background:new 0 0 69.61 69.68;" xml:space="preserve">
<g>
	<path d="M66.57,9.35c-1.29,0-2.4,0.81-2.84,1.95h-0.3c-0.42-1.42-1.83-2.47-3.49-2.47c-0.09,0-0.18,0.01-0.27,0.01
		c-0.19-0.25-0.38-0.49-0.58-0.73c-1.2-1.38-2.66-2.56-4.3-3.47c-1.54-0.85-3.22-1.45-4.98-1.78c-0.73-0.13-1.47-0.23-2.21-0.26
		c-0.89-0.04-1.78,0.04-2.65,0.24c-1.73,0.4-3.33,1.26-4.54,2.47c-0.64,0.63-1.17,1.35-1.57,2.13c-0.3,0.59-0.56,1.22-0.67,1.87
		c-0.08,0.54-0.04,1.08,0.12,1.6c-0.33-0.73-0.47-1.52-0.41-2.31c0.07-0.82,0.36-1.61,0.84-2.3c0.22-0.32,0.49-0.61,0.79-0.87
		c0.31-0.27,0.58-0.56,0.8-0.9c0.42-0.66,0.61-1.43,0.55-2.2c-0.03-0.37-0.12-0.74-0.27-1.09c-0.17-0.4-0.43-0.75-0.83-0.99
		c-0.49-0.28-1.1-0.34-1.64-0.14c-0.26,0.1-0.49,0.26-0.67,0.46c-0.18-0.2-0.41-0.36-0.67-0.46c-0.53-0.2-1.15-0.14-1.64,0.14
		c-0.4,0.23-0.65,0.59-0.83,0.99c-0.15,0.35-0.25,0.72-0.27,1.09c-0.07,0.76,0.13,1.54,0.55,2.2c0.22,0.34,0.49,0.63,0.8,0.9
		c0.3,0.26,0.57,0.55,0.79,0.87c0.48,0.69,0.77,1.48,0.84,2.3c0.07,0.79-0.08,1.59-0.41,2.31c0.16-0.52,0.21-1.06,0.12-1.6
		c-0.1-0.65-0.37-1.28-0.67-1.87c-0.4-0.78-0.93-1.5-1.57-2.13c-1.22-1.21-2.81-2.07-4.54-2.47c-0.86-0.2-1.76-0.28-2.65-0.24
		c-0.74,0.03-1.49,0.13-2.21,0.26c-1.75,0.32-3.44,0.93-4.98,1.78c-1.64,0.91-3.11,2.09-4.3,3.47c-0.2,0.23-0.39,0.47-0.57,0.72
		c-0.01,0-0.02,0-0.03,0c-1.67,0-3.07,1.05-3.49,2.47H11.3v0.42c-1.42,0.42-2.47,1.83-2.47,3.49c0,0.01,0,0.02,0,0.03
		c-0.25,0.18-0.49,0.37-0.72,0.57c-1.38,1.2-2.56,2.66-3.47,4.3c-0.85,1.54-1.45,3.23-1.78,4.98c-0.13,0.73-0.23,1.47-0.26,2.21
		c-0.04,0.89,0.04,1.78,0.24,2.64c0.4,1.73,1.26,3.33,2.47,4.54c0.63,0.64,1.35,1.17,2.13,1.57c0.58,0.3,1.22,0.56,1.86,0.67
		c0.54,0.09,1.08,0.04,1.6-0.12c-0.73,0.33-1.52,0.47-2.31,0.41c-0.82-0.07-1.61-0.36-2.3-0.84c-0.32-0.22-0.61-0.49-0.87-0.79
		c-0.27-0.31-0.56-0.58-0.9-0.8c-0.66-0.42-1.43-0.61-2.2-0.55c-0.37,0.03-0.74,0.12-1.09,0.27c-0.4,0.17-0.75,0.42-0.99,0.83
		c-0.28,0.49-0.34,1.1-0.14,1.64c0.1,0.26,0.26,0.49,0.46,0.67c-0.2,0.18-0.36,0.41-0.46,0.67c-0.2,0.53-0.14,1.15,0.14,1.64
		c0.23,0.4,0.59,0.65,0.99,0.83c0.35,0.15,0.72,0.24,1.09,0.27c0.76,0.06,1.54-0.13,2.2-0.55c0.34-0.22,0.63-0.49,0.9-0.8
		c0.27-0.3,0.55-0.57,0.87-0.79c0.69-0.48,1.48-0.77,2.3-0.84c0.79-0.07,1.58,0.08,2.31,0.41c-0.52-0.16-1.06-0.21-1.6-0.12
		c-0.65,0.11-1.28,0.37-1.86,0.67c-0.78,0.4-1.5,0.93-2.13,1.57c-1.21,1.22-2.07,2.81-2.47,4.54c-0.2,0.86-0.28,1.76-0.24,2.65
		c0.03,0.74,0.13,1.48,0.26,2.21c0.33,1.75,0.93,3.44,1.78,4.98c0.91,1.64,2.09,3.11,3.47,4.3c0.24,0.2,0.48,0.39,0.73,0.58
		c-0.01,0.09-0.01,0.18-0.01,0.27c0,1.67,1.05,3.07,2.47,3.49v0.33c-1.19,0.41-2.05,1.54-2.05,2.87c0,1.68,1.36,3.04,3.04,3.04
		c1.68,0,3.04-1.36,3.04-3.04c0-1.37-0.91-2.54-2.16-2.91l0-0.31c1.37-0.46,2.38-1.84,2.38-3.47c0-1.6-0.97-2.96-2.31-3.43v-3.34
		c0.95-1.13,1.4-2.8,0.89-4.26c-0.3-0.85-0.94-1.55-1.74-1.86c-0.74-0.29-1.6-0.23-2.29,0.21c0.72-0.21,1.52-0.11,2.15,0.34
		c0.66,0.47,1.09,1.28,1.08,2.14c-0.01,0.91-0.4,1.82-1.03,2.42c-0.62,0.59-1.45,0.88-2.27,0.77c-0.38-0.05-0.75-0.18-1.09-0.39
		c-0.19-0.12-0.36-0.26-0.52-0.41c-0.09-0.09-0.2-0.23-0.27-0.31c-0.72-0.97-1.24-2.09-1.52-3.29c-0.4-1.76-0.26-3.62,0.36-5.29
		c0.33-0.89,0.82-1.71,1.4-2.43c0.24-0.3,0.49-0.58,0.8-0.79c0.31-0.21,0.67-0.33,1.03-0.38c0.82-0.1,1.64,0.23,2.22,0.85
		c0.55,0.59,0.86,1.42,0.87,2.26c-0.03,0.29-0.1,0.58-0.2,0.86c-0.3,0.83-0.88,1.54-1.62,1.95c0.31-0.15,0.6-0.36,0.86-0.61
		c0.59-0.56,0.99-1.33,1.13-2.16c0.14-0.8,0.04-1.64-0.28-2.38c-0.06-0.14-0.13-0.28-0.21-0.42c-0.01-0.01-0.01-0.03-0.02-0.04
		c-0.38-0.81-0.99-1.5-1.7-1.98c-0.35-0.23-0.72-0.4-1.1-0.53c0.38-0.13,0.76-0.29,1.1-0.53c0.71-0.48,1.32-1.16,1.7-1.97
		c0-0.01,0.01-0.02,0.02-0.04v0c0.08-0.13,0.15-0.28,0.21-0.42c0.32-0.74,0.42-1.58,0.28-2.38c-0.15-0.83-0.55-1.6-1.13-2.16
		c-0.26-0.25-0.55-0.45-0.86-0.61c0.74,0.41,1.32,1.12,1.62,1.95c0.1,0.28,0.17,0.56,0.2,0.86C13.3,33,13,33.82,12.45,34.42
		c-0.58,0.62-1.4,0.95-2.22,0.85c-0.36-0.05-0.72-0.17-1.03-0.38c-0.31-0.21-0.56-0.49-0.8-0.78c-0.58-0.72-1.07-1.55-1.4-2.44
		c-0.62-1.67-0.76-3.54-0.36-5.29c0.28-1.21,0.8-2.32,1.52-3.29c0.07-0.08,0.18-0.22,0.27-0.31c0.16-0.16,0.33-0.3,0.52-0.41
		c0.33-0.21,0.7-0.34,1.09-0.39c0.82-0.11,1.65,0.18,2.27,0.77c0.63,0.6,1.03,1.51,1.03,2.42c0.01,0.86-0.42,1.67-1.08,2.14
		c-0.63,0.45-1.43,0.55-2.15,0.34c0.68,0.44,1.54,0.5,2.29,0.21c0.8-0.31,1.44-1.01,1.74-1.86c0.52-1.45,0.07-3.13-0.89-4.26v-3.1
		c1.25-0.45,2.16-1.66,2.28-3.12c1.46-0.12,2.67-1.03,3.12-2.28h3.1c1.13,0.95,2.8,1.4,4.26,0.89c0.85-0.3,1.55-0.94,1.86-1.74
		c0.29-0.74,0.23-1.6-0.21-2.29c0.21,0.72,0.11,1.52-0.34,2.15c-0.47,0.66-1.28,1.09-2.14,1.08c-0.91-0.01-1.82-0.4-2.42-1.03
		c-0.59-0.62-0.88-1.45-0.77-2.28c0.05-0.38,0.18-0.75,0.39-1.09c0.12-0.19,0.26-0.36,0.41-0.52c0.09-0.09,0.23-0.2,0.31-0.27
		c0.97-0.72,2.09-1.24,3.29-1.52C28.13,6.24,30,6.38,31.67,7c0.89,0.33,1.71,0.82,2.43,1.4c0.3,0.24,0.58,0.49,0.78,0.8
		c0.21,0.31,0.34,0.67,0.38,1.03c0.1,0.82-0.23,1.64-0.85,2.22C33.82,13,33,13.3,32.16,13.32c-0.29-0.03-0.58-0.1-0.86-0.2
		c-0.83-0.3-1.54-0.88-1.95-1.62c0.15,0.31,0.36,0.6,0.61,0.86c0.56,0.59,1.33,0.99,2.16,1.13c0.8,0.14,1.64,0.04,2.38-0.28
		c0.14-0.06,0.28-0.13,0.42-0.21h0c0.01-0.01,0.03-0.01,0.04-0.02c0.81-0.38,1.5-0.99,1.97-1.7c0.23-0.35,0.4-0.72,0.53-1.1
		c0.13,0.38,0.3,0.76,0.53,1.1c0.48,0.71,1.16,1.32,1.98,1.7c0.01,0.01,0.02,0.01,0.04,0.02c0.14,0.08,0.27,0.15,0.42,0.21
		c0.74,0.32,1.58,0.42,2.38,0.28c0.83-0.15,1.6-0.55,2.16-1.13c0.25-0.26,0.45-0.55,0.61-0.86c-0.41,0.74-1.12,1.32-1.95,1.62
		c-0.28,0.1-0.56,0.17-0.86,0.2c-0.84-0.01-1.67-0.32-2.26-0.87c-0.62-0.58-0.95-1.4-0.85-2.22c0.05-0.36,0.17-0.72,0.38-1.03
		c0.21-0.31,0.49-0.56,0.78-0.8c0.72-0.58,1.54-1.07,2.43-1.4c1.67-0.62,3.54-0.76,5.29-0.36c1.2,0.28,2.32,0.8,3.29,1.52
		c0.08,0.07,0.22,0.18,0.31,0.27c0.16,0.16,0.3,0.33,0.41,0.52c0.21,0.33,0.34,0.7,0.39,1.09c0.11,0.82-0.18,1.65-0.77,2.28
		c-0.6,0.63-1.51,1.02-2.42,1.03c-0.86,0.01-1.67-0.42-2.14-1.08c-0.45-0.63-0.55-1.43-0.34-2.15c-0.45,0.68-0.5,1.54-0.21,2.29
		c0.31,0.8,1.01,1.44,1.86,1.74c1.46,0.52,3.13,0.07,4.26-0.89h3.34c0.48,1.34,1.83,2.31,3.43,2.31c1.63,0,3.01-1,3.47-2.37l0.22,0
		c0.35,1.3,1.53,2.26,2.94,2.26c1.68,0,3.04-1.36,3.04-3.04S68.25,9.35,66.57,9.35z M6.68,37.6c-0.4,0.18-0.78,0.41-1.12,0.7
		c-0.18,0.14-0.35,0.3-0.5,0.47c-0.15,0.16-0.28,0.33-0.43,0.48c-0.59,0.58-1.37,0.91-2.17,0.92c-0.39,0-0.78-0.07-1.14-0.21
		c-0.38-0.15-0.69-0.42-0.84-0.84c-0.14-0.4-0.12-0.85,0.07-1.23c0.08-0.16,0.19-0.3,0.32-0.43c-0.12-0.12-0.24-0.26-0.32-0.42
		c-0.18-0.38-0.21-0.83-0.07-1.23c0.15-0.42,0.46-0.69,0.84-0.84c0.37-0.14,0.75-0.21,1.14-0.21c0.8,0.01,1.58,0.33,2.17,0.92
		c0.15,0.15,0.29,0.32,0.43,0.48c0.16,0.17,0.33,0.32,0.5,0.47c0.35,0.28,0.72,0.51,1.12,0.69c0.12,0.06,0.25,0.1,0.37,0.15
		C6.93,37.5,6.8,37.55,6.68,37.6z M7.97,39.37c-0.28,0.24-0.55,0.5-0.79,0.78c-1.16,1.28-1.95,2.93-2.28,4.68
		c-0.34,1.8-0.19,3.69,0.43,5.4c0.31,0.87,0.74,1.68,1.27,2.42c0.17,0.24,0.36,0.48,0.56,0.69c0.31,0.32,0.66,0.59,1.04,0.8
		c1.26,0.68,2.77,0.66,3.99-0.06v2.26c-1.1,0-2.08,0.58-2.69,1.46c-0.75-0.54-1.44-1.16-2.07-1.86c-1.2-1.33-2.16-2.92-2.8-4.64
		c-0.32-0.86-0.56-1.75-0.72-2.66c-0.16-0.9-0.24-1.81-0.15-2.72c0.16-1.76,0.87-3.44,1.97-4.74c0.59-0.69,1.28-1.28,2.05-1.72
		c0.11-0.06,0.22-0.12,0.33-0.18C8.06,39.29,8.01,39.33,7.97,39.37z M12.19,20.84c-1.22-0.72-2.73-0.75-3.99-0.06
		c-0.38,0.21-0.74,0.48-1.04,0.8c-0.2,0.21-0.39,0.45-0.56,0.69C6.06,23,5.64,23.82,5.32,24.68c-0.62,1.71-0.76,3.6-0.43,5.4
		c0.33,1.75,1.12,3.4,2.28,4.68c0.25,0.28,0.51,0.54,0.79,0.78c0.05,0.04,0.09,0.07,0.14,0.11c-0.11-0.06-0.22-0.12-0.33-0.18
		c-0.77-0.44-1.46-1.03-2.05-1.72c-1.1-1.3-1.81-2.98-1.97-4.74c-0.08-0.91-0.01-1.82,0.15-2.72c0.16-0.91,0.4-1.8,0.72-2.66
		c0.64-1.72,1.6-3.31,2.8-4.64c0.6-0.66,1.26-1.25,1.97-1.78c0.6,0.98,1.63,1.62,2.8,1.62V20.84z M35.54,7.97
		c-0.24-0.28-0.5-0.55-0.78-0.79c-1.28-1.16-2.93-1.95-4.69-2.28c-1.79-0.34-3.69-0.19-5.4,0.43C23.82,5.64,23,6.06,22.26,6.6
		c-0.24,0.17-0.48,0.36-0.69,0.56c-0.32,0.31-0.59,0.66-0.8,1.05c-0.68,1.26-0.66,2.77,0.06,3.99h-2.01c0-1.17-0.65-2.2-1.62-2.8
		c0.52-0.71,1.11-1.37,1.78-1.97c1.33-1.2,2.91-2.16,4.64-2.8c0.86-0.32,1.75-0.56,2.66-0.72c0.9-0.16,1.81-0.24,2.72-0.15
		c1.76,0.16,3.44,0.87,4.74,1.97c0.69,0.59,1.28,1.28,1.72,2.05c0.06,0.11,0.12,0.22,0.18,0.33C35.61,8.06,35.58,8.01,35.54,7.97z
		 M37.45,7.05c-0.05-0.12-0.09-0.25-0.15-0.37c-0.18-0.4-0.41-0.78-0.69-1.12c-0.15-0.18-0.3-0.35-0.47-0.5
		c-0.16-0.15-0.33-0.28-0.48-0.43c-0.58-0.59-0.91-1.37-0.92-2.17c0-0.39,0.07-0.78,0.21-1.14c0.15-0.38,0.43-0.69,0.84-0.84
		c0.4-0.14,0.85-0.12,1.23,0.07c0.16,0.08,0.3,0.19,0.42,0.32c0.12-0.12,0.26-0.24,0.42-0.32c0.38-0.18,0.83-0.21,1.23-0.07
		c0.42,0.15,0.69,0.46,0.84,0.84c0.14,0.37,0.21,0.75,0.21,1.14c-0.01,0.8-0.33,1.58-0.92,2.17c-0.15,0.15-0.32,0.29-0.48,0.43
		c-0.17,0.16-0.32,0.33-0.47,0.5c-0.28,0.35-0.51,0.72-0.7,1.12C37.55,6.8,37.5,6.93,37.45,7.05z M56.32,12.19h-2.26
		c0.72-1.22,0.75-2.73,0.07-3.99c-0.21-0.38-0.48-0.74-0.8-1.05c-0.21-0.2-0.45-0.39-0.69-0.56c-0.73-0.53-1.55-0.96-2.42-1.27
		c-1.71-0.62-3.6-0.76-5.4-0.43c-1.75,0.33-3.4,1.12-4.69,2.28c-0.27,0.25-0.54,0.51-0.78,0.79c-0.04,0.05-0.08,0.09-0.11,0.14
		c0.06-0.11,0.12-0.22,0.18-0.33c0.44-0.77,1.03-1.46,1.72-2.05c1.3-1.1,2.98-1.81,4.74-1.97c0.92-0.08,1.82-0.01,2.72,0.15
		c0.91,0.16,1.8,0.4,2.66,0.72c1.72,0.64,3.31,1.6,4.64,2.8c0.7,0.63,1.32,1.33,1.86,2.07C56.9,10.11,56.32,11.09,56.32,12.19z"/>
</g>
</svg>
