<?xml version="1.0" encoding="utf-8"?>
<!-- Generator: Adobe Illustrator 23.0.3, SVG Export Plug-In . SVG Version: 6.00 Build 0)  -->
<svg version="1.1" id="Layer_1" xmlns="http://www.w3.org/2000/svg" xmlns:xlink="http://www.w3.org/1999/xlink" x="0px" y="0px"
	 viewBox="0 0 66.95 66.95" style="enable-background:new 0 0 66.95 66.95;" xml:space="preserve">
<g>
	<path d="M66.95,14.92v-3.24c-0.76,0.14-1.37,0.41-1.89,0.76c-1.68,1.1-2.39,3.07-3.86,4.35c-0.24-0.02-0.48-0.04-0.73-0.06
		c-2.21-1.76-2.93-5-7.15-4.74c0,0.01,0,0.02,0,0.03c-0.03,0-0.05,0-0.08,0c0.51,3.43,2.68,5.21,6.92,4.93
		c0.68,0.07,1.3,0.12,1.89,0.16c-2.53,0.03-4.93,0.05-7.15,0.07c-0.88-0.02-1.73-0.05-2.61-0.11c0,0-0.43-0.02-1.13-0.11
		c-0.14-0.26-0.42-0.44-0.74-0.44c0,0,0,0-0.01,0c-0.43-1.13-1.54-2.2-3.37-2.75c-0.47-0.14-0.94-0.25-1.41-0.34
		c-0.04-2.6-2.01-4.64-4.61-4.64c-2.1,0-3.91,1.5-3.91,3.6c0,1.36,1.12,2.46,2.49,2.46c1.26,0,2.29-1.02,2.29-2.28
		c0-1.22-1.03-2.24-2.24-2.3c0,0,0.29-0.52,1.5-0.49c1.12,0.02,3.22,0.73,3.55,3.47c0,0,0.2,2.03-1.36,3.62
		c-0.99,1.01-2.43,1.98-4.54,2c0,0-2.26,0.02-4.24-0.67c-1.62-0.56-3.18-2-4.59-3.94l-2.57,3.15l-1.33-4.44
		c0.81,0.59,1.93,0.94,3.14,0.94c2.96,0,5.19-1.84,5.19-4.18c0-3.1-3.33-5.63-7.59-5.63L24.5,0l-2.33,4.08
		c-4.26,0-7.59,2.53-7.59,5.63c0,2.33,2.23,4.18,5.19,4.18c1.21,0,2.33-0.35,3.14-0.94l-1.33,4.44l-2.57-3.15
		c-0.72,0.99-1.48,1.84-2.26,2.52c-0.68,0.78-1.53,1.54-2.52,2.26l3.15,2.57l-4.44,1.33c0.59-0.81,0.94-1.93,0.94-3.14
		c0-2.96-1.84-5.19-4.18-5.19c-3.1,0-5.63,3.33-5.63,7.59L0,24.5l4.08,2.33c0,4.26,2.53,7.59,5.63,7.59c2.33,0,4.18-2.23,4.18-5.19
		c0-1.21-0.35-2.33-0.94-3.14l4.44,1.33l-3.15,2.57c1.95,1.42,3.38,2.97,3.94,4.59c0.69,1.97,0.67,4.24,0.67,4.24
		c-0.01,2.1-0.99,3.55-2,4.54c-1.59,1.56-3.62,1.36-3.62,1.36c-2.75-0.33-3.45-2.44-3.47-3.55c-0.02-1.21,0.49-1.5,0.49-1.5
		c0.06,1.21,1.08,2.24,2.3,2.24c1.26,0,2.28-1.03,2.28-2.29c0-1.36-1.1-2.49-2.46-2.49c-2.1,0-3.6,1.81-3.6,3.91
		c0,2.61,2.04,4.58,4.64,4.61c0.09,0.47,0.2,0.94,0.34,1.41c0.55,1.83,1.63,2.94,2.75,3.38c0,0,0,0,0,0.01
		c0,0.32,0.18,0.6,0.44,0.74c0.09,0.7,0.1,1.12,0.11,1.13c0.06,0.88,0.09,1.74,0.11,2.61c-0.02,2.22-0.04,4.62-0.07,7.15
		c-0.04-0.59-0.1-1.21-0.16-1.89c0.28-4.24-1.5-6.41-4.93-6.92c0,0.03,0,0.05,0,0.08c-0.01,0-0.02,0-0.03,0
		c-0.25,4.22,2.99,4.94,4.74,7.15c0.02,0.25,0.04,0.49,0.06,0.73c-1.28,1.47-3.25,2.18-4.35,3.86c-0.35,0.52-0.62,1.13-0.76,1.89
		h3.24c0.32-0.27,0.61-0.58,0.86-0.93c0.65-0.9,1.02-2.11,1.11-3.64c0.11,1.38,0.17,2.49,0.17,3.42c0,0.21,0,0.42-0.01,0.63
		c-0.01,0.18-0.02,0.36-0.03,0.53h0.68c-0.01-0.17-0.02-0.34-0.03-0.52c0-0.21,0-0.41-0.01-0.62c0-0.93,0.07-2.04,0.18-3.43
		c0.09,1.53,0.46,2.74,1.11,3.64c0.24,0.36,0.53,0.66,0.85,0.93h2.58h0.66H24V24.42h42.96v-1.38v-0.24V19.8
		c-0.27-0.32-0.57-0.61-0.93-0.85c-0.9-0.65-2.11-1.02-3.64-1.11c1.39-0.11,2.5-0.17,3.43-0.18c0.21,0,0.41,0,0.62,0.01
		c0.18,0.01,0.35,0.01,0.52,0.03v-0.68c-0.17,0.01-0.35,0.02-0.53,0.03c-0.21,0-0.42,0-0.63,0.01c-0.93,0-2.04-0.07-3.42-0.17
		c1.53-0.09,2.74-0.46,3.64-1.11C66.38,15.53,66.69,15.24,66.95,14.92z M13.02,29.37c-0.02,1.25-0.64,3.62-3.08,3.99
		c0,0-1.8,0.22-3.21-1.53c-0.89-1.11-1.76-2.73-1.77-5.09c0,0,3.19-0.78,3.95-1.85l0.82,0.24c-0.72,0.46-1.21,1.41-1.21,2.5
		c0,1.42,0.9,2.58,2.02,2.58c1.08,0,1.99-1.16,2.04-2.52C12.58,27.68,13.04,28.01,13.02,29.37z M12.58,21.32
		c-0.05-1.36-0.96-2.52-2.04-2.52c-1.12,0-2.02,1.16-2.02,2.58c0,1.09,0.49,2.04,1.21,2.5l-0.82,0.24
		c-0.77-1.07-3.95-1.85-3.95-1.85c0.01-2.36,0.88-3.98,1.77-5.09c1.41-1.75,3.21-1.53,3.21-1.53c2.43,0.37,3.06,2.74,3.08,3.99
		C13.04,20.99,12.58,21.32,12.58,21.32z M26.74,4.96c2.36,0.01,3.98,0.88,5.09,1.77c1.75,1.41,1.53,3.21,1.53,3.21
		c-0.37,2.43-2.74,3.06-3.99,3.08c-1.36,0.02-1.68-0.44-1.68-0.44c1.36-0.05,2.52-0.96,2.52-2.04c0-1.12-1.16-2.02-2.58-2.02
		c-1.09,0-2.04,0.49-2.5,1.21l-0.24-0.82C25.96,8.15,26.74,4.96,26.74,4.96z M21.38,8.52c-1.41,0-2.58,0.9-2.58,2.02
		c0,1.08,1.16,1.99,2.52,2.04c0,0-0.32,0.46-1.68,0.44c-1.25-0.02-3.62-0.64-3.99-3.08c0,0-0.22-1.8,1.53-3.21
		c1.11-0.89,2.73-1.76,5.09-1.77c0,0,0.78,3.19,1.85,3.95l-0.24,0.82C23.41,9.01,22.46,8.52,21.38,8.52z M22.28,65.06
		c-1.1-1.68-3.06-2.39-4.35-3.86c0.02-0.24,0.04-0.48,0.06-0.73c1.33-1.67,3.51-2.49,4.38-4.63v9.37
		C22.35,65.17,22.32,65.11,22.28,65.06z M65.06,22.28c0.31,0.21,0.65,0.39,1.04,0.53H22.38v30.51c-3.21,0.6-4.87,2.76-4.6,6.86
		c-0.06,0.68-0.12,1.3-0.16,1.89c-0.03-2.53-0.05-4.94-0.07-7.16c0.02-0.87,0.05-1.73,0.11-2.6c0,0,0.02-0.43,0.11-1.13
		c0.23-0.12,0.39-0.35,0.43-0.62c0.51-0.12,0.98-0.39,1.36-0.82c0.68-0.77,1.09-1.69,1.25-2.65c0.6-0.07,1.08-0.57,1.08-1.19
		c0-0.67-0.54-1.21-1.21-1.21c-0.67,0-1.21,0.54-1.21,1.21c0,0.56,0.38,1.03,0.9,1.16c-0.2,1.4-0.75,2.95-2.16,3.34
		c-0.01-0.46-0.39-0.82-0.85-0.82c-0.42,0-0.77,0.3-0.83,0.7c-0.94-0.43-1.58-1.46-2-2.44c-0.31-0.73-0.5-1.48-0.62-2.22
		c3.31-0.23,5.94-3.09,5.94-6.73V24.5v-4.65h4.65h14.39c3.64,0,6.51-2.63,6.73-5.94c0.75,0.12,1.49,0.31,2.22,0.62
		c0.98,0.41,2.01,1.05,2.44,2c-0.4,0.07-0.7,0.41-0.7,0.83c0,0.46,0.37,0.83,0.82,0.85c-0.38,1.41-1.94,1.97-3.34,2.16
		c-0.14-0.52-0.6-0.9-1.16-0.9c-0.67,0-1.21,0.54-1.21,1.21c0,0.67,0.54,1.21,1.21,1.21c0.62,0,1.13-0.47,1.19-1.08
		c0.96-0.16,1.88-0.57,2.65-1.25c0.42-0.38,0.69-0.85,0.82-1.36c0.27-0.04,0.49-0.2,0.62-0.43c0.7-0.09,1.12-0.11,1.13-0.11
		c0.88-0.06,1.73-0.09,2.6-0.11c2.23,0.02,4.63,0.04,7.16,0.07c-0.59,0.04-1.21,0.1-1.89,0.16c-4.24-0.28-6.41,1.5-6.92,4.93
		c0.03,0,0.05,0,0.08,0c0,0.01,0,0.02,0,0.03c4.22,0.25,4.94-2.98,7.15-4.74c0.25-0.02,0.49-0.04,0.73-0.06
		C62.68,19.22,63.38,21.19,65.06,22.28z"/>
	<polygon points="28.22,66.95 29.83,66.95 29.83,30.26 66.95,30.26 66.95,28.65 28.22,28.65 	"/>
</g>
</svg>
