<?xml version="1.0" encoding="utf-8"?>
<!-- Generator: Adobe Illustrator 23.0.3, SVG Export Plug-In . SVG Version: 6.00 Build 0)  -->
<svg version="1.1" id="Layer_1" xmlns="http://www.w3.org/2000/svg" xmlns:xlink="http://www.w3.org/1999/xlink" x="0px" y="0px"
	 viewBox="0 0 58.14 58.14" style="enable-background:new 0 0 58.14 58.14;" xml:space="preserve">
<g>
	<path d="M57.6,10.27C57.9,11.09,57,8.65,57.6,10.27L57.6,10.27z"/>
	<path d="M57.6,10.27c-0.62-1.69-1.78-3.17-3.25-4.21c-0.82-0.58-1.74-1.03-2.7-1.32c-1.01-0.3-2.07-0.41-3.12-0.4
		c-2.08,0.03-4.09,0.6-5.96,1.5c-1.85,0.89-3.56,2.06-5.18,3.32c-1.69,1.31-3.3,2.73-4.96,4.08c-1.63,1.32-3.33,2.63-5.3,3.39
		c-0.98,0.38-2.01,0.6-3.06,0.63c-1.02,0.03-2.07-0.1-3.01-0.49c-0.84-0.35-1.73-0.95-2.04-1.85c-0.22-0.65-0.06-1.27,0.28-1.82
		h3.58c0.35,0,0.64-0.24,0.64-0.54c0-0.3-0.29-0.54-0.64-0.54h-5.21h-5.21c-0.13,0-0.24,0.03-0.34,0.09
		c-0.05,0.1-0.09,0.22-0.09,0.34v5.21v5.21c0,0.35,0.24,0.64,0.54,0.64c0.3,0,0.54-0.28,0.54-0.64V19.3
		c0.54-0.34,1.17-0.5,1.82-0.28c0.9,0.31,1.5,1.2,1.85,2.04c0.39,0.94,0.52,2,0.49,3.01c-0.03,1.05-0.26,2.08-0.63,3.06
		c-0.76,1.97-2.07,3.67-3.39,5.3c-1.35,1.66-2.77,3.27-4.08,4.96c-1.26,1.62-2.43,3.32-3.32,5.18c-0.89,1.87-1.47,3.88-1.5,5.96
		c-0.02,1.05,0.1,2.11,0.4,3.12c0.29,0.97,0.74,1.88,1.32,2.7c1.04,1.47,2.52,2.63,4.21,3.25c0.7,0.26,1.44,0.43,2.19,0.5
		c1.03,0.1,2.07,0,3.05-0.36c0.87-0.32,1.66-0.84,2.27-1.54c0.63-0.72,1.05-1.6,1.26-2.53c0.23-1,0.25-2.07-0.01-3.07
		c-0.47-1.83-1.92-3.43-3.84-3.74c-1.01-0.16-2.1,0.04-2.98,0.58c-0.79,0.49-1.37,1.26-1.61,2.16c-0.24,0.88-0.14,1.86,0.31,2.66
		c0.48,0.85,1.32,1.41,2.27,1.6c-0.6-0.18-1.16-0.5-1.58-0.97c-0.4-0.45-0.66-1-0.75-1.59c-0.14-0.89,0.1-1.83,0.66-2.55
		c0.61-0.78,1.55-1.19,2.52-1.26c0.99-0.07,1.95,0.26,2.7,0.91c0.71,0.62,1.18,1.49,1.38,2.41c0.22,1,0.12,2.1-0.22,3.06
		c-0.31,0.87-0.87,1.64-1.62,2.18c-1.67,1.18-3.97,1.04-5.78,0.28c-1.69-0.72-3.09-2.05-3.93-3.68c-0.96-1.86-1.08-4.04-0.7-6.07
		c0.38-2.03,1.27-3.92,2.34-5.68c1.11-1.81,2.42-3.49,3.74-5.16c1.33-1.68,2.72-3.34,3.86-5.16c0.55-0.88,1.04-1.8,1.41-2.78
		c0.19-0.49,0.34-1,0.45-1.51c0.03-0.14,0.06-0.28,0.08-0.41c0.01-0.06,0.02-0.13,0.03-0.19c0-0.03,0.01-0.05,0-0.07
		c0.13,0.17,0.23,0.37,0.31,0.57c0.18,0.48,0.22,1.01,0.2,1.52c-0.02,0.52-0.12,1.05-0.29,1.54c-0.28,0.76-0.7,1.46-1.18,2.12
		c-0.64,0.85-1.36,1.64-2.05,2.45c-0.68,0.8-1.35,1.61-1.94,2.48c-1.14,1.7-1.96,3.7-1.67,5.79c0.27,1.92,1.62,3.61,3.48,4.2
		c0.97,0.31,2.07,0.33,3-0.12c0.88-0.42,1.49-1.22,1.72-2.16c0.24-0.98,0.07-2.1-0.58-2.89c-0.61-0.73-1.63-1.14-2.57-0.93
		c-0.89,0.2-1.61,0.98-1.65,1.91c-0.04,0.92,0.57,1.79,1.5,1.95c-0.46-0.15-0.84-0.47-1.06-0.9c-0.2-0.42-0.24-0.91-0.08-1.35
		c0.15-0.43,0.47-0.78,0.87-0.97c0.39-0.19,0.85-0.22,1.27-0.11c0.41,0.1,0.79,0.33,1.07,0.64c0.32,0.35,0.5,0.82,0.56,1.29
		c0.12,0.95-0.25,2-1.07,2.53c-0.81,0.52-1.87,0.48-2.75,0.17c-0.9-0.32-1.66-0.96-2.14-1.78c-0.51-0.86-0.69-1.86-0.61-2.85
		c0.16-2.11,1.4-3.94,2.64-5.58c0.65-0.85,1.33-1.68,1.97-2.54c0.6-0.8,1.15-1.66,1.52-2.6c0.31-0.8,0.44-1.67,0.37-2.52
		c-0.06-0.7-0.29-1.49-0.79-2c0.13-0.95,0.1-1.91-0.07-2.85c-0.15-0.84-0.44-1.67-0.91-2.39c-0.51-0.77-1.3-1.49-2.27-1.55
		c-0.54-0.03-1.03,0.16-1.46,0.46v-1.5v-1.5c0.42,0.3,0.91,0.49,1.46,0.46c0.55-0.03,1.04-0.27,1.45-0.62
		c0.34-0.41,0.58-0.9,0.62-1.45c0.03-0.54-0.16-1.03-0.46-1.46h1.5h1.5c-0.3,0.42-0.49,0.91-0.46,1.46
		c0.06,0.97,0.77,1.76,1.55,2.27c0.72,0.48,1.54,0.76,2.39,0.91c0.94,0.17,1.9,0.2,2.85,0.07c0.51,0.51,1.29,0.73,2,0.79
		c0.86,0.07,1.72-0.06,2.52-0.37c0.94-0.36,1.8-0.92,2.6-1.52c0.86-0.64,1.69-1.32,2.54-1.97c1.64-1.24,3.47-2.47,5.58-2.64
		c0.99-0.08,1.99,0.1,2.85,0.61c0.81,0.49,1.46,1.25,1.78,2.14c0.31,0.88,0.35,1.94-0.17,2.75c-0.53,0.82-1.58,1.19-2.53,1.07
		c-0.47-0.06-0.94-0.24-1.29-0.56c-0.31-0.28-0.54-0.66-0.64-1.07c-0.11-0.42-0.08-0.87,0.11-1.27c0.2-0.4,0.55-0.72,0.97-0.87
		c0.44-0.15,0.93-0.12,1.35,0.08c0.43,0.21,0.75,0.6,0.9,1.06c-0.16-0.93-1.04-1.54-1.95-1.5c-0.93,0.04-1.71,0.76-1.9,1.65
		c-0.21,0.94,0.2,1.96,0.93,2.57c0.79,0.65,1.91,0.82,2.89,0.58c0.94-0.23,1.74-0.84,2.16-1.72c0.44-0.93,0.42-2.03,0.12-3
		c-0.59-1.86-2.28-3.21-4.2-3.48c-2.09-0.29-4.09,0.53-5.79,1.67c-0.87,0.59-1.69,1.26-2.48,1.94c-0.81,0.69-1.6,1.41-2.45,2.05
		c-0.65,0.48-1.35,0.9-2.12,1.18c-0.49,0.18-1.02,0.27-1.54,0.29c-0.51,0.02-1.04-0.02-1.52-0.2c-0.21-0.08-0.4-0.18-0.57-0.31
		c0.02,0.01,0.04,0,0.07,0c0.07-0.01,0.13-0.02,0.19-0.03c0.14-0.02,0.28-0.05,0.41-0.08c0.51-0.11,1.02-0.27,1.51-0.45
		c0.97-0.37,1.9-0.85,2.78-1.41c1.82-1.14,3.48-2.53,5.16-3.86c1.66-1.32,3.34-2.63,5.16-3.74c1.75-1.07,3.65-1.97,5.68-2.34
		c2.03-0.38,4.21-0.26,6.07,0.7c1.63,0.84,2.96,2.24,3.68,3.93c0.77,1.81,0.9,4.11-0.28,5.78c-0.53,0.76-1.31,1.32-2.18,1.62
		c-0.96,0.34-2.06,0.44-3.06,0.22c-0.92-0.2-1.78-0.68-2.41-1.38c-0.66-0.74-0.98-1.71-0.91-2.7c0.07-0.97,0.48-1.91,1.26-2.52
		c0.71-0.55,1.65-0.8,2.54-0.66c0.59,0.09,1.15,0.35,1.6,0.75c0.47,0.42,0.79,0.98,0.96,1.58c-0.19-0.95-0.75-1.79-1.59-2.27
		c-0.8-0.45-1.78-0.55-2.66-0.31c-0.9,0.24-1.67,0.82-2.16,1.61c-0.54,0.87-0.74,1.97-0.58,2.98c0.31,1.92,1.91,3.37,3.74,3.84
		c0.99,0.26,2.07,0.24,3.07,0.01c0.93-0.21,1.81-0.63,2.53-1.26c0.7-0.61,1.22-1.4,1.54-2.27c0.35-0.97,0.45-2.02,0.36-3.05
		C58.03,11.72,57.86,10.98,57.6,10.27z M16.31,14.93c-0.11,0.32-0.3,0.61-0.53,0.85c-0.25,0.23-0.53,0.42-0.85,0.53
		c-0.65,0.22-1.28,0.06-1.82-0.28v-2.93h2.93C16.37,13.65,16.54,14.28,16.31,14.93z"/>
	<path d="M10.27,57.6C8.65,57,11.09,57.9,10.27,57.6L10.27,57.6z"/>
	<polygon points="9.19,33.36 9.19,33.36 9.19,33.36 	"/>
	<path d="M7.77,34.95c1.9-0.36,3.62-1.45,4.97-2.8c0.73-0.73,1.37-1.55,1.91-2.42c0.54-0.87,0.99-1.81,1.27-2.8
		c0.29-1,0.43-2.09,0.23-3.12c-0.18-0.95-0.67-1.85-1.48-2.39c0.75,0.68,1.12,1.64,1.17,2.64c0.05,1.05-0.24,2.1-0.65,3.07
		c-0.4,0.93-0.93,1.8-1.55,2.61c-1.17,1.52-2.67,2.87-4.45,3.63c0.02-0.01,0.03-0.01,0,0c-0.13,0.05-0.05,0.02,0,0
		c-0.93,0.39-1.95,0.62-2.96,0.56c-0.96-0.05-1.89-0.36-2.69-0.9c-0.7-0.47-1.29-1.1-1.72-1.83c-0.44-0.76-0.71-1.63-0.73-2.51
		c-0.02-0.98,0.28-1.95,0.82-2.76c0.52-0.77,1.26-1.37,2.13-1.71c0.44-0.17,0.9-0.26,1.37-0.27c-1.17,1.08-1.79,2.3-1.75,3.68
		c0.59-0.78,1.26-1.5,2.05-2.16c0,0.01,0,0.02,0,0.03c0,0.52,0.42,0.94,0.94,0.94c0.52,0,0.94-0.42,0.94-0.94
		c0-0.43-0.29-0.79-0.68-0.9c0.13-0.09,0.27-0.17,0.41-0.25c0.7,0.32,1.33,0.8,1.81,1.4c0.63,0.79,0.98,1.76,1.05,2.77
		c0.12-1.45-0.46-2.88-1.5-3.88c-0.24-0.23-0.5-0.44-0.78-0.62c1.09-0.58,2.36-1.05,3.83-1.38l-0.08-4.97l0.08-4.97
		c-1.48-0.34-2.74-0.8-3.83-1.38c0.28-0.18,0.54-0.39,0.78-0.62c0.35-0.34,0.65-0.73,0.89-1.15c0.42-0.24,0.81-0.54,1.15-0.89
		c0.23-0.24,0.44-0.5,0.62-0.78c0.58,1.09,1.05,2.36,1.38,3.83l4.97-0.08l4.97,0.08c0.33-1.48,0.8-2.74,1.38-3.83
		c0.18,0.28,0.39,0.54,0.62,0.78c1,1.04,2.43,1.62,3.88,1.5c-1.01-0.07-1.98-0.42-2.77-1.05c-0.6-0.48-1.09-1.1-1.4-1.81
		c0.08-0.14,0.16-0.27,0.25-0.41c0.11,0.39,0.47,0.68,0.9,0.68c0.52,0,0.94-0.42,0.94-0.94c0-0.52-0.42-0.94-0.94-0.94
		c-0.01,0-0.02,0-0.03,0c0.65-0.79,1.38-1.46,2.16-2.05c-1.38-0.04-2.59,0.59-3.68,1.75c0.01-0.46,0.1-0.93,0.27-1.37
		c0.34-0.86,0.94-1.61,1.71-2.13c0.81-0.55,1.78-0.84,2.76-0.82c0.88,0.02,1.75,0.29,2.51,0.73c0.73,0.43,1.36,1.02,1.83,1.72
		c0.54,0.8,0.84,1.73,0.89,2.69c0.06,1.01-0.17,2.03-0.56,2.96c0.02-0.04,0.05-0.12,0,0c0,0,0,0,0,0c0,0,0,0,0,0c0,0,0,0,0,0
		c-0.76,1.78-2.1,3.29-3.63,4.45c-0.8,0.62-1.67,1.15-2.61,1.55c-0.96,0.41-2.01,0.69-3.07,0.65c-1-0.04-1.96-0.41-2.64-1.17
		c0.54,0.82,1.44,1.3,2.39,1.48c1.03,0.2,2.12,0.06,3.12-0.23c0.99-0.28,1.93-0.73,2.8-1.27c0.88-0.54,1.69-1.18,2.42-1.91
		c1.35-1.36,2.44-3.07,2.8-4.97c0.19-1,0.17-2.03-0.1-3.02c-0.25-0.93-0.72-1.78-1.35-2.51c-1.26-1.45-3.16-2.34-5.09-2.24
		c-1.99,0.11-3.86,1.31-4.72,3.12c-0.3,0.63-0.47,1.32-0.48,2.01c-0.61-0.25-1.37-0.21-2.33,0.22c2.06,0.54,2.04,1.77,1.42,3.19
		c-0.67,1.54-1.79,1.79-2.97,1.5c0.49-0.09,0.86-0.51,0.86-1.02c0-0.44-0.27-0.81-0.66-0.97c0.24-0.02,0.43-0.22,0.43-0.46
		c0-0.26-0.21-0.47-0.47-0.47c-0.26,0-0.47,0.21-0.47,0.47c0,0.17,0.09,0.31,0.22,0.4c-0.03,0-0.06,0-0.09,0
		c-0.25,0-0.49,0.09-0.67,0.24l-0.81-5.55l-0.81,5.55c-0.18-0.15-0.41-0.24-0.67-0.24c-0.03,0-0.06,0-0.09,0
		c0.13-0.08,0.22-0.23,0.22-0.4c0-0.26-0.21-0.47-0.47-0.47s-0.47,0.21-0.47,0.47c0,0.24,0.19,0.44,0.43,0.46
		c-0.39,0.15-0.66,0.53-0.66,0.97c0,0.51,0.37,0.94,0.86,1.02c-1.19,0.28-2.3,0.04-2.98-1.5c-0.62-1.42-0.64-2.65,1.42-3.19
		c-0.96-0.43-1.72-0.47-2.33-0.22c-0.01-0.69-0.18-1.38-0.48-2.01c-0.86-1.81-2.73-3.01-4.72-3.12c-1.83-0.1-3.64,0.7-4.9,2.02
		C0.71,3.29-0.09,5.1,0.01,6.93c0.11,1.99,1.31,3.86,3.12,4.72c0.63,0.3,1.32,0.47,2.01,0.48c-0.25,0.61-0.21,1.37,0.22,2.33
		c0.54-2.06,1.77-2.04,3.19-1.42c1.54,0.67,1.79,1.79,1.5,2.97c-0.09-0.49-0.51-0.86-1.02-0.86c-0.44,0-0.81,0.27-0.97,0.66
		c-0.02-0.24-0.22-0.43-0.46-0.43c-0.26,0-0.47,0.21-0.47,0.47c0,0.26,0.21,0.47,0.47,0.47c0.17,0,0.31-0.09,0.4-0.22
		c0,0.03,0,0.06,0,0.09c0,0.25,0.09,0.49,0.24,0.67l-5.55,0.81l5.55,0.81c-0.15,0.18-0.24,0.41-0.24,0.67c0,0.03,0,0.06,0,0.09
		c-0.08-0.13-0.23-0.22-0.4-0.22c-0.26,0-0.47,0.21-0.47,0.47c0,0.26,0.21,0.47,0.47,0.47c0.25,0,0.44-0.19,0.46-0.43
		c0.15,0.39,0.53,0.66,0.97,0.66c0.51,0,0.94-0.37,1.02-0.86c0.28,1.19,0.04,2.3-1.5,2.97c-1.42,0.62-2.65,0.64-3.19-1.42
		c-0.43,0.96-0.47,1.72-0.22,2.33c-0.69,0.01-1.38,0.18-2.01,0.48c-1.81,0.86-3.01,2.73-3.12,4.72c-0.11,1.93,0.79,3.83,2.24,5.09
		c0.72,0.63,1.58,1.09,2.51,1.35C5.74,35.12,6.77,35.13,7.77,34.95z M6.9,10.75c0.39-0.11,0.68-0.47,0.68-0.9
		c0-0.52-0.42-0.94-0.94-0.94C6.12,8.9,5.7,9.32,5.7,9.84c0,0.01,0,0.02,0,0.03C4.92,9.21,4.24,8.49,3.65,7.71
		c-0.04,1.38,0.59,2.59,1.75,3.68c-0.46-0.01-0.93-0.1-1.37-0.27c-0.86-0.34-1.61-0.94-2.13-1.71C1.36,8.6,1.07,7.63,1.08,6.65
		C1.1,5.77,1.37,4.9,1.82,4.14C2.1,3.66,2.45,3.23,2.85,2.85C3.23,2.45,3.66,2.1,4.14,1.82C4.9,1.37,5.77,1.1,6.65,1.08
		C7.63,1.07,8.6,1.36,9.41,1.91c0.77,0.52,1.37,1.27,1.71,2.13c0.17,0.44,0.26,0.9,0.27,1.37c-1.08-1.17-2.3-1.79-3.68-1.75
		c0.78,0.59,1.5,1.26,2.16,2.05c-0.01,0-0.02,0-0.03,0C9.32,5.7,8.9,6.12,8.9,6.64c0,0.52,0.42,0.94,0.94,0.94
		c0.43,0,0.79-0.29,0.9-0.68c0.09,0.13,0.17,0.27,0.25,0.41c-0.32,0.7-0.8,1.33-1.4,1.81C9.5,9.18,9.41,9.25,9.31,9.31
		C9.25,9.41,9.18,9.5,9.11,9.59c-0.48,0.6-1.1,1.09-1.81,1.41C7.17,10.92,7.03,10.83,6.9,10.75z"/>
</g>
</svg>
