<?xml version="1.0" encoding="utf-8"?>
<!-- Generator: Adobe Illustrator 23.0.3, SVG Export Plug-In . SVG Version: 6.00 Build 0)  -->
<svg version="1.1" id="Layer_1" xmlns="http://www.w3.org/2000/svg" xmlns:xlink="http://www.w3.org/1999/xlink" x="0px" y="0px"
	 viewBox="0 0 63.83 63.83" style="enable-background:new 0 0 63.83 63.83;" xml:space="preserve">
<g>
	<path d="M63.24,11.31c-0.69-1.86-1.97-3.49-3.58-4.64c-0.9-0.64-1.91-1.14-2.98-1.45c-1.11-0.33-2.28-0.45-3.43-0.44
		c-2.29,0.03-4.51,0.67-6.56,1.65c-2.04,0.98-3.92,2.27-5.71,3.66c-1.86,1.44-3.63,3.01-5.46,4.49c-1.79,1.46-3.67,2.89-5.84,3.73
		c-1.51,0.59-3.14,0.82-4.76,0.64c-1.62,0.19-3.24-0.05-4.76-0.64c-1.69-0.65-3.2-1.67-4.63-2.77c1.1,1.43,2.12,2.94,2.77,4.63
		c0.59,1.51,0.82,3.14,0.64,4.76c0.19,1.62-0.05,3.24-0.64,4.76c-0.84,2.17-2.28,4.05-3.73,5.84c-1.49,1.83-3.05,3.6-4.49,5.46
		c-1.38,1.79-2.68,3.66-3.66,5.71c-0.98,2.06-1.61,4.28-1.65,6.56c-0.02,1.16,0.11,2.32,0.44,3.43c0.32,1.06,0.81,2.07,1.45,2.98
		c1.15,1.61,2.78,2.89,4.64,3.58c0.78,0.29,1.59,0.47,2.41,0.55c1.13,0.11,2.29,0,3.36-0.39c0.96-0.35,1.83-0.93,2.5-1.7
		c0.69-0.79,1.15-1.76,1.39-2.78c0.25-1.1,0.27-2.28-0.01-3.38c-0.52-2.02-2.11-3.78-4.23-4.12c-1.11-0.18-2.32,0.05-3.28,0.64
		c-0.87,0.54-1.51,1.39-1.78,2.38c-0.26,0.97-0.15,2.05,0.34,2.93c0.52,0.93,1.46,1.55,2.5,1.76c-0.66-0.2-1.27-0.55-1.74-1.06
		c-0.44-0.49-0.73-1.11-0.83-1.76c-0.15-0.98,0.11-2.02,0.73-2.8c0.67-0.86,1.71-1.31,2.78-1.38c1.09-0.08,2.15,0.28,2.97,1
		c0.78,0.69,1.3,1.64,1.52,2.65c0.24,1.1,0.13,2.31-0.24,3.37c-0.34,0.96-0.95,1.81-1.79,2.4c-1.84,1.3-4.37,1.15-6.37,0.3
		c-1.86-0.79-3.4-2.26-4.33-4.05c-1.06-2.05-1.19-4.45-0.77-6.69c0.42-2.24,1.4-4.32,2.58-6.25c1.22-2,2.67-3.85,4.12-5.68
		c1.47-1.85,3-3.68,4.26-5.68c0.61-0.97,1.15-1.99,1.55-3.06c0.2-0.54,0.37-1.1,0.5-1.67c0.03-0.15,0.06-0.3,0.09-0.46
		c0.01-0.07,0.02-0.14,0.03-0.21c0.01-0.03,0.01-0.05,0-0.08c0.14,0.19,0.25,0.4,0.34,0.63c0.2,0.53,0.24,1.11,0.22,1.68
		c-0.03,0.58-0.13,1.15-0.32,1.7c-0.3,0.84-0.77,1.61-1.3,2.33c-0.7,0.94-1.5,1.81-2.26,2.7c-0.75,0.88-1.49,1.77-2.14,2.74
		c-1.26,1.87-2.16,4.08-1.84,6.38c0.3,2.12,1.78,3.98,3.83,4.63c1.07,0.34,2.28,0.36,3.31-0.13c0.97-0.46,1.64-1.34,1.89-2.38
		c0.26-1.08,0.08-2.31-0.64-3.18c-0.67-0.81-1.79-1.26-2.83-1.03c-0.98,0.22-1.78,1.08-1.82,2.1c-0.04,1.01,0.63,1.98,1.65,2.15
		c-0.5-0.16-0.93-0.51-1.16-0.99c-0.23-0.46-0.26-1-0.09-1.48c0.16-0.47,0.51-0.85,0.96-1.07c0.43-0.21,0.93-0.24,1.39-0.12
		c0.45,0.11,0.87,0.36,1.18,0.71c0.35,0.39,0.55,0.9,0.62,1.42c0.13,1.04-0.28,2.2-1.18,2.79c-0.89,0.58-2.06,0.53-3.03,0.19
		c-0.99-0.35-1.82-1.06-2.36-1.96c-0.57-0.94-0.76-2.05-0.67-3.14c0.18-2.32,1.54-4.35,2.91-6.15c0.71-0.94,1.47-1.85,2.17-2.8
		c0.66-0.89,1.27-1.83,1.67-2.86c0.34-0.88,0.49-1.83,0.41-2.78c-0.07-0.78-0.32-1.64-0.88-2.2c0.11-0.81,0.12-1.63,0.02-2.44
		c0-0.04-0.05-0.51-0.07-0.51c0.02,0,0.07-0.46,0.07-0.51c0.09-0.81,0.08-1.63-0.02-2.44c0.41-0.41,0.66-0.99,0.78-1.58
		c0.58-0.13,1.16-0.37,1.58-0.78c0.81,0.11,1.63,0.12,2.44,0.02c0.04-0.01,0.51-0.05,0.51-0.07c0,0.02,0.46,0.07,0.51,0.07
		c0.81,0.09,1.63,0.08,2.44-0.02c0.56,0.56,1.42,0.81,2.2,0.88c0.94,0.08,1.9-0.07,2.78-0.41c1.04-0.4,1.98-1.01,2.86-1.67
		c0.95-0.71,1.86-1.46,2.8-2.17c1.8-1.37,3.83-2.72,6.15-2.91c1.09-0.08,2.19,0.11,3.14,0.67c0.9,0.54,1.61,1.37,1.96,2.36
		c0.35,0.97,0.39,2.13-0.19,3.03c-0.59,0.91-1.74,1.31-2.78,1.18c-0.52-0.06-1.03-0.27-1.42-0.62c-0.35-0.31-0.59-0.73-0.71-1.18
		c-0.12-0.46-0.09-0.96,0.12-1.39c0.22-0.45,0.6-0.8,1.07-0.96c0.48-0.17,1.02-0.13,1.48,0.09c0.48,0.23,0.83,0.66,0.99,1.16
		c-0.17-1.02-1.14-1.69-2.15-1.65c-1.02,0.04-1.88,0.84-2.1,1.82c-0.23,1.04,0.22,2.16,1.02,2.83c0.87,0.72,2.1,0.9,3.18,0.64
		c1.03-0.25,1.92-0.92,2.37-1.89c0.49-1.03,0.47-2.24,0.13-3.31c-0.65-2.05-2.51-3.54-4.63-3.83c-2.3-0.32-4.5,0.58-6.38,1.84
		c-0.96,0.65-1.86,1.38-2.74,2.14c-0.89,0.76-1.76,1.56-2.7,2.26c-0.72,0.53-1.49,0.99-2.33,1.3c-0.54,0.19-1.12,0.3-1.7,0.32
		c-0.56,0.02-1.14-0.02-1.68-0.22c-0.23-0.08-0.44-0.2-0.63-0.34c0.02,0.01,0.04,0,0.08,0c0.07-0.01,0.14-0.02,0.21-0.03
		c0.15-0.03,0.3-0.06,0.46-0.09c0.57-0.13,1.12-0.29,1.67-0.5c1.07-0.4,2.09-0.94,3.06-1.55c2-1.26,3.83-2.79,5.68-4.26
		c1.83-1.45,3.68-2.9,5.68-4.12c1.93-1.18,4.02-2.17,6.25-2.58c2.24-0.42,4.64-0.29,6.69,0.77c1.79,0.93,3.26,2.47,4.05,4.33
		c0.85,2,0.99,4.53-0.3,6.37c-0.59,0.84-1.44,1.45-2.4,1.79c-1.06,0.37-2.27,0.48-3.37,0.24c-1.01-0.22-1.96-0.74-2.65-1.52
		c-0.72-0.82-1.08-1.88-1-2.97c0.08-1.07,0.53-2.11,1.38-2.78c0.78-0.61,1.82-0.88,2.8-0.72c0.65,0.1,1.27,0.39,1.76,0.83
		c0.51,0.46,0.87,1.08,1.06,1.74c-0.21-1.04-0.82-1.97-1.76-2.5c-0.88-0.49-1.96-0.61-2.93-0.34c-0.99,0.27-1.84,0.91-2.38,1.78
		c-0.59,0.96-0.82,2.17-0.64,3.28c0.34,2.11,2.1,3.71,4.12,4.23c1.1,0.28,2.28,0.26,3.38,0.01c1.02-0.23,1.99-0.69,2.78-1.39
		c0.77-0.67,1.35-1.55,1.7-2.5c0.39-1.07,0.5-2.23,0.39-3.36C63.72,12.9,63.53,12.09,63.24,11.31z M21.21,19.93
		c-0.34,0.13-0.7,0.19-1.07,0.21c-0.02,0.36-0.09,0.72-0.21,1.07c-0.08,0.22-0.2,0.44-0.34,0.63c0.01-0.02,0-0.04,0-0.07
		c-0.01-0.07-0.02-0.14-0.03-0.21c-0.03-0.15-0.06-0.3-0.09-0.46c-0.12-0.57-0.29-1.12-0.5-1.67c-0.1-0.27-0.21-0.53-0.32-0.79
		c0.26,0.12,0.52,0.22,0.79,0.32c0.54,0.2,1.1,0.37,1.67,0.5c0.15,0.03,0.3,0.06,0.46,0.09c0.07,0.01,0.14,0.02,0.21,0.03
		c0.03,0.01,0.05,0.01,0.07,0C21.65,19.74,21.44,19.85,21.21,19.93z"/>
	<path d="M63.24,11.31C63.57,12.21,62.58,9.52,63.24,11.31L63.24,11.31z"/>
	<path d="M18.99,17.02c1.04,0.46,2.15,0.78,3.29,0.86c0.58,0.04,1.17,0.01,1.74-0.12c0.28-0.06,0.55-0.15,0.82-0.26
		c0.04-0.02,0.09-0.02,0.09-0.06c0,0.04,0.06,0.05,0.09,0.06c0.26,0.11,0.54,0.2,0.82,0.26c0.57,0.13,1.16,0.16,1.74,0.12
		c1.14-0.08,2.25-0.4,3.29-0.86c2.05-0.91,3.92-2.34,5.31-4.09c1.33-1.68,2.26-3.73,2.24-5.91c-0.02-2.14-1.05-4.17-2.72-5.5
		C34.49,0.56,32.96,0,31.42,0h0c-0.6,0-1.21,0.08-1.79,0.26c-2.1,0.64-3.83,2.43-4.2,4.62c-0.14,0.8-0.07,1.61,0.16,2.37
		c-0.06,0.14-0.1,0.3-0.1,0.46c0,0.45,0.26,0.84,0.63,1.03c-0.35,0.53-0.77,1.03-1.19,1.25c-0.43-0.22-0.84-0.72-1.19-1.25
		c0.37-0.19,0.63-0.58,0.63-1.03c0-0.16-0.03-0.32-0.1-0.46c0.23-0.76,0.3-1.57,0.16-2.37c-0.37-2.19-2.1-3.98-4.2-4.62
		C19.65,0.08,19.04,0,18.44,0h0c-1.54,0-3.07,0.56-4.29,1.52c-1.67,1.33-2.7,3.35-2.72,5.5c-0.02,2.17,0.91,4.23,2.24,5.91
		C15.07,14.68,16.94,16.11,18.99,17.02z M26.37,13.55h1.29c0.21,0,0.38,0.24,0.38,0.54c0,0.3-0.17,0.54-0.38,0.54h-1.29
		c-0.21,0-0.38-0.24-0.38-0.54C25.99,13.79,26.16,13.55,26.37,13.55z M26.86,9.45c0.33,0.35,0.7,0.66,1.1,0.92
		c0.77,0.49,1.66,0.77,2.56,0.82c0.02,0.04,0.04,0.08,0.06,0.12c-1,0.28-1.89,0.33-2.56-0.12C27.34,10.75,27.01,10.13,26.86,9.45z
		 M23.87,14.09c0,0.3-0.17,0.54-0.38,0.54H22.2c-0.21,0-0.38-0.24-0.38-0.54c0-0.3,0.17-0.54,0.38-0.54h1.29
		C23.7,13.55,23.87,13.79,23.87,14.09z M19.29,11.32c0.02-0.04,0.04-0.08,0.06-0.12c0.91-0.05,1.79-0.34,2.56-0.82
		c0.41-0.26,0.78-0.57,1.1-0.92c-0.15,0.68-0.48,1.29-1.15,1.75C21.18,11.65,20.28,11.6,19.29,11.32z M12.7,6.85
		c0.06-1.06,0.4-2.08,0.99-2.96C14.2,3.11,14.9,2.46,15.7,2c0.83-0.49,1.8-0.79,2.77-0.81c1.08-0.02,2.15,0.3,3.04,0.91
		c0.84,0.57,1.51,1.39,1.88,2.34c0.27,0.71,0.36,1.46,0.26,2.21c-0.14-0.06-0.28-0.09-0.44-0.09c-0.64,0-1.15,0.52-1.15,1.15
		c0,0.5,0.32,0.93,0.77,1.09c-0.31,0.46-0.69,0.88-1.13,1.23c-0.68,0.54-1.48,0.9-2.33,1.06c0.03-0.1,0.04-0.2,0.04-0.31
		c0-0.64-0.52-1.15-1.15-1.15c-0.64,0-1.15,0.52-1.15,1.15c0,0.64,0.52,1.15,1.15,1.15c0.32,0,0.62-0.13,0.82-0.35
		c1.06,0.94,1.48,2.19,1.58,3.61h4.26h4.26c0.1-1.42,0.52-2.67,1.58-3.61c0.21,0.22,0.5,0.35,0.82,0.35c0.64,0,1.15-0.52,1.15-1.15
		c0-0.64-0.52-1.15-1.15-1.15c-0.64,0-1.15,0.52-1.15,1.15c0,0.11,0.02,0.21,0.04,0.31c-0.85-0.17-1.65-0.52-2.33-1.06
		c-0.44-0.35-0.82-0.77-1.13-1.23c0.45-0.16,0.77-0.58,0.77-1.09c0-0.64-0.52-1.15-1.15-1.15c-0.15,0-0.3,0.03-0.44,0.09
		c-0.09-0.74-0.01-1.5,0.26-2.21c0.37-0.95,1.04-1.77,1.88-2.34c0.89-0.6,1.96-0.93,3.04-0.91c0.97,0.02,1.93,0.32,2.77,0.81
		c0.8,0.47,1.5,1.12,2.01,1.89c0.59,0.88,0.93,1.9,0.99,2.96c0.06,1.12-0.18,2.24-0.62,3.26c-0.84,1.96-2.32,3.62-4,4.91
		c-0.88,0.68-1.84,1.27-2.87,1.71c-1.06,0.45-2.22,0.76-3.38,0.71c-0.46-0.02-0.92-0.1-1.36-0.26c-0.44,0.16-0.9,0.24-1.36,0.26
		c-1.16,0.05-2.32-0.26-3.38-0.71c-1.03-0.44-1.99-1.03-2.87-1.71c-1.68-1.29-3.16-2.95-4-4.91C12.88,9.09,12.64,7.97,12.7,6.85z"/>
	<path d="M20.63,16.64h4.3h4.3c0.3,0,0.54-0.24,0.54-0.54c0-0.3-0.24-0.54-0.54-0.54h-4.3h-4.3c-0.3,0-0.54,0.24-0.54,0.54
		C20.09,16.4,20.33,16.64,20.63,16.64z"/>
	<path d="M11.31,63.25C9.52,62.58,12.21,63.58,11.31,63.25L11.31,63.25z"/>
	<path d="M12.93,36.19c1.75-1.39,3.18-3.27,4.09-5.31c0.46-1.04,0.78-2.15,0.86-3.29c0.04-0.58,0.01-1.17-0.12-1.74
		c-0.06-0.28-0.15-0.55-0.26-0.82c-0.02-0.04-0.02-0.09-0.06-0.09c0.04,0,0.05-0.06,0.06-0.09c0.11-0.26,0.2-0.54,0.26-0.82
		c0.13-0.57,0.16-1.16,0.12-1.74c-0.08-1.14-0.4-2.25-0.86-3.29c-0.91-2.05-2.34-3.92-4.09-5.31c-1.68-1.33-3.73-2.26-5.91-2.24
		c-2.14,0.02-4.17,1.05-5.5,2.72C0.56,15.37,0,16.9,0,18.44v0c0,0.6,0.08,1.21,0.26,1.79c0.64,2.1,2.43,3.83,4.62,4.2
		c0.8,0.14,1.61,0.07,2.37-0.16c0.14,0.06,0.3,0.1,0.46,0.1c0.45,0,0.83-0.26,1.03-0.63c0.53,0.35,1.03,0.77,1.25,1.19
		c-0.22,0.43-0.72,0.84-1.25,1.19c-0.19-0.37-0.58-0.63-1.03-0.63c-0.16,0-0.32,0.03-0.46,0.1c-0.76-0.23-1.57-0.3-2.37-0.16
		c-2.19,0.37-3.98,2.1-4.62,4.2C0.08,30.21,0,30.82,0,31.42v0c0,1.54,0.56,3.07,1.52,4.29c1.33,1.67,3.35,2.7,5.5,2.72
		C9.19,38.45,11.25,37.52,12.93,36.19z M9.45,23c0.35-0.33,0.66-0.7,0.92-1.1c0.49-0.77,0.77-1.66,0.82-2.56
		c0.04-0.02,0.08-0.04,0.12-0.06c0.28,1,0.33,1.89-0.12,2.56C10.75,22.52,10.13,22.85,9.45,23z M11.2,28.01
		c0.45,0.67,0.4,1.57,0.12,2.56c-0.04-0.02-0.08-0.04-0.12-0.06c-0.05-0.9-0.34-1.79-0.82-2.56c-0.26-0.41-0.57-0.78-0.92-1.1
		C10.13,27.01,10.75,27.34,11.2,28.01z M3.89,36.17c-0.77-0.52-1.42-1.21-1.89-2.01c-0.49-0.83-0.79-1.8-0.81-2.77
		c-0.02-1.08,0.3-2.15,0.91-3.04c0.57-0.84,1.39-1.51,2.34-1.88c0.71-0.27,1.46-0.36,2.21-0.26c-0.06,0.13-0.09,0.28-0.09,0.44
		c0,0.64,0.52,1.15,1.15,1.15c0.5,0,0.93-0.32,1.09-0.77c0.46,0.31,0.88,0.69,1.23,1.13c0.54,0.68,0.9,1.48,1.06,2.33
		c-0.1-0.03-0.2-0.04-0.31-0.04c-0.64,0-1.15,0.52-1.15,1.15c0,0.64,0.52,1.15,1.15,1.15c0.64,0,1.15-0.52,1.15-1.15
		c0-0.32-0.13-0.62-0.35-0.82c0.94-1.06,2.19-1.48,3.61-1.58v-4.26v-4.26c-1.42-0.1-2.67-0.52-3.61-1.58
		c0.21-0.21,0.35-0.5,0.35-0.83c0-0.64-0.52-1.15-1.15-1.15c-0.64,0-1.15,0.52-1.15,1.15c0,0.64,0.52,1.15,1.15,1.15
		c0.11,0,0.21-0.02,0.31-0.04c-0.17,0.85-0.52,1.65-1.06,2.33c-0.35,0.44-0.77,0.82-1.23,1.13c-0.16-0.45-0.58-0.77-1.09-0.77
		c-0.64,0-1.15,0.52-1.15,1.15c0,0.15,0.03,0.3,0.09,0.44c-0.74,0.09-1.5,0.01-2.21-0.26c-0.95-0.37-1.77-1.04-2.34-1.88
		c-0.6-0.89-0.93-1.96-0.91-3.04c0.02-0.97,0.32-1.93,0.81-2.77c0.47-0.8,1.12-1.5,1.89-2.01c0.88-0.59,1.9-0.93,2.96-0.99
		c1.12-0.06,2.24,0.18,3.27,0.62c1.96,0.84,3.62,2.32,4.91,4c0.68,0.89,1.27,1.84,1.71,2.87c0.45,1.06,0.76,2.22,0.71,3.38
		c-0.02,0.46-0.1,0.92-0.26,1.36c0.16,0.44,0.23,0.9,0.26,1.36c0.05,1.16-0.26,2.32-0.71,3.38c-0.44,1.03-1.03,1.99-1.71,2.87
		c-1.29,1.68-2.95,3.16-4.91,4c-1.02,0.44-2.15,0.68-3.27,0.62C5.79,37.1,4.77,36.76,3.89,36.17z M14.09,25.99
		c0.3,0,0.54,0.17,0.54,0.38v1.29c0,0.21-0.24,0.38-0.54,0.38c-0.3,0-0.54-0.17-0.54-0.38v-1.29
		C13.55,26.16,13.79,25.99,14.09,25.99z M13.55,23.49V22.2c0-0.21,0.24-0.38,0.54-0.38c0.3,0,0.54,0.17,0.54,0.38v1.29
		c0,0.21-0.24,0.38-0.54,0.38C13.79,23.87,13.55,23.7,13.55,23.49z"/>
	<path d="M16.11,29.77c0.3,0,0.54-0.24,0.54-0.54v-4.3v-4.3c0-0.3-0.24-0.54-0.54-0.54c-0.3,0-0.54,0.24-0.54,0.54v4.3v4.3
		C15.57,29.53,15.81,29.77,16.11,29.77z"/>
</g>
</svg>
