<?xml version="1.0" encoding="utf-8"?>
<!-- Generator: Adobe Illustrator 23.0.3, SVG Export Plug-In . SVG Version: 6.00 Build 0)  -->
<svg version="1.1" id="Layer_1" xmlns="http://www.w3.org/2000/svg" xmlns:xlink="http://www.w3.org/1999/xlink" x="0px" y="0px"
	 viewBox="0 0 60.13 60.23" style="enable-background:new 0 0 60.13 60.23;" xml:space="preserve">
<g>
	<rect x="7.32" y="4.31" width="52.81" height="1.12"/>
	<rect x="5.29" y="7.42" width="1.12" height="52.81"/>
	<path d="M5.65,5.65c0.36-0.36-0.6-1.89-2.14-3.43c-1.54-1.54-3.08-2.5-3.43-2.14c-0.36,0.36,0.6,1.89,2.14,3.43
		S5.29,6.01,5.65,5.65z"/>
	<path d="M5.68,0.92c-0.26,0.05-0.29,0.99-0.07,2.1c0.22,1.11,0.6,1.96,0.86,1.91c0.26-0.05,0.29-0.99,0.07-2.1
		C6.32,1.72,5.94,0.87,5.68,0.92z"/>
	<path d="M5.82,6.38C5.78,6.12,4.84,6.06,3.73,6.23C2.61,6.41,1.74,6.77,1.79,7.03c0.04,0.26,0.98,0.32,2.09,0.14
		C4.99,6.99,5.86,6.64,5.82,6.38z"/>
	<path d="M37.43,31.74c2,0.29,7.39,0.7,10.51-2.34c-5.08-0.28-12.8-0.77-18.01-1.29c0,0,4.88,1.3,15.67,1.88
		c-2.75,0.92-7.71,1.52-11.3,0.9c8.39,5.64,13.86,13.07,13.86,13.07s-12.64-7.65-15.58-12.17c1.17,3.72,0.38,11.65-2.21,14.2
		c1.97-4.94,1.61-11.64-1.06-17.25c2.35,6.03,1.78,15.11-0.79,19.58c4.16-1.75,6.56-7.37,5.99-11.77c5.97,8.52,14.11,9.87,17.19,9.8
		C50.44,43.04,44.24,34.21,37.43,31.74z"/>
	<path d="M56.12,8.45c-0.83-0.62-1.83-0.93-2.77-1.07c-0.96-0.09-1.87-0.05-2.79,0.13c-1.81,0.34-3.64,1.49-4.45,3.21
		c-0.38,0.77-0.57,1.58-0.63,2.38c-0.32-0.73-0.72-1.42-1.22-2.02c-0.82-1-1.82-1.81-2.89-2.46c-0.76-0.46-1.56-0.84-2.39-1.14h9.75
		V6.37H15.67v1.12h4.04c-0.67,0.19-1.32,0.48-1.92,0.91c-0.58,0.44-1.09,1.03-1.38,1.75c-0.29,0.71-0.35,1.52-0.23,2.27
		c0.02,0.1,0.04,0.21,0.07,0.31c-2.75-2.27-5.75-4.22-8.89-5.85C7.27,6.75,7.18,6.64,7.1,6.52c0.06,0.11,0.13,0.21,0.19,0.32
		C7.13,6.76,6.98,6.67,6.83,6.59C7,6.7,7.17,6.82,7.34,6.93c1.77,3.02,3.82,5.88,6.19,8.49c-0.11-0.02-0.23-0.04-0.34-0.05
		c-0.76-0.08-1.56,0.02-2.25,0.35c-0.7,0.33-1.27,0.87-1.68,1.47c-0.36,0.55-0.6,1.15-0.76,1.76v-4.17H7.39v33.06H8.5V20.17
		c0.27-0.97,0.66-1.88,1.28-2.59c0.81-1,2.07-1.43,3.26-1.19c1.18,0.24,2.35,0.93,2.97,1.91c0.65,0.97,0.75,2.26,0.32,3.34
		c-0.41,1.09-1.37,1.92-2.52,2.07c-0.57,0.09-1.14,0.04-1.61-0.22c-0.47-0.25-0.86-0.69-1.06-1.23c-0.2-0.53-0.21-1.16-0.03-1.7
		c0.2-0.54,0.63-1.02,1.17-1.21c0.53-0.21,1.2-0.01,1.55,0.48c0.18,0.24,0.25,0.57,0.15,0.86c-0.1,0.3-0.38,0.53-0.71,0.62
		c0.34-0.04,0.69-0.21,0.88-0.55c0.18-0.34,0.15-0.76-0.03-1.11c-0.33-0.7-1.22-1.08-2-0.89c-0.79,0.17-1.41,0.78-1.75,1.48
		c-0.33,0.72-0.4,1.54-0.18,2.31c0.21,0.77,0.71,1.49,1.43,1.91c0.36,0.22,0.75,0.36,1.15,0.43c-0.72,0.46-1.37,1.04-1.89,1.69
		c-0.82,1.01-1.39,2.16-1.78,3.36c-0.39,1.2-0.57,2.44-0.6,3.68c-0.01,0.63,0,1.21,0.09,1.89c0.09,0.65,0.25,1.26,0.45,1.85
		c0.4,1.19,0.94,2.31,1.65,3.34c0.7,1.04,1.56,1.99,2.6,2.76c0.63,0.46,1.34,0.83,2.08,1.11c-0.8,0.1-1.59,0.33-2.34,0.75
		c-1.67,0.89-2.73,2.78-2.97,4.61c-0.14,0.93-0.13,1.84,0.01,2.79c0.18,0.94,0.55,1.91,1.21,2.72c0.64,0.81,1.53,1.41,2.45,1.74
		c0.91,0.33,1.86,0.5,2.84,0.47c0.97-0.03,1.96-0.25,2.84-0.72c0.88-0.47,1.65-1.18,2.17-2.05c0.53-0.87,0.77-1.89,0.77-2.85
		c-0.02-0.97-0.24-1.95-0.78-2.81c-0.27-0.43-0.62-0.82-1.04-1.13c-0.42-0.3-0.91-0.5-1.41-0.6c-0.49-0.1-0.98-0.09-1.45-0.03
		c-0.23,0.03-0.46,0.08-0.68,0.14c-0.23,0.06-0.47,0.15-0.69,0.27c-0.89,0.45-1.52,1.48-1.33,2.46c0.09,0.48,0.38,0.92,0.77,1.16
		c0.4,0.24,0.84,0.3,1.26,0.28c-0.84-0.12-1.52-0.77-1.47-1.49c0.02-0.71,0.54-1.3,1.18-1.49c0.31-0.1,0.69-0.15,1.06-0.16
		c0.36-0.01,0.72,0.03,1.04,0.13c0.64,0.2,1.12,0.64,1.42,1.23c0.3,0.59,0.42,1.31,0.37,2c-0.06,0.69-0.24,1.35-0.61,1.89
		c-0.74,1.09-2.09,1.71-3.48,1.72c-0.69,0.01-1.41-0.13-2.06-0.38c-0.64-0.25-1.2-0.59-1.6-1.09c-0.83-0.96-1.07-2.5-0.98-3.99
		c0.06-0.73,0.21-1.45,0.51-2.11c0.3-0.65,0.74-1.23,1.31-1.71c0.82-0.67,1.87-1.1,3.01-1.38c0.05,0.01,0.11,0.03,0.16,0.04
		c1.3,0.22,2.63,0.12,3.86-0.21c1.22-0.32,2.45-0.86,3.46-1.7c0.52-0.41,0.96-0.89,1.37-1.39c0.39-0.52,0.74-1.06,1.01-1.64
		c1.1-2.31,1.37-4.8,1.3-7.19c-0.04-1.2-0.17-2.39-0.42-3.57c-0.12-0.58-0.28-1.2-0.5-1.78c-0.2-0.56-0.42-1.11-0.65-1.65
		c-0.23-0.55-0.48-1.09-0.74-1.62c0.59,0.26,1.18,0.5,1.79,0.72c0.55,0.2,1.11,0.39,1.68,0.56c0.59,0.19,1.21,0.31,1.8,0.41
		c1.19,0.19,2.39,0.26,3.59,0.24c2.39-0.05,4.86-0.45,7.11-1.67c0.56-0.3,1.09-0.68,1.59-1.09c0.48-0.43,0.94-0.91,1.32-1.44
		c0.78-1.06,1.26-2.31,1.52-3.54c0.26-1.24,0.3-2.57,0.01-3.86c-0.01-0.05-0.03-0.11-0.05-0.16c0.22-1.15,0.59-2.22,1.22-3.07
		c0.45-0.6,1.01-1.07,1.64-1.4c0.64-0.33,1.35-0.52,2.08-0.61c1.48-0.17,3.03-0.01,4.04,0.77c0.52,0.38,0.89,0.91,1.17,1.54
		c0.28,0.63,0.46,1.35,0.48,2.03c0.06,1.39-0.49,2.76-1.54,3.56c-0.53,0.4-1.17,0.61-1.86,0.71c-0.69,0.08-1.42,0.01-2.02-0.27
		c-0.6-0.27-1.07-0.73-1.3-1.36c-0.12-0.31-0.18-0.66-0.19-1.03c-0.01-0.37,0.02-0.75,0.11-1.06c0.16-0.65,0.72-1.2,1.43-1.26
		c0.71-0.08,1.4,0.56,1.56,1.39c0-0.42-0.08-0.86-0.34-1.25c-0.26-0.38-0.71-0.65-1.2-0.71c-0.99-0.14-1.99,0.54-2.39,1.45
		c-0.11,0.22-0.18,0.47-0.23,0.7c-0.05,0.22-0.08,0.45-0.1,0.69c-0.04,0.47-0.02,0.96,0.1,1.45c0.12,0.49,0.35,0.97,0.67,1.37
		c0.33,0.4,0.74,0.73,1.18,0.98c0.89,0.49,1.88,0.66,2.84,0.63c0.97-0.05,1.97-0.34,2.81-0.91c0.84-0.57,1.5-1.38,1.93-2.28
		c0.42-0.91,0.59-1.9,0.57-2.87c-0.02-0.98-0.24-1.92-0.61-2.82C57.61,9.91,56.96,9.05,56.12,8.45z M18.22,8.9
		c0.68-0.66,1.58-1.1,2.53-1.41h10.1c-0.1,0.04-0.21,0.06-0.31,0.1c-1.17,0.45-2.3,1.08-3.26,1.95c-0.63,0.56-1.17,1.23-1.59,1.98
		c-0.09-0.4-0.25-0.79-0.49-1.13c-0.46-0.7-1.21-1.16-1.98-1.33c-0.78-0.18-1.6-0.07-2.3,0.3c-0.69,0.38-1.25,1.02-1.39,1.82
		c-0.15,0.79,0.27,1.66,0.99,1.96c0.35,0.16,0.78,0.16,1.11-0.03c0.33-0.2,0.48-0.57,0.5-0.91c-0.08,0.33-0.3,0.63-0.59,0.74
		c-0.29,0.11-0.62,0.05-0.87-0.11c-0.51-0.32-0.74-0.99-0.56-1.52c0.16-0.55,0.62-1.01,1.15-1.23c0.53-0.22,1.16-0.23,1.7-0.06
		c0.55,0.17,1,0.53,1.28,0.99c0.29,0.46,0.36,1.03,0.3,1.6c-0.1,1.16-0.88,2.16-1.94,2.63c-1.05,0.49-2.35,0.45-3.35-0.15
		c-1.01-0.56-1.76-1.7-2.06-2.86C16.9,11.05,17.27,9.77,18.22,8.9z M17.21,14.81c0.27,0.37,0.57,0.71,0.93,1
		c1.43,1.57,2.72,3.25,3.84,5.03c-1.84-1.04-3.59-2.26-5.24-3.63c-0.34-0.39-0.74-0.72-1.16-0.99c-3.07-2.7-5.71-5.89-8.13-9.23
		C10.97,9.29,14.33,11.81,17.21,14.81z M24.83,26.48c0.2,0.52,0.39,1.05,0.56,1.59c0.18,0.51,0.28,1.02,0.37,1.56
		c0.18,1.08,0.28,2.19,0.29,3.29c0.02,2.19-0.31,4.42-1.25,6.26c-0.47,0.92-1.1,1.72-1.88,2.34c-0.77,0.63-1.71,1.03-2.71,1.29
		c-1,0.26-2.02,0.32-2.99,0.15c-0.97-0.17-1.89-0.58-2.7-1.18c-1.64-1.19-2.86-3.07-3.55-5.06c-0.17-0.5-0.3-1-0.38-1.5
		c-0.07-0.47-0.09-1.04-0.08-1.56c0.02-1.06,0.18-2.12,0.48-3.12c0.6-2,1.88-3.8,3.7-4.54c1.78-0.76,4.04-0.39,5.75,0.74
		c1.74,1.13,2.82,3.11,2.88,5.27c0.04,1.05-0.19,2.09-0.75,2.91c-0.55,0.84-1.47,1.38-2.47,1.57c-1,0.21-2.1,0.09-3-0.45
		c-0.91-0.52-1.53-1.5-1.7-2.59c-0.08-0.54-0.05-1.1,0.14-1.61c0.19-0.5,0.54-0.96,1.02-1.19c0.49-0.24,1.09-0.21,1.59,0.03
		c0.51,0.24,0.94,0.65,1.29,1.1c-0.32-0.48-0.72-0.92-1.24-1.21c-0.51-0.29-1.17-0.38-1.74-0.15c-0.57,0.23-1.02,0.72-1.26,1.28
		c-0.24,0.56-0.31,1.19-0.25,1.79c0.07,0.6,0.2,1.2,0.5,1.75c0.29,0.55,0.71,1.04,1.22,1.42c1.02,0.75,2.34,1.06,3.61,0.89
		c1.26-0.18,2.5-0.88,3.26-1.96c0.78-1.07,1.08-2.38,1.06-3.63c-0.01-0.63-0.09-1.25-0.23-1.84c-0.12-0.61-0.31-1.22-0.59-1.8
		c-0.55-1.15-1.4-2.15-2.42-2.91c-1.41-1.05-3.2-1.66-5.02-1.62c0.52-0.47,0.93-1.06,1.18-1.7c0.32-0.83,0.4-1.74,0.25-2.62
		c1.71,1.39,3.56,2.63,5.52,3.67C23.89,24.25,24.4,25.35,24.83,26.48z M43.96,18.04c-0.21,1.01-0.57,1.96-1.15,2.77
		c-0.58,0.81-1.35,1.48-2.24,2c-1.79,1.04-4,1.48-6.19,1.57c-1.1,0.04-2.21,0-3.3-0.13c-0.55-0.07-1.07-0.14-1.58-0.29
		c-0.54-0.14-1.08-0.3-1.61-0.48c-1.2-0.39-2.37-0.86-3.51-1.4c-1.12-1.88-2.41-3.64-3.86-5.27c0.89,0.11,1.81-0.02,2.63-0.38
		c0.63-0.28,1.19-0.72,1.63-1.26c0.05,1.82,0.75,3.57,1.87,4.93c0.81,0.98,1.86,1.78,3.03,2.27c0.59,0.24,1.21,0.4,1.82,0.49
		c0.61,0.11,1.23,0.15,1.85,0.13c1.25-0.05,2.55-0.42,3.57-1.25c1.04-0.81,1.67-2.08,1.79-3.36c0.11-1.27-0.27-2.58-1.07-3.56
		c-0.4-0.49-0.91-0.88-1.48-1.14c-0.57-0.27-1.18-0.37-1.78-0.41c-0.6-0.03-1.22,0.07-1.78,0.34c-0.55,0.26-1.02,0.74-1.22,1.32
		c-0.21,0.59-0.08,1.24,0.23,1.73c0.31,0.5,0.78,0.88,1.27,1.17c-0.47-0.33-0.9-0.73-1.16-1.23c-0.27-0.49-0.33-1.09-0.11-1.59
		c0.21-0.5,0.65-0.87,1.14-1.08c0.5-0.21,1.05-0.27,1.6-0.22c1.09,0.11,2.1,0.69,2.67,1.57c0.58,0.87,0.76,1.97,0.6,2.97
		C37.5,19.27,37,20.21,36.2,20.8c-0.79,0.61-1.82,0.89-2.87,0.9c-2.16,0.05-4.19-0.94-5.41-2.61c-1.22-1.64-1.69-3.89-1.03-5.7
		c0.64-1.86,2.38-3.23,4.35-3.93c0.99-0.36,2.03-0.57,3.09-0.64c0.52-0.03,1.09-0.04,1.56,0c0.49,0.05,1.01,0.16,1.51,0.3
		c2.02,0.58,3.96,1.71,5.23,3.28c0.64,0.78,1.1,1.68,1.32,2.64C44.18,16,44.17,17.02,43.96,18.04z"/>
</g>
</svg>
