<?xml version="1.0" encoding="utf-8"?>
<!-- Generator: Adobe Illustrator 23.0.3, SVG Export Plug-In . SVG Version: 6.00 Build 0)  -->
<svg version="1.1" id="Layer_1" xmlns="http://www.w3.org/2000/svg" xmlns:xlink="http://www.w3.org/1999/xlink" x="0px" y="0px"
	 viewBox="0 0 65.53 66.65" style="enable-background:new 0 0 65.53 66.65;" xml:space="preserve">
<g>
	<path d="M40.74,4.21c1.96-1.35,4.64-1.22,7.13-1.43c2.53-0.13,5.06-0.2,7.59-0.26l7.61-0.2c-2.53-0.14-5.07-0.2-7.61-0.27
		C52.92,2,50.38,1.99,47.84,2.04c-1.27,0.03-2.54,0.06-3.83,0.19c-1.3,0.12-2.62,0.47-3.78,1.23c-0.57,0.38-1.08,0.89-1.46,1.48
		c-0.38,0.6-0.59,1.28-0.69,1.96C38,7.5,38.01,8.12,38.12,8.72C37.42,7.59,36.43,6.64,35.3,6c-1.22-0.7-2.57-1.09-3.94-1.22
		c-1.36-0.13-2.76-0.01-4.06,0.44c-1.3,0.43-2.54,1.2-3.4,2.3c-1.77,2.19-1.71,5.59,0.21,7.6c0.98,0.96,2.3,1.49,3.62,1.54
		c0.66,0.01,1.35-0.11,1.92-0.45c0.58-0.34,0.97-0.93,1.11-1.56c-0.19,0.62-0.62,1.15-1.18,1.43c-0.56,0.28-1.21,0.35-1.83,0.29
		c-1.24-0.12-2.45-0.7-3.27-1.6c-0.8-0.9-1.17-2.18-1.14-3.37c0.03-1.21,0.49-2.39,1.27-3.28c0.78-0.9,1.85-1.52,3.01-1.86
		c1.16-0.35,2.39-0.4,3.59-0.24c1.2,0.17,2.36,0.56,3.37,1.17c1.01,0.62,1.84,1.48,2.37,2.5c0.53,1.01,0.79,2.22,0.79,3.36
		c-0.02,1.13-0.37,2.27-0.94,3.3c-1.15,2.07-3.1,3.7-5.3,4.59c-1.11,0.44-2.28,0.71-3.46,0.77c-1.18,0.06-2.38-0.09-3.54-0.4
		c-2.31-0.62-4.43-1.95-5.8-3.85c-1.4-1.89-1.97-4.26-1.65-6.65c0.14-1.19,0.45-2.35,0.97-3.38c0.52-1.04,1.28-1.93,2.19-2.66
		c1.83-1.46,4.27-2.22,6.71-2.55c2.5-0.31,5.08-0.46,7.65-0.61c5.14-0.26,10.3-0.42,15.46-0.55c5.16-0.18,10.32-0.25,15.49-0.4
		C55.21,0.15,44.88-0.15,34.52,0.08c-2.59,0.07-5.18,0.15-7.8,0.44c-1.33,0.15-2.67,0.43-3.95,0.87c-1.29,0.44-2.56,1.06-3.68,1.92
		c-1.12,0.86-2.07,1.99-2.72,3.25c-0.65,1.27-1.03,2.65-1.19,4.01c-0.05,0.36-0.08,0.74-0.09,1.11c-0.28-2.17-2.13-3.85-4.37-3.85
		c-2.43,0-4.41,1.98-4.41,4.41c0,2,1.35,3.7,3.18,4.23c-1.01,0.21-2,0.53-2.93,1.01c-1.27,0.65-2.39,1.6-3.25,2.72
		c-0.87,1.12-1.48,2.39-1.92,3.68c-0.44,1.29-0.72,2.63-0.87,3.95c-0.29,2.63-0.37,5.21-0.44,7.8C-0.15,46,0.15,56.32,0.64,66.65
		c0.15-5.17,0.22-10.33,0.4-15.49C1.18,46,1.34,40.84,1.59,35.7c0.15-2.56,0.3-5.14,0.61-7.65c0.32-2.44,1.09-4.88,2.55-6.71
		c0.73-0.91,1.62-1.67,2.66-2.19c1.03-0.53,2.19-0.84,3.38-0.97c2.38-0.32,4.76,0.25,6.65,1.65c1.9,1.37,3.23,3.49,3.85,5.8
		c0.32,1.16,0.46,2.36,0.4,3.54c-0.06,1.18-0.32,2.35-0.77,3.46c-0.89,2.2-2.52,4.15-4.59,5.3c-1.03,0.57-2.17,0.92-3.3,0.94
		c-1.14,0-2.35-0.26-3.36-0.79c-1.02-0.53-1.88-1.36-2.5-2.37c-0.61-1.01-1-2.18-1.17-3.37c-0.16-1.2-0.11-2.43,0.24-3.59
		c0.33-1.16,0.96-2.23,1.86-3.01c0.89-0.78,2.07-1.25,3.28-1.27c1.19-0.03,2.47,0.34,3.37,1.14c0.9,0.82,1.48,2.03,1.6,3.27
		c0.06,0.62,0,1.27-0.29,1.83c-0.28,0.57-0.81,0.99-1.43,1.18c0.63-0.14,1.22-0.53,1.56-1.11c0.35-0.57,0.47-1.26,0.45-1.92
		c-0.06-1.33-0.59-2.64-1.54-3.62c-2-1.92-5.4-1.98-7.6-0.21c-1.11,0.86-1.87,2.1-2.3,3.4c-0.45,1.3-0.56,2.71-0.44,4.07
		C4.91,33.85,5.3,35.2,6,36.42c0.65,1.13,1.59,2.12,2.72,2.82C8.12,39.13,7.5,39.12,6.9,39.2c-0.68,0.09-1.37,0.31-1.96,0.69
		c-0.6,0.37-1.1,0.88-1.48,1.46c-0.75,1.16-1.1,2.48-1.23,3.78c-0.14,1.29-0.16,2.56-0.19,3.83C1.99,51.5,2,54.04,2.04,56.57
		c0.07,2.54,0.13,5.07,0.27,7.61l0.2-7.61c0.06-2.53,0.13-5.07,0.26-7.59c0.21-2.49,0.08-5.17,1.43-7.13
		c1.25-1.98,4.25-2.31,6.1-0.95c0.95,0.66,1.66,1.66,1.98,2.78c0.32,1.1,0.21,2.36-0.13,3.48c-0.35,1.12-1.05,2.15-2.03,2.75
		c-0.49,0.3-1.04,0.47-1.6,0.48c-0.56,0.01-1.15-0.1-1.64-0.37c-1.01-0.53-1.57-1.69-1.71-2.88c-0.13-1.18,0.05-2.5,0.94-3.28
		c0.84-0.8,2.34-0.82,3.24-0.02c0.44,0.41,0.71,1.01,0.77,1.62c0.03,0.3-0.01,0.62-0.15,0.9c-0.14,0.28-0.4,0.49-0.7,0.58
		c0.31-0.07,0.6-0.26,0.77-0.54c0.17-0.28,0.23-0.61,0.23-0.94c-0.02-0.65-0.28-1.3-0.74-1.79C8.57,42.7,6.89,42.6,5.81,43.5
		c-0.55,0.43-0.89,1.07-1.07,1.72c-0.18,0.65-0.22,1.32-0.17,1.98c0.06,0.66,0.22,1.33,0.53,1.94c0.23,0.45,0.55,0.86,0.95,1.19
		c-0.28-0.06-0.56-0.07-0.84-0.03c-0.58,0.07-1.14,0.42-1.45,0.91c-0.32,0.49-0.47,1.05-0.52,1.6c-0.06,0.55-0.07,1.08-0.08,1.62
		c-0.04,2.16,0.01,4.31,0.12,6.45c0.06-2.15,0.09-4.3,0.2-6.44c0.09-1.06,0.03-2.19,0.6-3.03c0.53-0.84,1.81-0.98,2.59-0.4
		c0.4,0.28,0.71,0.7,0.84,1.18c0.14,0.47,0.09,1-0.05,1.48c-0.16,0.47-0.45,0.91-0.87,1.16c-0.41,0.25-0.95,0.27-1.37,0.05
		c-0.43-0.22-0.67-0.72-0.72-1.22c-0.06-0.5,0.02-1.06,0.39-1.39c0.36-0.34,0.99-0.35,1.37-0.01c0.18,0.17,0.3,0.43,0.33,0.68
		c0.03,0.25-0.09,0.55-0.36,0.63c0.28-0.05,0.44-0.36,0.42-0.63c-0.01-0.28-0.12-0.55-0.31-0.76c-0.41-0.4-1.12-0.44-1.58-0.06
		C4.3,52.51,4.2,53.15,4.24,53.7c0.04,0.55,0.29,1.16,0.82,1.47c0.52,0.3,1.19,0.3,1.71-0.02c0.51-0.3,0.85-0.81,1.04-1.35
		c0.17-0.54,0.23-1.13,0.07-1.7c-0.12-0.43-0.35-0.82-0.66-1.13c0.42,0.14,0.87,0.22,1.32,0.23c0.71,0,1.41-0.21,2.02-0.56
		c1.22-0.71,2.03-1.91,2.47-3.19c0.22-0.64,0.33-1.31,0.37-1.98c0.04-0.66-0.01-1.37-0.2-2.03c-0.36-1.29-1.16-2.44-2.24-3.24
		c0.68,0.18,1.39,0.28,2.1,0.3c1.46,0.01,2.86-0.41,4.1-1.07c2.48-1.33,4.38-3.54,5.47-6.09c1.12-2.55,1.22-5.54,0.5-8.18
		c-0.24-0.93-0.6-1.84-1.04-2.7c0.63,0.28,1.29,0.5,1.95,0.68c2.65,0.72,5.63,0.62,8.18-0.5c2.56-1.09,4.76-2.99,6.09-5.47
		c0.65-1.24,1.08-2.64,1.07-4.1c-0.02-0.72-0.12-1.42-0.3-2.1c0.8,1.08,1.95,1.88,3.24,2.24c0.66,0.19,1.37,0.24,2.03,0.2
		c0.67-0.04,1.34-0.16,1.98-0.37c1.28-0.43,2.48-1.25,3.19-2.47c0.35-0.6,0.56-1.31,0.56-2.02c-0.01-0.45-0.09-0.89-0.23-1.32
		c0.31,0.31,0.7,0.54,1.13,0.66c0.57,0.16,1.15,0.09,1.7-0.07c0.54-0.18,1.05-0.52,1.35-1.04c0.31-0.51,0.31-1.19,0.02-1.71
		c-0.31-0.54-0.91-0.78-1.47-0.82c-0.55-0.04-1.18,0.06-1.57,0.52c-0.38,0.46-0.34,1.17,0.06,1.58c0.21,0.19,0.48,0.3,0.76,0.31
		c0.27,0.02,0.58-0.14,0.63-0.42c-0.08,0.27-0.37,0.4-0.63,0.36c-0.26-0.02-0.51-0.14-0.68-0.33c-0.34-0.38-0.33-1.02,0.01-1.37
		c0.33-0.37,0.89-0.45,1.39-0.39c0.5,0.06,1,0.3,1.22,0.72c0.22,0.43,0.21,0.97-0.05,1.37c-0.25,0.42-0.69,0.71-1.16,0.87
		c-0.48,0.14-1.01,0.19-1.48,0.05c-0.47-0.14-0.9-0.44-1.18-0.84c-0.58-0.78-0.44-2.06,0.4-2.59c0.84-0.57,1.97-0.51,3.03-0.6
		c2.14-0.1,4.29-0.13,6.44-0.19c-2.15-0.11-4.3-0.16-6.45-0.12c-0.54,0.01-1.08,0.02-1.62,0.08c-0.55,0.05-1.11,0.2-1.6,0.52
		c-0.49,0.31-0.84,0.87-0.91,1.45c-0.04,0.27-0.03,0.56,0.03,0.84c-0.33-0.4-0.74-0.72-1.19-0.95c-0.61-0.32-1.28-0.48-1.94-0.53
		c-0.66-0.05-1.33-0.02-1.98,0.17c-0.65,0.18-1.28,0.52-1.72,1.07c-0.9,1.08-0.8,2.76,0.15,3.72c0.49,0.46,1.14,0.71,1.79,0.74
		c0.33,0,0.66-0.06,0.94-0.23c0.28-0.17,0.47-0.46,0.54-0.77c-0.09,0.3-0.3,0.57-0.58,0.7c-0.28,0.14-0.59,0.18-0.9,0.15
		c-0.61-0.06-1.21-0.33-1.62-0.77c-0.8-0.9-0.78-2.4,0.02-3.24c0.78-0.88,2.11-1.07,3.28-0.94c1.19,0.13,2.35,0.7,2.88,1.71
		c0.27,0.49,0.38,1.08,0.37,1.64c-0.01,0.56-0.18,1.11-0.48,1.6c-0.59,0.98-1.63,1.67-2.75,2.03c-1.12,0.34-2.38,0.44-3.48,0.13
		c-1.11-0.32-2.12-1.03-2.78-1.98C38.43,8.46,38.76,5.45,40.74,4.21z M7.53,12.25c0-1.76,1.43-3.2,3.2-3.2c1.76,0,3.2,1.43,3.2,3.2
		c0,1.76-1.43,3.2-3.2,3.2C8.96,15.44,7.53,14.01,7.53,12.25z M12.65,16.21c1.32-0.64,2.27-1.92,2.45-3.44
		c0.03,0.67,0.12,1.34,0.28,1.99c0.18,0.76,0.46,1.5,0.8,2.2c-0.46-0.18-0.94-0.35-1.42-0.46C14.07,16.33,13.36,16.24,12.65,16.21z"
		/>
	<path d="M5.56,9.05c1.08,0,1.96-0.88,1.96-1.96c0-1.08-0.88-1.97-1.96-1.97C4.48,5.12,3.6,6,3.6,7.08C3.6,8.17,4.48,9.05,5.56,9.05
		z M5.56,6.33c0.41,0,0.75,0.34,0.75,0.75c0,0.41-0.34,0.75-0.75,0.75c-0.42,0-0.75-0.34-0.75-0.75C4.81,6.67,5.15,6.33,5.56,6.33z"
		/>
</g>
</svg>
