<?xml version="1.0" encoding="utf-8"?>
<!-- Generator: Adobe Illustrator 23.0.3, SVG Export Plug-In . SVG Version: 6.00 Build 0)  -->
<svg version="1.1" id="Layer_1" xmlns="http://www.w3.org/2000/svg" xmlns:xlink="http://www.w3.org/1999/xlink" x="0px" y="0px"
	 viewBox="0 0 64.46 68.78" style="enable-background:new 0 0 64.46 68.78;" xml:space="preserve">
<g>
	<path d="M12.14,68.78V49.13c2.34-0.74,4.05-3.2,4.05-6.13c0-3.18-2.05-5.82-4.71-6.27c-0.05-0.06-0.1-0.12-0.16-0.17
		c-0.15-0.15-0.16-0.56-0.17-0.9c-0.01-0.25-0.04-3.56,0.02-4.97c0.01-0.19,0.05-0.39,0.09-0.4h2.51c0.08,0,0.18,0.13,0.22,0.42
		c0.05,0.42,0.22,2.16,0.6,4.25c0.5,2.76,1.39,6.14,2.91,7.93c0.92,1.08,2.56,1.44,3.38-0.4c1.22-2.76-0.16-6.9-1.71-5.03
		c-0.43,0.52-0.57,1.45-0.67,2.41c-0.73-0.37-1.34-1.57-1.79-2.86c-0.23-0.65-0.42-1.33-0.58-2.04c-0.29-1.3-0.45-2.7-0.49-4.14
		c0-0.12,0.05-0.31,0.1-0.33c0.55-0.27,1.08,0.03,1.62-0.14c0.54-0.16,0.86-1.34,0.74-2.5c-0.08-0.75-0.33-1.34-0.65-1.49
		c-0.59-0.28-1.14-0.16-1.73-0.31c-0.2-0.05-0.13-0.7-0.11-1.1c0.01-0.32,0.04-0.63,0.07-0.94c-0.02-0.31-0.05-0.62-0.07-0.94
		c-0.02-0.41-0.09-1.05,0.11-1.1c0.59-0.15,1.14-0.03,1.73-0.31c0.33-0.16,0.58-0.75,0.65-1.49c0.03-0.28,0.03-0.56,0.01-0.83
		c0.25,0.02,0.51,0.02,0.77-0.01c0.7-0.08,1.25-0.35,1.4-0.7c0.26-0.63,0.15-1.21,0.29-1.84c0.05-0.22,0.65-0.14,1.03-0.12
		c0.3,0.01,0.59,0.05,0.88,0.07c0.29-0.02,0.58-0.06,0.88-0.07c0.38-0.02,0.99-0.1,1.03,0.12c0.14,0.63,0.02,1.21,0.29,1.84
		c0.15,0.35,0.7,0.61,1.4,0.7c1.09,0.13,2.2-0.21,2.35-0.79c0.15-0.58-0.12-1.14,0.13-1.73c0.02-0.05,0.2-0.11,0.31-0.11
		c1.35,0.04,2.66,0.21,3.88,0.52c0.67,0.17,1.31,0.37,1.92,0.62c1.21,0.49,2.34,1.13,2.68,1.91c-0.9,0.11-1.77,0.25-2.26,0.71
		c-1.75,1.66,2.13,3.13,4.72,1.82c1.73-0.87,1.39-2.63,0.38-3.61c-1.68-1.62-4.85-2.57-7.43-3.1c-1.96-0.41-3.58-0.58-3.98-0.64
		c-0.27-0.04-0.39-0.14-0.39-0.23v-2.68c0.01-0.05,0.2-0.08,0.38-0.09c1.32-0.06,4.42-0.03,4.66-0.02c0.32,0.01,0.71,0.02,0.85,0.18
		c0.05,0.06,0.1,0.11,0.16,0.17c0.42,2.84,2.89,5.03,5.87,5.03c2.74,0,5.04-1.84,5.74-4.33h18.42V9.93L46,9.66
		c-0.75-2.41-3.02-4.17-5.7-4.17c-2.98,0-5.45,2.19-5.87,5.03c-0.06,0.05-0.11,0.11-0.16,0.17c-0.14,0.16-0.52,0.17-0.85,0.18
		c-0.23,0.01-3.33,0.05-4.66-0.02c-0.17-0.01-0.37-0.05-0.38-0.09V8.08c0-0.09,0.12-0.19,0.39-0.23c0.4-0.06,2.02-0.23,3.98-0.64
		c2.59-0.54,5.75-1.48,7.43-3.1c1.01-0.98,1.35-2.74-0.38-3.61c-2.59-1.3-6.46,0.17-4.72,1.82c0.49,0.46,1.36,0.61,2.26,0.71
		c-0.34,0.78-1.47,1.43-2.68,1.91c-0.61,0.24-1.25,0.45-1.92,0.62c-1.22,0.3-2.53,0.48-3.88,0.52c-0.11,0-0.29-0.06-0.31-0.11
		c-0.25-0.59,0.03-1.15-0.13-1.73c-0.15-0.57-1.26-0.91-2.35-0.78c-0.7,0.08-1.25,0.35-1.4,0.7C24.43,4.79,24.54,5.37,24.41,6
		c-0.05,0.22-0.65,0.14-1.03,0.12c-0.3-0.01-0.59-0.05-0.88-0.07c-0.29,0.02-0.58,0.06-0.88,0.07c-0.38,0.02-0.99,0.1-1.03-0.12
		c-0.14-0.63-0.02-1.21-0.29-1.84c-0.15-0.35-0.7-0.62-1.4-0.7c-1.09-0.13-2.2,0.21-2.35,0.78c-0.15,0.58,0.12,1.14-0.13,1.73
		c-0.02,0.05-0.2,0.11-0.32,0.11c-1.35-0.03-2.66-0.21-3.88-0.52c-0.67-0.17-1.31-0.37-1.92-0.62C9.11,4.46,7.98,3.82,7.63,3.04
		c0.9-0.11,1.77-0.25,2.26-0.71C11.64,0.67,7.76-0.8,5.17,0.5C3.45,1.37,3.78,3.13,4.8,4.11c1.68,1.62,4.85,2.57,7.43,3.1
		c1.96,0.41,3.58,0.58,3.98,0.64c0.27,0.04,0.39,0.14,0.39,0.23v2.68c-0.01,0.05-0.2,0.09-0.38,0.09c-1.32,0.07-4.42,0.03-4.65,0.02
		c-0.32-0.01-0.71-0.02-0.85-0.18c-0.05-0.06-0.1-0.11-0.16-0.17c-0.4-2.69-2.63-4.79-5.39-5.01c0.21,2.95,2.17,5.32,4.69,5.75
		c0.05,0.06,0.1,0.12,0.15,0.17c0.15,0.15,0.16,0.56,0.17,0.9c0.01,0.25,0.04,3.55-0.02,4.97c-0.01,0.19-0.05,0.39-0.09,0.4H7.57
		c-0.08,0-0.18-0.13-0.22-0.42c-0.05-0.42-0.22-2.16-0.6-4.25c-0.5-2.76-1.39-6.14-2.91-7.93c-0.92-1.08-2.56-1.44-3.38,0.4
		c-1.22,2.76,0.16,6.9,1.71,5.03c0.43-0.52,0.57-1.45,0.67-2.41c0.74,0.37,1.34,1.57,1.79,2.86c0.23,0.65,0.42,1.33,0.58,2.04
		c0.29,1.3,0.45,2.69,0.48,4.14c0,0.12-0.05,0.31-0.1,0.34c-0.55,0.26-1.08-0.03-1.62,0.14c-0.54,0.16-0.86,1.34-0.73,2.5
		c0.08,0.75,0.33,1.34,0.65,1.49c0.59,0.28,1.13,0.16,1.73,0.31c0.2,0.05,0.13,0.7,0.11,1.1C5.72,23.38,5.69,23.69,5.67,24
		c0.02,0.31,0.05,0.62,0.07,0.94c0.02,0.4,0.09,1.05-0.11,1.1c-0.59,0.15-1.14,0.03-1.73,0.31c-0.33,0.16-0.58,0.74-0.65,1.49
		c-0.12,1.16,0.2,2.34,0.73,2.5c0.55,0.16,1.07-0.13,1.62,0.14c0.05,0.02,0.11,0.21,0.1,0.33c-0.03,1.44-0.2,2.84-0.48,4.14
		c-0.16,0.71-0.35,1.4-0.58,2.04c-0.46,1.29-1.06,2.49-1.79,2.86c-0.1-0.96-0.24-1.89-0.67-2.41c-1.55-1.86-2.93,2.27-1.71,5.03
		c0.82,1.84,2.46,1.48,3.38,0.4c1.52-1.79,2.41-5.17,2.91-7.93c0.38-2.09,0.55-3.82,0.6-4.25c0.04-0.28,0.13-0.42,0.22-0.42h2.51
		c0.04,0.02,0.08,0.22,0.09,0.4c0.06,1.41,0.03,4.72,0.02,4.97c-0.01,0.34-0.02,0.75-0.17,0.9c-0.05,0.05-0.1,0.11-0.15,0.17
		C7.2,37.18,5.15,39.82,5.15,43c0,2.86,1.64,5.28,3.9,6.08l0.25,19.7l0,0H12.14L12.14,68.78z M20.68,8.18
		c0.01-0.07,0.2-0.07,0.38-0.07c0.18,0,0.36-0.01,0.54-0.01c0.3-0.01,0.59-0.03,0.89-0.04c0.3,0.01,0.59,0.04,0.89,0.04
		c0.18,0.01,0.36,0.01,0.54,0.01c0.17,0,0.37,0.01,0.38,0.07v2.46c-0.01,0.06-0.21,0.12-0.31,0.11c-0.2,0-0.4-0.01-0.6-0.02
		c-0.3-0.01-0.59-0.03-0.89-0.05c-0.3,0.02-0.59,0.04-0.89,0.05c-0.2,0.01-0.4,0.01-0.61,0.02c-0.11,0-0.31-0.06-0.31-0.11V8.18z
		 M20.68,12.14c0.01-0.06,0.2-0.11,0.31-0.11c0.2,0.01,0.41,0.01,0.61,0.02c0.3,0.01,0.59,0.03,0.89,0.05
		c0.3-0.02,0.59-0.04,0.89-0.05c0.2-0.01,0.4-0.01,0.6-0.02c0.11,0,0.31,0.06,0.31,0.11v2.47c-0.01,0.06-0.2,0.07-0.38,0.07
		c-0.18,0-0.36,0.01-0.54,0.01c-0.3,0.01-0.59,0.03-0.89,0.04c-0.3-0.01-0.59-0.04-0.89-0.04c-0.18-0.01-0.36-0.01-0.54-0.01
		c-0.18,0-0.37-0.01-0.38-0.07V12.14z M13.77,24.95c-0.01,0.19-0.01,0.39-0.01,0.58c0,0.19-0.01,0.39-0.07,0.4h-2.31
		c-0.05-0.01-0.11-0.22-0.11-0.34c0.01-0.22,0.01-0.43,0.02-0.65c0.01-0.32,0.03-0.63,0.04-0.95c-0.01-0.32-0.03-0.63-0.04-0.95
		c-0.01-0.21-0.01-0.43-0.02-0.65c0-0.12,0.05-0.33,0.11-0.34h2.31c0.06,0.01,0.07,0.21,0.07,0.4c0,0.19,0.01,0.39,0.01,0.58
		c0.01,0.32,0.03,0.63,0.04,0.95C13.79,24.32,13.77,24.63,13.77,24.95z M16.52,17.63c-0.26,0.02-0.51,0.02-0.77-0.11
		c-0.05-0.02-0.11-0.22-0.1-0.34c0-0.16,0.01-0.31,0.02-0.47c0.15-0.01,0.29-0.02,0.44-0.02c0.11,0,0.29,0.06,0.32,0.11
		C16.54,17.09,16.54,17.36,16.52,17.63z M11.16,12.34c0-0.14,0.01-0.28,0.02-0.41c0.13-0.01,0.26-0.02,0.39-0.02
		c0.24-0.01,3.33-0.04,4.65,0.02c0.18,0.01,0.37,0.05,0.38,0.09v2.68c0,0.09-0.12,0.19-0.39,0.23c-0.25,0.04-0.97,0.12-1.96,0.27
		c-0.14,1.05-0.22,1.83-0.25,2.09c-0.04,0.28-0.13,0.42-0.22,0.42h-2.51c-0.04-0.01-0.08-0.22-0.09-0.4
		C11.12,15.9,11.15,12.59,11.16,12.34z M10.06,24.95c0.01,0.21,0.01,0.43,0.02,0.65c0,0.12-0.05,0.33-0.1,0.34H7.66
		c-0.06-0.01-0.07-0.21-0.07-0.4c0-0.19-0.01-0.39-0.01-0.58C7.58,24.63,7.56,24.32,7.54,24c0.01-0.32,0.03-0.63,0.04-0.95
		c0.01-0.19,0.01-0.39,0.01-0.58c0-0.19,0.01-0.39,0.07-0.4h2.31c0.05,0.01,0.11,0.22,0.1,0.34c0,0.22-0.01,0.43-0.02,0.65
		c-0.01,0.32-0.03,0.63-0.05,0.95C10.03,24.32,10.05,24.63,10.06,24.95z"/>
</g>
</svg>
