<?xml version="1.0" encoding="utf-8"?>
<!-- Generator: Adobe Illustrator 23.0.3, SVG Export Plug-In . SVG Version: 6.00 Build 0)  -->
<svg version="1.1" id="Layer_1" xmlns="http://www.w3.org/2000/svg" xmlns:xlink="http://www.w3.org/1999/xlink" x="0px" y="0px"
	 viewBox="0 0 63.57 63.57" style="enable-background:new 0 0 63.57 63.57;" xml:space="preserve">
<g>
	<path d="M30.97,4.81C30.97,4.81,30.97,4.81,30.97,4.81c0.02,0.01,0.03,0.01,0.03,0.02C30.99,4.82,30.98,4.82,30.97,4.81z"/>
	<path d="M63.02,12.16c-0.58-1.35-1.57-2.47-2.83-3.21c-1.35-0.79-2.93-1.13-4.48-1.11c-0.78,0.01-1.56,0.1-2.31,0.31
		c-0.55,0.15-1.07,0.38-1.58,0.61c-2.37,1.09-4.41,2.74-6.48,4.3c-1.08,0.18-2.14,0.56-3.08,1.12c-0.43,0.26-0.8,0.57-1.18,0.89
		c-0.52,0.43-1.05,0.84-1.62,1.21c-2.61,1.71-5.81,2.85-8.97,2.48c-0.41-0.05-0.81-0.12-1.21-0.22c-0.37-0.09-0.76-0.19-1.09-0.38
		c-0.37-0.21-0.66-0.53-0.85-0.91c0.83,0.34,1.74,0.5,2.65,0.48c0.02,0,0.04,0,0.06,0c0.59,0.17,1.19,0.31,1.8,0.37
		c0.8,0.08,1.6-0.01,2.38-0.22c1.46-0.38,2.87-1.07,4.02-2.05c1.08-0.92,1.96-2.07,2.56-3.35c0.69-1.46,1.01-3.06,1.02-4.67
		c0.01-1.58-0.21-3.23-0.83-4.69c-0.58-1.36-1.64-2.62-3.12-3.01c-2.89-0.76-6.05,2.1-5.44,5.07c-0.12-2.25,1.8-4.38,4.06-4.49
		c0.79-0.04,1.55,0.19,2.17,0.68c0.58,0.45,1.01,1.08,1.32,1.74c0.33,0.7,0.52,1.45,0.65,2.2c0.07,0.4,0.12,0.81,0.15,1.21
		c-0.36-0.6-0.92-0.99-1.59-1.22c-0.73-0.25-1.54-0.25-2.24,0.1c-0.58,0.29-1.05,0.79-1.29,1.4c-0.14,0.34-0.2,0.73-0.09,1.09
		c0.1,0.33,0.38,0.55,0.72,0.57c0.01,0,0.03,0,0.05,0c-0.31-0.1-0.52-0.34-0.52-0.67c0-0.33,0.15-0.65,0.34-0.91
		c0.36-0.5,0.93-0.86,1.55-0.94c0.38-0.05,0.77,0.01,1.13,0.15c0.34,0.12,0.68,0.3,0.93,0.56c0.51,0.54,0.68,1.35,0.75,2.06
		c0.05,0.54,0.05,1.09,0,1.63c-0.16,0.66-0.38,1.3-0.67,1.91c-0.61,1.29-1.49,2.43-2.6,3.33c-0.58,0.47-1.21,0.86-1.88,1.18
		c-0.71,0.34-1.45,0.64-2.22,0.8c-0.73,0.15-1.45,0.14-2.17,0.07c1.01-0.21,1.95-0.72,2.54-1.58c0.4-0.58,0.69-1.36,0.32-2.04
		c-0.36-0.67-1.19-0.88-1.89-0.9c0.66,0.13,1.52,0.43,1.69,1.18c0.16,0.7-0.36,1.36-0.83,1.81c-0.07,0.07-0.17,0.14-0.25,0.19
		c-0.2,0.14-0.41,0.26-0.63,0.35c-0.46,0.19-0.96,0.29-1.46,0.31c-1.03,0.04-2.11-0.18-3.02-0.67c-0.12-0.06-0.23-0.13-0.34-0.2
		c0.03-0.51,0.22-1.01,0.56-1.38c0.5-0.55,1.25-0.74,1.97-0.66c-0.17-0.04-0.27-0.06-0.31-0.06c-0.45-0.06-0.92,0-1.34,0.2
		c-0.43,0.21-0.78,0.57-1.01,1c-0.11,0.21-0.19,0.43-0.24,0.65c-0.46-0.35-0.86-0.78-1.2-1.26c1.24-2.04,1.55-4.71,0.59-6.9
		c-0.15-0.34-0.32-0.66-0.53-0.97c0.29-0.34,0.62-0.64,0.99-0.89c0.62-0.42,1.35-0.69,2.1-0.69c0.74-0.01,1.44,0.25,2.07,0.6
		c0.64,0.36,1.09,1.01,1.3,1.7c0.21,0.69,0.19,1.54-0.29,2.12c-0.43,0.53-1.22,0.82-1.9,0.72c-0.31-0.05-0.6-0.19-0.78-0.46
		c-0.2-0.31-0.2-0.71-0.13-1.07c-0.01,0.04-0.02,0.07-0.03,0.09c-0.18,0.61-0.06,1.27,0.55,1.59c0.67,0.35,1.53,0.22,2.16-0.14
		c0.67-0.37,1.06-1.04,1.17-1.78c0.21-1.42-0.55-3.03-1.86-3.68c-0.66-0.4-1.4-0.65-2.17-0.69c-0.79-0.04-1.58,0.14-2.29,0.49
		c-0.6,0.3-1.14,0.71-1.6,1.21c-0.5-0.53-1.09-0.98-1.76-1.28c-1.26-0.58-2.66-0.51-3.88,0.08c-0.41-0.56-0.95-1.04-1.56-1.38
		c-1.29-0.72-2.87-0.78-4.14,0.01c-1.3,0.8-2.05,2.23-2.45,3.66c-0.33,1.21-0.49,2.49-0.45,3.76l0.51,0.51l0.77,0.77
		c0-0.04,0-0.09,0-0.13c0.03-0.74,0.14-1.55,0.54-2.19c0.39-0.62,1.17-0.98,1.89-1.02c0.72-0.05,1.4,0.28,1.86,0.82
		c0.42,0.5,0.74,1.43-0.08,1.71c0.01,0,0.03,0,0.04,0c0.65-0.02,0.86-0.69,0.76-1.25c-0.09-0.5-0.37-0.97-0.73-1.32
		c-0.87-0.84-2.13-0.95-3.21-0.47c-0.33,0.15-0.64,0.33-0.9,0.59c-0.15,0.15-0.28,0.33-0.39,0.52c0.04-0.46,0.1-0.91,0.18-1.36
		c0.26-1.44,0.82-2.98,2.05-3.88c1.29-0.94,2.99-0.68,4.23,0.19c0.26,0.18,0.49,0.4,0.71,0.64c-0.02,0.01-0.04,0.02-0.06,0.03
		c-0.57,0.29-1.03,0.77-1.35,1.31c-0.73,1.24-0.8,3.17,0.53,4.05c0.61,0.4,1.46,0.57,2.16,0.3c0.32-0.12,0.6-0.35,0.72-0.68
		c0.12-0.33,0.08-0.7-0.03-1.03c0-0.01-0.01-0.03-0.01-0.04c0.08,0.45,0.05,0.98-0.33,1.29c-0.34,0.28-0.83,0.29-1.24,0.21
		c-0.45-0.09-0.9-0.31-1.21-0.67c-0.31-0.36-0.44-0.85-0.44-1.32c0-0.75,0.31-1.51,0.82-2.06c0.24-0.26,0.51-0.42,0.82-0.59
		c0.06-0.03,0.12-0.04,0.18-0.07c0.42,0.7,0.67,1.49,0.62,2.32c0.08-0.4,0.1-0.82,0.04-1.23c-0.06-0.42-0.19-0.82-0.37-1.21
		c0.19-0.08,0.37-0.18,0.58-0.22c1.5-0.35,2.95,0.37,3.91,1.5c-0.23,0.36-0.44,0.74-0.6,1.14c-0.59,1.46-0.62,3.09-0.23,4.6
		c0.19,0.74,0.49,1.45,0.88,2.11c-0.34,0.48-0.74,0.92-1.2,1.27c-0.12-0.53-0.39-1.02-0.81-1.36c-0.5-0.42-1.14-0.56-1.76-0.49
		c-0.02,0-0.13,0.01-0.32,0.05c0.59-0.06,1.2,0.04,1.68,0.4c0.42,0.31,0.7,0.79,0.81,1.3c0.02,0.12,0.04,0.23,0.05,0.35
		c-0.53,0.34-1.11,0.57-1.73,0.71c-0.76,0.18-1.58,0.23-2.35,0.07c-0.37-0.08-0.73-0.2-1.06-0.38c-0.19-0.1-0.41-0.23-0.56-0.39
		c-0.48-0.46-1.01-1.14-0.82-1.85c0.19-0.72,1.02-1.01,1.68-1.14c-0.73,0.02-1.59,0.25-1.93,0.97c-0.33,0.72,0.02,1.52,0.46,2.11
		c0.59,0.79,1.5,1.25,2.46,1.44c-0.36,0.04-0.73,0.06-1.1,0.05c-0.03,0-0.06,0-0.09,0l0.41,0.41c0.57-0.06,1.13-0.19,1.68-0.35
		c0.09,0,0.17,0,0.26,0c0.85,0,1.68-0.17,2.45-0.48c-0.24,0.47-0.64,0.85-1.16,1.06c-0.74,0.29-1.59,0.42-2.38,0.48
		c-0.04,0-0.09,0.01-0.13,0.01l0.67,0.67c0.4-0.07,0.8-0.16,1.2-0.28c0.72-0.22,1.42-0.51,1.9-1.12c0.25-0.32,0.42-0.71,0.5-1.11
		c0.43-0.23,0.83-0.51,1.19-0.85c0.23-0.21,0.44-0.43,0.63-0.67c0.23,0.28,0.49,0.54,0.76,0.78c0.33,0.29,0.69,0.53,1.06,0.73
		c0.07,0.35,0.2,0.68,0.41,0.97c0.44,0.64,1.1,0.96,1.81,1.2c0.76,0.25,1.56,0.39,2.36,0.45c1.62,0.12,3.24-0.12,4.79-0.61
		c1.44-0.46,2.81-1.13,4.07-1.96c0.54-0.36,1.05-0.74,1.55-1.16c0.37-0.31,0.72-0.61,1.14-0.86c1.34-0.79,2.99-1.21,4.54-1.12
		c0.72,0.04,1.44,0.21,2.07,0.57c0.6,0.34,1.06,0.85,1.37,1.47c0.34,0.69,0.45,1.48,0.14,2.2c-0.29,0.66-0.88,1.16-1.54,1.43
		c-0.65,0.27-1.49,0.35-2.11-0.06c-0.61-0.41-0.77-1.16-0.75-1.85c-0.09,0.59-0.05,1.23,0.31,1.72c0.34,0.46,0.89,0.7,1.45,0.75
		c1.14,0.1,2.32-0.47,2.98-1.4c0.91-1.28,0.53-2.99-0.42-4.14c-1.01-1.22-2.62-1.67-4.15-1.65c-0.27,0-0.54,0.02-0.82,0.05
		c2.31-1.41,4.56-3.02,7.16-3.84c1.18-0.37,2.41-0.45,3.64-0.3c1.4,0.17,2.77,0.69,3.85,1.62c1.12,0.97,1.85,2.38,2.01,3.85
		c0.16,1.42-0.26,2.98-1.51,3.8c-0.6,0.39-1.32,0.56-2.03,0.59c-0.72,0.03-1.44-0.13-2.05-0.53c-1.33-0.88-1.5-2.62-1.1-4.04
		c-0.57,1.27-0.59,2.81,0.31,3.94c0.89,1.12,2.43,1.45,3.79,1.23c0.71-0.11,1.4-0.39,1.97-0.85c0.57-0.46,0.99-1.07,1.25-1.75
		C63.78,15.24,63.62,13.58,63.02,12.16z M24.91,13.45c-0.59-1.31-0.79-2.82-0.53-4.18c0.1-0.53,0.28-1.04,0.53-1.52
		c0.44,0.86,0.66,1.82,0.65,2.81C25.55,11.54,25.32,12.54,24.91,13.45z"/>
	<path d="M4.83,31c-0.01-0.01-0.01-0.02-0.01-0.03c0,0,0-0.01-0.01-0.01C4.82,30.98,4.82,30.99,4.83,31z"/>
	<path d="M18.32,21.32c-0.21,0.52-0.59,0.92-1.06,1.16c0.31-0.77,0.48-1.6,0.48-2.45c0-0.09,0-0.17,0-0.26
		c0.16-0.55,0.29-1.12,0.35-1.68l-0.41-0.41c0,0.03,0,0.06,0,0.09c0.01,0.37-0.01,0.73-0.05,1.1c-0.19-0.96-0.65-1.86-1.44-2.46
		c-0.59-0.44-1.39-0.8-2.11-0.46c-0.72,0.33-0.96,1.2-0.97,1.92c0.12-0.65,0.42-1.48,1.14-1.68c0.71-0.19,1.39,0.34,1.85,0.82
		c0.16,0.15,0.28,0.37,0.39,0.56c0.18,0.33,0.31,0.69,0.38,1.06c0.16,0.77,0.11,1.59-0.07,2.35c-0.15,0.62-0.37,1.2-0.71,1.73
		c-0.12-0.01-0.23-0.02-0.35-0.05c-0.51-0.11-0.99-0.39-1.3-0.81c-0.36-0.48-0.46-1.09-0.4-1.68c-0.04,0.19-0.06,0.29-0.06,0.32
		c-0.07,0.63,0.07,1.27,0.49,1.76c0.35,0.42,0.84,0.69,1.36,0.81c-0.36,0.46-0.79,0.87-1.27,1.2c-0.66-0.39-1.37-0.69-2.11-0.88
		c-1.51-0.4-3.15-0.37-4.6,0.23c-0.39,0.16-0.78,0.36-1.14,0.6c-1.13-0.96-1.84-2.41-1.5-3.91c0.05-0.2,0.15-0.38,0.22-0.58
		c0.38,0.18,0.78,0.32,1.21,0.37c0.41,0.05,0.82,0.04,1.23-0.04c-0.83,0.04-1.62-0.2-2.32-0.62c0.03-0.06,0.04-0.12,0.07-0.18
		c0.17-0.3,0.33-0.58,0.59-0.82c0.55-0.51,1.31-0.82,2.06-0.82c0.46,0,0.96,0.14,1.32,0.44c0.35,0.3,0.58,0.75,0.66,1.21
		c0.08,0.41,0.07,0.9-0.21,1.24c-0.31,0.39-0.84,0.42-1.29,0.34c0.02,0.01,0.03,0.01,0.04,0.01c0.33,0.11,0.7,0.15,1.03,0.03
		c0.33-0.12,0.56-0.4,0.68-0.72c0.27-0.7,0.1-1.54-0.3-2.16c-0.87-1.33-2.81-1.26-4.05-0.53c-0.55,0.32-1.02,0.78-1.31,1.35
		c-0.01,0.02-0.02,0.04-0.03,0.06c-0.23-0.22-0.45-0.45-0.64-0.71c-0.87-1.25-1.13-2.94-0.19-4.23c0.9-1.23,2.44-1.79,3.88-2.05
		c0.45-0.08,0.9-0.14,1.36-0.18c-0.19,0.11-0.36,0.24-0.52,0.39c-0.26,0.26-0.44,0.57-0.59,0.9c-0.48,1.08-0.38,2.34,0.47,3.21
		c0.35,0.36,0.82,0.64,1.32,0.73c0.56,0.1,1.23-0.11,1.25-0.76c0-0.01,0-0.02,0-0.04c-0.28,0.82-1.21,0.5-1.71,0.08
		c-0.55-0.46-0.87-1.14-0.82-1.86c0.05-0.71,0.41-1.5,1.02-1.89c0.64-0.4,1.45-0.51,2.19-0.54c0.04,0,0.09,0,0.13,0l-0.77-0.77
		l-0.52-0.52c-1.26-0.03-2.55,0.12-3.76,0.45c-1.43,0.4-2.85,1.16-3.66,2.45c-0.79,1.28-0.73,2.85-0.01,4.14
		c0.34,0.61,0.82,1.14,1.38,1.56c-0.59,1.23-0.66,2.62-0.08,3.88c0.3,0.67,0.75,1.26,1.28,1.76c-0.49,0.46-0.91,1-1.21,1.6
		c-0.35,0.71-0.54,1.5-0.49,2.29c0.04,0.77,0.3,1.51,0.69,2.17c0.65,1.3,2.25,2.07,3.68,1.86c0.75-0.11,1.41-0.5,1.78-1.17
		c0.35-0.63,0.48-1.5,0.14-2.16c-0.32-0.61-0.98-0.73-1.59-0.55c-0.02,0.01-0.05,0.02-0.09,0.03c0.35-0.06,0.75-0.07,1.07,0.13
		c0.27,0.17,0.41,0.47,0.46,0.78c0.1,0.68-0.19,1.47-0.72,1.9c-0.58,0.48-1.43,0.5-2.12,0.29c-0.69-0.21-1.35-0.66-1.7-1.3
		c-0.36-0.64-0.61-1.34-0.6-2.07c0.01-0.75,0.27-1.48,0.69-2.1c0.25-0.37,0.56-0.7,0.89-0.99c0.31,0.2,0.63,0.38,0.97,0.53
		c2.18,0.96,4.85,0.66,6.9-0.59c0.48,0.34,0.91,0.74,1.26,1.2c-0.23,0.05-0.45,0.13-0.65,0.24c-0.43,0.22-0.78,0.57-1,1.01
		c-0.2,0.41-0.26,0.88-0.2,1.34c0,0.03,0.01,0.14,0.06,0.31c-0.07-0.72,0.11-1.47,0.66-1.97c0.38-0.34,0.88-0.53,1.38-0.56
		c0.07,0.11,0.14,0.22,0.2,0.34c0.49,0.91,0.71,1.99,0.67,3.02c-0.02,0.5-0.12,1-0.31,1.45c-0.09,0.22-0.21,0.44-0.35,0.63
		c-0.06,0.08-0.12,0.18-0.19,0.25c-0.45,0.47-1.11,0.99-1.81,0.83c-0.75-0.17-1.05-1.02-1.18-1.69c0.02,0.7,0.23,1.53,0.9,1.89
		c0.67,0.36,1.45,0.08,2.04-0.32c0.87-0.59,1.37-1.53,1.58-2.54c0.08,0.72,0.08,1.44-0.07,2.17c-0.16,0.78-0.46,1.51-0.8,2.22
		c-0.32,0.67-0.71,1.3-1.18,1.88c-0.9,1.1-2.04,1.99-3.33,2.6c-0.61,0.29-1.26,0.51-1.91,0.67c-0.54,0.05-1.09,0.05-1.63,0
		C8,40.44,7.19,40.27,6.65,39.76c-0.26-0.25-0.43-0.6-0.56-0.93c-0.13-0.36-0.19-0.75-0.15-1.13c0.08-0.62,0.44-1.18,0.94-1.55
		c0.26-0.19,0.58-0.35,0.91-0.34c0.33,0,0.57,0.22,0.67,0.52c0-0.02,0-0.03,0-0.05c-0.02-0.34-0.24-0.62-0.57-0.72
		c-0.36-0.11-0.75-0.04-1.09,0.09c-0.6,0.24-1.11,0.71-1.4,1.29c-0.35,0.7-0.36,1.51-0.1,2.24c0.23,0.67,0.62,1.23,1.22,1.59
		c-0.41-0.03-0.81-0.08-1.21-0.15c-0.76-0.13-1.5-0.32-2.2-0.65c-0.66-0.31-1.29-0.74-1.74-1.32c-0.49-0.62-0.72-1.38-0.68-2.17
		c0.11-2.26,2.24-4.17,4.49-4.06c-2.97-0.61-5.83,2.55-5.07,5.44c0.39,1.48,1.65,2.54,3.01,3.12c1.46,0.63,3.12,0.85,4.69,0.83
		c1.61-0.01,3.21-0.33,4.66-1.02c1.28-0.6,2.44-1.48,3.35-2.56c0.98-1.16,1.66-2.56,2.05-4.02c0.2-0.78,0.29-1.58,0.22-2.38
		c-0.06-0.61-0.2-1.21-0.37-1.8c0-0.02,0-0.04,0-0.06c0.02-0.91-0.14-1.82-0.48-2.65c0.37,0.19,0.69,0.48,0.91,0.85
		c0.19,0.34,0.29,0.72,0.38,1.09c0.1,0.4,0.17,0.8,0.22,1.21c0.37,3.16-0.77,6.36-2.48,8.97c-0.37,0.56-0.77,1.1-1.21,1.62
		c-0.32,0.38-0.63,0.76-0.89,1.18c-0.56,0.93-0.94,1.99-1.12,3.08c-1.56,2.08-3.21,4.11-4.3,6.48c-0.24,0.51-0.46,1.04-0.61,1.58
		c-0.21,0.75-0.3,1.53-0.31,2.31c-0.02,1.56,0.32,3.13,1.11,4.48c0.74,1.26,1.86,2.26,3.21,2.83c1.41,0.6,3.08,0.76,4.53,0.2
		c0.68-0.26,1.29-0.68,1.75-1.25c0.46-0.57,0.74-1.25,0.85-1.97c0.22-1.36-0.11-2.9-1.23-3.79c-1.12-0.89-2.67-0.88-3.94-0.31
		c1.42-0.41,3.16-0.23,4.04,1.1c0.4,0.6,0.56,1.33,0.53,2.05c-0.03,0.71-0.2,1.43-0.59,2.03c-0.81,1.25-2.38,1.67-3.8,1.51
		c-1.47-0.16-2.88-0.89-3.85-2.01c-0.93-1.08-1.45-2.44-1.62-3.85c-0.15-1.22-0.07-2.46,0.3-3.64c0.82-2.6,2.42-4.85,3.83-7.16
		c-0.03,0.27-0.04,0.54-0.05,0.82c-0.02,1.53,0.43,3.14,1.65,4.15c1.14,0.95,2.86,1.33,4.14,0.42c0.93-0.66,1.5-1.84,1.4-2.98
		c-0.05-0.56-0.29-1.11-0.75-1.45c-0.49-0.36-1.14-0.41-1.72-0.31c0.69-0.02,1.44,0.14,1.85,0.75c0.41,0.62,0.33,1.45,0.06,2.11
		c-0.27,0.65-0.77,1.25-1.43,1.54c-0.72,0.32-1.51,0.2-2.2-0.14c-0.62-0.31-1.13-0.77-1.47-1.37c-0.36-0.63-0.52-1.35-0.57-2.07
		c-0.09-1.56,0.33-3.2,1.12-4.54c0.24-0.42,0.55-0.77,0.86-1.14c0.42-0.49,0.8-1.01,1.16-1.55c0.83-1.26,1.51-2.63,1.96-4.07
		c0.49-1.54,0.73-3.17,0.61-4.79c-0.06-0.8-0.2-1.59-0.45-2.36c-0.23-0.72-0.56-1.38-1.2-1.81c-0.29-0.2-0.63-0.34-0.97-0.4
		c-0.2-0.38-0.45-0.73-0.73-1.06c-0.24-0.28-0.5-0.53-0.78-0.76c0.24-0.2,0.46-0.41,0.67-0.63c0.34-0.37,0.62-0.77,0.85-1.19
		c0.4-0.08,0.78-0.25,1.11-0.5c0.61-0.48,0.9-1.17,1.12-1.9c0.12-0.39,0.21-0.79,0.28-1.2l-0.67-0.67c0,0.04,0,0.09-0.01,0.13
		C18.74,19.74,18.62,20.58,18.32,21.32z M10.55,25.56c-0.98,0.01-1.95-0.21-2.81-0.65c0.48-0.25,1-0.43,1.52-0.53
		c1.37-0.26,2.87-0.06,4.18,0.53C12.54,25.32,11.54,25.55,10.55,25.56z"/>
</g>
</svg>
