<?xml version="1.0" encoding="utf-8"?>
<!-- Generator: Adobe Illustrator 23.0.3, SVG Export Plug-In . SVG Version: 6.00 Build 0)  -->
<svg version="1.1" id="Layer_1" xmlns="http://www.w3.org/2000/svg" xmlns:xlink="http://www.w3.org/1999/xlink" x="0px" y="0px"
	 viewBox="0 0 69.13 69.13" style="enable-background:new 0 0 69.13 69.13;" xml:space="preserve">
<g>
	<path d="M68.51,5.72H42.42c-0.11,0-0.2,0.02-0.28,0.06c-0.17,0.03-0.32,0.11-0.48,0.24c-0.56,0.48-0.17,1.53,0.48,1.91
		c0.81,0.48,1.66-0.04,2.08,0.57c0.73,1.04,0.87,2.09,0.02,3.43c-0.71,1.12-2.36,0.97-3.39,0.42c0.64-1.13,0.09-2.23-0.28-2.58
		c-0.77-0.77-2.54-0.38-3.31,0.34c0.14-0.81-0.18-2.04-1.02-2.56c-0.82-0.51-1.82-0.67-3.59,0.45c0.28-0.58,0.02-1.42-0.82-1.88
		c-1.08-0.59-2.25-0.16-3.22,0.76c0.38-1.11-0.58-1.65-1.37-1.72c-1.03-0.11-1.65,0.55-2.03,1.17c0.31-0.82-0.73-1.17-1.56-1.03
		c-0.14,0.02-0.28,0.06-0.43,0.11c1.03-0.87,2.17-1.62,3.33-2.25c1.57-0.85,3.45-1.77,5.32-1.87c-0.38,0.65-0.41,1.47,0,2.17
		c0.35,0.59,1,0.9,1.67,0.93c0.06,0.01,0.12,0.02,0.18,0.02h34.75c0.83,0,0.83-1.28,0-1.28H35.53c0.28-0.74,0.13-1.62-0.42-2.24
		c-0.87-0.98-2.63-0.95-3.8-0.8c-1.48,0.19-2.86,0.75-4.2,1.38c-1.26,0.59-2.46,1.28-3.59,2.09c-1.07,0.76-2.06,1.64-2.92,2.63
		c-0.34-0.43-0.66-0.77-0.92-1.03c-1.6-1.53-4.89-3.29-8.2-0.83c-2.1,1.56-2.53,3.45-2.07,5.08c-1.63-0.46-3.52-0.03-5.08,2.07
		c-2.46,3.31-0.7,6.61,0.83,8.2c0.25,0.26,0.6,0.58,1.03,0.92c-0.99,0.86-1.86,1.85-2.63,2.92c-0.81,1.13-1.5,2.34-2.09,3.6
		c-0.63,1.34-1.19,2.73-1.38,4.2c-0.15,1.17-0.18,2.93,0.8,3.8c0.62,0.55,1.5,0.71,2.24,0.42v32.95c0,0.83,1.28,0.83,1.28,0V33.73
		c0-0.07-0.01-0.13-0.02-0.18c-0.03-0.67-0.34-1.32-0.93-1.67c-0.69-0.41-1.52-0.38-2.17,0c0.11-1.86,1.03-3.75,1.87-5.32
		c0.63-1.17,1.38-2.3,2.25-3.33c-0.05,0.15-0.09,0.3-0.11,0.43c-0.14,0.83,0.21,1.87,1.03,1.56c-0.62,0.38-1.29,1.01-1.17,2.03
		c0.07,0.79,0.6,1.75,1.72,1.37c-0.93,0.96-1.35,2.13-0.76,3.22c0.46,0.84,1.31,1.1,1.88,0.82c-1.11,1.77-0.96,2.77-0.45,3.59
		c0.52,0.84,1.74,1.17,2.56,1.02c-0.72,0.76-1.12,2.53-0.34,3.31c0.36,0.36,1.45,0.92,2.58,0.28c0.54,1.03,0.7,2.68-0.42,3.39
		c-1.33,0.85-2.38,0.7-3.43-0.02c-0.6-0.42-0.09-1.27-0.57-2.08c-0.38-0.65-1.43-1.04-1.91-0.48c-0.13,0.15-0.2,0.31-0.24,0.48
		c-0.04,0.08-0.06,0.17-0.06,0.28v26.09c0,0.83,1.28,0.83,1.28,0V44.27c0.05,0.05,0.11,0.1,0.16,0.14c0.86,0.75,2.66,2.08,5.54,0.69
		c1.71-0.82,2.36-2.34,2.31-3.93c-0.07-2.26-1.81-3.93-3.44-5.83c-2.29-2.2-3.98-5.45-3.96-8.56c0.01-1.48,0.09-2.84,0.48-4.37
		c0.04-0.15,0.09-0.31,0.14-0.46c0.22,0.12,0.44,0.24,0.67,0.35c-0.35,1.41-0.49,3.07-0.41,4.7c0.15,3.27,1.55,5.9,3.5,7.64
		c1.98,1.76,5.37,5.36,3.07,9.25c-1.98,3.37-4.46,2.92-5.12,2.54c-0.65-0.38-0.92,0.17-0.41,0.93c1.72,2.58,6.59,2.29,7.26-0.72
		c0,0,2.09-0.17,2.02-2.45c-0.01-0.51,0.08-1.11,0.55-0.76c0.47,0.34,1.44,0.53,2.15,0.32c0.72-0.21,1.14-0.6,1.88-0.69
		c0.23-0.03,0.19-1.4-0.26-2.16c-0.67-1.12-1.7-1.7-2.12-1.96c-0.42-0.26-0.11-0.31,0.3-0.33c0.41-0.02,1.04-0.59,1.27-0.65
		c0.22-0.06-0.05-0.44-0.38-0.8c-0.48-0.53-0.64-2.03-2.17-2.51c-1.52-0.48-3.89-0.38-5.6-0.94c-1.71-0.56-3.37-1.86-4.31-3.51
		c-0.27-0.48,0.07-0.55,0.41-0.02c0.34,0.53,1.55,1.94,2.76,2.57c0.62,0.32,1.52,0.34,1.31-0.33c-0.22-0.67-0.01-1.09-0.07-1.41
		c-0.06-0.32-0.01-0.14,0.32-0.02c0.33,0.12,0.83,0.24,1.79,0.2c0.95-0.04,2.05,0.1,2.49,0.62c0.44,0.53,0.7,0.29,0.39-0.56
		c-0.5-1.36-2.15-3.4-3.4-3.63c-0.6-0.11-0.43-0.44-0.02-0.41c0.41,0.03,0.87,0.01,1.23-0.14c0.36-0.15,0.52-0.57-0.08-0.73
		c-0.6-0.16-1.08-0.68-1.3-1.45c-0.22-0.77-1-1.96-2.2-2.32c-0.38-0.11-0.66-0.37-0.85-0.69c-0.12-1.12,0.25-2.24,0.97-3.09
		c-0.1-0.15-0.19-0.3-0.24-0.46l-0.34-0.99c-1.22,0.12-2.4,0.43-3.53,0.93c-0.31,0.13-0.61,0.28-0.91,0.44
		c-0.22-0.09-0.45-0.18-0.68-0.29c-2.31-1.06-3.24-2.99-2.92-4.77c0.32-1.82,1.92-3.47,3.8-2.98c0.87,0.23,1.6,0.71,1.85,1.61
		c0.25,0.89-0.39,1.61-0.39,1.61s-0.12-1.88-1.53-1.98c-1.15-0.08-1.98,0.7-1.91,2.14c0.05,1.24,1.59,2.81,3.43,1.97
		c0.78-0.36,1.37-1.17,1.64-2.1L11.82,13c-0.13-0.4-0.04-0.68,0.05-0.84c0.01-0.02,0.03-0.04,0.04-0.06
		c0.07-0.09,0.15-0.17,0.25-0.22c0.13-0.08,0.29-0.12,0.45-0.12c0.12,0,0.25,0.02,0.39,0.07l0.94,0.32c0.94-0.27,1.75-0.86,2.1-1.64
		c0.84-1.84-0.74-3.38-1.97-3.43C12.62,7,11.83,7.83,11.92,8.98c0.1,1.41,1.98,1.53,1.98,1.53s-0.72,0.64-1.61,0.39
		c-0.9-0.25-1.38-0.98-1.61-1.85c-0.49-1.87,1.16-3.48,2.98-3.8c1.78-0.31,3.71,0.61,4.77,2.92c0.11,0.23,0.2,0.46,0.29,0.68
		c-0.16,0.3-0.3,0.6-0.44,0.91c-0.49,1.13-0.8,2.31-0.93,3.53l0.99,0.34c0.16,0.05,0.31,0.14,0.46,0.24
		c0.86-0.72,1.97-1.09,3.09-0.97c0.32,0.19,0.58,0.47,0.69,0.85c0.36,1.2,1.56,1.99,2.32,2.2c0.76,0.22,1.29,0.7,1.45,1.3
		c0.16,0.6,0.57,0.44,0.73,0.08c0.15-0.36,0.17-0.81,0.14-1.23c-0.03-0.41,0.3-0.58,0.41,0.02c0.23,1.25,2.28,2.9,3.63,3.4
		c0.85,0.31,1.09,0.05,0.56-0.39c-0.53-0.43-0.66-1.53-0.62-2.49c0.04-0.96-0.07-1.46-0.2-1.79c-0.12-0.32-0.3-0.38,0.02-0.32
		c0.31,0.06,0.74-0.15,1.41,0.07c0.67,0.21,0.65-0.69,0.33-1.31c-0.63-1.21-2.04-2.42-2.57-2.76c-0.53-0.34-0.46-0.68,0.02-0.41
		c1.65,0.94,2.94,2.6,3.51,4.31c0.56,1.71,0.46,4.08,0.94,5.6c0.48,1.53,1.98,1.69,2.51,2.17c0.36,0.33,0.74,0.61,0.8,0.38
		c0.06-0.23,0.63-0.86,0.65-1.27c0.02-0.41,0.08-0.73,0.33-0.3c0.25,0.42,0.84,1.45,1.96,2.12c0.75,0.45,2.13,0.49,2.16,0.26
		c0.1-0.74,0.48-1.16,0.69-1.88c0.21-0.72,0.03-1.68-0.32-2.15c-0.34-0.47,0.25-0.57,0.76-0.55c2.28,0.06,2.45-2.02,2.45-2.02
		c3.01-0.67,3.29-5.54,0.72-7.26c-0.76-0.51-1.31-0.24-0.93,0.41c0.38,0.66,0.82,3.14-2.54,5.12c-3.89,2.29-7.49-1.09-9.25-3.07
		c-1.74-1.95-4.37-3.35-7.64-3.5c-1.62-0.08-3.29,0.06-4.7,0.41c-0.12-0.23-0.23-0.46-0.35-0.67c0.15-0.05,0.3-0.1,0.46-0.14
		c1.53-0.39,2.89-0.48,4.37-0.48c3.11-0.02,6.36,1.67,8.56,3.96c1.9,1.64,3.57,3.37,5.83,3.44c1.58,0.05,3.1-0.6,3.93-2.31
		c1.39-2.88,0.06-4.68-0.69-5.54c-0.05-0.05-0.09-0.11-0.14-0.16h24.25C69.34,7.01,69.34,5.72,68.51,5.72z M19,39.24
		c0.48,1.73,2.29,3.12,2.29,3.12c-1.61-0.55-2.82-1.63-3.74-3.88c-0.92-2.25-3.12-3.38-3.12-3.38C17.01,35.39,18.52,37.51,19,39.24z
		 M12.32,18.79c-0.13,0.23-0.24,0.47-0.34,0.71c-0.41-0.04-0.85-0.11-1.32-0.22C11.19,19.08,11.75,18.91,12.32,18.79z M10.84,23.12
		c0.03,0.55,0.12,1.13,0.3,1.76c0.61,2.13,2.51,3.08,3.36,3.81c0.28,0.24,0.36,0.54,0.36,0.54s-0.22,0.16-0.66-0.01
		c-0.85-0.33-2.29-1.38-3.39-3.02c-0.61-0.9-0.85-2.16-0.88-3.41C10.22,22.9,10.53,23.01,10.84,23.12z M7.34,19.66
		c-0.09,0.06-0.17,0.12-0.26,0.19c-1.28-0.89-2.14-2.11-2.73-3.76C4.88,17.02,5.7,18.55,7.34,19.66z M18.79,12.32
		c0.12-0.57,0.29-1.12,0.49-1.66c0.11,0.46,0.17,0.9,0.22,1.32C19.26,12.08,19.02,12.19,18.79,12.32z M19.66,7.34
		c-1.11-1.64-2.64-2.46-3.57-2.99c1.64,0.59,2.87,1.45,3.76,2.73C19.79,7.16,19.73,7.25,19.66,7.34z M38.49,17.55
		c2.25,0.92,3.33,2.13,3.88,3.74c0,0-1.39-1.8-3.12-2.29c-1.73-0.48-3.86-1.99-4.14-4.58C35.11,14.42,36.24,16.62,38.49,17.55z
		 M26.19,10.81c1.64,1.1,2.7,2.54,3.02,3.39c0.17,0.44,0.01,0.66,0.01,0.66s-0.29-0.08-0.54-0.36c-0.73-0.85-1.67-2.75-3.81-3.36
		c-0.63-0.18-1.21-0.26-1.76-0.29c-0.1-0.31-0.22-0.62-0.34-0.91C24.03,9.96,25.29,10.21,26.19,10.81z"/>
	<path d="M18.36,14.28c-0.06-0.04-0.13-0.07-0.2-0.09l-0.82-0.28l-4.53-1.53c-0.07-0.02-0.14-0.04-0.2-0.04
		c-0.23,0-0.33,0.18-0.23,0.46l1.53,4.53l0.28,0.82c0.02,0.06,0.05,0.13,0.09,0.2c0.17,0.29,0.48,0.57,0.77,0.67l5.35,1.81
		c0.07,0.02,0.14,0.04,0.2,0.04c0.23,0,0.33-0.18,0.23-0.46l-1.81-5.35C18.93,14.76,18.65,14.45,18.36,14.28z"/>
</g>
</svg>
