<?xml version="1.0" encoding="utf-8"?>
<!-- Generator: Adobe Illustrator 23.0.3, SVG Export Plug-In . SVG Version: 6.00 Build 0)  -->
<svg version="1.1" id="Layer_1" xmlns="http://www.w3.org/2000/svg" xmlns:xlink="http://www.w3.org/1999/xlink" x="0px" y="0px"
	 viewBox="0 0 57.49 57.49" style="enable-background:new 0 0 57.49 57.49;" xml:space="preserve">
<g>
	<path d="M56.54,5.77c-0.49-0.38-1.13-0.5-1.71-0.26c-0.56,0.23-0.97,0.73-1.26,1.26c0.47-0.52,1.13-1.09,1.88-0.97
		c0.69,0.11,1.18,0.78,1.3,1.43c0.08,0.43,0.02,0.89-0.26,1.23c-0.29,0.34-0.73,0.5-1.16,0.58c-0.96,0.16-1.96-0.04-2.85-0.41
		C51,8.02,49.73,7.01,48.44,6.06c0.38,0.27,0.75,0.55,1.13,0.82c-0.21-0.29-0.43-0.58-0.68-0.85c-1.26-1.38-2.92-2.3-4.68-2.85
		c-1.61-0.51-3.28-0.71-4.97-0.78c-4.16-0.18-8.31,0.56-12.25,1.85c0.03,0.01,0.05,0.02,0.07,0.03c-0.21-0.09-0.42-0.17-0.64-0.23
		c-0.68-0.19-1.37-0.19-2.07-0.13c-1.42,0.11-2.81,0.49-4.14,1c-1.86,0.71-3.61,1.68-5.29,2.73c-0.86,0.53-1.7,1.09-2.54,1.67
		c-0.22,0.15-0.44,0.3-0.65,0.46c-0.13,0.09-0.15,0.08-0.15,0.23c0-0.14-0.02-0.14-0.15-0.23c-0.22-0.15-0.44-0.3-0.65-0.46
		C9.95,8.75,9.11,8.19,8.25,7.66c-0.48-0.3-0.97-0.59-1.46-0.87v0c0.28,0.49,0.57,0.98,0.87,1.46c0.53,0.86,1.09,1.7,1.67,2.54
		c0.15,0.22,0.3,0.44,0.46,0.65c0.09,0.13,0.08,0.15,0.23,0.15c-0.14,0-0.14,0.02-0.23,0.15c-0.15,0.22-0.3,0.44-0.46,0.65
		c-0.58,0.83-1.14,1.68-1.67,2.54c-1.05,1.69-2.02,3.43-2.73,5.29c-0.51,1.33-0.88,2.71-1,4.14c-0.06,0.7-0.05,1.39,0.13,2.07
		c0.06,0.22,0.14,0.44,0.23,0.65c-0.01-0.02-0.02-0.05-0.03-0.07c-1.3,3.94-2.04,8.09-1.85,12.25c0.07,1.69,0.27,3.36,0.78,4.97
		c0.55,1.76,1.47,3.43,2.85,4.68c0.27,0.24,0.55,0.47,0.85,0.68c-0.27-0.38-0.55-0.75-0.82-1.13c0.95,1.29,1.96,2.55,2.56,4.04
		c0.37,0.89,0.57,1.89,0.41,2.85c-0.07,0.43-0.23,0.88-0.58,1.16c-0.34,0.29-0.81,0.35-1.23,0.26c-0.65-0.13-1.32-0.61-1.43-1.3
		c-0.12-0.76,0.45-1.41,0.97-1.88c-0.53,0.28-1.03,0.69-1.26,1.25c-0.24,0.58-0.11,1.22,0.26,1.71c0.75,0.98,2.32,1.32,3.28,0.45
		c0.67-0.6,0.86-1.57,0.84-2.44c-0.02-0.97-0.32-1.91-0.77-2.76c-0.3-0.56-0.66-1.08-1.05-1.58c1.89,0.8,3.98,0.67,5.85-0.13
		c0.71-0.3,1.34-0.7,1.86-1.28c0.61-0.68,1.04-1.53,1.16-2.44c0.02-0.18,0.04-0.37,0.03-0.55c0.14-1.77-0.71-3.61-2.4-4.33
		c-0.91-0.39-1.96-0.3-2.85,0.11c-0.79,0.37-1.57,1.01-1.91,1.84c-0.21,0.52-0.2,1.09,0.07,1.58c-0.44-0.91,0.04-1.83,0.74-2.44
		c0.72-0.63,1.67-1.05,2.64-1.02c0.94,0.03,1.8,0.52,2.38,1.25c0.56,0.71,0.81,1.61,0.8,2.5c-0.01,0.9-0.19,1.75-0.7,2.5
		c-0.48,0.71-1.16,1.23-1.96,1.54c-0.87,0.34-1.78,0.58-2.72,0.6c-1,0.02-1.98-0.2-2.87-0.65c-1.3-0.65-2.34-1.82-3.06-3.07
		c-0.43-0.76-0.76-1.58-1-2.41C4,43.36,3.89,42.89,3.8,42.42c-0.02-0.12-0.04-0.25-0.07-0.37C3.73,42,3.7,41.92,3.71,41.88
		c0,0.03-0.01-0.05-0.01-0.07c-0.01-0.08-0.02-0.17-0.03-0.25c-0.03-0.27-0.06-0.55-0.08-0.82c-0.05-0.53-0.08-1.06-0.1-1.59
		c-0.04-1.04-0.02-2.09,0.06-3.13c0.15-2.06,0.51-4.1,1.03-6.1c0.14-0.52,0.28-1.05,0.44-1.56c0.01-0.03,0-0.07-0.01-0.1
		c0,0,0,0,0,0c0.01,0.01,0.02,0.03,0.03,0.04c0,0,0,0,0,0c0.29,0.37,0.64,0.71,1.03,0.99C6.04,29.27,6.02,29.26,6,29.24
		c-0.11,1.03-0.1,2.06,0.04,3.09c0.13,0.94,0.5,1.82,1.11,2.55c1.16,1.39,3.09,2.29,4.91,1.8c0.88-0.24,1.68-0.81,2.21-1.56
		c0.55-0.78,0.7-1.78,0.39-2.69c-0.3-0.85-0.98-1.57-1.82-1.91c-0.88-0.35-1.86-0.2-2.61,0.38c-0.24,0.18-0.45,0.4-0.63,0.63
		c0.64-0.67,1.52-1.12,2.47-0.96c0.79,0.13,1.49,0.65,1.89,1.33c0.49,0.82,0.54,1.83,0.03,2.66c-0.48,0.77-1.31,1.35-2.2,1.52
		c-1.67,0.33-3.38-0.65-4.29-2.02C7,33.32,6.81,32.5,6.75,31.61c-0.04-0.48-0.04-0.96-0.02-1.44c0-0.1,0.01-0.21,0.02-0.31
		c0.01-0.08,0.03-0.11-0.04-0.15c-0.05-0.02-0.1-0.05-0.15-0.08c-0.16-0.1-0.32-0.21-0.47-0.32c1.15,0.84,2.63,1.21,4.03,0.68
		c0.83-0.32,1.61-0.92,2.01-1.72c0.43-0.86,0.38-1.88-0.05-2.73c-0.39-0.75-1.08-1.37-1.91-1.57c-0.85-0.21-1.67,0.05-2.35,0.55
		c0.01,0,0.01-0.01,0.02-0.01c0.08-0.06,0.1-0.2,0.13-0.29c0.08-0.26,0.17-0.51,0.26-0.76c0.17-0.49,0.35-0.97,0.54-1.46
		c0.37-0.97,0.77-1.93,1.18-2.89c0.83-1.94,1.69-3.86,2.47-5.82c0.08-0.21,0.17-0.43,0.25-0.64c0.21-0.08,0.43-0.17,0.64-0.25
		c1.96-0.78,3.88-1.64,5.81-2.47c0.96-0.41,1.92-0.8,2.89-1.18c0.48-0.19,0.97-0.37,1.46-0.54c0.25-0.09,0.51-0.17,0.76-0.26
		c0.1-0.03,0.23-0.05,0.29-0.13c0-0.01,0.01-0.01,0.01-0.02c-0.5,0.68-0.76,1.5-0.55,2.35c0.2,0.83,0.82,1.52,1.57,1.91
		c0.85,0.44,1.87,0.48,2.73,0.05c0.81-0.4,1.41-1.18,1.72-2.01c0.53-1.39,0.16-2.87-0.68-4.03c0.11,0.15,0.22,0.31,0.32,0.47
		c0.03,0.05,0.06,0.1,0.08,0.15c0.04,0.08,0.07,0.05,0.15,0.04c0.1-0.01,0.21-0.01,0.31-0.02c0.48-0.02,0.96-0.02,1.44,0.02
		C32.5,6.81,33.32,7,34.07,7.5c1.37,0.91,2.34,2.62,2.02,4.29c-0.17,0.89-0.75,1.72-1.52,2.2c-0.83,0.51-1.84,0.46-2.66-0.03
		c-0.68-0.41-1.2-1.1-1.33-1.89c-0.16-0.94,0.29-1.83,0.97-2.47c-0.23,0.19-0.45,0.4-0.63,0.63c-0.58,0.75-0.73,1.73-0.38,2.61
		c0.34,0.84,1.06,1.52,1.91,1.82c0.91,0.32,1.91,0.17,2.69-0.39c0.75-0.53,1.32-1.32,1.56-2.21c0.49-1.81-0.41-3.75-1.8-4.91
		c-0.73-0.61-1.61-0.98-2.55-1.11C31.31,5.89,30.27,5.89,29.24,6c0.01,0.02,0.03,0.04,0.04,0.06C29,5.67,28.66,5.33,28.29,5.03
		c0.03,0.03,0.07,0.06,0.1,0.08c-0.02-0.01-0.05-0.04-0.1-0.08c0,0,0,0,0,0C28.27,5.02,28.26,5,28.25,5c0.01,0,0.02,0.01,0.04,0.03
		C28.27,5.02,28.26,5.01,28.24,5c0,0,0,0,0.01,0c0.03,0.02,0.07,0.02,0.1,0.01c0.52-0.16,1.04-0.3,1.56-0.44
		c2-0.52,4.04-0.88,6.1-1.03c1.04-0.07,2.09-0.09,3.13-0.06c0.53,0.02,1.06,0.05,1.59,0.1c0.28,0.02,0.55,0.05,0.82,0.08
		c0.08,0.01,0.17,0.02,0.25,0.03c0.02,0,0.09,0,0.07,0.01C41.92,3.7,42,3.73,42.05,3.73c0.12,0.02,0.25,0.04,0.37,0.07
		c0.47,0.09,0.94,0.2,1.4,0.33c0.84,0.24,1.66,0.57,2.41,1c1.25,0.72,2.42,1.76,3.07,3.06c0.45,0.89,0.67,1.87,0.65,2.87
		c-0.02,0.94-0.26,1.85-0.6,2.72c-0.31,0.79-0.83,1.47-1.54,1.96c-0.75,0.51-1.6,0.69-2.5,0.7c-0.89,0.01-1.79-0.24-2.5-0.8
		c-0.73-0.58-1.22-1.44-1.25-2.38c-0.03-0.97,0.38-1.91,1.02-2.64c0.61-0.7,1.54-1.17,2.44-0.74c-0.49-0.27-1.06-0.28-1.58-0.07
		c-0.82,0.34-1.47,1.12-1.84,1.91c-0.41,0.89-0.5,1.94-0.11,2.85c0.72,1.69,2.56,2.55,4.33,2.4c0.19,0,0.37-0.01,0.55-0.03
		c0.91-0.12,1.76-0.55,2.44-1.16c0.58-0.52,0.98-1.16,1.28-1.86c0.79-1.87,0.93-3.96,0.13-5.85c0.49,0.39,1.02,0.75,1.58,1.05
		c0.85,0.45,1.79,0.75,2.76,0.77c0.86,0.02,1.84-0.16,2.44-0.84C57.86,8.09,57.52,6.52,56.54,5.77z M28.05,4.85
		c0,0,0.01,0.01,0.01,0.01c-0.02-0.01-0.03-0.02-0.05-0.04C28.03,4.84,28.04,4.84,28.05,4.85z M27.71,4.63
		c0.02,0.01,0.05,0.03,0.07,0.04c-0.04-0.02-0.08-0.05-0.12-0.07C27.68,4.61,27.69,4.62,27.71,4.63z M27.19,5.21
		C27.19,5.21,27.19,5.21,27.19,5.21c0.02,0.01,0.04,0.02,0.06,0.03c0.01,0,0.02,0.01,0.02,0.01c-0.21-0.11-0.42-0.22-0.64-0.3
		C26.82,5.02,27.01,5.11,27.19,5.21z M26.23,4.82c0.03,0.01,0.06,0.02,0.09,0.03c-0.03-0.01-0.07-0.02-0.1-0.03
		C26.22,4.82,26.23,4.82,26.23,4.82z M4.63,27.71c-0.01-0.02-0.02-0.03-0.03-0.05c0.02,0.04,0.05,0.08,0.07,0.12
		C4.66,27.76,4.64,27.73,4.63,27.71z M4.72,25.71c-0.1-0.78,0-1.59,0.14-2.35c0.18-0.98,0.46-1.95,0.81-2.88
		c1.2-3.17,3.08-6.06,4.92-8.89c-0.59-0.91-1.19-1.82-1.76-2.75c0.93,0.58,1.84,1.17,2.75,1.76c2.83-1.84,5.72-3.73,8.89-4.92
		c0.93-0.35,1.9-0.64,2.88-0.81c0.76-0.14,1.57-0.24,2.35-0.14c-0.07,0-0.14,0.03-0.2,0.06c-0.63,0.23-1.25,0.47-1.87,0.72
		C22.4,6,21.17,6.53,19.97,7.1c-1.88,0.88-3.72,1.82-5.57,2.77c-0.94,0.48-1.87,0.97-2.81,1.45c-0.18-0.1-0.37-0.19-0.55-0.28
		c0.09,0.18,0.19,0.37,0.28,0.55c-0.49,0.94-0.97,1.87-1.45,2.81c-0.95,1.84-1.9,3.69-2.77,5.57C6.53,21.17,6,22.4,5.5,23.63
		c-0.25,0.62-0.49,1.25-0.72,1.87C4.76,25.58,4.72,25.64,4.72,25.71z M4.82,26.22c0.01,0.03,0.02,0.07,0.03,0.1
		c-0.01-0.03-0.02-0.06-0.03-0.09C4.82,26.23,4.82,26.22,4.82,26.22z M4.85,28.05c-0.01-0.01-0.02-0.03-0.03-0.04
		c0.01,0.02,0.02,0.03,0.04,0.05C4.86,28.06,4.86,28.06,4.85,28.05z M5.24,27.25c-0.01-0.02-0.02-0.04-0.03-0.06c0,0,0,0,0,0
		c-0.1-0.18-0.18-0.37-0.25-0.56c0.08,0.22,0.19,0.44,0.3,0.64C5.25,27.27,5.24,27.26,5.24,27.25z M6.57,28.75
		c0.08,0.06,0.16,0.14,0.25,0.2C6.73,28.89,6.65,28.81,6.57,28.75z M10.23,24.23c0.74,0.29,1.32,0.94,1.58,1.69
		c0.32,0.89,0.16,1.88-0.49,2.58c-0.62,0.68-1.55,1.1-2.48,1.09c-0.73,0-1.41-0.25-2.01-0.64c0.18-1.51,0.56-2.99,1.02-4.43
		C8.57,24.09,9.43,23.91,10.23,24.23z M28.5,11.32c-0.7,0.64-1.69,0.8-2.58,0.49c-0.75-0.26-1.4-0.84-1.69-1.58
		c-0.32-0.8-0.14-1.66,0.29-2.37c1.45-0.46,2.92-0.84,4.43-1.02c0.39,0.6,0.63,1.29,0.64,2.01C29.59,9.77,29.18,10.7,28.5,11.32z
		 M28.94,6.81c-0.06-0.09-0.13-0.16-0.19-0.25C28.81,6.65,28.89,6.73,28.94,6.81z M28.39,6.14c-0.1-0.05-0.32,0.01-0.43,0.03
		c-0.14,0.02-0.28,0.05-0.42,0.08c-0.6,0.12-1.19,0.26-1.78,0.42C24.6,7,23.47,7.4,22.35,7.84c-1.93,0.76-3.81,1.65-5.68,2.55
		c-0.95,0.46-1.9,0.92-2.85,1.38c-0.46,0.22-0.93,0.44-1.4,0.66c-0.21,0.47-0.43,0.93-0.66,1.4c-0.46,0.95-0.92,1.9-1.38,2.85
		c-0.9,1.87-1.79,3.74-2.55,5.68C7.4,23.47,7,24.6,6.68,25.76c-0.16,0.59-0.31,1.18-0.42,1.78c-0.03,0.14-0.05,0.28-0.08,0.42
		c-0.02,0.11-0.09,0.33-0.03,0.43c-0.32-0.31-0.6-0.64-0.83-1.02c1.28-3.97,3.08-7.75,4.93-11.48c0.62-1.26,1.25-2.51,1.87-3.76
		c1.25-0.62,2.51-1.25,3.76-1.87C19.61,8.4,23.4,6.6,27.36,5.32C27.74,5.54,28.08,5.83,28.39,6.14z"/>
	<path d="M28.39,5.11C28.42,5.13,28.41,5.12,28.39,5.11L28.39,5.11z"/>
	<path d="M35.19,1.35c2.07-0.24,4.18-0.32,6.25-0.08c1.96,0.23,3.97,0.75,5.66,1.79c0.8,0.49,1.53,1.09,2.11,1.83
		c0.56,0.7,0.97,1.52,1.24,2.37c-0.07-0.8-0.31-1.59-0.68-2.3c-0.89-1.72-2.51-2.94-4.26-3.71c-1.8-0.79-3.77-1.17-5.73-1.24
		c0.13,0,0.13,0-0.17-0.01c-1.33-0.03-0.77-0.02-0.25,0c-0.54-0.01-1.08,0-1.62,0.03c-4.01,0.22-8,1.4-11.54,3.27
		c0.93-0.27,1.86-0.53,2.8-0.77C31.05,2.02,33.1,1.59,35.19,1.35z"/>
	<path d="M56.99,9.05C56.7,9.38,57.29,8.72,56.99,9.05L56.99,9.05z"/>
	<path d="M5,28.25c0,0.01,0.01,0.02,0.03,0.04c0,0,0,0,0,0C5.02,28.27,5,28.26,5,28.25z"/>
	<path d="M5.03,28.29C5.03,28.29,5.03,28.29,5.03,28.29C5.21,28.52,5.1,28.37,5.03,28.29z"/>
	<path d="M4.9,49.22c-0.74-0.58-1.34-1.31-1.83-2.11c-1.04-1.69-1.56-3.7-1.79-5.66c-0.24-2.07-0.16-4.18,0.08-6.25
		c0.24-2.09,0.66-4.14,1.19-6.17c0.24-0.94,0.5-1.87,0.77-2.8c-1.87,3.55-3.05,7.53-3.27,11.54c-0.03,0.54-0.04,1.08-0.03,1.62
		c-0.01-0.52-0.03-1.08,0,0.25c0.01,0.3,0.01,0.3,0.01,0.17c0.07,1.96,0.44,3.93,1.24,5.73c0.77,1.75,1.99,3.37,3.71,4.26
		c0.71,0.37,1.5,0.61,2.3,0.68C6.42,50.19,5.6,49.78,4.9,49.22z"/>
	<path d="M9.05,56.99C8.72,57.29,9.38,56.7,9.05,56.99L9.05,56.99z"/>
</g>
</svg>
