<?xml version="1.0" encoding="utf-8"?>
<!-- Generator: Adobe Illustrator 23.0.3, SVG Export Plug-In . SVG Version: 6.00 Build 0)  -->
<svg version="1.1" id="Layer_1" xmlns="http://www.w3.org/2000/svg" xmlns:xlink="http://www.w3.org/1999/xlink" x="0px" y="0px"
	 viewBox="0 0 60.82 60.82" style="enable-background:new 0 0 60.82 60.82;" xml:space="preserve">
<g>
	<path d="M20.3,4.37c0.01,0,0.02-0.01,0.03-0.01c0,0,0,0,0.01,0C20.33,4.36,20.31,4.37,20.3,4.37z"/>
	<path d="M60.24,10.82c-0.56-1.2-1.49-2.18-2.65-2.82c-1.25-0.68-2.69-0.95-4.11-0.9c-0.66,0.03-1.32,0.12-1.96,0.3
		c-0.53,0.15-1.05,0.38-1.54,0.62c-1.31,0.63-2.53,1.45-3.7,2.32c-0.66,0.49-1.31,0.99-1.97,1.48c-0.17,0.03-0.34,0.07-0.51,0.11
		c-0.69,0.16-1.36,0.41-1.99,0.74c-0.47,0.25-0.88,0.56-1.28,0.9c-0.95,0.81-1.99,1.51-3.11,2.06c-1.28,0.64-2.64,1.1-4.05,1.3
		c-0.71,0.1-1.44,0.13-2.15,0.08c-0.72-0.06-1.48-0.17-2.15-0.44c-0.47-0.19-0.83-0.54-1.05-0.96c0.7,0.28,1.45,0.43,2.22,0.44
		c0.08,0,0.15,0,0.23,0c0.87,0.25,1.77,0.42,2.68,0.34c0.72-0.07,1.42-0.26,2.09-0.52c0.66-0.25,1.29-0.56,1.87-0.95
		c2.26-1.5,3.65-4.02,3.96-6.68c0.17-1.46,0.05-3-0.34-4.42c-0.36-1.29-1.05-2.58-2.22-3.31c-1.16-0.71-2.58-0.66-3.75-0.01
		c-1.13,0.63-2,1.78-2.17,3.08c-0.05,0.37-0.04,0.75,0.04,1.11c-0.07-1.33,0.63-2.6,1.71-3.35c1.13-0.79,2.67-1.02,3.83-0.17
		c1.11,0.81,1.62,2.21,1.86,3.51c0.07,0.4,0.13,0.82,0.16,1.23c-0.1-0.17-0.22-0.33-0.36-0.47c-0.23-0.24-0.51-0.4-0.82-0.53
		c-0.98-0.43-2.12-0.34-2.91,0.42c-0.33,0.32-0.58,0.74-0.66,1.2c-0.09,0.5,0.1,1.11,0.69,1.13c0.01,0,0.02,0,0.03,0
		c-0.74-0.26-0.45-1.1-0.07-1.55c0.41-0.49,1.04-0.79,1.68-0.75c0.65,0.04,1.35,0.37,1.71,0.93c0.36,0.58,0.46,1.31,0.49,1.98
		c0.01,0.36,0,0.73-0.03,1.09c-0.29,1.18-0.81,2.31-1.55,3.28c-0.79,1.04-1.82,1.88-2.99,2.46c-0.97,0.48-2.01,0.87-3.11,0.9
		c-0.33,0.01-0.66-0.01-0.99-0.05c0.87-0.18,1.69-0.59,2.22-1.31c0.4-0.53,0.72-1.26,0.42-1.91c-0.3-0.65-1.08-0.86-1.74-0.88
		c0.59,0.11,1.34,0.38,1.52,1.03c0.17,0.64-0.31,1.26-0.74,1.67c-0.14,0.14-0.34,0.26-0.51,0.35c-0.3,0.16-0.62,0.28-0.96,0.35
		c-0.7,0.14-1.44,0.1-2.13-0.06c-0.56-0.13-1.09-0.34-1.57-0.65c0.01-0.11,0.02-0.21,0.04-0.32c0.1-0.46,0.35-0.89,0.73-1.17
		c0.44-0.32,0.99-0.41,1.52-0.36c-0.17-0.04-0.27-0.05-0.29-0.05c-0.57-0.07-1.15,0.07-1.6,0.44c-0.38,0.31-0.62,0.76-0.73,1.24
		c-0.42-0.33-0.78-0.72-1.09-1.15c0.36-0.59,0.63-1.24,0.8-1.91c0.36-1.37,0.33-2.85-0.21-4.17c-0.15-0.36-0.33-0.7-0.54-1.03
		c0.87-1.02,2.18-1.67,3.54-1.36c0.33,0.08,0.65,0.2,0.95,0.37c0.28,0.15,0.52,0.3,0.74,0.53c0.46,0.5,0.75,1.18,0.74,1.86
		c0,0.42-0.12,0.87-0.4,1.19c-0.28,0.32-0.68,0.52-1.09,0.6c-0.37,0.07-0.81,0.06-1.12-0.19c-0.35-0.28-0.38-0.76-0.3-1.17
		c0,0.01-0.01,0.03-0.01,0.04c-0.1,0.3-0.14,0.63-0.02,0.93c0.11,0.3,0.36,0.51,0.65,0.62c0.63,0.24,1.4,0.09,1.95-0.27
		c1.21-0.79,1.14-2.54,0.48-3.66c-0.29-0.49-0.71-0.93-1.22-1.19c-1.2-0.73-2.64-0.84-3.92-0.26c-0.6,0.28-1.14,0.68-1.59,1.16
		c-0.42-0.44-0.9-0.82-1.45-1.09c-0.64-0.32-1.36-0.48-2.08-0.45c-0.7,0.04-1.37,0.27-1.96,0.63c-1.18,0.59-1.87,2.04-1.68,3.33
		c0.1,0.68,0.46,1.28,1.06,1.62c0.57,0.32,1.36,0.44,1.96,0.12c0.55-0.29,0.66-0.89,0.5-1.44c-0.01-0.02-0.01-0.05-0.03-0.08
		c0.06,0.32,0.06,0.68-0.12,0.97c-0.16,0.24-0.42,0.38-0.7,0.42c-0.61,0.09-1.33-0.17-1.72-0.65c-0.43-0.53-0.45-1.3-0.26-1.92
		c0.19-0.62,0.6-1.22,1.18-1.54c0.58-0.32,1.21-0.55,1.88-0.54c0.68,0.01,1.34,0.24,1.9,0.63c0.33,0.23,0.63,0.5,0.89,0.81
		c-0.18,0.28-0.34,0.57-0.48,0.88c-0.87,1.98-0.59,4.39,0.53,6.25c-0.31,0.43-0.67,0.82-1.09,1.14c-0.05-0.21-0.12-0.4-0.21-0.59
		c-0.2-0.39-0.52-0.71-0.91-0.9c-0.37-0.19-0.8-0.24-1.21-0.18c-0.03,0-0.12,0.01-0.28,0.05c0.66-0.07,1.33,0.1,1.79,0.6
		c0.31,0.34,0.48,0.79,0.51,1.25c-0.1,0.06-0.2,0.13-0.31,0.18c-0.82,0.45-1.8,0.64-2.73,0.6c-0.45-0.02-0.9-0.11-1.32-0.28
		c-0.2-0.09-0.39-0.19-0.57-0.32c-0.08-0.05-0.17-0.11-0.23-0.18c-0.43-0.41-0.9-1-0.75-1.64c0.15-0.67,0.93-0.95,1.53-1.07
		c-0.64,0.02-1.38,0.21-1.71,0.82c-0.33,0.61-0.07,1.32,0.29,1.84c0.54,0.78,1.39,1.24,2.3,1.43c-0.65,0.07-1.31,0.07-1.96-0.06
		c-0.7-0.14-1.37-0.41-2.01-0.72c-0.61-0.29-1.18-0.64-1.7-1.07c-1-0.81-1.8-1.85-2.35-3.01c-0.26-0.56-0.46-1.14-0.61-1.73
		c-0.04-0.49-0.05-0.98,0-1.47c0.06-0.65,0.21-1.38,0.68-1.86c0.22-0.24,0.54-0.39,0.84-0.5c0.33-0.12,0.67-0.18,1.02-0.13
		c0.56,0.07,1.07,0.4,1.4,0.85c0.17,0.24,0.31,0.53,0.31,0.83c0,0.3-0.2,0.51-0.47,0.61c0.02,0,0.03,0,0.04,0
		c0.31-0.01,0.56-0.21,0.65-0.51c0.1-0.32,0.04-0.68-0.08-0.99c-0.22-0.55-0.64-1-1.17-1.26c-0.63-0.32-1.37-0.32-2.03-0.09
		c-0.61,0.21-1.11,0.56-1.44,1.1c0.03-0.37,0.08-0.73,0.14-1.1c0.12-0.68,0.29-1.36,0.59-1.99c0.28-0.6,0.67-1.16,1.19-1.57
		c0.56-0.44,1.25-0.65,1.96-0.62c2.04,0.1,3.78,2.03,3.67,4.07c0.55-2.69-2.31-5.28-4.93-4.59c-1.34,0.35-2.3,1.49-2.83,2.72
		c-0.57,1.32-0.77,2.82-0.76,4.25c0.01,1.45,0.3,2.91,0.93,4.22c0.04,0.08,0.07,0.15,0.11,0.23c-0.08-0.04-0.15-0.08-0.23-0.11
		c-1.32-0.62-2.77-0.92-4.22-0.93c-1.43-0.01-2.93,0.19-4.25,0.76c-1.23,0.53-2.37,1.49-2.72,2.83c-0.69,2.62,1.9,5.48,4.59,4.93
		c-2.04,0.11-3.96-1.63-4.07-3.67c-0.04-0.71,0.17-1.4,0.62-1.96c0.41-0.52,0.98-0.91,1.57-1.19c0.63-0.3,1.31-0.47,1.99-0.59
		c0.36-0.06,0.73-0.11,1.1-0.14c-0.54,0.33-0.9,0.84-1.11,1.44c-0.23,0.66-0.22,1.4,0.09,2.03c0.26,0.52,0.72,0.95,1.26,1.17
		c0.31,0.12,0.66,0.18,0.98,0.08c0.3-0.09,0.5-0.35,0.51-0.66c0-0.01,0-0.03,0-0.04c-0.1,0.28-0.3,0.47-0.61,0.47
		c-0.3,0-0.59-0.14-0.83-0.31c-0.46-0.33-0.78-0.84-0.85-1.4c-0.04-0.35,0.01-0.7,0.13-1.02c0.11-0.3,0.27-0.62,0.5-0.84
		c0.49-0.46,1.22-0.61,1.86-0.68c0.49-0.05,0.98-0.04,1.47,0c0.59,0.14,1.18,0.34,1.73,0.61c1.17,0.55,2.2,1.35,3.01,2.35
		c0.43,0.52,0.78,1.1,1.07,1.7c0.31,0.64,0.58,1.31,0.72,2.01c0.14,0.66,0.13,1.31,0.06,1.96c-0.19-0.91-0.65-1.76-1.43-2.3
		c-0.53-0.36-1.24-0.62-1.84-0.29c-0.61,0.33-0.8,1.07-0.82,1.71c0.11-0.6,0.39-1.37,1.07-1.53c0.63-0.14,1.23,0.33,1.64,0.75
		c0.07,0.06,0.12,0.15,0.17,0.23c0.12,0.18,0.23,0.37,0.32,0.57c0.18,0.42,0.26,0.87,0.28,1.32c0.04,0.93-0.16,1.91-0.6,2.73
		c-0.06,0.11-0.12,0.21-0.19,0.31c-0.46-0.03-0.91-0.2-1.25-0.51c-0.5-0.46-0.67-1.13-0.6-1.79c-0.04,0.16-0.05,0.25-0.05,0.28
		c-0.05,0.41,0,0.84,0.18,1.21c0.19,0.39,0.52,0.71,0.9,0.91c0.19,0.1,0.39,0.17,0.59,0.21c-0.32,0.42-0.71,0.78-1.14,1.09
		c-1.85-1.12-4.27-1.4-6.24-0.53c-0.3,0.13-0.6,0.29-0.88,0.48c-0.31-0.26-0.58-0.56-0.81-0.89c-0.38-0.56-0.62-1.22-0.63-1.9
		c-0.01-0.67,0.22-1.3,0.54-1.88c0.32-0.58,0.92-0.99,1.54-1.18c0.63-0.19,1.4-0.17,1.92,0.26c0.48,0.39,0.74,1.11,0.65,1.72
		c-0.04,0.28-0.17,0.55-0.42,0.7c-0.28,0.18-0.65,0.18-0.97,0.12c0.03,0.01,0.06,0.02,0.08,0.03c0.55,0.16,1.15,0.06,1.44-0.5
		c0.31-0.6,0.2-1.38-0.12-1.96c-0.34-0.6-0.94-0.96-1.62-1.06c-1.29-0.19-2.74,0.5-3.33,1.68C4,20.92,3.77,21.59,3.73,22.29
		c-0.04,0.72,0.13,1.43,0.45,2.08c0.27,0.55,0.65,1.03,1.09,1.45c-0.48,0.45-0.88,0.99-1.16,1.59c-0.58,1.28-0.47,2.72,0.26,3.92
		c0.26,0.51,0.69,0.93,1.19,1.22c1.12,0.66,2.87,0.73,3.66-0.48c0.36-0.55,0.51-1.32,0.27-1.95c-0.11-0.29-0.32-0.54-0.62-0.65
		c-0.3-0.11-0.63-0.08-0.93,0.02c-0.01,0-0.02,0.01-0.04,0.01c0.41-0.07,0.89-0.05,1.17,0.3c0.25,0.31,0.26,0.75,0.19,1.12
		c-0.08,0.41-0.28,0.82-0.6,1.09c-0.32,0.28-0.77,0.4-1.19,0.4c-0.68,0-1.36-0.28-1.86-0.74c-0.23-0.22-0.38-0.46-0.53-0.74
		c-0.16-0.3-0.29-0.62-0.37-0.95c-0.31-1.35,0.33-2.67,1.36-3.54c0.33,0.21,0.67,0.39,1.03,0.54c1.32,0.54,2.8,0.56,4.17,0.21
		c0.67-0.17,1.32-0.44,1.91-0.8c0.43,0.3,0.83,0.67,1.15,1.09c-0.48,0.11-0.92,0.35-1.24,0.73c-0.38,0.45-0.51,1.03-0.44,1.6
		c0,0.02,0.01,0.11,0.05,0.29c-0.05-0.53,0.04-1.08,0.36-1.52c0.28-0.38,0.71-0.64,1.17-0.73c0.11-0.02,0.21-0.04,0.32-0.04
		c0.31,0.48,0.51,1.01,0.65,1.56c0.16,0.69,0.21,1.43,0.06,2.13c-0.07,0.33-0.18,0.66-0.35,0.96c-0.09,0.17-0.21,0.37-0.35,0.51
		c-0.42,0.43-1.03,0.92-1.67,0.74c-0.65-0.17-0.92-0.93-1.03-1.52c0.02,0.66,0.23,1.44,0.88,1.74c0.65,0.3,1.38-0.02,1.91-0.42
		c0.72-0.54,1.13-1.36,1.31-2.22c0.04,0.33,0.06,0.66,0.05,0.99c-0.03,1.1-0.41,2.14-0.9,3.11c-0.58,1.17-1.42,2.2-2.46,2.99
		c-0.97,0.74-2.1,1.26-3.28,1.55c-0.36,0.03-0.73,0.04-1.09,0.03c-0.67-0.03-1.4-0.13-1.98-0.49c-0.56-0.35-0.88-1.06-0.93-1.71
		c-0.04-0.65,0.25-1.27,0.75-1.68c0.45-0.38,1.29-0.67,1.55,0.07c0-0.01,0-0.02,0-0.03c-0.02-0.59-0.63-0.78-1.13-0.69
		c-0.46,0.08-0.88,0.33-1.2,0.67c-0.76,0.79-0.86,1.93-0.42,2.91c0.13,0.3,0.3,0.58,0.53,0.82c0.14,0.14,0.3,0.26,0.47,0.36
		c-0.41-0.03-0.82-0.09-1.23-0.16c-1.31-0.24-2.7-0.74-3.51-1.86c-0.85-1.17-0.62-2.7,0.17-3.83c0.75-1.08,2.02-1.77,3.35-1.71
		c-0.36-0.07-0.74-0.09-1.11-0.04c-1.3,0.17-2.45,1.03-3.08,2.17c-0.65,1.17-0.71,2.6,0.01,3.75c0.73,1.18,2.02,1.86,3.31,2.22
		c1.42,0.39,2.96,0.51,4.42,0.34c2.67-0.31,5.19-1.7,6.68-3.96c0.39-0.59,0.7-1.22,0.95-1.87c0.26-0.67,0.45-1.37,0.52-2.09
		c0.09-0.91-0.08-1.81-0.34-2.68c0-0.08,0-0.16,0-0.23c0-0.77-0.15-1.52-0.44-2.22c0.43,0.21,0.77,0.58,0.96,1.05
		c0.26,0.67,0.38,1.44,0.44,2.15c0.06,0.72,0.02,1.44-0.08,2.15c-0.2,1.42-0.66,2.78-1.3,4.05c-0.56,1.11-1.26,2.16-2.06,3.11
		c-0.34,0.4-0.65,0.81-0.9,1.28c-0.33,0.62-0.58,1.3-0.74,1.99c-0.04,0.17-0.08,0.34-0.11,0.51c-0.49,0.66-0.99,1.31-1.48,1.97
		c-0.87,1.17-1.69,2.38-2.32,3.7c-0.24,0.49-0.47,1.01-0.62,1.54c-0.18,0.64-0.28,1.29-0.3,1.95c-0.05,1.42,0.21,2.86,0.9,4.11
		c0.64,1.16,1.62,2.09,2.82,2.65c0.79,0.37,1.67,0.58,2.54,0.58h0c0.53,0,1.05-0.08,1.55-0.24c0.63-0.21,1.21-0.56,1.66-1.05
		c0.44-0.49,0.73-1.1,0.86-1.74c0.25-1.22,0.02-2.64-0.94-3.5c-1.02-0.92-2.5-0.94-3.7-0.4c0.45-0.13,0.92-0.2,1.39-0.18
		c0.67,0.02,1.33,0.24,1.84,0.69c0.49,0.43,0.78,1.04,0.88,1.68c0.18,1.25-0.26,2.63-1.34,3.33c-1.15,0.75-2.69,0.69-3.93,0.21
		c-1.23-0.47-2.24-1.37-2.86-2.53c-0.63-1.17-0.87-2.53-0.82-3.86c0.02-0.55,0.09-1.11,0.25-1.64c0.16-0.52,0.35-1.03,0.57-1.53
		c0.81-1.84,1.94-3.49,2.98-5.2c-0.12,1.07-0.02,2.18,0.43,3.16c0.57,1.22,1.82,2.16,3.2,2.19c1.37,0.03,2.48-1.03,2.77-2.33
		c0.14-0.64,0.09-1.37-0.34-1.89c-0.45-0.54-1.18-0.65-1.84-0.54c0.47-0.01,0.98,0.06,1.37,0.36c0.36,0.28,0.54,0.71,0.56,1.16
		c0.05,0.94-0.51,1.95-1.35,2.4c-1.2,0.65-2.72-0.1-3.39-1.17c-0.73-1.16-0.7-2.68-0.41-3.97c0.16-0.69,0.41-1.37,0.75-1.99
		c0.23-0.41,0.51-0.76,0.81-1.11c0.79-0.94,1.48-1.97,2.04-3.07c1.28-2.55,1.89-5.6,1.04-8.38c-0.2-0.66-0.46-1.29-1.01-1.72
		c-0.29-0.23-0.64-0.38-1-0.46c-0.21-0.39-0.47-0.75-0.77-1.08c-0.19-0.2-0.39-0.4-0.61-0.57c0.25-0.21,0.49-0.44,0.71-0.69
		c0.26-0.3,0.48-0.62,0.67-0.96c0.31-0.06,0.62-0.18,0.88-0.37c0.58-0.4,0.87-0.99,1.08-1.64c0.23-0.69,0.36-1.41,0.41-2.14
		c0.06-0.79,0.02-1.59-0.1-2.37c0.78,0.12,1.58,0.16,2.37,0.1c0.73-0.05,1.44-0.19,2.14-0.41c0.65-0.21,1.25-0.5,1.64-1.08
		c0.18-0.27,0.3-0.57,0.37-0.88c0.34-0.19,0.66-0.41,0.96-0.67c0.25-0.22,0.48-0.46,0.69-0.71c0.18,0.21,0.37,0.42,0.57,0.61
		c0.33,0.3,0.69,0.56,1.08,0.77c0.07,0.36,0.23,0.71,0.46,1c0.43,0.55,1.06,0.81,1.72,1.01c2.78,0.85,5.83,0.23,8.38-1.04
		c1.1-0.55,2.13-1.24,3.07-2.04c0.36-0.3,0.71-0.58,1.12-0.81c0.62-0.34,1.3-0.59,1.99-0.75c1.3-0.29,2.81-0.32,3.97,0.41
		c1.07,0.68,1.81,2.19,1.17,3.39c-0.45,0.83-1.45,1.39-2.4,1.35c-0.45-0.02-0.88-0.2-1.16-0.56c-0.3-0.39-0.37-0.89-0.36-1.37
		c-0.11,0.66,0,1.39,0.54,1.84c0.52,0.43,1.26,0.48,1.89,0.34c1.3-0.29,2.36-1.4,2.33-2.77c-0.03-1.37-0.97-2.63-2.19-3.2
		c-0.98-0.45-2.09-0.55-3.16-0.43c1.71-1.04,3.36-2.17,5.2-2.98c0.5-0.22,1.01-0.41,1.53-0.57c0.53-0.16,1.09-0.23,1.64-0.25
		c1.32-0.05,2.68,0.19,3.86,0.82c1.16,0.62,2.06,1.64,2.53,2.86c0.48,1.24,0.54,2.78-0.21,3.93c-0.71,1.08-2.09,1.52-3.33,1.34
		c-0.64-0.09-1.25-0.39-1.68-0.88c-0.44-0.51-0.66-1.17-0.69-1.84c-0.02-0.47,0.05-0.94,0.18-1.39c-0.55,1.2-0.52,2.69,0.4,3.7
		c0.87,0.96,2.28,1.19,3.5,0.94c0.64-0.13,1.25-0.42,1.74-0.86c0.5-0.45,0.85-1.03,1.05-1.66c0.17-0.5,0.24-1.03,0.24-1.55v0
		C60.82,12.49,60.61,11.61,60.24,10.82z M8.39,26.3c-0.48-0.09-0.94-0.26-1.38-0.48c0.78-0.4,1.65-0.6,2.54-0.59
		c0.9,0.01,1.8,0.22,2.63,0.59C10.99,26.36,9.63,26.54,8.39,26.3z M22.86,16.45c-0.3,0.18-0.65,0.26-0.99,0.35
		c-0.36,0.09-0.73,0.15-1.1,0.2c-1.4,0.16-2.82,0-4.17-0.39c0.39,1.36,0.56,2.77,0.39,4.17c-0.04,0.37-0.11,0.74-0.2,1.1
		c-0.08,0.34-0.17,0.69-0.35,0.99c-0.19,0.33-0.48,0.6-0.82,0.77c0.31-0.75,0.46-1.58,0.43-2.4c0-0.02,0-0.04,0-0.05
		c0.15-0.53,0.28-1.07,0.33-1.63c0.07-0.73-0.01-1.45-0.19-2.16c-0.17-0.65-0.41-1.3-0.71-1.91c0.61,0.3,1.25,0.54,1.91,0.71
		c0.71,0.18,1.43,0.27,2.16,0.19c0.55-0.05,1.09-0.18,1.63-0.33c0.02,0,0.04,0,0.05,0c0.83,0.02,1.65-0.12,2.4-0.43
		C23.46,15.97,23.19,16.26,22.86,16.45z M25.82,12.18c-0.37-0.82-0.58-1.73-0.59-2.63c-0.01-0.89,0.19-1.76,0.59-2.54
		c0.23,0.44,0.39,0.9,0.48,1.38C26.54,9.63,26.36,10.99,25.82,12.18z"/>
	<path d="M4.35,20.34C4.36,20.33,4.36,20.33,4.35,20.34c0.01-0.01,0.01-0.02,0.02-0.03C4.37,20.31,4.36,20.32,4.35,20.34z"/>
</g>
</svg>
