<?xml version="1.0" encoding="utf-8"?>
<!-- Generator: Adobe Illustrator 23.0.3, SVG Export Plug-In . SVG Version: 6.00 Build 0)  -->
<svg version="1.1" id="Layer_1" xmlns="http://www.w3.org/2000/svg" xmlns:xlink="http://www.w3.org/1999/xlink" x="0px" y="0px"
	 viewBox="0 0 64.96 64.96" style="enable-background:new 0 0 64.96 64.96;" xml:space="preserve">
<g>
	<path d="M54.36,10.2c2.05,0.43,4.09,0.51,5.97-0.39c3.07-1.47,2.44-5.06,0.04-5.55c-0.78-0.16-1.56-0.29-2.34-0.02
		c0.81-0.19,1.61-0.05,2.4,0.19c1.01,0.34,1.78,1.3,1.56,2.39c-0.19,0.94-0.78,1.71-1.64,2.11c-1.65,0.77-3.43,0.17-5.01-0.44
		c-3.71-1.42-7.17-3.04-11.19-3.78c-2.69-0.49-5.25-0.46-7.92,0.17c0,0,0,0.01,0,0.01c2.09,0.01,4.79,0.71,6.21,1.18
		C46.49,7.41,50.06,9.31,54.36,10.2z"/>
	<path d="M62.51,1.28c-3.58-2.59-7.75-0.77-8.84,1.13c0,0.01-0.01,0.01-0.01,0.02c-0.45,0.8-0.43,1.68,0.1,2.13
		c0.63,0.53,1.75,0.25,2.49-0.63c0.24-0.28,0.41-0.59,0.51-0.9c0,0,0,0,0,0c0.04-0.12,0.07-0.25,0.09-0.37
		c0.48-1.8,1.49-2.72,4.16-1.87c1.65,0.52,2.93,2,3.42,4.12c0.58,2.49-1,4.8-3.17,5.82c-2.8,1.31-5.61,0.64-7.93,0.07
		c-2.79-0.68-10.81-4.19-15.17-5.19C34.12,4.67,29.39,4.3,26.5,7.8c-0.36,0.42-0.64,0.88-0.84,1.36c-0.07,0.16-0.13,0.32-0.16,0.48
		c0,0,0,0,0,0c-0.15,0.69,0.08,1.36,0.61,1.61c0.65,0.31,1.5-0.13,1.9-0.98c0.02-0.05,0.04-0.09,0.06-0.14c0,0,0,0,0,0
		c0.08-0.2,0.13-0.41,0.14-0.6c0.27-1.44,0.03-2.59,1.15-3.08c0.2-0.07,0.4-0.13,0.6-0.17l0.01,0c2.95-0.7,6.04,0.67,8.8,1.77
		c4.42,1.77,11.41,4.95,17.59,4.81c3.32-0.08,5.98-1.24,7.45-3.3C65.74,6.84,65.18,3.21,62.51,1.28z"/>
	<path d="M7.76,6.07c1.42-0.47,4.14-1.18,6.23-1.18c0,0,0,0,0,0c-2.68-0.63-5.25-0.67-7.95-0.17C5.67,4.78,5.3,4.86,4.94,4.94
		l1.57,1.57C6.92,6.36,7.34,6.21,7.76,6.07z"/>
	<path d="M7.13,7.13l1.89,1.89c0.87-0.35,1.68-0.69,2.42-0.98c2.76-1.1,5.84-2.47,8.8-1.77l0.01,0c0.2,0.05,0.4,0.11,0.6,0.17
		c1.12,0.49,0.88,1.64,1.15,3.08c0.02,0.2,0.06,0.4,0.14,0.6l0,0h0c0.02,0.05,0.04,0.09,0.06,0.14c0.4,0.85,1.26,1.29,1.9,0.98
		c0.52-0.25,0.75-0.91,0.61-1.61h0c0,0,0,0,0,0c-0.03-0.16-0.09-0.32-0.16-0.48c-0.19-0.48-0.48-0.94-0.84-1.36
		c-2.89-3.5-7.62-3.13-11.66-2.19C10.69,5.92,8.95,6.48,7.13,7.13z"/>
	<path d="M4.26,60.38c0.49,2.4,4.08,3.03,5.56-0.04c0.9-1.88,0.81-3.92,0.39-5.97c-0.89-4.3-2.8-7.87-4.14-11.91
		c-0.47-1.42-1.17-4.12-1.18-6.21c0,0-0.01,0-0.01,0c-0.62,2.67-0.66,5.23-0.17,7.92c0.74,4.02,2.35,7.48,3.78,11.19
		c0.61,1.58,1.21,3.36,0.44,5.01c-0.4,0.86-1.17,1.45-2.11,1.64c-1.09,0.22-2.05-0.55-2.39-1.56c-0.24-0.79-0.38-1.59-0.19-2.4
		C3.97,58.81,4.1,59.6,4.26,60.38z"/>
	<path d="M6.26,29.98l0-0.01c0.05-0.2,0.11-0.4,0.17-0.6c0.49-1.12,1.64-0.88,3.08-1.15c0.2-0.02,0.4-0.06,0.6-0.14c0,0,0,0,0,0
		c0.05-0.02,0.09-0.04,0.14-0.06c0.85-0.4,1.29-1.26,0.98-1.9c-0.25-0.52-0.91-0.75-1.61-0.61c0,0,0,0,0,0
		c-0.16,0.03-0.32,0.09-0.48,0.16c-0.48,0.19-0.94,0.48-1.36,0.84c-3.5,2.89-3.13,7.62-2.19,11.65c1.01,4.36,4.51,12.38,5.19,15.17
		c0.57,2.33,1.24,5.14-0.07,7.93c-1.02,2.17-3.32,3.75-5.82,3.17c-2.11-0.49-3.59-1.77-4.12-3.42c-0.85-2.67,0.07-3.68,1.87-4.16
		c0.12-0.02,0.25-0.05,0.37-0.09c0,0,0,0,0,0c0.31-0.1,0.61-0.27,0.9-0.51c0.88-0.74,1.17-1.86,0.63-2.49
		c-0.45-0.53-1.34-0.55-2.13-0.1c-0.01,0-0.01,0-0.02,0.01c-1.9,1.09-3.72,5.26-1.13,8.84c1.93,2.67,5.56,3.23,8.26,1.31
		c2.06-1.47,3.22-4.13,3.3-7.45c0.14-6.18-3.04-13.18-4.81-17.59C6.93,36.02,5.57,32.93,6.26,29.98z"/>
	<path d="M4.89,13.99c0-2.1,0.71-4.81,1.18-6.23c0.14-0.42,0.29-0.84,0.44-1.25L4.94,4.94C4.86,5.3,4.78,5.67,4.71,6.05
		C4.22,8.75,4.25,11.31,4.89,13.99C4.88,13.99,4.89,13.99,4.89,13.99z"/>
	<path d="M7.8,23.71c0.42,0.36,0.88,0.64,1.36,0.84c0.16,0.08,0.32,0.13,0.48,0.16c0,0,0,0,0,0v0c0.69,0.15,1.36-0.08,1.61-0.61
		c0.31-0.65-0.13-1.5-0.98-1.9c-0.05-0.02-0.09-0.04-0.14-0.06v0c0,0,0,0,0,0c-0.2-0.08-0.4-0.13-0.6-0.14
		c-1.44-0.27-2.59-0.03-3.08-1.15c-0.07-0.2-0.13-0.4-0.17-0.6l0-0.01c-0.7-2.95,0.67-6.04,1.77-8.8c0.3-0.74,0.63-1.55,0.98-2.42
		L7.13,7.13c-0.65,1.82-1.21,3.56-1.53,4.93C4.67,16.09,4.3,20.83,7.8,23.71z"/>
	<polygon points="13.44,63.31 14.9,63.31 14.9,14.9 63.31,14.9 63.31,13.44 13.44,13.44 	"/>
	<polygon points="16.19,63.31 17.65,63.31 17.65,17.65 63.31,17.65 63.31,16.19 16.19,16.19 	"/>
</g>
</svg>
