<?xml version="1.0" encoding="utf-8"?>
<!-- Generator: Adobe Illustrator 23.0.3, SVG Export Plug-In . SVG Version: 6.00 Build 0)  -->
<svg version="1.1" id="Layer_1" xmlns="http://www.w3.org/2000/svg" xmlns:xlink="http://www.w3.org/1999/xlink" x="0px" y="0px"
	 viewBox="0 0 73.41 72.63" style="enable-background:new 0 0 73.41 72.63;" xml:space="preserve">
<path d="M72.77,10.84H47.15c-0.11,0-0.29-0.02-0.41-0.03c-0.34-0.04-0.7,0.02-1.04,0.19c-0.9,0.46-1.25,1.55-0.8,2.45
	c0.1,0.19,0.22,0.35,0.37,0.49c0.08,0.08,0.07,0.14-0.05,0.14c-0.96,0-1.98-0.86-2.16-1.98c-0.04-0.28-0.02-0.57,0.07-0.85
	c0.03-0.11,0.08-0.1,0.11,0.01c0.1,0.4,0.3,0.84,0.65,1.33c0.07,0.09,0.16,0.08,0.2-0.02c1-2.21,2.4-2.65,4.24-2.79
	c0.11-0.01,0.18-0.1,0.25-0.19c0.13-0.18,0.43-0.45,0.69-0.67c0.08-0.07,0.25-0.14,0.36-0.14c0.91-0.03,1.52-0.06,2.29-0.18
	c0.56-0.09,0.95-0.22,1.19-0.38c0.09-0.06,0.25-0.13,0.36-0.13h19.29c0.86,0,0.86-1.33,0-1.33h-19.7c-0.11,0-0.22,0-0.25,0
	c-0.02,0-0.03,0-0.05,0H34c-0.11,0-0.3-0.01-0.41-0.03c-0.55-0.09-1.15-0.26-1.8-0.52c-0.77-0.32-1.32-0.78-1.67-1.31
	c-0.06-0.09-0.01-0.17,0.1-0.17h2.33c0.02,0,0.03,0,0.04,0c0.22-0.01,0.46-0.06,0.69-0.19c1.22-0.61,1.67-2.9,0.22-3.91
	c-1.27-0.89-3.14-0.98-4.5,1.01c-0.36,0.53-0.57,1.06-0.67,1.57c-0.02,0.11-0.12,0.2-0.24,0.2H27.1c-0.14,0-0.26,0.04-0.35,0.09
	c-0.1,0.06-0.23,0.19-0.29,0.29c-0.06,0.09-0.09,0.21-0.09,0.35v2.43c0,0.11-0.09,0.2-0.2,0.2H7.49c-0.14,0-0.26,0.04-0.35,0.1
	c-0.1,0.06-0.23,0.19-0.29,0.29c-0.06,0.09-0.1,0.21-0.1,0.36v18.68c0,0.11-0.09,0.2-0.2,0.2H4.11c-0.14,0-0.26,0.04-0.35,0.09
	c-0.1,0.06-0.23,0.19-0.29,0.29c-0.06,0.09-0.1,0.21-0.1,0.35v1.01c0,0.11-0.09,0.22-0.2,0.24c-0.51,0.09-1.03,0.3-1.57,0.67
	c-1.99,1.36-1.9,3.23-1.01,4.5c1.01,1.44,3.3,0.99,3.91-0.22c0.12-0.24,0.18-0.47,0.19-0.69c0-0.01,0-0.03,0-0.04v-2.33
	c0-0.11,0.08-0.16,0.17-0.1c0.53,0.35,1,0.9,1.31,1.67c0.27,0.65,0.43,1.25,0.52,1.8c0.02,0.11,0.03,0.29,0.03,0.41l0.03,38
	c0,0.86,1.33,0.86,1.33,0V53.45c0-0.11,0.06-0.27,0.12-0.37c0.15-0.24,0.27-0.61,0.36-1.15c0.12-0.77,0.15-1.38,0.18-2.29
	c0-0.11,0.07-0.27,0.14-0.36c0.23-0.26,0.5-0.55,0.67-0.69c0.09-0.07,0.18-0.14,0.19-0.25c0.14-1.85,0.58-3.25,2.79-4.24
	c0.1-0.05,0.12-0.14,0.02-0.2c-0.49-0.35-0.94-0.55-1.33-0.65c-0.11-0.03-0.12-0.08-0.01-0.11c0.28-0.08,0.57-0.11,0.85-0.07
	c1.12,0.18,1.98,1.19,1.98,2.16c0,0.11-0.07,0.13-0.14,0.05c-0.14-0.15-0.3-0.27-0.49-0.37c-0.9-0.46-1.99-0.1-2.45,0.8
	c-0.16,0.31-0.22,0.64-0.19,0.96v25.19c0,0.86,1.33,0.86,1.33,0V48.49c0-0.11,0.09-0.18,0.2-0.16c0.12,0.02,0.24,0.02,0.35,0.02
	c0.11,0,0.29-0.02,0.41-0.03c1.43-0.14,2.93-1.99,1.85-4.19c-1.2-2.45-3.2-2.16-3.95-1.86c-0.75,0.3-2.7,1.02-2.77,3.37
	c-0.02,0.61-0.06,1.15-0.11,1.63c-0.01,0.11-0.02,0.11-0.02,0v-2.25c0-0.11,0.02-0.29,0.05-0.4c0.04-0.17,0.1-0.33,0.18-0.48
	c0.9-1.77,3.33-2.43,3.89-2.46c0.57-0.03,2.49,0.3,3.24,2.7c0.7,2.24-0.6,2.94-0.43,3.81c0.02,0.11,0.11,0.27,0.16,0.37l0.18,0.31
	c0.06,0.1,0.18,0.13,0.27,0.07c0.54-0.37,2.16-1.61,1.93-3.24c-0.17-1.18-0.34-1.7-0.45-1.92c-0.05-0.1-0.03-0.17,0.09-0.17
	c0.31-0.02,0.88-0.08,0.85-0.3c-0.05-0.43-1.25-2.29-2.39-2.75c-1.03-0.42-2.42-0.23-3.05,0.08c-0.1,0.05-0.14,0.02-0.1-0.09
	c0.12-0.38,0.07-0.68,0.01-0.85c-0.04-0.11-0.18-0.21-0.29-0.23c-0.12-0.02-0.3-0.05-0.51-0.06c-0.11-0.01-0.12-0.04-0.01-0.07
	c0.86-0.24,1.85-0.21,3.06,0.2c0.11,0.04,0.18-0.02,0.15-0.13c-0.46-2.17-1.74-2.51-2.76-2.19c-0.11,0.03-0.12,0.01-0.02-0.05
	c0.26-0.17,0.55-0.29,0.87-0.32c2.52-0.3,3.68,0.44,4.05,0.77c0.09,0.07,0.15,0.05,0.15-0.06c0-0.51-0.14-1.83-1.39-2.51
	c-0.1-0.05-0.09-0.1,0.02-0.11c1.14-0.13,1.57-0.38,1.75-0.98c0.17-0.55,0.96-1.11,1.46-1.22c0.11-0.02,0.15-0.09,0.08-0.18
	c-0.79-0.96-2.52-1.8-4.49-0.58c-0.1,0.06-0.14,0.03-0.1-0.08c0.25-0.61,0.66-1.46,0.16-2.37c-0.05-0.1-0.13-0.08-0.18,0.02
	c-0.33,0.68-1.17,0.25-1.54,1.16c-0.52,1.28-0.93,1.66-2.26,2.45c-0.1,0.06-0.16,0.01-0.14-0.1c0.12-0.57,0.49-1.79,1.58-2.5
	c1.01-0.66,1.68-0.94,1.99-1.06c0.11-0.04,0.24-0.14,0.31-0.23c0.44-0.63,2.24-2.79,6.27-3.4c2.34-0.35,4.04,0.7,4.69,2.25
	c0.67,1.59,0.26,3.7-1.45,4.28c-0.8,0.27-1.61,0.26-2.26-0.32c-0.45-0.4-0.52-0.96-0.52-1.26c0-0.11,0.07-0.13,0.14-0.05
	c0.32,0.35,1.16,1.12,2.07,0.62c0.94-0.52,1.19-1.56,0.41-2.66c-0.67-0.94-2.66-1.39-3.67,0.2c-1.01,1.6,0.07,4.65,2.5,4.84
	c2.14,0.16,4.43-1.06,4.64-4.41c0.05-0.86-0.06-1.61-0.28-2.27c-0.04-0.11,0.01-0.16,0.12-0.12c0.66,0.23,1.41,0.34,2.27,0.28
	c3.34-0.21,4.57-2.5,4.41-4.64c-0.18-2.43-3.24-3.51-4.84-2.5c-1.6,1.01-1.15,3.01-0.21,3.67c1.1,0.78,2.14,0.53,2.66-0.41
	c0.51-0.91-0.27-1.75-0.62-2.07c-0.08-0.08-0.07-0.14,0.05-0.14c0.3,0,0.86,0.07,1.26,0.52c0.58,0.65,0.58,1.46,0.32,2.26
	c-0.57,1.71-2.69,2.13-4.28,1.46c-1.56-0.66-2.6-2.35-2.25-4.69c0.6-4.03,2.77-5.83,3.4-6.27c0.09-0.07,0.19-0.2,0.23-0.31
	c0.11-0.31,0.4-0.97,1.06-1.99c0.71-1.08,1.93-1.46,2.5-1.58c0.11-0.02,0.15,0.04,0.1,0.14c-0.79,1.33-1.17,1.74-2.45,2.26
	c-0.91,0.37-0.48,1.21-1.16,1.54c-0.1,0.05-0.12,0.12-0.02,0.18c0.91,0.5,1.76,0.09,2.37-0.16c0.1-0.04,0.14,0,0.08,0.1
	c-1.22,1.97-0.38,3.7,0.58,4.49c0.09,0.07,0.16,0.03,0.18-0.08c0.11-0.5,0.67-1.29,1.22-1.46c0.6-0.18,0.86-0.61,0.98-1.75
	c0.01-0.11,0.06-0.12,0.11-0.02c0.68,1.25,2,1.38,2.51,1.39c0.11,0,0.13-0.07,0.06-0.15c-0.33-0.38-1.07-1.53-0.77-4.05
	c0.04-0.32,0.16-0.6,0.32-0.87c0.06-0.1,0.08-0.08,0.05,0.02c-0.32,1.03,0.03,2.3,2.19,2.76c0.11,0.02,0.17-0.05,0.13-0.15
	c-0.41-1.21-0.44-2.2-0.2-3.06c0.03-0.11,0.06-0.1,0.07,0.01c0.01,0.21,0.03,0.38,0.06,0.51c0.02,0.11,0.12,0.25,0.23,0.29
	c0.18,0.06,0.47,0.11,0.85-0.01c0.11-0.03,0.14,0,0.09,0.1c-0.31,0.63-0.49,2.03-0.08,3.05c0.46,1.14,2.32,2.33,2.75,2.39
	c0.22,0.03,0.28-0.54,0.3-0.85c0.01-0.11,0.07-0.14,0.17-0.09c0.22,0.11,0.74,0.28,1.92,0.45c1.63,0.23,2.87-1.39,3.24-1.93
	c0.06-0.09,0.03-0.22-0.07-0.27l-0.31-0.18c-0.1-0.06-0.26-0.14-0.37-0.16c-0.88-0.17-1.58,1.12-3.81,0.43
	c-2.4-0.75-2.73-2.67-2.7-3.24c0.03-0.57,0.69-2.99,2.46-3.89c0.16-0.08,0.32-0.14,0.49-0.18c0.11-0.03,0.29-0.05,0.4-0.05h2.25
	c0.11,0,0.11,0.01,0,0.02c-0.49,0.05-1.02,0.09-1.64,0.11c-2.36,0.07-3.07,2.02-3.37,2.77c-0.3,0.75-0.59,2.75,1.86,3.95
	c2.2,1.08,4.06-0.42,4.19-1.85c0.01-0.11,0.02-0.29,0.03-0.41c0-0.1,0-0.21-0.01-0.31c-0.01-0.11,0.05-0.2,0.17-0.2h24.26
	C73.63,12.17,73.63,10.84,72.77,10.84z M3.38,30.74c0,0.11-0.02,0.2-0.05,0.2c-0.02,0-0.03,0-0.05-0.01
	c-0.97-0.08-1.52,0.45-1.49,1.23c0.02,0.71,0.73,0.96,1.09,1.05c0.11,0.03,0.13,0.09,0.03,0.15c-0.2,0.11-0.54,0.23-0.92,0.11
	c-0.6-0.19-0.9-0.7-1.03-1.29c-0.28-1.27,0.87-2.31,2.1-2.47c0.05-0.01,0.1-0.01,0.16-0.02c0.09-0.01,0.16,0.09,0.16,0.2V30.74z
	 M6.62,30.69c-0.57-0.68-1.24-1.11-1.73-1.41c-0.1-0.06-0.09-0.07,0.01-0.03c0.68,0.3,1.24,0.67,1.7,1.14
	c0.08,0.08,0.14,0.22,0.14,0.31C6.75,30.78,6.69,30.77,6.62,30.69z M6.75,29.26c0,0.11-0.07,0.14-0.16,0.07
	c-0.46-0.37-1.04-0.71-1.69-0.89c-0.11-0.03-0.2-0.14-0.2-0.26V27.9c0-0.11,0.09-0.2,0.2-0.2h1.64c0.11,0,0.2,0.09,0.2,0.2V29.26z
	 M8.92,46.88c0.03-0.38,0.11-0.89,0.25-1.37c0.08-0.24,0.19-0.49,0.33-0.7c0.62-0.93,1.38-0.99,1.73-0.96
	c0.11,0.01,0.11,0.04,0,0.06c-0.28,0.06-0.81,0.25-1.29,0.91c-0.58,0.79-0.55,1.56-0.6,2.06c-0.02,0.24-0.15,1.22-0.48,2.1
	c-0.04,0.11-0.07,0.1-0.07-0.01C8.82,48.4,8.85,47.73,8.92,46.88z M15.84,47.83c-0.06,0.1-0.1,0.08-0.08-0.03
	c0.03-0.19,0.09-0.51,0.17-0.88c0.14-0.62,0.46-1.03,0.43-1.68c-0.03-0.55-0.17-1.33-0.31-1.65c-0.16-0.37-0.37-0.65-0.5-0.81
	c-0.07-0.09-0.06-0.1,0.02-0.03c0.35,0.3,1.14,1.1,1.17,2.26C16.78,46.19,16.11,47.39,15.84,47.83z M13.51,41.06
	c0.35-0.09,1.14-0.22,1.99,0.15c0.64,0.28,1.17,0.95,1.4,1.26c0.07,0.09,0.05,0.11-0.04,0.04c-0.33-0.26-1.09-0.85-1.6-1.04
	c-0.51-0.19-1.35-0.29-1.74-0.33C13.41,41.13,13.41,41.09,13.51,41.06z M29.7,3.06c0.17-1.23,1.2-2.38,2.47-2.1
	c0.59,0.13,1.1,0.43,1.29,1.03c0.12,0.38,0,0.72-0.11,0.92c-0.05,0.1-0.12,0.08-0.15-0.03c-0.08-0.36-0.34-1.07-1.05-1.09
	c-0.78-0.03-1.31,0.52-1.23,1.49c0,0.02,0,0.03,0.01,0.05c0,0.03-0.08,0.05-0.2,0.05h-0.86c-0.11,0-0.2-0.07-0.2-0.16
	C29.69,3.17,29.69,3.12,29.7,3.06z M29.27,4.9c0.3,0.49,0.73,1.15,1.41,1.73c0.09,0.07,0.09,0.13,0,0.13s-0.23-0.06-0.31-0.14
	c-0.47-0.46-0.84-1.02-1.14-1.7C29.2,4.81,29.21,4.8,29.27,4.9z M27.7,4.91c0-0.11,0.09-0.2,0.2-0.2h0.28c0.11,0,0.23,0.09,0.26,0.2
	c0.19,0.65,0.53,1.23,0.89,1.69c0.07,0.09,0.04,0.16-0.07,0.16H27.9c-0.11,0-0.2-0.09-0.2-0.2V4.91z M10.22,8.28
	c0-0.11,0.09-0.2,0.2-0.2h15.74c0.11,0,0.2,0.09,0.2,0.2v0.41c0,0.11-0.09,0.2-0.2,0.2H10.43c-0.11,0-0.2-0.09-0.2-0.2V8.28z
	 M8.08,8.28c0-0.11,0.09-0.2,0.2-0.2h0.41c0.11,0,0.2,0.09,0.2,0.2v0.41c0,0.11-0.09,0.2-0.2,0.2H8.28c-0.11,0-0.2-0.09-0.2-0.2
	V8.28z M8.08,10.43c0-0.11,0.09-0.2,0.2-0.2h0.41c0.11,0,0.2,0.09,0.2,0.2v15.74c0,0.11-0.09,0.2-0.2,0.2H8.28
	c-0.11,0-0.2-0.09-0.2-0.2V10.43z M11.5,40.31c-0.37,0.12-1.21,0.42-1.78,0.93c-0.65,0.57-1.06,1.22-1.54,2.16
	c-0.05,0.1-0.07,0.09-0.04-0.02c0.11-0.42,0.2-0.68,0.2-0.68s0.13-0.35,0.39-0.87c0.05-0.1,0.14-0.26,0.21-0.35
	c0.11-0.15,0.23-0.31,0.37-0.45c0.73-0.75,1.77-0.8,2.21-0.79C11.6,40.24,11.61,40.28,11.5,40.31z M13.92,38.48
	c0.09,0.07,0.09,0.07-0.01,0.01c-0.25-0.15-0.76-0.35-1.55-0.19c-0.96,0.19-1.46,0.77-1.83,1.11c-0.03,0.02-0.05,0.05-0.08,0.08
	c-0.04,0.04-0.16,0.1-0.26,0.14c-0.1,0.04-0.16,0.05-0.14,0.02c0.01-0.02,0.03-0.04,0.04-0.06c0.16-0.2,0.31-0.42,0.47-0.64
	c0.07-0.09,0.18-0.23,0.27-0.31c0.25-0.23,0.58-0.46,1.03-0.7C12.59,37.55,13.54,38.19,13.92,38.48z M16.17,36.33
	c0.1,0.06,0.09,0.07-0.01,0.02c-0.54-0.26-2.2-0.94-3.62-0.21c-2.06,1-3.51,3.36-3.89,4.03c-0.06,0.1-0.06,0.1-0.01-0.01
	c1.07-2.23,2.05-3.69,3.79-4.47C13.92,35.03,15.64,35.99,16.17,36.33z M17.67,32.5c0.11,0,0.11,0.03,0,0.05
	c-0.66,0.13-2.84,0.62-4.93,1.89c-2.04,1.24-3.19,2.79-3.53,3.31c-0.06,0.09-0.08,0.09-0.03-0.01c0.3-0.63,1.41-2.73,3.73-3.93
	C15.3,32.55,17.09,32.48,17.67,32.5z M11.79,33.1c1.39-0.89,2.12-2.13,2.36-2.6c0.05-0.1,0.08-0.09,0.06,0.02
	c-0.09,0.51-0.47,1.85-1.91,2.77c-1.24,0.79-2.21,1.26-2.78,1.71c-0.09,0.07-0.1,0.06-0.03-0.02C9.77,34.68,10.48,33.94,11.79,33.1z
	 M24.71,25.69c-0.28-0.1-0.63-0.16-0.95-0.3c-1.37-0.57-3.27-1.14-5.76-0.16c-1.15,0.45-2.87,1.42-4.32,2.69
	c-1.46,1.27-2.67,2.6-3.07,3.05c-0.08,0.08-0.1,0.07-0.06-0.04c0.08-0.17,0.22-0.45,0.44-0.74c0.53-0.72,1.44-1.7,2.53-2.71
	c1.43-1.33,3.38-2.46,4.52-2.82c2.65-0.85,4.68-0.49,6.69,0.99C24.83,25.71,24.82,25.72,24.71,25.69z M30.96,10.61
	c-0.44,0.4-1.77,1.61-3.05,3.07c-1.27,1.45-2.23,3.17-2.68,4.32c-0.98,2.49-0.41,4.39,0.16,5.76c0.14,0.33,0.2,0.68,0.3,0.95
	c0.04,0.11,0.02,0.12-0.04,0.02c-1.48-2.02-1.84-4.04-0.99-6.69c0.36-1.14,1.49-3.09,2.82-4.52c1.01-1.09,1.99-2,2.71-2.53
	c0.3-0.22,0.57-0.36,0.74-0.44C31.03,10.51,31.04,10.54,30.96,10.61z M32.05,8.8c-1.28,0.59-2.61,1.37-4,2.42
	c-4.73,3.59-5.15,9.25-4.67,11.25c0.09,0.37,0.21,0.77,0.39,1.18c0.04,0.1,0,0.15-0.11,0.1c-0.41-0.17-0.81-0.3-1.18-0.39
	c-2-0.47-7.66-0.06-11.25,4.67c-1.05,1.39-1.84,2.72-2.42,4c-0.05,0.1-0.12,0.1-0.17,0c-0.14-0.29-0.29-0.56-0.44-0.8
	c-0.06-0.1-0.11-0.27-0.11-0.38V27.9c0-0.11,0.09-0.2,0.2-0.2h1.28c0.26,0,0.45-0.13,0.55-0.3c0.06-0.1,0.1-0.24,0.11-0.31
	c0.01-0.04,0.01-0.08,0.01-0.12V10.43c0-0.11,0.09-0.2,0.2-0.2h16.54c0.04,0,0.08,0,0.12-0.01c0.07-0.01,0.21-0.05,0.31-0.11
	c0.17-0.1,0.3-0.28,0.3-0.55V8.28c0-0.11,0.09-0.2,0.2-0.2h2.96c0.11,0,0.28,0.05,0.38,0.11c0.25,0.15,0.52,0.3,0.8,0.44
	C32.15,8.67,32.15,8.75,32.05,8.8z M42.77,15.56c0.16,0.13,0.44,0.34,0.81,0.5c0.32,0.14,1.1,0.28,1.65,0.31
	c0.65,0.03,1.07-0.29,1.69-0.43c0.37-0.08,0.69-0.14,0.88-0.17c0.11-0.02,0.13,0.02,0.03,0.08c-0.44,0.27-1.63,0.93-2.82,0.9
	c-1.16-0.03-1.97-0.82-2.26-1.17C42.67,15.5,42.68,15.49,42.77,15.56z M30.53,14.2c-0.11,0.02-0.12-0.01-0.02-0.06
	c0.46-0.24,1.71-0.96,2.6-2.36c0.84-1.31,1.57-2.02,1.88-2.3c0.09-0.07,0.1-0.06,0.02,0.03c-0.45,0.57-0.92,1.54-1.71,2.78
	C32.37,13.74,31.03,14.11,30.53,14.2z M34.43,12.74c-1.27,2.09-1.76,4.27-1.88,4.93c-0.02,0.11-0.05,0.11-0.05,0
	c-0.02-0.58,0.05-2.36,1.29-4.76c1.2-2.32,3.3-3.44,3.93-3.73c0.1-0.05,0.11-0.03,0.02,0.03C37.23,9.55,35.67,10.7,34.43,12.74z
	 M39.63,10.19c-0.04,0.1-0.1,0.22-0.14,0.26c-0.03,0.02-0.05,0.05-0.08,0.08c-0.34,0.37-0.92,0.87-1.11,1.83
	c-0.15,0.79,0.05,1.3,0.19,1.55c0.06,0.1,0.06,0.1-0.01,0.01c-0.3-0.38-0.93-1.32-0.55-2.06c0.24-0.45,0.48-0.78,0.7-1.03
	c0.08-0.08,0.21-0.2,0.31-0.27c0.22-0.16,0.44-0.31,0.64-0.47c0.02-0.01,0.04-0.03,0.05-0.04C39.68,10.03,39.67,10.09,39.63,10.19z
	 M36.14,12.54c-0.73,1.42-0.05,3.07,0.21,3.62c0.05,0.1,0.04,0.11-0.02,0.01c-0.34-0.54-1.3-2.25-0.63-3.74
	c0.78-1.74,2.24-2.72,4.47-3.79c0.1-0.05,0.1-0.05,0.01,0.01C39.5,9.03,37.14,10.48,36.14,12.54z M42.52,16.86
	c0.07,0.09,0.05,0.11-0.04,0.04c-0.31-0.23-0.98-0.77-1.26-1.4c-0.38-0.85-0.25-1.64-0.15-1.99c0.03-0.11,0.07-0.1,0.08,0.01
	c0.04,0.39,0.14,1.23,0.33,1.74C41.67,15.78,42.25,16.54,42.52,16.86z M43.4,8.17c-0.94,0.48-1.59,0.89-2.16,1.54
	c-0.51,0.58-0.81,1.41-0.93,1.79c-0.03,0.11-0.07,0.1-0.07-0.01c-0.01-0.44,0.05-1.48,0.79-2.21c0.14-0.14,0.29-0.26,0.45-0.37
	c0.09-0.06,0.25-0.16,0.35-0.2c0.52-0.25,0.87-0.39,0.87-0.39s0.26-0.09,0.68-0.2C43.5,8.1,43.51,8.12,43.4,8.17z M44.81,9.49
	c0.21-0.14,0.45-0.25,0.7-0.33c0.48-0.14,0.99-0.22,1.37-0.25c0.85-0.06,1.53-0.09,2.09-0.12c0.11,0,0.12,0.03,0.01,0.07
	c-0.88,0.32-1.86,0.46-2.1,0.47c-0.5,0.04-1.27,0.02-2.06,0.6c-0.66,0.48-0.86,1.01-0.91,1.29c-0.02,0.11-0.05,0.11-0.06,0
	C43.82,10.87,43.88,10.12,44.81,9.49z"/>
</svg>
