<?xml version="1.0" encoding="utf-8"?>
<!-- Generator: Adobe Illustrator 23.0.3, SVG Export Plug-In . SVG Version: 6.00 Build 0)  -->
<svg version="1.1" id="Layer_1" xmlns="http://www.w3.org/2000/svg" xmlns:xlink="http://www.w3.org/1999/xlink" x="0px" y="0px"
	 viewBox="0 0 72.83 72.97" style="enable-background:new 0 0 72.83 72.97;" xml:space="preserve">
<path d="M72.69,13.71c-0.22-1-0.73-1.92-1.39-2.67c-0.33-0.38-0.71-0.7-1.1-1c-0.39-0.28-0.79-0.54-1.21-0.76
	c-1.68-0.92-3.65-1.33-5.55-1.18c-0.96,0.06-1.87,0.25-2.75,0.46c-0.89,0.22-1.77,0.47-2.63,0.79c-1.72,0.62-3.38,1.42-4.91,2.41
	c-1.55,0.95-2.96,2.2-4.27,3.33c-0.52,0.43-1.04,0.86-1.57,1.28c-0.75,0.1-1.49,0.21-2.23,0.34c-2.88,0.49-5.68,1.11-8.46,1.52
	c-1.39,0.21-2.78,0.38-4.16,0.45c-1.37,0.08-2.7,0.03-4.01-0.19c-1.31-0.23-2.58-0.62-3.75-1.17c-1.17-0.57-2.22-1.32-3.1-2.22
	c-1.75-1.77-2.65-4.4-2.14-6.73c0.26-1.16,0.84-2.26,1.69-3.19C22,4.22,23,3.44,24.13,2.97c2.25-0.98,5.01-0.62,7.13,0.77
	c2.12,1.36,3.62,3.78,3.24,6.18c-0.08,0.6-0.28,1.18-0.55,1.74c-0.28,0.56-0.65,1.09-1.06,1.52c-0.82,0.88-1.96,1.35-3.19,1.36
	c-2.45,0.01-5.14-1.72-5.91-4.1c-0.4-1.17-0.07-2.51,0.77-3.46c0.41-0.46,0.96-0.77,1.58-0.87c0.61-0.1,1.27,0.01,1.86,0.29
	c1.16,0.54,2.13,1.86,1.79,3.17c-0.15,0.64-0.64,1.22-1.29,1.41c-0.67,0.2-1.4-0.15-1.85-0.71c0.39,0.59,1.12,1.06,1.89,0.9
	c0.76-0.13,1.39-0.75,1.64-1.48c0.27-0.74,0.14-1.59-0.22-2.28c-0.36-0.69-0.93-1.27-1.61-1.66c-0.68-0.39-1.49-0.6-2.31-0.53
	c-0.82,0.07-1.62,0.45-2.2,1.03c-0.59,0.57-1,1.27-1.25,2.07c-0.25,0.79-0.25,1.65-0.05,2.45c0.4,1.6,1.45,2.91,2.7,3.86
	c1.26,0.94,2.79,1.58,4.44,1.66c1.65,0.11,3.4-0.55,4.59-1.75c0.6-0.59,1.07-1.24,1.47-1.95c0.39-0.72,0.68-1.5,0.83-2.33
	c0.31-1.65-0.02-3.4-0.77-4.86c-0.75-1.47-1.9-2.67-3.23-3.58c-1.33-0.91-2.87-1.51-4.49-1.73c-1.62-0.22-3.31-0.03-4.85,0.58
	c-1.54,0.6-2.88,1.61-3.95,2.79c-1.09,1.18-1.94,2.7-2.31,4.34c-0.73,3.33,0.51,6.78,2.75,9.1c1.11,1.18,2.46,2.09,3.88,2.77
	c0.88,0.41,1.78,0.73,2.71,0.98c0.52,0.5,1.05,0.98,1.62,1.41c0.72,0.53,1.51,0.98,2.36,1.31c0.42,0.17,0.86,0.3,1.31,0.4
	c0.74,0.4,1.47,0.79,2.17,1.21c0.84,0.52,1.67,1.06,2.28,1.72c0.63,0.65,0.92,1.38,0.8,2.11c-0.13,0.73-0.65,1.44-1.34,1.9
	c-0.69,0.45-1.57,0.75-2.39,0.64c-0.81-0.07-1.54-0.59-1.72-1.35c-0.09-0.38,0-0.78,0.23-1.12c0.24-0.34,0.65-0.62,1.09-0.74
	c0.43-0.12,0.95-0.09,1.25,0.24c0.32,0.34,0.19,0.92-0.09,1.33c0.17-0.19,0.32-0.41,0.39-0.67c0.07-0.25,0.05-0.56-0.11-0.8
	c-0.34-0.49-0.99-0.6-1.53-0.52c-0.54,0.09-1.07,0.31-1.52,0.72c-0.44,0.41-0.7,1.05-0.65,1.69c0.01,0.18,0.05,0.35,0.1,0.53
	c-0.14-0.03-0.28-0.06-0.42-0.07c-0.63-0.05-1.28,0.21-1.69,0.65c-0.41,0.44-0.62,0.97-0.72,1.52c-0.08,0.53,0.03,1.19,0.52,1.53
	c0.24,0.16,0.55,0.18,0.8,0.11c0.26-0.07,0.48-0.22,0.67-0.39c-0.41,0.28-0.99,0.41-1.33,0.09c-0.33-0.3-0.36-0.82-0.24-1.25
	c0.12-0.44,0.4-0.85,0.75-1.09c0.35-0.24,0.75-0.33,1.12-0.23c0.76,0.18,1.29,0.91,1.35,1.72c0.11,0.82-0.18,1.7-0.64,2.39
	c-0.47,0.69-1.18,1.21-1.9,1.34c-0.73,0.12-1.46-0.17-2.11-0.8c-0.66-0.6-1.2-1.44-1.72-2.28c-0.42-0.7-0.81-1.44-1.21-2.17
	c-0.1-0.45-0.23-0.88-0.4-1.31c-0.33-0.85-0.78-1.63-1.31-2.36c-0.43-0.58-0.92-1.11-1.41-1.62c-0.25-0.92-0.56-1.83-0.97-2.71
	c-0.68-1.42-1.59-2.77-2.77-3.88c-2.32-2.24-5.77-3.48-9.1-2.75c-1.64,0.37-3.16,1.22-4.34,2.31c-1.19,1.06-2.19,2.41-2.79,3.95
	c-0.61,1.53-0.81,3.23-0.58,4.85c0.22,1.62,0.82,3.16,1.73,4.49C2.73,34,3.93,35.15,5.4,35.91c1.46,0.76,3.2,1.08,4.86,0.77
	c0.83-0.14,1.61-0.44,2.33-0.83c0.71-0.39,1.36-0.86,1.95-1.47c1.19-1.19,1.85-2.94,1.75-4.59c-0.08-1.65-0.71-3.18-1.66-4.44
	c-0.95-1.25-2.25-2.3-3.86-2.7c-0.79-0.19-1.66-0.19-2.45,0.05c-0.79,0.25-1.49,0.66-2.07,1.25c-0.58,0.59-0.96,1.38-1.03,2.2
	c-0.08,0.82,0.13,1.63,0.53,2.31c0.4,0.68,0.97,1.25,1.66,1.61c0.68,0.36,1.53,0.49,2.28,0.22c0.74-0.25,1.35-0.88,1.48-1.64
	c0.15-0.78-0.31-1.5-0.9-1.89c0.56,0.45,0.91,1.18,0.71,1.85c-0.18,0.66-0.77,1.14-1.41,1.29c-1.31,0.34-2.63-0.63-3.17-1.79
	c-0.28-0.59-0.39-1.25-0.29-1.86c0.1-0.61,0.41-1.16,0.87-1.58c0.94-0.84,2.29-1.17,3.46-0.77c2.39,0.76,4.11,3.46,4.1,5.91
	c-0.01,1.23-0.48,2.37-1.36,3.19c-0.43,0.41-0.97,0.78-1.52,1.06c-0.56,0.27-1.14,0.47-1.74,0.55c-2.4,0.37-4.83-1.13-6.18-3.24
	c-1.39-2.12-1.75-4.87-0.77-7.13c0.47-1.13,1.25-2.14,2.2-2.99c0.94-0.85,2.03-1.42,3.19-1.69c2.34-0.51,4.96,0.39,6.73,2.14
	c0.9,0.88,1.65,1.93,2.22,3.1c0.56,1.17,0.95,2.44,1.17,3.75c0.22,1.32,0.27,2.64,0.19,4.01c-0.07,1.38-0.24,2.77-0.45,4.16
	c-0.41,2.79-1.03,5.59-1.52,8.46c-0.12,0.74-0.24,1.48-0.34,2.23c-0.42,0.52-0.85,1.05-1.28,1.57c-1.13,1.31-2.38,2.72-3.33,4.27
	c-0.99,1.54-1.79,3.19-2.41,4.91c-0.31,0.86-0.57,1.74-0.79,2.63c-0.21,0.88-0.4,1.79-0.46,2.75c-0.15,1.89,0.27,3.86,1.18,5.55
	c0.22,0.43,0.49,0.82,0.76,1.21c0.3,0.39,0.62,0.77,1,1.1c0.75,0.66,1.67,1.17,2.67,1.39c1,0.22,2.04,0.17,3.01-0.14
	c0.48-0.16,0.95-0.36,1.37-0.65c0.42-0.28,0.79-0.59,1.14-0.95c0.69-0.72,1.21-1.62,1.46-2.59c0.25-0.97,0.25-1.97,0.06-2.92
	c-0.08-0.42-0.21-0.82-0.35-1.22c0.58,0.57,1.22,1.07,1.94,1.48c1.37,0.78,2.94,1.18,4.52,1.11c3.21-0.08,6.11-2.9,5.93-6.11
	c-0.05-0.8-0.41-1.55-0.87-2.14c-0.45-0.6-1.16-1.17-2-1.12c-0.41,0.02-0.78,0.19-1.09,0.43c-0.3,0.24-0.56,0.53-0.7,0.89
	c-0.26,0.72-0.07,1.54,0.43,2.06c-0.45-0.56-0.53-1.37-0.24-1.98c0.31-0.58,0.98-1.02,1.6-1c0.64,0.01,1.17,0.49,1.53,1.04
	c0.37,0.58,0.6,1.19,0.59,1.85c0,1.3-0.7,2.57-1.67,3.45c-0.97,0.9-2.25,1.32-3.55,1.31c-1.3-0.01-2.6-0.41-3.7-1.12
	c-1.09-0.7-2.01-1.7-2.69-2.83c-1.39-2.27-2.01-5.04-2.17-7.77c-0.14-2.58,0.2-5.18,0.67-7.79c0.14-0.19,0.28-0.38,0.41-0.58
	c1.01-1.49,1.95-3.02,2.74-4.65c0.79-1.62,1.45-3.33,1.76-5.13c0.13-0.74,0.18-1.5,0.16-2.26c0.07,0.24,0.14,0.47,0.22,0.71
	c0.35,0.98,0.79,1.96,1.53,2.83c0.37,0.42,0.83,0.83,1.41,1.1c0.57,0.28,1.25,0.37,1.88,0.28c1.3-0.17,2.32-1.03,2.94-2.02
	c0.64-1.01,0.87-2.23,0.66-3.41c-0.03-0.16-0.08-0.31-0.14-0.47c0.12,0.04,0.24,0.08,0.36,0.1c1.19,0.22,2.41-0.02,3.41-0.66
	c0.99-0.62,1.85-1.64,2.02-2.94c0.09-0.63,0-1.31-0.28-1.88c-0.27-0.57-0.68-1.03-1.1-1.41c-0.87-0.74-1.85-1.18-2.83-1.53
	c-0.24-0.08-0.47-0.15-0.71-0.22c0.76,0.02,1.52-0.04,2.26-0.16c1.8-0.32,3.51-0.97,5.13-1.76c1.63-0.78,3.16-1.73,4.65-2.74
	c0.2-0.13,0.39-0.28,0.58-0.41c2.61-0.47,5.22-0.81,7.79-0.67c2.73,0.16,5.49,0.78,7.77,2.17c1.13,0.69,2.13,1.61,2.83,2.69
	c0.7,1.1,1.11,2.4,1.12,3.7c0.01,1.3-0.41,2.58-1.31,3.55c-0.88,0.97-2.14,1.67-3.45,1.67c-0.65,0.01-1.27-0.23-1.85-0.59
	c-0.56-0.35-1.04-0.88-1.04-1.53c-0.02-0.62,0.41-1.3,1-1.6c0.61-0.29,1.42-0.2,1.98,0.24c-0.52-0.5-1.34-0.69-2.06-0.43
	c-0.36,0.14-0.66,0.4-0.89,0.7c-0.24,0.3-0.4,0.68-0.43,1.09c-0.06,0.85,0.52,1.55,1.12,2c0.59,0.46,1.35,0.82,2.14,0.87
	c3.21,0.18,6.03-2.72,6.11-5.93c0.07-1.58-0.34-3.15-1.11-4.52c-0.41-0.71-0.91-1.36-1.48-1.94c0.39,0.15,0.8,0.27,1.22,0.35
	c0.95,0.19,1.95,0.19,2.92-0.06c0.97-0.25,1.87-0.77,2.59-1.46c0.36-0.35,0.67-0.72,0.95-1.14c0.29-0.42,0.49-0.89,0.65-1.37
	C72.87,15.75,72.91,14.71,72.69,13.71z M16.17,54.08c0.12,1.5,0.42,2.99,0.85,4.43c0.3,0.99,0.69,1.97,1.19,2.9
	c-0.24-0.16-0.49-0.3-0.75-0.4c-0.91-0.37-1.97-0.47-2.93-0.15c-0.95,0.31-1.77,0.97-2.25,1.84c-0.47,0.86-0.65,1.87-0.42,2.82
	c0.21,0.95,0.85,1.8,1.75,2.18c0.89,0.4,2.13,0.04,2.44-0.95c0.13-0.47,0.04-0.96-0.18-1.36c-0.22-0.4-0.67-0.7-1.12-0.63
	c0.46-0.02,0.84,0.3,1.01,0.69c0.18,0.39,0.21,0.85,0.06,1.23c-0.13,0.39-0.49,0.63-0.88,0.75c-0.38,0.12-0.8,0.05-1.16-0.12
	c-0.72-0.37-1.21-1.13-1.34-1.91c-0.14-0.8,0.06-1.64,0.49-2.31c0.42-0.68,1.1-1.17,1.85-1.38c0.74-0.2,1.56-0.09,2.27,0.24
	c0.72,0.34,1.29,0.86,1.67,1.57c0.41,0.71,0.69,1.49,0.82,2.29c0.27,1.6-0.17,3.24-1.3,4.33c-0.57,0.55-1.22,0.99-1.95,1.19
	c-0.73,0.22-1.52,0.23-2.25,0.06c-0.74-0.17-1.42-0.55-1.99-1.06c-0.57-0.51-1.03-1.19-1.43-1.92c-0.77-1.44-1.09-3.09-0.98-4.74
	c0.04-0.82,0.21-1.65,0.41-2.5c0.2-0.84,0.43-1.66,0.72-2.48c0.58-1.62,1.32-3.18,2.22-4.65c0.89-1.5,1.97-2.78,3.14-4.18
	c0.01-0.01,0.01-0.02,0.02-0.03C16.05,51.25,16.04,52.66,16.17,54.08z M23.12,35.63c-0.4,1.68-1.08,3.3-1.92,4.83
	c-0.52,0.95-1.09,1.88-1.69,2.79c0.43-2,0.88-4.02,1.23-6.09c0.24-1.45,0.42-2.92,0.51-4.41c0.1-1.5,0.06-3.06-0.19-4.59
	c-0.09-0.56-0.22-1.12-0.37-1.67c0.99,1.22,1.86,2.55,2.33,4.03C23.55,32.18,23.51,33.96,23.12,35.63z M40.32,21.19
	c-1.53,0.84-3.14,1.52-4.83,1.92c-1.68,0.39-3.46,0.43-5.11-0.1c-1.48-0.47-2.8-1.34-4.03-2.33c0.55,0.15,1.11,0.27,1.67,0.37
	c1.52,0.25,3.09,0.29,4.59,0.19c1.49-0.09,2.96-0.27,4.41-0.51c2.07-0.35,4.09-0.8,6.09-1.23C42.2,20.1,41.28,20.67,40.32,21.19z
	 M71.19,16.3c-0.2,0.73-0.64,1.39-1.19,1.95c-1.09,1.13-2.73,1.57-4.33,1.3c-0.8-0.13-1.58-0.41-2.29-0.82
	c-0.71-0.38-1.23-0.96-1.57-1.67c-0.33-0.71-0.44-1.53-0.24-2.27c0.21-0.75,0.7-1.43,1.38-1.85c0.67-0.43,1.51-0.63,2.31-0.49
	c0.78,0.12,1.55,0.62,1.91,1.34c0.18,0.36,0.24,0.77,0.12,1.16c-0.12,0.38-0.37,0.75-0.75,0.88c-0.38,0.14-0.84,0.12-1.23-0.06
	c-0.39-0.17-0.71-0.55-0.69-1.01c-0.07,0.45,0.23,0.9,0.63,1.12c0.4,0.23,0.89,0.31,1.36,0.18c0.99-0.31,1.35-1.55,0.95-2.44
	c-0.38-0.9-1.24-1.54-2.18-1.75c-0.95-0.22-1.96-0.05-2.82,0.42c-0.86,0.48-1.52,1.3-1.84,2.25c-0.31,0.96-0.22,2.02,0.15,2.93
	c0.1,0.26,0.24,0.51,0.4,0.75c-0.93-0.49-1.9-0.89-2.9-1.19c-1.44-0.43-2.93-0.73-4.43-0.85c-1.42-0.13-2.84-0.13-4.24-0.03
	c0.01-0.01,0.02-0.01,0.03-0.02c1.4-1.16,2.68-2.25,4.18-3.14c1.47-0.9,3.03-1.64,4.65-2.22c0.81-0.29,1.64-0.52,2.48-0.72
	c0.84-0.2,1.68-0.36,2.5-0.41c1.65-0.11,3.29,0.21,4.73,0.98c0.72,0.39,1.41,0.85,1.92,1.43c0.51,0.57,0.89,1.25,1.06,1.99
	C71.42,14.78,71.41,15.56,71.19,16.3z"/>
</svg>
