<?xml version="1.0" encoding="utf-8"?>
<!-- Generator: Adobe Illustrator 23.0.3, SVG Export Plug-In . SVG Version: 6.00 Build 0)  -->
<svg version="1.1" id="Layer_1" xmlns="http://www.w3.org/2000/svg" xmlns:xlink="http://www.w3.org/1999/xlink" x="0px" y="0px"
	 viewBox="0 0 69.99 69.99" style="enable-background:new 0 0 69.99 69.99;" xml:space="preserve">
<g>
	<path d="M6.19,50.43c0.09,1.52,1.71,2.3,3.11,2.02c1.84-0.36,2.95-1.62,3.55-2.92c0.83-1.84,0.81-4.29-0.2-6.46
		c-0.5-1.07-1.59-2.43-1.45-3.89c0,0-1.46,0.96-0.74,2.39c0.45,0.9,0.42,2.63-0.24,2.66c-0.54,0.02-1.67-0.06-2.29,1.16
		c-0.44,0.86,0.09,2.14,1.39,2.29C7.25,47.61,6.1,48.86,6.19,50.43z M7.57,50.61c0.34-0.02,1.71,0.47,3.69-1.42
		c1.73-2.12,1.37-4.46,0.91-5.46c-0.27-0.6-0.47-1.12-0.38-1.19c0.09-0.07,0.25,0.48,0.62,1.15c0.27,0.5,1.11,3.14-0.52,5.46
		c-1.91,2.71-3.68,2.29-4.06,2.25c-0.26-0.03-0.71-0.19-0.71-0.45C7.11,50.8,7.26,50.63,7.57,50.61z"/>
	<path d="M21.91,42.34c-0.96-0.98-2.12-1.63-3.31-2.28c-1.08-0.59-2.29-1.34-2.46-2.67c-0.07-0.51,0.04-0.96,0.42-1.31
		c0.21-0.19,0.25-0.42,0.19-0.63c0.04-0.08,0.06-0.18,0.06-0.29V27.7c0-0.45-0.36-0.67-0.71-0.66c-0.06-0.01-0.12-0.02-0.18-0.02
		h-1.21V16.25l-1.37-0.46v11.23h-0.81c-0.01-0.96-0.03-1.92-0.03-2.87v-8.64l-1.37-0.46v11.97H9.93c-0.15,0-0.28,0.04-0.38,0.11
		c-0.42-0.07-0.92,2.75-2.97,3.41c-1.35,0.44-2.23,1.78-2.46,2.65c-0.24,0.87-0.78,1.47-1.45,1.65c-0.67,0.18-0.49,0.66-0.08,0.82
		c0.41,0.17,0.92,0.19,1.39,0.15c0.46-0.04,0.65,0.33-0.02,0.46c-1.41,0.27-3.25,2.61-3.8,4.15c-0.34,0.97-0.04,1.24,0.44,0.64
		c0.48-0.6,1.72-0.76,2.8-0.73c1.08,0.04,1.65-0.09,2.02-0.24c0.36-0.14,0.42-0.34,0.36,0.02c-0.06,0.36,0.18,0.83-0.06,1.6
		c-0.23,0.77,0.78,0.73,1.48,0.37c1.37-0.73,2.73-2.32,3.09-2.94c0.73-1.23,1.71-2.92,2.02-5.5c0.21-1.74,0.25-3.51,0.24-5.27h0.8
		v5.99c-0.44,0.63-0.74,1.31-0.9,2.03c-0.48,1.44-0.74,3.07,0.15,4.49c1.52,2.43,3.46,7.92-0.24,11.12
		c-3.2,2.76-5.59,1.45-6.12,0.83c-0.54-0.62-1-0.15-0.75,0.81c0.56,2.1,3.13,3.3,5.35,3.11c1.09-0.09,2.09-0.52,2.73-1.35v13.92
		c0,0.88,1.36,0.88,1.36,0V55.21c0.21-0.04,0.42-0.12,0.62-0.26c0.67-0.46,0.88-1.34,0.65-2.05c-0.23-0.68,0.52-0.86,0.82-0.16
		c0.39,0.88,1.33,1.21,2.14,1.24c0.81,0.03,1.84,0.06,2.09,0.06c0.8,0.01-0.66-1.88-0.92-2.44c-0.54-1.19,0.2-2.19-0.15-2.6
		c-0.34-0.41,0-0.36,0.43-0.23c0.42,0.12,1.27-0.08,1.73-0.2c0.42-0.11-0.16-0.83-0.54-1.51c-0.38-0.67,0.28-1.77-1.11-2.79
		c-1.39-1.02-3.54-1.89-5.09-3.06c-0.73-0.55-1.42-1.58-1.79-2.66c0-0.04-0.01-0.07-0.02-0.11c-0.17-0.74-0.13-1.53,0.12-2.25
		c0.26-0.74,0.77-1.22,0.81-2.03c0.02-0.3,0-0.61,0-0.92v-4.85h0.74v6.77c0,0.04,0,0.07,0.01,0.1c-0.77,0.84-0.83,2.06-0.45,3.12
		c0.47,1.3,1.6,2.12,2.76,2.77c1.19,0.67,2.32,1.27,3.29,2.26c0.88,0.9,1.56,2,2.01,3.16c0.92,2.36,0.85,4.98-0.29,7.25
		c-0.54,1.08-1.29,2.05-2.2,2.85c0,0-0.01-0.01-0.01-0.01c-0.92-0.95-2.36-1.15-3.52-0.53c-0.98,0.52-1.46,1.69-1.37,2.77
		c-0.02,0.06-0.03,0.13-0.03,0.2v10.22c0,0.88,1.37,0.88,1.37,0v-9.26c4.81-1.19,8.36-5.87,8.02-10.86
		C24.86,46.64,23.71,44.18,21.91,42.34z M9.96,34.94c-1.28,1.75-2.65,2.49-3.56,2.81c-0.64,0.22-1.06,0.23-1.06,0.23
		s-0.13-0.46,0.77-0.74c1.32-0.42,3.17-2.49,3.67-4.17c0.41-1.4,0.61-2.97,0.24-4.68h1.12v0.2C11.14,30.81,11.36,33.02,9.96,34.94z
		 M17.67,48.12c-0.11,1.94,1.58,4.47,1.58,4.47c-1.45-1.12-2.3-2.51-2.17-5.36c0.13-2.8-2.19-5.16-2.19-5.16
		C17.39,43.89,17.78,46.18,17.67,48.12z M13.78,41.64c0.27-0.1,0.69,0.78,1.23,1.75c0.16,0.29,0.58,1.35,0.69,3.02
		c0.09,1.48,0.01,3.2-1.3,5.3c-2.81,4.52-5.93,3.63-6.26,3.59c-0.37-0.05-0.81-0.17-0.77-0.46c0.04-0.25,0.34-0.41,0.74-0.33
		c0.51,0.1,2.76,0.62,5.42-2.4c1.7-1.92,1.93-3.98,1.86-5.52C15.28,43.51,13.68,41.75,13.78,41.64z"/>
	<path d="M39.17,11.19c1.46-0.13,2.82,0.95,3.89,1.45c2.17,1.02,4.63,1.04,6.46,0.2c1.31-0.59,2.56-1.71,2.92-3.55
		c0.28-1.4-0.5-3.02-2.02-3.11c-1.56-0.09-2.82,1.06-2.76,3.12c-0.14-1.3-1.42-1.83-2.29-1.39c-1.22,0.62-1.14,1.74-1.16,2.29
		c-0.02,0.66-1.76,0.69-2.66,0.24C40.13,9.72,39.17,11.19,39.17,11.19z M43.74,12.17c1,0.46,3.34,0.82,5.46-0.91
		c1.89-1.98,1.39-3.35,1.42-3.69c0.02-0.31,0.18-0.45,0.34-0.45c0.26,0,0.42,0.45,0.45,0.71c0.04,0.38,0.47,2.15-2.25,4.06
		c-2.32,1.63-4.95,0.79-5.46,0.52c-0.67-0.37-1.22-0.52-1.15-0.61C42.62,11.7,43.14,11.89,43.74,12.17z"/>
	<path d="M69.33,15.65H59.11c-0.07,0-0.14,0.01-0.2,0.03c-1.08-0.1-2.24,0.39-2.77,1.37c-0.62,1.16-0.43,2.59,0.53,3.52
		c0,0,0.01,0.01,0.01,0.01c-0.8,0.9-1.77,1.66-2.85,2.2c-2.27,1.13-4.9,1.2-7.25,0.28c-1.17-0.45-2.27-1.13-3.16-2.01
		c-0.99-0.97-1.59-2.1-2.26-3.29c-0.66-1.16-1.47-2.29-2.77-2.76c-1.06-0.38-2.27-0.32-3.12,0.45c-0.03,0-0.07-0.01-0.1-0.01h-6.77
		v-0.74h4.85c0.3,0,0.61,0.02,0.92,0c0.81-0.04,1.3-0.55,2.03-0.81c0.72-0.25,1.51-0.29,2.25-0.12c0.04,0.01,0.08,0.01,0.11,0.02
		c1.08,0.37,2.1,1.06,2.66,1.79c1.17,1.55,2.04,3.7,3.06,5.09c1.02,1.39,2.11,0.74,2.79,1.11c0.69,0.38,1.4,0.97,1.51,0.54
		c0.12-0.46,0.32-1.31,0.2-1.73c-0.13-0.43-0.17-0.77,0.24-0.43c0.41,0.34,1.4-0.39,2.6,0.15c0.56,0.25,2.45,1.72,2.44,0.92
		c0-0.25-0.03-1.28-0.06-2.09c-0.03-0.81-0.36-1.75-1.24-2.14c-0.7-0.31-0.52-1.05,0.16-0.82c0.71,0.23,1.6,0.03,2.05-0.65
		c0.14-0.2,0.22-0.42,0.26-0.62h14.12c0.88,0,0.88-1.37,0-1.37H55.41c0.83-0.64,1.26-1.64,1.35-2.73c0.19-2.22-1.01-4.79-3.11-5.35
		c-0.96-0.25-1.43,0.21-0.81,0.75c0.62,0.54,1.93,2.92-0.83,6.12c-3.19,3.71-8.69,1.77-11.12,0.24c-1.42-0.89-3.04-0.63-4.49-0.15
		c-0.72,0.16-1.4,0.46-2.03,0.9h-5.99v-0.8c1.77,0.01,3.53-0.03,5.27-0.24c2.58-0.31,4.27-1.29,5.5-2.02
		c0.61-0.37,2.21-1.73,2.94-3.09c0.37-0.7,0.4-1.71-0.37-1.48c-0.77,0.23-1.24,0-1.6,0.06c-0.36,0.06-0.16,0-0.02-0.36
		c0.14-0.37,0.28-0.94,0.24-2.02c-0.04-1.08,0.12-2.32,0.73-2.8c0.6-0.49,0.33-0.79-0.64-0.44c-1.54,0.55-3.88,2.39-4.15,3.8
		c-0.13,0.68-0.5,0.48-0.46,0.02c0.04-0.47,0.02-0.98-0.15-1.39c-0.17-0.4-0.64-0.59-0.82,0.08c-0.18,0.68-0.78,1.21-1.65,1.45
		c-0.87,0.23-2.21,1.11-2.65,2.46c-0.66,2.05-3.48,2.55-3.41,2.97c-0.07,0.1-0.11,0.23-0.11,0.38v1.21H15.4l0.46,1.37h8.29
		c0.95,0,1.91,0.02,2.87,0.03v0.81H16.14l0.46,1.37h10.42v1.21c0,0.07,0.01,0.13,0.02,0.18c-0.01,0.35,0.21,0.71,0.66,0.71h7.46
		c0.11,0,0.21-0.02,0.29-0.06c0.2,0.06,0.44,0.02,0.63-0.19c0.35-0.38,0.81-0.49,1.31-0.42c1.33,0.17,2.08,1.38,2.67,2.46
		c0.65,1.19,1.3,2.35,2.28,3.31c1.84,1.8,4.3,2.95,6.88,3.13c4.98,0.35,9.67-3.21,10.86-8.02h9.26
		C70.21,17.02,70.21,15.65,69.33,15.65z M52.59,19.25c0,0-2.53-1.69-4.47-1.58c-1.94,0.11-4.23-0.28-6.06-2.78
		c0,0,2.36,2.33,5.16,2.19C50.08,16.95,51.47,17.8,52.59,19.25z M46.6,15.38c1.54,0.07,3.6-0.16,5.52-1.86
		c3.01-2.66,2.5-4.91,2.4-5.42c-0.08-0.4,0.08-0.7,0.33-0.74c0.29-0.04,0.41,0.4,0.46,0.77c0.04,0.33,0.93,3.46-3.59,6.26
		c-2.11,1.31-3.83,1.39-5.3,1.3c-1.67-0.11-2.72-0.53-3.02-0.69c-0.97-0.54-1.86-0.96-1.75-1.23C41.75,13.68,43.51,15.28,46.6,15.38
		z M28.38,10.02c1.72,0.36,3.29,0.17,4.68-0.24c1.68-0.49,3.75-2.35,4.17-3.67c0.29-0.9,0.74-0.77,0.74-0.77s-0.01,0.42-0.23,1.06
		c-0.32,0.92-1.06,2.29-2.81,3.56c-1.91,1.4-4.13,1.17-6.36,1.17h-0.2V10.02z"/>
	<path d="M9.13,13.09c0.13,0.38,0.54,0.79,0.92,0.92l1.09,0.37l0.24,0.08l0.73,0.25l0.4,0.14l0.84,0.28l1.37,0.46l1.04,0.35
		c0.08,0.03,0.15,0.04,0.21,0.04c0.24,0,0.35-0.19,0.25-0.49l-0.26-0.78l-0.46-1.37l-0.28-0.84l-0.46-1.37l-0.46-1.35
		C14.15,9.41,13.74,9,13.36,8.87L7.66,6.95C7.58,6.92,7.51,6.91,7.45,6.91C7.21,6.91,7.1,7.1,7.21,7.4L9.13,13.09z"/>
</g>
</svg>
