<?xml version="1.0" encoding="utf-8"?>
<!-- Generator: Adobe Illustrator 23.0.3, SVG Export Plug-In . SVG Version: 6.00 Build 0)  -->
<svg version="1.1" id="Layer_1" xmlns="http://www.w3.org/2000/svg" xmlns:xlink="http://www.w3.org/1999/xlink" x="0px" y="0px"
	 viewBox="0 0 54.05 54.05" style="enable-background:new 0 0 54.05 54.05;" xml:space="preserve">
<g>
	<path d="M42.98,10.66c2.14,0.44,4.28,0.54,6.24-0.4c3.21-1.54,2.55-5.29,0.04-5.81c-0.81-0.17-1.63-0.3-2.44-0.02
		c0.85-0.2,1.69-0.05,2.51,0.2c1.06,0.35,1.86,1.36,1.63,2.5c-0.2,0.99-0.82,1.79-1.71,2.2c-1.72,0.8-3.59,0.18-5.24-0.46
		c-3.87-1.49-7.49-3.18-11.69-3.95c-2.82-0.52-5.49-0.48-8.29,0.18c0,0,0,0,0,0.01c2.19,0.01,5.02,0.74,6.5,1.23
		C34.75,7.74,38.48,9.73,42.98,10.66z"/>
	<path d="M51.49,1.34c-3.74-2.7-8.1-0.8-9.24,1.18c0,0.01-0.01,0.01-0.01,0.02c-0.47,0.83-0.45,1.76,0.11,2.23
		c0.66,0.56,1.83,0.26,2.6-0.66c0.25-0.29,0.42-0.62,0.53-0.94v0c0,0,0,0,0,0c0.04-0.13,0.07-0.26,0.09-0.39
		c0.5-1.88,1.56-2.84,4.35-1.95c1.72,0.55,3.06,2.09,3.57,4.3c0.6,2.61-1.05,5.02-3.31,6.08c-2.93,1.37-5.86,0.67-8.29,0.07
		c-2.92-0.71-11.3-4.37-15.86-5.43c-3.89-0.9-8.41-1.3-11.46,1.53C12.11,5.1,8.69,4.92,5.41,5.41c-0.49,3.28-0.31,6.7,1.97,9.16
		c-2.83,3.05-2.43,7.57-1.53,11.46c1.05,4.56,4.72,12.94,5.43,15.86c0.59,2.43,1.3,5.37-0.07,8.29c-1.06,2.27-3.47,3.92-6.08,3.31
		c-2.21-0.51-3.76-1.85-4.3-3.57c-0.89-2.79,0.07-3.85,1.95-4.35c0.13-0.02,0.26-0.05,0.39-0.09c0,0,0,0,0,0h0
		c0.32-0.11,0.64-0.28,0.94-0.53c0.92-0.78,1.22-1.94,0.66-2.6c-0.47-0.56-1.4-0.58-2.23-0.1c-0.01,0-0.01,0-0.02,0.01
		c-1.98,1.14-3.89,5.5-1.18,9.24c2.02,2.79,5.81,3.38,8.63,1.37c2.15-1.53,3.37-4.31,3.45-7.79c0.15-6.46-3.18-13.77-5.03-18.39
		c-1.37-3.42-3.12-7.32-1.2-10.9c0.24-0.45,0.54-0.85,0.88-1.21c-0.34-0.36-0.64-0.76-0.88-1.21C6.05,11.24,6.21,9,6.81,6.81
		c2.19-0.6,4.43-0.76,6.55,0.38c0.45,0.24,0.85,0.54,1.21,0.88c0.36-0.34,0.76-0.64,1.21-0.88c3.58-1.91,7.48-0.16,10.9,1.2
		c4.62,1.84,11.93,5.17,18.39,5.03c3.47-0.08,6.25-1.3,7.79-3.45C54.87,7.15,54.28,3.36,51.49,1.34z"/>
	<path d="M43.39,14.06c-6.34,0.22-14.05-4.01-18.45-5.51c-2.33-0.79-4.88-1.39-7.25-0.44c-1.34,0.54-2.46,1.85-2.28,3.38l0,0.02
		c-0.09-0.67,0.36-1.38,0.89-1.89c1.73-1.68,4.3-0.86,6.18,0.12c13.76,7.18,20.85,4.45,20.93,4.42
		C43.6,14.09,43.6,14.05,43.39,14.06z"/>
	<path d="M12.85,9.63c0.48,0.47,0.91,1.1,0.9,1.73c0.09-1.47-0.98-2.71-2.29-3.24C10.24,7.63,8.97,7.55,7.7,7.7
		c-0.15,1.27-0.07,2.54,0.42,3.76c0.52,1.3,1.77,2.38,3.24,2.29c-0.62,0.01-1.26-0.42-1.73-0.9c-1.09-1.11-1.13-2.58-0.76-3.98
		C10.27,8.5,11.74,8.54,12.85,9.63z"/>
	<path d="M8.87,44.01c0.63,1.65,1.26,3.52,0.46,5.24c-0.42,0.89-1.22,1.51-2.2,1.71c-1.13,0.23-2.15-0.58-2.5-1.63
		c-0.25-0.83-0.4-1.66-0.2-2.51c-0.28,0.81-0.14,1.63,0.02,2.44c0.52,2.51,4.27,3.17,5.81-0.04c0.94-1.97,0.85-4.1,0.4-6.24
		c-0.93-4.5-2.92-8.23-4.32-12.45c-0.49-1.48-1.23-4.31-1.23-6.5c0,0,0,0-0.01,0c-0.66,2.8-0.69,5.47-0.18,8.29
		C5.69,36.52,7.38,40.14,8.87,44.01z"/>
	<path d="M9.63,16.3c0.51-0.52,1.22-0.97,1.89-0.89l-0.02,0c-1.53-0.18-2.84,0.93-3.38,2.28c-0.95,2.37-0.35,4.92,0.44,7.25
		c1.49,4.4,5.72,12.11,5.51,18.45c-0.01,0.21,0.03,0.21,0.11,0.01c0.03-0.07,2.75-7.17-4.42-20.93C8.77,20.6,7.94,18.03,9.63,16.3z"
		/>
	<path d="M5.11,5.13c0-0.01,0-0.02,0-0.02c0.01,0,0.02,0,0.02,0c0,0,0,0,0,0C5.12,5.1,5.11,5.1,5.1,5.1C5.1,5.11,5.1,5.12,5.11,5.13
		C5.1,5.13,5.11,5.13,5.11,5.13z"/>
</g>
</svg>
