<?xml version="1.0" encoding="utf-8"?>
<!-- Generator: Adobe Illustrator 23.0.3, SVG Export Plug-In . SVG Version: 6.00 Build 0)  -->
<svg version="1.1" id="Layer_1" xmlns="http://www.w3.org/2000/svg" xmlns:xlink="http://www.w3.org/1999/xlink" x="0px" y="0px"
	 viewBox="0 0 64.29 64.29" style="enable-background:new 0 0 64.29 64.29;" xml:space="preserve">
<g>
	<path d="M64.27,9.29c-0.17,0-0.36,0-0.54-0.01c-0.18,0-0.37,0-0.54,0.01c-1.16,0.02-2.31,0.03-3.45,0.04
		c-0.17-0.17-0.43-0.28-0.74-0.28c-0.3,0-0.57,0.12-0.73,0.3c-0.27,0-0.54,0.01-0.81,0.01c-0.21-0.59-0.9-1.02-1.73-1.03
		c-0.87-0.01-1.6,0.45-1.79,1.07c-1.96,0.02-3.9,0.04-5.8,0.06c0.72-0.09,1.35-0.21,1.94-0.35c1.72,0.11,2.84-0.13,3.5-0.59
		c1.52-0.96,0.79-2.97-0.87-4.66c0,0,0,0.05-0.01,0.13c-0.03-0.02-0.05-0.05-0.07-0.08c0,0,0.02,0.95-0.92,1.59
		c-0.06,0.04-0.13,0.08-0.2,0.11c-0.93,0.47-2.12,0.91-2.86,1.37c-1.01,0.59-1.3,1.2,0.74,1.9c-1.12,0.38-2.23,0.56-3.77,0.59
		c-0.24,0-0.47,0.01-0.71,0.01c-0.99,0-2.17-0.05-3.61-0.14v0c0,0,0,0-0.01,0c-0.09-0.01-0.18-0.01-0.27-0.02
		c1.74-0.07,3.11-0.4,4.14-0.96c1.48-0.77,2.28-2.01,2.47-3.65c-1.56-0.01-2.68,0.29-3.57,0.75c-1.91,0.95-2.72,2.66-4.39,3.78
		c-0.27-0.02-0.54-0.04-0.83-0.05c-0.05-0.03-0.09-0.06-0.13-0.09c0.14-0.55,0.18-1.11,0.1-1.66c-0.11-0.82-0.48-1.62-1.05-2.34
		c-0.29-0.36-0.63-0.69-1.01-1c-0.09-0.07-0.2-0.16-0.29-0.22c-0.11-0.08-0.22-0.15-0.33-0.22c-0.22-0.14-0.45-0.27-0.7-0.39
		c-0.98-0.47-2.13-0.75-3.3-0.8c-1.17-0.05-2.35,0.11-3.4,0.48c-0.52,0.18-1.01,0.41-1.45,0.69c-0.08,0.05-0.15,0.1-0.22,0.15
		c0.45-0.95,0.74-1.93,1.18-2.89c-1.54,0.37-3.11,0.58-4.63,1.01c-0.51,0.14-0.95,0.37-1.44,0.59c-0.07,0.03-0.18,0.04-0.2-0.01
		c-0.15-0.43-0.23-0.83-0.47-1.23C21.27,0.82,21.08,0.37,20.66,0c-1.06,0.54-1.68,1.37-2.28,2.18c-0.12,0.17-0.23,0.34-0.33,0.52
		c-0.65,1.22-0.58,2.53-0.86,3.89c-0.16,0.79-0.5,1.54-1.33,2.06c0.04-0.44,0.23-0.86,0.24-1.32c0.01-0.34-0.02-0.65-0.09-0.99
		c-0.17-0.79-0.57-1.46-1.23-2.1c-0.37-0.36-0.8-0.67-1.26-0.96c-0.6-0.37-1.41-0.72-2.15-0.94C10.64,2.55,9.83,2.9,9.23,3.27
		c-0.2,0.12-0.39,0.25-0.57,0.39C8.48,3.8,8.31,3.94,8.15,4.09C7.66,4.55,7.21,5.17,6.92,5.74C7.21,6.3,7.66,6.92,8.15,7.38
		c0.38,0.36,0.79,0.68,1.26,0.96c0.83,0.5,1.71,0.81,2.75,0.94c0.44,0.06,0.85,0.08,1.3,0.07c0.6-0.01,1.15-0.16,1.73-0.19
		c-0.68,0.64-1.66,0.9-2.69,1.02c-0.72,0.09-1.43,0.13-2.13,0.18v0v0h0h0c-0.05,0.7-0.1,1.41-0.18,2.13
		c-0.12,1.03-0.38,2.01-1.02,2.69c0.03-0.58,0.18-1.13,0.19-1.73c0.01-0.44-0.01-0.85-0.07-1.3c-0.13-1.03-0.44-1.92-0.94-2.75
		C8.06,8.94,7.73,8.53,7.38,8.15C6.92,7.66,6.3,7.21,5.74,6.92C5.17,7.21,4.55,7.66,4.09,8.15C3.94,8.31,3.8,8.48,3.66,8.66
		C3.52,8.84,3.39,9.03,3.27,9.23c-0.37,0.6-0.72,1.41-0.94,2.15c0.22,0.74,0.57,1.55,0.94,2.15c0.29,0.47,0.6,0.89,0.96,1.26
		c0.63,0.65,1.31,1.06,2.1,1.23c0.34,0.07,0.65,0.1,0.99,0.09c0.46-0.02,0.88-0.21,1.32-0.24c-0.52,0.83-1.27,1.17-2.06,1.33
		c-1.36,0.28-2.66,0.21-3.89,0.86c-0.17,0.09-0.35,0.2-0.52,0.33C1.37,18.98,0.54,19.6,0,20.66c0.37,0.42,0.82,0.6,1.25,0.86
		c0.4,0.23,0.8,0.32,1.23,0.47c0.05,0.02,0.04,0.13,0.01,0.2c-0.22,0.49-0.45,0.93-0.59,1.44c-0.42,1.52-0.64,3.1-1.01,4.63
		c0.96-0.45,1.93-0.73,2.89-1.18c-0.05,0.07-0.1,0.14-0.15,0.22c-0.27,0.44-0.5,0.93-0.69,1.45c-0.37,1.05-0.53,2.23-0.48,3.4
		c0.05,1.17,0.33,2.32,0.8,3.3c0.12,0.24,0.25,0.48,0.39,0.7c0.07,0.11,0.14,0.22,0.22,0.33c0.07,0.09,0.15,0.2,0.22,0.29
		c0.31,0.38,0.64,0.72,1,1.01c0.72,0.57,1.52,0.93,2.34,1.05c0.55,0.08,1.12,0.04,1.66-0.1c0.03,0.04,0.06,0.09,0.09,0.13
		c0.02,0.29,0.04,0.56,0.05,0.83c-1.11,1.67-2.82,2.48-3.78,4.39c-0.46,0.88-0.76,2-0.75,3.57c1.64-0.2,2.88-1,3.65-2.47
		c0.56-1.03,0.88-2.4,0.96-4.14c0.01,0.1,0.01,0.18,0.02,0.27c0,0,0,0,0,0.01h0c0.08,1.44,0.13,2.62,0.14,3.61
		c0,0.24,0,0.47-0.01,0.71c-0.04,1.54-0.21,2.64-0.59,3.77c-0.7-2.04-1.31-1.75-1.9-0.74c-0.46,0.74-0.9,1.93-1.37,2.86
		c-0.04,0.07-0.07,0.14-0.11,0.2c-0.63,0.93-1.59,0.92-1.59,0.92c0.02,0.03,0.05,0.05,0.08,0.07C3.92,52.7,3.87,52.7,3.87,52.7
		c1.69,1.66,3.71,2.39,4.66,0.87c0.46-0.66,0.7-1.78,0.59-3.5c0.14-0.59,0.26-1.22,0.35-1.94c-0.02,1.9-0.04,3.83-0.06,5.8
		c-0.62,0.19-1.08,0.92-1.07,1.79c0.01,0.83,0.44,1.52,1.03,1.73c0,0.27-0.01,0.54-0.01,0.81c-0.18,0.16-0.29,0.43-0.3,0.73
		c0,0.3,0.11,0.57,0.28,0.74c-0.01,1.15-0.03,2.3-0.04,3.45c0,0.17,0,0.36-0.01,0.54c0,0.18,0,0.37,0.01,0.54l0,0.02h0.93v-0.02
		c0-0.17,0.01-0.36,0.01-0.54c0-0.18-0.01-0.37-0.01-0.54c-0.01-1.16-0.03-2.31-0.04-3.45c0.17-0.17,0.28-0.43,0.28-0.74
		c0-0.3-0.12-0.57-0.3-0.73c0-0.27-0.01-0.54-0.01-0.81c0.59-0.21,1.02-0.9,1.03-1.73c0.01-0.87-0.45-1.6-1.07-1.79
		c-0.02-1.96-0.04-3.9-0.06-5.8c0.09,0.72,0.21,1.35,0.35,1.94c-0.11,1.72,0.13,2.84,0.59,3.5c0.96,1.53,2.97,0.79,4.66-0.87
		c0,0-0.05,0-0.14-0.01c0.03-0.03,0.05-0.05,0.08-0.07c0,0-0.96,0.02-1.59-0.92c-0.04-0.06-0.08-0.13-0.11-0.2
		c-0.47-0.93-0.91-2.12-1.36-2.86c-0.59-1.02-1.2-1.31-1.91,0.74c-0.38-1.12-0.55-2.23-0.59-3.76c0-0.24,0-0.47-0.01-0.7
		c0-0.99,0.05-2.18,0.14-3.62h0.03c0.1,1.61,0.41,2.9,0.94,3.87c0.77,1.48,2.01,2.28,3.65,2.47c0.01-1.56-0.29-2.68-0.75-3.57
		c-0.95-1.91-2.66-2.71-3.77-4.38c0-0.03,0-0.06,0-0.09c0.02-0.24,0.03-0.48,0.05-0.74c0.38-0.63,0.84-1.15,1.32-1.65H11.6
		c0.14-0.15,0.28-0.3,0.4-0.47c0.31-0.39,0.57-0.8,0.81-1.25c0.24-0.45,0.45-0.92,0.64-1.42c0.36-0.99,0.62-2.06,0.72-3.16
		c0.11-1.09,0.08-2.21-0.07-3.28c-0.05-0.36-0.12-0.71-0.2-1.05c0.17,0.01,0.43,0.1,0.48-0.1c0.18-0.66,0.04-1.35-0.14-2.09
		c-0.02-0.07,0.05-0.15,0.09-0.16c0.35-0.08,0.69-0.16,1.02-0.25l0,0c0,0,0,0,0,0c0.07-0.43,0.13-0.87,0.19-1.33
		c0.01-0.06,0.07-0.15,0.12-0.12c0.57,0.24,1.09,0.42,1.6,0.19c0.15-0.07,0.09-0.4,0.08-0.63c0.26,0.1,0.53,0.19,0.8,0.26
		c0.82,0.2,1.67,0.23,2.5,0.09c0.47-0.08,0.92-0.21,1.37-0.4c0.19-0.45,0.33-0.91,0.4-1.37c0.14-0.84,0.11-1.68-0.09-2.5
		c-0.07-0.27-0.16-0.54-0.26-0.8c0.23,0.01,0.56,0.08,0.63-0.08c0.23-0.5,0.06-1.03-0.19-1.6c-0.02-0.06,0.06-0.12,0.12-0.12
		c0.46-0.06,0.9-0.12,1.33-0.19c0,0,0,0,0,0l0,0c0.09-0.33,0.17-0.67,0.25-1.02c0.01-0.05,0.09-0.11,0.16-0.09
		c0.74,0.18,1.43,0.32,2.09,0.14c0.2-0.05,0.11-0.31,0.1-0.48c0.34,0.08,0.7,0.15,1.05,0.2c1.07,0.15,2.18,0.18,3.28,0.07
		c1.09-0.1,2.16-0.36,3.16-0.72c0.49-0.18,0.97-0.4,1.42-0.64c0.45-0.24,0.86-0.51,1.25-0.81c0.16-0.13,0.32-0.27,0.47-0.4v0.03
		c0.5-0.47,1.02-0.93,1.65-1.32c0.25-0.02,0.5-0.03,0.74-0.05c0.03,0,0.06,0,0.09,0c1.67,1.12,2.47,2.82,4.38,3.77
		c0.88,0.46,2,0.76,3.57,0.75c-0.2-1.64-1-2.88-2.47-3.65c-0.97-0.53-2.26-0.85-3.87-0.94v-0.03c1.44-0.08,2.63-0.13,3.62-0.14
		c0.23,0,0.47,0,0.7,0.01c1.54,0.04,2.64,0.21,3.76,0.59c-2.04,0.7-1.75,1.31-0.74,1.91c0.74,0.45,1.93,0.9,2.86,1.36
		c0.07,0.03,0.13,0.07,0.2,0.11c0.94,0.63,0.92,1.59,0.92,1.59c0.03-0.03,0.05-0.05,0.07-0.08c0.01,0.08,0.01,0.14,0.01,0.14
		c1.66-1.7,2.39-3.71,0.87-4.66c-0.66-0.46-1.78-0.69-3.5-0.59c-0.59-0.14-1.22-0.26-1.94-0.35c1.89,0.02,3.83,0.04,5.8,0.06
		c0.19,0.62,0.92,1.08,1.79,1.07c0.83-0.01,1.52-0.44,1.73-1.03c0.27,0,0.54,0.01,0.81,0.01c0.16,0.18,0.43,0.3,0.73,0.3
		c0.3,0,0.57-0.11,0.74-0.28c1.15,0.01,2.3,0.03,3.45,0.04c0.17,0,0.36,0.01,0.54,0.01c0.18,0,0.37-0.01,0.54-0.01l0.02,0V9.29
		L64.27,9.29z M12.72,33.5c-0.18,0.42-0.38,0.83-0.61,1.2c-0.23,0.38-0.47,0.74-0.73,1.04c-0.52,0.62-1.14,1.08-1.79,1.35
		c-1.31,0.55-2.77,0.32-3.94-0.63c-0.29-0.23-0.57-0.51-0.83-0.82c-0.07-0.08-0.12-0.15-0.19-0.24c-0.05-0.07-0.11-0.16-0.17-0.24
		c-0.11-0.17-0.21-0.36-0.31-0.54c-0.38-0.76-0.6-1.65-0.67-2.58c-0.06-0.92,0.04-1.87,0.32-2.73c0.14-0.43,0.31-0.83,0.52-1.2
		c0.21-0.37,0.45-0.69,0.72-0.95c0.15-0.14,0.3-0.26,0.47-0.36c0.06,0.33,0.12,0.66,0.21,0.98c0.18,0.6,0.31,1.23,0.61,1.75
		c0.72-0.71,1.16-1.79,1.56-2.86c0.34,0.17,0.65,0.41,0.94,0.73c0.27,0.3,0.5,0.66,0.67,1.09c0.17,0.43,0.28,0.9,0.32,1.4
		c0.08,0.99-0.13,2.05-0.6,2.87c0.28-0.35,0.51-0.8,0.66-1.29c0.16-0.5,0.24-1.04,0.24-1.6c0.01-1.11-0.34-2.24-0.94-3.02
		c-0.3-0.4-0.64-0.72-1.02-0.96c0.01-0.04,0.02-0.08,0.04-0.12c0.47-1.71,0.42-3.53,0.62-5.42c0.12-1.1,0.36-2.14,0.96-2.87
		c-0.03,0.62-0.16,1.21-0.18,1.85c-0.01,0.47,0.01,0.91,0.07,1.38c0.12,1.1,0.41,2.04,0.88,2.93c0.27,0.51,0.57,0.94,0.91,1.34
		c0.55,0.67,1.35,1.28,1.97,1.52c0.08,0.42,0.13,0.85,0.16,1.28C13.75,29.76,13.43,31.8,12.72,33.5z M18.24,21.66
		c-0.33-0.04-0.66-0.11-0.98-0.21c-0.19-0.81-0.65-1.85-1.16-2.58c-0.31-0.44-0.64-0.83-1.03-1.18c-0.68-0.61-1.39-0.99-2.24-1.15
		c-0.36-0.07-0.69-0.09-1.05-0.09c-0.49,0.01-0.94,0.19-1.41,0.23c0.56-0.78,1.36-1.1,2.19-1.25c0.86-0.16,1.7-0.2,2.52-0.33
		c0.14-0.82,0.18-1.66,0.33-2.52c0.15-0.84,0.47-1.64,1.25-2.19c-0.04,0.47-0.22,0.92-0.23,1.41c-0.01,0.36,0.02,0.69,0.09,1.05
		c0.16,0.84,0.54,1.56,1.15,2.24c0.35,0.39,0.75,0.72,1.18,1.03c0.72,0.51,1.77,0.98,2.58,1.16c0.1,0.32,0.17,0.65,0.21,0.98
		c0.15,1.03,0.01,2.07-0.38,3.03C20.31,21.66,19.27,21.8,18.24,21.66z M37.09,9.59c-0.27,0.65-0.73,1.27-1.35,1.79
		c-0.3,0.26-0.66,0.5-1.04,0.73c-0.38,0.23-0.78,0.43-1.2,0.61c-1.7,0.71-3.74,1.03-5.75,0.87c-0.43-0.03-0.86-0.09-1.28-0.16
		c-0.24-0.62-0.86-1.42-1.52-1.97c-0.41-0.34-0.84-0.64-1.34-0.91c-0.88-0.47-1.83-0.76-2.93-0.88C20.21,9.62,19.77,9.6,19.3,9.6
		c-0.64,0.01-1.22,0.15-1.85,0.18c0.73-0.6,1.78-0.84,2.87-0.96c1.89-0.2,3.71-0.15,5.42-0.62c0.04-0.01,0.08-0.02,0.12-0.04
		c0.24,0.38,0.57,0.72,0.96,1.02c0.78,0.6,1.91,0.95,3.02,0.94c0.55,0,1.1-0.08,1.6-0.24c0.49-0.16,0.94-0.38,1.29-0.66
		c-0.82,0.47-1.88,0.69-2.87,0.6c-0.49-0.04-0.97-0.15-1.4-0.32c-0.42-0.17-0.79-0.4-1.09-0.67c-0.32-0.28-0.56-0.6-0.73-0.94
		c1.07-0.41,2.15-0.84,2.86-1.56c-0.52-0.3-1.15-0.43-1.75-0.61c-0.32-0.1-0.65-0.16-0.98-0.21c0.1-0.16,0.22-0.32,0.36-0.47
		c0.26-0.27,0.58-0.51,0.95-0.72c0.37-0.21,0.77-0.39,1.2-0.52c0.86-0.27,1.81-0.38,2.73-0.32c0.92,0.06,1.82,0.29,2.58,0.67
		c0.19,0.09,0.37,0.19,0.54,0.31c0.09,0.05,0.17,0.11,0.25,0.17c0.09,0.07,0.16,0.12,0.24,0.19c0.31,0.25,0.59,0.53,0.82,0.83
		C37.42,6.82,37.64,8.28,37.09,9.59z"/>
</g>
</svg>
