<?xml version="1.0" encoding="utf-8"?>
<!-- Generator: Adobe Illustrator 23.0.3, SVG Export Plug-In . SVG Version: 6.00 Build 0)  -->
<svg version="1.1" id="Layer_1" xmlns="http://www.w3.org/2000/svg" xmlns:xlink="http://www.w3.org/1999/xlink" x="0px" y="0px"
	 viewBox="0 0 78.34 78.34" style="enable-background:new 0 0 78.34 78.34;" xml:space="preserve">
<g>
	<path d="M77.62,23.27H24.56c-0.01,0-0.01,0-0.02,0c-0.01,0-0.02,0-0.02,0c0,0,0,0,0,0c-0.21-0.14-0.4-0.28-0.59-0.44
		c-0.27-0.33-0.59-0.63-0.92-0.9c-0.05-0.06-0.1-0.12-0.15-0.17c-0.08-0.1-0.04-0.18,0.09-0.18h54.67c0.97,0,0.97-1.51,0-1.51H42.47
		c-0.13,0-0.13-0.03-0.01-0.07c1.72-0.59,3.55-1.47,5.49-2.81c5.21-3.61,5.92-9.62,5.51-11.77C53.05,3.25,51.4-0.07,47.28,0
		c-3.57,0.06-4.99,2.45-4.92,4.74c0.08,2.6,3.29,3.9,5.04,2.89c1.75-1,1.37-3.15,0.39-3.91c-1.14-0.88-2.25-0.67-2.85,0.31
		c-0.58,0.94,0.19,1.86,0.55,2.23c0.09,0.09,0.07,0.17-0.06,0.16c-0.32-0.02-0.9-0.12-1.3-0.62c-0.59-0.72-0.55-1.59-0.23-2.42
		c0.69-1.8,2.96-2.14,4.63-1.35c1.63,0.77,2.66,2.63,2.18,5.11c-0.83,4.25-3.2,6.06-3.9,6.52c-0.11,0.07-0.23,0.22-0.28,0.34
		c-0.14,0.33-0.47,1.02-1.21,2.05c-0.8,1.11-2.11,1.46-2.73,1.56c-0.13,0.02-0.17-0.05-0.1-0.16c0.9-1.37,1.33-1.78,2.71-2.28
		c0.98-0.35,0.57-1.25,1.3-1.58c0.12-0.05,0.14-0.14,0.03-0.2c-0.94-0.56-1.85-0.18-2.51,0.06c-0.12,0.04-0.16-0.01-0.08-0.11
		c1.38-2.03,0.57-3.9-0.41-4.79c-0.09-0.09-0.18-0.04-0.21,0.08c-0.15,0.53-0.77,1.34-1.37,1.49c-0.65,0.16-0.94,0.6-1.13,1.8
		c-0.02,0.13-0.07,0.13-0.13,0.02c-0.66-1.34-2.04-1.55-2.59-1.59c-0.13-0.01-0.16,0.07-0.08,0.17c0.33,0.43,1.05,1.7,0.62,4.34
		c-0.05,0.33-0.19,0.63-0.38,0.9c-0.07,0.1-0.1,0.09-0.05-0.03c0.38-1.07,0.07-2.44-2.2-3.03c-0.12-0.03-0.19,0.04-0.16,0.17
		c0.37,1.3,0.36,2.34,0.07,3.24c-0.04,0.12-0.07,0.12-0.07-0.01c0-0.21-0.02-0.39-0.03-0.51c-0.02-0.13-0.12-0.29-0.24-0.34
		c-0.19-0.07-0.49-0.13-0.88-0.03c-0.12,0.03-0.15-0.01-0.09-0.12c0.36-0.66,0.61-2.13,0.22-3.24c-0.44-1.24-2.36-2.6-2.82-2.67
		c-0.23-0.04-0.32,0.54-0.36,0.88c-0.01,0.13-0.09,0.15-0.2,0.09c-0.24-0.13-0.78-0.33-2.02-0.56c-1.71-0.32-3.11,1.32-3.53,1.89
		c-0.08,0.1-0.05,0.24,0.06,0.31l0.3,0.19c0.11,0.07,0.29,0.17,0.41,0.2c0.92,0.21,1.73-1.12,4.07-0.28
		c2.52,0.91,2.78,2.98,2.72,3.58c-0.06,0.6-0.88,3.16-2.8,4.03c-0.9,0.41-1.81,0.21-4,0.31c-0.4-0.02-0.8-0.01-1.18,0.01
		c-0.13,0.01-0.13-0.01,0-0.03c1.03-0.17,2.1-0.28,3.58-0.26c2.51,0.04,3.37-2.01,3.73-2.79c0.36-0.79,0.76-2.91-1.79-4.3
		c-2.29-1.25-4.33,0.25-4.56,1.76c-0.02,0.13-0.04,0.33-0.05,0.46c-0.01,0.08-0.01,0.16,0,0.25c0.01,0.13-0.08,0.23-0.21,0.23h-5.77
		c-0.45,0-0.69,0.32-0.72,0.67c-0.01,0.09-0.01,0.23-0.01,0.35l1.14,3.38c0.15,0.45,0.02,0.76-0.09,0.92
		c-0.01,0.01-0.01,0.02-0.02,0.02c-0.06,0.09-0.14,0.16-0.22,0.22c-0.15,0.1-0.33,0.16-0.53,0.16c-0.13,0-0.26-0.02-0.39-0.07
		l-3.38-1.14c-0.12,0-0.25,0-0.35,0.01c-0.35,0.03-0.67,0.28-0.67,0.72v5.77c0,0.13-0.1,0.21-0.23,0.21c-0.08,0-0.17,0-0.25,0
		c-0.13,0.01-0.33,0.03-0.46,0.05c-1.51,0.22-3.01,2.27-1.76,4.56c1.39,2.55,3.51,2.15,4.3,1.79c0.79-0.36,2.83-1.21,2.79-3.73
		c-0.02-1.49,0.09-2.56,0.26-3.58c0.02-0.13,0.03-0.13,0.03,0c-0.02,0.39-0.02,0.78-0.01,1.18c-0.1,2.19,0.1,3.11-0.31,4
		c-0.87,1.93-3.43,2.75-4.03,2.8c-0.6,0.06-2.67-0.2-3.58-2.72c-0.84-2.34,0.48-3.15,0.28-4.07c-0.03-0.12-0.13-0.31-0.2-0.41
		l-0.19-0.3c-0.07-0.11-0.21-0.14-0.31-0.06c-0.57,0.43-2.21,1.82-1.89,3.53c0.23,1.23,0.43,1.78,0.56,2.02
		c0.06,0.11,0.04,0.19-0.09,0.2c-0.34,0.04-0.92,0.13-0.88,0.36c0.08,0.45,1.44,2.38,2.67,2.82c1.11,0.39,2.58,0.14,3.24-0.22
		c0.11-0.06,0.15-0.03,0.12,0.09c-0.1,0.39-0.04,0.7,0.03,0.88c0.05,0.12,0.21,0.23,0.33,0.24c0.13,0.02,0.31,0.03,0.51,0.03
		c0.13,0,0.14,0.04,0.01,0.07c-0.9,0.29-1.95,0.3-3.24-0.07c-0.12-0.04-0.2,0.03-0.17,0.16c0.59,2.27,1.96,2.58,3.03,2.2
		c0.12-0.04,0.14-0.02,0.03,0.05c-0.27,0.19-0.56,0.32-0.9,0.38c-2.65,0.44-3.92-0.28-4.34-0.62c-0.1-0.08-0.18-0.05-0.17,0.08
		c0.03,0.55,0.25,1.92,1.59,2.59c0.11,0.06,0.11,0.11-0.02,0.13c-1.2,0.19-1.64,0.48-1.8,1.13c-0.15,0.59-0.96,1.22-1.49,1.37
		c-0.12,0.03-0.17,0.12-0.08,0.21c0.89,0.98,2.76,1.78,4.79,0.41c0.11-0.07,0.16-0.04,0.11,0.08c-0.24,0.66-0.62,1.57-0.06,2.51
		c0.07,0.11,0.15,0.09,0.2-0.03c0.33-0.72,1.23-0.32,1.58-1.3c0.49-1.39,0.91-1.81,2.28-2.71c0.11-0.07,0.18-0.02,0.16,0.1
		c-0.1,0.62-0.45,1.93-1.56,2.73c-1.04,0.74-1.73,1.08-2.06,1.21c-0.12,0.05-0.27,0.17-0.34,0.28c-0.45,0.7-2.27,3.08-6.52,3.9
		c-2.48,0.48-4.34-0.55-5.11-2.18c-0.79-1.66-0.45-3.94,1.35-4.63c0.84-0.32,1.7-0.36,2.42,0.23c0.49,0.4,0.6,0.98,0.62,1.3
		c0.01,0.13-0.07,0.15-0.16,0.06c-0.36-0.36-1.29-1.13-2.23-0.55c-0.98,0.6-1.19,1.72-0.31,2.85c0.76,0.97,2.9,1.36,3.91-0.39
		c1-1.75-0.29-4.96-2.89-5.04C2.45,42.29,0.07,43.71,0,47.28c-0.07,4.12,3.25,5.77,5.4,6.18c2.15,0.41,8.17-0.3,11.77-5.51
		c1.34-1.94,2.22-3.77,2.81-5.49c0.04-0.12,0.07-0.12,0.07,0.01v35.15c0,0.97,1.51,0.97,1.51,0V22.95c0-0.13,0.08-0.17,0.18-0.09
		c0.06,0.05,0.12,0.1,0.17,0.15c0.27,0.33,0.57,0.65,0.9,0.92c0.16,0.19,0.3,0.39,0.44,0.6c0,0,0,0,0,0c0,0,0,0.01,0,0.02
		c0,0,0,0.01,0,0.02v53.06c0,0.97,1.51,0.97,1.51,0c0-3.59,0-24.22,0-27.81c0-6.14,0-12.29,0-18.43c0-1.69,0-3.38,0-5.08
		c0-0.52,0.02-1.04-0.03-1.55c0.51,0.05,1.03,0.03,1.55,0.03c1.69,0,3.38,0,5.08,0c6.14,0,12.29,0,18.43,0c3.59,0,24.22,0,27.81,0
		C78.59,24.78,78.59,23.27,77.62,23.27z M44.82,17.68c0.5-0.41,1.96-1.64,3.38-3.12c1.42-1.48,2.53-3.27,3.07-4.47
		c1.17-2.6,0.64-4.66,0.1-6.15c-0.13-0.35-0.18-0.72-0.27-1.02c-0.04-0.12-0.02-0.13,0.05-0.03c1.48,2.22,1.76,4.39,0.73,7.17
		c-0.44,1.2-1.73,3.22-3.22,4.68c-1.13,1.11-2.21,2.04-3.01,2.57c-0.32,0.21-0.61,0.35-0.8,0.43
		C44.74,17.79,44.72,17.76,44.82,17.68z M45.43,13.88c0.13-0.02,0.13,0.01,0.02,0.07c-0.52,0.24-1.86,0.95-2.87,2.38
		c-0.94,1.35-1.75,2.07-2.1,2.35c-0.1,0.08-0.11,0.07-0.03-0.03c0.51-0.59,1.05-1.6,1.95-2.87C43.44,14.3,44.87,13.96,45.43,13.88z
		 M41.2,15.25c1.44-2.16,2.07-4.44,2.24-5.15c0.03-0.12,0.06-0.12,0.05,0.01c-0.01,0.64-0.18,2.52-1.6,5
		c-1.38,2.4-3.65,3.49-4.36,3.79c-0.12,0.05-0.13,0.03-0.02-0.03C38.1,18.51,39.8,17.35,41.2,15.25z M35.55,17.72
		c0.04-0.11,0.11-0.23,0.16-0.27c0.03-0.03,0.06-0.05,0.08-0.08c0.37-0.37,1.03-0.88,1.27-1.9c0.2-0.82,0.02-1.37-0.13-1.65
		c-0.06-0.11-0.06-0.11,0.02-0.01c0.3,0.43,0.92,1.45,0.48,2.21c-0.27,0.46-0.54,0.8-0.79,1.06c-0.09,0.09-0.25,0.22-0.36,0.29
		c-0.24,0.15-0.48,0.31-0.69,0.46c-0.02,0.01-0.04,0.03-0.06,0.04C35.49,17.9,35.5,17.83,35.55,17.72z M39.38,15.38
		c0.84-1.47,0.21-3.25-0.05-3.85c-0.05-0.12-0.04-0.12,0.02-0.01c0.35,0.6,1.27,2.46,0.49,4c-0.92,1.82-2.51,2.79-4.93,3.82
		c-0.12,0.05-0.12,0.05-0.01-0.01C35.65,18.95,38.22,17.52,39.38,15.38z M32.44,11.85c-0.17-0.15-0.45-0.37-0.83-0.56
		c-0.33-0.16-1.16-0.35-1.74-0.41c-0.69-0.07-1.15,0.26-1.82,0.38c-0.39,0.07-0.73,0.12-0.93,0.14c-0.13,0.02-0.14-0.03-0.03-0.09
		c0.49-0.27,1.78-0.91,3.04-0.82c1.23,0.09,2.04,0.95,2.35,1.34C32.55,11.92,32.54,11.93,32.44,11.85z M32.79,10.49
		c-0.08-0.1-0.05-0.13,0.05-0.05c0.33,0.26,1,0.86,1.27,1.55c0.35,0.91,0.19,1.74,0.07,2.11c-0.04,0.12-0.08,0.11-0.09-0.01
		c-0.02-0.42-0.09-1.31-0.27-1.85C33.64,11.68,33.06,10.86,32.79,10.49z M31.44,19.69c1.02-0.46,1.73-0.87,2.37-1.53
		c0.57-0.59,0.92-1.45,1.07-1.85c0.04-0.12,0.08-0.12,0.08,0.01c-0.01,0.47-0.13,1.56-0.95,2.3c-0.15,0.14-0.32,0.26-0.48,0.36
		c-0.11,0.07-0.29,0.16-0.41,0.22c-0.56,0.24-0.94,0.36-0.94,0.36s-0.27,0.08-0.72,0.17C31.33,19.77,31.32,19.75,31.44,19.69z
		 M18.54,29.23c-0.08,0.26-0.18,0.53-0.32,0.76c-0.61,1.01-1.4,1.12-1.79,1.11c-0.13,0-0.13-0.03,0-0.07
		c0.3-0.08,0.84-0.32,1.32-1.03c0.58-0.87,0.52-1.69,0.54-2.22c0.01-0.27,0.48-1.04,0.45-0.01C18.73,28.17,18.67,28.71,18.54,29.23z
		 M18.76,24.8c0,0.13-0.06,0.31-0.14,0.41c-0.22,0.28-0.49,0.59-0.67,0.74c-0.1,0.08-0.2,0.17-0.2,0.3
		c-0.06,1.96-0.47,3.47-2.76,4.63c-0.11,0.06-0.12,0.16-0.02,0.23c0.53,0.34,1,0.53,1.43,0.62c0.13,0.03,0.13,0.08,0.01,0.12
		c-0.29,0.1-0.59,0.14-0.89,0.11c-1.2-0.14-2.15-1.17-2.21-2.19c-0.01-0.13,0.07-0.15,0.16-0.06c0.15,0.15,0.32,0.27,0.53,0.36
		c0.98,0.45,2.13,0.02,2.57-0.96c0.18-0.39,0.21-0.8,0.14-1.19c-0.03-0.13-0.06-0.33-0.06-0.46v-6.1c0-0.13,0.1-0.23,0.23-0.22
		c0.82,0.12,2,0.87,1.96,1.21C18.75,23.18,18.76,23.83,18.76,24.8z M11.31,27.09c0.06-0.11,0.11-0.1,0.09,0.03
		c-0.03,0.21-0.07,0.54-0.14,0.93c-0.12,0.66-0.45,1.12-0.38,1.82c0.06,0.58,0.25,1.41,0.41,1.74c0.19,0.38,0.41,0.66,0.56,0.83
		c0.09,0.1,0.07,0.11-0.03,0.03c-0.39-0.31-1.25-1.12-1.34-2.35C10.39,28.87,11.03,27.58,11.31,27.09z M14.1,34.18
		c-0.38,0.12-1.2,0.28-2.11-0.07c-0.68-0.27-1.28-0.94-1.54-1.27c-0.08-0.1-0.06-0.12,0.05-0.05c0.37,0.27,1.19,0.85,1.75,1.03
		c0.54,0.18,1.43,0.25,1.85,0.27C14.22,34.1,14.23,34.14,14.1,34.18z M13.82,36.95c-0.1-0.07-0.1-0.07,0.01-0.02
		c0.28,0.14,0.83,0.33,1.65,0.13c1.02-0.24,1.52-0.9,1.9-1.27c0.03-0.03,0.05-0.06,0.08-0.08c0.04-0.05,0.16-0.12,0.27-0.16
		c0.11-0.04,0.17-0.06,0.15-0.02c-0.01,0.02-0.03,0.04-0.04,0.06c-0.16,0.22-0.31,0.45-0.46,0.69c-0.07,0.11-0.2,0.27-0.29,0.36
		c-0.26,0.25-0.59,0.52-1.06,0.79C15.27,37.87,14.24,37.25,13.82,36.95z M17.74,44.86c-0.08,0.19-0.21,0.48-0.43,0.8
		c-0.53,0.8-1.46,1.88-2.57,3.01c-1.46,1.49-3.49,2.78-4.68,3.22c-2.78,1.03-4.95,0.75-7.17-0.73c-0.11-0.07-0.1-0.09,0.03-0.05
		c0.3,0.09,0.67,0.14,1.02,0.27c1.49,0.54,3.54,1.06,6.15-0.1c1.2-0.54,2.99-1.65,4.47-3.07c1.48-1.42,2.71-2.88,3.12-3.38
		C17.76,44.72,17.79,44.74,17.74,44.86z M18.68,40.47c-0.28,0.35-1,1.16-2.35,2.1c-1.43,1-2.15,2.35-2.38,2.87
		c-0.05,0.12-0.09,0.11-0.07-0.02c0.08-0.55,0.42-1.99,1.9-3.03c1.28-0.9,2.28-1.44,2.87-1.95C18.75,40.36,18.76,40.37,18.68,40.47z
		 M18.89,37.54c-0.29,0.71-1.38,2.97-3.79,4.36c-2.47,1.42-4.36,1.59-5,1.6c-0.13,0-0.13-0.02-0.01-0.05c0.71-0.17,3-0.8,5.15-2.24
		c2.1-1.4,3.25-3.1,3.6-3.68C18.92,37.42,18.94,37.42,18.89,37.54z M19.34,34.91c-1.03,2.42-2,4.01-3.82,4.93
		c-1.54,0.78-3.4-0.15-4-0.49c-0.11-0.06-0.11-0.07,0.01-0.02c0.6,0.26,2.39,0.89,3.85,0.05c2.14-1.16,3.57-3.72,3.95-4.47
		C19.39,34.79,19.39,34.79,19.34,34.91z M19.74,31.46c-0.09,0.45-0.17,0.72-0.17,0.72s-0.12,0.37-0.36,0.94
		c-0.05,0.12-0.15,0.3-0.21,0.41c-0.11,0.17-0.23,0.33-0.36,0.48c-0.74,0.82-1.83,0.94-2.3,0.95c-0.13,0-0.13-0.04-0.01-0.08
		c0.4-0.15,1.26-0.5,1.85-1.07c0.66-0.64,1.07-1.35,1.53-2.37C19.75,31.32,19.77,31.33,19.74,31.46z M29.99,18.22
		c-0.23,0.14-0.49,0.24-0.76,0.32c-0.52,0.12-1.06,0.19-1.47,0.2c-1.03,0.03-0.26-0.45,0.01-0.45c0.53-0.02,1.36,0.04,2.22-0.54
		c0.72-0.48,0.95-1.02,1.03-1.32c0.03-0.12,0.06-0.13,0.07,0C31.11,16.82,31,17.61,29.99,18.22z M21.15,16.89
		c-0.02-0.13,0.09-0.23,0.22-0.23h6.1c0.13,0,0.33,0.03,0.46,0.06c0.39,0.08,0.8,0.04,1.19-0.14c0.98-0.45,1.41-1.6,0.96-2.57
		c-0.09-0.2-0.22-0.38-0.36-0.53c-0.09-0.09-0.07-0.17,0.06-0.16c1.02,0.06,2.06,1.01,2.19,2.21c0.03,0.3-0.01,0.59-0.11,0.89
		c-0.04,0.12-0.1,0.11-0.12-0.01c-0.09-0.42-0.28-0.9-0.62-1.43c-0.07-0.11-0.17-0.1-0.23,0.02c-1.16,2.29-2.67,2.7-4.64,2.76
		c-0.13,0-0.22,0.1-0.3,0.2c-0.15,0.18-0.47,0.44-0.74,0.67c-0.1,0.08-0.29,0.14-0.41,0.14c-0.96-0.01-1.61-0.01-2.44,0.08
		C22.02,18.89,21.27,17.71,21.15,16.89z"/>
	<path d="M14.48,17.86c0.1,0.3,0.43,0.63,0.74,0.73L19,19.87l0.76,0.26c0.06,0.02,0.12,0.03,0.17,0.03c0.01,0,0.02,0,0.03,0
		c0.12-0.01,0.19-0.08,0.2-0.2c0-0.06,0-0.12-0.03-0.19l-0.26-0.76l-1.28-3.79c-0.1-0.3-0.43-0.63-0.73-0.74l-4.55-1.54
		c-0.06-0.02-0.12-0.03-0.17-0.03c-0.19,0-0.28,0.15-0.2,0.39L14.48,17.86z"/>
</g>
</svg>
