<?xml version="1.0" encoding="utf-8"?>
<!-- Generator: Adobe Illustrator 23.0.3, SVG Export Plug-In . SVG Version: 6.00 Build 0)  -->
<svg version="1.1" id="Layer_1" xmlns="http://www.w3.org/2000/svg" xmlns:xlink="http://www.w3.org/1999/xlink" x="0px" y="0px"
	 viewBox="0 0 68.93 69.14" style="enable-background:new 0 0 68.93 69.14;" xml:space="preserve">
<g>
	<g>
		<path d="M61.1,17.58c-1.58,0-2.87,1.19-3.04,2.72l-13.51-0.12c0.18-0.09,0.35-0.18,0.53-0.28c0.31-0.18,0.61-0.37,0.9-0.58
			c0.02,0.07,0.05,0.13,0.07,0.2c-0.02-0.07-0.04-0.14-0.06-0.21c0.91-0.67,1.7-1.51,2.31-2.47c0.81-1.26,1.3-2.73,1.42-4.23
			c0.01-0.17,0.02-0.33,0.02-0.5c0.67-0.23,1.38-0.3,2.08-0.21c0.73,0.09,1.43,0.37,2.02,0.79c0.6,0.42,1.09,0.98,1.42,1.63
			c0.17,0.32,0.3,0.67,0.37,1.02c0.08,0.35,0.1,0.71,0.06,1.07c-0.06,0.71-0.35,1.41-0.81,1.96c-0.46,0.55-1.09,0.96-1.78,1.15
			c-0.68,0.18-1.44,0.09-2.06-0.25c-0.63-0.34-1.12-0.92-1.34-1.61c-0.22-0.67-0.1-1.45,0.33-2.03c0.42-0.57,1.14-0.97,1.86-0.89
			c0.36,0.03,0.71,0.18,0.99,0.41c0.28,0.23,0.5,0.55,0.6,0.91c0.1,0.35,0.07,0.75-0.1,1.08c-0.16,0.34-0.46,0.62-0.82,0.76
			c0.37-0.11,0.7-0.37,0.89-0.72c0.2-0.34,0.26-0.76,0.17-1.16c-0.09-0.39-0.31-0.75-0.61-1.02c-0.3-0.27-0.68-0.45-1.09-0.51
			c-0.41-0.06-0.83,0.02-1.2,0.19c-0.37,0.17-0.7,0.43-0.96,0.76c-0.51,0.65-0.7,1.55-0.46,2.36c0.23,0.79,0.78,1.49,1.5,1.89
			c0.72,0.41,1.6,0.54,2.41,0.33c0.8-0.21,1.52-0.67,2.05-1.3c0.53-0.63,0.86-1.42,0.94-2.24c0.04-0.41,0.01-0.83-0.08-1.23
			c-0.09-0.4-0.24-0.79-0.42-1.15c-0.38-0.72-0.93-1.35-1.6-1.8c-0.67-0.46-1.45-0.75-2.25-0.84c-0.72-0.09-1.46,0-2.13,0.23
			c-0.01-0.44-0.05-0.89-0.13-1.33c-0.14-0.75-0.4-1.48-0.76-2.15c-0.73-1.35-1.88-2.46-3.24-3.14c-1.37-0.69-2.93-0.96-4.45-0.73
			c-1.53,0.24-2.95,1.1-3.88,2.33c-0.47,0.61-0.82,1.31-1.02,2.05c-0.2,0.74-0.26,1.52-0.17,2.28c0.18,1.55,1.15,2.97,2.5,3.69
			c0.67,0.37,1.43,0.57,2.19,0.58c0.75,0.02,1.54-0.16,2.19-0.56c0.65-0.4,1.17-0.99,1.48-1.67c0.31-0.68,0.42-1.45,0.29-2.18
			c-0.14-0.74-0.55-1.4-1.14-1.84c-0.59-0.44-1.33-0.63-2.03-0.56c0.71-0.02,1.41,0.24,1.92,0.69c0.52,0.45,0.86,1.09,0.93,1.75
			c0.07,0.67-0.06,1.36-0.37,1.94c-0.31,0.59-0.79,1.07-1.37,1.38c-0.58,0.32-1.22,0.44-1.88,0.39c-0.65-0.04-1.29-0.24-1.85-0.58
			c-0.55-0.33-1.03-0.79-1.37-1.34c-0.34-0.54-0.55-1.16-0.61-1.8c-0.11-1.3,0.29-2.62,1.09-3.62c0.8-1.01,1.98-1.7,3.25-1.87
			c1.28-0.18,2.63,0.05,3.78,0.65c1.16,0.59,2.13,1.54,2.74,2.69c0.31,0.57,0.53,1.19,0.66,1.82c0.1,0.53,0.14,1.08,0.12,1.63
			c-1.08,0.64-1.96,1.62-2.47,2.76c-0.45,1.02-0.6,2.17-0.45,3.26c-0.35,0.3-0.73,0.57-1.13,0.81c-1.02,0.6-2.16,0.99-3.35,1.12
			l-2.39-0.02c-2.06-0.25-4.05-1.11-5.64-2.49c-1.05-0.89-1.93-1.99-2.58-3.22c-0.08-0.15-0.16-0.31-0.23-0.47
			c0.02-0.19,0.04-0.38,0.04-0.57c0.01-0.48-0.05-0.96-0.18-1.42c-0.25-0.93-0.77-1.77-1.47-2.43c-0.7-0.65-1.59-1.11-2.53-1.29
			c-0.47-0.09-0.95-0.12-1.44-0.06c-0.49,0.06-0.97,0.2-1.4,0.42c-0.88,0.44-1.59,1.19-1.97,2.08c-0.1,0.22-0.17,0.45-0.23,0.69
			c-0.03,0.12-0.05,0.24-0.07,0.36c-0.01,0.06-0.02,0.12-0.02,0.18c-0.01,0.06-0.01,0.12-0.01,0.18c-0.01,0.11-0.01,0.24-0.01,0.36
			c0,0.12,0.02,0.25,0.03,0.37c0.03,0.24,0.1,0.48,0.18,0.71c0.35,0.92,1.11,1.67,2.02,1.98c0.23,0.08,0.46,0.13,0.7,0.16
			c0.06,0.01,0.12,0.01,0.18,0.02l0.09,0.01l0.08,0c0.12,0,0.24,0,0.36-0.02c0.48-0.06,0.95-0.25,1.32-0.55
			c0.37-0.29,0.67-0.69,0.83-1.13c0.08-0.22,0.13-0.45,0.15-0.68c0.01-0.06,0.01-0.12,0.01-0.17l0-0.04l0-0.05c0-0.03,0-0.06,0-0.09
			c-0.01-0.12-0.02-0.23-0.05-0.34c-0.1-0.45-0.37-0.85-0.72-1.13c-0.35-0.27-0.79-0.42-1.21-0.4c0.21,0.03,0.41,0.09,0.6,0.18
			c0.19,0.09,0.35,0.21,0.5,0.36c0.29,0.29,0.47,0.66,0.51,1.05c0.01,0.1,0.01,0.19,0.01,0.29c0,0.02,0,0.05-0.01,0.07l-0.01,0.07
			c-0.01,0.05-0.01,0.09-0.02,0.14c-0.04,0.19-0.1,0.37-0.19,0.54c-0.17,0.34-0.43,0.63-0.74,0.83c-0.31,0.2-0.67,0.32-1.03,0.33
			c-0.09,0-0.18,0-0.27-0.01l-0.07-0.01l-0.06-0.01c-0.05-0.01-0.09-0.01-0.14-0.02c-0.18-0.04-0.36-0.09-0.53-0.17
			c-0.34-0.15-0.64-0.36-0.88-0.63c-0.24-0.27-0.42-0.59-0.53-0.92c-0.05-0.17-0.09-0.34-0.11-0.52c-0.01-0.09-0.01-0.18-0.01-0.26
			c0-0.09,0.01-0.17,0.02-0.27c0-0.04,0.01-0.09,0.02-0.13c0.01-0.05,0.01-0.09,0.02-0.14c0.02-0.09,0.04-0.18,0.06-0.27
			c0.05-0.17,0.12-0.34,0.19-0.51c0.32-0.65,0.86-1.19,1.51-1.49c0.32-0.15,0.67-0.25,1.03-0.28c0.35-0.04,0.72-0.01,1.08,0.07
			c0.72,0.15,1.4,0.5,1.94,1c0.54,0.5,0.94,1.15,1.14,1.86c0.1,0.35,0.15,0.72,0.16,1.09c0,0.37-0.04,0.76-0.13,1.13
			c-0.16,0.75-0.5,1.45-0.96,2.06c-0.47,0.61-1.07,1.12-1.76,1.48c-0.34,0.18-0.71,0.33-1.09,0.43c-0.38,0.1-0.77,0.16-1.16,0.19
			c-0.4,0.02-0.79-0.01-1.18-0.07c-0.39-0.07-0.78-0.18-1.16-0.33c-0.68-0.27-1.32-0.65-1.93-1.07c0.52-0.21,0.89-0.72,0.89-1.31
			c0-0.78-0.64-1.42-1.42-1.42c-0.34,0-0.66,0.12-0.9,0.32c-0.82-0.19-1.61-0.53-2.23-1.07c-0.42-0.37-0.71-0.85-0.82-1.33
			c0.05-0.02,1.94,1.45,3.73,0.52c0.61-0.31,0.83-0.8,0.84-1.37c0.02-0.71-0.77-1.49-1.8-1.84c-0.75-0.26-1.54-0.29-2.24-0.16
			c-0.33,0.06-0.71,0.19-0.9,0.29c-1.63,0.82-2.05,2.26-1.7,3.6c0.07,0.24,0.16,0.48,0.26,0.71c-0.23-0.1-0.47-0.19-0.71-0.26
			c-1.34-0.36-2.78,0.07-3.6,1.7c-0.1,0.19-0.23,0.57-0.29,0.9c-0.14,0.7-0.1,1.49,0.16,2.24c0.35,1.03,1.13,1.82,1.84,1.8
			c0.57-0.01,1.06-0.23,1.37-0.84c0.93-1.79-0.54-3.68-0.52-3.73c0.47,0.11,0.96,0.39,1.33,0.81c0.54,0.63,0.88,1.41,1.07,2.23
			c-0.2,0.24-0.32,0.56-0.32,0.9c0,0.78,0.64,1.42,1.42,1.42c0.6,0,1.1-0.37,1.31-0.89c0.42,0.62,0.8,1.26,1.07,1.93
			c0.15,0.38,0.27,0.76,0.33,1.16c0.07,0.39,0.09,0.79,0.07,1.18c-0.02,0.39-0.08,0.79-0.19,1.16c-0.1,0.38-0.25,0.74-0.43,1.09
			c-0.36,0.69-0.87,1.29-1.48,1.76c-0.61,0.47-1.32,0.8-2.06,0.96c-0.37,0.08-0.75,0.13-1.13,0.13c-0.37,0-0.74-0.05-1.09-0.16
			c-0.71-0.2-1.36-0.6-1.86-1.14c-0.5-0.54-0.85-1.21-1-1.94c-0.07-0.36-0.1-0.73-0.07-1.08c0.03-0.35,0.13-0.7,0.28-1.03
			c0.3-0.65,0.84-1.19,1.49-1.5c0.16-0.08,0.33-0.14,0.51-0.19c0.09-0.02,0.18-0.05,0.27-0.06c0.04-0.01,0.09-0.02,0.14-0.02
			c0.04-0.01,0.09-0.01,0.13-0.02c0.1-0.01,0.18-0.02,0.27-0.02c0.09,0,0.18,0,0.26,0.01c0.18,0.02,0.35,0.05,0.52,0.11
			c0.34,0.11,0.66,0.29,0.92,0.53c0.27,0.24,0.49,0.54,0.63,0.88c0.07,0.17,0.13,0.34,0.16,0.53c0.01,0.05,0.02,0.09,0.02,0.14
			l0.01,0.06l0.01,0.07c0.01,0.09,0.01,0.18,0.01,0.27c-0.01,0.36-0.13,0.72-0.33,1.03c-0.2,0.31-0.49,0.57-0.83,0.74
			c-0.17,0.09-0.35,0.15-0.54,0.19c-0.05,0.01-0.09,0.02-0.14,0.02l-0.07,0.01c-0.02,0-0.05,0-0.07,0.01c-0.1,0.01-0.19,0-0.29-0.01
			c-0.38-0.04-0.76-0.22-1.05-0.51c-0.14-0.14-0.27-0.31-0.36-0.5c-0.09-0.19-0.15-0.39-0.18-0.6c-0.02,0.42,0.13,0.86,0.4,1.21
			c0.27,0.35,0.67,0.61,1.13,0.72c0.11,0.03,0.23,0.04,0.34,0.05c0.03,0,0.06,0,0.09,0l0.05,0l0.04,0c0.06,0,0.12,0,0.17-0.01
			c0.23-0.02,0.46-0.07,0.68-0.15c0.44-0.16,0.83-0.45,1.13-0.83c0.3-0.37,0.49-0.84,0.55-1.32c0.02-0.12,0.02-0.24,0.02-0.36
			l0-0.08l-0.01-0.09c0-0.06-0.01-0.12-0.02-0.18c-0.03-0.24-0.08-0.47-0.16-0.7c-0.32-0.91-1.06-1.67-1.98-2.02
			c-0.23-0.09-0.47-0.15-0.72-0.18c-0.12-0.02-0.24-0.03-0.37-0.03c-0.12-0.01-0.25,0-0.36,0c-0.06,0-0.12,0.01-0.18,0.02
			c-0.06,0.01-0.12,0.01-0.18,0.02c-0.12,0.02-0.24,0.04-0.36,0.07c-0.23,0.06-0.47,0.13-0.69,0.23c-0.89,0.38-1.64,1.1-2.08,1.97
			c-0.22,0.44-0.36,0.92-0.42,1.4c-0.06,0.49-0.02,0.98,0.06,1.44c0.18,0.94,0.64,1.83,1.29,2.53c0.65,0.7,1.5,1.22,2.43,1.47
			c0.46,0.12,0.94,0.18,1.42,0.18c0.19,0,0.38-0.02,0.57-0.04c0.16,0.07,0.32,0.15,0.47,0.23c1.23,0.65,2.34,1.53,3.22,2.58
			c1.37,1.59,2.23,3.59,2.49,5.64l0.02,2.39c-0.13,1.19-0.51,2.33-1.12,3.35c-0.24,0.4-0.51,0.78-0.81,1.13
			c-1.09-0.16-2.24,0-3.26,0.45c-1.14,0.5-2.12,1.38-2.76,2.47c-0.55,0.02-1.1-0.01-1.63-0.12c-0.64-0.13-1.25-0.35-1.82-0.66
			c-1.14-0.61-2.1-1.58-2.69-2.74c-0.6-1.15-0.83-2.5-0.65-3.78c0.17-1.27,0.86-2.45,1.87-3.25c1.01-0.8,2.33-1.21,3.62-1.09
			c0.63,0.06,1.25,0.27,1.8,0.61c0.54,0.34,1,0.82,1.34,1.37c0.33,0.56,0.53,1.19,0.58,1.85c0.05,0.66-0.08,1.3-0.39,1.88
			c-0.31,0.57-0.79,1.06-1.38,1.37c-0.58,0.31-1.27,0.44-1.94,0.37c-0.66-0.08-1.3-0.41-1.75-0.93c-0.45-0.52-0.71-1.21-0.69-1.92
			c-0.08,0.7,0.12,1.44,0.56,2.03c0.44,0.59,1.1,1,1.84,1.14c0.73,0.13,1.5,0.03,2.18-0.29c0.68-0.31,1.27-0.83,1.67-1.48
			c0.4-0.65,0.59-1.44,0.56-2.19c-0.01-0.76-0.21-1.52-0.58-2.19c-0.72-1.36-2.14-2.32-3.69-2.5c-0.76-0.09-1.54-0.03-2.28,0.17
			c-0.74,0.2-1.44,0.55-2.05,1.02C4.86,38.77,4,40.19,3.76,41.72c-0.23,1.52,0.04,3.09,0.73,4.45c0.69,1.36,1.8,2.51,3.14,3.24
			c0.67,0.36,1.4,0.62,2.15,0.76c0.44,0.08,0.89,0.12,1.33,0.13c-0.23,0.68-0.32,1.42-0.23,2.14c0.09,0.8,0.38,1.58,0.84,2.25
			c0.46,0.67,1.08,1.22,1.8,1.6c0.36,0.19,0.74,0.34,1.15,0.42c0.4,0.09,0.82,0.11,1.23,0.08c0.82-0.08,1.61-0.41,2.24-0.94
			c0.63-0.53,1.1-1.25,1.3-2.05c0.2-0.81,0.08-1.69-0.33-2.41c-0.4-0.72-1.1-1.28-1.89-1.5c-0.81-0.24-1.71-0.06-2.36,0.46
			c-0.32,0.25-0.58,0.59-0.76,0.96c-0.17,0.37-0.25,0.79-0.19,1.2c0.06,0.41,0.24,0.79,0.51,1.09c0.27,0.3,0.63,0.52,1.02,0.61
			c0.39,0.09,0.82,0.03,1.16-0.17c0.34-0.2,0.6-0.52,0.72-0.89c-0.14,0.36-0.42,0.66-0.75,0.82c-0.34,0.17-0.73,0.21-1.08,0.1
			c-0.35-0.11-0.67-0.32-0.91-0.6c-0.23-0.28-0.37-0.63-0.41-0.99c-0.08-0.72,0.32-1.44,0.89-1.86c0.58-0.43,1.36-0.55,2.03-0.33
			c0.69,0.23,1.27,0.72,1.61,1.34c0.34,0.62,0.44,1.38,0.25,2.06c-0.19,0.69-0.6,1.33-1.15,1.78c-0.55,0.46-1.25,0.75-1.96,0.81
			c-0.36,0.03-0.72,0.01-1.07-0.06c-0.35-0.07-0.69-0.21-1.02-0.37c-0.65-0.33-1.21-0.83-1.63-1.43c-0.42-0.6-0.7-1.3-0.79-2.02
			c-0.09-0.69-0.02-1.41,0.21-2.08c0.17,0,0.33-0.01,0.5-0.02c1.5-0.12,2.97-0.6,4.23-1.42c0.96-0.61,1.8-1.4,2.47-2.31
			c0.07,0.02,0.14,0.04,0.21,0.06c-0.06-0.03-0.13-0.05-0.2-0.07c0.21-0.29,0.41-0.59,0.58-0.9c0.1-0.17,0.19-0.35,0.28-0.53
			l0.12,13.51c-1.53,0.17-2.72,1.47-2.72,3.04c0,1.69,1.37,3.06,3.06,3.06c1.69,0,3.06-1.37,3.06-3.06c0-1.59-1.21-2.9-2.76-3.05
			l0.33-37.35l37.35-0.33c0.15,1.55,1.46,2.76,3.05,2.76c1.69,0,3.06-1.37,3.06-3.06C64.16,18.96,62.79,17.58,61.1,17.58z
			 M45.78,17.25c0.06-0.76,0.26-1.5,0.6-2.18c0.48-1,1.26-1.85,2.2-2.42c-0.11,1.28-0.53,2.52-1.2,3.62
			c-0.43,0.7-0.98,1.34-1.6,1.89C45.75,17.86,45.75,17.56,45.78,17.25z M15.69,47.96c-1.09,0.67-2.34,1.09-3.62,1.2
			c0.57-0.94,1.42-1.72,2.42-2.2c0.67-0.34,1.42-0.54,2.18-0.6c0.3-0.02,0.6-0.02,0.91,0C17.04,46.98,16.4,47.52,15.69,47.96z
			 M19.39,19.97l0.14,16.48c-0.51-1.13-1.2-2.17-2.04-3.06c-1-1.05-2.19-1.91-3.5-2.49c-0.02-0.01-0.05-0.02-0.07-0.03
			c0.1-0.02,0.19-0.04,0.28-0.06c0.91-0.23,1.76-0.66,2.47-1.25c0.35-0.3,0.68-0.63,0.96-1c0.28-0.37,0.52-0.76,0.71-1.18
			c0.38-0.83,0.57-1.75,0.55-2.66c-0.01-0.45-0.07-0.91-0.18-1.34c-0.11-0.44-0.28-0.86-0.47-1.25c-0.32-0.63-0.72-1.2-1.16-1.73
			c0.15,0.07,0.31,0.1,0.49,0.1c0.65,0,1.18-0.52,1.21-1.16c0.65-0.03,1.16-0.56,1.16-1.21c0-0.17-0.04-0.34-0.1-0.49
			c0.53,0.44,1.1,0.84,1.73,1.16c0.39,0.2,0.81,0.36,1.25,0.48c0.43,0.12,0.89,0.17,1.34,0.18c0.91,0.02,1.82-0.17,2.66-0.55
			c0.42-0.19,0.81-0.43,1.18-0.71c0.37-0.28,0.7-0.6,1-0.96c0.59-0.71,1.02-1.56,1.25-2.47c0.02-0.09,0.04-0.19,0.06-0.28
			c0.01,0.02,0.02,0.05,0.03,0.07c0.58,1.31,1.44,2.51,2.49,3.5c0.9,0.84,1.93,1.53,3.06,2.04L19.39,19.97z"/>
		<path d="M66.51,18.6c-1.13,0-2.05,0.92-2.05,2.05c0,1.13,0.92,2.05,2.05,2.05c1.13,0,2.05-0.92,2.05-2.05
			C68.56,19.51,67.64,18.6,66.51,18.6z"/>
		<path d="M13.07,13.65c-0.14-0.55-0.18-0.97-0.26-1.14c-0.06,0.13-0.1,0.38-0.17,0.71c-0.34,0.07-0.58,0.1-0.71,0.17
			C12.1,13.47,12.51,13.51,13.07,13.65z"/>
		<path d="M12.39,12.96c0.13-1.05-0.24-2.11-1.3-2.84c-0.32,0.22-0.58,0.48-0.78,0.75c-0.27,0.2-0.53,0.46-0.75,0.78
			C10.28,12.72,11.34,13.09,12.39,12.96z"/>
		<path d="M20.07,69.14c1.13,0,2.05-0.92,2.05-2.05c0-1.13-0.92-2.05-2.05-2.05c-1.13,0-2.05,0.92-2.05,2.05
			C18.02,68.22,18.94,69.14,20.07,69.14z"/>
	</g>
	<polygon points="0,0 0,68.83 1.01,68.83 1.01,1.01 68.93,1.01 68.93,0 	"/>
	<polygon points="3,3.08 3,68.83 4.11,68.83 4.11,4.2 68.93,4.2 68.93,3.08 	"/>
</g>
</svg>
