<?xml version="1.0" encoding="utf-8"?>
<!-- Generator: Adobe Illustrator 23.0.3, SVG Export Plug-In . SVG Version: 6.00 Build 0)  -->
<svg version="1.1" id="Layer_1" xmlns="http://www.w3.org/2000/svg" xmlns:xlink="http://www.w3.org/1999/xlink" x="0px" y="0px"
	 viewBox="0 0 68.44 68.44" style="enable-background:new 0 0 68.44 68.44;" xml:space="preserve">
<g>
	<path d="M38.43,2.67c-0.38,0.97-0.38,2.11-0.07,3.1c0.3,0.97,0.91,1.79,1.82,2.26c0.69,0.36,1.61,0.56,2.36,0.24
		c0.67-0.28,1.2-1.05,1-1.8c-0.19-0.71-1.09-1.14-1.71-0.67c-0.36,0.24-0.49,0.9-0.08,1.17c-0.11-0.41,0.13-0.82,0.56-0.85
		c0.32-0.02,0.63,0.2,0.69,0.49c0.01,0.05,0.02,0.11,0.02,0.16c0,0.1-0.02,0.2-0.05,0.29c-0.03,0.09-0.06,0.18-0.1,0.26
		c-0.01,0.01-0.01,0.02-0.02,0.03c-0.51,0.8-1.67,0.71-2.43,0.4c-0.94-0.37-1.57-1.18-1.89-2.12c-0.32-0.95-0.36-2.07,0.01-3.01
		c0.36-0.94,1.24-1.61,2.23-1.72c-0.2,0.02-0.24,0.02-0.12,0.01C39.67,1.06,38.8,1.73,38.43,2.67z"/>
	<path d="M68.08,10.38c-1.32-2.65-6-1.28-5.4,1.74c0.49-1.04,1.56-2.25,2.85-2.03c1.33,0.23,1.34,1.82,0.93,2.81
		c-1.06,2.53-4.33,2.89-6.71,2.97c-2.7,0.09-5.44-0.25-8.16-0.77c0.04-0.08,0.08-0.17,0.12-0.25c1.4-3.28-3.34-4.08-4.93-0.99
		c1.04-0.74,2.71-1.41,3.44-0.57c0.35,0.41,0.23,0.97-0.1,1.52c-2.68-0.57-5.35-1.26-7.93-1.84c-0.3-0.07-0.59-0.13-0.89-0.2
		c-0.01-0.05-0.01-0.09-0.02-0.14c-0.13-0.74-0.4-1.42-0.79-2.02c0.6,0.39,1.28,0.67,2.02,0.79c1.16,0.2,2.58,0.06,3.5-0.73
		c0.83-0.72,1.24-2.06,0.61-3.04c-0.59-0.93-2.09-1.14-2.76-0.18c-0.41,0.51-0.3,1.52,0.43,1.72c-0.35-0.54-0.19-1.24,0.42-1.48
		c0.45-0.17,0.99,0,1.22,0.39c0.04,0.07,0.07,0.15,0.1,0.23c0.05,0.14,0.06,0.29,0.06,0.44c0,0.14-0.01,0.28-0.02,0.43
		c0,0.02-0.01,0.04-0.01,0.06c-0.37,1.39-2.08,1.78-3.32,1.7c-1.53-0.1-2.8-0.98-3.69-2.19c-0.89-1.22-1.46-2.81-1.37-4.33
		c0.09-1.51,1.04-2.88,2.42-3.5c-0.28,0.12-0.34,0.15-0.17,0.08c-1.36,0.64-2.3,2-2.4,3.51c-0.11,1.54,0.41,3.15,1.27,4.42
		c-1.27-0.86-2.88-1.37-4.42-1.27c-1.12,0.08-2.17,0.62-2.89,1.45c-0.12-0.04-0.23-0.08-0.35-0.11c0.22-0.3,0.48-0.57,0.77-0.79
		c0.62-0.48,1.38-0.76,2.15-0.88c1.2-0.18,2.41,0.02,3.54,0.42c-0.39-1.14-0.59-2.35-0.41-3.54c0.11-0.77,0.4-1.53,0.88-2.15
		c0.46-0.6,1.08-1.05,1.79-1.3c0.75-0.27,1.58-0.32,2.35-0.17c0.37,0.07,0.73,0.2,1.07,0.37c0.24,0.13,0.48,0.27,0.67,0.46
		c0.54,0.52,0.69,1.45,0.22,2.07c-0.21,0.29-0.53,0.48-0.87,0.56c-0.35,0.08-0.72,0.02-1.04-0.14c0,0,0,0,0,0
		c-0.01,0.01-0.02,0.02-0.03,0.03c-0.01,0.01,0.02,0.06,0.03,0.07c0.02,0.05,0.05,0.1,0.08,0.15c0.07,0.1,0.16,0.19,0.26,0.26
		c0.21,0.16,0.48,0.25,0.74,0.27c0.56,0.05,1.11-0.2,1.47-0.62c0.51-0.6,0.63-1.47,0.37-2.21c-0.12-0.35-0.32-0.66-0.59-0.91
		c-0.2-0.19-0.44-0.34-0.69-0.46c-0.44-0.23-0.92-0.37-1.42-0.43C42.37,0.01,42.05,0,41.75,0h-0.01c-0.23,0-0.44,0.01-0.52,0.03
		c-0.69,0.09-1.36,0.31-1.95,0.65c-0.64,0.37-1.19,0.89-1.58,1.52c-0.41,0.66-0.64,1.43-0.73,2.2c-0.09,0.83-0.03,1.67,0.15,2.48
		c0.03,0.16,0.08,0.31,0.12,0.47c-0.16-0.04-0.31-0.08-0.47-0.12C35.95,7.06,35.11,7,34.29,7.09c-0.77,0.09-1.54,0.32-2.2,0.73
		c-0.46,0.29-0.87,0.66-1.2,1.09c-0.79-0.24-1.61-0.42-2.44-0.55c-0.22-0.21-0.45-0.39-0.71-0.55c-0.66-0.41-1.43-0.64-2.2-0.73
		C24.71,7,23.87,7.06,23.06,7.24c-0.22,0.05-0.44,0.1-0.66,0.17c0.36-0.62,0.54-1.36,0.38-2.07c-0.1-0.43-0.33-0.81-0.68-1.08
		c-0.43-0.33-0.99-0.47-1.52-0.49c0.45,0.09,0.88,0.28,1.22,0.6c0.42,0.38,0.63,0.94,0.43,1.49c-0.12,0.33-0.36,0.61-0.63,0.84
		c-0.29,0.24-0.62,0.44-0.94,0.63c-1.3,0.75-2.78,1.15-4.27,1.31c-0.83,0.09-1.66,0.1-2.49,0.06c-0.44-0.02-0.88-0.06-1.32-0.1
		c-0.21-0.02-0.44-0.03-0.64-0.1c-0.07-0.02-0.22-0.09-0.19-0.19c0.03-0.1,0.2-0.1,0.28-0.1c0.19,0.01,0.39,0.06,0.58,0.08
		c0.35,0.05,0.71,0.08,1.07,0.09c0.54,0.01,1.1-0.04,1.6-0.26c0.38-0.17,0.7-0.46,0.87-0.85c0.2-0.45,0.19-0.97,0.12-1.46
		c-0.07,0.4-0.31,0.73-0.67,0.92C15.14,6.97,14.61,7,14.12,6.99c0.43-0.44,0.37-1.14,0.27-1.7C14.21,5.62,14,5.94,13.74,6.21
		c-0.25,0.27-0.55,0.48-0.89,0.62c-0.2,0.08-0.41,0.13-0.61,0.17c-0.22,0.05-0.44,0.09-0.66,0.12C10.68,7.26,9.77,7.3,8.85,7.3
		c-0.52,0-1.04,0-1.56-0.01c0,0.52,0.01,1.04,0.01,1.56c0,0.91-0.04,1.82-0.18,2.73C7.09,11.8,7.05,12.02,7,12.24
		c-0.05,0.21-0.09,0.42-0.17,0.61c-0.14,0.34-0.35,0.64-0.62,0.89C5.94,14,5.62,14.21,5.29,14.39c0.55,0.1,1.26,0.16,1.7-0.27
		c0.01,0.49-0.02,1.02-0.25,1.46c-0.19,0.36-0.52,0.6-0.92,0.67c0.48,0.07,1,0.08,1.45-0.12c0.39-0.17,0.68-0.49,0.85-0.87
		c0.22-0.5,0.27-1.06,0.26-1.6c-0.01-0.36-0.04-0.71-0.09-1.07c-0.03-0.19-0.08-0.38-0.08-0.58c0-0.08,0-0.25,0.1-0.28
		c0.1-0.03,0.17,0.12,0.19,0.19c0.07,0.2,0.08,0.43,0.1,0.64c0.05,0.44,0.08,0.88,0.1,1.32c0.04,0.83,0.02,1.66-0.06,2.49
		c-0.16,1.49-0.56,2.96-1.31,4.27c-0.19,0.33-0.39,0.65-0.63,0.94c-0.22,0.27-0.5,0.51-0.84,0.63c-0.55,0.2-1.11-0.02-1.49-0.43
		c-0.31-0.34-0.51-0.77-0.6-1.22c0.02,0.54,0.16,1.09,0.49,1.52c0.27,0.35,0.65,0.58,1.07,0.68c0.7,0.16,1.45-0.02,2.07-0.38
		c-0.06,0.22-0.12,0.44-0.17,0.66C7.06,23.87,7,24.71,7.09,25.54c0.09,0.77,0.32,1.54,0.73,2.2c0.16,0.25,0.34,0.49,0.55,0.71
		c0.13,0.83,0.31,1.65,0.54,2.44c-0.43,0.33-0.8,0.73-1.09,1.2c-0.41,0.66-0.64,1.43-0.73,2.2C7,35.11,7.06,35.95,7.24,36.76
		c0.03,0.16,0.08,0.32,0.12,0.47c-0.16-0.04-0.31-0.08-0.47-0.12c-0.81-0.18-1.65-0.24-2.48-0.15c-0.77,0.09-1.54,0.32-2.2,0.73
		c-0.63,0.39-1.15,0.94-1.52,1.58c-0.34,0.59-0.57,1.26-0.65,1.95C0.01,41.3,0,41.51,0,41.74v0.01c0,0.3,0.01,0.62,0.03,0.72
		c0.06,0.49,0.2,0.98,0.43,1.42c0.13,0.25,0.27,0.48,0.46,0.69c0.25,0.27,0.57,0.47,0.91,0.59c0.74,0.26,1.6,0.15,2.21-0.37
		c0.42-0.36,0.66-0.91,0.62-1.47c-0.02-0.27-0.11-0.53-0.27-0.74c-0.07-0.1-0.16-0.19-0.26-0.26c-0.05-0.03-0.09-0.06-0.15-0.08
		c-0.01,0-0.06-0.03-0.07-0.03c-0.01,0.01-0.02,0.02-0.03,0.03c0,0,0,0,0,0c0.16,0.32,0.22,0.69,0.14,1.04
		c-0.08,0.34-0.27,0.67-0.56,0.87c-0.62,0.46-1.54,0.32-2.07-0.22c-0.19-0.19-0.33-0.43-0.46-0.67c-0.18-0.34-0.3-0.7-0.37-1.07
		c-0.15-0.78-0.1-1.61,0.17-2.35c0.26-0.71,0.71-1.33,1.3-1.79c0.62-0.48,1.38-0.76,2.15-0.88c1.2-0.18,2.41,0.02,3.54,0.41
		c-0.39-1.14-0.59-2.35-0.41-3.54c0.11-0.77,0.4-1.53,0.88-2.15c0.23-0.29,0.5-0.55,0.79-0.77c0.04,0.12,0.07,0.23,0.11,0.35
		c-0.83,0.72-1.37,1.77-1.45,2.89c-0.11,1.54,0.41,3.15,1.27,4.42c-1.27-0.86-2.88-1.37-4.42-1.27c-1.51,0.1-2.87,1.04-3.51,2.4
		c0.07-0.17,0.04-0.11-0.08,0.17c0.62-1.38,1.99-2.34,3.5-2.42c1.52-0.09,3.12,0.48,4.33,1.37c1.21,0.89,2.09,2.16,2.19,3.69
		c0.09,1.24-0.3,2.95-1.7,3.32c-0.02,0-0.04,0.01-0.06,0.01C9.04,46.09,8.9,46.1,8.76,46.1c-0.15,0-0.3-0.01-0.44-0.06
		c-0.08-0.02-0.16-0.06-0.23-0.1c-0.39-0.23-0.56-0.77-0.39-1.22c0.23-0.61,0.94-0.77,1.48-0.42c-0.21-0.73-1.21-0.84-1.73-0.43
		c-0.96,0.68-0.76,2.17,0.18,2.76c0.99,0.63,2.33,0.22,3.04-0.61c0.8-0.93,0.93-2.34,0.73-3.5c-0.13-0.74-0.4-1.42-0.79-2.02
		c0.6,0.39,1.28,0.67,2.02,0.79c0.05,0.01,0.09,0.01,0.14,0.02c0.07,0.3,0.13,0.59,0.2,0.89c0.57,2.59,1.27,5.25,1.84,7.93
		c-0.55,0.33-1.1,0.45-1.52,0.1c-0.84-0.73-0.17-2.39,0.57-3.44c-3.09,1.59-2.29,6.33,0.99,4.93c0.09-0.04,0.17-0.08,0.25-0.12
		c0.52,2.72,0.86,5.45,0.77,8.16c-0.08,2.38-0.43,5.65-2.97,6.71c-0.98,0.41-2.57,0.4-2.81-0.93c-0.23-1.29,0.98-2.36,2.02-2.85
		c-3.02-0.6-4.39,4.08-1.74,5.4c3.09,1.53,5.04-2.24,5.62-4.6c0.97-3.92,0.43-8.08-0.43-12.14c1.39-0.87,2.08-2.14,2.37-3.32
		c0.34-1.39,0.16-2.67-0.12-3.53c-0.47-1.38-1.23-2.53-2.1-3.64c0.15-0.09,0.29-0.18,0.42-0.3c0.83-0.72,1.24-2.06,0.61-3.04
		c-0.59-0.93-2.09-1.14-2.76-0.17c-0.31,0.38-0.32,1.04-0.01,1.43c-0.27-0.31-0.54-0.63-0.8-0.96c0.4-0.37,0.63-0.92,0.49-1.46
		c-0.18-0.68-1.01-1.1-1.63-0.72c-0.37-1.75-0.71-3.5-0.99-5.25c0.43-0.04,0.87-0.02,1.29,0.06c0.37,0.07,0.73,0.2,1.07,0.37
		c0.24,0.12,0.48,0.27,0.67,0.46c0.54,0.52,0.69,1.45,0.22,2.07c-0.21,0.29-0.53,0.48-0.87,0.56c-0.35,0.08-0.72,0.02-1.04-0.14
		c0,0,0,0,0,0c-0.01,0.01-0.02,0.02-0.03,0.03c-0.01,0.01,0.02,0.06,0.03,0.07c0.02,0.05,0.05,0.1,0.08,0.15
		c0.07,0.1,0.16,0.19,0.26,0.26c0.21,0.16,0.48,0.25,0.74,0.27c0.55,0.05,1.11-0.2,1.47-0.62c0.51-0.6,0.63-1.47,0.37-2.21
		c-0.12-0.34-0.32-0.66-0.59-0.91c-0.2-0.19-0.44-0.34-0.69-0.46c-0.44-0.23-0.92-0.37-1.42-0.43c0.49-0.06,0.98-0.2,1.42-0.43
		c0.25-0.13,0.48-0.27,0.69-0.46c0.27-0.25,0.47-0.57,0.59-0.91c0.26-0.74,0.15-1.6-0.37-2.21c-0.36-0.42-0.91-0.66-1.47-0.62
		c-0.27,0.02-0.53,0.11-0.74,0.27c-0.1,0.07-0.19,0.16-0.26,0.26c-0.03,0.05-0.06,0.09-0.08,0.15c0,0.01-0.03,0.06-0.03,0.07
		c0.01,0.01,0.02,0.02,0.03,0.03c0,0,0,0,0,0c0.32-0.16,0.69-0.22,1.04-0.14c0.34,0.08,0.67,0.28,0.87,0.56
		c0.46,0.62,0.32,1.54-0.22,2.07c-0.19,0.19-0.44,0.33-0.67,0.46c-0.34,0.18-0.7,0.3-1.07,0.37c-0.47,0.09-0.96,0.11-1.44,0.05
		c-0.02-0.14-0.04-0.27-0.06-0.41c0.02,0,0.04,0,0.07,0c-0.02,0-0.04-0.01-0.07-0.01c-0.24-1.67-0.41-3.33-0.49-5
		c-0.03-0.57-0.04-1.15-0.04-1.73c0.08-0.04,0.16-0.08,0.25-0.11c0.77-0.3,1.92-0.4,2.43,0.4c0.01,0.01,0.01,0.02,0.02,0.03
		c0.04,0.09,0.07,0.17,0.1,0.26c0.03,0.09,0.05,0.19,0.05,0.29c0,0.05,0,0.11-0.02,0.16c-0.07,0.29-0.37,0.51-0.69,0.49
		c-0.43-0.03-0.68-0.44-0.56-0.85c-0.42,0.28-0.29,0.93,0.08,1.17c0.62,0.47,1.52,0.04,1.71-0.67c0.2-0.75-0.33-1.51-1-1.8
		c-0.74-0.32-1.67-0.12-2.36,0.24c0,0-0.01,0-0.01,0c0.01-1.13,0.08-2.26,0.24-3.38c0.31,0.2,0.71,0.29,1.08,0.19
		c-0.17-0.11-0.34-0.24-0.45-0.41c-0.03-0.05-0.06-0.1-0.06-0.15c-0.01-0.07,0.04-0.13,0.06-0.2c0.06-0.15,0.1-0.31,0.13-0.48
		c0.06-0.32,0.07-0.66,0.04-0.98c-0.01-0.13-0.03-0.26-0.06-0.39c-0.02-0.08-0.04-0.17-0.09-0.23c-0.03-0.05-0.08-0.07-0.09-0.13
		c-0.01-0.07,0-0.15,0.06-0.2c0.07-0.06,0.17-0.01,0.22,0.05c0.06,0.1,0.14,0.19,0.24,0.25c0.35,0.22,0.84,0.1,1.14-0.14
		c-0.09-0.02-0.18,0.01-0.27,0.02c-0.11,0.01-0.18-0.06-0.24-0.14c-0.13-0.19-0.22-0.41-0.32-0.61c-0.11-0.21-0.22-0.43-0.33-0.64
		c-0.4-0.77-0.82-1.53-1.21-2.31c-0.47-0.93-0.92-1.88-1.21-2.87c1,0.3,1.95,0.74,2.87,1.21c0.77,0.39,1.54,0.81,2.31,1.21
		c0.21,0.11,0.42,0.22,0.64,0.33c0.2,0.1,0.43,0.19,0.61,0.32c0.08,0.06,0.15,0.13,0.14,0.24c-0.01,0.09-0.04,0.17-0.02,0.27
		c0.25-0.3,0.36-0.79,0.14-1.14c-0.06-0.1-0.15-0.18-0.25-0.24c-0.06-0.06-0.11-0.15-0.05-0.22c0.05-0.05,0.13-0.07,0.2-0.06
		c0.06,0.01,0.08,0.06,0.13,0.09c0.06,0.05,0.15,0.07,0.23,0.09c0.13,0.03,0.26,0.05,0.39,0.06c0.33,0.03,0.66,0.01,0.98-0.04
		c0.16-0.03,0.32-0.07,0.48-0.13c0.06-0.03,0.13-0.07,0.2-0.06c0.05,0.01,0.11,0.03,0.15,0.06c0.17,0.11,0.3,0.28,0.41,0.45
		c0.1-0.36,0.01-0.76-0.19-1.08c1.12-0.15,2.25-0.23,3.38-0.24c0,0,0,0.01,0,0.01c-0.36,0.69-0.56,1.61-0.24,2.36
		c0.28,0.67,1.05,1.2,1.8,1c0.71-0.19,1.14-1.09,0.67-1.71c-0.24-0.36-0.9-0.49-1.17-0.08c0.41-0.11,0.82,0.13,0.85,0.56
		c0.02,0.32-0.2,0.62-0.49,0.69c-0.05,0.01-0.11,0.02-0.16,0.02c-0.1,0-0.2-0.02-0.29-0.05c-0.09-0.03-0.18-0.06-0.26-0.1
		c-0.01-0.01-0.02-0.01-0.03-0.02c-0.8-0.51-0.71-1.67-0.4-2.43c0.03-0.09,0.07-0.17,0.11-0.25c0.58,0,1.16,0.02,1.73,0.04
		c1.67,0.08,3.33,0.26,5,0.49c0,0.02,0.01,0.04,0.01,0.07c0-0.03,0-0.05-0.01-0.07c0.14,0.02,0.27,0.04,0.41,0.06
		c0.06,0.48,0.04,0.97-0.05,1.44c-0.07,0.37-0.2,0.73-0.37,1.07c-0.12,0.24-0.27,0.48-0.46,0.67c-0.52,0.54-1.45,0.69-2.07,0.22
		c-0.29-0.21-0.48-0.53-0.56-0.87c-0.08-0.35-0.02-0.72,0.14-1.04c0,0,0,0,0,0c-0.01-0.01-0.02-0.02-0.03-0.03
		c-0.01-0.01-0.06,0.02-0.07,0.03c-0.05,0.02-0.1,0.05-0.15,0.08c-0.1,0.07-0.19,0.16-0.26,0.26c-0.16,0.21-0.25,0.48-0.27,0.74
		c-0.05,0.56,0.2,1.11,0.62,1.47c0.6,0.51,1.47,0.63,2.21,0.37c0.35-0.12,0.66-0.32,0.91-0.59c0.19-0.2,0.34-0.44,0.46-0.69
		c0.23-0.44,0.37-0.93,0.43-1.42c0.06,0.49,0.2,0.97,0.43,1.42c0.13,0.25,0.27,0.48,0.46,0.69c0.25,0.27,0.57,0.47,0.91,0.59
		c0.74,0.26,1.6,0.15,2.21-0.37c0.42-0.36,0.66-0.91,0.62-1.47c-0.02-0.27-0.11-0.53-0.27-0.74c-0.07-0.1-0.16-0.19-0.26-0.26
		c-0.05-0.03-0.09-0.06-0.15-0.08c-0.01,0-0.06-0.03-0.07-0.03c-0.01,0.01-0.02,0.02-0.03,0.03c0,0,0,0,0,0
		c0.16,0.32,0.22,0.69,0.14,1.04c-0.08,0.34-0.28,0.67-0.56,0.87c-0.62,0.46-1.54,0.32-2.07-0.22c-0.19-0.19-0.33-0.43-0.46-0.67
		c-0.18-0.34-0.3-0.7-0.37-1.07c-0.08-0.42-0.1-0.86-0.06-1.29c1.76,0.28,3.51,0.62,5.25,0.99c-0.38,0.62,0.04,1.45,0.72,1.63
		c0.54,0.14,1.09-0.1,1.46-0.49c0.32,0.26,0.64,0.53,0.96,0.8c-0.39-0.31-1.05-0.3-1.43,0.01c-0.96,0.67-0.76,2.17,0.17,2.76
		c0.99,0.63,2.33,0.22,3.04-0.61c0.11-0.13,0.21-0.27,0.3-0.42c1.1,0.87,2.26,1.64,3.64,2.11c0.86,0.28,2.14,0.46,3.53,0.12
		c1.18-0.3,2.45-0.99,3.32-2.37c4.07,0.86,8.22,1.4,12.14,0.43C65.84,15.42,69.62,13.47,68.08,10.38z M8.31,28.05
		C8.27,28,8.23,27.96,8.19,27.91c-0.48-0.62-0.76-1.38-0.88-2.15c-0.18-1.21,0.02-2.44,0.43-3.58c0.07-0.05,0.14-0.11,0.21-0.17
		c0.36-0.31,0.62-0.69,0.83-1.11C8.14,23.3,8.01,25.73,8.31,28.05z M16.06,42.49c0.89,1.45,2.15,3.37,0.33,6.08
		c-0.29,0.42-0.7,0.89-1.15,1.25c-0.43-1.89-0.9-3.75-1.28-5.54c-0.21-0.97-0.42-1.95-0.65-2.92c0.6,0.03,1.22-0.03,1.79-0.23
		C15.43,41.59,15.75,42.04,16.06,42.49z M14.41,39.06c-0.35-0.54-0.19-1.24,0.42-1.48c0.45-0.17,0.99,0,1.22,0.39
		c0.04,0.07,0.07,0.15,0.1,0.23c0.05,0.14,0.06,0.29,0.06,0.44c0,0.14-0.01,0.28-0.02,0.43c-0.01,0.02-0.01,0.04-0.01,0.06
		c-0.14,0.53-0.47,0.92-0.9,1.18c-0.4-0.49-0.82-0.97-1.24-1.47c0-0.01-0.01-0.01-0.01-0.01C14.12,38.93,14.25,39.02,14.41,39.06z
		 M14.69,40.59c-0.48,0.17-1.01,0.24-1.5,0.24c-0.2-0.88-0.4-1.77-0.6-2.66c0.02-0.01,0.05-0.02,0.07-0.03
		c0.04-0.02,0.08-0.04,0.12-0.06C13.41,38.93,14.06,39.76,14.69,40.59z M12.44,36.01c0.32-0.02,0.62,0.2,0.69,0.49
		c0.01,0.05,0.02,0.11,0.02,0.16c0,0.1-0.02,0.2-0.05,0.29c-0.03,0.09-0.06,0.18-0.1,0.26c-0.01,0.01-0.01,0.02-0.02,0.03
		c-0.04,0.06-0.08,0.12-0.13,0.17c-0.21-0.26-0.41-0.52-0.6-0.78c-0.04-0.17-0.08-0.35-0.11-0.52
		C12.22,36.05,12.32,36.02,12.44,36.01z M12.49,37.7C12.49,37.7,12.48,37.7,12.49,37.7c-0.01,0-0.01-0.01-0.01-0.01
		C12.48,37.69,12.48,37.69,12.49,37.7z M12.09,38.29c0.19,0.84,0.38,1.67,0.57,2.51c-1.44-0.16-2.64-1.02-3.49-2.17
		c-0.89-1.22-1.46-2.81-1.37-4.33c0.06-1.06,0.55-2.05,1.31-2.76c0.01,0.03,0.02,0.07,0.03,0.1c-0.25,0.26-0.46,0.57-0.59,0.91
		c-0.39,0.97-0.38,2.11-0.07,3.1c0.3,0.97,0.91,1.79,1.82,2.26C10.83,38.17,11.48,38.35,12.09,38.29z M11.74,36.73
		c0.08,0.37,0.16,0.75,0.25,1.12c-0.49,0.07-1.02-0.03-1.45-0.2c-0.94-0.37-1.57-1.18-1.89-2.12c-0.32-0.95-0.36-2.07,0.01-3.01
		c0.12-0.3,0.29-0.58,0.5-0.82c0.02,0.06,0.04,0.13,0.07,0.19c0.54,1.65,1.41,3.17,2.4,4.62C11.66,36.59,11.69,36.67,11.74,36.73z
		 M11.35,29.91c-0.13,0.02-0.25,0.04-0.37,0.06c-0.01-0.04-0.01-0.08-0.02-0.12C11.08,29.88,11.21,29.9,11.35,29.91z M11.49,35.56
		c-0.51-0.77-0.97-1.57-1.32-2.39c-0.26-0.57-0.5-1.15-0.7-1.75c0.33-0.27,0.72-0.47,1.14-0.56C10.85,32.43,11.16,34,11.49,35.56z
		 M10.6,30.85c-0.42,0.08-0.82,0.27-1.15,0.53c-0.01-0.03-0.02-0.06-0.03-0.09c0.25-0.19,0.52-0.35,0.81-0.48
		c-0.28,0.12-0.34,0.15-0.17,0.08c-0.23,0.11-0.44,0.23-0.65,0.38c-0.03-0.11-0.07-0.21-0.1-0.32c0.21-0.13,0.44-0.23,0.68-0.32
		c0.18-0.07,0.37-0.12,0.56-0.16C10.55,30.58,10.57,30.72,10.6,30.85z M10.48,30.1c-0.38,0.11-0.75,0.27-1.09,0.47
		c-0.06,0.03-0.11,0.07-0.17,0.11c-0.18-0.6-0.33-1.22-0.45-1.84c0.2,0.16,0.4,0.31,0.62,0.43c0.32,0.19,0.67,0.34,1.03,0.45
		C10.44,29.84,10.46,29.97,10.48,30.1z M10.37,29.33c-0.13-0.03-0.26-0.07-0.39-0.12c-0.47-0.17-0.9-0.43-1.27-0.76
		c-0.07-0.4-0.12-0.81-0.17-1.22c0.01,0.02,0.01,0.03,0.02,0.05c0.31,0.78,0.97,1.38,1.76,1.63C10.33,29.05,10.35,29.19,10.37,29.33
		z M10.31,28.89c-0.74-0.26-1.36-0.84-1.64-1.58c-0.08-0.2-0.14-0.41-0.18-0.62c-0.03-0.46-0.05-0.92-0.05-1.39
		c0.04-0.35,0.11-0.68,0.22-1c0.24-0.7,0.65-1.33,1.23-1.76c0,0.35,0,0.7,0,1.04C9.93,25.35,10.08,27.12,10.31,28.89z M9.74,18.49
		c0.02-0.06,0.04-0.11,0.07-0.17c0.07-0.1,0.14-0.2,0.22-0.3c0.06,0.1,0.13,0.19,0.21,0.28c-0.21,1.29-0.32,2.6-0.34,3.87
		c-0.69,0.48-1.16,1.19-1.41,2.01c0,0.01-0.01,0.03-0.01,0.04C8.58,22.31,8.99,20.38,9.74,18.49z M22,7.95
		c0.06-0.07,0.12-0.14,0.17-0.21c1.15-0.4,2.37-0.61,3.58-0.43c0.77,0.12,1.53,0.4,2.15,0.88c0.05,0.04,0.1,0.08,0.14,0.12
		c-2.32-0.3-4.75-0.16-7.16,0.47C21.31,8.57,21.69,8.31,22,7.95z M22.17,9.9c-1.27,0.03-2.58,0.13-3.87,0.34
		c-0.09-0.08-0.18-0.15-0.28-0.21c0.1-0.07,0.2-0.15,0.3-0.22c0.06-0.02,0.11-0.04,0.17-0.07c1.89-0.75,3.82-1.16,5.73-1.28
		c-0.02,0.01-0.03,0.01-0.04,0.01C23.36,8.74,22.65,9.21,22.17,9.9z M23.57,9.89c-0.34-0.01-0.69-0.01-1.04,0
		c0.43-0.59,1.06-1,1.76-1.23c0.32-0.11,0.66-0.18,1-0.22c0.46,0,0.93,0.02,1.39,0.05c0.21,0.04,0.42,0.1,0.62,0.18
		c0.75,0.29,1.32,0.9,1.58,1.64C27.12,10.08,25.35,9.93,23.57,9.89z M28.91,10.31c-0.25-0.79-0.85-1.45-1.63-1.76
		c-0.01-0.01-0.03-0.01-0.05-0.02c0.41,0.04,0.82,0.1,1.22,0.17c0.33,0.37,0.59,0.8,0.76,1.27c0.05,0.13,0.09,0.26,0.12,0.39
		C29.19,10.35,29.05,10.33,28.91,10.31z M29.91,11.35c-0.02-0.13-0.04-0.26-0.06-0.39c0.04,0.01,0.08,0.01,0.12,0.02
		C29.95,11.1,29.93,11.22,29.91,11.35z M30.09,10.48c-0.13-0.02-0.26-0.04-0.38-0.06c-0.11-0.36-0.26-0.71-0.45-1.03
		c-0.13-0.22-0.27-0.43-0.43-0.62c0.62,0.12,1.24,0.27,1.84,0.45c-0.04,0.06-0.07,0.11-0.11,0.17C30.37,9.73,30.21,10.1,30.09,10.48
		z M30.45,10.53c0.04-0.19,0.09-0.38,0.16-0.56c0.09-0.24,0.19-0.46,0.32-0.68c0.11,0.03,0.21,0.07,0.32,0.1
		c-0.14,0.2-0.27,0.42-0.38,0.65c0.07-0.17,0.04-0.11-0.08,0.17c0.13-0.29,0.29-0.56,0.48-0.81c0.03,0.01,0.06,0.02,0.09,0.03
		c-0.26,0.34-0.44,0.73-0.53,1.15C30.71,10.57,30.58,10.55,30.45,10.53z M30.85,10.6c0.1-0.42,0.29-0.81,0.56-1.14
		c0.6,0.21,1.18,0.44,1.75,0.7c0.82,0.36,1.62,0.81,2.39,1.32C34,11.16,32.43,10.85,30.85,10.6z M37.25,12.98
		c-0.01,0.01-0.02,0.01-0.03,0.02c-0.09,0.04-0.17,0.07-0.26,0.1c-0.09,0.03-0.19,0.05-0.29,0.05c-0.05,0-0.11,0-0.16-0.02
		c-0.29-0.07-0.51-0.37-0.49-0.69c0.01-0.12,0.04-0.22,0.1-0.31c0.18,0.04,0.35,0.08,0.52,0.11c0.26,0.2,0.52,0.4,0.78,0.6
		C37.37,12.9,37.31,12.94,37.25,12.98z M37.7,12.49c0,0-0.01-0.01-0.01-0.01C37.69,12.48,37.7,12.48,37.7,12.49
		C37.7,12.48,37.7,12.49,37.7,12.49z M37.85,11.99c-0.37-0.08-0.75-0.17-1.12-0.25c-0.07-0.05-0.14-0.09-0.23-0.11
		c-1.45-0.99-2.96-1.86-4.62-2.4c-0.06-0.02-0.13-0.04-0.19-0.07c0.24-0.21,0.51-0.39,0.82-0.5c0.94-0.36,2.06-0.33,3.01-0.01
		c0.94,0.32,1.75,0.94,2.12,1.89C37.82,10.97,37.93,11.51,37.85,11.99z M35.65,8.48c-0.99-0.31-2.13-0.31-3.1,0.07
		c-0.34,0.14-0.65,0.34-0.91,0.59c-0.03-0.01-0.07-0.02-0.1-0.03c0.71-0.76,1.7-1.25,2.76-1.31c1.52-0.09,3.12,0.48,4.33,1.37
		c1.16,0.85,2.01,2.05,2.17,3.49c-0.84-0.19-1.67-0.38-2.51-0.57c0.06-0.61-0.12-1.26-0.39-1.78C37.43,9.39,36.62,8.78,35.65,8.48z
		 M39.12,16.18c-0.02,0-0.04,0.01-0.06,0.01c-0.14,0.01-0.28,0.03-0.43,0.02c-0.15,0-0.3-0.01-0.44-0.06
		c-0.08-0.02-0.16-0.06-0.23-0.1c-0.39-0.23-0.56-0.77-0.39-1.22c0.23-0.61,0.94-0.77,1.48-0.42c-0.05-0.16-0.13-0.29-0.24-0.39
		c0,0,0.01,0.01,0.01,0.01c0.49,0.42,0.98,0.84,1.47,1.24C40.04,15.7,39.65,16.04,39.12,16.18z M40.59,14.69
		c-0.83-0.63-1.66-1.28-2.5-1.91c0.02-0.04,0.04-0.08,0.06-0.12c0.01-0.02,0.02-0.05,0.03-0.07c0.89,0.2,1.77,0.4,2.66,0.6
		C40.83,13.68,40.76,14.21,40.59,14.69z M48.58,16.38c-2.71,1.83-4.63,0.56-6.08-0.33c-0.46-0.31-0.91-0.63-1.36-0.96
		c0.19-0.57,0.26-1.19,0.23-1.79c0.98,0.22,1.95,0.44,2.92,0.65c1.8,0.39,3.65,0.85,5.54,1.28C49.47,15.69,49,16.1,48.58,16.38z"/>
	<path d="M8.27,42.54c0.32-0.74,0.12-1.66-0.24-2.36c-0.47-0.91-1.29-1.52-2.26-1.82c-0.99-0.31-2.13-0.31-3.1,0.07
		c-0.93,0.37-1.61,1.24-1.73,2.23c0.01-0.13,0-0.09-0.01,0.12c0.11-0.99,0.78-1.87,1.72-2.23c0.94-0.36,2.06-0.32,3.01-0.01
		c0.94,0.32,1.75,0.94,2.12,1.89c0.3,0.77,0.4,1.92-0.4,2.43c-0.01,0.01-0.02,0.01-0.03,0.02c-0.09,0.04-0.17,0.07-0.26,0.1
		c-0.09,0.03-0.19,0.05-0.29,0.05c-0.05,0-0.11,0-0.16-0.02c-0.29-0.07-0.51-0.37-0.49-0.69c0.03-0.43,0.44-0.68,0.85-0.56
		c-0.28-0.42-0.93-0.29-1.17,0.08c-0.47,0.62-0.04,1.52,0.67,1.71C7.22,43.74,7.98,43.21,8.27,42.54z"/>
	<path d="M12.98,12.98c-0.08-0.42-0.23-0.82-0.48-1.18c-0.57-0.82-1.48-1.34-2.4-1.69h0l0,0l0,0l0,0c0.35,0.92,0.87,1.83,1.69,2.4
		C12.16,12.75,12.57,12.91,12.98,12.98L12.98,12.98L12.98,12.98L12.98,12.98L12.98,12.98z"/>
</g>
</svg>
