<?xml version="1.0" encoding="utf-8"?>
<!-- Generator: Adobe Illustrator 23.0.3, SVG Export Plug-In . SVG Version: 6.00 Build 0)  -->
<svg version="1.1" id="Layer_1" xmlns="http://www.w3.org/2000/svg" xmlns:xlink="http://www.w3.org/1999/xlink" x="0px" y="0px"
	 viewBox="0 0 67.93 67.93" style="enable-background:new 0 0 67.93 67.93;" xml:space="preserve">
<g>
	<g>
		<g>
			<g>
				<path d="M42.9,7.34c-0.51-0.24-1.09-0.38-1.67-0.38c-0.29-0.01-0.57,0.02-0.85,0.08c0.11,0.23,0.25,0.45,0.41,0.66
					c0.3,0.37,0.69,0.69,1.14,0.91c0.22,0.11,0.46,0.2,0.7,0.26c0.24,0.06,0.5,0.1,0.75,0.11c0.02,0,0.05,0,0.07,0
					c-0.11,0.12-0.22,0.22-0.37,0.29c-0.01,0.01-0.02,0.02-0.03,0.02c0.52-0.15,1.05-0.27,1.59-0.36c-0.12-0.21-0.25-0.41-0.41-0.6
					C43.87,7.92,43.42,7.58,42.9,7.34z"/>
				<path d="M42.77,5.99c-0.47,0-0.86-0.36-0.86-0.81c0-0.17,0.05-0.32,0.14-0.45c-0.17,0.17-0.27,0.39-0.3,0.61
					c-0.01,0.06-0.01,0.12,0,0.18c0,0.02,0,0.03,0,0.04l0.01,0.05c0,0.03,0.01,0.06,0.02,0.09c0.02,0.12,0.06,0.23,0.12,0.33
					C42,6.23,42.17,6.4,42.37,6.53c0.2,0.12,0.43,0.19,0.67,0.2c0.06,0,0.12,0,0.17,0l0.05,0l0.04-0.01c0.03,0,0.06-0.01,0.09-0.01
					c0.12-0.02,0.23-0.06,0.34-0.1c0.22-0.09,0.41-0.22,0.57-0.39c0.16-0.16,0.27-0.36,0.34-0.57c0.03-0.1,0.06-0.21,0.07-0.32
					c0-0.05,0.01-0.11,0.01-0.16c0-0.05,0-0.11-0.01-0.17c0-0.03-0.01-0.05-0.01-0.08c0-0.03-0.01-0.06-0.01-0.08
					c-0.01-0.05-0.03-0.11-0.04-0.16c-0.03-0.09-0.06-0.18-0.1-0.27h-1.48c0.33,0.11,0.57,0.41,0.57,0.76
					C43.63,5.62,43.24,5.99,42.77,5.99z"/>
				<path d="M19.85,14.89c0.13,0.08,0.26,0.15,0.39,0.21c0.44,0.21,0.92,0.33,1.41,0.37c0.2,0.01,0.39,0.01,0.59,0
					c-0.35-0.38-0.77-0.72-1.22-0.98c-0.37-0.21-0.76-0.38-1.17-0.51V14.89z"/>
				<path d="M44.97,9.78C44.96,9.78,44.96,9.78,44.97,9.78c-0.06-0.23-0.13-0.44-0.23-0.65c-0.86,0.14-1.69,0.37-2.48,0.68
					L44.97,9.78z"/>
				<path d="M20.17,15.24c-0.11-0.05-0.22-0.1-0.32-0.15v1.88c0.06,0.07,0.11,0.14,0.16,0.21c0.26,0.4,0.38,0.88,0.36,1.34
					c-0.01,0.36-0.09,0.72-0.23,1.06c0.17-0.06,0.34-0.11,0.51-0.16c0.62-0.17,1.25-0.28,1.89-0.32c0.32-0.02,0.64-0.02,0.96,0
					c0.01,0,0.01,0,0.02,0l0.01-0.85c-0.08-0.73-0.33-1.43-0.72-2.05c-0.15-0.24-0.33-0.47-0.52-0.69
					C21.57,15.61,20.83,15.52,20.17,15.24z"/>
				<path d="M27.2,21.87c0.05-0.08,0.11-0.17,0.17-0.26c-0.04-0.03-0.07-0.07-0.11-0.1c-0.39-0.35-0.83-0.64-1.3-0.87
					c-0.02,0.07-0.03,0.13-0.05,0.2c-0.28,1.26-0.6,2.53-0.9,3.81C25.76,23.7,26.55,22.8,27.2,21.87z"/>
				<path d="M19.85,19.03c0.05-0.17,0.08-0.34,0.1-0.52c0.02-0.27-0.01-0.54-0.1-0.8V19.03z"/>
				<polygon points="55.72,14.74 55.73,14.75 55.72,14.74 				"/>
				<path d="M27.4,18.36c-0.17-0.24-0.43-0.51-0.7-0.72c-0.17,0.72-0.35,1.42-0.53,2.12c0.59,0.27,1.14,0.63,1.62,1.05
					C28.06,20.13,28.1,19.33,27.4,18.36z"/>
				<path d="M40.27,6.76c0.31-0.09,0.64-0.14,0.96-0.15c0.24-0.01,0.48,0,0.72,0.03c-0.14-0.15-0.26-0.32-0.33-0.51
					c-0.05-0.13-0.09-0.27-0.1-0.41c0-0.03-0.01-0.07-0.01-0.11l0-0.02l0-0.03c0-0.02,0-0.04,0-0.05c0-0.07,0.02-0.14,0.03-0.21
					c0.07-0.28,0.24-0.52,0.46-0.69c0.13-0.09,0.27-0.16,0.42-0.2h-1.92c-0.14,0.2-0.25,0.43-0.32,0.66
					c-0.07,0.22-0.1,0.44-0.1,0.67c0,0.23,0.03,0.46,0.08,0.69C40.2,6.54,40.23,6.65,40.27,6.76z"/>
				<path d="M31.7,12.9c0.22,0.26,0.51,0.5,0.76,0.66c1.03,0.66,1.87,0.62,2.58,0.38c-0.44-0.46-0.81-0.98-1.1-1.54
					C33.21,12.56,32.46,12.73,31.7,12.9z"/>
				<path d="M45.33,9.04c0.09,0.19,0.17,0.38,0.22,0.59c0.01,0.05,0.03,0.1,0.04,0.14l0.32,0c0.21-0.44,0.68-0.75,1.22-0.75
					c0.56,0,1.04,0.33,1.24,0.79c0.83,0.01,1.69,0.07,2.53,0.2c0.07-0.06,0.15-0.11,0.23-0.16c-0.12-0.05-0.23-0.09-0.35-0.13
					C48.99,9.05,47.11,8.85,45.33,9.04z"/>
				<path d="M45.07,10.57l-1.99-0.02c-1.12,0.18-2.23,0.4-3.34,0.62c-0.46,0.33-0.91,0.68-1.34,1.03c-0.72,0.58-1.41,1.16-2.18,1.61
					c0.7,0.58,1.55,1.01,2.45,1.23c0.55,0.14,1.11,0.2,1.68,0.19c0.07,0,0.14,0,0.21-0.01l0.1-0.01l0.11-0.01
					c0.13-0.01,0.27-0.03,0.41-0.06c0.27-0.05,0.54-0.12,0.8-0.22c1.04-0.38,1.94-1.12,2.49-2.05c0.27-0.47,0.46-0.98,0.54-1.51
					C45.06,11.11,45.08,10.84,45.07,10.57C45.07,10.57,45.07,10.57,45.07,10.57z"/>
				<path d="M35.06,4.47c0-0.02,0.01-0.04,0.01-0.07h-4.8c-0.01,0.35,0.08,0.7,0.25,1c0.2,0.36,0.51,0.66,0.88,0.84
					c0.37,0.19,0.79,0.27,1.21,0.24c0.42-0.03,0.83-0.15,1.19-0.35c0.09-0.05,0.17-0.11,0.26-0.17C34.34,5.44,34.67,4.94,35.06,4.47
					z"/>
				<path d="M37.93,9.84l3.72-0.03c0.32-0.14,0.65-0.27,0.99-0.37c0.02-0.01,0.04-0.01,0.06-0.02c-0.35-0.05-0.7-0.15-1.02-0.29
					C41.39,9,41.14,8.86,40.9,8.69c-0.24-0.17-0.45-0.37-0.64-0.59c-0.22-0.25-0.41-0.53-0.55-0.83c-0.05,0.02-0.09,0.04-0.14,0.07
					C38.64,7.83,37.99,8.8,37.93,9.84z"/>
				<path d="M50.88,7.3c-0.55-1.01-1.28-1.93-2.16-2.68c-0.08-0.07-0.17-0.14-0.25-0.21h-3.22c0.01,0.04,0.02,0.07,0.03,0.11
					c0.02,0.07,0.03,0.14,0.04,0.22c0.01,0.04,0.01,0.07,0.01,0.11c0,0.04,0.01,0.07,0.01,0.11c0,0.07,0.01,0.15,0,0.22
					c0,0.08-0.01,0.15-0.02,0.23c-0.02,0.15-0.06,0.3-0.12,0.44c-0.22,0.57-0.72,1.02-1.3,1.21c-0.13,0.04-0.26,0.07-0.4,0.09
					c0.42,0.23,0.8,0.53,1.12,0.87c0.24,0.26,0.44,0.54,0.6,0.85c1.33-0.13,2.72-0.04,4.09,0.3c-0.25-0.12-0.48-0.27-0.68-0.48
					c-0.37-0.4-0.6-0.98-0.47-1.51c0.06-0.25,0.2-0.47,0.42-0.62c0.26-0.19,0.6-0.27,0.93-0.28c-0.27,0.05-0.54,0.16-0.74,0.34
					c-0.25,0.22-0.38,0.54-0.26,0.86c0.07,0.19,0.22,0.35,0.39,0.48c0.18,0.14,0.38,0.26,0.57,0.36c0.65,0.36,1.38,0.58,2.12,0.69
					c-0.01-0.05-0.03-0.09-0.04-0.14C51.38,8.34,51.16,7.81,50.88,7.3z"/>
				<path d="M35.08,12.16c-0.07,0.01-0.14,0.03-0.21,0.04c0.25,0.45,0.56,0.86,0.92,1.23c0.03,0.03,0.07,0.07,0.1,0.1
					c0.1-0.05,0.19-0.11,0.28-0.16c0.98-0.62,1.94-1.37,2.93-2.07C37.75,11.59,36.41,11.89,35.08,12.16z"/>
				<path d="M39.43,7.13c0.05-0.03,0.11-0.07,0.17-0.1c-0.06-0.14-0.11-0.29-0.15-0.44c-0.02-0.06-0.03-0.12-0.04-0.17
					c-0.01,0.01-0.01,0.03-0.02,0.05c-0.38,0.8-0.93,1.53-1.61,2.14c-0.58,0.51-1.25,0.94-1.98,1.25l2.1-0.02
					c-0.01-0.47,0.1-0.95,0.31-1.38C38.48,7.92,38.9,7.46,39.43,7.13z"/>
				<path d="M34.28,10.61c0.09,0.46,0.24,0.91,0.45,1.34c0.54-0.12,1.08-0.24,1.62-0.36c1.12-0.24,2.26-0.49,3.39-0.72
					c0.18-0.12,0.36-0.23,0.54-0.34l-6.03-0.05C34.26,10.52,34.27,10.57,34.28,10.61z"/>
				<path d="M31.23,6.55c-0.42-0.24-0.76-0.6-0.96-1.02c-0.17-0.35-0.25-0.74-0.21-1.12H27.6c-0.02,0.2-0.02,0.4-0.02,0.61
					c0.7,0.39,1.27,0.99,1.6,1.69c0.29,0.63,0.39,1.33,0.29,2c0.23,0.18,0.47,0.35,0.73,0.49c0.66,0.37,1.4,0.6,2.16,0.68l0.9-0.01
					c0-0.01,0-0.01,0-0.02c-0.02-0.3-0.02-0.61,0-0.91c0.04-0.61,0.15-1.21,0.33-1.79c0.05-0.16,0.11-0.32,0.17-0.48
					c-0.36,0.14-0.74,0.22-1.12,0.22C32.16,6.91,31.64,6.8,31.23,6.55z"/>
				<path d="M41.42,10.54l-0.69-0.01c-0.11,0.07-0.23,0.14-0.34,0.21C40.74,10.67,41.08,10.6,41.42,10.54z"/>
				<path d="M34.18,9c-0.02,0.27-0.02,0.54,0,0.81l0,0.02c1.23-0.19,2.4-0.7,3.36-1.48c0.68-0.54,1.25-1.22,1.67-1.97
					c0.05-0.09,0.1-0.19,0.15-0.29c-0.01-0.11-0.02-0.23-0.02-0.35c0-0.29,0.03-0.59,0.11-0.87c0.05-0.16,0.11-0.32,0.18-0.47h-3.34
					c-0.06,0.06-0.11,0.11-0.17,0.17c-0.76,0.81-1.34,1.78-1.66,2.82C34.31,7.92,34.21,8.46,34.18,9z"/>
				<path d="M29.03,6.78c-0.31-0.61-0.82-1.13-1.43-1.48c0.07,0.78,0.34,1.55,0.78,2.22c0.28,0.43,0.63,0.82,1.04,1.16
					c0.02-0.19,0.02-0.37,0-0.56C29.38,7.64,29.24,7.19,29.03,6.78z"/>
				<polygon points="17.34,17.34 17.34,1.9 67.02,1.9 67.02,0 15.44,0 15.44,15.44 				"/>
				<path d="M23.33,9.7l0.25,0.24C23.51,9.85,23.42,9.77,23.33,9.7z"/>
				<path d="M66.19,7.38c-0.83,0-1.53,0.56-1.7,1.3c-0.18-1.19-1.26-2.11-2.57-2.11c-1.07,0-1.99,0.61-2.39,1.49h-3.35
					c-0.12,0-0.22,0.09-0.22,0.21c0,0.01,0,0.03,0,0.04C55.65,8.29,55.32,8.26,55,8.22c-0.13-0.02-0.27-0.04-0.4-0.07
					c-0.13-0.03-0.25-0.05-0.37-0.1c-0.21-0.08-0.39-0.2-0.54-0.36c-0.16-0.16-0.28-0.34-0.4-0.53c-0.06,0.32-0.09,0.73,0.17,0.98
					c-0.3,0.01-0.62-0.01-0.89-0.15c-0.22-0.11-0.36-0.3-0.41-0.53c-0.05,0.28-0.05,0.58,0.07,0.84c0.1,0.23,0.3,0.39,0.53,0.49
					c0.3,0.13,0.65,0.15,0.97,0.15c0.22,0,0.43-0.02,0.65-0.05c0.12-0.01,0.23-0.04,0.35-0.05c0.05,0,0.15,0,0.17,0.06
					c0.02,0.06-0.07,0.1-0.11,0.11c-0.12,0.04-0.26,0.04-0.39,0.06c-0.27,0.03-0.54,0.05-0.81,0.06c-0.5,0.02-1.01,0.01-1.51-0.04
					c-0.11-0.01-0.23-0.03-0.34-0.04c-0.01-0.06-0.03-0.13-0.04-0.19c-0.14-0.56-0.33-1.12-0.58-1.65
					c-0.47-1.03-1.15-1.97-1.97-2.79h17.87V3.34H18.78v15.44l1.63,1.63c0.16-0.06,0.33-0.11,0.49-0.15
					c0.55-0.15,1.12-0.24,1.69-0.27c0.29-0.01,0.57-0.01,0.86,0l0.02,0c-0.15,0.88-0.5,1.73-1.01,2.48l0.28,0.28
					c0.29-0.38,0.54-0.79,0.75-1.22l-0.02,1.95l0.71,0.71l-0.04-4.13c0.05,0.01,0.1,0.02,0.14,0.02c0.49,0.09,0.96,0.23,1.41,0.43
					c-0.13,0.51-0.26,1.03-0.38,1.53c-0.21,0.88-0.42,1.77-0.63,2.65l0.35,0.35c0.3-0.37,0.61-0.72,0.92-1.07
					c0.61-0.68,1.22-1.33,1.7-2.07c0.61,0.66,1.06,1.46,1.3,2.32c0.14,0.52,0.21,1.06,0.2,1.59c0,0.07,0,0.13-0.01,0.2l-0.01,0.1
					l-0.01,0.1c-0.01,0.12-0.03,0.26-0.06,0.39c-0.05,0.26-0.13,0.52-0.23,0.76c-0.14,0.34-0.31,0.66-0.53,0.95l0.56,0.56
					c0.3-0.37,0.55-0.79,0.74-1.22c0.12-0.29,0.22-0.59,0.28-0.89c0.03-0.15,0.06-0.3,0.08-0.46L30,26.2l0.01-0.12
					c0.01-0.08,0.01-0.15,0.01-0.23c0.03-0.61-0.04-1.23-0.19-1.83c-0.28-1.09-0.88-2.11-1.71-2.92c0.06-0.12,0.11-0.25,0.15-0.38
					c0.17-0.5,0.28-1.23,0.07-2.04c-0.18-0.68-0.6-1.41-1.45-1.92c0.24-1.06,0.43-2.12,0.52-3.18l-0.35-0.33
					c-0.06,1.12-0.23,2.24-0.45,3.36c-0.05-0.02-0.1-0.05-0.15-0.07c-2-0.81-2.48,1.93-0.6,2.85c-0.45-0.6-0.86-1.56-0.35-1.98
					c0.25-0.2,0.59-0.14,0.92,0.06c-0.16,0.73-0.34,1.46-0.53,2.18c-0.47-0.19-0.95-0.34-1.45-0.43c-0.11-0.02-0.22-0.04-0.32-0.05
					l-0.08-8.77L23.6,9.96l-0.06,6.26c-0.06-0.11-0.12-0.22-0.18-0.32c-0.11-0.19-0.24-0.37-0.38-0.55
					c0.04-0.01,0.08-0.03,0.13-0.04c-0.04,0.01-0.09,0.02-0.13,0.04c-0.43-0.56-0.98-1.04-1.59-1.42c-0.47-0.29-1-0.51-1.54-0.66
					V9.62c0.18-0.08,0.38-0.15,0.57-0.19c0.23-0.05,0.46-0.06,0.69-0.04c0.46,0.04,0.91,0.21,1.27,0.5
					c0.36,0.28,0.62,0.67,0.74,1.09c0.12,0.42,0.06,0.88-0.16,1.26c-0.22,0.38-0.59,0.68-1.04,0.82c-0.43,0.14-0.94,0.06-1.31-0.2
					c-0.37-0.26-0.62-0.7-0.58-1.14c0.02-0.22,0.11-0.43,0.26-0.61c0.15-0.17,0.36-0.31,0.58-0.37c0.23-0.06,0.48-0.04,0.7,0.06
					c0.22,0.1,0.4,0.28,0.49,0.5c-0.07-0.23-0.24-0.43-0.46-0.55c-0.22-0.12-0.49-0.16-0.75-0.1c-0.25,0.06-0.48,0.19-0.66,0.37
					c-0.18,0.18-0.29,0.42-0.33,0.67c-0.04,0.25,0.01,0.51,0.12,0.74c0.11,0.23,0.28,0.43,0.49,0.59c0.42,0.31,1,0.43,1.52,0.28
					c0.51-0.14,0.96-0.48,1.22-0.92c0.27-0.44,0.35-0.98,0.22-1.48C23.3,10.42,23,9.97,22.59,9.65c-0.41-0.32-0.92-0.53-1.45-0.58
					c-0.26-0.02-0.53-0.01-0.79,0.05c-0.17,0.04-0.34,0.09-0.5,0.15V4.41h7.02c-0.01,0.1-0.01,0.19-0.02,0.29
					c-0.44-0.14-0.91-0.19-1.38-0.14c-0.52,0.06-1.02,0.23-1.45,0.51c-0.43,0.28-0.79,0.66-1.03,1.1c-0.12,0.22-0.22,0.45-0.27,0.7
					c-0.06,0.25-0.07,0.5-0.05,0.75c0.05,0.5,0.27,0.99,0.61,1.37c0.34,0.39,0.81,0.67,1.33,0.8c0.53,0.13,1.09,0.05,1.56-0.2
					c0.47-0.25,0.83-0.67,0.97-1.16c0.16-0.5,0.04-1.05-0.29-1.44c-0.16-0.2-0.38-0.36-0.62-0.46c-0.24-0.11-0.51-0.15-0.78-0.12
					c-0.26,0.04-0.51,0.15-0.7,0.31c-0.19,0.17-0.33,0.39-0.39,0.63c-0.06,0.24-0.02,0.5,0.11,0.71c0.13,0.21,0.34,0.37,0.58,0.44
					c-0.23-0.09-0.42-0.25-0.53-0.46c-0.11-0.21-0.13-0.45-0.07-0.66c0.07-0.22,0.21-0.41,0.39-0.55C25,6.68,25.23,6.6,25.46,6.58
					c0.46-0.05,0.93,0.19,1.2,0.54c0.28,0.35,0.36,0.83,0.22,1.24c-0.15,0.42-0.46,0.78-0.87,0.98c-0.4,0.21-0.89,0.27-1.33,0.15
					c-0.45-0.11-0.86-0.36-1.15-0.7c-0.3-0.34-0.48-0.76-0.52-1.2C22.99,7.38,23,7.16,23.05,6.95c0.05-0.21,0.13-0.42,0.24-0.62
					c0.21-0.4,0.53-0.74,0.92-1c0.39-0.26,0.84-0.43,1.31-0.48c0.45-0.05,0.91-0.01,1.34,0.12c0,0.1,0.01,0.2,0.02,0.3
					c0.08,0.92,0.39,1.82,0.91,2.59c0.4,0.59,0.91,1.1,1.5,1.51c-0.01,0.04-0.02,0.08-0.04,0.12c0.02-0.04,0.03-0.08,0.05-0.12
					c0.19,0.13,0.38,0.25,0.58,0.36c0.11,0.06,0.22,0.12,0.34,0.17L23.6,9.96l0.46,0.43l9.25,0.08c0.02,0.1,0.03,0.2,0.05,0.31
					c0.09,0.47,0.25,0.94,0.45,1.38c-0.76,0.17-1.53,0.34-2.3,0.5c-0.2-0.32-0.28-0.64-0.06-0.88c0.45-0.48,1.46-0.1,2.09,0.33
					c-0.97-1.78-3.85-1.32-3,0.57c0.02,0.05,0.05,0.1,0.07,0.15c-1.18,0.21-2.37,0.37-3.55,0.43l0.35,0.33
					c1.12-0.09,2.24-0.27,3.36-0.49c0.53,0.8,1.3,1.2,2.02,1.37c0.85,0.2,1.62,0.09,2.15-0.07c0.14-0.04,0.27-0.09,0.4-0.15
					c0.86,0.78,1.93,1.35,3.08,1.62c0.63,0.15,1.28,0.21,1.93,0.18c0.08,0,0.16-0.01,0.24-0.01l0.12-0.01l0.12-0.01
					c0.17-0.02,0.33-0.04,0.49-0.08c0.32-0.06,0.64-0.15,0.94-0.27c0.61-0.23,1.17-0.57,1.65-0.98c0.48-0.42,0.88-0.92,1.18-1.47
					c0.3-0.55,0.49-1.14,0.57-1.75c0.04-0.29,0.05-0.59,0.03-0.89l0.12,0c0.14,0.56,0.67,0.98,1.3,0.98c0.74,0,1.33-0.57,1.33-1.26
					c0-0.08-0.01-0.16-0.02-0.24c0.77,0,1.55,0.04,2.31,0.14c-0.12,0.18-0.18,0.41-0.12,0.62c0.07-0.1,0.15-0.2,0.25-0.26
					c0.03-0.02,0.06-0.03,0.09-0.04c0.04-0.01,0.08,0.02,0.12,0.03c0.09,0.04,0.19,0.06,0.29,0.08c0.2,0.03,0.4,0.04,0.6,0.03
					c0.08-0.01,0.16-0.02,0.24-0.03c0.05-0.01,0.1-0.02,0.14-0.05c0.03-0.02,0.04-0.05,0.08-0.05c0.04-0.01,0.09,0,0.12,0.03
					c0.04,0.04,0,0.1-0.03,0.13c-0.06,0.04-0.11,0.08-0.15,0.14c-0.13,0.2-0.06,0.48,0.09,0.66c0.01-0.05-0.01-0.1-0.01-0.15
					c-0.01-0.06,0.04-0.11,0.09-0.14c0.11-0.08,0.25-0.13,0.37-0.19c0.13-0.06,0.26-0.13,0.39-0.19c0.47-0.23,0.93-0.47,1.41-0.7
					c0.8-0.39,1.63-0.74,2.53-0.87c0.46-0.06,0.92-0.07,1.38-0.02c0.12,0.01,0.25,0.03,0.37,0.05c0.01,0,0.14,0.03,0.12,0.06
					c-0.01,0.02-0.04,0.02-0.06,0.03c-0.05,0.01-0.1,0.02-0.15,0.03c-0.13,0.01-0.26,0.02-0.39,0.04c-0.87,0.08-1.76,0.22-2.58,0.52
					c-0.57,0.21-1.15,0.51-1.5,0.99c-0.28,0.39-0.37,0.86-0.3,1.33c0.04-0.09,0.11-0.17,0.2-0.22c0.03-0.02,0.21-0.11,0.22-0.06
					c0.01,0.04-0.02,0.09-0.03,0.13c-0.02,0.06-0.03,0.13-0.05,0.19c-0.02,0.11-0.04,0.23-0.05,0.35c-0.02,0.33,0.03,0.65,0.16,0.95
					c-0.57-0.5-1.2-0.93-1.88-1.28c-0.54-0.28-1.14-0.42-1.79-0.39c-1.32,0.05-1.95,0.57-2.33,1.2c-0.37,0.6-0.2,1.37,0.42,1.74
					c0.5,0.3,1.16,0.15,1.47-0.32c0.25-0.38,0.13-0.88-0.27-1.11c-0.27-0.16-0.61-0.12-0.83,0.08c-0.04,0.03-0.07,0.07-0.1,0.11
					c0,0.01-0.01,0.01-0.01,0.02l0,0c-0.04,0.07-0.07,0.16-0.06,0.25c0.01,0.26,0.24,0.47,0.52,0.46c0.18-0.01,0.34-0.1,0.42-0.24
					c0.32,0.59-0.97,0.99-1.28-0.1c-0.17-0.78,0.7-1.73,2.08-1.73c1.01,0.01,2.05,0.36,3.11,1.08c-0.93-0.47-1.6-0.67-1.97-0.66
					c-1.03,0.01-0.89,0.88-0.32,0.9c-0.29-0.24-0.27-0.46,0.16-0.52c0.89-0.13,1.93,0.31,3.15,1.2c0.09,0.09,0.18,0.17,0.27,0.25
					c0.1,0.08,0.23,0.19,0.37,0.25c0,0,0,0,0.01,0l0,0l0,0c0,0,0,0,0,0c0,0,0,0,0,0c0.17,0.07,0.34,0.09,0.49-0.04
					c0.23-0.21,0.18-0.6,0.11-0.86c-0.1,0.26-0.33,0.54-0.66,0.52c-0.33-0.02-0.51-0.33-0.58-0.6c-0.05-0.19-0.05-0.4-0.06-0.59
					c0-0.18,0.01-0.37,0.03-0.55c0.05-0.33,0.14-0.66,0.29-0.96c0.29-0.58,0.77-1.04,1.36-1.34c0.67-0.34,1.44-0.48,2.19-0.49
					c0.18,0,0.37,0,0.56,0.01c0.35,0.96,1.32,1.65,2.45,1.65c1.31,0,2.39-0.92,2.57-2.11c0.17,0.74,0.87,1.3,1.7,1.3
					c0.96,0,1.74-0.74,1.74-1.65C67.93,8.12,67.15,7.38,66.19,7.38z M26.7,17.63c0.27,0.21,0.53,0.48,0.7,0.72
					c0.7,0.98,0.65,1.78,0.4,2.44c-0.48-0.42-1.03-0.77-1.62-1.05C26.35,19.06,26.53,18.35,26.7,17.63z M25.92,20.83
					c0.01-0.07,0.03-0.13,0.05-0.2c0.47,0.24,0.91,0.53,1.3,0.87c0.04,0.03,0.07,0.07,0.11,0.1c-0.06,0.09-0.11,0.18-0.17,0.26
					c-0.66,0.93-1.45,1.84-2.18,2.77C25.32,23.36,25.64,22.09,25.92,20.83z M19.94,18.51c-0.01,0.18-0.05,0.35-0.1,0.52v-1.32
					C19.93,17.97,19.97,18.23,19.94,18.51z M22.8,16.2c0.39,0.62,0.64,1.32,0.72,2.05l-0.01,0.85c-0.01,0-0.01,0-0.02,0
					c-0.32-0.02-0.64-0.01-0.96,0c-0.64,0.04-1.28,0.14-1.89,0.32c-0.17,0.05-0.34,0.1-0.51,0.16c0.15-0.34,0.23-0.7,0.23-1.06
					c0.02-0.46-0.1-0.94-0.36-1.34c-0.05-0.07-0.1-0.15-0.16-0.21v-1.88c0.1,0.06,0.21,0.11,0.32,0.15c0.66,0.28,1.4,0.37,2.11,0.27
					C22.47,15.73,22.65,15.96,22.8,16.2z M21.01,14.48c0.46,0.27,0.87,0.6,1.22,0.98c-0.2,0.01-0.39,0.02-0.59,0
					c-0.49-0.03-0.97-0.16-1.41-0.37c-0.14-0.06-0.27-0.13-0.39-0.21v-0.92C20.26,14.1,20.65,14.27,21.01,14.48z M43.06,4.41h1.48
					c0.04,0.09,0.08,0.18,0.1,0.27c0.02,0.05,0.03,0.11,0.04,0.16c0,0.03,0.01,0.06,0.01,0.08c0,0.03,0.01,0.06,0.01,0.08
					c0.01,0.06,0.01,0.11,0.01,0.17c0,0.05,0,0.11-0.01,0.16c-0.01,0.11-0.03,0.21-0.07,0.32c-0.07,0.21-0.19,0.4-0.34,0.57
					c-0.16,0.16-0.35,0.3-0.57,0.39c-0.11,0.04-0.22,0.08-0.34,0.1c-0.03,0.01-0.06,0.01-0.09,0.01l-0.04,0.01l-0.05,0
					c-0.06,0-0.12,0.01-0.17,0c-0.23-0.01-0.47-0.08-0.67-0.2c-0.2-0.12-0.37-0.3-0.48-0.51c-0.06-0.1-0.1-0.22-0.12-0.33
					c-0.01-0.03-0.01-0.06-0.02-0.09l-0.01-0.05c0-0.01,0-0.03,0-0.04c0-0.06,0-0.12,0-0.18c0.03-0.22,0.13-0.44,0.3-0.61
					c-0.09,0.13-0.14,0.28-0.14,0.45c0,0.45,0.38,0.81,0.86,0.81c0.47,0,0.86-0.36,0.86-0.81C43.63,4.82,43.39,4.52,43.06,4.41z
					 M43.05,9.3c0.01-0.01,0.02-0.02,0.03-0.02c0.15-0.07,0.26-0.18,0.37-0.29c-0.02,0-0.05,0-0.07,0
					c-0.25-0.01-0.51-0.05-0.75-0.11c-0.24-0.06-0.48-0.15-0.7-0.26c-0.44-0.22-0.83-0.54-1.14-0.91c-0.16-0.2-0.3-0.42-0.41-0.66
					c0.28-0.06,0.56-0.09,0.85-0.08c0.58,0.01,1.15,0.14,1.67,0.38c0.51,0.24,0.97,0.59,1.32,1.01c0.16,0.19,0.3,0.39,0.41,0.6
					C44.1,9.03,43.56,9.14,43.05,9.3z M44.73,9.13c0.1,0.21,0.18,0.43,0.23,0.65c0,0,0,0,0,0L42.26,9.8
					C43.04,9.49,43.87,9.26,44.73,9.13z M40.19,5.07c0.07-0.24,0.18-0.46,0.32-0.66h1.92c-0.15,0.04-0.29,0.11-0.42,0.2
					c-0.23,0.17-0.4,0.41-0.46,0.69c-0.02,0.07-0.03,0.14-0.03,0.21c0,0.02,0,0.04,0,0.05l0,0.03l0,0.02c0,0.04,0,0.07,0.01,0.11
					c0.01,0.14,0.05,0.28,0.1,0.41c0.07,0.19,0.19,0.36,0.33,0.51c-0.24-0.03-0.48-0.04-0.72-0.03c-0.32,0.01-0.65,0.06-0.96,0.15
					c-0.04-0.11-0.07-0.22-0.1-0.33c-0.05-0.23-0.08-0.46-0.08-0.69C40.09,5.51,40.13,5.29,40.19,5.07z M40.26,8.1
					c0.19,0.22,0.41,0.42,0.64,0.59c0.24,0.17,0.49,0.32,0.76,0.43c0.33,0.14,0.67,0.24,1.02,0.29c-0.02,0.01-0.04,0.01-0.06,0.02
					c-0.34,0.1-0.67,0.23-0.99,0.37l-3.72,0.03c0.06-1.04,0.71-2.01,1.64-2.5c0.05-0.02,0.09-0.05,0.14-0.07
					C39.85,7.57,40.04,7.85,40.26,8.1z M41.42,10.54c-0.34,0.06-0.69,0.13-1.03,0.2c0.11-0.07,0.23-0.14,0.34-0.21L41.42,10.54z
					 M40.28,10.53c-0.18,0.11-0.36,0.22-0.54,0.34c-1.14,0.24-2.27,0.48-3.39,0.72c-0.53,0.11-1.07,0.23-1.62,0.36
					c-0.21-0.42-0.36-0.87-0.45-1.34c-0.01-0.04-0.02-0.09-0.03-0.13L40.28,10.53z M35.81,9.86c0.73-0.31,1.4-0.73,1.98-1.25
					c0.68-0.61,1.23-1.34,1.61-2.14c0.01-0.01,0.01-0.03,0.02-0.05c0.01,0.06,0.03,0.12,0.04,0.17c0.04,0.15,0.09,0.3,0.15,0.44
					c-0.06,0.03-0.11,0.06-0.17,0.1c-0.53,0.33-0.96,0.79-1.22,1.32C38,8.89,37.89,9.37,37.9,9.84L35.81,9.86z M36.29,4.41h3.34
					c-0.07,0.15-0.13,0.31-0.18,0.47c-0.08,0.28-0.12,0.58-0.11,0.87c0,0.12,0.01,0.23,0.02,0.35c-0.05,0.1-0.1,0.19-0.15,0.29
					c-0.42,0.75-0.99,1.43-1.67,1.97c-0.96,0.78-2.13,1.29-3.36,1.48l0-0.02c-0.02-0.27-0.02-0.54,0-0.81
					c0.03-0.54,0.13-1.08,0.29-1.6c0.32-1.04,0.9-2.01,1.66-2.82C36.18,4.52,36.23,4.46,36.29,4.41z M29.41,8.66
					c-0.4-0.33-0.76-0.73-1.04-1.16c-0.44-0.67-0.71-1.43-0.78-2.22c0.61,0.35,1.11,0.87,1.43,1.48c0.22,0.41,0.35,0.87,0.39,1.33
					C29.43,8.29,29.43,8.48,29.41,8.66z M33.59,7.16c-0.18,0.58-0.29,1.19-0.33,1.79c-0.02,0.3-0.02,0.61,0,0.91
					c0,0.01,0,0.01,0,0.02l-0.9,0.01c-0.77-0.08-1.51-0.31-2.16-0.68c-0.26-0.14-0.5-0.31-0.73-0.49c0.1-0.67,0-1.37-0.29-2
					c-0.33-0.7-0.89-1.3-1.6-1.69c-0.01-0.2,0-0.41,0.02-0.61h2.45c-0.03,0.38,0.04,0.77,0.21,1.12c0.2,0.42,0.54,0.78,0.96,1.02
					c0.42,0.25,0.93,0.36,1.41,0.34c0.38-0.01,0.76-0.08,1.12-0.22C33.7,6.83,33.64,6.99,33.59,7.16z M33.82,6.14
					c-0.36,0.2-0.77,0.33-1.19,0.35c-0.43,0.03-0.84-0.05-1.21-0.24c-0.37-0.19-0.68-0.49-0.88-0.84c-0.17-0.3-0.26-0.65-0.25-1h4.8
					c0,0.02-0.01,0.04-0.01,0.07c-0.39,0.46-0.72,0.97-0.99,1.5C33.99,6.03,33.9,6.09,33.82,6.14z M32.46,13.56
					c-0.26-0.16-0.54-0.4-0.76-0.66c0.76-0.16,1.5-0.34,2.24-0.5c0.29,0.56,0.66,1.08,1.1,1.54C34.34,14.18,33.5,14.22,32.46,13.56z
					 M35.89,13.53c-0.03-0.03-0.07-0.07-0.1-0.1c-0.36-0.37-0.68-0.78-0.92-1.23c0.07-0.01,0.14-0.03,0.21-0.04
					c1.33-0.27,2.67-0.57,4.02-0.85c-0.99,0.69-1.94,1.44-2.93,2.07C36.08,13.42,35.99,13.48,35.89,13.53z M45.02,11.37
					c-0.08,0.53-0.27,1.05-0.54,1.51c-0.55,0.94-1.44,1.68-2.49,2.05c-0.26,0.1-0.53,0.17-0.8,0.22c-0.14,0.02-0.28,0.04-0.41,0.06
					l-0.11,0.01l-0.1,0.01c-0.07,0-0.14,0.01-0.21,0.01c-0.57,0.01-1.13-0.05-1.68-0.19c-0.9-0.22-1.75-0.65-2.45-1.23
					c0.78-0.45,1.46-1.04,2.18-1.61c0.43-0.35,0.88-0.7,1.34-1.03c1.11-0.23,2.22-0.44,3.34-0.62l1.99,0.02c0,0,0,0,0,0
					C45.08,10.84,45.06,11.11,45.02,11.37z M50.91,10.01c-0.84-0.13-1.7-0.19-2.53-0.2c-0.2-0.46-0.68-0.79-1.24-0.79
					c-0.54,0-1.01,0.31-1.22,0.75l-0.32,0c-0.01-0.05-0.03-0.1-0.04-0.14c-0.06-0.2-0.13-0.4-0.22-0.59c1.78-0.19,3.66,0,5.46,0.68
					c0.12,0.04,0.23,0.09,0.35,0.13C51.05,9.9,50.98,9.95,50.91,10.01z M49.48,8.33c-0.2-0.11-0.4-0.23-0.57-0.36
					c-0.16-0.13-0.31-0.29-0.39-0.48c-0.12-0.32,0.01-0.64,0.26-0.86c0.21-0.18,0.47-0.29,0.74-0.34C49.2,6.3,48.86,6.37,48.6,6.56
					c-0.21,0.15-0.36,0.37-0.42,0.62c-0.13,0.53,0.1,1.11,0.47,1.51c0.19,0.21,0.42,0.36,0.68,0.48c-1.37-0.35-2.76-0.44-4.09-0.3
					c-0.16-0.31-0.37-0.59-0.6-0.85c-0.32-0.35-0.7-0.64-1.12-0.87c0.14-0.02,0.27-0.05,0.4-0.09c0.59-0.19,1.08-0.65,1.3-1.21
					c0.06-0.14,0.1-0.29,0.12-0.44c0.01-0.08,0.02-0.15,0.02-0.23c0-0.07,0-0.15,0-0.22c0-0.04-0.01-0.08-0.01-0.11
					c0-0.04-0.01-0.07-0.01-0.11c-0.01-0.07-0.03-0.15-0.04-0.22c-0.01-0.04-0.02-0.07-0.03-0.11h3.22
					c0.09,0.07,0.17,0.14,0.25,0.21c0.88,0.76,1.61,1.67,2.16,2.68c0.27,0.51,0.5,1.04,0.67,1.58c0.02,0.05,0.03,0.09,0.04,0.14
					C50.86,8.91,50.13,8.69,49.48,8.33z"/>
				<path d="M23.58,9.94L23.33,9.7C23.41,9.79,23.49,9.87,23.58,9.94z"/>
			</g>
		</g>
		<g>
			<g>
				<path d="M7.34,42.9c-0.24-0.51-0.38-1.09-0.38-1.67c-0.01-0.29,0.02-0.57,0.08-0.85c0.23,0.11,0.45,0.25,0.66,0.41
					c0.37,0.3,0.69,0.69,0.91,1.14c0.11,0.22,0.2,0.46,0.26,0.7c0.06,0.24,0.1,0.5,0.11,0.75c0,0.02,0,0.05,0,0.07
					c0.12-0.11,0.22-0.22,0.29-0.37c0.01-0.01,0.01-0.02,0.02-0.03c-0.15,0.52-0.27,1.05-0.36,1.59c-0.21-0.12-0.41-0.25-0.6-0.41
					C7.92,43.87,7.58,43.42,7.34,42.9z"/>
				<path d="M5.99,42.77c0-0.47-0.36-0.86-0.81-0.86c-0.16,0-0.32,0.05-0.45,0.14c0.17-0.17,0.39-0.27,0.61-0.3
					c0.06-0.01,0.12-0.01,0.18,0c0.01,0,0.03,0,0.04,0l0.05,0.01c0.03,0,0.06,0.01,0.09,0.01c0.12,0.02,0.23,0.06,0.33,0.12
					C6.23,42,6.4,42.17,6.53,42.37c0.12,0.2,0.19,0.43,0.2,0.67c0,0.06,0,0.12,0,0.17l0,0.05L6.71,43.3c0,0.03-0.01,0.06-0.01,0.09
					c-0.02,0.12-0.06,0.23-0.1,0.34c-0.09,0.22-0.22,0.41-0.39,0.57c-0.16,0.16-0.36,0.27-0.57,0.34c-0.1,0.03-0.21,0.06-0.32,0.07
					c-0.05,0-0.11,0.01-0.16,0.01c-0.05,0-0.1,0-0.17-0.01c-0.03,0-0.05-0.01-0.08-0.01c-0.03,0-0.06-0.01-0.08-0.01
					c-0.05-0.01-0.11-0.03-0.16-0.04c-0.09-0.03-0.18-0.06-0.27-0.1v-1.48c0.11,0.33,0.41,0.57,0.76,0.57
					C5.62,43.63,5.99,43.24,5.99,42.77z"/>
				<path d="M14.89,19.85c0.08,0.13,0.15,0.26,0.21,0.39c0.21,0.44,0.33,0.92,0.37,1.41c0.01,0.2,0.01,0.39,0,0.59
					c-0.38-0.35-0.72-0.77-0.98-1.22c-0.21-0.37-0.38-0.76-0.51-1.17H14.89z"/>
				<path d="M9.78,44.96C9.78,44.96,9.78,44.96,9.78,44.96c-0.23-0.06-0.44-0.13-0.65-0.23c0.14-0.86,0.37-1.69,0.68-2.48
					L9.78,44.96z"/>
				<path d="M15.24,20.17c-0.05-0.11-0.1-0.22-0.15-0.32h1.88c0.07,0.06,0.14,0.11,0.21,0.16c0.4,0.26,0.88,0.38,1.34,0.36
					c0.36-0.01,0.72-0.09,1.06-0.24c-0.06,0.17-0.11,0.34-0.16,0.51c-0.17,0.62-0.28,1.25-0.32,1.89c-0.02,0.32-0.02,0.64,0,0.96
					c0,0.01,0,0.01,0,0.02l-0.85,0.01c-0.73-0.09-1.43-0.33-2.05-0.72c-0.24-0.15-0.47-0.33-0.69-0.52
					C15.61,21.57,15.52,20.83,15.24,20.17z"/>
				<path d="M21.87,27.2c-0.08,0.05-0.17,0.11-0.26,0.17c-0.03-0.04-0.07-0.07-0.1-0.11c-0.35-0.39-0.64-0.83-0.88-1.3
					c0.07-0.02,0.13-0.03,0.2-0.05c1.26-0.28,2.53-0.6,3.81-0.9C23.7,25.76,22.8,26.55,21.87,27.2z"/>
				<path d="M19.03,19.85c-0.17,0.05-0.34,0.08-0.52,0.09c-0.27,0.02-0.54-0.01-0.8-0.09H19.03z"/>
				<polygon points="14.74,55.72 14.75,55.73 14.74,55.72 				"/>
				<path d="M18.36,27.4c-0.24-0.17-0.51-0.42-0.72-0.7c0.72-0.17,1.42-0.35,2.12-0.52c0.27,0.59,0.63,1.14,1.05,1.62
					C20.13,28.06,19.33,28.1,18.36,27.4z"/>
				<path d="M6.76,40.27c-0.09,0.31-0.14,0.64-0.15,0.96c-0.01,0.24,0,0.48,0.03,0.71c-0.15-0.14-0.32-0.26-0.51-0.33
					c-0.13-0.05-0.27-0.09-0.41-0.1c-0.03,0-0.07-0.01-0.11-0.01l-0.02,0l-0.03,0c-0.02,0-0.04,0-0.05,0
					c-0.07,0-0.14,0.02-0.21,0.03c-0.28,0.07-0.52,0.24-0.69,0.46c-0.09,0.13-0.16,0.27-0.2,0.42v-1.92
					c0.2-0.14,0.43-0.25,0.66-0.32c0.22-0.07,0.44-0.1,0.67-0.1c0.23,0,0.46,0.03,0.69,0.08C6.54,40.2,6.65,40.23,6.76,40.27z"/>
				<path d="M12.9,31.7c0.26,0.22,0.5,0.51,0.66,0.76c0.66,1.03,0.62,1.88,0.38,2.58c-0.46-0.44-0.98-0.81-1.54-1.1
					C12.56,33.2,12.73,32.46,12.9,31.7z"/>
				<path d="M9.04,45.33c0.19,0.09,0.39,0.17,0.59,0.22c0.05,0.01,0.1,0.03,0.14,0.04l0,0.32c-0.44,0.21-0.75,0.67-0.75,1.22
					c0,0.56,0.33,1.04,0.79,1.24c0.01,0.83,0.07,1.69,0.2,2.53c-0.06,0.07-0.11,0.15-0.16,0.23c-0.05-0.12-0.09-0.23-0.13-0.35
					C9.05,48.99,8.85,47.11,9.04,45.33z"/>
				<path d="M10.57,45.07l-0.02-1.99c0.18-1.11,0.4-2.23,0.62-3.34c0.33-0.46,0.68-0.91,1.03-1.34c0.58-0.72,1.16-1.41,1.61-2.18
					c0.58,0.7,1.01,1.55,1.23,2.45c0.14,0.55,0.2,1.11,0.19,1.68c0,0.07,0,0.14-0.01,0.21l-0.01,0.1l-0.01,0.11
					c-0.01,0.13-0.03,0.27-0.06,0.41c-0.05,0.27-0.12,0.54-0.22,0.8c-0.38,1.04-1.12,1.94-2.05,2.49c-0.47,0.27-0.98,0.46-1.51,0.54
					C11.11,45.06,10.84,45.08,10.57,45.07C10.57,45.07,10.57,45.07,10.57,45.07z"/>
				<path d="M4.47,35.06c-0.02,0-0.04,0.01-0.07,0.01v-4.8c0.35-0.01,0.7,0.08,1,0.25c0.36,0.2,0.66,0.51,0.84,0.88
					c0.19,0.37,0.27,0.79,0.24,1.21c-0.03,0.42-0.15,0.83-0.35,1.19c-0.05,0.09-0.11,0.17-0.17,0.26
					C5.44,34.34,4.94,34.67,4.47,35.06z"/>
				<path d="M9.84,37.92l-0.03,3.72c-0.14,0.32-0.27,0.65-0.37,0.99c-0.01,0.02-0.01,0.04-0.02,0.06c-0.05-0.35-0.15-0.7-0.29-1.02
					C9,41.39,8.86,41.14,8.69,40.9c-0.17-0.24-0.37-0.45-0.59-0.64c-0.25-0.22-0.53-0.41-0.83-0.55c0.02-0.05,0.04-0.09,0.07-0.14
					C7.83,38.64,8.8,37.99,9.84,37.92z"/>
				<path d="M7.3,50.88c-1.01-0.55-1.93-1.28-2.68-2.16c-0.07-0.08-0.14-0.17-0.21-0.25v-3.22c0.04,0.01,0.07,0.02,0.11,0.03
					c0.07,0.02,0.14,0.03,0.22,0.04c0.04,0.01,0.07,0.01,0.11,0.01c0.04,0,0.07,0.01,0.11,0.01c0.07,0,0.15,0.01,0.22,0
					c0.08,0,0.15-0.01,0.23-0.02c0.15-0.02,0.3-0.06,0.44-0.12c0.57-0.22,1.02-0.72,1.21-1.3c0.04-0.13,0.07-0.26,0.09-0.4
					c0.23,0.42,0.53,0.8,0.87,1.12c0.26,0.24,0.54,0.44,0.85,0.6c-0.13,1.33-0.04,2.72,0.3,4.09c-0.12-0.25-0.27-0.48-0.48-0.68
					c-0.4-0.37-0.98-0.6-1.51-0.47c-0.25,0.06-0.47,0.2-0.62,0.42c-0.19,0.26-0.27,0.6-0.28,0.93c0.05-0.27,0.16-0.54,0.34-0.74
					c0.22-0.25,0.54-0.38,0.86-0.26c0.19,0.07,0.35,0.22,0.48,0.39c0.14,0.18,0.26,0.38,0.36,0.57c0.36,0.65,0.58,1.38,0.69,2.12
					c-0.05-0.01-0.09-0.03-0.14-0.04C8.34,51.38,7.81,51.16,7.3,50.88z"/>
				<path d="M12.16,35.08c0.01-0.07,0.03-0.14,0.04-0.21c0.45,0.25,0.86,0.56,1.23,0.92c0.03,0.03,0.07,0.07,0.1,0.1
					c-0.05,0.1-0.11,0.19-0.16,0.28c-0.62,0.98-1.37,1.94-2.07,2.93C11.59,37.75,11.89,36.41,12.16,35.08z"/>
				<path d="M7.13,39.43c-0.03,0.05-0.07,0.11-0.1,0.17c-0.14-0.06-0.29-0.11-0.44-0.15c-0.06-0.02-0.12-0.03-0.17-0.04
					c0.01-0.01,0.03-0.01,0.04-0.02c0.8-0.38,1.53-0.93,2.14-1.61c0.51-0.58,0.94-1.25,1.25-1.98l-0.02,2.1
					c-0.47-0.01-0.95,0.1-1.38,0.31C7.92,38.48,7.46,38.9,7.13,39.43z"/>
				<path d="M10.61,34.28c0.46,0.09,0.91,0.24,1.33,0.45c-0.12,0.54-0.24,1.08-0.36,1.62c-0.24,1.13-0.49,2.26-0.72,3.39
					c-0.12,0.18-0.23,0.36-0.34,0.54l-0.05-6.03C10.52,34.26,10.57,34.27,10.61,34.28z"/>
				<path d="M6.55,31.23c-0.24-0.42-0.6-0.76-1.02-0.96c-0.35-0.17-0.74-0.25-1.12-0.21V27.6c0.2-0.02,0.4-0.02,0.61-0.02
					c0.39,0.7,0.99,1.27,1.69,1.6c0.63,0.29,1.33,0.39,2,0.29c0.18,0.23,0.35,0.47,0.49,0.73c0.37,0.66,0.6,1.4,0.68,2.16l-0.01,0.9
					c-0.01,0-0.01,0-0.02,0c-0.3-0.02-0.61-0.02-0.91,0c-0.61,0.04-1.21,0.15-1.79,0.33c-0.16,0.05-0.32,0.11-0.48,0.17
					c0.14-0.36,0.22-0.74,0.22-1.12C6.91,32.16,6.8,31.64,6.55,31.23z"/>
				<path d="M10.54,41.42l-0.01-0.69c0.07-0.11,0.14-0.23,0.21-0.34C10.67,40.74,10.6,41.08,10.54,41.42z"/>
				<path d="M9,34.18c0.27-0.02,0.54-0.02,0.81,0l0.02,0c-0.19,1.23-0.7,2.4-1.48,3.36c-0.54,0.68-1.22,1.25-1.97,1.67
					c-0.09,0.05-0.19,0.1-0.29,0.15c-0.11-0.01-0.23-0.02-0.35-0.02c-0.29,0-0.58,0.03-0.87,0.11c-0.16,0.05-0.32,0.11-0.47,0.18
					v-3.34c0.06-0.06,0.11-0.11,0.17-0.17c0.81-0.76,1.78-1.34,2.82-1.66C7.92,34.31,8.46,34.21,9,34.18z"/>
				<path d="M6.78,29.03c-0.61-0.31-1.13-0.82-1.48-1.43c0.78,0.07,1.55,0.34,2.22,0.78c0.43,0.28,0.82,0.63,1.16,1.04
					c-0.19,0.02-0.37,0.02-0.56,0C7.64,29.38,7.19,29.24,6.78,29.03z"/>
				<polygon points="17.34,17.34 1.9,17.34 1.9,67.02 0,67.02 0,15.44 15.44,15.44 				"/>
				<path d="M9.7,23.33l0.24,0.25C9.85,23.51,9.77,23.42,9.7,23.33z"/>
				<path d="M7.38,66.19c0-0.83,0.56-1.53,1.3-1.7c-1.19-0.18-2.11-1.26-2.11-2.57c0-1.07,0.61-1.99,1.49-2.39v-3.35
					c0-0.12,0.09-0.22,0.21-0.22c0.01,0,0.03,0,0.04,0C8.29,55.65,8.26,55.32,8.22,55c-0.02-0.13-0.04-0.27-0.07-0.4
					c-0.03-0.13-0.05-0.25-0.1-0.37c-0.08-0.21-0.2-0.39-0.36-0.54c-0.16-0.16-0.34-0.28-0.53-0.4c0.32-0.06,0.73-0.1,0.98,0.17
					c0.01-0.3-0.01-0.62-0.15-0.89c-0.11-0.22-0.3-0.36-0.53-0.41c0.28-0.04,0.58-0.05,0.84,0.07c0.23,0.1,0.39,0.3,0.49,0.53
					c0.13,0.3,0.15,0.65,0.15,0.97c0,0.22-0.02,0.43-0.05,0.65c-0.01,0.12-0.04,0.23-0.05,0.35c0,0.05,0,0.15,0.06,0.17
					c0.06,0.02,0.1-0.07,0.11-0.12c0.04-0.12,0.04-0.26,0.06-0.39c0.03-0.27,0.05-0.54,0.06-0.81c0.02-0.5,0.01-1.01-0.04-1.51
					c-0.01-0.11-0.03-0.23-0.04-0.34c-0.06-0.01-0.13-0.03-0.19-0.04c-0.56-0.14-1.12-0.33-1.65-0.58
					c-1.03-0.47-1.97-1.15-2.79-1.97v17.87H3.34V18.78h15.44l1.63,1.63c-0.06,0.16-0.11,0.33-0.15,0.49
					c-0.15,0.55-0.24,1.12-0.27,1.69c-0.01,0.29-0.01,0.57,0,0.86l0,0.02c0.88-0.15,1.73-0.5,2.48-1.01l0.28,0.28
					c-0.38,0.29-0.79,0.54-1.22,0.75l1.95-0.02l0.71,0.71l-4.13-0.04c0.01,0.05,0.02,0.1,0.02,0.14c0.09,0.49,0.23,0.96,0.43,1.41
					c0.51-0.13,1.03-0.26,1.53-0.38c0.88-0.21,1.77-0.42,2.65-0.63l0.35,0.35c-0.37,0.3-0.72,0.61-1.07,0.92
					c-0.68,0.61-1.33,1.22-2.07,1.7c0.66,0.61,1.46,1.06,2.32,1.3c0.52,0.14,1.06,0.21,1.59,0.2c0.07,0,0.13,0,0.2-0.01l0.1-0.01
					l0.11-0.01c0.12-0.01,0.26-0.03,0.39-0.06c0.26-0.05,0.52-0.13,0.76-0.23c0.34-0.13,0.66-0.31,0.95-0.53l0.56,0.56
					c-0.37,0.3-0.79,0.55-1.22,0.74c-0.29,0.12-0.59,0.22-0.89,0.29c-0.15,0.03-0.3,0.06-0.46,0.08L26.2,30l-0.12,0.01
					c-0.08,0.01-0.15,0.01-0.23,0.01c-0.61,0.03-1.23-0.04-1.83-0.19c-1.09-0.28-2.11-0.88-2.92-1.71
					c-0.12,0.06-0.25,0.11-0.38,0.15c-0.5,0.17-1.23,0.28-2.04,0.07c-0.68-0.18-1.41-0.6-1.92-1.45c-1.06,0.24-2.12,0.43-3.18,0.52
					l-0.33-0.35c1.12-0.06,2.24-0.23,3.36-0.45c-0.02-0.05-0.05-0.1-0.07-0.15c-0.81-2,1.93-2.48,2.85-0.6
					c-0.6-0.45-1.56-0.86-1.98-0.35c-0.2,0.25-0.14,0.59,0.06,0.92c0.73-0.16,1.46-0.34,2.18-0.53c-0.19-0.47-0.34-0.95-0.43-1.45
					c-0.02-0.11-0.04-0.21-0.05-0.32l-8.77-0.08L9.96,23.6l6.26-0.06c-0.11-0.06-0.22-0.12-0.32-0.18
					c-0.19-0.11-0.37-0.24-0.55-0.38c-0.01,0.04-0.03,0.08-0.04,0.13c0.01-0.04,0.02-0.09,0.04-0.13c-0.56-0.43-1.04-0.98-1.42-1.59
					c-0.29-0.47-0.51-1-0.66-1.54H9.62c-0.08,0.18-0.15,0.38-0.19,0.57c-0.05,0.23-0.06,0.46-0.04,0.69
					c0.04,0.46,0.21,0.91,0.5,1.27c0.28,0.36,0.67,0.62,1.09,0.74c0.42,0.12,0.88,0.06,1.26-0.16c0.38-0.22,0.68-0.6,0.82-1.04
					c0.14-0.43,0.06-0.94-0.2-1.31c-0.26-0.37-0.7-0.63-1.14-0.58c-0.22,0.02-0.43,0.11-0.61,0.26c-0.17,0.15-0.31,0.36-0.37,0.58
					c-0.06,0.23-0.04,0.48,0.06,0.7c0.1,0.22,0.28,0.4,0.5,0.49c-0.23-0.07-0.43-0.24-0.55-0.46c-0.12-0.22-0.16-0.49-0.1-0.75
					c0.06-0.25,0.19-0.48,0.37-0.66c0.18-0.18,0.42-0.29,0.67-0.33c0.25-0.04,0.51,0.01,0.74,0.12c0.23,0.11,0.43,0.28,0.59,0.49
					c0.31,0.42,0.43,1,0.28,1.52c-0.14,0.51-0.48,0.96-0.92,1.22c-0.44,0.27-0.98,0.35-1.48,0.21C10.42,23.3,9.97,23,9.65,22.59
					c-0.32-0.41-0.53-0.92-0.58-1.45c-0.02-0.27-0.01-0.53,0.05-0.79c0.04-0.17,0.09-0.34,0.15-0.5H4.41v7.02
					c0.1-0.01,0.19-0.01,0.29-0.02c-0.14-0.44-0.19-0.91-0.14-1.37c0.06-0.52,0.23-1.02,0.51-1.45c0.28-0.43,0.66-0.79,1.1-1.03
					c0.22-0.12,0.45-0.22,0.7-0.27c0.25-0.06,0.5-0.07,0.75-0.05c0.5,0.05,0.99,0.27,1.37,0.61c0.39,0.34,0.67,0.81,0.8,1.33
					c0.12,0.53,0.05,1.09-0.2,1.56c-0.25,0.47-0.68,0.83-1.16,0.97c-0.5,0.16-1.05,0.04-1.44-0.29c-0.2-0.16-0.36-0.38-0.46-0.62
					c-0.11-0.24-0.15-0.51-0.12-0.78c0.04-0.26,0.15-0.51,0.31-0.7c0.17-0.19,0.39-0.33,0.63-0.39c0.24-0.06,0.5-0.02,0.71,0.11
					c0.21,0.13,0.37,0.34,0.44,0.58c-0.09-0.23-0.25-0.42-0.46-0.53c-0.21-0.11-0.45-0.13-0.66-0.07c-0.22,0.07-0.41,0.21-0.55,0.39
					C6.68,25,6.6,25.23,6.58,25.46c-0.05,0.46,0.19,0.93,0.55,1.2c0.35,0.28,0.83,0.36,1.24,0.22c0.42-0.15,0.78-0.46,0.99-0.87
					c0.21-0.4,0.27-0.89,0.15-1.33c-0.11-0.45-0.36-0.86-0.7-1.15c-0.34-0.3-0.76-0.48-1.2-0.52C7.38,22.99,7.16,23,6.95,23.05
					c-0.21,0.05-0.42,0.13-0.62,0.24c-0.4,0.21-0.74,0.53-1,0.92c-0.26,0.39-0.43,0.84-0.48,1.31c-0.05,0.45-0.01,0.91,0.12,1.34
					c0.1,0,0.2,0.01,0.3,0.02c0.92,0.08,1.82,0.39,2.59,0.91c0.59,0.4,1.1,0.91,1.51,1.5c0.04-0.01,0.08-0.02,0.12-0.04
					c-0.04,0.02-0.08,0.03-0.12,0.05c0.13,0.19,0.25,0.38,0.36,0.58c0.06,0.11,0.12,0.23,0.17,0.34l0.05-6.61l0.43,0.46l0.08,9.26
					c0.1,0.01,0.2,0.03,0.31,0.05c0.47,0.09,0.94,0.25,1.38,0.45c0.17-0.76,0.34-1.53,0.5-2.3c-0.32-0.2-0.64-0.28-0.88-0.06
					c-0.48,0.45-0.1,1.46,0.33,2.09c-1.78-0.97-1.32-3.85,0.57-3c0.05,0.02,0.1,0.05,0.15,0.08c0.21-1.18,0.37-2.37,0.43-3.55
					l0.33,0.35c-0.09,1.12-0.27,2.24-0.49,3.36c0.8,0.53,1.2,1.3,1.37,2.02c0.2,0.85,0.09,1.62-0.07,2.15
					c-0.04,0.14-0.09,0.27-0.15,0.4c0.78,0.86,1.35,1.93,1.62,3.08c0.15,0.63,0.21,1.28,0.18,1.93c0,0.08-0.01,0.16-0.01,0.24
					l-0.01,0.12l-0.01,0.12c-0.02,0.17-0.04,0.33-0.08,0.49c-0.06,0.32-0.15,0.64-0.27,0.94c-0.23,0.61-0.57,1.17-0.98,1.65
					c-0.42,0.48-0.92,0.88-1.46,1.18c-0.55,0.3-1.14,0.49-1.75,0.57c-0.29,0.04-0.59,0.05-0.89,0.03l0,0.12
					c0.56,0.14,0.98,0.67,0.98,1.3c0,0.74-0.57,1.33-1.26,1.33c-0.08,0-0.16-0.01-0.24-0.02c0,0.77,0.04,1.55,0.14,2.31
					c0.18-0.12,0.41-0.18,0.62-0.12c-0.1,0.07-0.2,0.15-0.26,0.25c-0.02,0.03-0.03,0.06-0.04,0.09c-0.01,0.04,0.02,0.08,0.04,0.12
					c0.03,0.09,0.06,0.19,0.08,0.29c0.03,0.2,0.04,0.4,0.03,0.6c-0.01,0.08-0.02,0.16-0.03,0.24c-0.01,0.05-0.02,0.1-0.05,0.14
					c-0.02,0.03-0.05,0.04-0.05,0.08c-0.01,0.04,0,0.09,0.03,0.12c0.04,0.04,0.1,0,0.13-0.03c0.04-0.06,0.08-0.11,0.14-0.15
					c0.2-0.13,0.48-0.06,0.66,0.09c-0.05,0.01-0.1-0.01-0.15-0.01c-0.06-0.01-0.11,0.04-0.14,0.09c-0.08,0.11-0.13,0.25-0.19,0.37
					c-0.06,0.13-0.13,0.26-0.19,0.39c-0.23,0.47-0.47,0.93-0.7,1.41c-0.39,0.8-0.74,1.63-0.87,2.53c-0.06,0.46-0.07,0.92-0.02,1.38
					c0.01,0.12,0.03,0.25,0.05,0.37c0,0.01,0.03,0.14,0.06,0.12c0.02-0.01,0.02-0.04,0.03-0.06c0.01-0.05,0.02-0.1,0.03-0.15
					c0.01-0.13,0.02-0.26,0.04-0.39c0.08-0.87,0.22-1.76,0.52-2.58c0.21-0.57,0.51-1.15,0.99-1.5c0.39-0.28,0.86-0.37,1.33-0.3
					c-0.09,0.04-0.17,0.11-0.22,0.2c-0.02,0.03-0.11,0.21-0.06,0.22c0.04,0.01,0.09-0.02,0.13-0.03c0.06-0.02,0.13-0.03,0.19-0.05
					c0.11-0.02,0.23-0.04,0.35-0.05c0.33-0.02,0.65,0.03,0.95,0.16c-0.5-0.57-0.93-1.2-1.28-1.88c-0.28-0.54-0.42-1.14-0.39-1.79
					c0.05-1.32,0.57-1.95,1.2-2.33c0.6-0.37,1.37-0.2,1.74,0.42c0.3,0.5,0.15,1.16-0.32,1.47c-0.38,0.25-0.88,0.13-1.11-0.27
					c-0.16-0.27-0.12-0.61,0.08-0.83c0.03-0.04,0.07-0.07,0.11-0.1c0,0,0.01-0.01,0.01-0.01l0,0c0.07-0.04,0.16-0.07,0.25-0.06
					c0.26,0.01,0.47,0.24,0.46,0.52c-0.01,0.18-0.1,0.34-0.24,0.42c0.6,0.32,0.99-0.97-0.1-1.28c-0.78-0.17-1.73,0.7-1.73,2.08
					c0.01,1.01,0.36,2.05,1.08,3.11c-0.47-0.93-0.67-1.6-0.66-1.97c0.01-1.03,0.88-0.89,0.9-0.32c-0.24-0.29-0.46-0.27-0.52,0.16
					c-0.13,0.89,0.3,1.93,1.2,3.15c0.09,0.09,0.17,0.18,0.25,0.27c0.08,0.1,0.19,0.23,0.25,0.37c0,0,0,0,0,0.01l0,0v0c0,0,0,0,0,0
					c0,0,0,0,0,0c0.07,0.17,0.09,0.34-0.04,0.49c-0.21,0.23-0.6,0.18-0.86,0.11c0.26-0.11,0.54-0.33,0.52-0.66
					c-0.02-0.33-0.33-0.51-0.6-0.58c-0.19-0.05-0.4-0.05-0.59-0.06c-0.18,0-0.37,0.01-0.55,0.03c-0.33,0.05-0.66,0.14-0.96,0.29
					c-0.58,0.29-1.04,0.77-1.34,1.36c-0.34,0.67-0.48,1.44-0.49,2.19c0,0.19,0,0.37,0.01,0.56c0.96,0.35,1.65,1.32,1.65,2.45
					c0,1.31-0.92,2.39-2.11,2.57c0.74,0.17,1.3,0.87,1.3,1.7c0,0.96-0.74,1.74-1.65,1.74C8.12,67.93,7.38,67.15,7.38,66.19z
					 M17.63,26.7c0.21,0.27,0.48,0.53,0.72,0.7c0.98,0.7,1.78,0.66,2.44,0.4c-0.42-0.48-0.77-1.03-1.05-1.62
					C19.06,26.35,18.35,26.53,17.63,26.7z M20.83,25.92c-0.07,0.02-0.13,0.03-0.2,0.05c0.24,0.47,0.53,0.91,0.88,1.3
					c0.03,0.04,0.06,0.07,0.1,0.11c0.09-0.06,0.18-0.11,0.26-0.17c0.93-0.66,1.84-1.45,2.77-2.18
					C23.36,25.32,22.09,25.64,20.83,25.92z M18.51,19.94c0.18-0.01,0.35-0.04,0.52-0.09h-1.32C17.97,19.93,18.23,19.97,18.51,19.94z
					 M16.2,22.8c0.62,0.39,1.32,0.64,2.05,0.72l0.85-0.01c0-0.01,0-0.01,0-0.02c-0.02-0.32-0.01-0.64,0-0.96
					c0.04-0.64,0.14-1.28,0.32-1.89c0.05-0.17,0.1-0.34,0.16-0.51c-0.34,0.15-0.7,0.23-1.06,0.24c-0.46,0.01-0.94-0.1-1.34-0.36
					c-0.07-0.05-0.15-0.1-0.21-0.16h-1.88c0.06,0.1,0.11,0.21,0.15,0.32c0.28,0.66,0.37,1.4,0.27,2.11
					C15.73,22.47,15.96,22.65,16.2,22.8z M14.48,21.01c0.27,0.46,0.6,0.87,0.98,1.22c0.01-0.2,0.02-0.39,0-0.59
					c-0.03-0.49-0.16-0.97-0.37-1.41c-0.06-0.14-0.13-0.27-0.21-0.39h-0.92C14.1,20.26,14.27,20.65,14.48,21.01z M4.41,43.06v1.48
					c0.09,0.04,0.18,0.08,0.27,0.1c0.05,0.02,0.11,0.03,0.16,0.04c0.03,0.01,0.06,0.01,0.08,0.01c0.03,0,0.06,0.01,0.08,0.01
					c0.06,0.01,0.11,0.01,0.17,0.01c0.05,0,0.11,0,0.16-0.01c0.11-0.01,0.21-0.03,0.32-0.07c0.21-0.07,0.4-0.19,0.57-0.34
					c0.16-0.16,0.3-0.35,0.39-0.57c0.04-0.11,0.08-0.22,0.1-0.34c0.01-0.03,0.01-0.06,0.01-0.09l0.01-0.04l0-0.05
					c0-0.06,0.01-0.12,0-0.17c-0.01-0.23-0.08-0.47-0.2-0.67c-0.12-0.2-0.3-0.37-0.51-0.48c-0.1-0.05-0.22-0.1-0.33-0.12
					c-0.03-0.01-0.06-0.01-0.09-0.01l-0.05-0.01c-0.01,0-0.03,0-0.04,0c-0.06,0-0.12,0-0.18,0c-0.22,0.03-0.44,0.13-0.61,0.3
					c0.13-0.09,0.28-0.14,0.45-0.14c0.45,0,0.81,0.38,0.81,0.86s-0.36,0.86-0.81,0.86C4.82,43.63,4.52,43.39,4.41,43.06z M9.3,43.05
					c-0.01,0.01-0.02,0.02-0.02,0.03c-0.07,0.15-0.18,0.26-0.29,0.37c0-0.02,0-0.05,0-0.07c-0.01-0.26-0.05-0.51-0.11-0.75
					c-0.06-0.24-0.15-0.48-0.26-0.7c-0.22-0.45-0.54-0.83-0.91-1.14c-0.2-0.16-0.42-0.3-0.66-0.41c-0.06,0.28-0.09,0.56-0.08,0.85
					c0.01,0.58,0.14,1.16,0.38,1.67c0.24,0.51,0.59,0.97,1.01,1.32c0.19,0.16,0.39,0.3,0.6,0.41C9.03,44.1,9.15,43.56,9.3,43.05z
					 M9.13,44.73c0.21,0.1,0.43,0.18,0.65,0.23c0,0,0,0,0,0l0.02-2.71C9.49,43.04,9.26,43.87,9.13,44.73z M5.07,40.19
					c-0.23,0.07-0.46,0.18-0.66,0.32v1.92c0.04-0.15,0.11-0.3,0.2-0.42c0.17-0.23,0.41-0.4,0.69-0.46c0.07-0.02,0.14-0.03,0.21-0.03
					c0.02,0,0.04,0,0.05,0l0.03,0l0.02,0c0.04,0,0.07,0,0.11,0.01c0.14,0.01,0.28,0.05,0.41,0.1c0.19,0.07,0.36,0.19,0.51,0.33
					c-0.03-0.24-0.04-0.48-0.03-0.71c0.01-0.32,0.06-0.65,0.15-0.96c-0.11-0.04-0.22-0.07-0.33-0.1c-0.23-0.05-0.46-0.08-0.69-0.08
					C5.51,40.09,5.29,40.13,5.07,40.19z M8.1,40.26c0.22,0.19,0.42,0.41,0.59,0.64c0.17,0.24,0.32,0.49,0.43,0.76
					c0.14,0.33,0.24,0.67,0.29,1.02c0.01-0.02,0.01-0.04,0.02-0.06c0.1-0.34,0.23-0.67,0.37-0.99l0.03-3.72
					c-1.04,0.06-2.01,0.71-2.5,1.64c-0.02,0.05-0.05,0.09-0.07,0.14C7.57,39.85,7.85,40.04,8.1,40.26z M10.54,41.42
					c0.06-0.34,0.13-0.69,0.2-1.03c-0.07,0.11-0.14,0.23-0.21,0.34L10.54,41.42z M10.53,40.28c0.11-0.18,0.23-0.36,0.34-0.54
					c0.24-1.14,0.48-2.27,0.72-3.39c0.11-0.53,0.23-1.07,0.36-1.62c-0.42-0.21-0.87-0.36-1.33-0.45c-0.04-0.01-0.09-0.02-0.13-0.03
					L10.53,40.28z M9.86,35.81c-0.31,0.73-0.73,1.4-1.25,1.98C8,38.46,7.27,39.01,6.46,39.39c-0.02,0.01-0.03,0.01-0.04,0.02
					c0.06,0.01,0.12,0.03,0.17,0.04c0.15,0.04,0.3,0.09,0.44,0.15c0.03-0.06,0.06-0.11,0.1-0.17c0.33-0.53,0.79-0.96,1.32-1.22
					C8.89,38,9.37,37.89,9.84,37.9L9.86,35.81z M4.41,36.29v3.34c0.15-0.07,0.31-0.13,0.47-0.18c0.28-0.08,0.58-0.12,0.87-0.11
					c0.12,0,0.23,0.01,0.35,0.02c0.1-0.05,0.19-0.1,0.29-0.15c0.75-0.42,1.43-0.99,1.97-1.67c0.78-0.96,1.29-2.13,1.48-3.36l-0.02,0
					c-0.27-0.02-0.54-0.02-0.81,0c-0.54,0.03-1.08,0.13-1.6,0.29c-1.04,0.32-2.01,0.9-2.82,1.66C4.52,36.18,4.46,36.23,4.41,36.29z
					 M8.66,29.41c-0.33-0.4-0.73-0.76-1.16-1.04c-0.67-0.44-1.43-0.71-2.22-0.78c0.35,0.61,0.87,1.11,1.48,1.43
					c0.41,0.22,0.87,0.35,1.33,0.39C8.29,29.43,8.48,29.43,8.66,29.41z M7.16,33.59c0.58-0.18,1.19-0.3,1.79-0.33
					c0.3-0.02,0.61-0.02,0.91,0c0.01,0,0.01,0,0.02,0l0.01-0.9c-0.08-0.77-0.31-1.5-0.68-2.16c-0.14-0.26-0.31-0.5-0.49-0.73
					c-0.67,0.1-1.37,0-2-0.29c-0.7-0.33-1.3-0.89-1.69-1.6c-0.2-0.01-0.41,0-0.61,0.02v2.45c0.38-0.03,0.77,0.04,1.12,0.21
					c0.42,0.2,0.78,0.54,1.02,0.96c0.25,0.42,0.36,0.93,0.34,1.41c-0.01,0.38-0.08,0.76-0.22,1.12C6.83,33.7,6.99,33.64,7.16,33.59z
					 M6.14,33.82c0.2-0.36,0.33-0.77,0.35-1.19c0.03-0.43-0.05-0.84-0.24-1.21c-0.19-0.37-0.48-0.68-0.84-0.88
					c-0.3-0.17-0.65-0.26-1-0.25v4.8c0.02,0,0.04-0.01,0.07-0.01c0.46-0.39,0.97-0.72,1.5-0.99C6.03,33.99,6.09,33.9,6.14,33.82z
					 M13.56,32.46c-0.16-0.26-0.4-0.54-0.66-0.76c-0.16,0.76-0.34,1.5-0.5,2.24c0.56,0.29,1.08,0.66,1.54,1.1
					C14.18,34.34,14.22,33.5,13.56,32.46z M13.53,35.89c-0.03-0.03-0.07-0.07-0.1-0.1c-0.37-0.36-0.78-0.68-1.23-0.92
					c-0.01,0.07-0.03,0.14-0.04,0.21c-0.27,1.33-0.57,2.67-0.85,4.02c0.69-0.99,1.44-1.94,2.07-2.93
					C13.42,36.08,13.48,35.99,13.53,35.89z M11.37,45.02c0.53-0.08,1.05-0.27,1.51-0.54c0.94-0.55,1.68-1.44,2.05-2.49
					c0.09-0.26,0.17-0.53,0.22-0.8c0.02-0.14,0.04-0.28,0.06-0.41l0.01-0.11l0.01-0.1c0-0.07,0.01-0.14,0.01-0.21
					c0.01-0.57-0.05-1.14-0.19-1.68c-0.22-0.9-0.65-1.75-1.23-2.45c-0.45,0.78-1.04,1.46-1.61,2.18c-0.35,0.43-0.71,0.88-1.03,1.34
					c-0.23,1.11-0.44,2.22-0.62,3.34l0.02,1.99c0,0,0,0,0,0C10.84,45.08,11.11,45.06,11.37,45.02z M10.01,50.91
					c-0.13-0.84-0.19-1.7-0.2-2.53c-0.46-0.2-0.79-0.68-0.79-1.24c0-0.54,0.31-1.01,0.75-1.22l0-0.32c-0.05-0.01-0.1-0.03-0.14-0.04
					c-0.2-0.06-0.4-0.13-0.59-0.22c-0.19,1.78,0,3.66,0.68,5.46c0.04,0.12,0.09,0.23,0.13,0.35C9.9,51.05,9.95,50.98,10.01,50.91z
					 M8.33,49.48c-0.11-0.2-0.23-0.4-0.36-0.57c-0.13-0.16-0.29-0.31-0.48-0.39c-0.32-0.12-0.64,0.01-0.86,0.26
					c-0.18,0.21-0.29,0.47-0.34,0.74c0.01-0.33,0.09-0.67,0.28-0.93c0.15-0.21,0.37-0.36,0.62-0.42c0.53-0.13,1.11,0.1,1.51,0.47
					c0.21,0.19,0.36,0.42,0.48,0.68c-0.35-1.37-0.44-2.76-0.3-4.09c-0.31-0.16-0.59-0.37-0.85-0.6c-0.35-0.32-0.64-0.7-0.87-1.12
					c-0.02,0.14-0.05,0.27-0.09,0.4c-0.19,0.59-0.65,1.08-1.21,1.3c-0.14,0.06-0.29,0.1-0.44,0.12c-0.08,0.01-0.15,0.02-0.23,0.02
					c-0.07,0-0.15,0-0.22,0c-0.04,0-0.08-0.01-0.11-0.01c-0.04,0-0.07-0.01-0.11-0.01c-0.07-0.01-0.15-0.03-0.22-0.04
					c-0.04-0.01-0.07-0.02-0.11-0.03v3.22c0.07,0.08,0.14,0.17,0.21,0.25c0.76,0.88,1.67,1.61,2.68,2.16
					c0.51,0.27,1.04,0.5,1.58,0.67c0.05,0.02,0.09,0.03,0.14,0.04C8.91,50.86,8.69,50.13,8.33,49.48z"/>
				<path d="M9.94,23.58L9.7,23.33C9.79,23.41,9.87,23.49,9.94,23.58z"/>
			</g>
		</g>
	</g>
</g>
</svg>
