<?xml version="1.0" encoding="utf-8"?>
<!-- Generator: Adobe Illustrator 23.0.3, SVG Export Plug-In . SVG Version: 6.00 Build 0)  -->
<svg version="1.1" id="Layer_1" xmlns="http://www.w3.org/2000/svg" xmlns:xlink="http://www.w3.org/1999/xlink" x="0px" y="0px"
	 viewBox="0 0 66.41 66.27" style="enable-background:new 0 0 66.41 66.27;" xml:space="preserve">
<g>
	<path d="M36.61,4.09c0.29,0.92,0.87,1.7,1.74,2.15c0.66,0.34,1.53,0.53,2.24,0.23c0.64-0.27,1.14-1,0.95-1.71
		c-0.18-0.67-1.03-1.08-1.62-0.63c-0.35,0.23-0.47,0.85-0.07,1.12c-0.11-0.39,0.13-0.78,0.54-0.81c0.3-0.02,0.6,0.19,0.66,0.47
		c0.01,0.05,0.01,0.1,0.02,0.16c0,0.09-0.02,0.19-0.05,0.28c-0.03,0.09-0.06,0.17-0.1,0.25C40.9,5.6,40.9,5.61,40.89,5.62
		C40.4,6.38,39.3,6.29,38.57,6c-0.9-0.36-1.49-1.13-1.8-2.02c-0.02-0.06-0.03-0.11-0.05-0.17h-0.19C36.56,3.91,36.58,4,36.61,4.09z"
		/>
	<path d="M15.63,12.72c-0.47-0.01-1.24,0.2-2.28,0.69c-0.49,1.04-0.7,1.8-0.69,2.28c0.02,1.6,1.45,1.39,1.48,0.51
		c-0.39,0.45-0.76,0.42-0.86-0.25c-0.1-0.69,0.02-1.44,0.35-2.26c0.81-0.33,1.56-0.45,2.26-0.35c0.67,0.1,0.7,0.47,0.25,0.86
		C17.03,14.17,17.23,12.74,15.63,12.72z"/>
	<path d="M37.02,7.09c-1.21-0.82-2.74-1.31-4.2-1.21c-1.07,0.07-2.06,0.59-2.75,1.38c-0.11-0.04-0.22-0.07-0.33-0.11
		c0.21-0.28,0.46-0.54,0.74-0.76c0.59-0.46,1.31-0.73,2.05-0.83c1.14-0.17,2.29,0.02,3.37,0.39c-0.24-0.69-0.4-1.42-0.44-2.15h-0.2
		c0.02,0.45,0.08,0.9,0.17,1.34c0.03,0.15,0.07,0.3,0.11,0.45c-0.15-0.04-0.3-0.08-0.45-0.11c-0.77-0.17-1.57-0.23-2.36-0.14
		c-0.74,0.08-1.46,0.3-2.09,0.69c-0.44,0.27-0.82,0.63-1.14,1.04c-0.76-0.22-1.53-0.4-2.33-0.52c-0.21-0.2-0.43-0.37-0.67-0.52
		c-0.63-0.39-1.36-0.61-2.09-0.69c-0.79-0.09-1.58-0.02-2.36,0.14c-0.21,0.05-0.42,0.1-0.63,0.16c0.32-0.55,0.49-1.21,0.39-1.84
		h-0.48c0,0.12-0.03,0.24-0.07,0.37c-0.12,0.32-0.35,0.58-0.6,0.8c-0.28,0.23-0.59,0.42-0.9,0.6c-1.24,0.71-2.64,1.1-4.06,1.25
		c-0.79,0.08-1.58,0.1-2.37,0.06c-0.42-0.02-0.84-0.05-1.26-0.1c-0.2-0.02-0.42-0.03-0.61-0.09c-0.07-0.02-0.21-0.09-0.18-0.18
		c0.03-0.09,0.19-0.1,0.27-0.1c0.18,0.01,0.37,0.05,0.55,0.08c0.34,0.05,0.68,0.08,1.01,0.08c0.51,0.01,1.05-0.04,1.52-0.24
		c0.37-0.16,0.67-0.43,0.83-0.81c0.19-0.43,0.18-0.93,0.11-1.39c-0.07,0.38-0.29,0.7-0.64,0.88C14.5,5.24,14,5.27,13.53,5.26
		c0.37-0.38,0.36-0.95,0.29-1.45h-0.13c-0.15,0.25-0.32,0.49-0.52,0.7c-0.24,0.25-0.52,0.46-0.85,0.59
		c-0.19,0.08-0.39,0.12-0.59,0.16c-0.21,0.05-0.42,0.08-0.63,0.12c-0.86,0.13-1.73,0.16-2.59,0.17c-0.88,0-1.76-0.02-2.65-0.01
		c-0.13,0-0.25,0-0.38,0.01l1.43,1.43C7.15,7,7.38,7.02,7.6,7.05c1.4,0.21,2.7,0.8,3.95,1.43c0.74,0.38,1.46,0.77,2.2,1.15
		c0.2,0.11,0.4,0.21,0.61,0.31c0.19,0.1,0.41,0.18,0.58,0.31c0.08,0.06,0.15,0.13,0.14,0.23c-0.01,0.09-0.04,0.16-0.02,0.25
		c0.23-0.29,0.34-0.76,0.14-1.09c-0.06-0.09-0.14-0.17-0.24-0.23c-0.05-0.05-0.11-0.14-0.05-0.21c0.05-0.05,0.13-0.07,0.19-0.05
		c0.06,0.01,0.08,0.06,0.12,0.09c0.06,0.05,0.15,0.07,0.22,0.09c0.12,0.03,0.24,0.04,0.37,0.05c0.31,0.02,0.63,0.01,0.94-0.04
		c0.15-0.03,0.31-0.07,0.45-0.12c0.06-0.02,0.12-0.07,0.19-0.06c0.05,0.01,0.1,0.03,0.14,0.06c0.16,0.11,0.29,0.27,0.39,0.43
		c0.1-0.35,0.01-0.73-0.18-1.03c1.06-0.15,2.14-0.21,3.22-0.23c0,0,0,0.01,0,0.01c-0.34,0.66-0.53,1.54-0.23,2.24
		c0.27,0.64,1,1.14,1.71,0.95c0.67-0.18,1.08-1.03,0.63-1.63c-0.23-0.35-0.85-0.47-1.12-0.07c0.39-0.11,0.78,0.13,0.81,0.54
		c0.02,0.3-0.19,0.59-0.47,0.66c-0.05,0.01-0.1,0.01-0.16,0.01c-0.09,0-0.19-0.02-0.28-0.05c-0.09-0.03-0.17-0.06-0.25-0.1
		c-0.01-0.01-0.02-0.01-0.03-0.02c-0.76-0.49-0.67-1.59-0.38-2.32c0.03-0.08,0.07-0.16,0.11-0.24c0.55,0,1.1,0.02,1.65,0.04
		c1.59,0.08,3.17,0.24,4.76,0.47c0,0.02,0.01,0.04,0.01,0.06c0-0.02,0-0.04,0-0.06c0.13,0.02,0.26,0.04,0.39,0.06
		c0.06,0.45,0.04,0.92-0.04,1.37c-0.07,0.35-0.19,0.7-0.36,1.02c-0.12,0.23-0.26,0.45-0.44,0.64c-0.5,0.52-1.38,0.65-1.97,0.21
		c-0.27-0.2-0.46-0.5-0.53-0.83c-0.08-0.34-0.02-0.68,0.13-0.99c0,0,0,0,0,0c-0.01-0.01-0.02-0.02-0.03-0.03
		c-0.01-0.01-0.06,0.02-0.07,0.02c-0.05,0.02-0.09,0.05-0.14,0.08c-0.1,0.07-0.18,0.15-0.25,0.24c-0.15,0.2-0.24,0.45-0.26,0.71
		c-0.05,0.53,0.19,1.06,0.59,1.4c0.57,0.49,1.4,0.6,2.1,0.35c0.33-0.12,0.63-0.31,0.87-0.56c0.18-0.19,0.32-0.42,0.44-0.65
		c0.21-0.42,0.35-0.88,0.41-1.35c0.06,0.47,0.19,0.93,0.41,1.35c0.12,0.23,0.26,0.46,0.44,0.65c0.24,0.25,0.54,0.44,0.87,0.56
		c0.7,0.25,1.53,0.14,2.1-0.35c0.4-0.34,0.63-0.87,0.59-1.4c-0.02-0.25-0.11-0.5-0.26-0.71c-0.07-0.09-0.15-0.18-0.25-0.24
		c-0.04-0.03-0.09-0.06-0.14-0.08c-0.01,0-0.06-0.03-0.07-0.02c-0.01,0.01-0.02,0.02-0.03,0.03c0,0,0,0,0,0
		c0.15,0.31,0.21,0.65,0.13,0.99c-0.08,0.33-0.26,0.63-0.53,0.83c-0.59,0.44-1.47,0.3-1.97-0.21c-0.18-0.18-0.32-0.41-0.44-0.64
		c-0.17-0.32-0.29-0.67-0.36-1.02c-0.08-0.4-0.1-0.82-0.06-1.23c1.67,0.27,3.34,0.59,5,0.95c-0.37,0.59,0.04,1.38,0.68,1.55
		c0.52,0.13,1.04-0.09,1.39-0.47c0.31,0.25,0.61,0.51,0.91,0.76c-0.38-0.3-1-0.28-1.36,0.01c-0.92,0.64-0.72,2.06,0.17,2.63
		c0.94,0.6,2.22,0.21,2.9-0.58c0.11-0.12,0.2-0.26,0.28-0.4c1.05,0.83,2.15,1.56,3.46,2c0.82,0.27,2.03,0.44,3.36,0.11
		c1.13-0.28,2.33-0.94,3.16-2.26c3.87,0.82,7.83,1.33,11.56,0.41c2.25-0.55,5.84-2.41,4.38-5.35c-1.25-2.52-5.71-1.22-5.14,1.66
		c0.47-0.99,1.49-2.14,2.71-1.93c1.27,0.22,1.27,1.73,0.88,2.67c-1,2.41-4.12,2.75-6.38,2.83c-2.57,0.09-5.17-0.24-7.76-0.73
		c0.04-0.08,0.08-0.16,0.12-0.24c1.33-3.12-3.18-3.88-4.69-0.94c0.99-0.71,2.58-1.34,3.27-0.55c0.34,0.39,0.22,0.92-0.1,1.44
		c-2.56-0.54-5.09-1.2-7.55-1.75c-0.28-0.06-0.56-0.13-0.85-0.19c-0.01-0.05-0.01-0.09-0.02-0.13c-0.12-0.7-0.38-1.35-0.76-1.92
		c0.57,0.37,1.22,0.64,1.92,0.76c1.1,0.19,2.45,0.06,3.33-0.7c0.79-0.68,1.18-1.96,0.58-2.9c-0.56-0.89-1.99-1.09-2.63-0.17
		c-0.39,0.49-0.29,1.45,0.41,1.64c-0.33-0.51-0.18-1.18,0.4-1.41c0.43-0.17,0.94,0,1.16,0.37c0.04,0.07,0.07,0.14,0.09,0.22
		c0.04,0.13,0.06,0.28,0.06,0.42c0,0.14-0.01,0.27-0.02,0.41c0,0.02-0.01,0.04-0.01,0.05c-0.35,1.32-1.98,1.7-3.16,1.61
		c-1.46-0.1-2.67-0.93-3.51-2.09c-0.65-0.89-1.12-2-1.27-3.12h-0.17C35.94,4.98,36.37,6.13,37.02,7.09z M39.47,11.27
		c0.93,0.21,1.86,0.42,2.78,0.61c1.71,0.37,3.48,0.81,5.28,1.22c-0.35,0.43-0.79,0.82-1.19,1.09c-2.58,1.74-4.41,0.53-5.79-0.31
		c-0.43-0.29-0.87-0.6-1.3-0.91C39.43,12.43,39.49,11.84,39.47,11.27z M21.04,6.17c0.06-0.06,0.11-0.13,0.16-0.2
		c1.09-0.38,2.26-0.58,3.41-0.41c0.74,0.11,1.45,0.38,2.05,0.83c0.05,0.04,0.09,0.07,0.14,0.11c-2.21-0.29-4.52-0.16-6.81,0.45
		C20.38,6.76,20.74,6.51,21.04,6.17z M21.19,8.02c-1.21,0.03-2.45,0.12-3.68,0.33c-0.08-0.08-0.17-0.15-0.27-0.2
		c0.09-0.07,0.19-0.14,0.28-0.21c0.05-0.02,0.11-0.04,0.16-0.06c1.8-0.71,3.64-1.11,5.46-1.21c-0.01,0-0.03,0.01-0.04,0.01
		C22.33,6.92,21.66,7.37,21.19,8.02z M22.53,8.02c-0.33-0.01-0.66-0.01-0.99,0c0.41-0.56,1.01-0.95,1.68-1.17
		c0.3-0.1,0.63-0.17,0.95-0.21c0.44,0,0.88,0.02,1.32,0.05c0.2,0.04,0.4,0.1,0.59,0.17c0.71,0.27,1.26,0.86,1.51,1.56
		C25.91,8.2,24.23,8.05,22.53,8.02z M27.61,8.42c-0.24-0.75-0.81-1.38-1.55-1.67c-0.01-0.01-0.03-0.01-0.04-0.02
		c0.39,0.04,0.78,0.09,1.16,0.16c0.31,0.35,0.56,0.76,0.72,1.21c0.04,0.12,0.08,0.25,0.11,0.37C27.88,8.45,27.74,8.43,27.61,8.42z
		 M28.57,9.4c-0.01-0.12-0.04-0.25-0.06-0.37c0.04,0.01,0.08,0.01,0.12,0.02C28.6,9.16,28.58,9.28,28.57,9.4z M28.74,8.58
		c-0.12-0.02-0.24-0.04-0.36-0.05c-0.11-0.34-0.25-0.67-0.43-0.98c-0.12-0.21-0.26-0.4-0.41-0.59c0.59,0.11,1.18,0.26,1.75,0.43
		c-0.03,0.05-0.07,0.11-0.1,0.16C29,7.86,28.85,8.21,28.74,8.58z M29.08,8.63c0.04-0.18,0.09-0.36,0.15-0.53
		c0.08-0.22,0.18-0.44,0.3-0.64c0.1,0.03,0.2,0.06,0.3,0.1c-0.14,0.19-0.26,0.4-0.36,0.61c0.07-0.16,0.04-0.11-0.07,0.16
		c0.12-0.28,0.28-0.53,0.46-0.77c0.03,0.01,0.06,0.02,0.09,0.03c-0.25,0.32-0.42,0.69-0.5,1.1C29.33,8.67,29.21,8.65,29.08,8.63z
		 M29.46,8.69c0.09-0.4,0.28-0.77,0.54-1.08c0.57,0.2,1.13,0.42,1.67,0.67c0.78,0.34,1.54,0.77,2.28,1.26
		C32.45,9.22,30.96,8.93,29.46,8.69z M35.55,10.96c-0.01,0.01-0.02,0.01-0.03,0.02c-0.08,0.04-0.17,0.07-0.25,0.1
		c-0.09,0.03-0.18,0.05-0.28,0.05c-0.05,0-0.11,0-0.16-0.01c-0.28-0.06-0.48-0.36-0.47-0.66c0.01-0.11,0.04-0.21,0.09-0.29
		c0.17,0.04,0.33,0.07,0.5,0.11c0.25,0.19,0.5,0.38,0.75,0.58C35.66,10.88,35.61,10.92,35.55,10.96z M36.12,10.02
		c-0.35-0.08-0.71-0.16-1.06-0.24C35,9.73,34.92,9.7,34.84,9.68c-1.38-0.95-2.82-1.78-4.4-2.29c-0.06-0.02-0.12-0.04-0.18-0.06
		c0.23-0.2,0.49-0.37,0.78-0.48c0.9-0.34,1.96-0.31,2.86-0.01c0.9,0.3,1.67,0.9,2.02,1.79C36.09,9.04,36.19,9.55,36.12,10.02z
		 M37.33,14c-0.02,0-0.04,0.01-0.05,0.01c-0.14,0.01-0.27,0.02-0.41,0.02c-0.14,0-0.28-0.01-0.42-0.06
		c-0.07-0.02-0.15-0.05-0.22-0.09c-0.37-0.22-0.53-0.73-0.37-1.16c0.22-0.58,0.89-0.73,1.41-0.4c-0.04-0.15-0.12-0.27-0.22-0.37
		c0,0,0.01,0.01,0.01,0.01c0.47,0.4,0.93,0.8,1.4,1.18C38.2,13.55,37.84,13.87,37.33,14z M38.73,12.58
		c-0.79-0.6-1.58-1.21-2.38-1.82c0.02-0.04,0.04-0.07,0.05-0.11c0.01-0.02,0.02-0.05,0.03-0.07c0.84,0.19,1.69,0.38,2.53,0.57
		C38.96,11.62,38.89,12.13,38.73,12.58z M38.93,10.65c-0.79-0.18-1.59-0.36-2.39-0.54c0.06-0.58-0.11-1.2-0.37-1.7
		c-0.45-0.87-1.22-1.45-2.15-1.74c-0.94-0.29-2.03-0.3-2.95,0.07c-0.33,0.13-0.62,0.32-0.87,0.56c-0.03-0.01-0.06-0.02-0.1-0.03
		c0.68-0.73,1.62-1.19,2.63-1.25c1.45-0.08,2.97,0.45,4.13,1.31C37.96,8.14,38.77,9.28,38.93,10.65z"/>
	<path d="M12.16,11.66c0.14,0.09,0.24,0.22,0.31,0.37c0.1-0.77-0.03-1.54-0.47-2.19c-0.55-0.8-1.46-1.3-2.35-1.64
		C8.98,7.94,8.28,7.76,7.57,7.63c0.14,0.71,0.32,1.4,0.57,2.08c0.34,0.89,0.83,1.8,1.64,2.35c0.64,0.44,1.42,0.57,2.19,0.47
		c-0.15-0.07-0.28-0.17-0.37-0.31c-0.03-0.04-0.19-0.33-0.1-0.35c0.07-0.01,0.16,0.03,0.22,0.04c0.05,0.01,0.11,0.02,0.16,0.04
		c-0.01-0.05-0.02-0.11-0.04-0.16c-0.02-0.06-0.06-0.15-0.04-0.22C11.83,11.48,12.12,11.64,12.16,11.66z"/>
	<path d="M17.46,11.48c-1.01-0.04-1.95,0.19-2.79,0.65c-0.55,0.3-1.08,0.63-1.59,1l0.2,0.2c1.41-0.87,2.79-1.29,4.14-1.3
		c2.17,0.01,3.52,1.57,3.25,2.86c-0.48,1.8-2.51,1.15-2,0.17c0.13,0.23,0.37,0.39,0.66,0.4c0.43,0.01,0.79-0.32,0.81-0.75
		c0.01-0.15-0.03-0.29-0.1-0.41l0,0c-0.01-0.01-0.01-0.02-0.02-0.03c-0.04-0.07-0.09-0.13-0.15-0.18c-0.34-0.33-0.88-0.4-1.3-0.13
		c-0.62,0.39-0.81,1.21-0.42,1.84c0.49,0.78,1.52,1.01,2.29,0.53c0.97-0.61,1.23-1.87,0.66-2.87C20.5,12.43,19.52,11.56,17.46,11.48
		z"/>
	<path d="M3.92,36.83c0.9,0.3,1.67,0.9,2.02,1.8c0.29,0.73,0.38,1.83-0.38,2.32c-0.01,0.01-0.02,0.01-0.03,0.02
		c-0.08,0.04-0.17,0.07-0.25,0.1C5.19,41.09,5.1,41.11,5,41.11c-0.05,0-0.11,0-0.15-0.01c-0.28-0.06-0.48-0.36-0.47-0.66
		c0.02-0.41,0.42-0.64,0.81-0.54c-0.26-0.4-0.89-0.27-1.12,0.07c-0.45,0.59-0.04,1.45,0.63,1.62c0.71,0.19,1.44-0.31,1.71-0.95
		c0.3-0.71,0.11-1.58-0.23-2.24c-0.45-0.87-1.22-1.45-2.15-1.74c-0.1-0.03-0.2-0.06-0.3-0.08v0.19C3.8,36.79,3.86,36.81,3.92,36.83z
		"/>
	<path d="M5.2,13.59c0.01,0.47-0.02,0.97-0.24,1.39c-0.18,0.35-0.5,0.57-0.88,0.64c0.46,0.07,0.95,0.08,1.38-0.11
		c0.37-0.16,0.64-0.46,0.81-0.83c0.21-0.47,0.25-1.01,0.24-1.52c-0.01-0.34-0.04-0.68-0.08-1.01c-0.02-0.18-0.07-0.37-0.08-0.55
		c0-0.08,0-0.23,0.1-0.27c0.1-0.03,0.16,0.11,0.18,0.18c0.07,0.19,0.07,0.41,0.09,0.61c0.05,0.42,0.08,0.84,0.1,1.26
		c0.04,0.79,0.02,1.58-0.06,2.37c-0.15,1.42-0.53,2.82-1.25,4.06c-0.18,0.31-0.37,0.62-0.6,0.9c-0.21,0.26-0.48,0.49-0.8,0.6
		c-0.13,0.05-0.26,0.07-0.39,0.07v0.48c0.64,0.11,1.3-0.06,1.86-0.38c-0.06,0.21-0.11,0.42-0.16,0.63
		c-0.17,0.77-0.23,1.57-0.14,2.36c0.08,0.74,0.3,1.46,0.69,2.09c0.15,0.24,0.33,0.47,0.52,0.67c0.12,0.79,0.29,1.57,0.52,2.33
		c-0.41,0.31-0.77,0.7-1.04,1.14c-0.39,0.63-0.61,1.36-0.69,2.09c-0.09,0.79-0.02,1.59,0.14,2.36c0.03,0.15,0.07,0.3,0.11,0.45
		c-0.15-0.04-0.3-0.08-0.45-0.11c-0.45-0.1-0.91-0.16-1.36-0.17v0.2c0.74,0.04,1.47,0.2,2.17,0.45c-0.38-1.08-0.56-2.23-0.39-3.37
		c0.11-0.74,0.38-1.45,0.84-2.05C6.56,30.25,6.81,30,7.1,29.79c0.03,0.11,0.07,0.22,0.11,0.33c-0.79,0.69-1.31,1.68-1.38,2.75
		c-0.1,1.47,0.39,2.99,1.21,4.2c-0.96-0.65-2.13-1.09-3.3-1.19v0.17c1.13,0.14,2.24,0.61,3.14,1.27c1.15,0.84,1.99,2.06,2.09,3.51
		c0.08,1.18-0.29,2.81-1.61,3.16C7.33,43.99,7.31,44,7.29,44c-0.14,0.01-0.27,0.02-0.41,0.02c-0.14,0-0.28-0.01-0.42-0.06
		c-0.07-0.02-0.15-0.05-0.22-0.09c-0.37-0.22-0.53-0.73-0.37-1.16c0.22-0.58,0.89-0.73,1.4-0.4c-0.2-0.69-1.15-0.8-1.64-0.41
		c-0.92,0.64-0.72,2.06,0.17,2.63c0.94,0.6,2.22,0.21,2.9-0.58c0.76-0.88,0.89-2.23,0.7-3.33c-0.12-0.7-0.38-1.35-0.76-1.92
		c0.57,0.37,1.21,0.64,1.92,0.76c0.04,0.01,0.09,0.01,0.13,0.02c0.06,0.28,0.13,0.56,0.19,0.85c0.55,2.46,1.21,5,1.75,7.55
		c-0.52,0.32-1.05,0.43-1.44,0.1c-0.8-0.7-0.16-2.28,0.55-3.27c-2.94,1.51-2.18,6.02,0.94,4.69c0.08-0.04,0.16-0.08,0.24-0.12
		c0.49,2.59,0.82,5.19,0.73,7.76c-0.08,2.27-0.41,5.38-2.83,6.38C9.9,63.8,8.38,63.8,8.16,62.53c-0.22-1.23,0.94-2.24,1.93-2.71
		c-2.88-0.57-4.18,3.88-1.66,5.14c2.94,1.46,4.8-2.13,5.35-4.38c0.92-3.73,0.41-7.69-0.41-11.56c1.32-0.83,1.98-2.04,2.26-3.16
		c0.33-1.32,0.15-2.54-0.11-3.36c-0.44-1.31-1.17-2.41-2-3.46c0.14-0.08,0.27-0.18,0.4-0.28c0.79-0.68,1.18-1.96,0.58-2.9
		c-0.56-0.89-1.99-1.09-2.63-0.17c-0.29,0.36-0.31,0.99-0.01,1.36c-0.26-0.3-0.51-0.6-0.76-0.91c0.38-0.35,0.6-0.88,0.47-1.39
		c-0.17-0.65-0.97-1.05-1.55-0.68c-0.35-1.66-0.68-3.33-0.95-5c0.41-0.04,0.83-0.02,1.23,0.06c0.35,0.07,0.7,0.19,1.02,0.36
		c0.23,0.12,0.45,0.26,0.64,0.44c0.52,0.5,0.65,1.38,0.21,1.97c-0.2,0.27-0.5,0.46-0.83,0.53c-0.34,0.08-0.68,0.02-0.99-0.13
		c0,0,0,0,0,0c-0.01,0.01-0.02,0.02-0.03,0.03c-0.01,0.01,0.02,0.06,0.02,0.07c0.02,0.05,0.05,0.09,0.08,0.14
		c0.07,0.1,0.15,0.18,0.24,0.25c0.2,0.15,0.45,0.24,0.71,0.26c0.53,0.05,1.06-0.19,1.4-0.59c0.49-0.58,0.6-1.4,0.35-2.1
		c-0.12-0.33-0.31-0.63-0.56-0.87c-0.19-0.18-0.42-0.32-0.65-0.44c-0.42-0.21-0.88-0.35-1.35-0.41c0.47-0.06,0.93-0.19,1.35-0.41
		c0.23-0.12,0.46-0.26,0.65-0.44c0.25-0.24,0.44-0.54,0.56-0.87c0.25-0.7,0.14-1.53-0.35-2.1c-0.34-0.4-0.87-0.63-1.4-0.59
		c-0.25,0.02-0.5,0.11-0.71,0.26c-0.09,0.07-0.18,0.15-0.24,0.25c-0.03,0.04-0.06,0.09-0.08,0.14c0,0.01-0.03,0.06-0.02,0.07
		c0.01,0.01,0.02,0.02,0.03,0.03c0,0,0,0,0,0c0.31-0.15,0.65-0.21,0.99-0.13c0.33,0.08,0.63,0.26,0.83,0.53
		c0.44,0.59,0.3,1.47-0.21,1.97c-0.18,0.18-0.41,0.32-0.64,0.44c-0.32,0.17-0.66,0.29-1.02,0.36c-0.45,0.09-0.91,0.1-1.37,0.05
		c-0.02-0.13-0.04-0.26-0.06-0.39c0.02,0,0.04,0,0.06,0c-0.02,0-0.04-0.01-0.06-0.01c-0.22-1.59-0.39-3.17-0.47-4.76
		c-0.03-0.55-0.04-1.1-0.04-1.65c0.08-0.04,0.16-0.08,0.24-0.11c0.73-0.29,1.83-0.38,2.32,0.38c0.01,0.01,0.01,0.02,0.02,0.03
		c0.04,0.08,0.07,0.17,0.1,0.25c0.03,0.09,0.05,0.18,0.05,0.28c0,0.05,0,0.11-0.01,0.16c-0.06,0.28-0.36,0.48-0.66,0.47
		c-0.41-0.03-0.64-0.42-0.54-0.81c-0.4,0.26-0.27,0.89,0.07,1.12c0.59,0.45,1.45,0.04,1.63-0.63c0.19-0.71-0.32-1.44-0.95-1.71
		c-0.71-0.3-1.58-0.11-2.24,0.23c0,0-0.01,0-0.01,0c0.01-1.07,0.08-2.15,0.23-3.22c0.3,0.19,0.68,0.28,1.03,0.18
		c-0.16-0.1-0.32-0.23-0.43-0.39c-0.03-0.04-0.05-0.09-0.06-0.14c-0.01-0.07,0.03-0.13,0.06-0.19c0.06-0.15,0.1-0.3,0.12-0.45
		c0.06-0.31,0.07-0.63,0.04-0.94c-0.01-0.12-0.03-0.25-0.05-0.37c-0.02-0.08-0.04-0.16-0.09-0.22c-0.03-0.04-0.08-0.06-0.09-0.12
		c-0.01-0.06,0-0.15,0.05-0.19c0.07-0.06,0.16-0.01,0.21,0.05c0.06,0.09,0.14,0.18,0.23,0.24c0.33,0.21,0.8,0.1,1.09-0.14
		c-0.09-0.02-0.17,0.01-0.25,0.02c-0.1,0.01-0.17-0.06-0.23-0.14c-0.13-0.18-0.21-0.39-0.31-0.58c-0.1-0.2-0.21-0.41-0.31-0.61
		c-0.38-0.73-0.78-1.46-1.15-2.2C7.79,10.36,7.21,9.06,7,7.66C6.96,7.43,6.94,7.21,6.93,6.98L5.5,5.55c0,0.13-0.01,0.25-0.01,0.38
		C5.48,6.81,5.5,7.69,5.5,8.58c0,0.87-0.04,1.74-0.17,2.59c-0.03,0.21-0.07,0.42-0.12,0.62c-0.04,0.2-0.09,0.4-0.16,0.59
		c-0.13,0.32-0.34,0.61-0.59,0.85c-0.22,0.21-0.47,0.38-0.72,0.53v0.11C4.23,13.95,4.82,13.96,5.2,13.59z M13.83,40.6
		c0.84,1.38,2.05,3.21,0.31,5.79c-0.27,0.4-0.67,0.85-1.09,1.19c-0.41-1.8-0.85-3.57-1.22-5.28c-0.2-0.92-0.4-1.85-0.61-2.78
		c0.57,0.03,1.16-0.03,1.7-0.22C13.23,39.73,13.54,40.16,13.83,40.6z M12.27,37.33c-0.33-0.51-0.18-1.18,0.4-1.41
		c0.43-0.17,0.94,0,1.16,0.37c0.04,0.07,0.07,0.14,0.09,0.22c0.04,0.14,0.06,0.28,0.06,0.42c0,0.14-0.01,0.27-0.02,0.41
		c0,0.02-0.01,0.04-0.01,0.05c-0.13,0.5-0.45,0.87-0.86,1.13c-0.38-0.46-0.78-0.92-1.18-1.4c0,0-0.01-0.01-0.01-0.01
		C11.99,37.21,12.11,37.29,12.27,37.33z M12.53,38.78c-0.46,0.16-0.96,0.23-1.43,0.23c-0.19-0.84-0.38-1.68-0.57-2.53
		c0.02-0.01,0.05-0.02,0.07-0.03c0.04-0.02,0.08-0.03,0.11-0.05C11.31,37.21,11.93,37.99,12.53,38.78z M10.39,34.43
		c0.3-0.02,0.59,0.19,0.66,0.47c0.01,0.05,0.01,0.1,0.01,0.15c0,0.09-0.02,0.19-0.05,0.28c-0.03,0.09-0.06,0.17-0.1,0.25
		c-0.01,0.01-0.01,0.02-0.02,0.03c-0.04,0.06-0.08,0.11-0.12,0.16c-0.2-0.25-0.39-0.49-0.58-0.75c-0.04-0.17-0.07-0.33-0.11-0.5
		C10.18,34.47,10.28,34.43,10.39,34.43z M10.05,36.6c0.18,0.8,0.36,1.59,0.54,2.39c-1.37-0.16-2.51-0.97-3.32-2.07
		c-0.85-1.16-1.39-2.68-1.31-4.13c0.06-1.01,0.52-1.95,1.25-2.63c0.01,0.03,0.02,0.06,0.03,0.1c-0.24,0.25-0.43,0.54-0.56,0.87
		c-0.37,0.92-0.36,2.01-0.07,2.95c0.29,0.92,0.87,1.7,1.74,2.15C8.85,36.49,9.48,36.66,10.05,36.6z M9.73,35.11
		c0.08,0.36,0.16,0.71,0.24,1.06c-0.46,0.07-0.98-0.03-1.38-0.19c-0.9-0.35-1.49-1.12-1.8-2.02C6.49,33.07,6.45,32,6.8,31.1
		c0.11-0.29,0.28-0.55,0.48-0.78c0.02,0.06,0.04,0.12,0.06,0.18c0.51,1.58,1.34,3.02,2.29,4.4C9.64,34.98,9.68,35.05,9.73,35.11z
		 M9.35,28.62c-0.12,0.01-0.24,0.03-0.35,0.06c-0.01-0.04-0.01-0.08-0.02-0.12C9.1,28.59,9.22,28.61,9.35,28.62z M9.48,34
		c-0.49-0.74-0.92-1.5-1.26-2.28c-0.25-0.54-0.47-1.1-0.67-1.67c0.31-0.26,0.68-0.45,1.08-0.54C8.88,31.02,9.17,32.51,9.48,34z
		 M8.63,29.51c-0.4,0.08-0.78,0.25-1.1,0.5c-0.01-0.03-0.02-0.06-0.03-0.09c0.24-0.18,0.49-0.34,0.77-0.46
		c-0.27,0.11-0.32,0.14-0.16,0.07c-0.22,0.1-0.42,0.22-0.62,0.36c-0.03-0.1-0.07-0.2-0.1-0.3c0.2-0.12,0.42-0.22,0.64-0.3
		c0.17-0.06,0.35-0.11,0.53-0.15C8.59,29.26,8.61,29.39,8.63,29.51z M8.52,28.8c-0.36,0.11-0.71,0.26-1.03,0.45
		c-0.06,0.03-0.11,0.07-0.16,0.1c-0.17-0.57-0.31-1.16-0.43-1.75c0.19,0.15,0.38,0.29,0.59,0.41c0.31,0.18,0.64,0.32,0.98,0.43
		C8.49,28.55,8.5,28.67,8.52,28.8z M8.42,28.07C8.29,28.04,8.17,28,8.04,27.95c-0.45-0.16-0.86-0.41-1.21-0.72
		c-0.07-0.39-0.12-0.77-0.16-1.16c0.01,0.01,0.01,0.03,0.02,0.04c0.29,0.74,0.92,1.31,1.67,1.55C8.38,27.8,8.4,27.93,8.42,28.07z
		 M8.36,27.65c-0.71-0.25-1.29-0.8-1.56-1.51c-0.07-0.19-0.13-0.39-0.17-0.59c-0.03-0.44-0.05-0.88-0.05-1.32
		c0.04-0.33,0.11-0.65,0.21-0.96C7.01,22.6,7.4,22,7.96,21.6c0,0.33,0,0.67,0,0.99C8,24.28,8.14,25.97,8.36,27.65z M7.82,17.75
		c0.02-0.05,0.04-0.11,0.06-0.16c0.07-0.09,0.14-0.19,0.21-0.28c0.06,0.1,0.13,0.19,0.2,0.27c-0.2,1.23-0.3,2.47-0.33,3.68
		c-0.65,0.46-1.11,1.13-1.35,1.91c0,0.01-0.01,0.03-0.01,0.04C6.72,21.39,7.11,19.54,7.82,17.75z M6.45,26.85
		c-0.04-0.04-0.07-0.09-0.11-0.14c-0.46-0.59-0.73-1.31-0.84-2.05c-0.17-1.15,0.02-2.32,0.41-3.41c0.07-0.05,0.14-0.11,0.2-0.16
		c0.34-0.3,0.59-0.66,0.79-1.06C6.3,22.33,6.17,24.64,6.45,26.85z"/>
	<path d="M12.08,14.72c-0.46,0.85-0.69,1.79-0.65,2.79c0.08,2.06,0.95,3.04,1.97,3.64c0.99,0.58,2.26,0.32,2.87-0.66
		c0.49-0.78,0.25-1.81-0.53-2.29c-0.62-0.39-1.44-0.2-1.83,0.42c-0.26,0.42-0.2,0.96,0.13,1.3c0.05,0.06,0.11,0.11,0.18,0.15
		c0.01,0.01,0.02,0.01,0.02,0.02l0,0c0.12,0.07,0.26,0.1,0.41,0.1c0.43-0.01,0.77-0.38,0.75-0.81c-0.01-0.28-0.17-0.53-0.4-0.66
		c0.98-0.51,1.63,1.52-0.17,2c-1.29,0.26-2.85-1.09-2.86-3.25c0.01-1.35,0.43-2.73,1.3-4.14l-0.2-0.2
		C12.71,13.63,12.37,14.16,12.08,14.72z"/>
	<polygon points="0,0 0,66.27 0.91,66.27 0.91,0.91 66.41,0.91 66.41,0 	"/>
	<polygon points="2.72,66.27 3.73,66.27 3.73,36.77 3.73,36.58 3.73,36.05 3.73,35.88 3.73,35.5 3.73,35.3 3.73,21.85 3.73,21.37 
		3.73,13.87 3.73,13.76 3.73,3.81 13.69,3.81 13.82,3.81 21.32,3.81 21.8,3.81 35.25,3.81 35.45,3.81 35.83,3.81 36,3.81 
		36.53,3.81 36.73,3.81 66.41,3.81 66.41,2.8 2.72,2.8 	"/>
</g>
</svg>
