<?xml version="1.0" encoding="utf-8"?>
<!-- Generator: Adobe Illustrator 23.0.3, SVG Export Plug-In . SVG Version: 6.00 Build 0)  -->
<svg version="1.1" id="Layer_1" xmlns="http://www.w3.org/2000/svg" xmlns:xlink="http://www.w3.org/1999/xlink" x="0px" y="0px"
	 viewBox="0 0 65.87 65.75" style="enable-background:new 0 0 65.87 65.75;" xml:space="preserve">
<g>
	<g>
		<path d="M60.58,4.19c-2.41-0.91-5.4-1.05-7.99-0.37c-2.43,0.64-4.44,1.95-5.07,3.64c-0.64,1.75,0.27,3.69,2.41,4.84
			c-0.53-0.06-1.06-0.11-1.59-0.14c-1.45-0.1-2.91-0.12-4.36-0.05c-0.39,0.02-0.77,0.05-1.16,0.08c-0.18,0.01-0.36,0.03-0.54,0.05
			c-0.08-0.09-0.17-0.17-0.26-0.26c-0.3-0.28-0.63-0.54-1-0.79c-1.54-1.01-3.6-1.66-5.72-1.95c-1.12-0.16-2.27-0.22-3.41-0.18
			c-0.09,0-0.17,0.01-0.26,0.02c-0.16-0.61-0.82-1.08-1.65-1.18c-0.7-0.8-1.59-1.49-2.64-2.01c-1.31-0.64-2.81-1-4.33-1.13
			C21.39,4.62,19.74,4.72,18.14,5c-0.78,0.13-1.55,0.3-2.31,0.51c-0.5,0.14-1,0.3-1.49,0.45c-2.07,0.64-3.99,1.53-5.82,2.52
			c-0.99,1.83-1.88,3.75-2.52,5.82c-0.15,0.5-0.32,0.99-0.45,1.49c-0.21,0.76-0.38,1.53-0.51,2.31c-0.27,1.6-0.38,3.25-0.23,4.88
			c0.13,1.52,0.49,3.03,1.13,4.33c0.51,1.05,1.2,1.94,2.01,2.64c0.09,0.83,0.57,1.49,1.18,1.65c0,0.09-0.01,0.17-0.02,0.26
			c-0.04,1.14,0.02,2.29,0.18,3.41c0.3,2.12,0.94,4.17,1.95,5.72c0.24,0.37,0.5,0.71,0.79,1c0.09,0.09,0.17,0.18,0.26,0.26
			c-0.02,0.18-0.03,0.36-0.05,0.54c-0.03,0.39-0.06,0.77-0.08,1.16c-0.07,1.45-0.05,2.92,0.05,4.36c0.04,0.53,0.08,1.06,0.14,1.59
			c-1.15-2.14-3.09-3.06-4.84-2.41c-1.69,0.62-3.01,2.63-3.64,5.06c-0.68,2.58-0.54,5.57,0.37,7.98c0.82,2.17,2.22,3.77,3.76,4.58
			c1.63,0.87,3.45,0.82,5.06-0.13c1.62-0.95,2.93-2.79,3.83-5.03c0.23,0.59,0.48,1.16,0.77,1.69c-0.19,0.5-0.19,1.13,0,1.62
			c0.35,0.9,1.18,1.07,1.67,0.33c0.48-0.74,0.38-2.02-0.21-2.55c-0.33-0.29-0.74-0.29-1.07,0c-0.05,0.05-0.07,0.11-0.11,0.03
			c-0.03-0.06-0.06-0.12-0.09-0.18c-0.07-0.14-0.13-0.27-0.19-0.41c-0.14-0.31-0.27-0.63-0.4-0.96c0.85,0.13,1.74-0.18,2.44-0.95
			c0.59-0.65,1-1.61,1.23-2.65c0.44-2.03,0.22-4.79-1.05-6.02c-0.59-0.57-1.31-0.65-1.96-0.27c-0.34-2.11-1.03-4.07-2-5.68
			c1.48,0.06,2.93-0.76,3.82-2.62c0.92-1.91,1.15-4.71,0.18-6.69c-0.84-1.73-2.41-2.21-3.72-1.61c-1.33,0.61-2.28,2.28-2.9,4.11
			c-0.44,1.32-0.73,2.74-0.92,4.19c-2.09-1.95-3.13-6-2.98-9.71c0,0,0,0,0.01,0c0.31,0,0.6-0.13,0.84-0.34
			c0.38,0.13,0.78,0.23,1.17,0.3c0.86,0.1,1.13,0.09,1.94,0c0.77-0.12,1.51-0.4,2.2-0.85c0.38-0.25,0.75-0.54,1.07-0.91
			c0.41-0.5,0.73-1.12,0.92-1.8c0.4-1.45,0.23-3.16-0.57-4.35c-0.56-0.83-1.42-1.31-2.28-1.21c-0.41,0.04-0.82,0.22-1.15,0.54
			c-0.06,0.06-0.12,0.13-0.18,0.2c-0.08-0.12-0.17-0.23-0.27-0.33c-0.03-0.03-0.06-0.06-0.09-0.09c0.04-0.15,0.07-0.31,0.07-0.48
			c0-0.8-0.5-1.44-1.11-1.44c-0.61,0-1.11,0.65-1.11,1.44c0,0.8,0.5,1.44,1.11,1.44c0.28,0,0.54-0.14,0.74-0.37
			c0.01,0.01,0.01,0.02,0.02,0.02c0.71,1,1.03,2.39,0.91,3.75c-0.11,1.28-0.63,2.66-1.54,3.23c-0.43,0.27-0.9,0.3-1.33,0.07
			c0.08-0.25,0.13-0.52,0.13-0.81c0-1.09-0.67-1.98-1.49-1.98c-0.46,0-0.86,0.27-1.14,0.7c-0.44-0.53-0.79-1.18-1.02-1.92
			c-0.56-1.86-0.51-4.06-0.01-5.93c0.49-1.86,1.46-3.45,2.93-4.18c1.19-0.6,2.98-0.79,3.78,0.79c0.01,0.02,0.02,0.04,0.03,0.06
			c0.06,0.17,0.11,0.34,0.16,0.52c0.05,0.19,0.08,0.38,0.08,0.57c0,0.11-0.01,0.22-0.02,0.32c-0.11,0.58-0.58,1-1.08,0.96
			c-0.67-0.05-1.05-0.86-0.88-1.67c-0.65,0.54-0.44,1.84,0.12,2.31c0.96,0.93,2.36,0.08,2.65-1.31c0.31-1.47-0.51-2.98-1.55-3.54
			c-1.15-0.62-2.58-0.23-3.66,0.48c-1.41,0.93-2.37,2.53-2.83,4.44c-0.47,1.95-0.49,4.2,0.11,6.11c0.25,0.8,0.64,1.5,1.14,2.06
			c-0.03,0.05-0.05,0.1-0.08,0.15C6.84,27.21,6,25.17,5.9,22.97c-0.14-3,0.74-6.14,2.13-8.54c0.82-1.42,1.85-2.61,3.05-3.38
			c0.77-1.2,1.96-2.23,3.38-3.05C16.87,6.61,20,5.73,23,5.87c2.2,0.1,4.25,0.94,5.65,2.23c-0.05,0.02-0.1,0.05-0.15,0.08
			c-0.56-0.49-1.26-0.89-2.06-1.14c-1.91-0.6-4.17-0.58-6.11-0.11c-1.91,0.47-3.52,1.42-4.44,2.83c-0.7,1.07-1.1,2.51-0.48,3.66
			c0.56,1.04,2.07,1.86,3.54,1.55c1.4-0.29,2.24-1.69,1.31-2.65c-0.47-0.57-1.77-0.77-2.31-0.12c0.81-0.17,1.62,0.21,1.67,0.88
			c0.04,0.5-0.39,0.97-0.96,1.08c-0.1,0.02-0.22,0.02-0.32,0.02c-0.2,0-0.39-0.03-0.57-0.08c-0.18-0.04-0.35-0.1-0.52-0.16
			c-0.02-0.01-0.04-0.02-0.06-0.03c-1.58-0.79-1.39-2.59-0.79-3.78c0.73-1.47,2.33-2.44,4.18-2.93c1.87-0.5,4.07-0.55,5.93,0.01
			c0.74,0.22,1.39,0.58,1.92,1.02c-0.43,0.27-0.7,0.68-0.7,1.14c0,0.82,0.89,1.49,1.98,1.49c0.29,0,0.56-0.05,0.81-0.13
			c0.22,0.43,0.2,0.9-0.07,1.33c-0.58,0.91-1.95,1.43-3.23,1.54c-1.37,0.12-2.76-0.2-3.75-0.91c-0.01-0.01-0.01-0.01-0.02-0.02
			c0.23-0.2,0.37-0.45,0.37-0.74c0-0.61-0.65-1.11-1.44-1.11c-0.8,0-1.44,0.5-1.44,1.11c0,0.61,0.65,1.11,1.44,1.11
			c0.17,0,0.33-0.03,0.48-0.07c0.03,0.03,0.06,0.06,0.09,0.09c0.11,0.09,0.22,0.18,0.33,0.27c-0.07,0.06-0.14,0.11-0.2,0.18
			c-0.32,0.33-0.49,0.74-0.54,1.15c-0.09,0.86,0.39,1.72,1.21,2.28c1.19,0.8,2.9,0.98,4.35,0.57c0.68-0.19,1.3-0.5,1.8-0.92
			c0.38-0.31,0.66-0.68,0.91-1.07c0.44-0.69,0.72-1.44,0.85-2.2c0.09-0.81,0.1-1.08,0-1.94c-0.06-0.4-0.16-0.79-0.3-1.17
			c0.22-0.24,0.34-0.53,0.34-0.84c0,0,0,0,0-0.01c3.71-0.15,7.75,0.89,9.71,2.98c-1.45,0.19-2.87,0.48-4.19,0.92
			c-1.83,0.61-3.49,1.57-4.11,2.9c-0.6,1.31-0.12,2.87,1.61,3.72c1.98,0.96,4.78,0.73,6.69-0.18c1.86-0.89,2.68-2.34,2.62-3.82
			c1.6,0.96,3.57,1.65,5.68,2c-0.38,0.65-0.3,1.37,0.27,1.96c1.23,1.27,4,1.49,6.02,1.05c1.04-0.23,2-0.64,2.65-1.23
			c0.77-0.7,1.07-1.59,0.95-2.44c0.33,0.12,0.65,0.26,0.96,0.4c0.14,0.06,0.27,0.13,0.41,0.19c0.06,0.03,0.12,0.06,0.18,0.09
			c0.08,0.04,0.02,0.06-0.03,0.11c-0.29,0.33-0.29,0.74,0,1.07c0.53,0.59,1.81,0.7,2.55,0.21c0.74-0.49,0.57-1.32-0.33-1.67
			c-0.5-0.19-1.12-0.19-1.62,0c-0.53-0.28-1.1-0.54-1.69-0.77c2.25-0.9,4.08-2.21,5.03-3.83c0.95-1.61,0.99-3.43,0.13-5.07
			C64.35,6.41,62.75,5,60.58,4.19z M18.08,51.05c-0.01-0.09-0.02-0.18-0.03-0.26c-0.02-0.17-0.03-0.18,0.09-0.23
			c0.12-0.06,0.25-0.09,0.37-0.11c0.27-0.04,0.55,0.01,0.81,0.16c0,0,0,0,0,0c0,0,0,0,0,0c1.12,0.65,1.44,2.82,1.2,4.44
			c-0.14,0.98-0.49,1.84-1.02,2.44c-0.59,0.67-1.35,0.93-2.08,0.85c0.43-1.5,0.68-3.12,0.73-4.75
			C18.19,52.73,18.16,51.89,18.08,51.05z M16.77,58.08c-0.05-0.18-0.08-0.31-0.1-0.41c-0.54-2.32-0.57-5.34,0.97-6.76
			C17.8,53.37,17.5,55.87,16.77,58.08z M12.91,41.53c0.05-0.35,0.1-0.69,0.16-1.03c0.24-1.32,0.6-2.61,1.12-3.73
			c0.86-1.87,2.36-3.16,3.88-2.57c0.6,0.24,1.17,0.79,1.54,1.56c0.42,0.88,0.52,1.97,0.33,3.01c-0.34,1.83-1.28,3.26-2.46,3.82
			c-1.12,0.53-2.35,0.37-3.45-0.13c-0.29-0.13-0.57-0.29-0.84-0.47c-0.06-0.04-0.12-0.08-0.18-0.13c-0.03-0.02-0.06-0.04-0.09-0.07
			C12.85,41.76,12.9,41.61,12.91,41.53z M12.66,44.76c0.02-0.69,0.05-1.37,0.12-2.06c0.6,0.47,1.23,0.82,1.89,1.04
			c0.32,0.11,0.65,0.18,0.98,0.21c0.08,0.01,0.15-0.02,0.2,0.08c0.06,0.11,0.12,0.23,0.17,0.35c0.11,0.23,0.22,0.47,0.32,0.72
			c0.46,1.11,0.81,2.33,1.04,3.6c0.06,0.31,0.1,0.62,0.14,0.93c0.01,0.07,0.02,0.15,0.03,0.22c0.01,0.08-0.02,0.07-0.06,0.11
			c-0.07,0.06-0.14,0.13-0.2,0.2c-0.25,0.28-0.47,0.63-0.66,1.02c-0.92,1.93-0.86,4.55-0.37,6.72c-1.43-0.91-2.33-3.11-2.84-5.25
			C12.83,50.14,12.6,47.41,12.66,44.76z M10.53,58.39c-1,0.48-2.18-0.01-2.84-1.27c-0.68-1.28-0.61-3.17,0.1-4.39
			c-0.6,0.83-0.85,2.15-0.67,3.35c0.18,1.24,0.78,2.21,1.53,2.73c0.82,0.57,1.79,0.55,2.6-0.05c0.79-0.59,1.39-1.69,1.7-2.93
			c0.12-0.48,0.21-0.99,0.24-1.5c0.63,2.12,1.66,4.14,3.15,4.91c-0.31,0.74-0.67,1.42-1.07,2.05c-1.22,1.93-2.93,3.06-4.69,3.09
			c-1.77,0.03-3.47-1.05-4.72-2.94c-1.28-1.93-1.76-4.86-1.31-7.5c0.42-2.46,1.66-4.64,3.33-5.18c1.63-0.53,3.53,0.57,4.31,2.9
			C13.01,54.08,12.32,57.53,10.53,58.39z M13.43,30.16c0.69-1.01,1.02-2.42,0.95-3.78c-0.04-0.96-0.29-1.88-0.71-2.65
			c0.3-0.09,0.61-0.09,0.96,0.01c0.53,0.16,1.03,0.54,1.36,1.11c0.72,1.22,0.5,3.04-0.35,4.07c-0.3,0.37-0.68,0.66-1.04,0.9
			c-0.45,0.3-0.92,0.52-1.42,0.66C13.28,30.38,13.36,30.27,13.43,30.16z M28.72,8.07c-1.43-1.4-3.57-2.31-5.89-2.44
			c-3.1-0.17-6.34,0.66-8.86,2.05c-1.4,0.77-2.57,1.72-3.41,2.83c-1.11,0.85-2.07,2.01-2.83,3.41C6.33,16.46,5.5,19.7,5.67,22.8
			c0.12,2.31,1.04,4.46,2.44,5.89c-0.09,0.2-0.14,0.42-0.17,0.66c-0.54-0.46-1.02-1.03-1.42-1.69c-0.74-1.23-1.18-2.71-1.36-4.23
			c-0.35-2.99,0.24-6.03,1.2-8.76c0.24-0.68,0.47-1.35,0.75-2c0.3-0.71,0.62-1.4,0.96-2.08c0.28-0.56,0.58-1.12,0.89-1.66
			c0.55-0.31,1.1-0.6,1.66-0.89c0.68-0.34,1.37-0.66,2.08-0.96c0.65-0.27,1.33-0.51,2-0.75c2.72-0.96,5.76-1.55,8.76-1.2
			c1.52,0.18,3.01,0.62,4.23,1.36c0.66,0.4,1.23,0.88,1.69,1.42C29.14,7.93,28.92,7.99,28.72,8.07z M29.85,14.57
			c-0.24,0.37-0.53,0.74-0.9,1.04c-1.03,0.84-2.85,1.07-4.07,0.35c-0.57-0.32-0.95-0.82-1.11-1.36c-0.1-0.35-0.1-0.65-0.01-0.96
			c0.77,0.42,1.69,0.66,2.65,0.71c1.36,0.06,2.76-0.26,3.78-0.95c0.11-0.08,0.22-0.16,0.32-0.24
			C30.37,13.65,30.15,14.12,29.85,14.57z M42.62,17.44c-0.56,1.18-1.99,2.12-3.82,2.46c-1.04,0.19-2.14,0.09-3.01-0.33
			c-0.77-0.37-1.32-0.93-1.56-1.54c-0.59-1.52,0.7-3.02,2.57-3.88c1.12-0.52,2.41-0.88,3.73-1.12c0.34-0.06,0.69-0.12,1.03-0.16
			c0.08-0.01,0.22-0.06,0.26,0c0.02,0.03,0.04,0.06,0.07,0.09c0.04,0.06,0.09,0.12,0.13,0.18c0.18,0.27,0.34,0.56,0.47,0.84
			C43,15.09,43.15,16.32,42.62,17.44z M50,17.45c-0.04,0.04-0.03,0.07-0.11,0.06c-0.07-0.01-0.15-0.02-0.22-0.03
			c-0.31-0.04-0.63-0.09-0.93-0.14c-1.27-0.23-2.49-0.58-3.6-1.04c-0.25-0.1-0.49-0.21-0.72-0.32c-0.12-0.06-0.23-0.11-0.35-0.17
			c-0.1-0.05-0.07-0.12-0.08-0.2c-0.04-0.33-0.11-0.66-0.21-0.98c-0.21-0.66-0.57-1.29-1.04-1.89c0.68-0.06,1.37-0.1,2.06-0.12
			c2.66-0.06,5.39,0.17,7.9,0.75c2.14,0.5,4.34,1.41,5.25,2.84c-2.17-0.48-4.79-0.55-6.72,0.37c-0.39,0.18-0.73,0.41-1.02,0.66
			C50.13,17.32,50.06,17.38,50,17.45z M58.12,16.74c-2.21,0.73-4.71,1.03-7.18,0.87c1.42-1.54,4.45-1.52,6.76-0.97
			C57.8,16.66,57.94,16.69,58.12,16.74z M57.52,19.47c-0.6,0.53-1.46,0.88-2.44,1.02c-1.62,0.24-3.79-0.08-4.44-1.2v0c0,0,0,0,0,0
			c-0.15-0.26-0.2-0.53-0.16-0.81c0.02-0.13,0.06-0.25,0.11-0.37c0.05-0.11,0.06-0.1,0.23-0.09c0.09,0.01,0.17,0.02,0.26,0.03
			c0.84,0.08,1.68,0.1,2.52,0.07c1.63-0.05,3.25-0.3,4.75-0.73C58.44,18.12,58.18,18.88,57.52,19.47z M61.32,15.24
			c-0.63,0.4-1.31,0.76-2.05,1.07c-0.77-1.49-2.79-2.53-4.91-3.15c0.51-0.04,1.02-0.12,1.5-0.24c1.23-0.32,2.34-0.92,2.93-1.7
			c0.6-0.81,0.62-1.78,0.05-2.6c-0.52-0.74-1.49-1.35-2.73-1.53c-1.2-0.17-2.51,0.08-3.35,0.67c1.22-0.71,3.11-0.78,4.4-0.1
			c1.26,0.67,1.75,1.84,1.27,2.84c-0.86,1.79-4.31,2.48-6.75,1.66c-2.33-0.78-3.44-2.67-2.9-4.31c0.54-1.67,2.72-2.9,5.18-3.33
			c2.64-0.45,5.57,0.04,7.5,1.31c1.89,1.25,2.97,2.95,2.94,4.72C64.38,12.31,63.25,14.02,61.32,15.24z"/>
		<path d="M15.16,15.13c-0.08,0.65,0.04,1.36,0.35,1.84c0.62,1.12,1.68,1.44,2.63,1.14c0.3-0.95-0.01-2.01-1.13-2.63
			C16.52,15.17,15.82,15.05,15.16,15.13z"/>
	</g>
	<g>
		<polygon points="0.91,65.72 0.91,0.91 65.87,0.91 65.87,0 0,0 0,65.72 		"/>
	</g>
	<g>
		<polygon points="3.7,65.72 3.7,3.78 65.87,3.78 65.87,2.77 2.7,2.77 2.7,65.72 		"/>
	</g>
</g>
</svg>
