<?xml version="1.0" encoding="utf-8"?>
<!-- Generator: Adobe Illustrator 23.0.3, SVG Export Plug-In . SVG Version: 6.00 Build 0)  -->
<svg version="1.1" id="Layer_1" xmlns="http://www.w3.org/2000/svg" xmlns:xlink="http://www.w3.org/1999/xlink" x="0px" y="0px"
	 viewBox="0 0 66.89 68.24" style="enable-background:new 0 0 66.89 68.24;" xml:space="preserve">
<g>
	<path d="M66.89,13.67h-9.35c-0.13-0.5-0.3-1-0.52-1.48C55.97,9.87,53.95,8,51.48,6.71c0.65-0.32,1.27-0.69,1.86-1.1
		c0.55,0.27,1.24,0.27,1.78-0.01c0.99-0.5,1.18-1.7,0.36-2.39c-0.81-0.69-2.22-0.54-2.8,0.31c-0.32,0.47-0.32,1.06-0.01,1.53
		c0.05,0.07,0.12,0.1,0.03,0.16c-0.07,0.04-0.13,0.09-0.2,0.13c-0.15,0.09-0.3,0.18-0.45,0.27c-0.34,0.2-0.7,0.39-1.06,0.57
		c0.14-1.22-0.2-2.5-1.04-3.5c-0.71-0.84-1.76-1.44-2.91-1.76c-2.23-0.63-5.27-0.31-6.62,1.51c-0.63,0.84-0.72,1.88-0.3,2.81
		c-2.32,0.49-4.48,1.48-6.24,2.86c0.07-2.11-0.84-4.19-2.88-5.47c-2.1-1.31-5.18-1.64-7.35-0.26c-0.75,0.48-1.29,1.12-1.62,1.84
		C22.02,4.05,22,3.94,21.98,3.86c-0.2-1-0.74-1.94-1.52-2.62c-0.25-0.22-0.51-0.4-0.79-0.55c-0.18-0.11-0.49-0.24-0.54-0.26
		c-0.36-0.15-0.74-0.25-1.12-0.32c-0.11-0.03-0.18-0.03-0.22-0.04c-0.09-0.01-0.11-0.01-0.28-0.03c-0.7-0.08-1.43-0.01-2.13,0.14
		c-0.92,0.2-1.81,0.56-2.6,1.05C12.01,1.7,11.35,2.31,10.79,3c-1.13,1.4-1.8,3.1-2.04,4.86C8.71,8.13,8.69,8.4,8.68,8.68
		C8.4,8.69,8.13,8.71,7.86,8.75C6.11,8.99,4.4,9.66,3,10.79c-0.69,0.56-1.3,1.22-1.78,1.98c-0.49,0.8-0.86,1.68-1.05,2.6
		c-0.15,0.69-0.22,1.42-0.14,2.13c0.02,0.17,0.02,0.19,0.03,0.28c0.01,0.05,0.01,0.12,0.04,0.22c0.07,0.39,0.18,0.76,0.32,1.12
		c0.02,0.05,0.15,0.36,0.26,0.54c0.15,0.28,0.34,0.54,0.55,0.79c0.68,0.78,1.62,1.32,2.62,1.52c0.08,0.02,0.2,0.03,0.33,0.05
		c-0.72,0.33-1.36,0.87-1.84,1.62c-1.38,2.17-1.05,5.26,0.26,7.35c1.28,2.04,3.35,2.95,5.47,2.88c-1.38,1.76-2.37,3.92-2.86,6.24
		c-0.93-0.42-1.96-0.33-2.81,0.3c-1.82,1.36-2.14,4.39-1.51,6.62c0.32,1.14,0.92,2.2,1.76,2.91c1,0.84,2.28,1.18,3.5,1.04
		C6,51.37,5.81,51.72,5.61,52.06c-0.09,0.15-0.18,0.3-0.27,0.45c-0.04,0.07-0.08,0.13-0.13,0.2c-0.06,0.09-0.08,0.02-0.16-0.03
		c-0.47-0.32-1.06-0.32-1.53,0.01c-0.85,0.58-1,1.99-0.31,2.8c0.69,0.81,1.89,0.63,2.39-0.36c0.27-0.55,0.27-1.24,0.01-1.78
		c0.4-0.59,0.77-1.21,1.1-1.86c1.29,2.47,3.16,4.49,5.48,5.54c0.48,0.22,0.98,0.39,1.48,0.52v10.7h1.93V57.83
		c1.3,0.05,2.6-0.17,3.84-0.67c0.11-0.04,0.22-0.09,0.33-0.14v11.23h1.66V56.07c1.38-0.97,2.58-2.32,3.39-3.95
		c1.3-2.65,1.5-5.94,0.53-8.78c-0.74-2.18-2.12-4.05-3.92-5.04V21.43H38.3c0.99,1.8,2.86,3.18,5.04,3.92
		c2.84,0.97,6.13,0.77,8.78-0.53c1.64-0.8,2.98-2,3.95-3.39h10.82v-1.66h-9.87c0.05-0.11,0.1-0.22,0.14-0.32
		c0.5-1.23,0.72-2.54,0.67-3.84h9.06V13.67z M41.19,3.2C41.19,3.2,41.19,3.2,41.19,3.2C41.19,3.2,41.19,3.2,41.19,3.2
		c0.71-1.61,3.1-2.06,4.88-1.73c1.07,0.2,2.02,0.71,2.68,1.46c0.73,0.85,1.02,1.93,0.93,2.97c-1.65-0.61-3.43-0.97-5.23-1.04
		c-0.93-0.04-1.85,0-2.77,0.11c-0.1,0.01-0.19,0.02-0.29,0.04c-0.19,0.03-0.19,0.04-0.25-0.12c-0.06-0.17-0.1-0.35-0.13-0.53
		C40.97,3.97,41.03,3.57,41.19,3.2z M49.41,6.85c-0.2,0.07-0.34,0.12-0.45,0.15c-2.55,0.78-5.88,0.81-7.44-1.39
		C44.23,5.38,46.98,5.8,49.41,6.85z M33.87,8.46c0.01-0.12-0.02-0.21,0.09-0.28c0.13-0.08,0.25-0.17,0.38-0.25
		c0.26-0.16,0.52-0.31,0.79-0.46c1.22-0.66,2.56-1.16,3.96-1.49c0.34-0.08,0.68-0.15,1.03-0.21c0.08-0.01,0.16-0.03,0.24-0.04
		c0.08-0.01,0.08,0.03,0.12,0.09c0.07,0.1,0.14,0.19,0.22,0.29c0.31,0.36,0.69,0.68,1.12,0.94c2.12,1.32,5,1.22,7.39,0.54
		c-1,2.05-3.42,3.34-5.77,4.06c-2.76,0.84-5.76,1.17-8.68,1.08c-0.76-0.02-1.51-0.08-2.26-0.17c0.52-0.85,0.9-1.77,1.14-2.7
		C33.75,9.4,33.83,8.93,33.87,8.46z M48.47,19.77H43.6c-0.03-0.02-0.05-0.04-0.08-0.05c0.02,0.02,0.04,0.04,0.06,0.05H39.2
		c-0.02-0.07-0.04-0.13-0.06-0.2c-0.58-2.34,0.63-5.04,3.19-6.16c2.68-1.17,6.47-0.18,7.42,2.38C50.27,17.18,49.77,18.8,48.47,19.77
		z M23.15,5c0.26-0.86,0.86-1.67,1.71-2.2c0.96-0.6,2.17-0.75,3.31-0.47c2.01,0.49,3.58,1.83,4.2,3.52c0.58,1.6,0.41,3.36-0.14,4.94
		c-0.14,0.41-0.32,0.81-0.52,1.2c-0.04,0.09-0.09,0.18-0.14,0.26c-0.02,0.04-0.05,0.09-0.07,0.13c-0.04,0.08-0.2,0.01-0.29,0
		c-0.38-0.07-0.76-0.14-1.13-0.23c-1.45-0.34-2.87-0.85-4.1-1.6C23.92,9.32,22.5,7.17,23.15,5z M2.2,20.21
		c-0.63-0.58-1.04-1.36-1.21-2.2c-0.19-0.9-0.12-1.85,0.11-2.74c0.23-0.91,0.63-1.78,1.19-2.53c1.04-1.41,2.56-2.39,4.19-2.94
		C7.39,9.5,8.33,9.33,9.29,9.29c0.04-0.96,0.2-1.9,0.51-2.82c0.54-1.62,1.53-3.15,2.94-4.19c0.75-0.55,1.62-0.95,2.53-1.19
		c0.89-0.23,1.84-0.3,2.74-0.11c0.84,0.18,1.62,0.59,2.2,1.21c0.57,0.62,0.95,1.43,1.02,2.26c0.07,0.86-0.19,1.73-0.73,2.4
		c-0.54,0.67-1.36,1.17-2.25,1.19c-0.42,0.01-0.83-0.1-1.18-0.32c-0.35-0.22-0.63-0.54-0.82-0.89c-0.4-0.72-0.5-1.68,0.04-2.36
		c0.53-0.66,1.62-0.95,2.29-0.32c0.31,0.3,0.47,0.72,0.41,1.14c-0.06,0.4-0.31,0.75-0.64,0.98c0.42-0.22,0.72-0.63,0.78-1.09
		c0.06-0.43-0.09-0.86-0.38-1.18c-0.28-0.31-0.67-0.48-1.09-0.5c-0.9-0.04-1.76,0.54-2.07,1.35c-0.33,0.84-0.12,1.81,0.36,2.56
		c0.47,0.73,1.24,1.21,2.13,1.28c0.65,0.05,1.26-0.1,1.81-0.38c0.2-0.07,0.49-0.3,0.65-0.43c0.47-0.38,0.85-0.86,1.12-1.39
		c0.03,0.4,0.12,0.79,0.25,1.17c0.68,1.9,2.5,3.27,4.52,4.15c1.45,0.63,3.01,1.05,4.6,1.32c-1.99,2.78-5.96,4.25-9.77,4.28
		c0.01-0.06,0.02-0.12,0.02-0.18c0.03-0.38,0.05-0.65,0.07-1.01c0.02-0.36,0.02-0.73,0.01-1.09c0-0.22-0.01-0.52-0.04-0.71
		c-0.05-0.61-0.15-1.22-0.31-1.82c-0.41-1.56-1.79-4.05-3.98-3.03c-1.87,0.87-0.91,3.96,1.24,3.56c-0.74-0.33-1.6-1.03-1.43-1.88
		c0.17-0.88,1.29-0.88,1.99-0.61c1.79,0.7,2.04,2.85,2.1,4.42c0.06,1.55-0.12,3.12-0.41,4.69h-0.72v0.72
		c-1.56,0.29-3.13,0.46-4.69,0.41c-1.57-0.06-3.73-0.31-4.42-2.1c-0.27-0.7-0.27-1.82,0.61-1.99c0.85-0.16,1.56,0.7,1.88,1.43
		c0.4-2.14-2.69-3.11-3.56-1.24c-1.01,2.18,1.48,3.57,3.03,3.98c0.6,0.16,1.21,0.26,1.82,0.31c0.18,0.03,0.49,0.04,0.7,0.04
		c0.36,0.01,0.72,0.01,1.09-0.01c0.35-0.02,0.62-0.04,1.01-0.07c0.06-0.01,0.12-0.01,0.18-0.02c-0.03,3.82-1.51,7.78-4.28,9.77
		c-0.27-1.59-0.69-3.16-1.32-4.6c-0.88-2.02-2.25-3.84-4.15-4.52C7.3,21.76,6.9,21.67,6.5,21.64c0.53-0.27,1.02-0.65,1.39-1.12
		c0.13-0.17,0.35-0.46,0.42-0.65c0.28-0.55,0.43-1.16,0.38-1.81c-0.07-0.89-0.55-1.66-1.28-2.13c-0.74-0.47-1.72-0.68-2.56-0.36
		c-0.81,0.32-1.39,1.18-1.35,2.07c0.02,0.42,0.19,0.81,0.5,1.09c0.32,0.29,0.75,0.44,1.18,0.38c0.46-0.07,0.87-0.36,1.09-0.78
		c-0.23,0.34-0.58,0.58-0.98,0.64c-0.42,0.06-0.85-0.09-1.14-0.41c-0.63-0.67-0.34-1.76,0.32-2.29c0.68-0.54,1.64-0.44,2.36-0.04
		c0.36,0.2,0.67,0.47,0.89,0.82c0.22,0.35,0.32,0.76,0.32,1.18c-0.01,0.89-0.51,1.72-1.19,2.25c-0.68,0.54-1.55,0.8-2.4,0.73
		C3.62,21.15,2.82,20.78,2.2,20.21z M19.77,43.58c-0.02-0.02-0.04-0.04-0.05-0.06c0.02,0.03,0.04,0.05,0.05,0.08v4.87
		c-0.97,1.3-2.59,1.79-3.98,1.28c-2.56-0.95-3.55-4.74-2.38-7.42c1.12-2.56,3.83-3.78,6.16-3.19c0.07,0.02,0.13,0.04,0.2,0.06V43.58
		z M13.21,40.42c0.09-0.58,0.15-1.17,0.21-1.75c0.14-1.59,0.17-3.2,0.07-4.8c-0.03-0.43-0.06-0.85-0.11-1.27
		c-0.02-0.2-0.05-0.39-0.07-0.59c0.13-0.09,0.25-0.19,0.37-0.29c0.4-0.33,0.78-0.7,1.13-1.11c1.44-1.7,2.37-3.96,2.8-6.29
		c0.19-1.03,0.27-2.09,0.26-3.14c0.64-0.08,1.28-0.2,1.92-0.33v16.82C17.36,37.17,14.77,38.18,13.21,40.42z M5.85,32.37
		c-1.69-0.62-3.04-2.19-3.52-4.2c-0.28-1.14-0.13-2.35,0.47-3.31c0.53-0.85,1.34-1.45,2.2-1.71c2.17-0.65,4.32,0.77,5.55,2.82
		c0.74,1.24,1.25,2.65,1.6,4.1c0.09,0.37,0.17,0.75,0.23,1.13c0.02,0.09,0.08,0.25,0,0.29c-0.04,0.02-0.09,0.05-0.13,0.07
		c-0.09,0.05-0.17,0.09-0.26,0.14c-0.39,0.2-0.79,0.37-1.2,0.52C9.2,32.78,7.44,32.95,5.85,32.37z M5.78,40.12
		c0.06-0.34,0.13-0.69,0.21-1.03c0.33-1.4,0.83-2.73,1.49-3.96c0.14-0.27,0.3-0.53,0.46-0.79c0.08-0.13,0.16-0.26,0.25-0.38
		c0.07-0.11,0.17-0.08,0.28-0.09c0.47-0.04,0.94-0.12,1.4-0.24c0.94-0.24,1.85-0.62,2.7-1.14c0.09,0.75,0.14,1.51,0.17,2.26
		c0.09,2.92-0.24,5.93-1.08,8.68c-0.72,2.36-2.01,4.77-4.06,5.77c0.69-2.39,0.79-5.27-0.54-7.39c-0.26-0.42-0.58-0.81-0.94-1.12
		c-0.09-0.08-0.19-0.15-0.29-0.22c-0.06-0.04-0.1-0.04-0.09-0.12C5.75,40.28,5.76,40.2,5.78,40.12z M2.94,48.75
		c-0.76-0.65-1.26-1.6-1.46-2.68c-0.34-1.78,0.11-4.17,1.72-4.88c0,0,0,0,0,0c0,0,0,0,0,0c0.37-0.16,0.76-0.22,1.15-0.17
		c0.18,0.02,0.36,0.06,0.53,0.13c0.16,0.06,0.15,0.06,0.12,0.25c-0.01,0.1-0.03,0.19-0.04,0.29c-0.11,0.92-0.15,1.85-0.11,2.77
		c0.08,1.8,0.43,3.58,1.04,5.23C4.87,49.77,3.79,49.48,2.94,48.75z M6.85,49.41c-1.05-2.43-1.47-5.18-1.25-7.89
		c2.2,1.56,2.17,4.89,1.39,7.44C6.96,49.07,6.92,49.21,6.85,49.41z M15.7,56.32c-2.52-0.03-4.96-1.27-6.71-3.39
		c-0.57-0.69-1.09-1.44-1.53-2.25c2.14-0.84,3.62-3.07,4.51-5.4c0.05,0.57,0.17,1.12,0.35,1.65c0.46,1.36,1.31,2.57,2.44,3.22
		c1.16,0.66,2.55,0.68,3.72,0.05c0.48-0.25,0.91-0.61,1.27-1.05v6.13C18.51,55.98,17.12,56.34,15.7,56.32z M24.33,44.84
		c0.65,2.9-0.05,6.12-1.88,8.25c-0.32,0.37-0.67,0.72-1.03,1.03V40.05C22.86,41.12,23.9,42.89,24.33,44.84z M20.86,19.77
		c0.13-0.64,0.24-1.28,0.33-1.92c1.06,0.01,2.11-0.07,3.14-0.26c2.33-0.43,4.59-1.35,6.29-2.8c0.41-0.35,0.78-0.72,1.1-1.13
		c0.1-0.12,0.19-0.25,0.29-0.37c0.2,0.03,0.39,0.05,0.59,0.07c0.42,0.05,0.85,0.08,1.27,0.11c1.6,0.1,3.21,0.07,4.8-0.07
		c0.59-0.05,1.17-0.12,1.75-0.2c-2.24,1.56-3.26,4.16-2.74,6.56H20.86z M53.09,22.46c-2.12,1.83-5.34,2.53-8.25,1.88
		c-1.95-0.43-3.72-1.47-4.79-2.9h14.07C53.81,21.79,53.46,22.13,53.09,22.46z M49.15,19.77c0.44-0.36,0.8-0.8,1.05-1.27
		c0.63-1.17,0.61-2.56-0.05-3.72c-0.65-1.13-1.86-1.98-3.22-2.44c-0.53-0.18-1.09-0.3-1.65-0.35c2.33-0.9,4.56-2.38,5.4-4.51
		c0.81,0.44,1.56,0.96,2.25,1.53c2.13,1.75,3.36,4.19,3.39,6.71c0.02,1.42-0.35,2.8-1.04,4.06H49.15z"/>
	<path d="M12.88,12.3c-0.16,0.02-0.32,0.06-0.46,0.12c-0.06,0.15-0.1,0.3-0.12,0.46c-0.07,0.53,0.03,1.08,0.27,1.55
		c0.12,0.23,0.28,0.44,0.47,0.62c0.2,0.17,0.43,0.29,0.66,0.38c0.53,0.15,1.06,0.04,1.54-0.2c0.23-0.48,0.34-1.01,0.2-1.54
		c-0.09-0.23-0.21-0.46-0.38-0.66c-0.17-0.19-0.38-0.35-0.62-0.47C13.96,12.32,13.41,12.22,12.88,12.3z M13.81,13.02
		c0.15,0.03,0.32,0.07,0.45,0.15c0.3,0.15,0.55,0.38,0.7,0.68c0.14,0.37,0.15,0.77,0.06,1.15c0,0.01,0,0.01-0.01,0.02
		c-0.01,0-0.01,0-0.02,0.01c-0.38,0.09-0.78,0.08-1.15-0.06c-0.3-0.15-0.53-0.4-0.68-0.7c-0.08-0.13-0.12-0.3-0.15-0.45
		c-0.05-0.22-0.06-0.46-0.04-0.68c0.01-0.04,0.01-0.09,0.02-0.13c0.04-0.01,0.08-0.02,0.13-0.02
		C13.36,12.96,13.59,12.97,13.81,13.02z"/>
	<path d="M9.88,14.01c0.39-0.08,0.74-0.3,1.01-0.6c0.06-0.07,0.12-0.14,0.17-0.21c0.03-0.04,0.03-0.03,0-0.06
		c-0.04-0.04-0.04-0.01-0.08,0.02c-0.16,0.13-0.33,0.24-0.52,0.33c-0.38,0.18-0.81,0.21-1.2,0.03c-0.36-0.17-0.65-0.5-0.81-0.87
		c-0.17-0.39-0.22-0.85-0.09-1.26c0.13-0.43,0.44-0.76,0.81-0.98c0.27-0.17,0.57-0.28,0.87-0.37c0.08-0.31,0.2-0.6,0.37-0.87
		c0.23-0.37,0.56-0.68,0.98-0.81c0.41-0.12,0.87-0.08,1.26,0.09c0.37,0.16,0.7,0.45,0.87,0.81c0.18,0.39,0.14,0.82-0.03,1.2
		c-0.09,0.18-0.2,0.36-0.33,0.52c-0.03,0.04-0.06,0.05-0.02,0.08c0.03,0.03,0.03,0.03,0.06,0c0.07-0.05,0.14-0.11,0.21-0.18
		c0.29-0.27,0.52-0.62,0.6-1.01c0.17-0.89-0.44-1.7-1.24-2.07c-0.79-0.37-1.76-0.28-2.44,0.28C9.9,8.44,9.62,8.93,9.45,9.45
		C8.93,9.62,8.44,9.9,8.09,10.34c-0.56,0.68-0.64,1.64-0.28,2.44C8.18,13.57,8.99,14.18,9.88,14.01z"/>
	<path d="M18.23,18.48c0.1,0.02,0.21,0.04,0.31,0.06c-0.02-0.1-0.04-0.21-0.06-0.31c-0.27-1.21-1.15-3.14-2.47-2.31
		c-0.02,0.01-0.03,0.02-0.05,0.04c-0.01,0.02-0.02,0.03-0.04,0.05C15.09,17.33,17.02,18.21,18.23,18.48z M17.11,16.73
		c0.56,0.26,0.88,0.81,1.07,1.45c-0.64-0.19-1.19-0.51-1.45-1.07c-0.07-0.15-0.11-0.32-0.11-0.5
		C16.79,16.62,16.97,16.66,17.11,16.73z"/>
</g>
</svg>
