<?xml version="1.0" encoding="utf-8"?>
<!-- Generator: Adobe Illustrator 23.0.3, SVG Export Plug-In . SVG Version: 6.00 Build 0)  -->
<svg version="1.1" id="Layer_1" xmlns="http://www.w3.org/2000/svg" xmlns:xlink="http://www.w3.org/1999/xlink" x="0px" y="0px"
	 viewBox="0 0 67.62 67.62" style="enable-background:new 0 0 67.62 67.62;" xml:space="preserve">
<path d="M67.62,59.92v-4.62l-28,0v-9.18l-9.27-0.01v-4.23h9.28v-13.9h-13.9v9.28h-4.26l-0.02-9.28h-9.13V0H7.7v27.99H4.62V0H0v32.6
	h7.7v9.28h9.17l0.01,4.22l-9.27-0.01L7.63,60h13.9l-0.02-9.27l4.23,0v9.2H35v7.7h32.62V63l-28,0v-3.08H67.62z M30.35,32.6h4.67v4.67
	h-4.67V32.6z M12.31,37.27V32.6h4.53l0.01,4.67H12.31z M16.9,55.38l-4.66,0l-0.01-4.66l4.66,0L16.9,55.38z M21.49,46.11l-0.01-4.22
	h4.25v4.22L21.49,46.11z M30.35,55.31v-4.57l4.65,0v4.57H30.35z"/>
</svg>
