<?xml version="1.0" encoding="utf-8"?>
<!-- Generator: Adobe Illustrator 23.0.3, SVG Export Plug-In . SVG Version: 6.00 Build 0)  -->
<svg version="1.1" id="Layer_1" xmlns="http://www.w3.org/2000/svg" xmlns:xlink="http://www.w3.org/1999/xlink" x="0px" y="0px"
	 viewBox="0 0 67.02 65.04" style="enable-background:new 0 0 67.02 65.04;" xml:space="preserve">
<g>
	<path d="M52.86,9.78c-0.57-1.73-2.31-2.99-4.36-2.99c-2.51,0-4.55,1.89-4.55,4.23s2.04,4.23,4.55,4.23c2.09,0,3.86-1.32,4.39-3.1
		h14.12V9.97L52.86,9.78z"/>
	<path d="M34.82,16.04c0.01-0.4-0.09-0.81-0.27-1.18c1.22,0.23,2.59-0.01,3.63-0.54c0.15-0.07,0.34-0.26,0.52-0.28
		c0.09-0.01,0.22,0.1,0.29,0.13c0.14,0.06,0.28,0.12,0.43,0.16c0.54,0.15,1.15,0.13,1.65-0.09c0.24-0.11,0.44-0.26,0.57-0.45
		c0.05-0.08,0.09-0.24,0.19-0.27c0.13-0.04,0.25-0.09,0.35-0.15c0.3-0.18,0.47-0.45,0.49-0.74c0.01-0.09,0-0.19-0.03-0.28
		c-0.23-0.77-1.53-1.03-2.22-0.45c-0.23,0.2-0.34,0.44-0.33,0.68c0,0.4,0.31,0.79,0.85,0.94c-0.37,0.24-0.92,0.23-1.32,0.05
		c-0.42-0.19-0.67-0.54-0.72-0.9c-0.01-0.05-0.01-0.09-0.01-0.14c0-0.34,0.17-0.66,0.45-0.92c0.17-0.16,0.39-0.3,0.64-0.4
		c0.12-0.05,0.42-0.09,0.49-0.19c-0.08-0.11-0.37-0.14-0.49-0.19c-0.24-0.1-0.46-0.24-0.64-0.4c-0.28-0.26-0.44-0.59-0.45-0.92
		c0-0.05,0-0.09,0.01-0.14c0.05-0.37,0.3-0.72,0.72-0.9c0.4-0.18,0.95-0.18,1.32,0.05c-0.54,0.15-0.85,0.54-0.85,0.94
		c-0.01,0.24,0.1,0.49,0.33,0.68c0.69,0.58,1.99,0.32,2.22-0.45c0.03-0.09,0.04-0.19,0.03-0.28c-0.02-0.28-0.19-0.56-0.49-0.74
		c-0.1-0.06-0.23-0.12-0.35-0.15c-0.1-0.03-0.13-0.19-0.19-0.27c-0.13-0.19-0.33-0.34-0.57-0.45c-0.5-0.23-1.12-0.25-1.65-0.09
		c-0.15,0.04-0.3,0.1-0.43,0.17c-0.07,0.03-0.2,0.14-0.29,0.13c-0.17-0.03-0.37-0.21-0.52-0.28c-1.05-0.52-2.41-0.76-3.63-0.53
		c0.18-0.37,0.28-0.78,0.27-1.18c-0.01-0.25-0.06-0.5-0.16-0.73c-0.29-0.65-1.01-1.14-1.87-1.31c0.38-0.21,0.55-0.52,0.53-0.82
		c-0.01-0.52-0.54-1.03-1.34-1c-0.77,0.03-1.24,0.54-1.22,1.04c0,0.3,0.18,0.6,0.55,0.79C31.25,3.99,31.19,4,31.13,4.02
		c-1.21,0.34-1.71,1.26-1.69,2.19c0,0,0,0,0,0c0,0,0,0.01,0,0.01c0,0.12,0.03,0.4,0.28,0.37c0.1-0.02,0.19-0.07,0.28-0.11
		c0.12-0.05,0.26-0.08,0.39-0.1c0.57-0.06,0.92,0.32,0.93,0.71c0,0.02,0,0.05,0,0.07c-0.1,0.85-1.22,1.45-2.07,1.88
		c-1,0.51-2.08,0.96-3.29,1.09c0.98-0.97,1.75-1.99,2.1-3.2c0.15-0.54,0.23-1.09,0.22-1.64c-0.01-0.55-0.11-1.11-0.3-1.64
		c-0.57-1.59-1.98-3.03-4.11-3.49c-1.15-0.25-2.5-0.25-3.62,0.09c-1.08,0.33-1.93,0.99-2.42,1.79c-0.08,0.13-0.15,0.26-0.2,0.4
		c-0.06-0.13-0.12-0.27-0.2-0.4c-0.49-0.8-1.34-1.47-2.42-1.79c-0.72-0.22-1.53-0.28-2.33-0.24c-0.79-0.04-1.61,0.02-2.33,0.24
		C9.26,0.59,8.41,1.25,7.93,2.05c-0.08,0.13-0.15,0.26-0.2,0.4c-0.06-0.13-0.12-0.27-0.2-0.4c-0.49-0.8-1.34-1.47-2.42-1.79
		C3.99-0.07,2.63-0.07,1.49,0.18c-0.35,0.08-0.68,0.19-1,0.31c-0.13,0.31-0.24,0.64-0.31,1c-0.25,1.15-0.25,2.5,0.09,3.62
		c0.33,1.08,0.99,1.93,1.79,2.42c0.13,0.08,0.26,0.15,0.39,0.2c-0.13,0.06-0.26,0.12-0.39,0.2c-0.8,0.49-1.47,1.34-1.79,2.42
		c-0.22,0.72-0.28,1.53-0.24,2.33c-0.04,0.8,0.02,1.61,0.24,2.33c0.33,1.08,0.99,1.93,1.79,2.42c0.13,0.08,0.26,0.15,0.39,0.2
		c-0.13,0.06-0.26,0.12-0.39,0.2c-0.8,0.49-1.47,1.34-1.79,2.42c-0.34,1.12-0.33,2.47-0.09,3.62c0.46,2.14,1.9,3.54,3.49,4.11
		c0.54,0.19,1.09,0.29,1.64,0.3c0.55,0.01,1.1-0.07,1.64-0.22c1.21-0.35,2.23-1.12,3.2-2.1c-0.13,1.21-0.58,2.29-1.09,3.29
		c-0.43,0.84-1.04,1.97-1.88,2.07c-0.02,0-0.05,0-0.07,0c-0.39,0-0.78-0.35-0.71-0.93c0.01-0.13,0.05-0.27,0.1-0.39
		c0.04-0.09,0.09-0.18,0.11-0.28c0.03-0.25-0.25-0.28-0.37-0.28c0,0-0.01,0-0.01,0c0,0,0,0,0,0c-0.93-0.02-1.85,0.49-2.19,1.69
		C4,31.19,3.99,31.25,3.97,31.31c-0.2-0.38-0.49-0.55-0.79-0.55c-0.5-0.02-1.01,0.45-1.04,1.22c-0.03,0.8,0.48,1.32,1,1.34
		c0.3,0.01,0.61-0.15,0.82-0.53c0.17,0.87,0.66,1.58,1.31,1.87c0.24,0.1,0.48,0.16,0.73,0.16c0.4,0.01,0.81-0.09,1.18-0.27
		c-0.23,1.22,0.01,2.59,0.53,3.63c0.07,0.15,0.26,0.34,0.28,0.52c0.01,0.09-0.1,0.22-0.13,0.29c-0.07,0.14-0.12,0.28-0.16,0.43
		c-0.15,0.54-0.13,1.15,0.09,1.65c0.11,0.24,0.26,0.44,0.45,0.57c0.08,0.05,0.24,0.09,0.27,0.18c0.04,0.13,0.09,0.25,0.15,0.35
		c0.18,0.3,0.45,0.47,0.74,0.49c0.09,0.01,0.19,0,0.28-0.03c0.77-0.23,1.03-1.53,0.45-2.22c-0.2-0.23-0.44-0.34-0.68-0.33
		c-0.4,0-0.79,0.31-0.94,0.85c-0.24-0.37-0.23-0.91-0.05-1.32c0.19-0.42,0.54-0.67,0.9-0.72c0.05-0.01,0.09-0.01,0.14-0.01
		c0.34,0,0.66,0.17,0.92,0.45c0.16,0.18,0.3,0.39,0.4,0.64c0.05,0.12,0.09,0.42,0.19,0.49c0.1-0.08,0.14-0.37,0.19-0.49
		c0.1-0.24,0.24-0.46,0.4-0.64c0.26-0.28,0.59-0.44,0.92-0.45c0.05,0,0.09,0,0.14,0.01c0.37,0.05,0.72,0.3,0.9,0.72
		c0.18,0.4,0.18,0.95-0.05,1.32c-0.15-0.54-0.54-0.85-0.94-0.85c-0.24-0.01-0.49,0.1-0.68,0.33c-0.58,0.69-0.32,1.99,0.45,2.22
		c0.09,0.03,0.19,0.04,0.28,0.03c0.28-0.02,0.56-0.19,0.74-0.49c0.06-0.1,0.12-0.22,0.15-0.35c0.03-0.1,0.19-0.13,0.27-0.18
		c0.19-0.13,0.34-0.33,0.45-0.57c0.23-0.5,0.25-1.12,0.09-1.65c-0.04-0.15-0.1-0.3-0.16-0.43c-0.03-0.07-0.14-0.2-0.13-0.29
		c0.02-0.17,0.21-0.37,0.28-0.52c0.52-1.05,0.76-2.41,0.53-3.63c0.23,0.11,0.47,0.19,0.72,0.23v30.26h1.55v-30.6
		c0.47-0.36,0.82-0.96,0.96-1.66c0.21,0.38,0.52,0.55,0.82,0.53c0.52-0.01,1.03-0.54,1-1.34c-0.03-0.77-0.54-1.24-1.04-1.22
		c-0.3,0-0.6,0.18-0.79,0.55c-0.01-0.06-0.03-0.12-0.05-0.18c-0.34-1.21-1.26-1.71-2.19-1.69c0,0,0,0,0,0c0,0-0.01,0-0.01,0
		c-0.12,0-0.4,0.03-0.37,0.28c0.01,0.1,0.07,0.19,0.11,0.28c0.05,0.12,0.08,0.26,0.1,0.39c0.06,0.57-0.32,0.92-0.71,0.93
		c-0.02,0-0.05,0-0.07,0c-0.85-0.1-1.46-1.22-1.88-2.07c-0.51-1-0.96-2.08-1.09-3.29c0.97,0.98,1.99,1.75,3.2,2.1
		c0.54,0.15,1.09,0.23,1.64,0.22c0.55-0.01,1.11-0.11,1.64-0.3c0.95-0.34,1.85-0.99,2.52-1.91v38.98h0.78V24.55
		c0.08-0.22,0.14-0.45,0.19-0.69c0.1-0.47,0.16-0.97,0.17-1.48h44.98V21.6H24.75c1.63-0.62,2.73-1.87,3.22-3.22
		c0.19-0.54,0.29-1.09,0.3-1.64c0.01-0.55-0.07-1.1-0.22-1.64c-0.35-1.21-1.12-2.23-2.1-3.2c1.21,0.13,2.29,0.58,3.29,1.09
		c0.84,0.43,1.96,1.04,2.07,1.88c0,0.02,0,0.05,0,0.07c0,0.39-0.35,0.78-0.93,0.71c-0.13-0.01-0.27-0.05-0.39-0.1
		c-0.09-0.04-0.18-0.09-0.28-0.11c-0.25-0.03-0.28,0.25-0.28,0.37c0,0,0,0.01,0,0.01c0,0,0,0,0,0c-0.02,0.93,0.48,1.85,1.69,2.19
		c0.06,0.02,0.12,0.03,0.18,0.05c-0.38,0.2-0.55,0.49-0.55,0.79c-0.02,0.5,0.45,1.01,1.22,1.04c0.8,0.03,1.32-0.48,1.34-1
		c0.01-0.31-0.15-0.61-0.53-0.82c0.42-0.08,0.81-0.25,1.13-0.46h33.1v-1.55h-32.2C34.82,16.06,34.82,16.05,34.82,16.04z M9.63,2.67
		c0.75-0.64,1.92-0.97,3.04-0.88c1.11-0.09,2.29,0.24,3.04,0.88c0.53,0.45,0.85,1.07,0.86,1.69c0,0.28-0.06,0.55-0.2,0.81
		c-0.21,0.39-0.56,0.73-1,0.98c-0.24,0.14-0.5,0.25-0.78,0.31c-0.08,0.02-0.11,0-0.12-0.03c0.01-0.06,0.08-0.16,0.11-0.21
		c0.13-0.24,0.19-0.5,0.18-0.77c-0.01-0.44-0.21-0.89-0.59-1.21c-0.39-0.32-0.94-0.49-1.5-0.51c-0.56,0.01-1.12,0.18-1.5,0.51
		c-0.38,0.32-0.58,0.76-0.59,1.21c-0.01,0.27,0.05,0.53,0.18,0.77c0.03,0.05,0.1,0.15,0.11,0.21c0,0.03-0.03,0.04-0.12,0.03
		c-0.28-0.06-0.54-0.18-0.78-0.31c-0.44-0.25-0.79-0.59-1-0.98c-0.14-0.26-0.2-0.54-0.2-0.81C8.78,3.74,9.1,3.12,9.63,2.67z
		 M1.79,2.74c0.02-0.18,0.06-0.52,0.15-0.8c0.27-0.09,0.62-0.14,0.8-0.16c1.13-0.1,2.32,0.23,3.07,0.88
		c0.53,0.45,0.86,1.07,0.86,1.69c0,0.28-0.06,0.55-0.2,0.81c-0.14,0.26-0.35,0.5-0.61,0.71c0,0,0,0,0,0
		C5.66,6.13,5.42,6.34,5.16,6.48c-0.26,0.14-0.53,0.2-0.81,0.2C3.74,6.67,3.12,6.35,2.66,5.82C2.02,5.06,1.69,3.87,1.79,2.74z
		 M1.79,12.67c-0.09-1.12,0.24-2.29,0.88-3.04C3.12,9.1,3.74,8.78,4.35,8.77c0.28,0,0.55,0.06,0.81,0.2c0.39,0.21,0.73,0.56,0.98,1
		c0.14,0.24,0.25,0.5,0.31,0.78c0.02,0.08,0,0.11-0.03,0.12c-0.06-0.01-0.16-0.08-0.21-0.11c-0.24-0.13-0.5-0.19-0.77-0.18
		c-0.45,0.01-0.89,0.21-1.21,0.59c-0.32,0.38-0.49,0.94-0.51,1.5c0.01,0.56,0.18,1.12,0.51,1.51c0.32,0.38,0.76,0.58,1.21,0.59
		c0.27,0.01,0.53-0.05,0.77-0.18c0.05-0.03,0.15-0.1,0.21-0.11c0.03,0,0.04,0.03,0.03,0.12c-0.06,0.29-0.18,0.55-0.31,0.78
		c-0.25,0.44-0.59,0.79-0.98,1c-0.26,0.14-0.53,0.2-0.81,0.2c-0.61-0.01-1.23-0.34-1.69-0.86C2.03,14.96,1.69,13.78,1.79,12.67z
		 M12.9,33.48c0.26,0.95,0.16,2.18-0.19,3.08c-0.33,0.86-0.97,1.34-1.7,1.35c-0.73-0.01-1.36-0.49-1.7-1.35
		c-0.35-0.9-0.44-2.13-0.19-3.08c0.61-2.28,1.33-4.5,1.88-6.8C11.58,28.98,12.29,31.21,12.9,33.48z M11.59,21.69
		c-0.19,0.45-0.45,0.88-0.57,1.37c-0.13-0.49-0.39-0.92-0.57-1.37c-0.21-0.52-0.4-1.05-0.56-1.6c-0.22-0.8-0.38-1.63-0.45-2.47
		c0.07-0.84,0.22-1.68,0.45-2.47c0.16-0.55,0.35-1.08,0.56-1.6c0.12-0.29,0.27-0.58,0.4-0.87c-0.13-0.3-0.28-0.58-0.4-0.87
		c-0.21-0.52-0.4-1.05-0.56-1.6C9.85,10.07,9.83,9.93,9.8,9.8c0.13,0.03,0.27,0.06,0.4,0.09c0.55,0.16,1.08,0.35,1.6,0.56
		c0.29,0.12,0.58,0.27,0.87,0.4c0.3-0.13,0.58-0.28,0.87-0.4c0.52-0.21,1.05-0.4,1.6-0.56c0.8-0.22,1.63-0.38,2.47-0.45
		c0.84,0.07,1.68,0.23,2.47,0.45c0.55,0.16,1.08,0.35,1.6,0.56c0.46,0.19,0.88,0.45,1.37,0.57c-0.49,0.13-0.92,0.39-1.37,0.57
		c-0.52,0.21-1.05,0.4-1.6,0.56c-0.8,0.23-1.63,0.38-2.47,0.45c-0.84-0.07-1.68-0.22-2.47-0.45c-0.55-0.16-1.08-0.35-1.6-0.56
		c-0.29-0.12-0.58-0.27-0.87-0.4c-0.3,0.13-0.58,0.27-0.87,0.4c-0.05,0.02-0.1,0.04-0.15,0.06h0c-0.02,0.05-0.04,0.1-0.06,0.15
		c-0.12,0.3-0.27,0.58-0.4,0.87c0.13,0.3,0.27,0.58,0.4,0.87c0.21,0.52,0.4,1.05,0.56,1.6c0.23,0.79,0.38,1.63,0.45,2.47
		c-0.07,0.84-0.22,1.68-0.45,2.47C12,20.64,11.81,21.17,11.59,21.69z M26.39,14.28c0.18,0.45,0.28,0.92,0.29,1.39
		c0.01,0.47-0.06,0.94-0.23,1.39c-0.34,0.89-1.14,1.66-2.34,1.91C23.96,19,23.56,19,23.55,19.16c0,0,0,0.01,0,0.01c0,0,0,0,0,0
		c-0.01,0.19,0.23,0.36,0.26,0.55c0.03,0.38-0.87,0.49-1.21,0.52c-1.13,0.1-2.32-0.23-3.07-0.88c-0.53-0.45-0.86-1.07-0.86-1.69
		c0-0.28,0.06-0.55,0.2-0.81c0.21-0.39,0.56-0.73,1-0.98c0.24-0.13,0.5-0.25,0.78-0.31c0.08-0.02,0.11,0,0.12,0.03
		c-0.01,0.06-0.08,0.16-0.11,0.21c-0.13,0.24-0.19,0.5-0.18,0.77c0.01,0.45,0.21,0.89,0.59,1.21c0.65,0.55,1.79,0.66,2.63,0.3
		c0.66-0.29,0.97-0.81,0.96-1.35c0-0.25-0.06-0.5-0.19-0.74c-0.37-0.71-1.24-1.2-2.23-1.27c-0.94-0.07-1.9,0.19-2.67,0.59
		c-0.95,0.49-1.62,1.23-1.94,2.04c-0.33-0.81-0.99-1.55-1.94-2.04c-0.2-0.1-0.4-0.19-0.62-0.27c0.08,0.22,0.17,0.42,0.27,0.62
		c0.49,0.95,1.23,1.62,2.04,1.94c-0.81,0.32-1.54,0.99-2.04,1.94c-0.4,0.77-0.66,1.73-0.59,2.67c0.07,0.99,0.57,1.85,1.27,2.23
		c0.24,0.13,0.49,0.19,0.74,0.19c0.54,0.01,1.06-0.3,1.36-0.96c0.37-0.83,0.25-1.98-0.3-2.63c-0.32-0.38-0.77-0.58-1.21-0.59
		c-0.27-0.01-0.53,0.05-0.77,0.18c-0.05,0.03-0.15,0.1-0.21,0.11c-0.03,0-0.05-0.03-0.03-0.12c0.06-0.28,0.18-0.54,0.31-0.78
		c0.25-0.44,0.59-0.79,0.98-1c0.26-0.14,0.53-0.2,0.81-0.2c0.61,0.01,1.23,0.33,1.68,0.86c0.65,0.76,0.98,1.95,0.88,3.07
		c-0.03,0.34-0.15,1.23-0.52,1.21c-0.19-0.03-0.36-0.27-0.55-0.26c0,0,0,0,0,0c0,0-0.01,0-0.01,0C19,23.56,19,23.96,18.97,24.11
		c-0.25,1.2-1.01,2-1.91,2.34c-0.45,0.17-0.92,0.24-1.39,0.23c-0.47-0.02-0.94-0.12-1.39-0.29c-0.47-0.19-0.91-0.45-1.32-0.8
		c-0.32-0.27-0.68-0.6-0.92-0.98c-0.13-0.21-0.04-0.49,0.02-0.73c0.07-0.29,0.18-0.57,0.3-0.83c0.25-0.58,0.54-1.12,0.8-1.69
		c0.52-1.17,0.87-2.39,1.03-3.72c0-0.01,0-0.02,0-0.03c0-0.01,0-0.02,0-0.03c-0.16-1.34-0.51-2.55-1.03-3.72
		c-0.18-0.41-0.38-0.8-0.57-1.2c0.01-0.02,0.02-0.04,0.03-0.06c0.02-0.01,0.04-0.02,0.06-0.03c0.4,0.19,0.79,0.39,1.2,0.57
		c1.17,0.52,2.39,0.87,3.72,1.03c0.01,0,0.02,0,0.03,0c0.01,0,0.02,0,0.02,0c1.34-0.16,2.55-0.51,3.72-1.03
		c0.57-0.26,1.12-0.55,1.69-0.8c0.26-0.12,0.54-0.22,0.83-0.29c0.23-0.06,0.51-0.15,0.73-0.02c0.38,0.24,0.71,0.6,0.98,0.92
		C25.94,13.37,26.21,13.82,26.39,14.28z M25.6,9.08C25.33,9.39,25,9.76,24.61,10c-0.21,0.13-0.49,0.04-0.73-0.02
		c-0.29-0.07-0.57-0.18-0.83-0.29c-0.57-0.25-1.12-0.54-1.69-0.8c-1.17-0.52-2.39-0.87-3.72-1.03c-0.01,0-0.02,0-0.02,0
		c-0.01,0-0.02,0-0.03,0c-1.33,0.16-2.55,0.51-3.72,1.03c-0.41,0.18-0.8,0.38-1.2,0.57c-0.4-0.19-0.79-0.39-1.2-0.57
		c-1.13-0.5-2.31-0.84-3.59-1.01c0.17,1.28,0.51,2.46,1.01,3.59c0.18,0.41,0.38,0.8,0.57,1.2c-0.19,0.4-0.39,0.79-0.57,1.2
		c-0.52,1.17-0.87,2.38-1.03,3.72c0,0.01,0,0.02,0,0.03c0,0.01,0,0.02,0,0.03c0.16,1.34,0.51,2.55,1.03,3.72
		c0.25,0.57,0.55,1.12,0.8,1.69c0.12,0.26,0.22,0.54,0.29,0.83c0.06,0.24,0.15,0.51,0.02,0.73C9.76,25,9.39,25.33,9.08,25.59
		c-0.41,0.35-0.85,0.61-1.32,0.8c-0.45,0.18-0.92,0.28-1.39,0.29c-0.47,0.01-0.94-0.06-1.39-0.23c-0.89-0.34-1.66-1.14-1.91-2.34
		c-0.03-0.15-0.03-0.56-0.19-0.57c0,0-0.01,0-0.01,0c0,0,0,0,0,0c-0.19-0.01-0.36,0.23-0.55,0.26c-0.38,0.03-0.49-0.87-0.52-1.21
		c-0.1-1.13,0.23-2.32,0.88-3.07c0.45-0.53,1.07-0.86,1.69-0.86c0.28,0,0.55,0.06,0.81,0.2c0.39,0.21,0.73,0.56,0.98,1
		c0.14,0.24,0.25,0.5,0.31,0.78c0.02,0.08,0,0.11-0.03,0.12c-0.06-0.01-0.16-0.08-0.21-0.11c-0.24-0.13-0.5-0.19-0.77-0.18
		c-0.45,0.01-0.89,0.21-1.21,0.59c-0.55,0.65-0.67,1.79-0.3,2.63c0.29,0.66,0.82,0.97,1.36,0.96c0.25,0,0.5-0.06,0.74-0.19
		c0.71-0.37,1.2-1.24,1.27-2.23c0.07-0.94-0.19-1.9-0.59-2.67c-0.49-0.95-1.23-1.62-2.04-1.94c0.81-0.33,1.55-0.99,2.04-1.94
		c0.4-0.77,0.66-1.73,0.59-2.67c-0.01-0.11-0.02-0.23-0.04-0.33c0.02-0.11,0.03-0.22,0.04-0.33c0.07-0.94-0.19-1.9-0.59-2.67
		C6.22,8.72,5.49,8.05,4.67,7.72C5.31,7.47,5.9,7,6.36,6.36C7,5.9,7.47,5.31,7.72,4.68c0.33,0.81,0.99,1.55,1.94,2.04
		c0.77,0.4,1.73,0.66,2.67,0.59c0.11-0.01,0.23-0.02,0.33-0.04C12.78,7.28,12.89,7.3,13,7.3c0.94,0.07,1.9-0.19,2.67-0.59
		c0.95-0.49,1.62-1.23,1.94-2.04c0.32,0.81,0.99,1.55,1.94,2.04c0.77,0.4,1.73,0.66,2.67,0.59c0.99-0.07,1.85-0.56,2.23-1.27
		c0.12-0.24,0.19-0.49,0.19-0.74c0.01-0.54-0.3-1.06-0.96-1.36c-0.83-0.37-1.98-0.25-2.63,0.3c-0.38,0.32-0.58,0.76-0.59,1.21
		c-0.01,0.27,0.05,0.53,0.18,0.77c0.03,0.05,0.1,0.15,0.11,0.21c-0.01,0.03-0.03,0.04-0.12,0.03c-0.28-0.06-0.55-0.18-0.78-0.31
		c-0.44-0.25-0.79-0.59-1-0.98c-0.14-0.26-0.2-0.54-0.2-0.81c0.01-0.61,0.33-1.23,0.86-1.69c0.76-0.65,1.95-0.98,3.07-0.88
		c0.34,0.03,1.23,0.15,1.21,0.52c-0.03,0.19-0.27,0.36-0.26,0.55c0,0,0,0,0,0c0,0,0,0.01,0,0.01c0.01,0.17,0.42,0.16,0.56,0.19
		c1.2,0.25,2,1.01,2.34,1.91c0.17,0.45,0.24,0.92,0.23,1.39c-0.02,0.47-0.12,0.94-0.29,1.39C26.21,8.22,25.94,8.67,25.6,9.08z
		 M26.68,11.02c2.3-0.55,4.52-1.27,6.8-1.88c0.95-0.25,2.19-0.16,3.08,0.19c0.86,0.33,1.34,0.97,1.35,1.7
		c-0.01,0.73-0.49,1.36-1.35,1.7c-0.9,0.35-2.13,0.44-3.08,0.19C31.21,12.29,28.98,11.58,26.68,11.02z"/>
	<path d="M11.02,43.95c-2.33,0-4.23,2.04-4.23,4.55c0,2.05,1.26,3.79,2.99,4.36l0.16,12.18h2.2V52.89c1.79-0.53,3.1-2.3,3.1-4.39
		C15.25,45.99,13.35,43.95,11.02,43.95z"/>
</g>
</svg>
