<?xml version="1.0" encoding="utf-8"?>
<!-- Generator: Adobe Illustrator 23.0.3, SVG Export Plug-In . SVG Version: 6.00 Build 0)  -->
<svg version="1.1" id="Layer_1" xmlns="http://www.w3.org/2000/svg" xmlns:xlink="http://www.w3.org/1999/xlink" x="0px" y="0px"
	 viewBox="0 0 59.59 59.52" style="enable-background:new 0 0 59.59 59.52;" xml:space="preserve">
<g>
	<path d="M22.91,25.52c-0.26-0.72-0.55-1.41-0.89-2.08c-0.17-0.34-0.36-0.68-0.55-1.01c-0.04-0.07,0.05-0.18,0.09-0.25
		c0.04-0.08,0.08-0.16,0.12-0.24c0.03-0.06,0.05-0.12,0.08-0.18l-1.39-1.39c-0.03,0.08-0.06,0.17-0.09,0.25
		c-0.85-1.13-1.81-2.17-2.94-2.95c-0.15-0.1-0.31-0.2-0.46-0.3c-0.07-0.04-0.15-0.09-0.22-0.13c-0.04-0.02-0.07-0.04-0.11-0.06
		c-0.02-0.05-0.03-0.09-0.05-0.14c-0.1-0.28-0.19-0.56-0.29-0.84l-3.15-3.15c0.4,1.16,0.81,2.33,1.2,3.49
		c-0.66-0.01-1.31,0.14-1.92,0.43c-0.61,0.3-1.15,0.8-1.59,1.36c-0.41,0.54-0.77,1.21-0.8,1.93c-0.03,0.73,0.33,1.41,0.9,1.76
		c0.59,0.37,1.31,0.34,1.95,0.21c0.69-0.15,1.35-0.42,2.02-0.65c-0.54,0.12-1.07,0.27-1.62,0.37c-0.52,0.09-1.08,0.15-1.6,0.01
		c-0.45-0.12-0.84-0.42-1.05-0.88c-0.22-0.49-0.11-1.04,0.11-1.49c0.31-0.64,0.83-1.16,1.38-1.54c0.44-0.31,0.94-0.49,1.46-0.56
		c0.35-0.05,0.7-0.04,1.05,0.02c0.08,0.01,0.11,0.2,0.13,0.28c0.03,0.09,0.06,0.18,0.09,0.28c0.06,0.18,0.12,0.37,0.19,0.55
		c0.26,0.77,0.51,1.54,0.76,2.31c0.25,0.77,0.49,1.54,0.73,2.32c0.12,0.39,0.24,0.77,0.35,1.16c0.02,0.06,0.04,0.12,0.06,0.19
		c-0.04,0.02-0.07,0.04-0.11,0.06c-0.07,0.04-0.15,0.08-0.22,0.12c-0.15,0.08-0.3,0.16-0.45,0.23c-1.27,0.59-2.68,0.87-4.05,0.64
		c-2.58-0.44-4.6-2.62-5.81-5.06c-1.33-2.69-1.87-5.93-1.34-8.96c0.26-1.47,0.78-2.91,1.6-4.11C6.6,7.3,6.75,7.1,6.9,6.9L6.06,6.06
		c-0.3,0.35-0.59,0.72-0.84,1.1C4.77,7.85,4.4,8.59,4.1,9.38V4.1L2.68,2.68v56.84H4.1V19.71c0.06,0.18,0.13,0.37,0.19,0.55
		c1.01,2.68,2.75,5.14,5.13,6.45c1.24,0.68,2.61,1.01,4,0.95c1.38-0.06,2.74-0.49,3.98-1.17c0.09,0.33,0.19,0.65,0.28,0.98
		c0.87,3.08,1.62,6.21,2.19,9.37c0.58,3.18,1,6.4,1.25,9.63c0.01,0.06,0.01,0.13,0.02,0.19c-0.02,0.04-0.03,0.07-0.05,0.11
		c-0.04,0.07-0.07,0.14-0.11,0.21c-0.07,0.14-0.15,0.28-0.23,0.42c-0.17,0.28-0.35,0.55-0.54,0.81c-0.38,0.5-0.82,0.95-1.31,1.3
		c-0.9,0.64-1.99,0.91-3.05,0.87c-1.23-0.05-2.47-0.53-3.42-1.4c-0.99-0.9-1.69-2.24-1.69-3.68c-0.02-3.27,3.16-4.59,5.5-5.47
		c1.09-0.41,2.19-0.8,3.28-1.21c-0.19,0-0.39,0.01-0.58,0.01c-0.65,0.01-1.31,0.02-1.96,0.04c-1.01,0.02-2.02-0.1-3-0.39
		c-1.24-0.38-2.45-1.01-3.42-1.96c-0.48-0.47-0.9-1.01-1.23-1.63c-0.35-0.66-0.56-1.37-0.68-2.12c0.02,0.53,0.12,1.06,0.27,1.57
		c0.84,2.81,3.43,4.5,5.91,5.15c-0.42,0.15-0.83,0.3-1.23,0.48c-1.21,0.54-2.4,1.31-3.19,2.5C9.6,43.47,9.31,45,9.54,46.45
		c0.48,2.93,2.89,5.01,5.45,5.47c0.69,0.12,1.4,0.13,2.09,0.03c0.33,0.84,0.65,1.68,0.95,2.53c0.53,1.47,1.02,2.96,1.48,4.47
		c0.01,0.03,0.02,0.06,0.03,0.09c0,0.02-0.01,0.04-0.01,0.06c-0.01,0.04-0.01,0.08-0.02,0.11c-0.02,0.08-0.03,0.15-0.05,0.23
		c-0.01,0.02-0.01,0.05-0.02,0.07h1.1c-0.01-0.02-0.01-0.04-0.02-0.06c-0.05-0.19-0.11-0.38-0.17-0.57
		c-0.02-0.05-0.03-0.11-0.05-0.16c-0.01-0.04-0.04-0.09-0.03-0.14c0.01-0.09,0.01-0.18,0.02-0.27c0.02-0.38,0.02-0.77,0.01-1.16
		c-0.03-0.78-0.13-1.56-0.25-2.33c-0.13-0.78-0.29-1.54-0.48-2.3c-0.11-0.46-0.24-0.91-0.38-1.36c2.46-1.57,3.63-4.5,3.85-4.99
		c0.07-0.17,0.13-0.35,0.19-0.53c0.25-0.75,0.46-1.52,0.62-2.3c0.33-1.58,0.51-3.19,0.59-4.81c0.08-1.63,0.07-3.27-0.04-4.9
		C24.23,30.91,23.83,28.1,22.91,25.52z M19.28,54.13c0.14,0.77,0.26,1.54,0.32,2.32c-0.09-0.26-0.17-0.52-0.26-0.78
		c-0.44-1.32-0.92-2.62-1.42-3.9c0.15-0.04,0.29-0.09,0.44-0.14c0.11-0.05,0.21-0.1,0.31-0.15c0.03,0.12,0.07,0.23,0.1,0.35
		C18.97,52.59,19.14,53.36,19.28,54.13z M17.1,18.83c0.99,0.84,1.82,1.9,2.55,3.02c-0.32,0.52-0.69,1-1.1,1.42
		C18.08,21.77,17.59,20.3,17.1,18.83z M22.97,36.74c-0.03,1.61-0.13,3.23-0.37,4.82c-0.07-0.57-0.14-1.13-0.22-1.7
		c-0.43-3.12-1.03-6.21-1.77-9.25c0.16,0.63,0.33,1.31-0.05-0.23c-0.13-0.5-0.12-0.47-0.06-0.24c-0.3-1.18-0.61-2.35-0.95-3.52
		c-0.09-0.32-0.19-0.65-0.28-0.97c-0.02-0.08-0.05-0.15-0.07-0.23l-0.04-0.14c0.02-0.02,0.05-0.04,0.07-0.06
		c0.11-0.1,0.22-0.2,0.33-0.3c0.41-0.39,0.78-0.82,1.12-1.28c0.61,1.23,1.08,2.55,1.41,3.9c0.35,1.41,0.55,2.87,0.69,4.32
		C22.93,33.47,23,35.11,22.97,36.74z"/>
	<polygon points="0,59.52 1.42,59.52 1.42,1.42 0,0 	"/>
	<path d="M4.1,4.1h5.28C8.59,4.4,7.85,4.77,7.16,5.22c-0.38,0.25-0.75,0.54-1.1,0.84L6.9,6.9c0.2-0.15,0.4-0.3,0.6-0.44
		c1.2-0.82,2.63-1.34,4.1-1.6c3.03-0.53,6.27,0.01,8.96,1.34c2.44,1.21,4.63,3.24,5.06,5.81c0.23,1.37-0.04,2.78-0.64,4.05
		c-0.07,0.15-0.15,0.3-0.23,0.45c-0.04,0.07-0.08,0.15-0.12,0.22c-0.02,0.04-0.04,0.07-0.06,0.11c-0.06-0.02-0.12-0.04-0.19-0.06
		c-0.39-0.12-0.77-0.23-1.16-0.36c-0.77-0.24-1.55-0.48-2.32-0.73c-0.77-0.25-1.54-0.5-2.31-0.76c-0.19-0.06-0.37-0.12-0.55-0.19
		c-0.09-0.03-0.18-0.06-0.28-0.09c-0.08-0.03-0.27-0.06-0.28-0.13c-0.06-0.35-0.07-0.7-0.02-1.04c0.07-0.52,0.25-1.02,0.56-1.46
		c0.38-0.55,0.91-1.06,1.54-1.38c0.46-0.23,1.01-0.33,1.5-0.11c0.46,0.21,0.76,0.61,0.88,1.05c0.14,0.52,0.09,1.08-0.01,1.6
		c-0.1,0.54-0.25,1.08-0.37,1.62c0.23-0.67,0.5-1.33,0.65-2.02c0.14-0.65,0.16-1.36-0.21-1.95c-0.36-0.57-1.04-0.94-1.76-0.9
		c-0.72,0.03-1.39,0.39-1.93,0.8c-0.56,0.43-1.06,0.97-1.36,1.59c-0.3,0.61-0.45,1.26-0.43,1.92c-1.17-0.4-2.33-0.8-3.49-1.2
		l3.15,3.15c0.28,0.1,0.56,0.2,0.84,0.29c0.05,0.02,0.09,0.03,0.14,0.05c0.02,0.04,0.04,0.07,0.06,0.11
		c0.04,0.08,0.08,0.15,0.13,0.22c0.09,0.16,0.19,0.31,0.3,0.46c0.78,1.13,1.82,2.09,2.95,2.93c-0.08,0.03-0.17,0.06-0.25,0.09
		l1.39,1.39c0.06-0.03,0.12-0.05,0.18-0.08c0.08-0.04,0.16-0.08,0.24-0.12c0.07-0.03,0.18-0.13,0.26-0.09
		c0.33,0.19,0.67,0.38,1.01,0.55c0.67,0.34,1.37,0.63,2.08,0.89c2.58,0.92,5.39,1.32,8.14,1.5c1.63,0.11,3.27,0.12,4.9,0.04
		c1.62-0.08,3.23-0.25,4.81-0.59c0.78-0.16,1.55-0.37,2.3-0.62c0.18-0.06,0.35-0.12,0.53-0.19c0.49-0.21,3.42-1.39,4.99-3.85
		c0.45,0.14,0.91,0.26,1.36,0.38c0.76,0.19,1.52,0.35,2.3,0.48c0.77,0.13,1.55,0.22,2.33,0.25c0.39,0.02,0.77,0.02,1.16-0.01
		c0.09,0,0.18-0.01,0.27-0.02c0.04,0,0.09,0.02,0.14,0.03c0.05,0.02,0.11,0.03,0.16,0.05c0.19,0.06,0.38,0.11,0.57,0.17
		c0.04,0.01,0.09,0.02,0.13,0.04v-1.14c-0.05,0.01-0.1,0.03-0.15,0.04c-0.07,0.02-0.15,0.03-0.23,0.05
		c-0.04,0.01-0.08,0.02-0.11,0.02c-0.02,0-0.04,0.01-0.06,0.01c-0.03-0.01-0.06-0.02-0.09-0.03c-1.51-0.46-3-0.96-4.47-1.48
		c-0.85-0.31-1.7-0.62-2.53-0.95c0.1-0.69,0.09-1.39-0.03-2.09c-0.46-2.57-2.54-4.98-5.47-5.45C45,9.31,43.47,9.6,42.28,10.38
		c-1.19,0.78-1.96,1.98-2.5,3.19c-0.18,0.41-0.34,0.82-0.48,1.23c-0.65-2.48-2.34-5.07-5.15-5.91c-0.51-0.15-1.03-0.24-1.57-0.27
		c0.75,0.12,1.46,0.33,2.12,0.68c0.61,0.33,1.16,0.74,1.63,1.23c0.94,0.97,1.58,2.18,1.96,3.42c0.29,0.98,0.41,1.98,0.39,3
		c-0.01,0.65-0.02,1.31-0.04,1.96c0,0.19-0.01,0.38-0.01,0.58c0.4-1.09,0.8-2.19,1.21-3.28c0.87-2.33,2.2-5.51,5.47-5.5
		c1.44,0.01,2.78,0.7,3.68,1.69c0.87,0.96,1.35,2.19,1.4,3.42c0.04,1.06-0.23,2.15-0.87,3.05c-0.35,0.5-0.8,0.94-1.3,1.31
		c-0.26,0.19-0.53,0.37-0.81,0.54c-0.14,0.08-0.28,0.16-0.42,0.23c-0.07,0.04-0.14,0.07-0.21,0.11c-0.04,0.02-0.07,0.04-0.11,0.05
		c-0.06,0-0.13-0.01-0.19-0.02c-3.23-0.25-6.45-0.67-9.63-1.25c-3.17-0.57-6.29-1.32-9.37-2.19c-0.33-0.09-0.65-0.18-0.98-0.28
		c0.68-1.23,1.11-2.59,1.17-3.98c0.06-1.38-0.26-2.76-0.95-4c-1.31-2.38-3.77-4.13-6.45-5.13c-0.18-0.07-0.36-0.13-0.55-0.19h39.89
		V2.68H2.68L4.1,4.1z M21.84,19.65c-1.12-0.73-2.17-1.56-3.02-2.55c1.47,0.5,2.95,0.98,4.43,1.45
		C22.84,18.96,22.36,19.33,21.84,19.65z M51.64,18.36c0.05-0.14,0.1-0.29,0.14-0.44c1.28,0.5,2.58,0.98,3.9,1.42
		c0.26,0.09,0.52,0.17,0.78,0.26c-0.78-0.06-1.55-0.18-2.32-0.32c-0.77-0.14-1.54-0.31-2.29-0.52c-0.12-0.03-0.23-0.06-0.35-0.1
		C51.54,18.57,51.59,18.46,51.64,18.36z M26.61,19.54c1.17,0.33,2.34,0.65,3.52,0.95c-0.23-0.05-0.26-0.06,0.24,0.06
		c1.54,0.38,0.87,0.21,0.23,0.05c3.04,0.74,6.13,1.35,9.25,1.77c0.57,0.08,1.13,0.15,1.7,0.22c-1.59,0.24-3.21,0.35-4.82,0.37
		c-1.63,0.03-3.26-0.04-4.89-0.19c-1.45-0.14-2.91-0.34-4.32-0.69c-1.36-0.33-2.67-0.8-3.9-1.41c0.46-0.34,0.89-0.71,1.28-1.12
		c0.1-0.11,0.2-0.22,0.3-0.33c0.02-0.02,0.04-0.05,0.06-0.07l0.14,0.04c0.08,0.02,0.15,0.05,0.23,0.07
		C25.96,19.36,26.29,19.45,26.61,19.54z"/>
	<polygon points="0,0 1.42,1.42 59.59,1.42 59.59,0 	"/>
</g>
</svg>
