<?xml version="1.0" encoding="utf-8"?>
<!-- Generator: Adobe Illustrator 23.0.3, SVG Export Plug-In . SVG Version: 6.00 Build 0)  -->
<svg version="1.1" id="Layer_1" xmlns="http://www.w3.org/2000/svg" xmlns:xlink="http://www.w3.org/1999/xlink" x="0px" y="0px"
	 viewBox="0 0 69.72 69.72" style="enable-background:new 0 0 69.72 69.72;" xml:space="preserve">
<g>
	<path d="M22.01,9.95c-0.98,2.86-1.42,5.77-1.22,8.76c0.06,0.84,0.16,1.64,0.3,2.38c-0.74-0.14-1.54-0.23-2.38-0.3
		c-2.99-0.2-5.9,0.25-8.76,1.22c-0.51-0.49-1.23-0.8-2.02-0.8c-0.48,0-0.93,0.11-1.32,0.31l3.67,3.67c0.17-0.25,0.3-0.52,0.37-0.82
		c0.09,0,0.18-0.01,0.28-0.01c3.26,0.02,6.25,1.61,9,4.27c-0.26,0.35-0.41,0.8-0.41,1.29c0,1,0.64,1.82,1.48,1.99
		c0.82,0.3,1.63,0.37,2.37,0.26c1.03,0.89,2.09,1.58,3.21,2.08c-0.02,0.13-0.03,0.26-0.03,0.39c0,1.34,1.18,2.43,2.63,2.43
		c1.45,0,2.63-1.09,2.63-2.43c0-0.13-0.01-0.27-0.03-0.39c0.54-0.24,1.08-0.54,1.6-0.87c0.34-0.52,0.63-1.06,0.87-1.6
		c0.13,0.02,0.26,0.03,0.39,0.03c1.34,0,2.43-1.18,2.43-2.63c0-1.45-1.09-2.63-2.43-2.63c-0.13,0-0.27,0.01-0.39,0.03
		c-0.5-1.12-1.19-2.18-2.08-3.21c0.11-0.75,0.04-1.56-0.26-2.37c-0.17-0.84-0.99-1.48-1.99-1.48c-0.49,0-0.94,0.16-1.29,0.41
		c-2.66-2.75-4.25-5.74-4.27-9c0-0.09,0.01-0.19,0.01-0.28c0.3-0.07,0.57-0.2,0.82-0.37l-3.67-3.67c-0.2,0.39-0.31,0.84-0.31,1.32
		C21.21,8.72,21.52,9.44,22.01,9.95z M31.53,25.07c0.56,0.73,1.05,1.45,1.47,2.17c-0.49,0.48-0.79,1.17-0.79,1.94
		c0,0.77,0.3,1.46,0.79,1.94c-0.22,0.38-0.47,0.76-0.73,1.15c-0.38,0.26-0.77,0.51-1.15,0.73c-0.48-0.49-1.17-0.79-1.94-0.79
		c-0.77,0-1.46,0.3-1.94,0.79c-0.72-0.42-1.44-0.91-2.17-1.47c1.3-0.84,2.15-2.39,2.13-4.33C29.14,27.23,30.69,26.37,31.53,25.07z
		 M23.79,10.72c0.04,0,0.07,0,0.11,0c-0.01,0.06-0.01,0.11-0.01,0.17c-0.24,3.53,1.37,6.85,4.05,10.05
		c-0.03,0.12-0.05,0.25-0.05,0.38c0,0.99,0.89,1.79,2,1.8c0.08,0.09,0.15,0.17,0.23,0.26c-0.06,1.74-1.45,2.62-3.57,2.73
		c-0.16,0.01-0.31,0.01-0.45,0c0.01,0.15,0.01,0.3,0,0.45c-0.11,2.12-0.98,3.52-2.73,3.57c-0.09-0.08-0.17-0.15-0.26-0.23
		c-0.01-1.11-0.81-2-1.8-2c-0.13,0-0.26,0.02-0.38,0.05c-3.2-2.68-6.52-4.29-10.05-4.05c-0.06,0-0.11,0.01-0.17,0.01
		c0-0.04,0-0.07,0-0.11c0-0.15-0.01-0.3-0.04-0.44c2.56-1.03,5.2-1.58,7.94-1.6c1.36,0.04,2.57,0.19,3.59,0.46
		c-0.27-1.03-0.42-2.23-0.46-3.59c0.02-2.74,0.58-5.38,1.6-7.94C23.5,10.71,23.64,10.72,23.79,10.72z"/>
	<path d="M65.34,6.3c-0.79,0-1.51,0.31-2.02,0.8c-2.85-0.98-5.77-1.42-8.76-1.22c-4.86,0.35-8.12,1.85-8.47,5.92
		c-0.19,2.17,0.71,3.91,2.11,4.81c-0.73,0.56-1.45,1.05-2.17,1.47c-0.48-0.49-1.17-0.79-1.94-0.79c-0.77,0-1.46,0.3-1.94,0.79
		c-0.72-0.42-1.44-0.91-2.17-1.47c1.4-0.91,2.3-2.64,2.11-4.81c-0.35-4.07-3.61-5.57-8.48-5.92c-2.99-0.2-5.9,0.25-8.76,1.22
		c-0.51-0.49-1.23-0.8-2.02-0.8c-0.48,0-0.93,0.11-1.32,0.31l3.67,3.67c0.17-0.25,0.3-0.52,0.37-0.82c0.09,0,0.18-0.01,0.28-0.01
		c3.26,0.02,6.25,1.61,9,4.27c-0.26,0.35-0.41,0.8-0.41,1.29c0,1,0.64,1.82,1.48,1.99c0.82,0.3,1.63,0.37,2.38,0.26
		c1.03,0.89,2.09,1.58,3.21,2.08c-0.02,0.13-0.03,0.26-0.03,0.39c0,1.34,1.18,2.43,2.63,2.43c1.45,0,2.63-1.09,2.63-2.43
		c0-0.13-0.01-0.27-0.03-0.39c1.12-0.5,2.18-1.19,3.21-2.08c0.75,0.11,1.56,0.04,2.38-0.26c0.84-0.17,1.48-0.99,1.48-1.99
		c0-0.49-0.16-0.94-0.41-1.29c2.75-2.66,5.74-4.25,9-4.27c0.09,0,0.19,0.01,0.28,0.01c0.28,1.15,1.39,2.01,2.72,2.01
		c1.21,0,2.23-0.71,2.62-1.7l1.76-0.02V8.12h-1.71C67.66,7.07,66.6,6.3,65.34,6.3z M38.28,15.22c-0.09-0.08-0.17-0.15-0.26-0.23
		c-0.01-1.11-0.81-2-1.8-2c-0.13,0-0.26,0.02-0.38,0.05c-3.2-2.68-6.52-4.29-10.05-4.05c-0.06,0-0.11,0.01-0.17,0.01
		c0-0.04,0-0.07,0-0.11c0-0.15-0.01-0.3-0.04-0.44c2.56-1.03,5.2-1.58,7.94-1.6c4.76,0.13,7.65,1.67,7.48,4.8
		C40.89,13.77,40.02,15.16,38.28,15.22z M62.55,9c-0.06-0.01-0.11-0.01-0.17-0.01c-3.53-0.24-6.85,1.37-10.05,4.05
		c-0.12-0.03-0.25-0.05-0.38-0.05c-0.99,0-1.79,0.89-1.8,2c-0.09,0.08-0.17,0.15-0.26,0.23c-1.74-0.06-2.62-1.45-2.73-3.57
		c-0.17-3.13,2.73-4.68,7.48-4.8c2.74,0.02,5.38,0.58,7.94,1.6c-0.03,0.14-0.04,0.29-0.04,0.44C62.55,8.92,62.55,8.96,62.55,9z"/>
	<polygon points="14.91,0 14.91,14.91 0,14.91 0,69.72 0.98,69.72 0.98,15.88 15.88,15.88 15.88,0.98 69.72,0.98 69.72,0 	"/>
	<polygon points="18.92,18.92 4.02,18.92 4.02,69.72 4.99,69.72 4.99,19.9 19.9,19.9 19.9,4.99 69.72,4.99 69.72,4.02 18.92,4.02 	
		"/>
	<path d="M7.1,24.85c-0.98,2.85-1.42,5.77-1.22,8.76c0.35,4.86,1.85,8.12,5.92,8.48c2.17,0.19,3.91-0.71,4.81-2.11
		c0.56,0.73,1.05,1.45,1.47,2.17c-0.49,0.48-0.79,1.17-0.79,1.94c0,0.77,0.3,1.46,0.79,1.94c-0.42,0.72-0.91,1.44-1.47,2.17
		c-0.91-1.4-2.64-2.3-4.81-2.11c-4.07,0.35-5.57,3.61-5.92,8.48c-0.2,2.99,0.25,5.9,1.22,8.76c-0.49,0.51-0.8,1.23-0.8,2.02
		c0,1.26,0.77,2.32,1.82,2.67v1.71h1.63l0.02-1.76c0.99-0.39,1.7-1.41,1.7-2.62c0-1.33-0.86-2.44-2.01-2.72
		c0-0.09-0.01-0.18-0.01-0.28c0.02-3.26,1.61-6.25,4.27-9c0.35,0.26,0.8,0.41,1.29,0.41c1,0,1.82-0.64,1.99-1.48
		c0.3-0.82,0.37-1.63,0.26-2.38c0.89-1.03,1.58-2.09,2.08-3.21c0.13,0.02,0.26,0.03,0.39,0.03c1.34,0,2.43-1.18,2.43-2.63
		c0-1.45-1.09-2.63-2.43-2.63c-0.13,0-0.27,0.01-0.39,0.03c-0.5-1.12-1.19-2.18-2.08-3.21c0.11-0.75,0.04-1.56-0.26-2.38
		c-0.17-0.84-0.99-1.48-1.99-1.48c-0.49,0-0.94,0.16-1.29,0.41c-2.66-2.75-4.25-5.74-4.27-9c0-0.09,0.01-0.19,0.01-0.28
		c0.3-0.07,0.57-0.2,0.82-0.37l-3.67-3.67c-0.2,0.39-0.31,0.84-0.31,1.32C6.3,23.63,6.61,24.35,7.1,24.85z M14.99,50.15
		c-1.11,0.01-2,0.81-2,1.8c0,0.13,0.02,0.26,0.05,0.38c-2.68,3.2-4.29,6.52-4.05,10.05c0,0.06,0.01,0.11,0.01,0.17
		c-0.04,0-0.07,0-0.11,0c-0.15,0-0.3,0.01-0.44,0.04c-1.02-2.56-1.58-5.2-1.6-7.94c0.13-4.75,1.67-7.65,4.8-7.48
		c2.12,0.11,3.52,0.98,3.57,2.73C15.14,49.98,15.07,50.07,14.99,50.15z M8.89,25.63c0.04,0,0.07,0,0.11,0
		c-0.01,0.06-0.01,0.11-0.01,0.17c-0.24,3.53,1.37,6.85,4.05,10.05c-0.03,0.12-0.05,0.25-0.05,0.38c0,0.99,0.89,1.79,2,1.8
		c0.08,0.09,0.15,0.17,0.23,0.26c-0.06,1.74-1.45,2.62-3.57,2.73c-3.13,0.17-4.68-2.73-4.8-7.48c0.02-2.74,0.58-5.38,1.6-7.94
		C8.59,25.61,8.74,25.63,8.89,25.63z"/>
</g>
</svg>
