<?xml version="1.0" encoding="utf-8"?>
<!-- Generator: Adobe Illustrator 23.0.3, SVG Export Plug-In . SVG Version: 6.00 Build 0)  -->
<svg version="1.1" id="Layer_1" xmlns="http://www.w3.org/2000/svg" xmlns:xlink="http://www.w3.org/1999/xlink" x="0px" y="0px"
	 viewBox="0 0 61.92 61.65" style="enable-background:new 0 0 61.92 61.65;" xml:space="preserve">
<g>
	<path d="M61.22,2.78c-0.64-1.16-1.7-2.1-3.03-2.55C57.66,0.05,57.06-0.02,56.48,0c0,0,0,0.01,0.01,0.01
		c1.74,0.14,4.07,2.34,2.26,3.19c-0.97,0.55-2.29,0.2-3.24,0.84c-0.73,0.49-1.12,1.62-0.57,2.36c-0.63-0.79-0.74,1.21-0.75,1.44
		c-0.04,1.07-0.68,2.55-1.88,2.94c0.57-0.32,1.51-1.39,1.13-2.03c-0.03,0.05-0.08,0.1-0.13,0.16c0.41-0.81-0.17-2.63-1.1-2.82
		c0.13,0.45-0.64,0.52-0.96,0.7C50.7,7.07,50.14,7.61,50,8.21C49.95,7.92,49.61,8,49.34,8.17c-0.46,0.29-1.06,1-1.37,1.43
		c0.38-0.78-1.25,0.04-1.45,0.14c-0.86,0.41-1.82,0.55-2.76,0.7c-0.87,0.13-1.76,0.15-2.64,0.1c-0.51-0.02-1.09-0.24-1.6-0.27
		c-0.88-0.32-1.74-0.65-2.6-1c0.27,0.05,0.54,0.1,0.82,0.14c1.9,0.29,3.91,0.3,5.85-0.01c1.78-0.28,3.58-0.85,5.03-1.76
		c1.36-0.85,2.43-2.08,2.34-3.38c-0.05-0.73-0.49-1.35-1.22-1.69c-0.36-0.17-0.78-0.25-1.2-0.15c-0.18,0.04-0.33,0.12-0.47,0.22
		c2.01-0.68,1.15,2.1-0.18,2.16c-0.87,0.08-3.84-0.21-3.36,1.23c-0.51-0.32-0.7,0.43-0.85,0.69c-0.16,0.28-0.34,0.5-0.55,0.69
		c0.29-0.39,0.34-0.85,0.23-1.34c-0.13,0.13-0.69,0.12-0.99,0.24c-0.55,0.23-0.88,0.71-1.07,1.13c-0.19-0.76-1.15,0.44-1.42,0.61
		C39.78,7.73,38.42,8,37.48,8.15c0.27-0.3,0.43-0.68,0.43-1.1c0-0.97-0.85-1.76-1.9-1.76c-1.05,0-1.9,0.79-1.9,1.76
		c0,0.43,0.17,0.82,0.45,1.12c-0.94-0.15-2.42-0.45-2.51-0.09c-0.27-0.18-1.23-1.37-1.42-0.61c-0.19-0.42-0.52-0.9-1.07-1.13
		c-0.3-0.12-0.86-0.12-0.98-0.24c-0.11,0.49-0.06,0.96,0.23,1.34c-0.21-0.19-0.39-0.41-0.55-0.69c-0.14-0.26-0.33-1.01-0.84-0.69
		c0.11-0.32,0.03-0.55-0.14-0.72c-0.17,0.17-0.25,0.4-0.14,0.72c-0.51-0.32-0.7,0.43-0.85,0.69c-0.16,0.28-0.34,0.5-0.55,0.69
		c0.29-0.39,0.34-0.85,0.23-1.34c-0.13,0.13-0.69,0.12-0.99,0.24c-0.55,0.23-0.88,0.71-1.07,1.13C23.7,6.7,22.74,7.9,22.46,8.07
		c-0.09-0.36-1.57-0.05-2.51,0.09c0.28-0.3,0.45-0.69,0.45-1.12c0-0.97-0.85-1.76-1.9-1.76c-1.05,0-1.9,0.79-1.9,1.76
		c0,0.42,0.17,0.8,0.43,1.1c-0.94-0.15-2.3-0.42-2.39-0.08C14.36,7.9,13.4,6.7,13.21,7.46c-0.19-0.42-0.52-0.9-1.07-1.13
		c-0.3-0.12-0.86-0.12-0.99-0.24c-0.11,0.49-0.06,0.96,0.23,1.34c-0.21-0.19-0.39-0.41-0.55-0.69c-0.14-0.26-0.33-1.01-0.85-0.69
		c0.47-1.44-2.49-1.15-3.36-1.23C6.46,4.81,6.31,4.76,6.16,4.68C6.38,4.25,6.5,3.77,6.5,3.25C6.5,1.45,5.04,0,3.25,0
		C1.45,0,0,1.45,0,3.25C0,5.04,1.45,6.5,3.25,6.5c0.65,0,1.25-0.19,1.76-0.52C5.06,6.09,5.09,6.22,5.1,6.34
		c0.08,0.87-0.2,3.84,1.23,3.36c-0.32,0.51,0.43,0.7,0.69,0.85c0.28,0.16,0.5,0.34,0.69,0.55c-0.39-0.29-0.85-0.34-1.34-0.23
		c0.13,0.13,0.12,0.69,0.24,0.99c0.23,0.55,0.71,0.88,1.13,1.07c-0.76,0.19,0.44,1.15,0.61,1.42c-0.35,0.09-0.08,1.45,0.08,2.39
		c-0.3-0.27-0.68-0.43-1.1-0.43c-0.97,0-1.76,0.85-1.76,1.9c0,1.05,0.79,1.9,1.76,1.9c0.43,0,0.82-0.17,1.12-0.45
		c-0.15,0.94-0.45,2.42-0.09,2.51c-0.18,0.27-1.37,1.23-0.61,1.42c-0.42,0.19-0.9,0.52-1.13,1.07c-0.12,0.3-0.12,0.86-0.24,0.99
		c0.49,0.1,0.96,0.06,1.34-0.23c-0.19,0.21-0.41,0.39-0.69,0.55c-0.26,0.14-1.01,0.33-0.69,0.84c-0.32-0.11-0.55-0.03-0.72,0.14
		c0.17,0.17,0.4,0.25,0.72,0.14c-0.32,0.51,0.43,0.7,0.69,0.85c0.28,0.16,0.5,0.34,0.69,0.55c-0.39-0.29-0.85-0.34-1.34-0.23
		c0.13,0.13,0.12,0.69,0.24,0.99c0.23,0.55,0.71,0.88,1.13,1.07c-0.76,0.19,0.44,1.15,0.61,1.42c-0.36,0.09-0.05,1.57,0.09,2.51
		c-0.3-0.28-0.69-0.45-1.12-0.45c-0.97,0-1.76,0.85-1.76,1.9c0,1.05,0.79,1.9,1.76,1.9c0.42,0,0.8-0.17,1.1-0.43
		c-0.15,0.94-0.42,2.3-0.08,2.39c-0.18,0.27-1.37,1.23-0.61,1.42c-0.42,0.19-0.9,0.52-1.13,1.07c-0.12,0.3-0.12,0.86-0.24,0.99
		c0.49,0.11,0.96,0.06,1.34-0.23c-0.19,0.21-0.41,0.39-0.69,0.55c-0.26,0.14-1.01,0.33-0.69,0.85c-1.44-0.47-1.15,2.49-1.23,3.36
		c-0.06,1.33-2.84,2.19-2.16,0.18c-0.1,0.13-0.18,0.29-0.22,0.47c-0.1,0.41-0.02,0.83,0.15,1.2c0.34,0.73,0.95,1.17,1.69,1.22
		c1.3,0.09,2.53-0.97,3.38-2.34c0.91-1.45,1.49-3.25,1.76-5.03c0.3-1.94,0.29-3.95,0.01-5.85c-0.04-0.28-0.09-0.55-0.14-0.82
		c0.35,0.86,0.68,1.72,1,2.6c0.03,0.52,0.24,1.1,0.27,1.6c0.05,0.88,0.03,1.77-0.1,2.64c-0.15,0.94-0.29,1.9-0.7,2.76
		c-0.1,0.2-0.92,1.83-0.14,1.45C9.46,48,8.75,48.6,8.45,49.06c-0.17,0.27-0.26,0.61,0.03,0.66c-0.59,0.14-1.13,0.7-1.43,1.23
		c-0.18,0.32-0.25,1.09-0.7,0.96c0.19,0.93,2.02,1.52,2.82,1.1c-0.06,0.05-0.11,0.09-0.16,0.13c0.64,0.39,1.71-0.56,2.03-1.13
		c-0.38,1.2-1.87,1.84-2.94,1.88c-0.23,0.01-2.24,0.13-1.45,0.75c-0.74-0.55-1.87-0.15-2.36,0.58c-0.64,0.95-0.29,2.27-0.84,3.24
		c-0.84,1.81-3.04-0.52-3.19-2.26c0,0-0.01,0-0.01-0.01c-0.02,0.59,0.05,1.18,0.23,1.71c0.45,1.33,1.39,2.39,2.55,3.03
		c1.22,0.67,2.58,0.89,3.91,0.54c1.36-0.36,2.59-1.2,3.54-2.29c2.23-2.53,3-6.28,2.96-9.68c-0.05-3.8-1.08-7.49-2.41-10.99
		c-0.09-0.23-0.18-0.46-0.26-0.69c0.73,1.19,1.94,2.19,2.95,2.71c1.3,0.68,3.11,1.03,4.36,0.06c0.49-0.38,1.17-0.93,1.27-1.63
		c0.04-0.24-0.16-1.05-0.47-0.73c0.21,0.07,0.24,0.29,0.06,0.44c-0.21,0.18-0.63,0.02-0.84-0.09c-0.4-0.21-0.67-0.51-1.15-0.53
		c-0.33-0.01-0.86,0.1-1.1,0.41c-0.04-0.12-0.53-0.08-0.63-0.05c-0.41,0.1-0.73,0.38-1.12,0.53c-0.74,0.29-1.63,0.19-2.24-0.37
		c0.54,0.15,0.83,0.35,1.41,0.2c-0.06-0.01-0.13-0.03-0.19-0.03c0.16-0.12,0.41-0.16,0.58-0.33c0.18-0.17,0.3-0.39,0.43-0.58
		c-0.32,0-0.47-0.27-0.72-0.44c-0.21-0.15-0.44-0.24-0.7-0.25c-0.22-0.01-0.46,0.13-0.65,0.08c0.6-0.43-0.86-0.51-1.11-0.67
		c-0.35-0.22-0.56-0.53-0.7-0.9c0.14-0.37,0.35-0.68,0.7-0.9c0.25-0.16,1.71-0.24,1.11-0.67c0.19-0.05,0.43,0.09,0.65,0.08
		c0.25-0.01,0.48-0.1,0.7-0.25c0.26-0.18,0.4-0.45,0.72-0.44c-0.14-0.19-0.25-0.42-0.43-0.58c-0.18-0.16-0.42-0.21-0.58-0.33
		c0.06,0,0.13-0.03,0.19-0.04c-0.57-0.16-0.87,0.05-1.41,0.2c0.61-0.56,1.5-0.66,2.24-0.37c0.39,0.15,0.71,0.44,1.12,0.53
		c0.09,0.02,0.59,0.06,0.63-0.05c0.24,0.31,0.76,0.42,1.1,0.41c0.48-0.02,0.75-0.32,1.15-0.53c0.2-0.11,0.63-0.27,0.84-0.09
		c0.18,0.15,0.15,0.37-0.06,0.44c0.31,0.32,0.51-0.48,0.47-0.73c-0.1-0.69-0.79-1.25-1.27-1.63c-1.25-0.97-3.06-0.62-4.36,0.06
		c-1.01,0.53-2.22,1.53-2.95,2.71c0.09-0.23,0.18-0.46,0.26-0.69c0.72-1.9,1.35-3.86,1.78-5.86c-0.44-2-1.06-3.96-1.78-5.86
		c-0.09-0.23-0.18-0.46-0.26-0.69c0.73,1.19,1.94,2.19,2.95,2.71c1.3,0.68,3.11,1.02,4.36,0.06c0.49-0.38,1.17-0.93,1.27-1.63
		c0.04-0.24-0.16-1.05-0.47-0.73c0.21,0.07,0.24,0.29,0.06,0.44c-0.21,0.18-0.63,0.02-0.84-0.09c-0.4-0.21-0.67-0.51-1.15-0.53
		c-0.33-0.01-0.86,0.1-1.1,0.41c-0.04-0.12-0.53-0.08-0.63-0.06c-0.41,0.1-0.73,0.38-1.12,0.54c-0.74,0.29-1.63,0.19-2.24-0.37
		c0.54,0.15,0.83,0.35,1.41,0.2c-0.06-0.01-0.13-0.03-0.19-0.03c0.16-0.12,0.41-0.16,0.58-0.33c0.18-0.17,0.3-0.39,0.43-0.58
		c-0.32,0.01-0.47-0.27-0.72-0.44c-0.21-0.15-0.44-0.24-0.7-0.25c-0.22-0.01-0.46,0.13-0.65,0.08c0.6-0.43-0.86-0.51-1.11-0.67
		c-0.35-0.22-0.56-0.53-0.7-0.9c0.14-0.37,0.35-0.68,0.7-0.9c0.25-0.16,1.71-0.24,1.11-0.67c0.19-0.05,0.43,0.09,0.65,0.08
		c0.25-0.01,0.48-0.1,0.7-0.25c0.26-0.18,0.4-0.45,0.72-0.44c-0.14-0.19-0.25-0.42-0.43-0.58c-0.18-0.16-0.42-0.21-0.58-0.33
		c0.06,0,0.13-0.03,0.19-0.04c-0.57-0.15-0.87,0.05-1.41,0.2c0.61-0.57,1.5-0.66,2.24-0.37c0.39,0.15,0.71,0.44,1.12,0.53
		c0.07,0.02,0.37,0.04,0.53,0.01c0.04-0.16,0.01-0.46-0.01-0.53c-0.1-0.41-0.38-0.73-0.53-1.12c-0.29-0.74-0.19-1.63,0.37-2.24
		c-0.15,0.54-0.35,0.83-0.2,1.41c0.01-0.06,0.03-0.13,0.04-0.19c0.12,0.17,0.16,0.41,0.33,0.58c0.17,0.18,0.39,0.3,0.58,0.43
		c-0.01-0.32,0.27-0.47,0.44-0.72c0.15-0.21,0.24-0.44,0.25-0.7c0.01-0.22-0.13-0.46-0.08-0.65c0.43,0.6,0.51-0.86,0.67-1.11
		c0.22-0.35,0.53-0.56,0.9-0.7c0.37,0.14,0.68,0.35,0.9,0.7c0.15,0.25,0.24,1.71,0.67,1.11c0.05,0.19-0.09,0.43-0.08,0.65
		c0.01,0.25,0.1,0.48,0.25,0.7c0.18,0.26,0.45,0.4,0.44,0.72c0.19-0.14,0.42-0.25,0.58-0.43c0.16-0.18,0.21-0.42,0.33-0.58
		c0,0.06,0.03,0.13,0.04,0.19c0.16-0.57-0.05-0.87-0.2-1.41c0.56,0.61,0.66,1.5,0.37,2.24c-0.15,0.39-0.44,0.71-0.53,1.12
		c-0.02,0.09-0.06,0.59,0.05,0.63c-0.31,0.24-0.42,0.76-0.41,1.1c0.02,0.48,0.32,0.75,0.53,1.15c0.11,0.2,0.27,0.63,0.09,0.84
		c-0.15,0.18-0.37,0.15-0.44-0.06c-0.32,0.31,0.48,0.51,0.73,0.47c0.69-0.1,1.25-0.79,1.63-1.27c0.97-1.25,0.62-3.06-0.06-4.36
		c-0.53-1.01-1.53-2.22-2.71-2.95c0.23,0.09,0.46,0.18,0.69,0.26c1.9,0.72,3.86,1.35,5.86,1.78c2-0.44,3.96-1.06,5.86-1.78
		c0.23-0.09,0.46-0.18,0.69-0.26c-1.19,0.73-2.19,1.94-2.71,2.95c-0.68,1.3-1.02,3.11-0.06,4.36c0.38,0.49,0.93,1.17,1.63,1.27
		c0.24,0.04,1.05-0.16,0.73-0.47c-0.07,0.21-0.29,0.24-0.44,0.06c-0.18-0.21-0.02-0.63,0.09-0.84c0.21-0.4,0.51-0.67,0.53-1.15
		c0.01-0.33-0.1-0.86-0.41-1.1c0.12-0.04,0.08-0.53,0.05-0.63c-0.1-0.41-0.38-0.73-0.53-1.12c-0.29-0.74-0.19-1.63,0.37-2.24
		c-0.15,0.54-0.35,0.83-0.2,1.41c0.01-0.06,0.03-0.13,0.04-0.19c0.12,0.17,0.16,0.41,0.33,0.58c0.17,0.18,0.39,0.3,0.58,0.43
		c-0.01-0.32,0.27-0.47,0.44-0.72c0.15-0.21,0.24-0.44,0.25-0.7c0.01-0.22-0.13-0.46-0.08-0.65c0.43,0.6,0.51-0.86,0.67-1.11
		c0.22-0.35,0.53-0.56,0.9-0.7c0.37,0.14,0.68,0.35,0.9,0.7c0.15,0.25,0.24,1.71,0.67,1.11c0.05,0.19-0.09,0.43-0.08,0.65
		c0.01,0.25,0.1,0.48,0.25,0.7c0.18,0.26,0.45,0.4,0.44,0.72c0.19-0.14,0.42-0.25,0.58-0.43c0.16-0.18,0.21-0.42,0.33-0.58
		c0,0.06,0.03,0.13,0.04,0.19c0.15-0.57-0.05-0.87-0.2-1.41c0.57,0.61,0.66,1.5,0.37,2.24c-0.15,0.39-0.44,0.71-0.53,1.12
		c-0.02,0.09-0.06,0.59,0.05,0.63c-0.31,0.24-0.42,0.76-0.41,1.1c0.02,0.48,0.32,0.75,0.53,1.15c0.11,0.2,0.27,0.63,0.09,0.84
		c-0.15,0.18-0.37,0.15-0.44-0.06c-0.32,0.31,0.48,0.51,0.73,0.47c0.69-0.1,1.25-0.79,1.63-1.27c0.97-1.25,0.62-3.06-0.06-4.36
		c-0.53-1.01-1.53-2.22-2.71-2.95c0.23,0.09,0.46,0.18,0.69,0.26c3.5,1.33,7.19,2.36,10.99,2.41c3.4,0.04,7.15-0.73,9.68-2.96
		c1.09-0.96,1.93-2.19,2.29-3.54C62.11,5.36,61.88,4,61.22,2.78z M10.17,36.09c0.01,0.08,0.02,0.17,0.04,0.25
		c-0.09-0.22-0.19-0.44-0.29-0.67c0.1-0.22,0.19-0.44,0.29-0.67c-0.02,0.08-0.03,0.17-0.04,0.25l0,0.41L10.17,36.09z M10.55,21.82
		c0.03,0.52,0.24,1.1,0.27,1.6c0.05,0.88,0.03,1.77-0.1,2.64c-0.05,0.3-0.1,0.6-0.15,0.9c0.05,0.3,0.1,0.6,0.15,0.9
		c0.13,0.87,0.15,1.76,0.1,2.64c-0.02,0.51-0.24,1.09-0.27,1.6c-0.32,0.87-0.65,1.74-1,2.6c0.05-0.27,0.1-0.54,0.14-0.82
		c0.29-1.9,0.3-3.91-0.01-5.85c-0.06-0.36-0.13-0.72-0.21-1.08c0.08-0.36,0.16-0.72,0.21-1.08c0.3-1.93,0.29-3.95,0.01-5.85
		c-0.04-0.28-0.09-0.55-0.14-0.82C9.9,20.08,10.24,20.95,10.55,21.82z M10.17,18.68c0.01,0.08,0.02,0.17,0.04,0.25
		c-0.09-0.22-0.19-0.44-0.29-0.67c0.1-0.22,0.19-0.44,0.29-0.67c-0.02,0.08-0.03,0.17-0.04,0.25l0,0.42L10.17,18.68z M13.7,13.42
		c-1,0.53-2.18,1.52-2.9,2.68c0.09-0.23,0.18-0.46,0.26-0.69c0.43-1.13,0.82-2.29,1.17-3.46c1.17-0.35,2.33-0.74,3.46-1.17
		c0.23-0.09,0.46-0.18,0.69-0.26C15.22,11.25,14.24,12.43,13.7,13.42z M14.99,10.28c-0.52,0.03-1.1,0.24-1.6,0.27
		c-0.88,0.05-1.77,0.03-2.64-0.1c-0.01,0-0.02,0-0.03-0.01c0,0.01,0,0.02,0.01,0.03c0.13,0.87,0.15,1.76,0.1,2.64
		c-0.02,0.51-0.24,1.09-0.27,1.6c-0.32,0.88-0.65,1.74-1,2.6c0.05-0.27,0.1-0.54,0.14-0.82c0.29-1.9,0.3-3.91-0.01-5.85
		c-0.08-0.52-0.2-1.05-0.33-1.56c0.52,0.13,1.04,0.25,1.56,0.33c1.94,0.3,3.95,0.29,5.85,0.01c0.28-0.04,0.55-0.09,0.82-0.14
		C16.73,9.62,15.87,9.96,14.99,10.28z M18.96,9.89l-0.41-0.01l-0.42,0.01c-0.08,0.01-0.17,0.02-0.25,0.04
		c0.22-0.09,0.44-0.19,0.67-0.29c0.22,0.09,0.44,0.19,0.67,0.29C19.13,9.91,19.05,9.9,18.96,9.89z M32.4,10.28
		c-0.52,0.03-1.1,0.24-1.61,0.27c-0.88,0.05-1.77,0.03-2.64-0.1c-0.3-0.05-0.6-0.1-0.91-0.15c-0.3,0.05-0.6,0.1-0.91,0.15
		c-0.87,0.13-1.76,0.15-2.64,0.1c-0.51-0.02-1.09-0.24-1.61-0.27c-0.88-0.32-1.74-0.65-2.6-1c0.27,0.05,0.54,0.1,0.82,0.14
		c1.9,0.29,3.91,0.3,5.85-0.01c0.36-0.06,0.72-0.13,1.08-0.21c0.36,0.08,0.72,0.16,1.08,0.21c1.94,0.3,3.95,0.29,5.85,0.01
		c0.28-0.04,0.55-0.09,0.82-0.14C34.14,9.62,33.28,9.96,32.4,10.28z M36.37,9.89l-0.42-0.01l-0.42,0.01
		c-0.08,0.01-0.17,0.02-0.25,0.04c0.22-0.09,0.44-0.19,0.67-0.29c0.22,0.09,0.44,0.19,0.67,0.29C36.54,9.91,36.46,9.9,36.37,9.89z"
		/>
	<path d="M18.11,52.25c-0.36-0.85-0.8-0.72-1.39-1.23c0.68-0.06,0.56-0.57,0.16-0.91c-0.47-0.4-1.1-0.28-1.49-0.84
		c0.59,0.34,1.27,0.53,1.91,0.22c0.42-0.2,1.25-1.31,0.47-1.61c0.01,0.01,0.09,0.12,0.09,0.12c-0.4-0.28-1.44-0.61-1.83-0.45
		c1.06-0.37-1.35-1.34-1.63-1.54c-0.46-0.33-0.88-0.71-1.2-1.18c0.13,0.25,0.27,0.5,0.42,0.74c0.56,0.92,1.28,1.73,2.06,2.42
		c0.01,0.01,0,0.02-0.01,0.01c-0.87-0.65-1.65-1.43-2.31-2.33c-0.08-0.11-0.16-0.23-0.23-0.34c0.02,0.08,0.05,0.17,0.07,0.26
		c0.04,0.09,0.09,0.18,0.14,0.27c0.39,0.78,0.83,1.61,1.48,2.18c0.01,0.01,0,0.03-0.01,0.02c-0.61-0.42-1.06-1.09-1.44-1.75
		c0.06,0.33,0.23,1.6,0.25,1.73c0.05,0.37,0.08,0.76,0.1,1.15c0,0.09,1.51,2.95,1.52,3.04c0,0.09-1.5-2.59-1.5-2.49
		c0.01,0.25,0.01,0.51,0.01,0.76c0,0.09,0.56,1.27,0.56,1.37c0,0.09-0.57-0.9-0.57-0.81c-0.02,0.66-0.07,1.31-0.14,1.93
		c-0.07,0.65-0.18,1.31-0.33,1.95c-0.02,0.09,0.55,2.15,0.52,2.24c-0.02,0.09-0.64-1.79-0.66-1.7c-0.05,0.18-0.1,0.36-0.16,0.54
		c-0.03,0.09,0.26,1.17,0.23,1.25c-0.03,0.09-0.38-0.82-0.41-0.74c-0.65,1.74-1.71,3.25-3.34,4.11c1.06-0.11,2.29-0.78,3.29-1.2
		c0.84-0.35,1.44-0.7,1.8-1.63c0.14-0.37,0.35-1.08,0.24-1.55c0.23,0.1,0.57-0.47,0.62-0.77c0.19-1.06-0.51-1.45-0.69-2.3
		c0.36,0.47,0.73,1.34,1.39,1.23c-0.04-0.11-0.01-0.22-0.09-0.34c0.78,0.54,2.57,0.56,3.05-0.39
		C18.53,53.73,18.28,52.66,18.11,52.25z"/>
	<path d="M56.84,12.48c-0.09,0.03,0.82,0.38,0.74,0.41c-0.09,0.03-1.17-0.26-1.25-0.23c-0.18,0.06-0.36,0.11-0.54,0.16
		c-0.09,0.02,1.79,0.64,1.7,0.66c-0.09,0.02-2.15-0.55-2.24-0.52c-0.64,0.15-1.3,0.26-1.95,0.33c-0.62,0.07-1.28,0.12-1.93,0.14
		c-0.09,0,0.9,0.57,0.81,0.57c-0.09,0-1.27-0.56-1.37-0.56c-0.26,0-0.51,0-0.77-0.01c-0.09,0,2.58,1.5,2.49,1.5
		c-0.09,0-2.95-1.51-3.04-1.52c-0.39-0.02-0.77-0.05-1.15-0.1c-0.13-0.02-1.41-0.19-1.73-0.25c0.66,0.39,1.33,0.84,1.75,1.45
		c0.01,0.01-0.01,0.03-0.02,0.01c-0.57-0.64-1.41-1.08-2.18-1.48c-0.09-0.05-0.18-0.09-0.27-0.14c-0.09-0.02-0.18-0.04-0.26-0.07
		c0.11,0.08,0.23,0.15,0.34,0.23c0.9,0.65,1.68,1.44,2.33,2.31c0.01,0.01-0.01,0.01-0.01,0.01c-0.69-0.79-1.5-1.5-2.42-2.06
		c-0.24-0.14-0.49-0.29-0.74-0.42c0.47,0.32,0.85,0.74,1.18,1.2c0.2,0.28,1.18,2.69,1.54,1.63c-0.16,0.4,0.17,1.43,0.45,1.83
		c0,0-0.11-0.08-0.12-0.09c0.3,0.78,1.4-0.05,1.61-0.47c0.32-0.65,0.13-1.33-0.22-1.91c0.56,0.39,0.44,1.02,0.84,1.49
		c0.34,0.4,0.85,0.52,0.91-0.16c0.51,0.59,0.38,1.03,1.23,1.39c0.41,0.17,1.48,0.42,1.47,0.92c0.94-0.48,0.92-2.27,0.39-3.05
		c0.13,0.08,0.23,0.05,0.34,0.09c0.11-0.66-0.76-1.03-1.23-1.39c0.85,0.18,1.25,0.88,2.3,0.69c0.31-0.05,0.87-0.39,0.77-0.62
		c0.47,0.11,1.18-0.09,1.55-0.24c0.94-0.36,1.29-0.96,1.63-1.8c0.41-1,1.09-2.23,1.2-3.29C60.09,10.77,58.58,11.82,56.84,12.48z"/>
</g>
</svg>
