<?xml version="1.0" encoding="utf-8"?>
<!-- Generator: Adobe Illustrator 23.0.3, SVG Export Plug-In . SVG Version: 6.00 Build 0)  -->
<svg version="1.1" id="Layer_1" xmlns="http://www.w3.org/2000/svg" xmlns:xlink="http://www.w3.org/1999/xlink" x="0px" y="0px"
	 viewBox="0 0 61.16 61.16" style="enable-background:new 0 0 61.16 61.16;" xml:space="preserve">
<path d="M23.2,0v7.79h-3.53V0H0v19.67h7.79v3.53H0v37.96h4.18l0-33.78h3.61v8.53v25.25h4.18V35.91h3.46v25.25h4.18l0-29.42h-7.64
	v-4.35h7.7v-7.7h7.7v-7.7h4.35v7.64h29.42v-4.18l-25.25,0v-3.46l25.25,0V7.79v0H35.91h-8.53V4.18l33.78,0V0v0H23.2z M15.5,11.97
	v3.53h-3.53v-3.53H15.5z M4.18,15.5V4.18H15.5v3.61h-7.7v7.7H4.18z M15.5,23.2h-3.53v-3.53h3.53V23.2z M23.2,15.5h-3.53v-3.53h3.53
	V15.5z"/>
</svg>
