<?xml version="1.0" encoding="utf-8"?>
<!-- Generator: Adobe Illustrator 23.0.3, SVG Export Plug-In . SVG Version: 6.00 Build 0)  -->
<svg version="1.1" id="Layer_1" xmlns="http://www.w3.org/2000/svg" xmlns:xlink="http://www.w3.org/1999/xlink" x="0px" y="0px"
	 viewBox="0 0 64.73 64.73" style="enable-background:new 0 0 64.73 64.73;" xml:space="preserve">
<path d="M8.78,64.73c-0.49-0.28-0.97-0.58-1.41-0.92c-2.54-1.92-4.32-4.74-5.3-7.74c-0.73-2.24-1-4.58-0.94-6.92
	c0.21,1.47,0.74,2.95,1.91,3.93c1.23,1.03,2.97,1.19,4.4,0.51c1.43-0.68,2.54-2.18,2.23-3.82c-0.14-0.72-0.55-1.37-1.08-1.87
	c-0.12-0.12-0.25-0.22-0.38-0.32c-0.07-0.05-0.06-0.06-0.11,0c-0.07,0.07-0.02,0.08,0.04,0.16c0.23,0.3,0.43,0.62,0.59,0.96
	c0.32,0.71,0.39,1.5,0.06,2.22c-0.3,0.67-0.9,1.19-1.56,1.49c-0.71,0.32-1.53,0.4-2.27,0.17c-0.77-0.24-1.37-0.81-1.78-1.49
	c-0.4-0.67-0.65-1.42-0.8-2.18c-0.16-0.82-0.25-1.66-0.26-2.49c-0.04-2.96,0.81-5.82,2-8.51c0,0.02-0.01,0.04-0.01,0.06
	c-0.06,0.33-0.14,0.66-0.18,1c-0.05,0.42-0.07,0.84-0.05,1.27c0.03,0.83,0.19,1.66,0.53,2.41c0.6,1.33,1.76,2.44,3.24,2.66
	c0.95,0.14,1.94-0.05,2.79-0.49c0.42-0.22,0.8-0.51,1.11-0.87c0.31-0.36,0.53-0.8,0.7-1.21c0.38-1.43-0.21-2.87-1.07-4
	c-0.04-0.05-0.04-0.09-0.1-0.06c-0.02,0.01-0.07,0.03-0.08,0.05c0.07,0.17,0.14,0.35,0.21,0.52c0.13,0.34,0.24,0.7,0.32,1.05
	c0.15,0.71,0.15,1.45-0.11,2.13c-0.28,0.55-0.73,0.98-1.28,1.26c0,0,0.01,0,0.01-0.01c-0.24,0.14-0.55,0.22-0.81,0.28
	c-0.4,0.09-0.82,0.12-1.23,0.07C7.4,43.94,6.83,43.6,6.36,43.1c-1.04-1.1-1.35-2.73-1.23-4.2c0.2-2.49,1.23-4.85,2.38-7.05
	c0.51,0.27,1.03,0.48,1.57,0.63c3.12,0.88,6.2-0.44,8.63-3.02c0,0.44-0.01,0.87-0.03,1.31c-0.1,2.27-0.42,5.38-2.41,6.33
	c-0.77,0.37-2.02,0.33-2.18-0.94c-0.16-1.23,0.8-2.23,1.62-2.68c-2.36-0.64-3.5,3.8-1.44,5.11c2.39,1.53,3.97-2.03,4.46-4.27
	c0.38-1.75,0.5-3.56,0.46-5.4c0.74-0.87,1.4-1.85,1.98-2.92c1.13,4.68,2.09,9.45,1.92,14.14c-0.1,2.9-0.55,6.89-3.79,8.17
	c-1.25,0.5-3.28,0.49-3.58-1.13c-0.29-1.57,1.26-2.87,2.59-3.48c-3.86-0.73-5.61,4.97-2.23,6.58c3.94,1.87,6.43-2.73,7.18-5.61
	c1.63-6.3-0.09-13.1-1.68-19.48c0.03-0.06,0.06-0.13,0.09-0.19c0.47-1.01,0.85-2.08,1.16-3.19c1.11-0.31,2.18-0.7,3.19-1.16
	c0.06-0.03,0.13-0.06,0.19-0.09c6.38,1.59,13.18,3.3,19.48,1.68c2.88-0.74,7.48-3.24,5.61-7.18c-1.61-3.38-7.31-1.63-6.58,2.23
	c0.6-1.33,1.9-2.88,3.48-2.59c1.62,0.3,1.63,2.33,1.13,3.58c-1.29,3.24-5.27,3.69-8.17,3.79c-4.68,0.17-9.46-0.79-14.14-1.92
	c1.07-0.58,2.06-1.24,2.92-1.98c1.83,0.04,3.64-0.07,5.4-0.46c2.24-0.49,5.8-2.07,4.27-4.46c-1.31-2.06-5.75-0.92-5.11,1.44
	c0.45-0.82,1.44-1.78,2.68-1.62c1.27,0.17,1.31,1.41,0.94,2.18c-0.95,2-4.06,2.32-6.33,2.41c-0.44,0.02-0.87,0.03-1.31,0.03
	c2.58-2.43,3.9-5.51,3.02-8.63c-0.15-0.54-0.37-1.06-0.63-1.57c2.2-1.15,4.57-2.18,7.05-2.38c1.47-0.12,3.09,0.19,4.2,1.23
	c0.5,0.47,0.83,1.04,0.92,1.73c0.05,0.41,0.02,0.83-0.07,1.23c-0.06,0.27-0.13,0.57-0.28,0.81c0,0,0-0.01,0.01-0.01
	c-0.28,0.54-0.71,1-1.26,1.28c-0.68,0.26-1.42,0.27-2.13,0.11c-0.36-0.08-0.71-0.19-1.05-0.32c-0.18-0.07-0.35-0.14-0.52-0.21
	c-0.02,0.01-0.04,0.06-0.05,0.08c-0.03,0.06,0.01,0.06,0.06,0.1c1.13,0.85,2.57,1.45,4,1.07c0.42-0.17,0.85-0.38,1.21-0.69
	c0.36-0.31,0.65-0.69,0.87-1.11c0.45-0.85,0.63-1.84,0.49-2.79c-0.22-1.48-1.32-2.64-2.66-3.24c-0.76-0.34-1.59-0.5-2.41-0.53
	c-0.42-0.01-0.85,0-1.27,0.05c-0.34,0.04-0.67,0.12-1,0.18c-0.02,0-0.04,0.01-0.06,0.01c2.69-1.19,5.55-2.04,8.51-2
	c0.83,0.01,1.67,0.09,2.49,0.26c0.76,0.15,1.52,0.39,2.18,0.8c0.68,0.41,1.25,1.01,1.49,1.78c0.23,0.75,0.15,1.56-0.17,2.27
	c-0.3,0.66-0.82,1.26-1.49,1.56c-0.72,0.32-1.51,0.26-2.22-0.06c-0.34-0.16-0.66-0.36-0.96-0.59c-0.08-0.06-0.09-0.11-0.16-0.04
	c-0.06,0.05-0.05,0.05,0,0.11c0.1,0.13,0.21,0.26,0.32,0.38c0.5,0.53,1.15,0.94,1.87,1.08c1.64,0.31,3.14-0.8,3.82-2.23
	c0.68-1.43,0.52-3.17-0.51-4.4c-0.98-1.17-2.46-1.7-3.93-1.91c2.34-0.06,4.68,0.21,6.92,0.94c3,0.98,5.82,2.76,7.74,5.3
	c0.34,0.45,0.64,0.92,0.92,1.42V6.04c-0.67-0.8-1.43-1.53-2.26-2.19c-2.58-2.04-5.73-3.25-8.98-3.68c-3.45-0.46-6.96,0-10.28,0.96
	c-1.7,0.49-3.35,1.09-4.94,1.85c-1.58,0.75-2.29,1.29-2.91,1.72c-0.25,0.17-0.51,0.33-0.78,0.47c-0.57,0.29-1.17,0.53-1.74,0.82
	c-0.48,0.25-0.95,0.51-1.41,0.77C29.21,3.38,24.49,0.95,19.1,1.4C13.8,1.84,8.99,5.31,9.18,9.18C5.31,8.99,1.84,13.8,1.4,19.1
	c-0.45,5.4,1.98,10.11,5.37,12.32c-0.27,0.46-0.53,0.93-0.77,1.41c-0.29,0.57-0.53,1.17-0.82,1.74c-0.14,0.27-0.3,0.53-0.47,0.78
	c-0.43,0.62-0.97,1.33-1.72,2.91c-0.76,1.6-1.36,3.25-1.85,4.94c-0.95,3.33-1.41,6.84-0.96,10.28c0.43,3.25,1.64,6.4,3.68,8.98
	c0.65,0.82,1.38,1.58,2.19,2.26v0L8.78,64.73L8.78,64.73z M21.37,21.37c-0.26,1.07-0.58,2.11-0.98,3.09
	c-0.26-1.07-0.52-2.12-0.75-3.16c-0.16-0.72-0.33-1.44-0.49-2.16c0.72,0.17,1.44,0.33,2.16,0.49c1.04,0.23,2.09,0.49,3.16,0.75
	C23.48,20.78,22.44,21.11,21.37,21.37z M25.33,20c-2.22-0.54-4.43-1.12-6.59-1.62c-0.16-0.04-0.32-0.08-0.49-0.11
	c0.04,0.16,0.08,0.32,0.11,0.49c0.5,2.16,1.08,4.36,1.62,6.58c-0.52,1.11-1.13,2.12-1.84,3.01c-0.08-1.78-0.3-3.57-0.57-5.35
	c0.27-1.73,0.26-3.52,0.1-5.31c1.79,0.16,3.58,0.17,5.31-0.1c1.78,0.28,3.57,0.5,5.35,0.57C27.46,18.87,26.44,19.48,25.33,20z
	 M17.44,20.68c-0.01,0.34-0.02,0.7-0.05,1.07c-0.3-1.8-0.64-3.57-0.93-5.29c1.72,0.29,3.49,0.62,5.29,0.93
	c-0.37,0.03-0.73,0.04-1.07,0.05c-1.11,0.03-2.23-0.02-3.35-0.11C17.42,18.45,17.47,19.57,17.44,20.68z M30.87,15.33
	c-0.51,0.87-1.18,1.66-1.97,2.37c-1.56-0.03-3.13-0.16-4.7-0.35c1.71-0.46,3.74-1.49,2.73-3.02c-0.99-1.5-4.5-0.72-4.05,0.99
	c0.37-0.59,1.17-1.27,2.14-1.15c1,0.13,1,1.03,0.7,1.59c-0.45,0.82-1.45,1.24-2.55,1.45c-2.41-0.34-4.82-0.8-7.17-1.22
	c0.42,2.35,0.88,4.76,1.22,7.17c-0.22,1.1-0.63,2.1-1.45,2.55c-0.56,0.31-1.46,0.3-1.59-0.7c-0.13-0.97,0.56-1.77,1.15-2.14
	c-1.71-0.45-2.49,3.06-0.99,4.05c1.52,1,2.56-1.02,3.02-2.73c0.19,1.57,0.33,3.14,0.35,4.7c-0.71,0.8-1.5,1.47-2.37,1.97
	c-2.35,1.37-5.03,1.36-7.38,0.17c1.42-2.61,3.1-5.05,4.7-7.54c0.03-0.03,0.06-0.05,0.09-0.08c1.87-1.85,2.93-4.96,2.29-8.11
	c-0.02-0.12-0.05-0.24-0.08-0.37c0.12,0.03,0.24,0.06,0.37,0.08c3.14,0.64,6.26-0.42,8.11-2.29c0.03-0.03,0.05-0.06,0.08-0.09
	c2.49-1.6,4.94-3.28,7.54-4.7C32.23,10.3,32.24,12.98,30.87,15.33z M3.18,25.72c-1.24-2.82-1.55-6.31-0.73-9.42
	c0.77-2.9,2.36-5.22,4.57-6c1.11-0.4,2.28-0.36,3.36,0.07C9.94,9.29,9.9,8.13,10.3,7.01c0.78-2.2,3.1-3.8,6-4.57
	c3.11-0.82,6.6-0.51,9.42,0.73c2.21,0.97,3.87,2.41,4.91,4.06c-2.2,1.34-4.28,2.89-6.36,4.42c-0.04,0.03-0.09,0.06-0.13,0.1
	c0.88-1.69,0.29-3.72-1.76-4.88c-1.29-0.74-3.1-1.01-4.66-0.58c-1.01,0.28-1.7,0.86-2.42,1.42c0.96-0.31,1.89-0.79,2.93-0.92
	c1.61-0.2,3.19,0.27,4.23,1.17c2.07,1.77,1.54,4.52-1.13,5.79c-2.38,1.13-5.35,1.02-7.63-0.06c1.08,2.28,1.19,5.26,0.06,7.63
	c-1.27,2.67-4.02,3.2-5.79,1.13c-0.9-1.05-1.37-2.62-1.17-4.23c0.13-1.04,0.6-1.97,0.92-2.93c-0.56,0.72-1.14,1.41-1.42,2.42
	c-0.43,1.56-0.16,3.37,0.58,4.66c1.17,2.05,3.19,2.65,4.88,1.76c-0.03,0.04-0.06,0.09-0.1,0.13c-1.53,2.08-3.08,4.16-4.42,6.36
	C5.59,29.59,4.15,27.93,3.18,25.72z"/>
</svg>
