<?xml version="1.0" encoding="utf-8"?>
<!-- Generator: Adobe Illustrator 23.0.3, SVG Export Plug-In . SVG Version: 6.00 Build 0)  -->
<svg version="1.1" id="Layer_1" xmlns="http://www.w3.org/2000/svg" xmlns:xlink="http://www.w3.org/1999/xlink" x="0px" y="0px"
	 viewBox="0 0 70.62 70.62" style="enable-background:new 0 0 70.62 70.62;" xml:space="preserve">
<g>
	<path d="M68.93,15.32c-0.93,0-1.69,0.75-1.69,1.69c0,0.93,0.75,1.69,1.69,1.69c0.93,0,1.69-0.76,1.69-1.69
		C70.62,16.07,69.86,15.32,68.93,15.32z"/>
	<path d="M64.73,14.84c-0.95,0-1.76,0.61-2.05,1.47l-46.18-0.4c-0.34-0.76-1.08-1.3-1.95-1.36c0.06,0.87,0.6,1.61,1.36,1.95
		l0.4,46.18c-0.85,0.29-1.47,1.09-1.47,2.05c0,1.19,0.97,2.16,2.16,2.16c1.19,0,2.16-0.97,2.16-2.16c0-0.95-0.61-1.76-1.47-2.05
		l0.39-44.6l44.6-0.39c0.29,0.85,1.09,1.47,2.05,1.47c1.19,0,2.16-0.97,2.16-2.16C66.89,15.81,65.92,14.84,64.73,14.84z"/>
	<path d="M17,67.25c-0.93,0-1.69,0.75-1.69,1.69c0,0.93,0.75,1.69,1.69,1.69c0.93,0,1.69-0.75,1.69-1.69
		C18.69,68,17.93,67.25,17,67.25z"/>
	<path d="M13.68,38.8l0.1-20.11c0.4-0.5,0.68-1.53,0.68-2.72c0-0.64-0.08-1.23-0.22-1.71c0.49,0.14,1.08,0.22,1.71,0.22
		c1.19,0,2.22-0.28,2.72-0.68l20.11-0.1c0.24,0.74,0.93,1.27,1.75,1.27c1.02,0,1.85-0.83,1.85-1.84c0-1.02-0.83-1.85-1.85-1.85
		c-0.91,0-1.66,0.65-1.81,1.51l-20.05-0.1c-0.16-0.13-0.38-0.25-0.63-0.35c0.42-0.85,1.37-1.57,2.72-2.11
		c0.94-0.38,2.01-0.63,3.13-0.63c0.11,0,0.22,0,0.32,0.01c-0.01,0.06-0.01,0.11-0.02,0.17c-0.06,1.34,1.62,2.6,4,2.76
		c0.25,0.02,0.5,0.02,0.74,0.02c1.48-0.04,2.78-0.49,3.64-1.23c0.12-0.1,0.01-0.29-0.19-0.21c-1.29,0.51-2.99,0.4-4.02-0.2
		c-0.44-0.25-0.86-0.59-0.87-0.97c0.74,0.36,1.8,0.45,2.68,0.2c0.51-0.14,0.89-0.39,1.15-0.68c0.26-0.3,0.31-0.61,0.18-0.94
		c-0.16-0.39-0.63-0.68-1.22-0.85c-1.81-0.51-4.57-0.2-8.29,0.81c-0.71,0.19-1.4,0.41-2.09,0.67c-1.11,0.42-3.61,1.39-5.35,2.57
		c-0.13,0.09-0.26-0.05-0.21-0.11c0.47-0.59,1.16-1.08,1.93-1.55c1.91-1.14,4.47-2.43,6.81-3.15c1.66-0.52,3.29-0.87,5.21-1.09
		c0.64-0.07,1.21-0.09,1.84-0.1c1.31-0.03,2.25-0.88,1.77-1.61c-0.25-0.38-0.84-0.64-1.48-0.76c0.26-0.18,0.6-0.31,0.83-0.51
		c0.35-0.31,0.47-0.64,0.36-1.01c-0.1-0.34-0.32-0.59-0.7-0.82c-0.38-0.22-0.81-0.35-1.39-0.41c-0.63-0.06-1.2,0.01-1.72,0.21
		c-0.35,0.14-0.57,0.33-0.88,0.48c-0.21-0.37-0.65-0.72-1.3-0.86c-1.26-0.28-2.71,0.27-2.75,1.03c-0.02,0.37-0.06,0.71-0.18,1.08
		c-0.37,1.12-0.98,2.08-1.86,3.05c-1.25,1.37-3.45,2.86-5.39,3.98c-0.79,0.45-1.63,0.85-2.64,1.13c-0.11,0.03-0.34-0.05-0.19-0.12
		c2.01-1.02,3.68-2.48,4.39-3.13c0.44-0.4,0.82-0.81,1.15-1.22c1.73-2.18,2.26-3.79,1.38-4.85c-0.29-0.35-0.79-0.62-1.45-0.72
		c-0.56-0.08-1.1-0.05-1.61,0.11c-0.5,0.15-0.92,0.37-1.16,0.67C14.9,1.95,15.05,2.57,15.66,3C15.01,3,14.44,2.75,14,2.5
		c-1.03-0.6-1.2-1.6-0.33-2.35c0.14-0.12-0.18-0.18-0.36-0.11c-0.64,0.25-1.16,0.58-1.52,0.94c-0.16-0.16-0.35-0.32-0.57-0.46
		C11,0.65,10.8,0.81,10.64,0.97c-0.36-0.37-0.87-0.69-1.52-0.94c-0.18-0.07-0.5-0.01-0.36,0.11C9.64,0.9,9.46,1.89,8.43,2.5
		C8,2.75,7.43,3,6.77,3c0.62-0.43,0.77-1.05,0.35-1.57c-0.24-0.3-0.67-0.52-1.16-0.67C5.45,0.61,4.91,0.58,4.35,0.66
		C3.69,0.75,3.19,1.03,2.9,1.38C2.63,1.69,2.5,2.06,2.48,2.48C2.06,2.5,1.69,2.63,1.38,2.9C1.03,3.19,0.75,3.69,0.66,4.35
		c-0.08,0.56-0.05,1.1,0.11,1.61c0.15,0.5,0.37,0.92,0.67,1.16C1.95,7.54,2.57,7.39,3,6.77C3,7.43,2.75,8,2.5,8.43
		c-0.6,1.03-1.6,1.2-2.35,0.33C0.02,8.63-0.04,8.95,0.03,9.13c0.26,0.64,0.58,1.16,0.94,1.52C0.81,10.8,0.65,11,0.51,11.22
		c0.14,0.22,0.3,0.41,0.46,0.57c-0.37,0.36-0.69,0.87-0.94,1.52c-0.07,0.18-0.01,0.5,0.11,0.36C0.9,12.8,1.89,12.98,2.5,14
		C2.75,14.44,3,15.01,3,15.66c-0.43-0.62-1.05-0.77-1.57-0.35c-0.3,0.24-0.52,0.67-0.67,1.16c-0.15,0.51-0.18,1.05-0.11,1.61
		c0.09,0.66,0.37,1.17,0.72,1.45c1.06,0.88,2.67,0.35,4.85-1.38c0.41-0.33,0.82-0.71,1.22-1.15c0.65-0.71,2.11-2.38,3.13-4.39
		c0.08-0.15,0.15,0.08,0.12,0.19c-0.28,1.01-0.68,1.85-1.13,2.64c-1.12,1.95-2.61,4.15-3.98,5.39c-0.97,0.89-1.92,1.5-3.05,1.86
		c-0.37,0.12-0.71,0.16-1.08,0.18c-0.77,0.05-1.31,1.5-1.03,2.75c0.15,0.65,0.49,1.09,0.86,1.3c-0.15,0.3-0.35,0.53-0.49,0.88
		c-0.2,0.52-0.27,1.09-0.21,1.72c0.06,0.58,0.19,1.01,0.41,1.39c0.23,0.38,0.48,0.6,0.82,0.7c0.37,0.11,0.7-0.01,1.01-0.36
		c0.21-0.23,0.34-0.56,0.51-0.83c0.12,0.64,0.38,1.23,0.76,1.48c0.73,0.48,1.58-0.46,1.61-1.77c0.01-0.63,0.03-1.21,0.1-1.84
		c0.21-1.92,0.57-3.55,1.09-5.21c0.73-2.34,2.02-4.89,3.15-6.81c0.46-0.78,0.96-1.46,1.55-1.93c0.06-0.05,0.2,0.08,0.11,0.21
		c-1.18,1.74-2.15,4.25-2.57,5.35C8.88,20.59,8.66,21.29,8.47,22c-1.01,3.72-1.32,6.49-0.81,8.29c0.17,0.59,0.46,1.07,0.85,1.22
		c0.33,0.13,0.64,0.08,0.94-0.18c0.29-0.26,0.54-0.64,0.68-1.15c0.24-0.88,0.16-1.94-0.2-2.68c0.38,0.01,0.72,0.43,0.97,0.87
		c0.6,1.03,0.7,2.73,0.2,4.02c-0.08,0.2,0.11,0.31,0.21,0.19c0.74-0.86,1.19-2.16,1.23-3.64c0.01-0.24,0-0.49-0.02-0.74
		c-0.16-2.38-1.42-4.07-2.76-4c-0.06,0-0.11,0.01-0.17,0.02c0-0.11-0.01-0.22-0.01-0.32c0-1.12,0.25-2.19,0.63-3.13
		c0.54-1.35,1.26-2.3,2.11-2.72c0.1,0.26,0.22,0.47,0.35,0.63l0.1,20.05c-0.86,0.16-1.51,0.91-1.51,1.81c0,1.02,0.83,1.84,1.85,1.84
		c1.02,0,1.85-0.83,1.85-1.84C14.95,39.73,14.41,39.04,13.68,38.8z M6.19,4.92c0.1,0.01,0.2,0.01,0.29,0.01
		c1.7,0.03,3.32-0.51,4.16-1.36C10.81,3.74,11,3.9,11.22,4.04c0.22-0.14,0.41-0.29,0.57-0.46c0.84,0.85,2.46,1.38,4.16,1.36
		c0.1,0,0.2-0.01,0.29-0.01c0.01,0.06,0.01,0.13,0.01,0.19c0,0.66-0.42,1.28-1.07,1.83c-0.88,0.75-2.03,1.29-3.39,1.55
		c-0.2-0.04-0.39-0.08-0.57-0.13c-0.19,0.05-0.38,0.09-0.58,0.13c-1.36-0.26-2.51-0.8-3.39-1.55C6.6,6.39,6.18,5.77,6.18,5.11
		C6.18,5.05,6.18,4.99,6.19,4.92z M8.49,11.79c-0.26,1.36-0.8,2.51-1.55,3.39c-0.55,0.65-1.18,1.07-1.83,1.07
		c-0.06,0-0.13,0-0.19-0.01c0.01-0.1,0.01-0.2,0.01-0.29c0.03-1.7-0.51-3.32-1.36-4.16c0.17-0.16,0.32-0.36,0.46-0.57
		C3.9,11,3.74,10.81,3.58,10.64c0.85-0.84,1.38-2.46,1.36-4.16c0-0.1-0.01-0.2-0.01-0.29c0.06-0.01,0.13-0.01,0.19-0.01
		c0.66,0,1.28,0.42,1.83,1.07c0.75,0.88,1.29,2.03,1.55,3.39c-0.04,0.2-0.08,0.39-0.13,0.57C8.41,11.41,8.46,11.6,8.49,11.79z"/>
</g>
</svg>
