<?xml version="1.0" encoding="utf-8"?>
<!-- Generator: Adobe Illustrator 23.0.3, SVG Export Plug-In . SVG Version: 6.00 Build 0)  -->
<svg version="1.1" id="Layer_1" xmlns="http://www.w3.org/2000/svg" xmlns:xlink="http://www.w3.org/1999/xlink" x="0px" y="0px"
	 viewBox="0 0 72.03 72.03" style="enable-background:new 0 0 72.03 72.03;" xml:space="preserve">
<g>
	<path d="M70.71,16.32c-0.73,0-1.33,0.59-1.33,1.33c0,0.73,0.59,1.33,1.33,1.33c0.73,0,1.33-0.59,1.33-1.33
		C72.03,16.91,71.44,16.32,70.71,16.32z"/>
	<path d="M67.4,15.95c-0.75,0-1.38,0.48-1.61,1.15l-36.33-0.32c-0.28-0.63-0.92-1.08-1.66-1.08c-1,0-1.82,0.81-1.82,1.82
		c0,1,0.81,1.82,1.82,1.82c0.64,0,1.2-0.33,1.52-0.83l36.47-0.32c0.23,0.67,0.86,1.15,1.61,1.15c0.94,0,1.7-0.76,1.7-1.7
		C69.1,16.71,68.34,15.95,67.4,15.95z"/>
	<path d="M22.81,15.71c-0.74,0-1.37,0.44-1.66,1.08l-4.33,0.04l-0.04,4.33c-0.63,0.28-1.08,0.92-1.08,1.66c0,1,0.81,1.82,1.82,1.82
		c1,0,1.82-0.81,1.82-1.82c0-0.64-0.33-1.2-0.83-1.52l-0.02-2.8l2.8,0.02c0.32,0.5,0.89,0.83,1.52,0.83c1,0,1.82-0.81,1.82-1.82
		C24.62,16.52,23.81,15.71,22.81,15.71z"/>
	<path d="M28.04,14.96c-0.92-0.25-1.3-1.02-0.43-1.4c0.53-0.23,1.28-0.21,1.75,0.03c0.27,0.14,0.32,0.36,0.05,0.53
		c-0.27,0.17-0.67,0.02-0.8,0.16c-0.17,0.18,0.06,0.44,0.28,0.6c0.46,0.33,1.26,0.41,1.95,0.29c0.67-0.12,1.15-0.47,1.32-0.86
		c0.4-0.92-1.18-1.65-2.77-1.69c-1.77-0.05-2.83,0.72-3.12,1.21c-0.29-0.4,0.22-1.03,0.72-1.33c1.17-0.68,3.17-0.67,4.76-0.34
		c0.71,0.15,1.36,0.36,1.98,0.58c1,0.36,1.96,0.76,3.08,1.01c0.94,0.22,2.03,0.26,2.96-0.04c0.98-0.32,1.43-0.86,1.61-1.53
		c0.03-0.11,0.05-0.22,0.06-0.33c1.44,1.38,4.36,1.75,5.91,0.53c0.34-0.27,0.52-0.59,0.49-0.92c1.91-0.04,3.82-0.09,5.73-0.14
		c0.09,0.61,0.62,1.08,1.26,1.08c0.7,0,1.28-0.57,1.28-1.27c0-0.7-0.57-1.27-1.28-1.27c-0.61,0-1.12,0.43-1.24,1.01
		c-2.05-0.06-4.11-0.11-6.16-0.15c-0.17-0.16-0.39-0.32-0.67-0.48c-0.57-0.31-1.49-0.32-2.07-0.01c-0.57,0.32-0.57,0.83,0,1.14
		c0.48,0.27,1.22,0.31,1.78,0.12c0.25,0,0.5-0.01,0.75-0.02c-0.03,0.22-0.25,0.47-0.91,0.59c-0.66,0.12-1.36-0.07-1.85-0.3
		c-2.67-1.28-3.68-3.59-7.61-4.07c-1.08-0.13-2.11,0.06-2.78,0.46c-0.27,0.16-0.49,0.36-0.62,0.59c-0.33,0.55-0.22,1.49,0.87,1.6
		c0,0-0.13-0.5,0.76-0.53c0.79-0.03,1.37,0.44,1.02,0.86c-0.22,0.26-0.81,0.45-1.65,0.36c-1.25-0.13-2.6-0.15-3.92-0.05
		c-1.5,0.12-2.95,0.4-4.17,0.86c0.83-0.67,1.34-1.47,1.56-2.3c0.19-0.73,0.16-1.47-0.09-2.16c-0.16-0.47,0.19-0.79,0.66-0.91
		c0.74-0.2,1.6,0.13,1.55,0.56c-0.06,0.49-0.96,0.42-0.96,0.42c0.19,0.6,1.9,0.66,2.89,0.48c0.41-0.07,0.77-0.19,1.06-0.34
		c0.72-0.37,1.07-0.94,0.83-1.53c-0.87-2.17-5.06-2.73-7.38-4.2c-0.42-0.27-0.77-0.65-0.54-1.02c0.39-0.64,1.52-0.53,1.74-0.43
		c-0.17,0.04-0.33,0.1-0.47,0.18c-0.57,0.32-0.57,0.83,0,1.14c0.57,0.32,1.5,0.32,2.07,0c0.57-0.32,0.56-0.83-0.01-1.14
		c-1.28-0.71-2.81-0.75-3.91-0.33c-0.01,0.01-0.03,0.01-0.04,0.02c-0.01-0.01-0.03-0.01-0.04-0.02c-1.09-0.42-2.63-0.38-3.91,0.33
		c-0.57,0.31-0.58,0.82-0.01,1.14c0.57,0.32,1.5,0.32,2.07,0c0.57-0.32,0.57-0.83,0-1.14c-0.14-0.08-0.3-0.14-0.47-0.18
		c0.22-0.1,1.36-0.21,1.74,0.43c0.22,0.37-0.12,0.75-0.54,1.02c-2.32,1.47-6.51,2.03-7.38,4.2c-0.24,0.59,0.1,1.16,0.83,1.53
		c0.29,0.15,0.65,0.27,1.06,0.34c1,0.18,2.7,0.12,2.89-0.48c0,0-0.9,0.07-0.96-0.42c-0.05-0.43,0.8-0.76,1.55-0.56
		c0.47,0.12,0.82,0.45,0.66,0.91c-0.24,0.69-0.28,1.44-0.08,2.16c0.22,0.83,0.73,1.63,1.55,2.3c-1.21-0.46-2.67-0.74-4.17-0.86
		c-1.32-0.11-2.67-0.09-3.92,0.05c-0.2,0.02-0.38,0.02-0.54,0.02c-0.17,0.01-0.35,0-0.54-0.02c-1.25-0.13-2.6-0.15-3.92-0.05
		c-0.05,0-0.1,0.01-0.16,0.02C11,11.06,11,11.11,11,11.17c-0.11,1.32-0.09,2.67,0.05,3.92c0.02,0.2,0.03,0.38,0.02,0.54
		c0.01,0.17,0,0.35-0.02,0.54c-0.13,1.25-0.15,2.6-0.05,3.92c0.12,1.5,0.4,2.95,0.86,4.17c-0.67-0.83-1.47-1.34-2.3-1.55
		c-0.73-0.19-1.47-0.16-2.16,0.08c-0.47,0.16-0.79-0.19-0.91-0.66c-0.19-0.74,0.13-1.6,0.56-1.55c0.49,0.06,0.42,0.96,0.42,0.96
		c0.6-0.19,0.66-1.9,0.48-2.89c-0.07-0.41-0.19-0.77-0.34-1.06c-0.37-0.73-0.94-1.07-1.53-0.83c-2.17,0.87-2.73,5.06-4.2,7.38
		c-0.27,0.42-0.65,0.77-1.02,0.54c-0.64-0.39-0.53-1.52-0.43-1.74c0.04,0.17,0.1,0.33,0.18,0.47c0.32,0.57,0.83,0.57,1.14,0
		c0.32-0.57,0.32-1.5,0-2.07c-0.32-0.57-0.83-0.56-1.14,0.01c-0.71,1.28-0.75,2.81-0.33,3.91c0.01,0.01,0.01,0.03,0.02,0.04
		c-0.01,0.01-0.01,0.03-0.02,0.04c-0.42,1.09-0.38,2.62,0.33,3.91c0.31,0.57,0.82,0.58,1.14,0.01c0.32-0.57,0.32-1.5,0-2.07
		c-0.32-0.57-0.83-0.57-1.14,0c-0.08,0.14-0.14,0.3-0.18,0.47c-0.1-0.22-0.21-1.36,0.43-1.74c0.37-0.22,0.75,0.12,1.02,0.54
		c1.47,2.32,2.03,6.51,4.2,7.38c0.59,0.24,1.16-0.1,1.53-0.83c0.15-0.29,0.27-0.65,0.34-1.06c0.18-1,0.12-2.7-0.48-2.89
		c0,0,0.07,0.9-0.42,0.96c-0.43,0.05-0.76-0.81-0.56-1.55c0.12-0.47,0.45-0.82,0.91-0.66c0.69,0.24,1.44,0.28,2.16,0.09
		c0.83-0.22,1.63-0.73,2.3-1.55c-0.46,1.21-0.74,2.67-0.86,4.17c-0.11,1.32-0.09,2.67,0.05,3.92c0.09,0.85-0.1,1.43-0.36,1.66
		c-0.41,0.35-0.88-0.23-0.86-1.02c0.03-0.89,0.53-0.76,0.53-0.76c-0.1-1.09-1.05-1.2-1.6-0.87c-0.22,0.13-0.42,0.35-0.59,0.62
		c-0.4,0.67-0.59,1.7-0.46,2.78c0.48,3.94,2.79,4.95,4.07,7.61c0.23,0.48,0.42,1.18,0.3,1.85c-0.12,0.66-0.37,0.88-0.59,0.91
		c0-0.25,0.01-0.5,0.02-0.75c0.18-0.56,0.14-1.3-0.12-1.78c-0.32-0.57-0.83-0.57-1.14,0c-0.32,0.57-0.31,1.5,0.01,2.07
		c0.15,0.28,0.31,0.5,0.48,0.67c0.04,2.05,0.09,4.1,0.15,6.16c-0.57,0.12-1.01,0.63-1.01,1.24c0,0.7,0.57,1.28,1.27,1.28
		c0.7,0,1.27-0.57,1.27-1.28c0-0.64-0.47-1.16-1.08-1.25c0.06-1.91,0.1-3.82,0.14-5.73c0.33,0.03,0.65-0.14,0.92-0.49
		c1.22-1.55,0.85-4.47-0.53-5.91c0.11-0.01,0.22-0.03,0.33-0.06c0.67-0.17,1.21-0.63,1.53-1.61c0.3-0.93,0.26-2.02,0.04-2.96
		c-0.26-1.12-0.66-2.07-1.01-3.08c-0.22-0.63-0.43-1.27-0.58-1.98c-0.33-1.58-0.34-3.59,0.34-4.76c0.29-0.5,0.93-1.01,1.33-0.72
		c-0.5,0.29-1.26,1.35-1.21,3.12c0.04,1.58,0.77,3.16,1.69,2.77c0.38-0.16,0.74-0.65,0.86-1.32c0.12-0.69,0.04-1.48-0.29-1.95
		c-0.16-0.22-0.42-0.45-0.6-0.28c-0.14,0.14,0.01,0.53-0.16,0.8c-0.17,0.27-0.39,0.22-0.53-0.05c-0.24-0.47-0.26-1.23-0.03-1.75
		c0.38-0.87,1.15-0.49,1.4,0.43c0.64-0.94,0.22-2.19,0.22-2.19c0.22-0.05,0.44-0.24,0.61-0.55c0,0,0,0,0-0.01c0,0,0,0,0-0.01
		c-0.17-0.31-0.39-0.49-0.61-0.55c0,0,0.42-1.25-0.22-2.19c-0.25,0.92-1.02,1.3-1.4,0.43c-0.23-0.53-0.21-1.28,0.03-1.75
		c0.14-0.27,0.36-0.32,0.53-0.05c0.17,0.27,0.02,0.67,0.16,0.8c0.18,0.17,0.44-0.06,0.6-0.28c0.33-0.46,0.41-1.26,0.29-1.95
		c-0.12-0.67-0.47-1.15-0.86-1.32c-0.92-0.4-1.64,1.18-1.69,2.77c-0.05,1.77,0.72,2.83,1.21,3.12c-0.4,0.29-1.03-0.22-1.33-0.72
		c-0.68-1.17-0.67-3.17-0.34-4.76c0.15-0.71,0.36-1.36,0.58-1.98c0.15-0.42,0.31-0.84,0.46-1.26c-0.15-0.42-0.31-0.84-0.46-1.26
		c-0.22-0.63-0.43-1.27-0.58-1.98c-0.02-0.08-0.03-0.17-0.05-0.25c0.09,0.02,0.17,0.03,0.25,0.05c0.71,0.15,1.36,0.36,1.98,0.58
		c0.42,0.15,0.84,0.31,1.26,0.46c0.42-0.15,0.84-0.31,1.26-0.46c0.63-0.22,1.27-0.43,1.98-0.58c1.58-0.33,3.59-0.34,4.76,0.34
		c0.5,0.29,1.01,0.93,0.72,1.33c-0.29-0.5-1.35-1.26-3.12-1.21c-1.58,0.04-3.16,0.77-2.77,1.69c0.17,0.38,0.65,0.74,1.32,0.86
		c0.69,0.12,1.48,0.04,1.95-0.29c0.22-0.16,0.45-0.42,0.28-0.6c-0.14-0.14-0.54,0.01-0.8-0.16c-0.27-0.17-0.22-0.39,0.05-0.53
		c0.47-0.24,1.23-0.26,1.75-0.03c0.87,0.38,0.49,1.15-0.43,1.4c0.94,0.64,2.19,0.22,2.19,0.22c0.05,0.22,0.24,0.44,0.55,0.62
		c0,0,0,0,0.01,0c0,0,0,0,0.01,0c0.31-0.17,0.49-0.39,0.55-0.62C25.86,15.18,27.11,15.6,28.04,14.96z M3.47,26.75
		c-0.44,0-0.8-0.65-0.8-1.45c0-0.8,0.36-1.45,0.8-1.45c0.44,0,0.8,0.65,0.8,1.45C4.27,26.11,3.91,26.75,3.47,26.75z M8.88,25.75
		c-0.19-0.13-0.36-0.28-0.53-0.45c0.17-0.17,0.35-0.32,0.53-0.45c0.83-0.57,1.87-0.61,2.53,0.45C10.75,26.36,9.71,26.32,8.88,25.75z
		 M23.85,3.47c0-0.44,0.65-0.8,1.45-0.8c0.8,0,1.45,0.36,1.45,0.8c0,0.44-0.65,0.8-1.45,0.8C24.5,4.27,23.85,3.91,23.85,3.47z
		 M25.31,11.41c-1.06-0.66-1.02-1.7-0.45-2.53c0.13-0.19,0.28-0.36,0.45-0.53c0.17,0.17,0.32,0.35,0.45,0.53
		C26.32,9.71,26.36,10.75,25.31,11.41z"/>
	<path d="M17.65,69.38c-0.73,0-1.33,0.59-1.33,1.33c0,0.73,0.59,1.33,1.33,1.33c0.73,0,1.33-0.59,1.33-1.33
		C18.97,69.98,18.38,69.38,17.65,69.38z"/>
	<path d="M18.19,65.79l0.32-36.47c0.5-0.32,0.83-0.89,0.83-1.52c0-1-0.81-1.82-1.82-1.82c-1,0-1.82,0.81-1.82,1.82
		c0,0.74,0.44,1.37,1.08,1.66l0.32,36.33c-0.67,0.23-1.15,0.86-1.15,1.61c0,0.94,0.76,1.7,1.7,1.7c0.94,0,1.7-0.76,1.7-1.7
		C19.35,66.65,18.86,66.02,18.19,65.79z"/>
</g>
</svg>
