<?xml version="1.0" encoding="utf-8"?>
<!-- Generator: Adobe Illustrator 23.0.3, SVG Export Plug-In . SVG Version: 6.00 Build 0)  -->
<svg version="1.1" id="Layer_1" xmlns="http://www.w3.org/2000/svg" xmlns:xlink="http://www.w3.org/1999/xlink" x="0px" y="0px"
	 viewBox="0 0 68.4 68.4" style="enable-background:new 0 0 68.4 68.4;" xml:space="preserve">
<g>
	<path d="M54.28,9.29c-1.26,0.43-2.52,0.86-3.78,1.26c-1.25,0.4-2.51,0.8-3.79,1.11c-0.28,0.07-0.55,0.13-0.83,0.19
		c0.28,0.06,0.56,0.12,0.83,0.19c1.29,0.31,2.54,0.71,3.79,1.11c1.27,0.41,2.53,0.83,3.78,1.26c0.52,0.18,1.04,0.36,1.56,0.55
		c0.52-0.18,1.04-0.37,1.56-0.55c1.26-0.44,2.52-0.86,3.78-1.26c1.25-0.4,2.51-0.8,3.79-1.11c0.28-0.07,0.55-0.13,0.83-0.19
		c-0.28-0.06-0.56-0.12-0.83-0.19c-1.29-0.31-2.54-0.71-3.79-1.11c-1.27-0.41-2.53-0.83-3.78-1.26c-0.52-0.18-1.04-0.36-1.56-0.55
		C55.32,8.93,54.8,9.11,54.28,9.29z M55.84,10.22c1.76,0.57,3.52,1.12,5.3,1.63c-1.78,0.51-3.55,1.06-5.3,1.63
		c-1.76-0.57-3.52-1.12-5.3-1.63C52.32,11.34,54.09,10.79,55.84,10.22z"/>
	<path d="M19.59,12.04c1.28,0.31,2.54,0.71,3.79,1.11c1.27,0.41,2.53,0.83,3.78,1.26c0.6,0.21,1.2,0.42,1.79,0.63
		c0.6-0.21,1.19-0.42,1.79-0.63c1.25-0.44,2.52-0.86,3.78-1.26c1.25-0.4,2.51-0.8,3.79-1.11c0.28-0.07,0.55-0.13,0.83-0.19
		c-0.28-0.06-0.56-0.12-0.83-0.19c-1.28-0.31-2.54-0.71-3.79-1.11c-1.27-0.41-2.53-0.83-3.78-1.26c-0.6-0.21-1.2-0.42-1.79-0.63
		c-0.6,0.21-1.19,0.42-1.79,0.63c-1.26,0.43-2.52,0.86-3.78,1.26c-1.25,0.4-2.51,0.8-3.79,1.11c-0.28,0.07-0.55,0.13-0.83,0.19
		C19.04,11.91,19.31,11.97,19.59,12.04z M23.42,11.85c1.86-0.53,3.7-1.1,5.53-1.7c1.83,0.6,3.68,1.17,5.53,1.7
		c-1.86,0.53-3.7,1.1-5.53,1.7C27.12,12.95,25.28,12.38,23.42,11.85z"/>
	<path d="M11.85,65.81c0.06-0.28,0.12-0.56,0.19-0.83c0.31-1.29,0.71-2.54,1.11-3.79c0.41-1.27,0.83-2.53,1.26-3.78
		c0.18-0.52,0.36-1.04,0.55-1.56c-0.18-0.52-0.37-1.04-0.55-1.56c-0.43-1.26-0.86-2.52-1.26-3.78c-0.4-1.25-0.8-2.51-1.11-3.79
		c-0.07-0.28-0.13-0.55-0.19-0.83c-0.06,0.28-0.12,0.56-0.19,0.83c-0.31,1.29-0.71,2.54-1.11,3.79c-0.41,1.27-0.83,2.53-1.26,3.78
		c-0.18,0.52-0.36,1.04-0.55,1.56c0.18,0.52,0.37,1.04,0.55,1.56c0.43,1.26,0.86,2.52,1.26,3.78c0.4,1.25,0.8,2.51,1.11,3.79
		C11.73,65.25,11.79,65.53,11.85,65.81z M11.85,50.54c0.51,1.78,1.06,3.55,1.63,5.3c-0.57,1.76-1.12,3.52-1.63,5.3
		c-0.51-1.78-1.06-3.55-1.63-5.3C10.79,54.09,11.34,52.32,11.85,50.54z"/>
	<path d="M10.56,23.38c-0.41,1.27-0.83,2.53-1.26,3.78c-0.21,0.6-0.42,1.2-0.63,1.79c0.21,0.6,0.42,1.19,0.63,1.79
		c0.43,1.26,0.86,2.52,1.26,3.78c0.4,1.25,0.8,2.51,1.11,3.79c0.07,0.28,0.13,0.55,0.19,0.83c0.06-0.28,0.12-0.56,0.19-0.83
		c0.31-1.28,0.71-2.54,1.11-3.79c0.41-1.27,0.83-2.53,1.26-3.78c0.21-0.6,0.42-1.2,0.63-1.79c-0.21-0.59-0.42-1.19-0.63-1.79
		c-0.43-1.26-0.86-2.52-1.26-3.78c-0.4-1.25-0.8-2.51-1.11-3.79c-0.07-0.28-0.13-0.55-0.19-0.83c-0.06,0.28-0.12,0.56-0.19,0.83
		C11.36,20.88,10.96,22.13,10.56,23.38z M13.55,28.95c-0.6,1.83-1.17,3.68-1.7,5.53c-0.53-1.86-1.1-3.7-1.7-5.53
		c0.6-1.83,1.17-3.68,1.7-5.53C12.38,25.28,12.95,27.12,13.55,28.95z"/>
	<path d="M3.4,67.62V57.2v-2.02v-0.71v-1.55V42.51V40.5V30.09v-2.26v-2.02V15.39v-12h11.99h10.41h2.02h2.26H40.5h2.02h10.41h1.56
		h0.71h2.02h10.41h0.78V0h-0.78h-5.45h-6.98h-2.26h-3.4h-7.01H40.5H30.08h-2.26h-6.61h-5.82H0v15.39v5.82v6.61v2.26V40.5v2.02v7.01
		v3.4v2.26v6.98v5.45v0.78h3.4V67.62z M63.71,0.73c0.59,0,1.07,0.43,1.07,0.97c0,0.53-0.48,0.97-1.07,0.97
		c-0.59,0-1.07-0.43-1.07-0.97C62.63,1.16,63.11,0.73,63.71,0.73z M58.32,0.73c0.59,0,1.07,0.43,1.07,0.97
		c0,0.53-0.48,0.97-1.07,0.97c-0.59,0-1.07-0.43-1.07-0.97C57.25,1.16,57.73,0.73,58.32,0.73z M53.36,0.73
		c0.59,0,1.07,0.43,1.07,0.97c0,0.53-0.48,0.97-1.07,0.97c-0.59,0-1.07-0.43-1.07-0.97C52.29,1.16,52.77,0.73,53.36,0.73z
		 M47.98,0.73c0.59,0,1.07,0.43,1.07,0.97c0,0.53-0.48,0.97-1.07,0.97c-0.59,0-1.07-0.43-1.07-0.97
		C46.91,1.16,47.39,0.73,47.98,0.73z M42.43,0.73c0.03,0,0.05,0.01,0.08,0.01c0.03,0,0.05-0.01,0.08-0.01
		c0.59,0,1.07,0.43,1.07,0.97c0,0.53-0.48,0.97-1.07,0.97c-0.03,0-0.05,0-0.08-0.01c-0.03,0-0.05,0.01-0.08,0.01
		c-0.59,0-1.07-0.43-1.07-0.97C41.36,1.16,41.84,0.73,42.43,0.73z M37.05,0.73c0.59,0,1.07,0.43,1.07,0.97
		c0,0.53-0.48,0.97-1.07,0.97c-0.59,0-1.07-0.43-1.07-0.97C35.98,1.16,36.46,0.73,37.05,0.73z M31.66,0.73
		c0.59,0,1.07,0.43,1.07,0.97c0,0.53-0.48,0.97-1.07,0.97c-0.59,0-1.07-0.43-1.07-0.97C30.59,1.16,31.07,0.73,31.66,0.73z
		 M26.24,0.73c0.59,0,1.07,0.43,1.07,0.97c0,0.53-0.48,0.97-1.07,0.97c-0.59,0-1.07-0.43-1.07-0.97
		C25.17,1.16,25.65,0.73,26.24,0.73z M20.86,0.73c0.59,0,1.07,0.43,1.07,0.97c0,0.53-0.48,0.97-1.07,0.97
		c-0.59,0-1.07-0.43-1.07-0.97C19.79,1.16,20.27,0.73,20.86,0.73z M15.31,0.73c0.03,0,0.05,0.01,0.08,0.01
		c0.03,0,0.05-0.01,0.08-0.01c0.59,0,1.07,0.43,1.07,0.97c0,0.53-0.48,0.97-1.07,0.97c-0.03,0-0.05,0-0.08-0.01
		c-0.03,0-0.05,0.01-0.08,0.01c-0.59,0-1.07-0.43-1.07-0.97C14.24,1.16,14.72,0.73,15.31,0.73z M9.93,0.73
		C10.52,0.73,11,1.16,11,1.7c0,0.53-0.48,0.97-1.07,0.97c-0.59,0-1.07-0.43-1.07-0.97C8.86,1.16,9.34,0.73,9.93,0.73z M4.54,0.73
		c0.59,0,1.07,0.43,1.07,0.97c0,0.53-0.48,0.97-1.07,0.97c-0.59,0-1.07-0.43-1.07-0.97C3.47,1.16,3.95,0.73,4.54,0.73z M1.7,3.47
		c0.53,0,0.97,0.48,0.97,1.07c0,0.59-0.43,1.07-0.97,1.07c-0.53,0-0.97-0.48-0.97-1.07C0.73,3.95,1.16,3.47,1.7,3.47z M1.7,64.78
		c-0.53,0-0.97-0.48-0.97-1.07c0-0.59,0.43-1.07,0.97-1.07c0.53,0,0.97,0.48,0.97,1.07C2.67,64.3,2.23,64.78,1.7,64.78z M1.7,59.39
		c-0.53,0-0.97-0.48-0.97-1.07c0-0.59,0.43-1.07,0.97-1.07c0.53,0,0.97,0.48,0.97,1.07C2.67,58.91,2.23,59.39,1.7,59.39z M1.7,54.43
		c-0.53,0-0.97-0.48-0.97-1.07c0-0.59,0.43-1.07,0.97-1.07c0.53,0,0.97,0.48,0.97,1.07C2.67,53.95,2.23,54.43,1.7,54.43z M1.7,49.05
		c-0.53,0-0.97-0.48-0.97-1.07c0-0.59,0.43-1.07,0.97-1.07c0.53,0,0.97,0.48,0.97,1.07C2.67,48.57,2.23,49.05,1.7,49.05z
		 M2.67,42.59c0,0.59-0.43,1.07-0.97,1.07c-0.53,0-0.97-0.48-0.97-1.07c0-0.03,0.01-0.05,0.01-0.08c0-0.03-0.01-0.05-0.01-0.08
		c0-0.59,0.43-1.07,0.97-1.07c0.53,0,0.97,0.48,0.97,1.07c0,0.03,0,0.05-0.01,0.08C2.66,42.54,2.67,42.57,2.67,42.59z M1.7,38.12
		c-0.53,0-0.97-0.48-0.97-1.07c0-0.59,0.43-1.07,0.97-1.07c0.53,0,0.97,0.48,0.97,1.07C2.67,37.64,2.23,38.12,1.7,38.12z M1.7,32.74
		c-0.53,0-0.97-0.48-0.97-1.07c0-0.59,0.43-1.07,0.97-1.07c0.53,0,0.97,0.48,0.97,1.07C2.67,32.26,2.23,32.74,1.7,32.74z M1.7,27.32
		c-0.53,0-0.97-0.48-0.97-1.07c0-0.59,0.43-1.07,0.97-1.07c0.53,0,0.97,0.48,0.97,1.07C2.67,26.84,2.23,27.32,1.7,27.32z M1.7,21.93
		c-0.53,0-0.97-0.48-0.97-1.07c0-0.59,0.43-1.07,0.97-1.07c0.53,0,0.97,0.48,0.97,1.07C2.67,21.45,2.23,21.93,1.7,21.93z
		 M2.67,15.47c0,0.59-0.43,1.07-0.97,1.07c-0.53,0-0.97-0.48-0.97-1.07c0-0.03,0.01-0.05,0.01-0.08c0-0.03-0.01-0.05-0.01-0.08
		c0-0.59,0.43-1.07,0.97-1.07c0.53,0,0.97,0.48,0.97,1.07c0,0.03,0,0.05-0.01,0.08C2.66,15.42,2.67,15.45,2.67,15.47z M1.7,11
		c-0.53,0-0.97-0.48-0.97-1.07c0-0.59,0.43-1.07,0.97-1.07c0.53,0,0.97,0.48,0.97,1.07C2.67,10.52,2.23,11,1.7,11z"/>
	<path d="M23.7,67.62v-4.9v-7.53v-2.26v-3.95v-6.46V40.5V30.09v-2.26V23.7h4.12h2.26H40.5h2.02h6.46h3.95h2.26h7.53h4.9h0.78v-3.4
		h-0.78H57.2h-2.02h-0.71h-1.56H42.51H40.5H30.08h-2.26h-2.02H20.3v5.51v2.02v2.26V40.5v2.02v10.41v1.55v0.71v2.02v10.41v0.78h3.4
		V67.62z M63.71,21.03c0.59,0,1.07,0.43,1.07,0.97c0,0.53-0.48,0.97-1.07,0.97c-0.59,0-1.07-0.43-1.07-0.97
		C62.63,21.47,63.11,21.03,63.71,21.03z M58.32,21.03c0.59,0,1.07,0.43,1.07,0.97c0,0.53-0.48,0.97-1.07,0.97
		c-0.59,0-1.07-0.43-1.07-0.97C57.25,21.47,57.73,21.03,58.32,21.03z M53.36,21.03c0.59,0,1.07,0.43,1.07,0.97
		c0,0.53-0.48,0.97-1.07,0.97c-0.59,0-1.07-0.43-1.07-0.97C52.29,21.47,52.77,21.03,53.36,21.03z M47.98,21.03
		c0.59,0,1.07,0.43,1.07,0.97c0,0.53-0.48,0.97-1.07,0.97c-0.59,0-1.07-0.43-1.07-0.97C46.91,21.47,47.39,21.03,47.98,21.03z
		 M42.43,21.03c0.03,0,0.05,0,0.08,0.01c0.03,0,0.05-0.01,0.08-0.01c0.59,0,1.07,0.43,1.07,0.97c0,0.53-0.48,0.97-1.07,0.97
		c-0.03,0-0.05-0.01-0.08-0.01c-0.03,0-0.05,0.01-0.08,0.01c-0.59,0-1.07-0.43-1.07-0.97C41.36,21.47,41.84,21.03,42.43,21.03z
		 M37.05,21.03c0.59,0,1.07,0.43,1.07,0.97c0,0.53-0.48,0.97-1.07,0.97c-0.59,0-1.07-0.43-1.07-0.97
		C35.98,21.47,36.46,21.03,37.05,21.03z M31.66,21.03c0.59,0,1.07,0.43,1.07,0.97c0,0.53-0.48,0.97-1.07,0.97
		c-0.59,0-1.07-0.43-1.07-0.97C30.59,21.47,31.07,21.03,31.66,21.03z M26.24,21.03c0.59,0,1.07,0.43,1.07,0.97
		c0,0.53-0.48,0.97-1.07,0.97c-0.59,0-1.07-0.43-1.07-0.97C25.17,21.47,25.65,21.03,26.24,21.03z M22,25.17
		c0.53,0,0.97,0.48,0.97,1.07c0,0.59-0.43,1.07-0.97,1.07c-0.53,0-0.97-0.48-0.97-1.07C21.03,25.65,21.47,25.17,22,25.17z M22,64.78
		c-0.53,0-0.97-0.48-0.97-1.07c0-0.59,0.43-1.07,0.97-1.07c0.53,0,0.97,0.48,0.97,1.07C22.97,64.3,22.54,64.78,22,64.78z M22,59.39
		c-0.53,0-0.97-0.48-0.97-1.07c0-0.59,0.43-1.07,0.97-1.07c0.53,0,0.97,0.48,0.97,1.07C22.97,58.91,22.54,59.39,22,59.39z M22,54.43
		c-0.53,0-0.97-0.48-0.97-1.07c0-0.59,0.43-1.07,0.97-1.07c0.53,0,0.97,0.48,0.97,1.07C22.97,53.95,22.54,54.43,22,54.43z M22,49.05
		c-0.53,0-0.97-0.48-0.97-1.07c0-0.59,0.43-1.07,0.97-1.07c0.53,0,0.97,0.48,0.97,1.07C22.97,48.57,22.54,49.05,22,49.05z
		 M22.97,42.59c0,0.59-0.43,1.07-0.97,1.07c-0.53,0-0.97-0.48-0.97-1.07c0-0.03,0-0.05,0.01-0.08c0-0.03-0.01-0.05-0.01-0.08
		c0-0.59,0.43-1.07,0.97-1.07c0.53,0,0.97,0.48,0.97,1.07c0,0.03-0.01,0.05-0.01,0.08C22.96,42.54,22.97,42.57,22.97,42.59z
		 M22,38.12c-0.53,0-0.97-0.48-0.97-1.07c0-0.59,0.43-1.07,0.97-1.07c0.53,0,0.97,0.48,0.97,1.07C22.97,37.64,22.54,38.12,22,38.12z
		 M22,32.74c-0.53,0-0.97-0.48-0.97-1.07c0-0.59,0.43-1.07,0.97-1.07c0.53,0,0.97,0.48,0.97,1.07C22.97,32.26,22.54,32.74,22,32.74z
		"/>
	<path d="M13.98,68.39c0.12-0.2,0.23-0.41,0.36-0.61c0.25-0.4,0.51-0.78,0.79-1.15c0.36-0.48,0.73-0.96,1.08-1.45
		c0.76-1.06,1.47-2.15,2.15-3.27v5.7v0.78h1.6v-0.78V57.2v-2.02v-0.71v-1.55V42.51V40.5V30.09v-2.26v-2.02v-5.85h5.85h2.02h2.26
		H40.5h2.02h10.41h1.56h0.71h2.02h10.41h0.78v-1.6h-0.78h-5.7c1.12-0.68,2.21-1.39,3.27-2.15c0.49-0.35,0.97-0.72,1.45-1.08
		c0.37-0.28,0.76-0.54,1.15-0.79c0.2-0.12,0.4-0.24,0.61-0.36c0,0,0,0,0,0v-0.68c0,0,0,0,0,0c-0.23,0.11-0.46,0.22-0.68,0.34
		c-0.56,0.29-1.11,0.61-1.63,0.96c-0.52,0.34-1.04,0.7-1.56,1.04c-0.54,0.35-1.08,0.68-1.63,1c-1.02,0.6-2.06,1.17-3.12,1.71h-1.55
		h-1h-2.02h-0.71h-1.56h-1c-1.06-0.54-2.1-1.11-3.12-1.71c-0.55-0.32-1.09-0.66-1.63-1c-0.53-0.34-1.04-0.7-1.56-1.04
		c-0.53-0.34-1.07-0.67-1.63-0.96c-0.29-0.15-0.57-0.29-0.87-0.43c-0.14-0.06-0.28-0.13-0.41-0.19c-0.06-0.03-0.12-0.05-0.18-0.08
		c-0.06,0.03-0.12,0.05-0.18,0.08c-0.14,0.06-0.28,0.12-0.41,0.19c-0.29,0.14-0.58,0.28-0.87,0.43c-0.56,0.29-1.11,0.61-1.63,0.96
		c-0.52,0.34-1.04,0.7-1.56,1.04c-0.54,0.35-1.08,0.68-1.63,1c-1.02,0.6-2.06,1.17-3.12,1.71h-2.02h-1h-2.26h-2.02h-1
		c-1.06-0.54-2.11-1.11-3.12-1.71c-0.55-0.32-1.1-0.66-1.63-1c-0.53-0.34-1.04-0.7-1.56-1.04c-0.53-0.34-1.07-0.67-1.63-0.96
		c-0.29-0.15-0.57-0.29-0.87-0.43c-0.14-0.06-0.28-0.13-0.41-0.19c-0.06-0.03-0.12-0.05-0.18-0.08c-0.06,0.03-0.12,0.05-0.18,0.08
		c-0.14,0.06-0.28,0.12-0.41,0.19c-0.29,0.14-0.58,0.28-0.87,0.43c-0.06,0.03-0.12,0.07-0.19,0.1c-0.03,0.06-0.07,0.12-0.1,0.19
		c-0.15,0.28-0.29,0.57-0.43,0.87c-0.06,0.14-0.13,0.28-0.19,0.42c-0.03,0.06-0.05,0.12-0.08,0.18c0.03,0.06,0.05,0.12,0.08,0.18
		c0.06,0.14,0.12,0.28,0.19,0.41c0.14,0.29,0.28,0.58,0.43,0.87c0.29,0.56,0.61,1.11,0.96,1.63c0.34,0.52,0.7,1.04,1.04,1.56
		c0.34,0.54,0.68,1.08,1,1.63c0.6,1.02,1.17,2.06,1.71,3.12v1v2.02v2.26v1v2.02c-0.54,1.06-1.11,2.11-1.71,3.12
		c-0.32,0.55-0.66,1.09-1,1.63c-0.34,0.53-0.7,1.04-1.04,1.56c-0.34,0.53-0.67,1.07-0.96,1.63c-0.15,0.29-0.29,0.57-0.43,0.87
		c-0.06,0.14-0.13,0.28-0.19,0.41c-0.03,0.06-0.05,0.12-0.08,0.18c0.03,0.06,0.05,0.12,0.08,0.18c0.06,0.14,0.12,0.28,0.19,0.41
		c0.14,0.29,0.28,0.58,0.43,0.87c0.29,0.56,0.61,1.11,0.96,1.63c0.34,0.52,0.7,1.04,1.04,1.56c0.34,0.54,0.68,1.08,1,1.63
		c0.6,1.02,1.17,2.06,1.71,3.12v1v1.55v0.71v2.02v1v1.55c-0.54,1.06-1.11,2.11-1.71,3.12c-0.32,0.55-0.66,1.09-1,1.63
		c-0.34,0.53-0.7,1.04-1.04,1.56c-0.34,0.53-0.67,1.07-0.96,1.63c-0.12,0.22-0.23,0.45-0.34,0.68c0,0,0,0,0,0L13.98,68.39
		C13.99,68.4,13.98,68.4,13.98,68.39z M38.52,16.21c0.49-0.35,0.97-0.72,1.45-1.08c0.37-0.28,0.76-0.54,1.16-0.79
		c0.27-0.17,0.55-0.33,0.83-0.49c0.14-0.08,0.29-0.16,0.43-0.24c0.04-0.02,0.08-0.04,0.12-0.07c0.04,0.02,0.08,0.04,0.12,0.07
		c0.14,0.08,0.29,0.16,0.43,0.24c0.28,0.16,0.56,0.32,0.83,0.49c0.4,0.25,0.78,0.51,1.15,0.79c0.48,0.36,0.96,0.73,1.45,1.08
		c1.06,0.76,2.15,1.47,3.27,2.15h-2.02h-5.24H40.5h-5.24C36.38,17.68,37.47,16.97,38.52,16.21z M16.21,19.38
		c-0.35-0.49-0.72-0.97-1.08-1.45c-0.28-0.37-0.54-0.76-0.79-1.16c-0.17-0.27-0.33-0.55-0.49-0.83c-0.08-0.14-0.16-0.29-0.24-0.43
		c-0.02-0.04-0.04-0.08-0.07-0.12c0.02-0.04,0.04-0.08,0.07-0.12c0.08-0.15,0.16-0.29,0.24-0.43c0.12-0.21,0.24-0.42,0.37-0.62
		c0.21-0.12,0.41-0.25,0.62-0.37c0.14-0.08,0.29-0.16,0.43-0.24c0.04-0.02,0.08-0.04,0.12-0.07c0.04,0.02,0.08,0.04,0.12,0.07
		c0.15,0.08,0.29,0.16,0.43,0.24c0.28,0.16,0.55,0.32,0.83,0.49c0.4,0.25,0.78,0.51,1.16,0.79c0.48,0.36,0.96,0.73,1.45,1.08
		c1.06,0.76,2.15,1.47,3.27,2.15h-4.29v4.29C17.68,21.53,16.97,20.44,16.21,19.38z M16.21,46.5c-0.35-0.49-0.72-0.97-1.08-1.45
		c-0.28-0.37-0.54-0.76-0.79-1.15c-0.17-0.27-0.33-0.55-0.49-0.83c-0.08-0.14-0.16-0.29-0.24-0.43c-0.02-0.04-0.04-0.08-0.07-0.12
		c0.02-0.04,0.04-0.08,0.07-0.12c0.08-0.15,0.16-0.29,0.24-0.43c0.16-0.28,0.32-0.55,0.49-0.83c0.25-0.4,0.51-0.78,0.79-1.16
		c0.36-0.48,0.73-0.96,1.08-1.45c0.76-1.06,1.47-2.15,2.15-3.27v5.24v2.02v5.24v2.02C17.68,48.65,16.97,47.56,16.21,46.5z"/>
	<path d="M5.34,67.62v-5.7c0.68,1.12,1.39,2.21,2.15,3.27c0.35,0.49,0.72,0.97,1.08,1.45c0.28,0.37,0.54,0.76,0.79,1.15
		c0.12,0.2,0.24,0.4,0.36,0.61c0,0,0,0,0,0h0.68c0,0,0,0,0,0c-0.11-0.23-0.22-0.46-0.34-0.68c-0.29-0.56-0.61-1.11-0.96-1.63
		c-0.34-0.52-0.7-1.04-1.04-1.56c-0.34-0.54-0.68-1.08-1-1.63c-0.6-1.02-1.17-2.06-1.71-3.12v-1.55v-1v-2.02v-0.71v-1.55v-1
		c0.54-1.06,1.11-2.11,1.71-3.12c0.32-0.55,0.66-1.09,1-1.63c0.34-0.53,0.7-1.04,1.04-1.56c0.34-0.53,0.67-1.07,0.96-1.63
		c0.15-0.29,0.29-0.57,0.43-0.87c0.06-0.14,0.13-0.28,0.19-0.41c0.03-0.06,0.05-0.12,0.08-0.18c-0.03-0.06-0.05-0.12-0.08-0.18
		c-0.06-0.14-0.12-0.28-0.19-0.41c-0.14-0.29-0.28-0.58-0.43-0.87c-0.29-0.56-0.61-1.11-0.96-1.63c-0.34-0.53-0.7-1.04-1.04-1.56
		c-0.34-0.54-0.68-1.08-1-1.63c-0.6-1.02-1.17-2.06-1.71-3.12v-2.02v-1v-2.26v-2.02v-1c0.54-1.06,1.11-2.11,1.71-3.12
		c0.32-0.55,0.66-1.09,1-1.63c0.34-0.53,0.7-1.04,1.04-1.56c0.34-0.53,0.67-1.07,0.96-1.63c0.15-0.29,0.29-0.57,0.43-0.87
		c0.06-0.14,0.13-0.28,0.19-0.41c0.03-0.06,0.05-0.12,0.08-0.18c-0.03-0.06-0.05-0.12-0.08-0.18c-0.06-0.14-0.12-0.28-0.19-0.42
		c-0.14-0.29-0.28-0.58-0.43-0.87c-0.29-0.56-0.61-1.11-0.96-1.63c-0.34-0.52-0.7-1.04-1.04-1.56c-0.34-0.54-0.68-1.08-1-1.63
		c-0.6-1.02-1.17-2.06-1.71-3.12V5.34h0.65c1.06,0.54,2.11,1.11,3.12,1.71c0.55,0.32,1.09,0.66,1.63,1c0.53,0.34,1.04,0.7,1.56,1.04
		c0.53,0.34,1.07,0.67,1.63,0.96c0.29,0.15,0.57,0.29,0.87,0.43c0.14,0.06,0.28,0.13,0.41,0.19c0.06,0.03,0.12,0.05,0.18,0.08
		c0.06-0.03,0.12-0.05,0.18-0.08c0.14-0.06,0.28-0.12,0.41-0.19c0.29-0.14,0.58-0.28,0.87-0.43c0.56-0.29,1.11-0.61,1.63-0.96
		c0.53-0.34,1.04-0.7,1.56-1.04c0.54-0.35,1.08-0.68,1.63-1c1.02-0.6,2.06-1.17,3.12-1.71h1h2.02h2.26h1h2.02
		c1.06,0.54,2.11,1.11,3.12,1.71c0.55,0.32,1.09,0.66,1.63,1c0.53,0.34,1.04,0.7,1.56,1.04c0.53,0.34,1.07,0.67,1.63,0.96
		c0.29,0.15,0.57,0.29,0.87,0.43c0.14,0.06,0.28,0.13,0.41,0.19c0.06,0.03,0.12,0.05,0.18,0.08c0.06-0.03,0.12-0.05,0.18-0.08
		c0.14-0.06,0.28-0.12,0.41-0.19c0.29-0.14,0.58-0.28,0.87-0.43c0.56-0.29,1.11-0.61,1.63-0.96c0.52-0.34,1.04-0.7,1.56-1.04
		c0.54-0.35,1.08-0.68,1.63-1c1.02-0.6,2.06-1.17,3.12-1.71h1h1.56h0.71h2.02h1h1.55c1.06,0.54,2.1,1.11,3.12,1.71
		c0.55,0.32,1.09,0.66,1.63,1c0.53,0.34,1.04,0.7,1.56,1.04c0.53,0.34,1.07,0.67,1.63,0.96c0.22,0.12,0.45,0.23,0.68,0.34
		c0,0,0,0,0,0V9.71c0,0,0,0,0,0c-0.2-0.12-0.41-0.23-0.61-0.36c-0.4-0.25-0.78-0.51-1.15-0.79c-0.48-0.36-0.96-0.73-1.45-1.08
		c-1.06-0.76-2.15-1.47-3.27-2.15h5.7h0.78v-1.6h-0.78H57.2h-2.02h-0.71h-1.56H42.51H40.5H30.08h-2.26h-2.02H15.39H3.74v11.65v10.41
		v2.02v2.26V40.5v2.02v10.41v1.55v0.71v2.02v10.41v0.78h1.6V67.62z M40.5,5.34h2.02h5.24h2.02c-1.12,0.68-2.21,1.39-3.27,2.15
		c-0.49,0.35-0.97,0.72-1.45,1.08c-0.37,0.28-0.76,0.54-1.15,0.79c-0.27,0.17-0.55,0.33-0.83,0.49c-0.14,0.08-0.29,0.16-0.43,0.24
		c-0.04,0.02-0.08,0.04-0.12,0.07c-0.04-0.02-0.08-0.04-0.12-0.07c-0.15-0.08-0.29-0.16-0.43-0.24c-0.28-0.16-0.55-0.32-0.83-0.49
		c-0.4-0.25-0.78-0.51-1.16-0.79c-0.48-0.36-0.96-0.73-1.45-1.08c-1.06-0.76-2.15-1.47-3.27-2.15H40.5z M15.39,5.34h7.26
		c-1.12,0.68-2.21,1.39-3.27,2.15c-0.49,0.35-0.97,0.72-1.45,1.08c-0.37,0.28-0.76,0.54-1.16,0.79c-0.27,0.17-0.55,0.33-0.83,0.49
		c-0.14,0.08-0.29,0.16-0.43,0.24c-0.04,0.02-0.08,0.04-0.12,0.07c-0.04-0.02-0.08-0.04-0.12-0.07c-0.14-0.08-0.29-0.16-0.43-0.24
		c-0.28-0.16-0.56-0.32-0.83-0.49c-0.4-0.25-0.78-0.51-1.16-0.79c-0.48-0.36-0.96-0.73-1.45-1.08c-1.06-0.76-2.15-1.47-3.27-2.15
		H15.39z M5.34,15.39V8.14c0.68,1.12,1.39,2.21,2.15,3.27c0.35,0.49,0.72,0.97,1.08,1.45c0.28,0.37,0.54,0.76,0.79,1.15
		c0.17,0.27,0.33,0.55,0.49,0.83c0.08,0.14,0.16,0.29,0.24,0.43c0.02,0.04,0.04,0.08,0.07,0.12c-0.02,0.04-0.04,0.08-0.07,0.12
		c-0.08,0.15-0.16,0.29-0.24,0.43c-0.16,0.28-0.32,0.55-0.49,0.83c-0.25,0.4-0.51,0.78-0.79,1.16c-0.36,0.48-0.73,0.96-1.08,1.45
		c-0.76,1.06-1.47,2.15-2.15,3.27V15.39z M5.34,47.75v-5.24V40.5v-5.24c0.68,1.12,1.39,2.21,2.15,3.27
		c0.35,0.49,0.72,0.97,1.08,1.45c0.28,0.37,0.54,0.76,0.79,1.16c0.17,0.27,0.33,0.55,0.49,0.83c0.08,0.14,0.16,0.29,0.24,0.43
		c0.02,0.04,0.04,0.08,0.07,0.12c-0.02,0.04-0.04,0.08-0.07,0.12c-0.08,0.15-0.16,0.29-0.24,0.43c-0.16,0.28-0.32,0.56-0.49,0.83
		c-0.25,0.4-0.51,0.78-0.79,1.15c-0.36,0.48-0.73,0.96-1.08,1.45c-0.76,1.06-1.47,2.15-2.15,3.27V47.75z"/>
</g>
</svg>
