<?xml version="1.0" encoding="utf-8"?>
<!-- Generator: Adobe Illustrator 23.0.3, SVG Export Plug-In . SVG Version: 6.00 Build 0)  -->
<svg version="1.1" id="Layer_1" xmlns="http://www.w3.org/2000/svg" xmlns:xlink="http://www.w3.org/1999/xlink" x="0px" y="0px"
	 viewBox="0 0 70 70.46" style="enable-background:new 0 0 70 70.46;" xml:space="preserve">
<g>
	<rect x="10.17" y="13.92" width="0.45" height="42.01"/>
	<rect x="13.87" y="10.67" width="41.57" height="0.45"/>
	<g>
		<path d="M3.73,63.6c1.04,0.31,2.5-0.47,2.5-0.47s-1.46,1.09-1.56,2.34c-0.11,1.25,1.77,3.12,1.77,3.12l1.86,1.83v0.05l0.03-0.02
			l0.02,0.02v-0.05l1.86-1.83c0,0,1.87-1.87,1.77-3.12c-0.1-1.25-1.56-2.34-1.56-2.34s1.46,0.78,2.5,0.47
			c1.04-0.31,1.25-1.25,1.15-2.5c-0.1-1.25-1.98-2.5-1.98-2.5s0.94,1.25-0.94,2.65c-1.87,1.4-2.81-2.97-2.81-2.97H8.31
			c0,0-0.94,4.37-2.81,2.97c-1.87-1.41-0.94-2.65-0.94-2.65s-1.87,1.25-1.98,2.5C2.48,62.35,2.68,63.28,3.73,63.6z"/>
		<polygon points="8.76,61.87 8.76,13.01 7.88,12.16 7.88,61.87 		"/>
	</g>
	<g>
		<path d="M63.13,4.22c0.31,1.04-0.47,2.5-0.47,2.5s1.09-1.46,2.34-1.56c1.25-0.1,3.12,1.77,3.12,1.77l1.83,1.86H70l-0.03,0.03
			L70,8.83h-0.05l-1.83,1.86c0,0-1.87,1.87-3.12,1.77c-1.25-0.1-2.34-1.56-2.34-1.56s0.78,1.46,0.47,2.5
			c-0.31,1.04-1.25,1.25-2.5,1.15c-1.25-0.1-2.5-1.98-2.5-1.98s1.25,0.94,2.65-0.94c1.41-1.87-2.97-2.81-2.97-2.81V8.8
			c0,0,4.37-0.94,2.97-2.81c-1.41-1.87-2.65-0.94-2.65-0.94s1.25-1.87,2.5-1.98C61.88,2.97,62.82,3.18,63.13,4.22z"/>
		<polygon points="61.41,9.25 12.99,9.25 12.14,8.37 61.41,8.37 		"/>
	</g>
	<g>
		<path d="M14.99,5.06c1.15-2.94,1.3-3.42,2.23-5.02c0.02-0.04-0.07,0.04-0.25,0.21c0.17-0.18,0.24-0.27,0.21-0.25
			c-1.57,0.97-2.04,1.13-4.95,2.36c-2.51,1.06-1.88,3.66-1.66,4.36c-0.04,0.04-0.06,0.06-0.06,0.06s0.03,0.01,0.09,0.03
			c0.02,0.05,0.03,0.09,0.03,0.09s0.02-0.02,0.06-0.06C11.39,7.04,14,7.59,14.99,5.06z"/>
		<path d="M5.06,14.99c-2.94,1.15-3.42,1.3-5.01,2.23c-0.04,0.02,0.04-0.07,0.21-0.25C0.07,17.14-0.02,17.21,0,17.18
			c0.97-1.57,1.14-2.04,2.36-4.95c1.06-2.51,3.66-1.88,4.35-1.66c0.04-0.04,0.06-0.06,0.06-0.06s0.01,0.03,0.03,0.09
			c0.06,0.02,0.09,0.03,0.09,0.03s-0.02,0.02-0.06,0.06C7.04,11.39,7.59,14,5.06,14.99z"/>
		<path d="M3.29,5.6c-1.15-2.94-1.3-3.42-2.23-5.01C1.04,0.54,1.13,0.63,1.31,0.79C1.14,0.61,1.06,0.52,1.1,0.54
			C2.67,1.51,3.14,1.68,6.05,2.9c2.51,1.06,1.88,3.66,1.66,4.35C7.75,7.3,7.77,7.32,7.77,7.32S7.74,7.33,7.68,7.35
			C7.66,7.4,7.65,7.44,7.65,7.44S7.63,7.41,7.59,7.38C6.89,7.58,4.27,8.13,3.29,5.6z"/>
	</g>
	<rect x="9.24" y="9.29" transform="matrix(0.7073 -0.7069 0.7069 0.7073 -4.5291 10.8504)" width="3.21" height="3.21"/>
</g>
</svg>
