<?xml version="1.0" encoding="utf-8"?>
<!-- Generator: Adobe Illustrator 23.0.3, SVG Export Plug-In . SVG Version: 6.00 Build 0)  -->
<svg version="1.1" id="Layer_1" xmlns="http://www.w3.org/2000/svg" xmlns:xlink="http://www.w3.org/1999/xlink" x="0px" y="0px"
	 viewBox="0 0 60.59 66.14" style="enable-background:new 0 0 60.59 66.14;" xml:space="preserve">
<g>
	<path d="M20.84,16.17c-0.11,0.04-0.22,0.09-0.32,0.15c0.22-0.77,0.04-1.66-0.53-2.24c-0.77-0.8-1.97-0.73-2.68,0.14
		c-0.71,0.87-0.65,2.23,0.12,3.03c0.04,0.04,0.09,0.09,0.14,0.12c-0.48,0.04-1.26,0.09-1.48,0.1c0.2-0.67,0.36-1.38,0.45-2.1
		c0.11-0.91,0.11-1.74,0.02-2.49c1.5-1.21,2.67-3.35,2.77-5.99c0.15-3.71-3.75-5.88-6.61-3.01c1.25-0.43,2.72-0.17,2.4,1.98
		c-0.28,1.88,0.97,3.36,3.02,2.73c-0.07,1.21-0.76,2.54-1.7,3.47c-0.64-3.01-2.75-4.53-4.24-4.85c-1.56-0.33-3.27,0.01-4.86,1.06
		c-0.93,1.79-1.24,3.73-0.94,5.49c0.28,1.68,1.63,4.06,4.29,4.79c-0.82,1.07-2,1.84-3.07,1.92c0.56-2.31-0.75-3.73-2.42-3.41
		c-1.9,0.37-2.13-1.29-1.76-2.7C0.89,17.59,2.81,22,6.1,21.83c2.34-0.12,4.23-1.44,5.31-3.13c0.67,0.1,1.4,0.1,2.21-0.03
		c0.64-0.1,1.27-0.28,1.86-0.5c-0.01,0.24-0.05,1.13-0.09,1.67c-0.03-0.05-0.07-0.1-0.11-0.15c-0.71-0.87-1.91-0.94-2.68-0.14
		c-0.77,0.8-0.83,2.15-0.12,3.03c0.52,0.64,1.3,0.84,1.98,0.59c-0.05,0.11-0.1,0.23-0.14,0.36c-0.32,1.13,0.23,2.33,1.23,2.69
		c1,0.36,2.07-0.26,2.38-1.39c0.23-0.83,0-1.69-0.53-2.24c0.11-0.01,0.23-0.02,0.35-0.05c0.56-0.14,1.01-0.55,1.26-1.08
		c0.47-0.29,0.83-0.79,0.95-1.43c0.03-0.13,0.04-0.26,0.04-0.39c0.48,0.6,1.25,0.87,1.98,0.6c1-0.36,1.55-1.56,1.23-2.69
		C22.9,16.43,21.83,15.81,20.84,16.17z M14.29,10.54c0.56,0.3,1.05,1.09,1.34,2.16c-1.29,0.83-2.84,0.89-4.03-0.73
		c-0.1-0.13-0.09-0.19,0.03-0.33C12.4,10.64,13.63,10.2,14.29,10.54z M8.39,14.51c-0.25-1.5,0.1-3,0.79-4.15
		c1.01-0.78,2.35-1.17,3.67-0.89C12.99,9.5,13,9.56,12.88,9.6c-1.02,0.33-2.03,1.06-2.6,2c-0.84,0.65-1.48,1.78-1.77,2.94
		C8.47,14.68,8.41,14.66,8.39,14.51z M11.25,17.65c-0.95-0.33-1.65-0.89-1.92-1.52c-0.31-0.74,0.09-2.13,0.98-3.01
		c0.13-0.13,0.18-0.14,0.3-0.03C12.04,14.44,11.99,16.19,11.25,17.65z M11.88,17.82c0.68-1.54,0.7-3.25-0.17-4.61
		c1.2,0.98,2.72,0.96,4.08,0.19c0.21,1.19,0.18,2.63-0.22,4.08c-0.03,0-0.05,0-0.08,0c0,0.03,0,0.06,0,0.09
		C14.2,18.03,12.93,18.06,11.88,17.82z M15.55,22.14c0.09-0.18,0.15-0.37,0.18-0.56c0.09,0.17,0.21,0.33,0.34,0.46
		C15.89,22.04,15.72,22.08,15.55,22.14z M16.45,18.57c-0.23,0.14-0.43,0.32-0.58,0.54c0.03-0.49,0.05-0.99,0.07-1.12
		c0.12-0.02,0.56-0.04,1-0.08C16.73,18.09,16.57,18.31,16.45,18.57z M19.52,18.14c-0.12-0.15-0.25-0.28-0.41-0.38
		c0.17-0.04,0.34-0.11,0.5-0.21C19.55,17.74,19.52,17.94,19.52,18.14z"/>
	<path d="M5.73,10.84c0.36,0.01,0.33-0.23,0.08-0.6c-0.2-0.29-0.66-0.55-0.59-1.29C5.28,8.43,5.51,8.1,5.84,7.61
		c0.14-0.2,0.23-0.44,0.28-0.7C6.35,6.85,6.57,6.75,6.74,6.6C7.18,6.22,7.47,5.96,7.93,5.9c0.65-0.08,0.89,0.44,1.14,0.66
		C9.39,6.85,9.61,6.88,9.6,6.47C9.54,4.52,7.69,2.56,5.89,2.72C4.87,2.81,4.01,3.19,3.31,3.74C2.82,4.53,2.49,5.5,2.41,6.65
		C2.27,8.68,4.01,10.77,5.73,10.84z"/>
	<path d="M16.11,35.17c-0.01-0.12-0.03-0.63-0.06-1.13c0.26,0.37,0.63,0.65,1.07,0.77c1.02,0.27,2.04-0.45,2.27-1.61
		c0.24-1.15-0.4-2.3-1.42-2.57c-0.12-0.03-0.23-0.05-0.35-0.05c0.54-0.54,0.78-1.4,0.56-2.23c-0.31-1.13-1.37-1.77-2.37-1.42
		c-1,0.35-1.57,1.54-1.26,2.68c0.03,0.13,0.08,0.25,0.13,0.36c-0.68-0.26-1.47-0.06-1.99,0.57c-0.71,0.87-0.67,2.22,0.09,3.03
		c0.77,0.81,1.97,0.76,2.68-0.11c0.04-0.05,0.08-0.1,0.11-0.15c0.03,0.54,0.06,1.42,0.07,1.67c-0.59-0.24-1.21-0.42-1.86-0.53
		c-0.81-0.14-1.54-0.14-2.21-0.06c-1.06-1.7-2.94-3.05-5.28-3.19c-3.28-0.21-5.25,4.17-2.74,7.43c-0.36-1.42-0.12-3.07,1.78-2.68
		c1.66,0.34,2.98-1.05,2.45-3.37c1.08,0.1,2.24,0.88,3.05,1.96c-2.67,0.69-4.05,3.06-4.34,4.73c-0.43,2.45,0.28,5.27,2.28,7.57
		c-0.95,1.17-1.63,2.61-1.88,4.19c-0.79-0.19-1.46-0.67-1.72-1.43c-0.2-0.58-0.12-0.71,0.52-1.52c0.62-0.78,0.65-1.97,0.19-2.66
		c-0.33-0.49-0.55-0.83-0.6-1.35c-0.06-0.74,0.4-1,0.6-1.28c0.26-0.36,0.28-0.61-0.08-0.6c-1.73,0.04-3.49,2.11-3.36,4.15
		c0.19,3.12,2.21,4.99,4.37,5.38c-0.08,1.09,0.04,2.24,0.43,3.4c-0.15,0.05-0.31,0.09-0.48,0.12c-0.09,0.02-0.2-0.01-0.19-0.2
		c0.03-0.95-0.3-1.81-0.49-2.05c-0.59-0.74-1.33-0.6-1.75-0.21c-0.27,0.25-0.5,0.42-0.74,0.45c-0.42,0.05-0.63-0.26-0.55-0.56
		c0.05-0.18,0.03-0.23-0.15-0.29c-0.22-0.07-0.92-0.01-1,0.83c-0.05,0.5,0.15,1.17,0.76,1.63C2.78,54.89,2.84,55,2.77,55.1
		c-0.06,0.08-0.18,0.06-0.26-0.02c-0.56-0.53-1.92-0.83-2.12,0.6c-0.05,0.39-0.2,0.83-0.34,1.11c-0.05,0.12-0.09,0.19,0.06,0.29
		c0.28,0.19,0.67,0.52,0.98,0.81c0.73,0.67,1.45,0.33,2-0.9c0.04-0.08,0.13-0.13,0.19-0.1c0.11,0.06,0.11,0.18,0.04,0.31
		c-0.32,0.54-0.5,1.05-0.47,1.64c0.04,0.69,0.66,1.43,1.28,1.22c0.2-0.06,0.35-0.21,0.19-0.45c-0.21-0.31-0.03-0.73,0.37-0.81v2.01
		c-1.13,0.33-1.95,1.37-1.95,2.61c0,1.5,1.22,2.72,2.72,2.72c1.5,0,2.72-1.22,2.72-2.72c0-1.27-0.87-2.33-2.05-2.63v-1.87
		c1.22-0.14,1.48-1.3,0.77-2.69c-0.12-0.23-0.07-0.38,0-0.4c0.2-0.06,0.39-0.13,0.58-0.21c1.84,4.58,7.35,4.35,8.66-0.33
		c0.15-0.54,0.04-0.7-0.27-0.79c-2.96-0.87-4.47,0.14-4.8,1.85c-0.19,0.99-0.91,1.36-1.9,0.67c-0.52-0.36-0.94-0.92-1.25-1.59
		c2.14-0.97,3.55-2.71,3.67-5.38c0.06-1.3-0.54-2.31-0.99-2.93c-0.24-0.33-0.14-0.8,0.16-1.19c0.3-0.21,0.6-0.43,0.87-0.61
		c0.04-0.02,0.09-0.03,0.14-0.04c0.57-0.14,1.39,0.03,1.88,0.48c0.49,0.46,0.68,0.33,0.84,0.14c0.17-0.19,0.05-0.48-0.24-0.82
		c-0.1-0.12-0.28-0.26-0.26-0.44c0.01-0.04,0.01-0.08,0.01-0.11c0.03-0.38-0.13-0.57-0.43-0.53c-0.69,0.1-1.37,0.32-2.01,0.64
		c-1.98-0.57-3.49-3.35-3-6.08c0.03-0.15,0.08-0.17,0.12-0.03c0.41,1.67,1.54,3.3,2.95,3.52c2.87,0.44,4.71-2.39,4.55-6.27
		c1.48,0.67,2.94,1.94,4.07,4.04c0.08,0.15,0,0.18-0.08,0.13c-0.08-0.07-0.27-0.1-0.39-0.1c-1.05,0.11-1.72,1.78-1.57,3.8
		c0.16,2.02,1.13,3.49,2.19,3.46c1.13-0.03,1.73-1.82,1.74-3.85C22.12,40.49,19.68,36.8,16.11,35.17z M10.93,51.02
		c-0.2,1.59-1.4,3.22-3.23,3.94c-0.33-0.94-0.47-2.05-0.39-3.19c1.17,0.09,2.34-0.24,3.25-1.04C10.85,50.48,10.97,50.72,10.93,51.02
		z M10.35,48.03c0.3,0.69,0.46,1.74-0.36,2.34c-0.77,0.57-1.73,0.8-2.6,0.72c0.19-1.22,0.64-2.44,1.39-3.48
		C9.19,47.05,9.93,47.06,10.35,48.03z M10.44,39.95c-0.88-0.89-1.26-2.29-0.95-3.02c0.27-0.63,0.98-1.17,1.93-1.49
		c0.72,1.46,0.75,3.21-0.69,4.55C10.62,40.1,10.57,40.09,10.44,39.95z M11.4,40.64c-0.09-0.04-0.07-0.13,0-0.2
		c1.32-1.4,1.42-3.39,0.66-5.17c1.06-0.22,2.33-0.17,3.61,0.3C15.6,39.37,13.6,41.68,11.4,40.64z M15.77,31
		c0.17,0.06,0.34,0.1,0.52,0.11c-0.13,0.13-0.25,0.29-0.34,0.46C15.91,31.37,15.85,31.18,15.77,31z M21.1,43.07
		c0.03,1.14-0.41,2.07-0.96,2.09c-0.56,0.01-1.03-0.89-1.05-2.03c-0.03-1.14,0.41-2.07,0.96-2.09C20.6,41.02,21.07,41.93,21.1,43.07
		z"/>
	<path d="M57.87,3.54c-1.16,0-2.15,0.73-2.54,1.75h-3.25c0.07-0.45,0.44-0.65,0.72-0.42c0.21,0.18,0.34,0.01,0.39-0.21
		c0.18-0.71-0.47-1.4-1.08-1.45c-0.52-0.04-0.98,0.17-1.45,0.53c-0.11,0.08-0.22,0.08-0.27-0.04c-0.03-0.07,0.01-0.18,0.09-0.22
		c1.09-0.62,1.39-1.43,0.79-2.26c-0.26-0.35-0.55-0.79-0.72-1.11c-0.09-0.16-0.15-0.12-0.25-0.07c-0.25,0.16-0.64,0.32-0.98,0.38
		c-1.26,0.22-1,1.76-0.53,2.4c0.07,0.09,0.09,0.23,0.02,0.3c-0.09,0.08-0.19,0.01-0.25-0.09c-0.4-0.69-0.99-0.92-1.44-0.86
		c-0.74,0.1-0.8,0.88-0.73,1.13c0.05,0.2,0.1,0.23,0.25,0.17c0.26-0.1,0.54,0.14,0.49,0.62c-0.03,0.27-0.18,0.53-0.4,0.83
		c-0.35,0.48-0.47,1.31,0.19,1.98c0.21,0.22,0.98,0.59,1.82,0.56c0.16-0.01,0.19,0.12,0.18,0.22c-0.03,0.18-0.07,0.36-0.11,0.54
		c-1.02-0.43-2.04-0.58-3.01-0.48c-0.34-2.44-2-4.72-4.76-4.93c-1.8-0.14-3.63,1.85-3.67,3.8c-0.01,0.4,0.21,0.37,0.53,0.09
		c0.25-0.23,0.48-0.75,1.13-0.68c0.46,0.05,0.76,0.3,1.19,0.68c0.6,0.52,1.66,0.49,2.35-0.21c0.72-0.73,0.83-0.82,1.35-0.59
		c0.68,0.3,1.1,1.05,1.27,1.94c-1.4,0.28-2.68,1.05-3.71,2.12c-2.04-2.25-4.53-3.06-6.7-2.58c-1.48,0.33-3.58,1.88-4.19,4.9
		c-0.96-0.92-1.65-2.23-1.74-3.45c2.06,0.6,3.29-0.89,2.99-2.76c-0.35-2.14,1.12-2.42,2.38-2.01c-2.88-2.84-6.76-0.62-6.58,3.09
		c0.13,2.64,1.32,4.76,2.83,5.96c-0.08,0.75-0.07,1.58,0.05,2.49c0.1,0.73,0.26,1.43,0.47,2.1c-0.22-0.01-1-0.04-1.48-0.08
		c0.05-0.04,0.09-0.08,0.13-0.13c0.77-0.81,0.81-2.16,0.09-3.03c-0.71-0.87-1.91-0.91-2.68-0.11c-0.56,0.59-0.73,1.47-0.5,2.25
		c-0.1-0.06-0.21-0.11-0.32-0.15c-1-0.35-2.06,0.29-2.37,1.42c-0.31,1.13,0.26,2.33,1.26,2.68c0.73,0.25,1.5-0.02,1.97-0.63
		c0,0.13,0.02,0.26,0.05,0.39c0.24,1.15,1.25,1.87,2.27,1.61c1.02-0.27,1.66-1.42,1.42-2.57c-0.1-0.5-0.35-0.91-0.68-1.2
		c0.44,0.03,0.89,0.05,1,0.06c1.45,4.03,4.72,6.78,7.16,6.77c1.79-0.01,3.38-0.68,3.41-1.96c0.03-1.19-1.28-2.29-3.07-2.47
		c-1.79-0.18-3.27,0.58-3.36,1.77c0,0.13,0.03,0.34,0.09,0.44c0.05,0.09,0.02,0.18-0.11,0.09c-1.87-1.27-2.99-2.92-3.58-4.6
		c3.43,0.18,5.94-1.9,5.55-5.14c-0.19-1.59-1.64-2.87-3.12-3.33c-0.12-0.04-0.11-0.1,0.03-0.13c2.42-0.55,4.88,1.15,5.39,3.39
		c-0.28,0.73-0.47,1.49-0.56,2.27c-0.04,0.34,0.13,0.52,0.47,0.49c0.03,0,0.07-0.01,0.1-0.02c0.16-0.03,0.29,0.18,0.39,0.29
		c0.31,0.33,0.56,0.46,0.73,0.27c0.17-0.19,0.28-0.4-0.12-0.95c-0.4-0.55-0.55-1.47-0.43-2.12c0.01-0.05,0.02-0.1,0.04-0.15
		c0.17-0.3,0.35-0.64,0.54-0.98c0.34-0.34,0.76-0.45,1.05-0.18c0.55,0.51,1.44,1.18,2.6,1.12c2.36-0.13,3.91-1.73,4.77-4.14
		c0.6,0.35,1.09,0.83,1.41,1.42c0.61,1.12,0.29,1.93-0.59,2.15c-1.51,0.38-2.41,2.07-1.64,5.42c0.08,0.34,0.22,0.47,0.7,0.3
		c4.15-1.48,4.34-7.7,0.29-9.78c0.07-0.21,0.13-0.43,0.18-0.65c0.02-0.08,0.16-0.12,0.36,0.01c1.23,0.8,2.27,0.51,2.39-0.87h3.05
		c0.3,1.18,1.36,2.06,2.63,2.06c1.5,0,2.72-1.22,2.72-2.72C60.59,4.75,59.37,3.54,57.87,3.54z M27.56,18.39
		c-0.01-0.2-0.04-0.4-0.1-0.59c0.16,0.09,0.33,0.16,0.5,0.2C27.81,18.11,27.67,18.24,27.56,18.39z M38.2,21.54
		c1.01,0.03,1.81,0.56,1.8,1.19c-0.01,0.63-0.84,1.12-1.85,1.09c-1.01-0.03-1.81-0.56-1.8-1.19C36.36,22,37.19,21.51,38.2,21.54z
		 M35.82,12.86c0.06-0.08,0.14-0.1,0.18,0c0.92,2.49-1.13,4.75-4.5,4.82c-0.42-1.45-0.46-2.88-0.26-4.07
		C32.81,14.46,34.58,14.35,35.82,12.86z M35.39,11.79c0.12,0.15,0.13,0.2,0.03,0.33c-1.18,1.63-2.73,1.59-4.03,0.78
		c0.28-1.08,0.77-1.88,1.32-2.18C33.36,10.37,34.6,10.8,35.39,11.79z M42.54,11.69c-0.85-0.48-0.86-1.31-0.37-1.77
		c0.93-0.85,2.01-1.36,3.08-1.57c0.07,0.98-0.14,2.07-0.64,2.93C44.08,12.21,43.15,12.03,42.54,11.69z M45.19,12.35
		c-0.26,0.04-0.48-0.1-0.26-0.4c0.71-1.04,1.01-2.36,0.93-3.67c1.01-0.1,1.99,0.06,2.82,0.44C48.04,10.76,46.6,12.12,45.19,12.35z"
		/>
</g>
</svg>
