<?xml version="1.0" encoding="utf-8"?>
<!-- Generator: Adobe Illustrator 23.0.3, SVG Export Plug-In . SVG Version: 6.00 Build 0)  -->
<svg version="1.1" id="Layer_1" xmlns="http://www.w3.org/2000/svg" xmlns:xlink="http://www.w3.org/1999/xlink" x="0px" y="0px"
	 viewBox="0 0 70 70.47" style="enable-background:new 0 0 70 70.47;" xml:space="preserve">
<g>
	<g>
		<path d="M12.32,31.98c0,0-10.64,1.41-9.03,7.41C5.22,46.59,0,52.89,0,52.89s5.2-4.23,5.93-7.42c0.52-2.28-0.11-3.96,0.4-7.92
			C6.84,33.6,12.32,31.98,12.32,31.98z"/>
		<path d="M18.46,20.2c0,0-0.88,8.36-4.94,9.72c-5.17,1.72-5.07-2.82-5.07-2.82s1.42,2.23,4.16,0.51
			C15.35,25.87,18.46,20.2,18.46,20.2z"/>
		<path d="M31.98,12.32c0,0,1.41-10.64,7.41-9.03C46.59,5.22,52.89,0,52.89,0s-4.23,5.2-7.42,5.93c-2.28,0.52-3.96-0.11-7.91,0.4
			C33.6,6.84,31.98,12.32,31.98,12.32z"/>
		<path d="M20.2,18.46c0,0,8.36-0.88,9.72-4.94c1.72-5.17-2.82-5.07-2.82-5.07s2.23,1.42,0.51,4.16
			C25.88,15.35,20.2,18.46,20.2,18.46z"/>
		<g>
			<g>
				<path d="M33.34,29.77c-0.61-0.53-1.58-0.96-1.58-0.96s0.49,1.5,0.1,1.72c-0.53,0.3-1.77-1.01-1.75-2.15
					c0.01-1.02-0.18-1.83-0.91-2.36c-0.6-0.44-2.08-1.04-2.08-1.04l-2.4-0.57l0.59,2.38c0,0,0.53,1.55,0.97,2.14
					c0.53,0.73,1.34,0.92,2.36,0.91c1.15-0.01,2.45,1.23,2.15,1.75c-0.22,0.39-1.72-0.1-1.72-0.1s0.43,0.97,0.96,1.58
					c0.71,0.81,4.05,0.76,4.07,0.76l0,0l0,0l0,0l0,0C34.1,33.82,34.15,30.48,33.34,29.77z"/>
				<path d="M19.22,15.65c0.53,0.61,0.96,1.58,0.96,1.58s-1.5-0.49-1.72-0.1c-0.3,0.53,1,1.77,2.15,1.75
					c1.01-0.01,1.83,0.18,2.36,0.91c0.44,0.6,1.04,2.08,1.04,2.08l0.57,2.4l-2.38-0.59c0,0-1.55-0.53-2.14-0.97
					c-0.73-0.53-0.92-1.34-0.91-2.36c0.01-1.15-1.23-2.45-1.75-2.15c-0.39,0.22,0.1,1.72,0.1,1.72s-0.97-0.43-1.58-0.96
					c-0.81-0.71-0.76-4.05-0.76-4.07l0,0l0,0l0,0l0,0C15.17,14.89,18.52,14.84,19.22,15.65z"/>
			</g>
			<g>
				<path d="M30.03,15.65c-0.53,0.61-0.96,1.58-0.96,1.58s1.5-0.49,1.72-0.11c0.3,0.53-1,1.77-2.15,1.75
					c-1.01-0.01-1.83,0.18-2.36,0.91c-0.44,0.6-1.04,2.08-1.04,2.08l-0.57,2.4l2.38-0.59c0,0,1.55-0.53,2.14-0.97
					c0.73-0.53,0.92-1.34,0.91-2.35c-0.01-1.15,1.23-2.45,1.75-2.15c0.39,0.22-0.11,1.72-0.11,1.72s0.97-0.43,1.58-0.96
					c0.81-0.71,0.76-4.05,0.77-4.07l0,0l0,0l0,0l0,0C34.08,14.89,30.74,14.84,30.03,15.65z"/>
				<path d="M15.91,29.77c0.61-0.53,1.58-0.96,1.58-0.96s-0.49,1.5-0.1,1.72c0.53,0.3,1.77-1,1.75-2.15
					c-0.01-1.01,0.18-1.83,0.91-2.35c0.6-0.44,2.08-1.04,2.08-1.04l2.4-0.57l-0.59,2.38c0,0-0.53,1.55-0.97,2.14
					c-0.53,0.73-1.34,0.92-2.35,0.91c-1.15-0.01-2.45,1.23-2.15,1.75c0.22,0.39,1.72-0.11,1.72-0.11s-0.43,0.97-0.96,1.58
					c-0.71,0.81-4.05,0.76-4.07,0.76v0v0l0,0l0,0C15.15,33.82,15.1,30.48,15.91,29.77z"/>
			</g>
			<path d="M32.88,23.26c1.79,1.24,2.06,1.46,3.21,2.01c0.03,0.01-0.06,0-0.22-0.03c0.16,0.04,0.24,0.06,0.21,0.06
				c-1.27,0.05-1.61,0.14-3.75,0.56c-1.84,0.36-2.49-1.37-2.63-1.85c-0.04-0.01-0.06-0.01-0.06-0.01s0.01-0.02,0.04-0.05
				c-0.01-0.04-0.01-0.06-0.01-0.06s0.02,0.01,0.06,0.01C30.06,23.52,31.34,22.19,32.88,23.26z"/>
			<path d="M23.62,32.53c1.24,1.79,1.46,2.06,2.01,3.21c0.01,0.03,0-0.06-0.03-0.22c0.04,0.16,0.06,0.24,0.06,0.22
				c0.05-1.27,0.14-1.61,0.56-3.75c0.36-1.84-1.37-2.49-1.85-2.63c-0.01-0.04-0.01-0.06-0.01-0.06s-0.02,0.01-0.05,0.04
				c-0.04-0.01-0.06-0.02-0.06-0.02s0.01,0.02,0.01,0.06C23.88,29.7,22.55,30.98,23.62,32.53z"/>
		</g>
		<path d="M16.24,14.74c-1.59-0.83-1.86-0.95-2.76-1.57c-0.02-0.01,0.03,0.04,0.13,0.15c-0.11-0.1-0.16-0.15-0.15-0.13
			c0.62,0.9,0.74,1.16,1.59,2.79c-2.29-0.05-2.92,1.36-2.92,1.36s2.02-0.59,3.39-0.05c1.37,0.54,2.17,1.81,2.84,1.3
			c0,0,0.04-0.2,0-0.5c0.29,0.04,0.5,0,0.5,0c0.51-0.67-0.76-1.47-1.3-2.84c-0.54-1.37,0.05-3.39,0.05-3.39S16.2,12.49,16.24,14.74z
			"/>
		<path d="M23.45,8.63c-1.87-2.7-2.19-3.11-3.03-4.84c-0.02-0.04,0,0.09,0.04,0.34c-0.06-0.25-0.09-0.37-0.1-0.32
			c-0.07,1.92-0.21,2.42-0.84,5.64c-0.55,2.78,2.06,3.75,2.79,3.97c0.01,0.05,0.02,0.09,0.02,0.09s0.03-0.02,0.08-0.06
			c0.06,0.01,0.09,0.02,0.09,0.02s-0.01-0.03-0.02-0.08C23.06,12.89,25.06,10.95,23.45,8.63z"/>
		<path d="M9.48,22.59c-2.7-1.87-3.11-2.19-4.84-3.03c-0.04-0.02,0.09,0,0.34,0.04c-0.25-0.06-0.37-0.09-0.32-0.1
			c1.92-0.07,2.42-0.21,5.64-0.84c2.78-0.55,3.75,2.06,3.97,2.79c0.06,0.01,0.09,0.02,0.09,0.02s-0.02,0.03-0.06,0.08
			c0.02,0.06,0.02,0.09,0.02,0.09s-0.03-0.01-0.08-0.02C13.74,22.2,11.81,24.2,9.48,22.59z"/>
		<g>
			<path d="M36.53,14.34c0,0,0.1-5.56,3.58-4.72c4.19,1.01,5.45-0.07,5.45-0.07s-0.85,1.25-1.9,1.51c-1.31,0.33-1.7,0.1-3.98,0.45
				C37.41,11.85,36.53,14.34,36.53,14.34z"/>
			<path d="M37.14,14.81c0,0,0.77-1.88,2.21-1.83c1.44,0.04,2.33,1.2,2.71,1.82c0.38,0.62,1.01,0.98,1.39,1.01
				c0.84,0.08,1.19-0.6,1.19-0.6s-0.45,0.95-0.97,1.23c-0.61,0.32-1.93,0.2-2.78-0.41C40.04,15.42,38.47,14.23,37.14,14.81z"/>
			<path d="M32.77,21.64c0,0,6.65-0.69,7.37-3.05c0.92-3.01-2.95-3.04-2.95-3.04s1.31,0.79,0.35,2.4
				C36.59,19.55,32.77,21.64,32.77,21.64z"/>
		</g>
		<g>
			<path d="M14.81,36.05c0,0-5.56,0.1-4.72,3.58c1.01,4.19-0.07,5.45-0.07,5.45s1.25-0.85,1.51-1.9c0.32-1.31,0.1-1.7,0.45-3.98
				C12.33,36.93,14.81,36.05,14.81,36.05z"/>
			<path d="M15.28,36.67c0,0-1.88,0.77-1.83,2.21c0.04,1.44,1.2,2.33,1.82,2.71c0.62,0.38,0.98,1.01,1.02,1.39
				c0.08,0.84-0.61,1.19-0.61,1.19s0.95-0.45,1.23-0.97c0.32-0.61,0.2-1.93-0.4-2.79C15.89,39.56,14.7,37.99,15.28,36.67z"/>
			<path d="M22.11,32.3c0,0-0.69,6.65-3.05,7.37c-3.01,0.93-3.04-2.94-3.04-2.94s0.79,1.31,2.4,0.35
				C20.03,36.12,22.11,32.3,22.11,32.3z"/>
		</g>
	</g>
	<path d="M8.2,69.34C7.88,68.59,7.92,39.96,7.8,39.5c0-0.01-0.01,0.02-0.01,0.08c0-0.06,0-0.09-0.01-0.08
		C7.67,39.96,7.52,68.59,7.2,69.35c-0.27,0.65,0.31,1.01,0.48,1.1c0,0.01,0,0.02,0,0.02s0.01,0,0.02-0.01
		c0.01,0.01,0.02,0.01,0.02,0.01s0-0.01,0-0.02C7.89,70.36,8.48,69.99,8.2,69.34z"/>
	<path d="M68.87,7.69c-0.75,0.32-29.38,0.29-29.84,0.4c-0.01,0,0.02,0,0.08,0.01c-0.06,0-0.09,0-0.08,0.01
		c0.46,0.11,29.09,0.26,29.85,0.58c0.65,0.27,1.01-0.31,1.1-0.48c0.01,0,0.02,0,0.02,0s0-0.01-0.01-0.02C70,8.17,70,8.16,70,8.16
		s-0.01,0-0.02,0C69.89,7.99,69.52,7.41,68.87,7.69z"/>
</g>
</svg>
