<?xml version="1.0" encoding="utf-8"?>
<!-- Generator: Adobe Illustrator 23.0.3, SVG Export Plug-In . SVG Version: 6.00 Build 0)  -->
<svg version="1.1" id="Layer_1" xmlns="http://www.w3.org/2000/svg" xmlns:xlink="http://www.w3.org/1999/xlink" x="0px" y="0px"
	 viewBox="0 0 69.46 69.37" style="enable-background:new 0 0 69.46 69.37;" xml:space="preserve">
<path d="M60.69,12.18c0.91-0.01,1.66-0.48,1.88-1.12c0.29,0,0.59,0.01,0.88,0.01c0.18,0.19,0.47,0.32,0.8,0.32
	c0.33,0,0.62-0.12,0.8-0.3c1.25,0.02,2.5,0.03,3.76,0.05c0.19,0,0.39,0.01,0.59,0.01c0.01,0,0.03,0,0.04,0v-1.03
	c-0.01,0-0.03,0-0.04,0c-0.2,0-0.4,0-0.59,0.01c-1.26,0.02-2.51,0.03-3.76,0.05c-0.18-0.18-0.47-0.31-0.8-0.3
	c-0.33,0-0.62,0.13-0.8,0.32c-0.29,0-0.59,0.01-0.88,0.01c-0.22-0.64-0.98-1.12-1.88-1.12c-0.95-0.01-1.74,0.49-1.95,1.17
	c-2.14,0.02-4.25,0.05-6.31,0.07c0.79-0.1,1.47-0.23,2.11-0.38c1.87,0.12,3.1-0.14,3.81-0.64c1.66-1.04,0.86-3.23-0.95-5.08
	c0,0,0,0.05-0.01,0.15c-0.03-0.03-0.05-0.06-0.08-0.08c0,0,0.02,1.04-1,1.73c-0.07,0.04-0.14,0.08-0.22,0.12
	c-1.02,0.51-2.31,0.99-3.12,1.49c-1.1,0.64-1.41,1.31,0.81,2.07c-1.22,0.41-2.43,0.61-4.1,0.64c-0.26,0-0.52,0.01-0.78,0.01
	c-1.08,0-2.37-0.06-3.93-0.15v0c0,0,0,0-0.01,0c-0.1-0.01-0.19-0.01-0.3-0.02c1.89-0.08,3.39-0.43,4.51-1.05
	c1.61-0.84,2.48-2.19,2.69-3.98c-1.7-0.01-2.92,0.32-3.88,0.82c-2.08,1.04-2.96,2.9-4.78,4.12c-0.29-0.02-0.59-0.04-0.9-0.06
	c-0.05-0.03-0.1-0.07-0.14-0.1c0.15-0.6,0.19-1.21,0.11-1.81c-0.12-0.89-0.52-1.77-1.14-2.55c-0.31-0.39-0.68-0.76-1.1-1.09
	c-0.1-0.08-0.22-0.17-0.32-0.24c-0.12-0.09-0.24-0.16-0.36-0.24c-0.24-0.15-0.49-0.29-0.76-0.42c-1.07-0.51-2.32-0.82-3.59-0.88
	c-1.27-0.06-2.56,0.12-3.7,0.52c-0.57,0.2-1.1,0.45-1.58,0.75c-0.08,0.05-0.16,0.1-0.24,0.16c0.49-1.04,0.81-2.1,1.29-3.14
	c-1.67,0.4-3.39,0.64-5.05,1.1c-0.56,0.16-1.04,0.41-1.57,0.65c-0.07,0.03-0.2,0.04-0.22-0.01c-0.16-0.46-0.25-0.91-0.51-1.34
	C23.16,0.89,22.96,0.4,22.51,0c-1.15,0.59-1.83,1.49-2.48,2.38c-0.14,0.19-0.25,0.37-0.35,0.56c-0.71,1.33-0.64,2.76-0.94,4.23
	c-0.18,0.86-0.55,1.67-1.45,2.24c0.04-0.48,0.25-0.94,0.27-1.44c0.01-0.37-0.02-0.71-0.1-1.08c-0.19-0.86-0.63-1.6-1.34-2.29
	c-0.41-0.39-0.87-0.73-1.37-1.05c-0.66-0.41-1.54-0.79-2.34-1.02c-0.8,0.24-1.69,0.62-2.34,1.02C9.83,3.7,9.63,3.84,9.43,3.98
	C9.24,4.14,9.06,4.29,8.88,4.46c-0.53,0.5-1.03,1.18-1.34,1.79c0.31,0.61,0.81,1.29,1.34,1.79c0.41,0.39,0.86,0.74,1.37,1.05
	c0.9,0.54,1.87,0.88,2.99,1.02c0.48,0.06,0.93,0.08,1.41,0.07c0.65-0.01,1.25-0.17,1.89-0.2c-0.74,0.69-1.81,0.98-2.93,1.11
	c-0.79,0.09-1.56,0.14-2.32,0.2l0,0v0c-0.06,0.76-0.1,1.53-0.2,2.32c-0.13,1.12-0.42,2.19-1.11,2.93c0.03-0.63,0.19-1.23,0.2-1.89
	c0.01-0.48-0.01-0.93-0.07-1.41c-0.14-1.13-0.48-2.09-1.02-2.99C8.78,9.73,8.43,9.29,8.04,8.88c-0.5-0.53-1.18-1.03-1.79-1.34
	C5.63,7.85,4.96,8.35,4.46,8.88C4.29,9.06,4.14,9.24,3.98,9.43c-0.15,0.2-0.29,0.4-0.42,0.62c-0.41,0.66-0.79,1.54-1.02,2.34
	c0.24,0.8,0.62,1.69,1.02,2.34c0.32,0.51,0.65,0.97,1.05,1.37c0.69,0.71,1.42,1.15,2.29,1.34c0.37,0.08,0.71,0.11,1.08,0.1
	c0.5-0.02,0.96-0.23,1.44-0.27c-0.57,0.91-1.38,1.28-2.24,1.45c-1.48,0.3-2.9,0.23-4.23,0.94c-0.19,0.1-0.38,0.22-0.56,0.35
	C1.49,20.67,0.59,21.35,0,22.51c0.4,0.46,0.89,0.66,1.37,0.93c0.43,0.25,0.88,0.35,1.34,0.51c0.06,0.02,0.05,0.15,0.01,0.22
	c-0.24,0.53-0.49,1.01-0.65,1.57c-0.46,1.66-0.7,3.37-1.1,5.05c1.04-0.48,2.1-0.8,3.14-1.29c-0.05,0.08-0.11,0.16-0.16,0.24
	c-0.3,0.48-0.55,1.01-0.75,1.58c-0.4,1.14-0.58,2.43-0.52,3.7c0.06,1.27,0.36,2.53,0.88,3.59c0.13,0.27,0.27,0.52,0.42,0.76
	c0.08,0.12,0.15,0.24,0.24,0.36c0.07,0.1,0.16,0.22,0.24,0.32c0.34,0.42,0.7,0.79,1.09,1.1c0.78,0.62,1.66,1.02,2.55,1.14
	c0.6,0.08,1.22,0.04,1.81-0.11c0.03,0.05,0.07,0.09,0.1,0.14c0.02,0.31,0.04,0.61,0.06,0.9c-1.21,1.82-3.08,2.7-4.12,4.78
	c-0.5,0.96-0.83,2.18-0.82,3.88c1.79-0.21,3.14-1.08,3.98-2.69c0.61-1.12,0.96-2.62,1.05-4.51c0.01,0.1,0.01,0.2,0.02,0.3
	c0,0,0,0,0,0.01h0c0.09,1.57,0.14,2.86,0.15,3.93c0,0.26,0,0.52-0.01,0.78c-0.04,1.68-0.23,2.88-0.64,4.1
	c-0.77-2.22-1.43-1.91-2.07-0.81c-0.5,0.81-0.98,2.1-1.49,3.12C6.09,56.18,6.04,56.25,6,56.32c-0.69,1.02-1.73,1-1.73,1
	c0.03,0.03,0.06,0.05,0.08,0.08C4.27,57.4,4.21,57.4,4.21,57.4c1.85,1.81,4.04,2.61,5.08,0.95c0.5-0.71,0.76-1.94,0.64-3.81
	c0.15-0.64,0.28-1.33,0.38-2.11c-0.02,2.06-0.04,4.17-0.07,6.31c-0.67,0.21-1.17,1.01-1.17,1.95c0.01,0.91,0.48,1.66,1.12,1.88
	c0,0.29-0.01,0.59-0.01,0.88c-0.19,0.18-0.32,0.47-0.32,0.8c0,0.33,0.12,0.62,0.3,0.8c-0.01,1.25-0.03,2.5-0.05,3.76
	c0,0.18,0,0.37-0.01,0.55h1.03c0-0.18-0.01-0.37-0.01-0.55c-0.02-1.26-0.03-2.51-0.05-3.76c0.19-0.18,0.31-0.47,0.3-0.8
	c0-0.33-0.13-0.62-0.32-0.8c0-0.29-0.01-0.59-0.01-0.88c0.64-0.23,1.12-0.98,1.12-1.88c0.01-0.95-0.49-1.74-1.17-1.95
	c-0.02-2.14-0.04-4.25-0.07-6.31c0.1,0.79,0.23,1.47,0.38,2.11c-0.12,1.87,0.14,3.09,0.64,3.81c1.04,1.66,3.23,0.86,5.08-0.94
	c0,0-0.06,0-0.15-0.01c0.03-0.03,0.06-0.05,0.08-0.08c0,0-1.04,0.02-1.73-1c-0.04-0.07-0.08-0.14-0.12-0.21
	c-0.51-1.01-0.99-2.31-1.49-3.11c-0.65-1.11-1.31-1.42-2.08,0.8c-0.41-1.22-0.6-2.42-0.64-4.1c0-0.26,0-0.51-0.01-0.77
	c0-1.08,0.06-2.37,0.15-3.95h0.04c0.1,1.75,0.45,3.15,1.03,4.21c0.84,1.61,2.19,2.48,3.98,2.69c0.01-1.7-0.32-2.92-0.82-3.88
	c-1.04-2.08-2.89-2.96-4.11-4.77c0-0.03,0-0.07,0-0.1c0.02-0.26,0.04-0.53,0.05-0.81c0.42-0.68,0.92-1.25,1.43-1.8h-0.03
	c0.15-0.16,0.3-0.33,0.44-0.51c0.33-0.42,0.62-0.88,0.89-1.36c0.26-0.49,0.49-1.01,0.69-1.54c0.4-1.08,0.67-2.24,0.79-3.44
	c0.12-1.19,0.09-2.4-0.08-3.57c-0.06-0.39-0.13-0.77-0.22-1.15c0.19,0.01,0.47,0.11,0.53-0.11c0.19-0.72,0.05-1.47-0.15-2.28
	c-0.02-0.08,0.05-0.17,0.1-0.18c0.38-0.09,0.75-0.17,1.11-0.27l0,0c0,0,0,0,0,0c0.08-0.47,0.14-0.95,0.21-1.45
	c0.01-0.07,0.07-0.16,0.14-0.13c0.62,0.26,1.19,0.45,1.74,0.2c0.17-0.08,0.09-0.44,0.08-0.69c0.05,0.02,0.09,0.03,0.14,0.05v45.28
	h1.71V24.49c0.58,0.05,1.17,0.04,1.75-0.06c0.51-0.08,1.01-0.23,1.49-0.44c0.21-0.49,0.36-0.99,0.44-1.49
	c0.14-0.84,0.12-1.68-0.06-2.51h45.08v-1.71H24.84c0-0.38-0.13-0.78-0.31-1.2c-0.03-0.06,0.07-0.13,0.13-0.14
	c0.5-0.07,0.98-0.13,1.45-0.21l0,0l0,0c0.1-0.36,0.18-0.73,0.27-1.11c0.01-0.05,0.1-0.12,0.18-0.1c0.81,0.2,1.56,0.35,2.28,0.15
	c0.22-0.06,0.12-0.34,0.11-0.53c0.38,0.09,0.76,0.16,1.15,0.22c1.16,0.17,2.38,0.19,3.57,0.08c1.19-0.11,2.36-0.39,3.44-0.79
	c0.54-0.2,1.06-0.43,1.54-0.69c0.49-0.26,0.94-0.55,1.36-0.89c0.18-0.14,0.35-0.29,0.51-0.44v0.03c0.55-0.52,1.12-1.02,1.8-1.43
	c0.28-0.02,0.54-0.04,0.81-0.05c0.03,0,0.07,0,0.1,0c1.82,1.21,2.7,3.07,4.77,4.11c0.96,0.5,2.18,0.83,3.88,0.82
	c-0.21-1.79-1.08-3.14-2.69-3.98c-1.06-0.58-2.46-0.92-4.21-1.03v-0.03c1.57-0.09,2.86-0.15,3.95-0.15c0.26,0,0.51,0.01,0.77,0.01
	c1.67,0.04,2.88,0.23,4.1,0.64c-2.22,0.77-1.91,1.43-0.8,2.08c0.81,0.49,2.1,0.98,3.11,1.49c0.08,0.04,0.15,0.08,0.22,0.12
	c1.02,0.69,1,1.73,1,1.73c0.03-0.03,0.05-0.06,0.08-0.08c0.01,0.09,0.01,0.15,0.01,0.15c1.81-1.85,2.61-4.04,0.94-5.08
	c-0.71-0.5-1.94-0.76-3.81-0.64c-0.64-0.15-1.33-0.28-2.11-0.38c2.06,0.02,4.17,0.04,6.31,0.07C58.95,11.69,59.74,12.19,60.69,12.18
	z M13.85,36.49c-0.2,0.46-0.42,0.9-0.66,1.31c-0.25,0.41-0.51,0.8-0.79,1.13c-0.57,0.68-1.24,1.18-1.95,1.47
	c-1.42,0.6-3.01,0.35-4.29-0.68c-0.32-0.26-0.62-0.56-0.9-0.9c-0.07-0.09-0.13-0.17-0.21-0.27c-0.06-0.08-0.12-0.17-0.18-0.27
	C4.74,38.1,4.63,37.9,4.53,37.7c-0.41-0.82-0.66-1.8-0.73-2.81c-0.07-1.01,0.05-2.04,0.34-2.97c0.15-0.47,0.34-0.9,0.57-1.3
	c0.23-0.4,0.49-0.76,0.78-1.04c0.16-0.15,0.33-0.29,0.51-0.4c0.06,0.36,0.13,0.72,0.23,1.07c0.2,0.66,0.34,1.34,0.67,1.9
	c0.78-0.78,1.26-1.95,1.7-3.12c0.37,0.18,0.71,0.45,1.02,0.8c0.3,0.32,0.55,0.72,0.73,1.19c0.18,0.46,0.3,0.98,0.35,1.52
	c0.09,1.08-0.14,2.23-0.66,3.12c0.31-0.39,0.55-0.87,0.72-1.41c0.17-0.54,0.26-1.14,0.26-1.74c0.01-1.21-0.37-2.44-1.02-3.29
	c-0.32-0.43-0.7-0.78-1.11-1.05c0.01-0.04,0.03-0.08,0.04-0.13c0.51-1.86,0.45-3.85,0.67-5.91c0.13-1.19,0.39-2.34,1.04-3.13
	c-0.03,0.68-0.18,1.32-0.19,2.01c-0.01,0.52,0.01,0.99,0.07,1.5c0.13,1.2,0.45,2.23,0.96,3.19c0.29,0.55,0.62,1.02,0.99,1.46
	c0.6,0.73,1.47,1.4,2.14,1.66c0.08,0.46,0.14,0.92,0.18,1.39C14.98,32.42,14.63,34.64,13.85,36.49z M23.17,23.17
	c-0.78,0.31-1.6,0.48-2.42,0.48v-3.66h2.85C23.73,21.07,23.58,22.16,23.17,23.17z M19.04,18.28v5.13c-0.08-0.02-0.16-0.03-0.23-0.05
	c-0.2-0.88-0.71-2.02-1.27-2.81c-0.34-0.48-0.7-0.91-1.12-1.29c-0.74-0.67-1.52-1.08-2.44-1.25c-0.39-0.08-0.75-0.1-1.15-0.09
	c-0.53,0.02-1.02,0.21-1.54,0.25c0.61-0.85,1.48-1.2,2.39-1.36c0.94-0.17,1.86-0.21,2.75-0.36c0.15-0.89,0.19-1.81,0.36-2.75
	c0.17-0.91,0.51-1.78,1.36-2.39c-0.04,0.52-0.23,1-0.25,1.54c-0.01,0.39,0.02,0.76,0.09,1.15c0.18,0.92,0.59,1.7,1.25,2.44
	c0.38,0.42,0.81,0.78,1.29,1.12c0.38,0.27,0.84,0.52,1.32,0.74H19.04z M40.4,10.44c-0.29,0.71-0.79,1.38-1.47,1.95
	c-0.33,0.28-0.72,0.55-1.13,0.79c-0.41,0.25-0.85,0.47-1.31,0.66c-1.85,0.78-4.08,1.13-6.27,0.94c-0.47-0.03-0.94-0.1-1.39-0.18
	c-0.26-0.67-0.93-1.54-1.66-2.14c-0.44-0.37-0.91-0.69-1.46-0.99c-0.96-0.51-1.99-0.82-3.19-0.96c-0.51-0.06-0.99-0.08-1.5-0.07
	c-0.7,0.01-1.33,0.16-2.01,0.19c0.79-0.65,1.93-0.91,3.13-1.04c2.06-0.22,4.04-0.16,5.91-0.67c0.04-0.01,0.08-0.03,0.13-0.04
	c0.26,0.41,0.62,0.79,1.05,1.11c0.85,0.65,2.08,1.03,3.29,1.02c0.6,0,1.2-0.09,1.74-0.26c0.54-0.17,1.02-0.42,1.41-0.72
	c-0.89,0.52-2.04,0.75-3.12,0.66c-0.54-0.05-1.06-0.16-1.52-0.35c-0.46-0.18-0.86-0.43-1.19-0.73c-0.35-0.31-0.61-0.65-0.8-1.02
	c1.17-0.44,2.34-0.92,3.12-1.7c-0.57-0.33-1.25-0.47-1.9-0.67c-0.35-0.1-0.7-0.17-1.07-0.23c0.11-0.18,0.24-0.35,0.4-0.51
	c0.28-0.3,0.64-0.56,1.04-0.78c0.4-0.23,0.84-0.42,1.31-0.57c0.93-0.3,1.97-0.41,2.97-0.34c1.01,0.07,1.98,0.32,2.81,0.73
	c0.21,0.1,0.41,0.21,0.59,0.33c0.09,0.06,0.19,0.12,0.27,0.18c0.1,0.07,0.18,0.13,0.27,0.21c0.34,0.28,0.64,0.58,0.9,0.9
	C40.76,7.43,41,9.02,40.4,10.44z"/>
</svg>
