<?xml version="1.0" encoding="UTF-8" standalone="no"?>
<svg
   viewBox="0 0 120 60"
   fill="#ffffff"
   fill-rule="evenodd"
   stroke="#000000"
   stroke-linecap="round"
   stroke-linejoin="round"
   version="1.1"
   id="svg17"
   sodipodi:docname="debian.svg"
   width="120"
   height="60"
   inkscape:version="1.1.1 (3bf5ae0d25, 2021-09-20)"
   xmlns:inkscape="http://www.inkscape.org/namespaces/inkscape"
   xmlns:sodipodi="http://sodipodi.sourceforge.net/DTD/sodipodi-0.dtd"
   xmlns:xlink="http://www.w3.org/1999/xlink"
   xmlns="http://www.w3.org/2000/svg"
   xmlns:svg="http://www.w3.org/2000/svg">
  <defs
     id="defs21" />
  <sodipodi:namedview
     id="namedview19"
     pagecolor="#ffffff"
     bordercolor="#666666"
     borderopacity="1.0"
     inkscape:pageshadow="2"
     inkscape:pageopacity="0.0"
     inkscape:pagecheckerboard="0"
     showgrid="false"
     inkscape:zoom="2.495283"
     inkscape:cx="-65.724007"
     inkscape:cy="169.31947"
     inkscape:window-width="1920"
     inkscape:window-height="951"
     inkscape:window-x="-8"
     inkscape:window-y="-8"
     inkscape:window-maximized="1"
     inkscape:current-layer="svg17" />
  <use
     xlink:href="#A"
     x="0.5"
     y="0.5"
     id="use2"
     width="100%"
     height="100%"
     transform="translate(7.1545,9.675)" />
  <symbol
     id="A"
     overflow="visible">
    <g
       stroke="none"
       id="g14">
      <g
         fill="#d70751"
         fill-rule="nonzero"
         id="g8">
        <path
           d="m 21.233,21.659 c -0.661,0.016 0.126,0.346 0.992,0.472 L 22.87,21.58 c -0.535,0.126 -1.086,0.126 -1.637,0.079 m 3.557,-0.881 c 0.394,-0.551 0.677,-1.133 0.787,-1.747 -0.095,0.441 -0.331,0.819 -0.551,1.212 -1.243,0.771 -0.11,-0.457 0,-0.929 -1.338,1.668 -0.189,0.992 -0.236,1.464 m 1.307,-3.416 C 26.176,16.166 25.861,16.543 25.751,17 c 0.126,0.079 0.22,0.85 0.346,0.362 M 18.73,1.086 c 0.346,0.063 0.771,0.11 0.708,0.189 C 19.816,1.196 19.91,1.118 18.73,1.086 m 0.708,0.205 -0.252,0.047 0.236,-0.016 0.016,-0.032 m 8.641,15.646 c 0.047,1.07 -0.315,1.59 -0.629,2.503 l -0.567,0.283 c -0.472,0.913 0.047,0.582 -0.283,1.306 -0.724,0.645 -2.219,2.031 -2.692,2.156 -0.346,0 0.236,-0.409 0.315,-0.567 -0.976,0.677 -0.787,1.007 -2.282,1.417 L 21.894,23.94 c -3.683,1.732 -8.814,-1.7 -8.736,-6.391 -0.031,0.299 -0.11,0.22 -0.189,0.346 -0.189,-2.408 1.117,-4.832 3.321,-5.824 2.156,-1.07 4.675,-0.629 6.217,0.803 -0.85,-1.102 -2.534,-2.282 -4.533,-2.172 -1.952,0.032 -3.793,1.275 -4.391,2.629 -1.007,0.629 -1.117,2.44 -1.558,2.77 -0.582,4.313 1.102,6.186 3.967,8.374 0.456,0.299 0.126,0.346 0.189,0.582 -0.944,-0.441 -1.826,-1.117 -2.534,-1.936 0.378,0.551 0.787,1.102 1.322,1.527 -0.897,-0.299 -2.093,-2.172 -2.44,-2.251 1.543,2.77 6.28,4.864 8.752,3.825 -1.149,0.047 -2.597,0.016 -3.888,-0.457 -0.535,-0.283 -1.275,-0.85 -1.149,-0.96 3.384,1.259 6.863,0.96 9.791,-1.385 0.74,-0.582 1.558,-1.558 1.795,-1.574 -0.346,0.535 0.063,0.252 -0.205,0.724 0.74,-1.196 -0.315,-0.488 0.771,-2.062 l 0.409,0.551 c -0.157,-0.992 1.228,-2.204 1.086,-3.762 0.315,-0.472 0.346,0.52 0.016,1.621 0.472,-1.228 0.126,-1.417 0.236,-2.44 0.126,0.346 0.299,0.708 0.393,1.055 -0.299,-1.181 0.315,-1.999 0.457,-2.676 -0.157,-0.063 -0.472,0.519 -0.535,-0.881 0.016,-0.614 0.173,-0.315 0.236,-0.472 -0.126,-0.063 -0.425,-0.535 -0.614,-1.432 0.142,-0.205 0.362,0.551 0.551,0.567 C 30.505,11.931 30.3,11.396 30.3,10.844 29.749,9.695 30.111,11.001 29.655,10.356 29.073,8.53 30.143,9.931 30.206,9.113 c 0.882,1.275 1.385,3.274 1.621,4.092 a 15.06,15.06 0 0 0 -0.819,-2.912 c 0.268,0.11 -0.425,-2.062 0.346,-0.629 -0.834,-3.069 -3.573,-5.95 -6.091,-7.288 0.315,0.283 0.693,0.629 0.551,0.692 -1.259,-0.74 -1.039,-0.803 -1.212,-1.117 -1.023,-0.409 -1.086,0.031 -1.763,0 -1.92,-1.023 -2.298,-0.913 -4.061,-1.558 l 0.079,0.378 c -1.275,-0.425 -1.48,0.157 -2.865,0 C 15.913,0.708 16.433,0.535 16.874,0.472 15.646,0.629 15.693,0.236 14.497,0.519 14.796,0.314 15.111,0.173 15.426,0 14.419,0.063 13.018,0.582 13.458,0.11 11.821,0.85 8.909,1.873 7.272,3.4 L 7.225,3.054 C 6.47,3.951 3.967,5.746 3.762,6.91 L 3.557,6.957 C 3.164,7.618 2.912,8.358 2.612,9.051 2.108,9.917 1.872,9.381 1.935,9.523 0.929,11.553 0.441,13.269 0,14.67 c 0.299,0.456 0,2.754 0.126,4.596 -0.504,9.098 6.375,17.928 13.915,19.959 1.102,0.393 2.739,0.378 4.14,0.425 -1.653,-0.472 -1.857,-0.252 -3.463,-0.803 -1.149,-0.551 -1.417,-1.165 -2.235,-1.873 l 0.331,0.567 c -1.606,-0.567 -0.929,-0.708 -2.235,-1.117 l 0.346,-0.456 C 10.406,35.921 9.54,35.086 9.304,34.63 L 8.737,34.646 C 8.06,33.796 7.682,33.198 7.714,32.726 L 7.462,33.009 C 7.257,32.647 4.944,29.845 6.14,30.491 5.92,30.286 5.621,30.16 5.306,29.578 l 0.236,-0.283 c -0.582,-0.74 -1.055,-1.7 -1.023,-2.015 0.315,0.409 0.52,0.488 0.74,0.567 C 3.795,24.227 3.716,27.642 2.615,24.164 L 2.851,24.148 C 2.678,23.88 2.568,23.581 2.426,23.298 L 2.521,22.291 C 1.466,21.079 2.222,17.144 2.379,14.972 2.489,14.091 3.26,13.162 3.843,11.682 L 3.481,11.619 C 4.158,10.423 7.385,6.834 8.864,7.023 9.588,6.11 8.722,7.023 8.581,6.787 10.171,5.15 10.659,5.622 11.729,5.339 12.878,4.662 10.737,5.607 11.288,5.071 13.287,4.567 12.705,3.906 15.302,3.654 15.57,3.811 14.673,3.89 14.436,4.095 c 1.653,-0.819 5.257,-0.629 7.587,0.456 2.707,1.259 5.745,5.005 5.871,8.531 l 0.142,0.031 c -0.063,1.401 0.22,3.022 -0.283,4.502 l 0.331,-0.677"
           id="path4" />
        <path
           d="m 14.024,22.572 -0.094,0.457 c 0.441,0.598 0.787,1.228 1.338,1.684 -0.409,-0.771 -0.708,-1.086 -1.244,-2.141 m 1.023,-0.047 c -0.236,-0.252 -0.362,-0.567 -0.519,-0.866 0.142,0.535 0.441,0.992 0.724,1.464 l -0.205,-0.598 m 18.18,-3.951 -0.094,0.252 c -0.173,1.259 -0.567,2.518 -1.149,3.683 a 11.61,11.61 0 0 0 1.244,-3.935 M 18.857,0.772 c 0.441,-0.157 1.102,-0.094 1.574,-0.205 l -1.842,0.157 0.268,0.047 M 3.163,9.114 c 0.11,0.96 -0.724,1.322 0.189,0.692 C 3.824,8.736 3.147,9.523 3.163,9.114 M 2.108,13.537 C 2.313,12.908 2.36,12.514 2.439,12.152 1.857,12.876 2.171,13.034 2.108,13.537"
           id="path6" />
      </g>
      <path
         d="m 39.008,22.991 c 0,7.88 4.187,7.88 4.81,7.88 1.739,0 2.856,-0.945 3.328,-2.598 l 0.064,2.491 1.932,-0.086 0.773,0.022 c 0.215,0 0.451,0.022 0.709,0.064 -0.451,-0.902 -0.773,-2.899 -0.773,-7.279 0,-4.251 0,-11.444 0.365,-13.634 -1.009,0.472 -1.868,0.795 -3.779,0.945 0.752,0.816 0.752,1.224 0.752,4.917 -0.537,-0.172 -1.203,-0.365 -2.34,-0.365 -5.024,0.043 -5.84,4.402 -5.84,7.644 m 8.116,-3.285 c -0.021,0.021 -0.021,4.53 -0.086,5.711 -0.064,0.945 -0.15,2.984 -2.147,2.984 -2.061,0 -2.577,-2.383 -2.748,-3.414 -0.193,-1.138 -0.193,-2.104 -0.193,-2.512 0,-1.353 0.086,-5.089 3.242,-5.089 0.945,0 1.481,0.279 1.911,0.494 z m 14.6,2.147 c 0,-3.264 -0.644,-6.484 -4.788,-6.484 -5.711,0 -5.711,6.313 -5.711,7.665 0,5.668 2.555,7.923 6.828,7.923 1.911,0 2.834,-0.279 3.328,-0.429 -0.022,-1.009 0.107,-1.653 0.279,-2.512 -0.58,0.365 -1.353,0.837 -3.027,0.837 -4.359,0 -4.423,-3.972 -4.423,-5.346 h 7.451 l 0.064,-1.653 M 54.19,21.576 c 0.021,-2.319 0.494,-4.402 2.491,-4.402 2.19,0 2.34,2.405 2.297,4.402 z m 8.609,4.531 c 0,2.061 0,3.242 -0.344,4.144 1.138,0.451 2.577,0.709 4.273,0.709 1.095,0 4.251,0 5.969,-3.5 0.816,-1.632 1.095,-3.8 1.095,-5.453 0,-1.009 -0.107,-3.221 -0.923,-4.616 -0.773,-1.31 -2.04,-1.975 -3.392,-1.975 -2.684,0 -3.478,2.233 -3.886,3.392 0,-1.417 0.021,-6.398 0.258,-8.953 -1.825,0.837 -2.941,0.988 -4.144,1.095 1.095,0.451 1.095,2.297 1.095,8.309 v 6.849 m 8.03,-3.049 c 0,2.598 -0.472,6.098 -3.714,6.098 -0.451,0 -1.009,-0.086 -1.374,-0.172 -0.064,-1.009 -0.064,-2.748 -0.064,-4.745 0,-2.405 0.258,-3.672 0.451,-4.273 0.58,-1.975 1.911,-2.018 2.147,-2.018 2.147,0 2.555,2.92 2.555,5.11 z m 8.352,7.729 c -0.558,-0.086 -0.945,-0.15 -1.761,-0.15 a 14.8,14.8 0 0 0 -2.147,0.15 c 0.279,-0.537 0.386,-0.795 0.472,-2.598 0.107,-2.491 0.15,-9.147 -0.064,-10.542 -0.15,-1.074 -0.386,-1.224 -0.773,-1.503 2.297,-0.215 2.942,-0.386 3.994,-0.902 -0.215,1.224 -0.258,1.846 -0.258,3.714 -0.065,9.641 -0.086,10.671 0.537,11.831 M 80.449,26.3 c 0,1.761 0.537,3.521 2.104,4.273 0.708,0.301 1.396,0.301 1.632,0.301 2.577,0 3.435,-1.911 3.972,-3.07 -0.021,1.224 0,1.975 0.086,2.963 0.494,-0.021 1.009,-0.086 1.846,-0.086 0.472,0 0.923,0.064 1.396,0.086 -0.301,-0.472 -0.472,-0.751 -0.558,-1.847 -0.064,-1.052 -0.064,-2.125 -0.064,-3.607 l 0.022,-5.711 c 0,-2.126 -0.558,-4.23 -4.767,-4.23 -2.77,0 -4.401,0.837 -5.196,1.267 a 6.79,6.79 0 0 1 0.859,2.34 c 1.095,-0.945 2.512,-1.46 3.972,-1.46 2.319,0 2.319,1.546 2.319,3.715 -0.537,-0.022 -0.988,-0.086 -1.739,-0.086 -3.543,0.043 -5.883,1.417 -5.883,5.153 m 7.687,-3.435 c -0.064,1.761 -0.086,2.984 -0.558,3.972 -0.58,1.267 -1.568,1.632 -2.297,1.632 -1.675,0 -2.04,-1.396 -2.04,-2.77 0,-2.619 2.34,-2.834 3.414,-2.834 z m 16.125,5.153 c 0.022,0.945 0.022,1.954 0.429,2.77 -0.623,-0.064 -0.988,-0.15 -2.125,-0.15 -0.666,0 -1.031,0.064 -1.567,0.15 0.107,-0.365 0.172,-0.494 0.215,-0.988 0.086,-0.644 0.15,-2.791 0.15,-3.543 V 23.23 c 0,-1.31 0,-3.221 -0.086,-3.886 -0.064,-0.472 -0.193,-1.761 -1.825,-1.761 -1.589,0 -2.125,1.181 -2.319,2.125 -0.215,0.988 -0.215,2.04 -0.215,6.184 0.022,3.586 0.022,3.908 0.301,4.895 -0.472,-0.064 -1.052,-0.107 -1.911,-0.107 -0.665,0 -1.116,0.022 -1.675,0.107 0.193,-0.451 0.301,-0.666 0.365,-2.233 0.064,-1.546 0.172,-9.104 -0.086,-10.886 -0.129,-1.095 -0.429,-1.353 -0.73,-1.632 2.276,-0.107 2.984,-0.472 3.693,-0.837 v 2.964 c 0.343,-0.859 1.03,-2.791 3.843,-2.791 3.5,0 3.521,2.555 3.543,4.23 v 8.417"
         fill="#000000"
         fill-rule="nonzero"
         id="path10" />
      <path
         d="m 79.417,11.268 -2.319,2.319 -2.319,-2.319 2.319,-2.319 2.319,2.319"
         fill="#d70751"
         fill-rule="nonzero"
         id="path12" />
    </g>
  </symbol>
</svg>
