<?xml version="1.0" encoding="UTF-8" standalone="no"?>
<svg
   id="Layer_1"
   viewBox="0 0 24.7488 12.379182"
   width="120"
   height="60"
   version="1.1"
   sodipodi:docname="gradle.svg"
   inkscape:version="1.1.1 (3bf5ae0d25, 2021-09-20)"
   xmlns:inkscape="http://www.inkscape.org/namespaces/inkscape"
   xmlns:sodipodi="http://sodipodi.sourceforge.net/DTD/sodipodi-0.dtd"
   xmlns="http://www.w3.org/2000/svg"
   xmlns:svg="http://www.w3.org/2000/svg">
  <defs
     id="defs25" />
  <sodipodi:namedview
     id="namedview23"
     pagecolor="#ffffff"
     bordercolor="#666666"
     borderopacity="1.0"
     inkscape:pageshadow="2"
     inkscape:pageopacity="0.0"
     inkscape:pagecheckerboard="0"
     showgrid="false"
     inkscape:zoom="3.0531171"
     inkscape:cx="59.938743"
     inkscape:cy="29.969371"
     inkscape:window-width="1920"
     inkscape:window-height="951"
     inkscape:window-x="-8"
     inkscape:window-y="-8"
     inkscape:window-maximized="1"
     inkscape:current-layer="Layer_1" />
  <style
     id="style2">.st0{fill:#02303a}.st1{fill:#22da27}.st2{fill:#fff}</style>
  <g
     id="g851"
     transform="matrix(0.04398046,0,0,0.04398046,1.035566,3.7481277)">
    <path
       class="st0"
       d="m 173.5,44.9 c 4,-9.2 3.9,-18.3 1.5,-25.5 -3,-8.8 -15.3,-20.4 -19.2,-15.8 -0.5,0.6 -7.6,-0.2 -8.7,1.3 -1.7,2.2 -0.7,2.9 0.1,3.7 2.5,2.2 8.8,4.6 11.7,12.1 1.2,3.2 4,10.6 -0.9,15.1 -5.5,5 -11.7,6.2 -37.1,-17.4 C 93.9,-6.7 57.7,3.5 45.7,7.5 c -12,4 -17.5,8 -12.8,17.2 6.4,12.6 4.3,8.7 10.6,19.1 9.9,16.5 31.7,-7.6 31.7,-7.6 C 59,60.6 45.1,54.7 39.8,46.2 35,38.5 31.3,29.7 31.3,29.7 c -41,14.8 -29.9,80 -29.9,80 h 20.4 c 5.2,-24 23.8,-23.1 26.9,0 h 15.5 c 13.7,-46.9 43.1,0 43.1,0 h 17.4 c 0,-25 -2.6,-34.4 10.2,-36.2 21.8,-2.9 32,-13.1 38.6,-28.6 z"
       id="path4" />
    <path
       class="st1"
       d="m 247,38.6 v 9.9 c 2.1,-3.6 6.9,-11.8 22.5,-11.3 l -0.1,17.1 c -3.6,0.1 -9.9,0.2 -15,4.1 -7.1,5.4 -7.4,12.5 -7.4,24 v 26.3 H 230.9 V 38.5 Z m 29.2,21 c 0.3,-3.5 0.6,-6.9 2.8,-10.9 6.7,-12.1 23.2,-12 27.7,-12 6.7,0 14.7,0.9 20.8,4.5 8.2,5 8.3,11.6 8.3,19.1 l -0.1,36.8 c 0,5.3 0,7.4 3,11.6 H 319 c -0.1,-1.7 -0.4,-4.9 -0.4,-5.8 -3.6,3 -11,7 -20.6,7 -15.7,-0.1 -25.1,-9.8 -25.1,-21.8 0,-3.5 0.9,-6.7 2.3,-9.4 5,-10 15.7,-12.2 22.4,-13.4 22.7,-3.8 21.4,-6 21,-9.4 -0.3,-3.2 -3.6,-6.2 -11.3,-6.2 -6.9,0 -10.7,2.2 -12.4,4.4 -1.8,2.2 -1.7,3.6 -1.7,5.6 z M 319,73.7 c -3.3,1.7 -7.1,2.9 -14.6,4.1 -6,0.8 -13.9,2.2 -13.9,9.5 0,5.4 4.6,8.2 11.2,8.2 8.5,0 14.5,-3.8 16.3,-8 1,-2.1 1,-4.2 1,-6.2 z m 91.4,-63.2 -0.3,98.2 h -16.5 v -6.8 c -5.2,6.2 -12.1,8.7 -19.3,8.7 -16.5,-0.1 -30.8,-12.5 -30.7,-35.4 0.1,-20.7 11.8,-38.3 31.7,-38.2 6.8,0 13.1,2 18.4,7.8 V 10.5 Z m -20.6,48.3 c -2.5,-3.8 -6.6,-6.4 -12.2,-6.4 -11.3,0 -16.7,10.1 -16.7,21.1 0,1.3 0.1,22.1 16.3,22.1 8.6,0 16.4,-6.3 16.3,-21.3 -0.2,-4.5 -0.7,-10.9 -3.7,-15.5 z m 49.6,-48.3 -0.3,98.2 H 422.3 V 10.5 Z m 74.5,81.9 C 506.2,106 496.4,111 482.2,111 464,110.9 446.5,99.4 446.6,73.8 c 0.1,-23.3 15.1,-36.5 34.7,-36.4 18.3,0.1 25.9,11.1 27.3,13.1 5.7,8.1 6.9,20.2 7,27.1 l -51.4,-0.2 c 1.9,11 8.7,17.3 19.7,17.3 11.4,0 14.4,-6.7 16.5,-9.6 z M 497.4,65.3 c -1.5,-10.8 -8.1,-14.6 -15.5,-14.6 -8.9,0 -15,5.1 -17,14.5 z"
       id="path6" />
    <g
       id="g10">
      <path
         class="st1"
         d="m 179.6,57.4 v 14.4 h 24.6 v 16.9 c -6.3,4 -13.5,6.3 -23.8,6.3 -16.6,0 -30.3,-13.9 -30.3,-35.6 0,-21.3 12.6,-35.5 31.8,-35.5 15.4,0 21.2,12.7 22.1,17.5 h 16.8 c 0,-9.8 -11.6,-33.9 -40.4,-33.9 -30.5,0 -48.5,21.6 -48.5,52 0,31.6 21.6,51.4 47.4,51.4 38.2,0 41.5,-19.1 41.5,-19.1 V 57.4 Z"
         id="path8" />
    </g>
    <path
       class="st0"
       d="m 176.6,28 c -3.7,0.3 -7.4,0.9 -10.9,1.9 -0.1,0.1 -0.2,0.3 -0.3,0.4 -1.6,1.8 -3.6,3.5 -5.8,4.5 -0.3,0.2 -0.6,0.3 -0.9,0.4 l -0.6,0.6 C 152.6,40.8 145.9,42 121,18.4 94.3,-6.9 57.8,3.5 45.8,7.5 c -12,4 -17.5,8 -12.8,17.2 6.4,12.6 4.3,8.7 10.6,19.1 9.9,16.5 31.7,-7.6 31.7,-7.6 -16.2,24.4 -30.1,18.5 -35.4,10 -4.8,-7.7 -8.5,-16.5 -8.5,-16.5 -41,14.8 -29.9,80 -29.9,80 h 20.4 c 5.2,-24 23.8,-23.1 26.9,0 h 15.5 c 13.7,-46.9 43.1,0 43.1,0 h 17.4 c 0,-25 -2.6,-34.4 10.2,-36.2 21.9,-3 32,-13.2 38.6,-28.6 2.4,-5.8 3.3,-11.6 3,-16.9 z"
       id="path12" />
    <g
       id="g18">
      <path
         class="st2"
         d="m 102.7,34.5 c 0,0 9.4,3.1 22,7.3 -0.7,3.4 -7,9.9 -15.1,7.1 -10.8,-3.5 -6.9,-14.4 -6.9,-14.4 z"
         id="path14" />
      <ellipse
         transform="rotate(-6.066,113.363,41.285)"
         class="st0"
         cx="113.4"
         cy="41.299999"
         rx="5.6999998"
         ry="5.5"
         id="ellipse16" />
    </g>
    <path
       class="st0"
       d="m 147.2,8.7 c 0.7,0.6 1.6,1.2 2.5,1.8 4.2,-3.5 9.7,-3.4 14.4,-5.3 -4.1,-3.8 -10.7,-6.7 -12.7,-4.3 -0.5,0.6 -3.1,2.6 -4.2,4.1 -1.8,2.2 -0.9,2.9 0,3.7 z"
       id="path20" />
  </g>
</svg>
