<?xml version="1.0" encoding="UTF-8" standalone="no"?>
<!-- Generator: Adobe Illustrator 19.0.1, SVG Export Plug-In . SVG Version: 6.00 Build 0)  -->

<svg
   version="1.1"
   id="Layer_1"
   x="0px"
   y="0px"
   width="120"
   height="60"
   viewBox="-93 0 120 60"
   xml:space="preserve"
   sodipodi:docname="grafana.svg"
   inkscape:version="1.1.1 (3bf5ae0d25, 2021-09-20)"
   xmlns:inkscape="http://www.inkscape.org/namespaces/inkscape"
   xmlns:sodipodi="http://sodipodi.sourceforge.net/DTD/sodipodi-0.dtd"
   xmlns="http://www.w3.org/2000/svg"
   xmlns:svg="http://www.w3.org/2000/svg"><defs
   id="defs52" /><sodipodi:namedview
   id="namedview50"
   pagecolor="#ffffff"
   bordercolor="#666666"
   borderopacity="1.0"
   inkscape:pageshadow="2"
   inkscape:pageopacity="0.0"
   inkscape:pagecheckerboard="0"
   showgrid="false"
   inkscape:zoom="8.5333333"
   inkscape:cx="60"
   inkscape:cy="29.941406"
   inkscape:window-width="1920"
   inkscape:window-height="951"
   inkscape:window-x="-8"
   inkscape:window-y="-8"
   inkscape:window-maximized="1"
   inkscape:current-layer="Layer_1" />
<style
   type="text/css"
   id="style2">
	.st0{fill:#E6E7E8;}
	.st1{fill:url(#SVGID_1_);}
</style>


<linearGradient
   id="SVGID_1_"
   gradientUnits="userSpaceOnUse"
   x1="13.5"
   y1="138.8107"
   x2="13.5"
   y2="35.9585"
   gradientTransform="translate(-40.623377,26.640908)">
	<stop
   offset="0"
   style="stop-color:#FFF100"
   id="stop42" />
	<stop
   offset="1"
   style="stop-color:#F05A28"
   id="stop44" />
</linearGradient>
<g
   id="g976"
   transform="matrix(0.23068672,0,0,0.23068672,-70.126765,10.693617)"><g
     id="g18"
     transform="matrix(2.48832,0,0,2.48832,189.79431,-243.772)"
     style="fill:#000000">
	<path
   class="st0"
   d="m -29,132.2 c -0.3,7.9 -6.6,14.1 -14.4,14.1 -8.2,0 -14.3,-6.6 -14.3,-14.7 0,-8.1 6.6,-14.7 14.7,-14.7 3.6,0 7.2,1.6 10.2,4.4 l -2.3,2.9 c -2.3,-2 -5.1,-3.4 -7.9,-3.4 -5.9,0 -10.8,4.8 -10.8,10.8 0,6.1 4.6,10.8 10.4,10.8 5.2,0 9.3,-3.8 10.2,-8.8 h -11.9 v -3.5 H -29 Z"
   id="path4"
   style="fill:#000000" />
	<path
   class="st0"
   d="m -15.4,130.2 h -2.2 c -2.4,0 -4.4,2 -4.4,4.4 V 146 h -3.9 v -19.6 h 3.2 v 1.6 c 1.1,-1.1 2.7,-1.6 4.6,-1.6 h 4.2 z"
   id="path6"
   style="fill:#000000" />
	<path
   class="st0"
   d="M 6,146 H 2.6 v -2.5 c -2.6,2.5 -6.6,3.7 -10.7,1.9 -3,-1.3 -5.3,-4.1 -5.9,-7.4 -1.2,-6.3 3.7,-11.9 9.9,-11.9 2.6,0 5,1.1 6.7,2.8 v -2.5 H 6 Z m -4,-8.3 c 0.9,-4 -2.1,-7.6 -6,-7.6 -3.4,0 -6.1,2.8 -6.1,6.1 0,3.8 3.3,6.7 7.2,6.1 2.3,-0.4 4.3,-2.3 4.9,-4.6 z"
   id="path8"
   style="fill:#000000" />
	<path
   class="st0"
   d="m 13.8,125.4 v 1.1 H 20 v 3.4 H 13.8 V 146 H 10 v -20.5 c 0,-4.3 3.1,-6.8 7,-6.8 h 4.7 l -1.6,3.7 H 17 c -1.8,-0.1 -3.2,1.3 -3.2,3 z"
   id="path10"
   style="fill:#000000" />
	<path
   class="st0"
   d="m 40.8,146 h -3.3 v -2.5 c -2.6,2.5 -6.6,3.7 -10.7,1.9 -3,-1.3 -5.3,-4.1 -5.9,-7.4 -1.2,-6.3 3.7,-11.9 9.9,-11.9 2.6,0 5,1.1 6.7,2.8 v -2.5 h 3.4 V 146 Z m -4,-8.3 c 0.9,-4 -2.1,-7.6 -6,-7.6 -3.4,0 -6.1,2.8 -6.1,6.1 0,3.8 3.3,6.7 7.2,6.1 2.4,-0.4 4.3,-2.3 4.9,-4.6 z"
   id="path12"
   style="fill:#000000" />
	<path
   class="st0"
   d="M 61.7,134.5 V 146 h -3.9 v -11.6 c 0,-2.4 -2,-4.4 -4.4,-4.4 -2.5,0 -4.4,2 -4.4,4.4 V 146 h -3.9 v -19.6 h 3.2 v 1.7 c 1.4,-1.3 3.3,-2 5.2,-2 4.6,0.1 8.2,3.8 8.2,8.4 z"
   id="path14"
   style="fill:#000000" />
	<path
   class="st0"
   d="m 84.7,146 h -3.3 v -2.5 c -2.6,2.5 -6.6,3.7 -10.7,1.9 -3,-1.3 -5.3,-4.1 -5.9,-7.4 -1.2,-6.3 3.7,-11.9 9.9,-11.9 2.6,0 5,1.1 6.7,2.8 v -2.5 h 3.4 V 146 Z m -4,-8.3 c 0.9,-4 -2.1,-7.6 -6,-7.6 -3.4,0 -6.1,2.8 -6.1,6.1 0,3.8 3.3,6.7 7.2,6.1 2.4,-0.4 4.3,-2.3 4.9,-4.6 z"
   id="path16"
   style="fill:#000000" />
</g><path
     class="st1"
     d="m 24.576623,77.240908 c -0.2,-1.9 -0.5,-4.1 -1.1,-6.5 -0.6,-2.4 -1.6,-5 -2.9,-7.8 -1.4,-2.7 -3.1,-5.6 -5.4,-8.3 -0.9,-1.1 -1.9,-2.1 -2.9,-3.2 1.6,-6.3 -1.9,-11.8 -1.9,-11.8 -6.0999996,-0.4 -9.89999958,1.9 -11.29999958,2.9 -0.20000002,-0.1 -0.50000002,-0.2 -0.70000002,-0.3 -1,-0.4 -2.1,-0.8 -3.2,-1.2 -1.1,-0.3 -2.2,-0.7 -3.3,-0.9 -1.1,-0.3 -2.3000004,-0.5 -3.5000004,-0.7 -0.2,0 -0.4,-0.1 -0.6,-0.1 -2.6,-8.4 -10.2,-12 -10.2,-12 -8.7,5.6 -10.4,13.1 -10.4,13.1 0,0 0,0.2 -0.1,0.4 -0.5,0.1 -0.9,0.3 -1.4,0.4 -0.6,0.2 -1.3,0.4 -1.9,0.7 -0.6,0.3 -1.3,0.5 -1.9,0.8 -1.3,0.6 -2.5,1.2 -3.8,1.9 -1.2,0.7 -2.4,1.4 -3.5,2.2 -0.2,-0.1 -0.3,-0.2 -0.3,-0.2 -11.7,-4.5 -22.1,0.9 -22.1,0.9 -0.9,12.5 4.7,20.3 5.8,21.7 -0.3,0.8 -0.5,1.5 -0.8,2.3 -0.9,2.8 -1.5,5.7 -1.9,8.7 -0.1,0.4 -0.1,0.9 -0.2,1.3 -10.8,5.3 -14,16.3 -14,16.3 9,10.400002 19.6,11.000002 19.6,11.000002 0,0 0,0 0,0 1.3,2.4 2.9,4.7 4.6,6.8 0.7,0.9 1.5,1.7 2.3,2.6 -3.3,9.4 0.5,17.30001 0.5,17.30001 10.1,0.4 16.7,-4.4 18.1,-5.5 1,0.3 2,0.6 3,0.9 3.1,0.8 6.3,1.3 9.4,1.4 0.8,0 1.6,0 2.4,0 h 0.4 0.3 0.5 0.5 v 0 c 4.7,6.8 13.1000004,7.7 13.1000004,7.7 5.9,-6.3 6.3,-12.40001 6.3,-13.80001 v 0 c 0,0 0,0 0,-0.1 0,-0.1 0,-0.2 0,-0.2 v 0 c 0,-0.1 0,-0.2 0,-0.3 1.2,-0.9 2.4,-1.8 3.6,-2.8 2.4,-2.1 4.3999996,-4.6 6.1999996,-7.2 0.2,-0.2 0.3,-0.5 0.5,-0.7 6.7,0.4 11.4,-4.2 11.4,-4.2 -1.1,-7 -5.1,-10.4 -5.9,-11.000005 v 0 c 0,0 0,0 -0.1,-0.1 0,0 -0.1,-0.1 -0.1,-0.1 0,0 0,0 0,0 0,0 -0.1,-0.1 -0.1,-0.1 0,-0.399997 0.1,-0.799997 0.1,-1.299997 0.1,-0.8 0.1,-1.5 0.1,-2.3 v -0.6 -0.3 -0.1 c 0,-0.2 0,-0.1 0,-0.2 v -0.5 -0.6 c 0,-0.2 0,-0.4 0,-0.6 0,-0.2 0,-0.4 -0.1,-0.6 l -0.1,-0.599999 -0.1,-0.6 c -0.1,-0.8 -0.3,-1.5 -0.4,-2.3 -0.7,-3 -1.9,-5.9 -3.4,-8.4 -1.6,-2.6 -3.5,-4.8 -5.6999996,-6.8 -2.2,-1.9 -4.6,-3.5 -7.19999998,-4.6 -2.60000002,-1.2 -5.20000002,-1.9 -7.90000002,-2.2 -1.3,-0.2 -2.7,-0.2 -4.0000004,-0.2 h -0.5 -0.1 c 0,0 -0.2,0 -0.2,0 h -0.2 -0.5 c -0.2,0 -0.4,0 -0.5,0 -0.7,0.1 -1.4,0.2 -2,0.3 -2.7,0.5 -5.2,1.5 -7.4,2.8 -2.2,1.299999 -4.1,3 -5.7,4.9 -1.6,1.9 -2.8,3.9 -3.6,6.1 -0.8,2.099999 -1.3,4.4 -1.4,6.5 0,0.5 0,1.099999 0,1.599999 0,0.1 0,0.3 0,0.400001 v 0.4 c 0,0.3 0,0.5 0.1,0.8 0.1,1.099999 0.3,2.099999 0.6,3.099999 0.6,2 1.5,3.8 2.7,5.400001 1.2,1.600001 2.5,2.800001 4,3.800001 1.5,1 3,1.7 4.6,2.2 1.6,0.5 3.1,0.7 4.5,0.6 0.2,0 0.4,0 0.5,0 0.1,0 0.2,0 0.3,0 0.1,0 0.2,0 0.3,0 0.2,0 0.3,0 0.5,0 0,0 0.1,0 0.1,0 h 0.1 c 0.1,0 0.2,0 0.3,0 0.2,0 0.4,-0.1 0.5,-0.1 0.2,0 0.3,-0.1 0.5,-0.1 0.3,-0.1 0.7,-0.2 1,-0.3 0.6,-0.2 1.2,-0.5 1.8,-0.7 0.6,-0.3 1.1000004,-0.6 1.5000004,-0.9 0.1,-0.1 0.3,-0.2 0.4,-0.3 0.5,-0.4 0.6,-1.1 0.2,-1.6 -0.4,-0.4 -1,-0.5 -1.5000004,-0.3 -0.1,0.1 -0.2,0.1 -0.4,0.2 -0.4,0.2 -0.9,0.4 -1.3,0.5 -0.5,0.1 -1,0.3 -1.5,0.4 -0.3,0 -0.5,0.1 -0.8,0.1 -0.1,0 -0.3,0 -0.4,0 -0.1,0 -0.3,0 -0.4,0 -0.1,0 -0.3,0 -0.4,0 -0.2,0 -0.3,0 -0.5,0 0,0 -0.1,0 0,0 h -0.1 -0.1 c -0.1,0 -0.1,0 -0.2,0 -0.1,0 -0.3,0 -0.4,-0.1 -1.1,-0.2 -2.3,-0.5 -3.4,-1 -1.1,-0.5 -2.2,-1.2 -3.1,-2.100001 -1,-0.9 -1.8,-1.9 -2.5,-3.1 -0.7,-1.2 -1.1,-2.5 -1.3,-3.8 -0.1,-0.7 -0.2,-1.4 -0.1,-2.1 0,-0.2 0,-0.4 0,-0.6 0,0.1 0,0 0,0 v -0.1 -0.1 c 0,-0.1 0,-0.2 0,-0.3 0,-0.4 0.1,-0.7 0.2,-1.1 0.5,-3 2,-5.9 4.3,-8.1 0.6,-0.6 1.2,-1.1 1.9,-1.5 0.7,-0.5 1.4,-0.9 2.1,-1.2 0.7,-0.3 1.5,-0.6 2.3,-0.8 0.8,-0.2 1.6,-0.4 2.4,-0.4 0.4,0 0.8,-0.1 1.2,-0.1 0.1,0 0.2,0 0.3,0 h 0.3 0.2 c 0.1,0 0,0 0,0 h 0.1 0.3 c 0.9,0.1 1.8000004,0.2 2.6000004,0.4 1.7,0.4 3.4,1 5,1.9 3.20000002,1.8 5.9,4.5 7.5,7.8 0.8,1.6 1.4,3.4 1.7,5.3 0.1,0.5 0.1,0.9 0.2,1.4 v 0.3 0.3 c 0,0.1 0,0.2 0,0.3 0,0.1 0,0.2 0,0.3 v 0.3 0.3 c 0,0.2 0,0.6 0,0.8 0,0.5 -0.1,1 -0.1,1.5 -0.1,0.5 -0.1,1 -0.2,1.5 -0.1,0.5 -0.2,0.999997 -0.3,1.499997 -0.2,1.000004 -0.6,1.900004 -0.9,2.900004 -0.7,1.9 -1.7,3.7 -2.9,5.3 -2.4,3.3 -5.7,6 -9.4,7.7 -1.9000004,0.8 -3.8000004,1.5 -5.8000004,1.8 -1,0.2 -2,0.3 -3,0.3 h -0.2 -0.2 -0.3 -0.5 -0.3 c 0.1,0 0,0 0,0 h -0.1 c -0.5,0 -1.1,0 -1.6,-0.1 -2.2,-0.2 -4.3,-0.6 -6.4,-1.2 -2.1,-0.6 -4.1,-1.4 -6,-2.4 -3.8,-2 -7.2,-4.9 -9.9,-8.2 -1.3,-1.7 -2.5,-3.5 -3.5,-5.4 -1,-1.900001 -1.7,-3.900001 -2.3,-5.900001 -0.6,-2 -0.9,-4.1 -1,-6.2 v -0.4 -0.1 -0.1 -0.2 -0.3 -0.1 -0.1 -0.2 -0.5 -0.1 c 0,0 0,0 0,0 v -0.2 c 0,-0.3 0,-0.5 0,-0.8 0,-1 0.1,-2.1 0.3,-3.2 0.1,-1.1 0.3,-2.1 0.5,-3.2 0.2,-1.1 0.5,-2.1 0.8,-3.2 0.6,-2.1 1.3,-4.1 2.2,-6 1.8,-3.8 4.1,-7.2 6.8,-9.9 0.7,-0.7 1.4,-1.3 2.2,-1.9 0.3,-0.3 1,-0.9 1.8,-1.4 0.8,-0.5 1.6,-1 2.5,-1.4 0.4,-0.2 0.8,-0.4 1.3,-0.6 0.2,-0.1 0.4,-0.2 0.7,-0.3 0.2,-0.1 0.4,-0.2 0.7,-0.3 0.9,-0.4 1.8,-0.7 2.7,-1 0.2,-0.1 0.5,-0.1 0.7,-0.2 0.2,-0.1 0.5,-0.1 0.7,-0.2 0.5,-0.1 0.9,-0.2 1.4,-0.4 0.2,-0.1 0.5,-0.1 0.7,-0.2 0.2,0 0.5,-0.1 0.7,-0.1 0.2,0 0.5,-0.1 0.7,-0.1 l 0.4,-0.1 0.4,-0.1 c 0.2,0 0.5,-0.1 0.7,-0.1 0.3,0 0.5,-0.1 0.8,-0.1 0.2,0 0.6,-0.1 0.8,-0.1 0.2,0 0.3,0 0.5,-0.1 h 0.3 0.2 0.2 c 0.3,0 0.5,0 0.8,-0.1 h 0.4 c 0,0 0.1,0 0,0 h 0.1 0.2 c 0.2,0 0.5,0 0.7,0 0.9,0 1.8,0 2.7,0 1.8,0.1 3.6000004,0.3 5.3000004,0.6 3.4,0.6 6.70000002,1.7 9.6,3.2 2.9,1.4 5.6,3.2 7.8,5.1 0.1,0.1 0.2999996,0.2 0.3999996,0.4 0.1,0.1 0.3,0.2 0.4,0.4 0.3,0.2 0.5,0.5 0.8,0.7 0.3,0.2 0.5,0.5 0.8,0.7 0.2,0.3 0.5,0.5 0.7,0.8 1,1 1.9,2.1 2.7,3.1 1.6,2.1 2.9,4.2 3.9,6.2 0.1,0.1 0.1,0.2 0.2,0.4 0.1,0.1 0.1,0.2 0.2,0.4 0.1,0.2 0.2,0.5 0.4,0.7 0.1,0.2 0.2,0.5 0.3,0.7 0.1,0.2 0.2,0.5 0.3,0.7 0.4,0.9 0.7,1.8 1,2.7 0.5,1.4 0.8,2.6 1.1,3.6 0.1,0.4 0.5,0.7 0.9,0.7 0.5,0 0.8,-0.4 0.8,-0.9 -0.1,-1.2 -0.1,-2.5 -0.2,-4.000001 z"
     id="path47"
     style="fill:url(#SVGID_1_)" /></g>
</svg>
