<?xml version="1.0" encoding="UTF-8" standalone="no"?>
<svg
   width="120"
   height="60"
   version="1.1"
   id="svg43"
   sodipodi:docname="python.svg"
   inkscape:version="1.1.1 (3bf5ae0d25, 2021-09-20)"
   xmlns:inkscape="http://www.inkscape.org/namespaces/inkscape"
   xmlns:sodipodi="http://sodipodi.sourceforge.net/DTD/sodipodi-0.dtd"
   xmlns="http://www.w3.org/2000/svg"
   xmlns:svg="http://www.w3.org/2000/svg"
   xmlns:rdf="http://www.w3.org/1999/02/22-rdf-syntax-ns#"
   xmlns:cc="http://creativecommons.org/ns#"
   xmlns:dc="http://purl.org/dc/elements/1.1/">
  <sodipodi:namedview
     id="namedview45"
     pagecolor="#ffffff"
     bordercolor="#666666"
     borderopacity="1.0"
     inkscape:pageshadow="2"
     inkscape:pageopacity="0.0"
     inkscape:pagecheckerboard="0"
     inkscape:document-units="pt"
     showgrid="false"
     units="px"
     inkscape:zoom="2.0408951"
     inkscape:cx="233.72098"
     inkscape:cy="76.682039"
     inkscape:window-width="1920"
     inkscape:window-height="951"
     inkscape:window-x="-8"
     inkscape:window-y="-8"
     inkscape:window-maximized="1"
     inkscape:current-layer="svg43" />
  <title
     id="title2">Python programming language logo</title>
  <metadata
     id="metadata4">
    <rdf:RDF>
      <dc:format>image/svg+xml</dc:format>
      <dc:type
         rdf:resource="http://purl.org/dc/dcmitype/StillImage" />
      <dc:title />
      <cc:Work
         rdf:about="">
        <dc:title>Python programming language logo</dc:title>
      </cc:Work>
    </rdf:RDF>
  </metadata>
  <defs
     id="defs21">
    <linearGradient
       id="vlpc"
       x1="151"
       x2="112"
       y1="192.39999"
       y2="137.3"
       gradientTransform="matrix(0.5625,0,0,0.568,-9.4,-5.305)"
       gradientUnits="userSpaceOnUse">
      <stop
         style="stop-color:#ffd43b"
         offset="0"
         id="stop6" />
      <stop
         style="stop-color:#ffe873"
         offset="1"
         id="stop8" />
    </linearGradient>
    <linearGradient
       id="vlpb"
       x1="26.65"
       x2="135.7"
       y1="20.6"
       y2="114.4"
       gradientTransform="matrix(0.5625,0,0,0.568,-9.4,-5.305)"
       gradientUnits="userSpaceOnUse">
      <stop
         style="stop-color:#5a9fd4"
         offset="0"
         id="stop11" />
      <stop
         style="stop-color:#306998"
         offset="1"
         id="stop13" />
    </linearGradient>
    <radialGradient
       id="vlpa"
       cx="61.52"
       cy="132.3"
       r="29.040001"
       gradientTransform="matrix(2.383e-8,-0.2964,1.437,4.684e-7,-128.5,150.5)"
       gradientUnits="userSpaceOnUse">
      <stop
         style="stop-color:#b8b8b8;stop-opacity:.498"
         offset="0"
         id="stop16" />
      <stop
         style="stop-color:#7f7f7f;stop-opacity:0"
         offset="1"
         id="stop18" />
    </radialGradient>
  </defs>
  <g
     id="g951"
     transform="matrix(0.22876793,0,0,0.22876793,4.4060297,16.041198)">
    <path
       d="m 184.6,61.93 c 0,-14.56 -4.152,-22.04 -12.46,-22.45 -3.304,-0.156 -6.531,0.3704 -9.669,1.589 -2.505,0.8967 -4.191,1.784 -5.078,2.68 v 34.76 c 5.312,3.334 10.03,4.883 14.14,4.64 8.704,-0.5751 13.06,-7.642 13.06,-21.22 z m 10.24,0.6043 c 0,7.398 -1.735,13.54 -5.224,18.42 -3.889,5.527 -9.279,8.373 -16.17,8.529 -5.195,0.1657 -10.55,-1.462 -16.05,-4.874 v 31.59 l -8.909,-3.178 v -70.12 c 1.462,-1.793 3.343,-3.334 5.624,-4.64 5.302,-3.09 11.75,-4.679 19.33,-4.757 l 0.1267,0.1267 c 6.93,-0.08773 12.27,2.758 16.02,8.529 3.499,5.293 5.254,12.08 5.254,20.37 z"
       style="fill:#646464"
       id="path23" />
    <path
       d="m 249.3,83.27 c 0,9.923 -0.9942,16.79 -2.983,20.62 -1.998,3.821 -5.8,6.872 -11.41,9.143 -4.552,1.793 -9.474,2.768 -14.76,2.934 l -1.472,-5.614 c 5.371,-0.731 9.153,-1.462 11.35,-2.193 4.318,-1.462 7.281,-3.704 8.909,-6.706 1.306,-2.447 1.949,-7.115 1.949,-14.03 v -2.32 c -6.092,2.768 -12.48,4.143 -19.15,4.143 -4.386,0 -8.256,-1.374 -11.59,-4.143 -3.743,-3.012 -5.614,-6.833 -5.614,-11.46 v -37.08 l 8.909,-3.051 v 37.32 c 0,3.987 1.287,7.057 3.86,9.211 2.573,2.154 5.907,3.187 9.991,3.109 4.084,-0.08773 8.46,-1.667 13.11,-4.757 v -43.54 h 8.909 v 48.41 z"
       style="fill:#646464"
       id="path25" />
    <path
       d="m 284.1,89 c -1.062,0.08772 -2.037,0.1267 -2.934,0.1267 -5.039,0 -8.967,-1.199 -11.77,-3.606 -2.797,-2.408 -4.201,-5.731 -4.201,-9.971 v -35.09 h -6.102 v -5.605 h 6.102 v -14.88 l 8.899,-3.168 v 18.05 h 10.01 v 5.605 h -10.01 v 34.85 c 0,3.343 0.8967,5.712 2.69,7.096 1.54,1.14 3.987,1.793 7.32,1.959 v 4.64 z"
       style="fill:#646464"
       id="path27" />
    <path
       d="m 338,88.27 h -8.909 V 53.88 c 0,-3.499 -0.8188,-6.511 -2.447,-9.026 -1.881,-2.846 -4.493,-4.269 -7.846,-4.269 -4.084,0 -9.192,2.154 -15.32,6.462 v 41.22 h -8.909 V 6.067 L 303.478,3.26 V 40.7 c 5.692,-4.143 11.91,-6.219 18.67,-6.219 4.718,0 8.538,1.589 11.46,4.757 2.934,3.168 4.396,7.115 4.396,11.83 v 37.19 z"
       style="fill:#646464"
       id="path29" />
    <path
       d="m 385.4,60.53 c 0,-5.595 -1.062,-10.21 -3.178,-13.87 -2.515,-4.454 -6.423,-6.803 -11.71,-7.047 -9.767,0.5653 -14.64,7.564 -14.64,20.98 0,6.15 1.014,11.29 3.061,15.41 2.612,5.254 6.531,7.846 11.76,7.759 9.806,-0.07798 14.71,-7.817 14.71,-23.23 z m 9.757,0.05848 c 0,7.963 -2.037,14.59 -6.102,19.88 -4.474,5.926 -10.65,8.899 -18.54,8.899 -7.817,0 -13.91,-2.973 -18.31,-8.899 -3.987,-5.293 -5.975,-11.92 -5.975,-19.88 0,-7.486 2.154,-13.78 6.462,-18.91 4.552,-5.439 10.54,-8.168 17.93,-8.168 7.398,0 13.42,2.729 18.06,8.168 4.308,5.127 6.462,11.42 6.462,18.91 z"
       style="fill:#646464"
       id="path31" />
    <path
       d="m 446.2,88.27 h -8.909 V 51.93 c 0,-3.987 -1.199,-7.096 -3.597,-9.338 -2.398,-2.232 -5.595,-3.314 -9.581,-3.226 -4.23,0.07798 -8.256,1.462 -12.08,4.143 v 44.76 h -8.909 v -45.86 c 5.127,-3.733 9.845,-6.17 14.15,-7.31 4.065,-1.062 7.651,-1.589 10.74,-1.589 2.115,0 4.104,0.2047 5.975,0.6141 3.499,0.809 6.345,2.31 8.538,4.513 2.447,2.437 3.665,5.361 3.665,8.782 v 40.85 z"
       style="fill:#646464"
       id="path33" />
    <path
       d="M 60.51,6.398 C 55.926,6.4193 51.549,6.8102 47.7,7.492 36.35,9.497 34.29,13.692 34.29,21.432 v 10.22 H 61.1 v 3.406 H 34.29 24.23 c -7.792,0 -14.62,4.684 -16.75,13.59 -2.462,10.21 -2.571,16.59 0,27.25 1.906,7.938 6.458,13.59 14.25,13.59 h 9.219 v -12.25 c 0,-8.85 7.657,-16.66 16.75,-16.66 h 26.78 c 7.455,0 13.41,-6.138 13.41,-13.62 v -25.53 c 0,-7.266 -6.13,-12.72 -13.41,-13.94 C 69.873,6.7213 65.094,6.373 60.509,6.394 Z m -14.5,8.219 c 2.77,0 5.031,2.299 5.031,5.125 -2e-6,2.816 -2.262,5.094 -5.031,5.094 -2.779,-10e-7 -5.031,-2.277 -5.031,-5.094 -10e-7,-2.826 2.252,-5.125 5.031,-5.125 z"
       style="fill:url(#vlpb)"
       id="path35" />
    <path
       d="m 91.23,35.05 v 11.91 c 0,9.231 -7.826,17 -16.75,17 H 47.7 c -7.336,0 -13.41,6.278 -13.41,13.62 v 25.53 c 0,7.266 6.319,11.54 13.41,13.62 8.487,2.496 16.63,2.947 26.78,0 6.75,-1.954 13.41,-5.888 13.41,-13.62 V 92.89 H 61.11 v -3.406 h 26.78 13.41 c 7.792,0 10.7,-5.435 13.41,-13.59 2.799,-8.399 2.68,-16.48 0,-27.25 -1.926,-7.757 -5.604,-13.59 -13.41,-13.59 H 91.24 Z M 76.17,99.71 c 2.779,3e-6 5.031,2.277 5.031,5.094 -2e-6,2.826 -2.252,5.125 -5.031,5.125 -2.77,0 -5.031,-2.299 -5.031,-5.125 2e-6,-2.816 2.262,-5.094 5.031,-5.094 z"
       style="fill:url(#vlpc)"
       id="path37" />
    <path
       d="m 463.6,26.91 h 1.562 v -9.796 h 3.7 V 15.946 H 459.9 v 1.168 h 3.7 v 9.796 m 6.647,0 h 1.334 v -8.947 l 2.896,8.946 h 1.486 l 3.018,-8.916 v 8.917 h 1.456 V 15.95 h -1.926 l -3.298,9.393 -2.813,-9.393 h -2.153 v 10.96"
       style="fill:#646464"
       id="path39" />
  </g>
</svg>
