<?xml version="1.0" encoding="utf-8"?>
<!-- Generator: Adobe Illustrator 26.0.2, SVG Export Plug-In . SVG Version: 6.00 Build 0)  -->
<svg version="1.1" id="Layer_1" xmlns="http://www.w3.org/2000/svg" xmlns:xlink="http://www.w3.org/1999/xlink" x="0px" y="0px"
	 viewBox="0 0 241 95" style="enable-background:new 0 0 241 95;" xml:space="preserve">
<style type="text/css">
	.st0{fill:#FFFFFF;fill-opacity:0;}
	.st1{fill:url(#SVGID_1_);}
	.st2{fill:url(#SVGID_00000016035054208320797200000015254331606604101298_);}
	.st3{fill:#2296F1;}
</style>
<desc>Created with Fabric.js 4.4.0</desc>
<g id="background-logo" transform="matrix(1 0 0 1 640 512)">
	<rect x="-640" y="-565" class="st0" width="250" height="200"/>
</g>
<g id="logo-logo" transform="matrix(1.4204663090743987 0 0 1.4204663090743985 282.0721993808835 512.4779904306221)">
	<g>
		<g transform="matrix(1.8419814225402327 0 0 -1.8419814225402327 0 0.10407226679660653)">
			
				<linearGradient id="SVGID_1_" gradientUnits="userSpaceOnUse" x1="-421.0703" y1="-25.9199" x2="-420.0703" y2="-25.9199" gradientTransform="matrix(58.1025 0 0 -58.1025 24367.373 -1328.0957)">
				<stop  offset="0" style="stop-color:#6E00A2"/>
				<stop  offset="8.000000e-08" style="stop-color:#6E00A2"/>
				<stop  offset="1" style="stop-color:#004187"/>
				<stop  offset="1" style="stop-color:#004187"/>
			</linearGradient>
			<path class="st1" d="M-87.9,189c0.1,0,0.3,0,0.4,0l0,0C-87.6,189-87.7,189-87.9,189 M-88.1,188.9
				C-88.1,188.9-88.1,188.9-88.1,188.9L-88.1,188.9c0.1,0,0.2,0,0.3,0l0,0C-88,189-88,188.9-88.1,188.9 M-88.4,188.9
				c0.1,0,0.1,0,0.2,0l0,0C-88.3,188.9-88.3,188.9-88.4,188.9 M-88.9,188.8c-0.2,0-0.3-0.1-0.5-0.1l0,0c-0.8-0.2-0.9-0.3-1.5-0.5
				l0,0c-0.3-0.2-0.8-0.4-1.1-0.5l0,0c-0.8-0.5-0.9-0.5-1.5-1l0,0c-2.4-1.8-2.3-4.8,0.6-7.2l0,0c3.4-2.9,9.3-3.9,13.2-2.3l0,0
				c3.1,1.2,4,3.7,2.7,6.2l0,0l-0.2,0.3c-0.5,0.8-0.6,0.9-1.1,1.5l0,0c-0.6,0.7-0.7,0.7-1.2,1.2l0,0c-0.7,0.6-0.7,0.6-1.2,0.9l0,0
				c-0.1,0.1-0.2,0.1-0.3,0.2l0,0c0.4-0.2,0.7-0.5,1-0.7l0,0c2.5-2.2,2.2-4.9-0.8-6.1l0,0c-3-1.2-7.4-0.4-9.9,1.7l0,0
				c-2.5,2.2-2.2,4.9,0.8,6.1l0,0c0.5,0.2,1,0.3,1.6,0.4l0,0C-88.6,188.9-88.8,188.8-88.9,188.8 M-87.4,188.1
				c-1.5-0.6-1.7-2-0.4-3.1l0,0c1.3-1.1,3.5-1.5,5-0.9l0,0c1.5,0.6,1.7,2,0.4,3.1l0,0c-0.9,0.7-2.2,1.2-3.4,1.2l0,0
				C-86.4,188.4-86.9,188.3-87.4,188.1 M-81,187.4c-0.2,0.1-0.4,0.3-0.7,0.4l0,0C-81.5,187.7-81.3,187.6-81,187.4 M-97,182.1
				c0,0.1,0.1,0.2,0.1,0.3l0,0C-96.9,182.3-97,182.2-97,182.1 M-97.6,180.1c-0.2-1.1-0.2-1.3-0.2-2.4l0,0c0.5-5.9,10.5-10,17.8-7.3
				l0,0c1.7,0.7,2.9,1.8,3.4,3l0,0c0.4,1,0.5,1.2,0.7,2.3l0,0c0.2,0.9,0.2,1.2,0.2,2.1l0,0c-0.1-1.8-1.4-3.4-3.8-4.4l0,0
				c-4.5-1.8-11.4-0.6-15.2,2.7l0,0c-2.3,1.9-3,4.1-2.4,6l0,0C-97.3,181.5-97.5,180.9-97.6,180.1 M-75.7,177.8c0,0.1,0,0.2,0,0.3
				l0,0C-75.6,178-75.7,177.9-75.7,177.8 M-96.4,172.4l-0.1,0.1C-96.4,172.4-96.4,172.4-96.4,172.4 M-96.3,172.2
				c0.5-0.8,0.6-0.9,1.1-1.5l0,0c0.6-0.7,0.7-0.7,1.2-1.2l0,0c0.7-0.6,0.7-0.6,1.2-0.9l0,0c0.3-0.2,0.7-0.4,1-0.6l0,0
				c0.7-0.3,2.9-1.4,5.9-1.2l0,0c0.2,0,0.4,0,0.6,0.1l0,0c0.8,0.1,0.8,0.1,1.3,0.2l0,0c0.8,0.2,0.9,0.3,1.5,0.5l0,0
				c0.1,0,0.2,0.1,0.3,0.1l0,0c0.3,0.1,0.6,0.3,0.9,0.4l0,0c0.8,0.5,0.9,0.5,1.4,0.9l0,0c-0.4-0.3-0.9-0.6-1.5-0.8l0,0
				c-3.9-1.6-9.9-0.5-13.2,2.3l0,0c-0.7,0.6-1.2,1.2-1.6,1.8l0,0L-96.3,172.2z M-82,168C-82,168-82,168-82,168L-82,168
				C-82,168-82,168-82,168 M-82,167.9c-0.1,0-0.2-0.1-0.2-0.1l0,0C-82.1,167.9-82.1,167.9-82,167.9 M-82.3,167.8
				c-0.1,0-0.2-0.1-0.3-0.1l0,0C-82.5,167.7-82.4,167.7-82.3,167.8 M-80,169.1C-80,169.1-80,169.1-80,169.1L-80,169.1
				C-80,169.1-80,169.1-80,169.1"/>
		</g>
		<g transform="matrix(1.8419814225402327 0 0 -1.8419814225402327 -0.0018277569927249715 -0.11053719677818208)">
			
				<linearGradient id="SVGID_00000137831247641169722440000003266020573625893783_" gradientUnits="userSpaceOnUse" x1="-421.0692" y1="-26.0363" x2="-420.0692" y2="-26.0363" gradientTransform="matrix(58.1015 0 0 -58.1015 24366.9121 -1334.9316)">
				<stop  offset="0" style="stop-color:#AA51FF"/>
				<stop  offset="1" style="stop-color:#00A7EE"/>
				<stop  offset="1" style="stop-color:#00A7EE"/>
			</linearGradient>
			<path style="fill:url(#SVGID_00000137831247641169722440000003266020573625893783_);" d="M-87.5,188.9c-0.2,0-0.4,0-0.6-0.1l0,0
				c-0.5-0.1-0.5-0.1-1.3-0.2l0,0c-0.6-0.1-0.6-0.2-1.5-0.5l0,0c-0.4-0.2-0.8-0.4-1.2-0.5l0,0c-0.5-0.3-0.6-0.4-1.2-0.7l0,0
				c0.4,0.2,0.8,0.5,1.3,0.7l0,0c3.9,1.6,9.8,0.5,13.2-2.3l0,0c0.7-0.6,1.2-1.2,1.6-1.8l0,0l-0.1,0.1c-0.4,0.7-0.5,0.8-1.1,1.5l0,0
				c-0.4,0.5-0.5,0.6-1.2,1.2l0,0c-0.4,0.3-0.5,0.4-1.2,0.9l0,0c-0.3,0.2-0.7,0.4-1,0.6l0,0c-1.5,0.8-3.4,1.2-5.1,1.2l0,0
				C-87,188.9-87.3,188.9-87.5,188.9 M-93.5,186.6c0.1,0.1,0.2,0.2,0.3,0.2l0,0C-93.3,186.8-93.4,186.7-93.5,186.6 M-93.5,185.3
				c-1.7-0.7-2.9-1.7-3.4-3l0,0c-0.4-1.1-0.5-1.3-0.7-2.3l0,0c-0.2-1.1-0.2-1.4-0.2-2.3l0,0c0.1,2.4,1.8,3.7,3.3,4.4l0,0
				c7.2,3.4,20.5-1.9,17.9-8.8l0,0c0.4,1,0.5,1.3,0.7,2.3l0,0c0.2,1.1,0.2,1.4,0.2,2.4l0,0c0,1.5-0.9,3.1-2.6,4.6l0,0
				c-2.6,2.3-6.7,3.5-10.4,3.5l0,0C-90.3,186.2-92,185.9-93.5,185.3 M-77.1,183.3c0,0,0,0.1-0.1,0.1l0,0L-77.1,183.3z M-93.7,178.5
				c-3.1-1.2-4-3.7-2.7-6.1l0,0l0.2-0.3c0.4-0.7,0.5-0.8,1.1-1.5l0,0c0.4-0.5,0.5-0.6,1.2-1.2l0,0c0.4-0.3,0.5-0.4,1.2-0.9l0,0
				c0.1,0,0.2-0.1,0.2-0.1l0,0c-0.3,0.2-0.6,0.4-0.9,0.7l0,0c-2.5,2.2-2.2,4.9,0.8,6.1l0,0c3,1.2,7.4,0.4,9.9-1.7l0,0
				c2.5-2.2,2.2-4.9-0.8-6.1l0,0c0,0,0,0,0,0l0,0c-0.3-0.1-0.6-0.2-0.9-0.3l0,0c-0.6-0.1-0.8-0.2-1.5-0.2l0,0c0.2,0,0.4,0,0.6,0.1
				l0,0c0.5,0.1,0.5,0.1,1.3,0.2l0,0c0.5,0.1,0.6,0.2,1.2,0.4l0,0c-0.2-0.1-0.3-0.1-0.5-0.1l0,0c0.2,0,0.3,0.1,0.5,0.1l0,0
				c0.1,0,0.1,0.1,0.2,0.1l0,0c0,0,0,0,0,0l0,0c0.4,0.2,0.8,0.4,1.2,0.5l0,0c0.6,0.3,0.7,0.4,1.5,1l0,0c2.4,1.8,2.2,4.8-0.6,7.2l0,0
				c-2.3,2-5.8,3.1-9,3.1l0,0C-91,179.3-92.5,179-93.7,178.5 M-97.9,177.6c0,0,0,0.1,0,0.1l0,0C-97.9,177.7-97.9,177.6-97.9,177.6
				 M-90.7,171.6c-1.5-0.6-1.7-2-0.4-3.1l0,0c1.3-1.1,3.5-1.5,5-0.9l0,0c1.5,0.6,1.7,2,0.4,3.1l0,0c-0.9,0.7-2.2,1.2-3.4,1.2l0,0
				C-89.7,171.9-90.2,171.8-90.7,171.6 M-91.8,167.9c-0.2,0.1-0.5,0.3-0.8,0.4l0,0C-92.3,168.2-92.1,168.1-91.8,167.9 M-82.6,167.5
				c-0.1,0-0.1-0.1-0.2-0.1l0,0c0,0,0,0,0,0l0,0C-82.7,167.5-82.7,167.5-82.6,167.5L-82.6,167.5C-82.6,167.5-82.6,167.5-82.6,167.5"
				/>
		</g>
	</g>
</g>
<g id="text-logo-path-group" transform="matrix(1.9211538461538462 0 0 1.9211538461538462 789.2434370376334 518.8865417874493)">
	<g>
		<g id="text-logo-path-0" transform="matrix(1 0 0 1 0 0)">
			<path class="st3" d="M-357.2-236.1h3.8l1.4-5l1.3,5h3.8l4.5-17.6h-3.1l-3.3,13l-3.3-13h-3.1l2,7.9h-0.6l-1.5,5.2l-3.4-13.1h-3.1
				L-357.2-236.1z M-334-241.4h3.2v2.3h-0.8c-3.4,0-5.8-2.4-5.8-5.8c0-3.4,2.4-5.8,5.8-5.8h2.3v-3h-2.3c-4.9,0-8.8,4-8.8,8.8
				c0,4.9,4,8.8,8.8,8.8h3.8v-8.3h-6.2V-241.4z M-324.4-236.1h9.8v-3h-6.8v-4.3h5.5v-3h-5.5v-4.3h6.8v-3h-9.8V-236.1z M-311.2-250.7
				h4.4v14.6h3v-14.6h4.4v-3h-11.8V-250.7z"/>
		</g>
	</g>
</g>
</svg>
