<svg xmlns="http://www.w3.org/2000/svg" viewBox="0 0 406.83 18.89"><defs><style>.cls-1{fill-rule:evenodd;}</style></defs><title>1</title><g id="Layer_2" data-name="Layer 2"><g id="Layer_1-2" data-name="Layer 1"><path class="cls-1" d="M203.39,2.65c4.4,0,8,3.12,8,7s-3.59,6.94-8,6.94-8-3.1-8-6.94,3.57-6.95,8-6.95Zm-30,4a6.1,6.1,0,0,1,2.63.57,3,3,0,0,0-1-.12c-1.76,0-3.22,1.15-3.22,2.59s1.46,2.58,3.22,2.58a4.13,4.13,0,0,0,1-.12,6.06,6.06,0,0,1-2.63.54c-2.54,0-4.61-1.34-4.61-3s2.07-3,4.61-3Zm20.29,2.49L192.79,9l-.21,0a10,10,0,0,1-2.78-2.5s-.07-.09-.11-.16c-1.18-2-.17-4.28,1.81-4.37a1.85,1.85,0,0,1,1.88,1.78c.11,1.16-.78,1.53-1.41.73-.68-.37-1.11.5-.66,1a1.62,1.62,0,0,0,2.14,0,2.94,2.94,0,0,0-.1-4.32,2.61,2.61,0,0,0-3.83.44A4.42,4.42,0,0,0,188.68,5l-.12-.19a11,11,0,0,0-2-2.4,2.48,2.48,0,0,0-4.16,1.18c-.43,1.29.18,2.3,1.22,2.19a2.54,2.54,0,0,1,1-2.49c.68-.4,1.39,0,2,.47a24.1,24.1,0,0,1,3.11,3.76,11.12,11.12,0,0,0,1,1C185,7.32,179.91,5.19,175.82,3.8c-3.39-1.18-5.85-2-8.46-.49A30.56,30.56,0,0,1,152.46.67c-.83-.33-1.51.83-.22,1.3a29.86,29.86,0,0,0,14.23,1.9,13.38,13.38,0,0,0-1,.89A20.41,20.41,0,0,0,164,6.5c-8.7.78-17.21-3-25.71-4.82-7-1.43-14.44-2.39-23-1-4,.64-7.92,1.72-11.87,2.52-3.15.66-6.3,1.24-9.45,1.69a48,48,0,0,1-20.37-1l-2.64-.7c-1.31-.35-1.85,1-.19,1.34C83.87,7.84,97,6.08,110.1,3.28a71.74,71.74,0,0,1,28.14-.59c8.36,1.39,16.68,5,25.17,4.47a13,13,0,0,1-2.56,2.52h0c-10.9,1.45-23-5.34-37.18-5.18-7.34.1-13.75,2.82-20.76,5C90.78,13.36,78.21,16,65.7,13.58,58,12.1,50.33,10.29,42.55,9.28A125,125,0,0,0,.27,10.59c-.4.1-.31.61,0,.57,14-3,28.06-1.79,42.28,0,7.78,1,15.39,3.36,23.15,4.33,15.44,1.88,31.71-3.15,48.12-7.73,18.75-5.08,34.17,4.67,47.66,2.35a14.76,14.76,0,0,1,1.88,2c-4.65,2-9.87,1.88-15.3,1-7.9-1.25-15.42-4.54-23.5-3.83a29.62,29.62,0,0,0-15.07,5.76c-.82.72-.12,1.47.47,1.1s1.22-1,1.88-1.41a22.76,22.76,0,0,1,11.07-4.14c7.88-.73,15.54,1.34,23.22,3,6.37,1.36,12.41,1.71,17.66-1a20.42,20.42,0,0,0,1.64,1.92c.12.12.24.24.35.33-4,2.38-9.35,2.75-15.6,1.69-.85,0-1.32,1.42,0,1.79,6.53.82,12-.19,16.1-3.05,3.05,2.42,5.71,1.55,9.54.23,4.09-1.41,9.19-3.55,14.9-4.79a9.34,9.34,0,0,0-1,1.05,23.64,23.64,0,0,1-3.11,3.76,1.77,1.77,0,0,1-2,.47,2.56,2.56,0,0,1-1-2.49c-1-.14-1.65.87-1.22,2.19a2.65,2.65,0,0,0,1.74,1.79,2.57,2.57,0,0,0,2.42-.62,11.4,11.4,0,0,0,2-2.42c.05,0,.07-.11.12-.16a4.35,4.35,0,0,0,.84,3.45,2.61,2.61,0,0,0,3.83.47c1.18-1.08,1.44-3.29.1-4.35a1.65,1.65,0,0,0-2.14,0c-.45.52,0,1.41.66,1,.63-.8,1.52-.43,1.41.73a1.87,1.87,0,0,1-1.88,1.78c-2-.12-3-2.32-1.81-4.39a.72.72,0,0,0,.11-.15,10.16,10.16,0,0,1,2.78-2.49l.21,0,.85-.14c.37,4.39,4.6,7.89,9.75,7.89s9.4-3.5,9.75-7.89l.85.14.21,0A9.46,9.46,0,0,1,217,12.89l.15.15c1.15,2.07.14,4.27-1.84,4.39a1.83,1.83,0,0,1-1.85-1.78c-.14-1.16.77-1.53,1.41-.73.68.37,1.1-.52.63-1a1.65,1.65,0,0,0-2.14,0,3,3,0,0,0,.1,4.35,2.63,2.63,0,0,0,3.85-.47,4.31,4.31,0,0,0,.82-3.45c.05.05.1.12.15.16a11.58,11.58,0,0,0,2,2.42,2.64,2.64,0,0,0,2.45.62,2.73,2.73,0,0,0,1.74-1.79c.4-1.32-.21-2.33-1.25-2.19a2.59,2.59,0,0,1-1,2.49,1.8,1.8,0,0,1-2-.47,23.64,23.64,0,0,1-3.11-3.76,7.89,7.89,0,0,0-1-1.05c5.71,1.24,10.81,3.38,14.9,4.79,3.83,1.32,6.49,2.19,9.54-.23,4.07,2.86,9.59,3.87,16.1,3.05,1.32-.37.87-1.83,0-1.79-6.25,1.06-11.58.69-15.58-1.69a3.42,3.42,0,0,0,.33-.33A19,19,0,0,0,243,12.64c5.22,2.72,11.28,2.37,17.65,1,7.69-1.65,15.32-3.72,23.2-3A22.83,22.83,0,0,1,295,14.8c.64.45,1.18,1,1.86,1.41s1.29-.38.47-1.1a29.52,29.52,0,0,0-15.07-5.76c-8.06-.71-15.6,2.58-23.5,3.83-5.41.84-10.62,1-15.3-1a16.93,16.93,0,0,1,1.88-2C258.81,12.47,274.23,2.72,293,7.8c16.38,4.58,32.65,9.61,48.09,7.73,7.75-1,15.37-3.32,23.17-4.33,14.22-1.83,28.33-3,42.31,0,.31,0,.4-.47,0-.57a125.2,125.2,0,0,0-42.31-1.31c-7.8,1-15.46,2.82-23.17,4.3C328.57,16,316,13.36,303.85,9.53c-7-2.21-13.4-4.93-20.76-5-14.12-.16-26.27,6.63-37.16,5.18h0a13.71,13.71,0,0,1-2.59-2.52c8.51.56,16.81-3.08,25.2-4.47a71.7,71.7,0,0,1,28.13.59c13.12,2.8,26.23,4.56,39.35,1.25,1.64-.38,1.1-1.69-.19-1.34l-2.65.7a48,48,0,0,1-20.38,1c-3.15-.45-6.3-1-9.45-1.69-3.95-.8-7.9-1.88-11.85-2.52-8.55-1.38-16-.42-23,1-8.51,1.79-17,5.6-25.72,4.82-.54-.66-1-1.27-1.5-1.74a10.47,10.47,0,0,0-1-.89A29.86,29.86,0,0,0,254.54,2c1.29-.47.63-1.63-.19-1.3a30.64,30.64,0,0,1-14.9,2.64c-2.64-1.51-5.1-.69-8.49.49-4.09,1.39-9.19,3.52-14.9,4.77a9.11,9.11,0,0,0,1-1,24.1,24.1,0,0,1,3.11-3.76,1.76,1.76,0,0,1,2-.47,2.57,2.57,0,0,1,1,2.49c1,.11,1.65-.9,1.25-2.19a2.76,2.76,0,0,0-1.74-1.81,2.73,2.73,0,0,0-2.45.63,11.21,11.21,0,0,0-2,2.4L218.1,5a4.38,4.38,0,0,0-.82-3.48,2.64,2.64,0,0,0-3.85-.44,3,3,0,0,0-.1,4.32,1.62,1.62,0,0,0,2.14,0c.47-.54.05-1.41-.63-1-.64.8-1.55.43-1.41-.73a1.81,1.81,0,0,1,1.85-1.78c2,.09,3,2.33,1.84,4.37a.78.78,0,0,1-.15.16A9.36,9.36,0,0,1,214.2,9L214,9l-.82.16c-.28-4.46-4.56-8.06-9.78-8.06s-9.5,3.6-9.75,8.06Zm-6.42,0c-4.47-.82-8.46-2.63-11.59-3.76-2.87-1.06-4.75-1.72-7.1.7-.89.92-1.85,2.66-3.15,3.58,1.3.91,2.26,2.65,3.15,3.57,2.35,2.4,4.23,1.74,7.1.7,3.13-1.15,7.12-3,11.59-3.78l2.49-.47-2.49-.54Zm46.23-2.52C236,6.64,238,8,238,9.68s-2.07,3-4.59,3a6.15,6.15,0,0,1-2.65-.54,4.28,4.28,0,0,0,1,.12c1.78,0,3.22-1.17,3.22-2.58s-1.44-2.59-3.22-2.59a3,3,0,0,0-1,.12,6.3,6.3,0,0,1,2.65-.57ZM219.56,9.16C224,8.34,228,6.53,231.15,5.4c2.87-1.06,4.77-1.72,7.12.7.87.92,1.83,2.66,3.13,3.58-1.3.91-2.26,2.65-3.13,3.57-2.35,2.4-4.25,1.74-7.12.7C228,12.8,224,11,219.56,10.17l-2.47-.47,2.47-.54ZM203.39,4.39c-3.29,0-6,2.35-6,5.21s2.68,5.2,6,5.2,6-2.33,6-5.2-2.7-5.21-6-5.21Zm0,.44c-2.82,0-5.12,1.77-5.12,3.95s2.3,4,5.12,4,5.15-1.76,5.15-4-2.31-3.95-5.15-3.95Zm0,1.06c-2.14,0-3.93,1.18-4.32,2.75a5.62,5.62,0,0,1,4.32-1.74,5.8,5.8,0,0,1,4.35,1.72C207.34,7.07,205.53,5.89,203.39,5.89Z"/></g></g></svg>