<svg xmlns="http://www.w3.org/2000/svg" viewBox="0 0 406.83 36.26"><defs><style>.cls-1{fill-rule:evenodd;}</style></defs><title>2</title><g id="Layer_2" data-name="Layer 2"><g id="Layer_1-2" data-name="Layer 1"><path class="cls-1" d="M92.79,16.76c10.69-2,21.06-4,32.53-5.52.14.16.3.32.47.49,6.32,6.42,26.44,11.52,46.89,14.2,4.11,4.27,11.26,8,22.23,9.68a55.49,55.49,0,0,0,17,0c11-1.67,18.13-5.41,22.24-9.68,20.45-2.68,40.57-7.78,46.91-14.2.17-.17.31-.33.45-.49C293,12.72,303.32,14.78,314,16.76h0c22.43,3.93,30.54,4.7,45.88,4.46,17.68-.25,35-3.66,46.5-9.14.86-.42.16-.49-.1-.4-8.18,3.18-15.86,5.81-28,6.72a143.94,143.94,0,0,1-26.7-.33c-13.5-1.45-25.22-3.83-37.42-6.08h0c-14.12-2.47-22.56-3.69-30.69-4.21a5.3,5.3,0,0,0-1.2-5.48c-.45-.37-.68-.07-.33.36a4.81,4.81,0,0,1,.63,5.07c-4.48-.25-8.95-.3-14.31-.23a140.18,140.18,0,0,0-30.91,3.83,8.41,8.41,0,0,0-1.48-2c-3.19-3.15-7.38-3.95-11.73-.78-.14.28.12.42.28.33,5.15-3.55,10-1.43,12.16,2.61a78,78,0,0,0-14.79,5.15c-.89.42-.16.49.1.39a105.56,105.56,0,0,1,15-4.84,10.12,10.12,0,0,1-.68,9c-.14.26-.33.52-.5.78-10.76,1-22.09,1.5-32.36,1.46S181.82,23,171,22l-.49-.78a10,10,0,0,1-.66-9,105.28,105.28,0,0,1,15,4.84c.26.1,1,0,.12-.39a78.24,78.24,0,0,0-14.81-5.15c2.14-4,7-6.16,12.18-2.61.14.09.39-.05.25-.33-4.32-3.17-8.5-2.37-11.7.78a9.45,9.45,0,0,0-1.51,2,139.93,139.93,0,0,0-30.9-3.83c-5.34-.07-9.83,0-14.32.23a4.87,4.87,0,0,1,.64-5.07c.35-.43.11-.73-.33-.36a5.34,5.34,0,0,0-1.2,5.48c-8.13.52-16.57,1.74-30.7,4.21h0c-12.2,2.25-24,4.63-37.42,6.08a144,144,0,0,1-26.7.33c-12.13-.91-19.81-3.54-28-6.72-.26-.09-1,0-.12.4,11.52,5.48,28.8,8.89,46.47,9.14,15.37.24,23.46-.53,45.91-4.46ZM203.49,1.62l1.95,11.61,3.36-9.35a.77.77,0,0,1-.56-.78.74.74,0,1,1,1.48,0,.79.79,0,0,1-.73.8l0,10.44,5-7.66a.77.77,0,0,1-.36-.66.79.79,0,0,1,.76-.82.78.78,0,0,1,.72.82.78.78,0,0,1-.72.8.31.31,0,0,1-.17,0l-3.36,12.76a44.66,44.66,0,0,0-14.95,0l-3.38-12.8a.86.86,0,0,1-.22,0,.77.77,0,0,1-.75-.8.74.74,0,1,1,1.48,0,.83.83,0,0,1-.3.66l5,7.71,0-10.49h-.07a.76.76,0,0,1-.75-.79.74.74,0,1,1,1.48,0,.79.79,0,0,1-.49.75l3.36,9.28,1.93-11.47a.79.79,0,0,1-.66-.82.74.74,0,1,1,1.48,0,.82.82,0,0,1-.66.82Zm-76.72,9.45c1.13-.14,2.28-.28,3.44-.4a144.81,144.81,0,0,1,26.7-.35,88.41,88.41,0,0,1,12.17,1.74,11.18,11.18,0,0,0,.64,9.82c-18.1-1.78-34.44-5.05-41.3-9.59a17.23,17.23,0,0,1-1.65-1.22ZM237.08,21.88a11.23,11.23,0,0,0,.66-9.82,87.87,87.87,0,0,1,12.15-1.74,144.79,144.79,0,0,1,26.7.35c1.15.12,2.3.26,3.43.4a18,18,0,0,1-1.62,1.22c-6.89,4.54-23.22,7.81-41.32,9.59Zm-6,4.42c-4.33,2.8-10.86,5-19.74,6a67.45,67.45,0,0,1-15.94,0c-8.86-1-15.4-3.2-19.74-6A217.84,217.84,0,0,0,203.4,28,217.73,217.73,0,0,0,231.11,26.3Z"/></g></g></svg>