<svg xmlns="http://www.w3.org/2000/svg" viewBox="0 0 406.84 19.23"><defs><style>.cls-1{fill-rule:evenodd;}</style></defs><title>3</title><g id="Layer_2" data-name="Layer 2"><g id="Layer_1-2" data-name="Layer 1"><path class="cls-1" d="M281.37,9.61C249.12,8.25,223.64,4.61,214,0c-9.61,4.61-35.11,8.25-67.34,9.61,32.23,1.39,57.73,5,67.34,9.62,9.61-4.61,35.12-8.23,67.34-9.62Zm-14.31-7.5C289,12.6,321,7.78,347.89,8.37l58.95,1.24-58.95,1.27c-26.59.56-58.9-4.23-80.83,6.25a42,42,0,0,0-8.3-2.65c10-2.3,25.71-4.07,44.33-4.87-18.62-.77-34.34-2.54-44.33-4.86a42.06,42.06,0,0,0,8.3-2.64Zm-127.3,0a42.6,42.6,0,0,0,8.29,2.64c-10,2.32-25.71,4.09-44.33,4.86,18.62.8,34.37,2.57,44.33,4.87a42.52,42.52,0,0,0-8.29,2.65c-21.91-10.48-54.23-5.69-80.83-6.25L0,9.61,58.93,8.37c26.91-.59,58.9,4.23,80.83-6.26Zm88.89,7.5c-12.08.52-21.65,1.88-25.24,3.6-3.6-1.72-13.17-3.08-25.22-3.6,12.08-.51,21.62-1.88,25.22-3.6,3.59,1.72,13.16,3.09,25.24,3.6Zm31.5,0c-32.25,1.39-57.73,5-67.34,9.62-9.62-4.61-35.12-8.23-67.37-9.62,32.25-1.36,57.75-5,67.34-9.61C202.4,4.61,227.9,8.25,260.15,9.61Z"/></g></g></svg>