<svg xmlns="http://www.w3.org/2000/svg" viewBox="0 0 406.82 21.39"><defs><style>.cls-1{fill-rule:evenodd;}</style></defs><title>4</title><g id="Layer_2" data-name="Layer 2"><g id="Layer_1-2" data-name="Layer 1"><path class="cls-1" d="M405.58,9.63c1.69-.21,1.62-2.07,0-2-40.52,3.39-85.16,6.7-125.33-.42-52.3-9.26-93.83-9.85-148-.14-42,7.52-88.64,3.71-131,.3-1.69,0-1.72,2.07,0,2.28C43.61,13,90,14.73,132.25,9c53.16-7.14,94.74-6.74,148,.17,40.45,5.24,84.81,3.8,125.33.42Zm-99,6.49c.9,0,1.06,1.08,0,1.13-8.9-.5-17.74-1.23-26.37-2.24-53.26-6.18-94.84-6.53-148-.14C121.76,16.14,111,17,100.16,17.53c-.94,0-1.06-1.08,0-1.16a304.43,304.43,0,0,0,32.09-3.28c54.17-8.7,95.7-8.16,148,.11,8.6,1.37,17.44,2.31,26.37,2.92ZM271,19.1c.59,0,.7.66,0,.69-5.85-.31-11.64-.76-17.3-1.35-34.88-3.71-62.12-3.92-97-.09-6.86.75-13.89,1.27-21,1.6-.62,0-.68-.63,0-.68,7.14-.36,14.17-1,21-2,35.51-5.19,62.73-4.89,97,.09,5.64.83,11.45,1.37,17.3,1.74Zm-33.8,1.16a273.82,273.82,0,0,0-67.67.28c-1,.09-.89.89,0,.84a367.78,367.78,0,0,1,67.67-.18C237.94,21.22,238,20.35,237.24,20.26Z"/></g></g></svg>