<svg xmlns="http://www.w3.org/2000/svg" viewBox="0 0 406.82 19.89"><defs><style>.cls-1{fill-rule:evenodd;}</style></defs><title>5</title><g id="Layer_2" data-name="Layer 2"><g id="Layer_1-2" data-name="Layer 1"><path class="cls-1" d="M200.29,9.81A8.21,8.21,0,0,1,202,6.16a8.93,8.93,0,0,0-3.71-2c-7.2-1.77-12.06,1.1-18.2,4.39-8.9,4.77-18.38,11.77-31.42,11.31-15-.57-23.72-5.2-30.53-9.17C98.19-1,89.61,13.9,70,13.17c-17.65.7-33.23-10.49-55.75-10.44A89.15,89.15,0,0,0,3.52,3.91c-2.36.45-3.91.16-3.44-.52C30.31-2.65,48.78,11,70,10.21,79.88,10.58,87,7.1,94.24,5,126.87-6.95,131,15.1,148,13c13.59-5.92,28.91-18.5,44.57-10.32a17,17,0,0,1,8.37.59,8.88,8.88,0,0,1,2.49,1.44,8.72,8.72,0,0,1,2.51-1.44,17,17,0,0,1,8.82-.49C230.4-5.56,245.8,7.06,259.41,13c17.42,2.14,21.29-21,56-7.07h0c6.28,2,12.81,4.6,21.41,4.28C358,11,376.48-2.65,406.73,3.39c.47.68-1.08,1-3.43.52a88.7,88.7,0,0,0-10.69-1.18c-22.52,0-38.13,11.14-55.76,10.44C317.18,13.9,308.6-1,288.65,10.7c-6.79,4-15.59,8.6-30.53,9.17-13.05.46-22.5-6.54-31.43-11.31-6.13-3.29-11-6.16-18.17-4.39a8.86,8.86,0,0,0-3.74,2,7.9,7.9,0,0,1,1.72,3.65c1,5.61-1.22,8.41-3.31,8.27s-3.84-2.84-2.9-8.27Zm17.37-6.33a49.94,49.94,0,0,1,9,4c8.93,4.78,18.38,10.79,31.43,10.32a60.68,60.68,0,0,0,6.2-.54c-15.37-2.49-29-21.48-46.66-13.73Zm54.06,12.25a65.36,65.36,0,0,0,16.74-7.55c7.12-4.15,12.81-5,18.1-4.39C281.69-1.59,276.17,15,262.09,14.08a22.27,22.27,0,0,0,9.63,1.65Zm-170.4-12c5-.38,10.39.61,17,4.48a66.25,66.25,0,0,0,16.22,7.41c3.4.56,7-.14,10.74-1.51-14,.94-19.53-15.46-44-10.38ZM142.8,17.26c1.84.23,3.79.4,5.88.49,13,.47,22.52-5.54,31.42-10.32a48.27,48.27,0,0,1,9.41-4C171.83-4.15,158.22,15,142.8,17.26ZM205.07,12a7.88,7.88,0,0,0-1.67-4.37,7.8,7.8,0,0,0-1.67,4.42C201.68,16.06,205.14,16,205.07,12Z"/></g></g></svg>