<svg xmlns="http://www.w3.org/2000/svg" viewBox="0 0 411.07 23.54"><defs><style>.cls-1{fill-rule:evenodd;}</style></defs><title>6</title><g id="Layer_2" data-name="Layer 2"><g id="Layer_1-2" data-name="Layer 1"><path class="cls-1" d="M203.88,8.94a3.28,3.28,0,1,1-1.2,4.46,3.27,3.27,0,0,1,1.2-4.46Zm-6.16,4.28a2.65,2.65,0,1,0,3.62,1,2.65,2.65,0,0,0-3.62-1Zm13-7.5a2.64,2.64,0,1,0,2.64,4.58,2.64,2.64,0,0,0-2.64-4.58Zm-10.32,0a2.65,2.65,0,1,0,1,3.62,2.65,2.65,0,0,0-1-3.62Zm13,7.5a2.64,2.64,0,1,0,1,3.62,2.65,2.65,0,0,0-1-3.62Zm-5.15-8.94a2.65,2.65,0,1,1-2.66-2.65,2.65,2.65,0,0,1,2.66,2.65Zm0,15a2.65,2.65,0,1,0-5.29,0,2.65,2.65,0,0,0,5.29,0ZM189.37,9.91c-59.79.15-149.93.84-189.37,1.85,39.44,1,129.58,1.69,189.37,1.86a1.86,1.86,0,1,0,0-3.71Zm-9.56-4.17c-10,.33-19.51,1.2-29.64,0A54.51,54.51,0,0,1,131.3.27c-.22-.1-.07-.31.09-.26a68.15,68.15,0,0,0,15.79,1.85c10.7.08,20.69-1.29,31.64-.16,21.09,2.16,21.11,18,0,20.12-10.93,1.13-20.94-.21-31.64-.16a68.26,68.26,0,0,0-15.79,1.87c-.16,0-.31-.16-.09-.28a54.51,54.51,0,0,1,18.87-5.43c10.13-1.24,19.67-.37,29.64,0,18,.58,18-12.62,0-12Zm-40.38.52c-17.25.07-32.7.47-44.07,1.06,11.37.58,26.82,1,44.07,1,1.95-.23,1.67-1.95,0-2.11Zm0,9.1c-17.25.09-32.7.46-44.07,1.05,11.37.59,26.82,1,44.07,1.09,1.95-.26,1.67-2,0-2.14Zm82.24-5.45c59.79.15,150,.84,189.4,1.85-39.44,1-129.61,1.69-189.4,1.86a1.86,1.86,0,1,1,0-3.71Zm9.59-4.17c-18-.58-18,12.62,0,12,9.94-.33,19.48-1.2,29.62,0a54.51,54.51,0,0,1,18.87,5.43c.21.12.07.33-.1.28a68.08,68.08,0,0,0-15.79-1.87c-10.67-.05-20.68,1.29-31.64.16-21.08-2.16-21.08-18,0-20.12,11-1.13,21,.24,31.64.16,3.76,0,10.81-.44,15.79-1.85.17,0,.31.16.1.26A54.51,54.51,0,0,1,260.88,5.7c-10.14,1.24-19.68.37-29.62,0Zm40.38.52c-1.67.16-2,1.88,0,2.11,17.23-.07,32.67-.47,44.05-1-11.38-.59-26.82-1-44.05-1.06Zm0,9.1c-1.67.16-2,1.88,0,2.14,17.23-.1,32.67-.5,44.05-1.09C304.31,15.82,288.87,15.45,271.64,15.36Z"/></g></g></svg>