<svg xmlns="http://www.w3.org/2000/svg" viewBox="0 0 406.82 28.23"><defs><style>.cls-1{fill-rule:evenodd;}</style></defs><title>7</title><g id="Layer_2" data-name="Layer 2"><g id="Layer_1-2" data-name="Layer 1"><path class="cls-1" d="M1.51,8.33C-.56,8.23-.44,5,1.51,5.39,29.05,9.48,41-.3,60.46,0c14.22.28,28.08,7.82,41.86,11,2.18.49,11.73,2.8,17.88,1.13a10.59,10.59,0,0,0,3.81-1.7h0a7,7,0,0,1-2.16-3.73A5.53,5.53,0,0,1,122.79,2a1.79,1.79,0,0,1,3.08.21,6.3,6.3,0,0,1,.8,3.65,9.53,9.53,0,0,1-1.41,4.4l-.24.32h0c1.79,1.42,4.42,2.28,7.5,3C148.86,17.07,164,6.23,179.79,3.36c4.68-.84,14.27-1,20.68,2.92,5.22,3.18,8.82,10.6,3,16.43-5.5,5.57-13.44,6.23-19.83,5-4.54-.88-9-3.88-9.8-7.9-.69-3.64,1.17-6.09,3.66-7.64A15.27,15.27,0,0,1,196.43,15c.87,1.46-.24,2.21-1.22,1.15a15,15,0,0,0-13.28-4.44c-2.38.44-6.79,1.81-6.77,6.2,0,4,3.81,6.3,8.15,7.39a28.86,28.86,0,0,0,12.44.27,12.86,12.86,0,0,0,6.91-3.48c5.07-5.07,1.74-12.28-3-14.85-6-3.27-15.14-2-19.84-1.24-15.84,2.63-30.93,11.66-47.27,8.2a19.24,19.24,0,0,1-7.8-3.2h0a10.33,10.33,0,0,1-5,2.89c-6.15,1.67-15.7-.63-17.88-1.13C88.05,9.62,74.68,1.37,60.46,1.09,41,.78,29.05,12.42,1.51,8.33ZM124.39,10a5.59,5.59,0,0,0,1.55-4.18c0-1.48-.49-2.71-1.29-3-1-.35-2.31,1.1-2.05,3.55A6,6,0,0,0,124.34,10,.08.08,0,0,1,124.39,10ZM405.31,8.33c2.07-.1,1.95-3.34,0-2.94C377.74,9.48,365.8-.3,346.34,0c-14.2.28-28.06,7.82-41.84,11-2.21.49-11.75,2.8-17.91,1.13a10.66,10.66,0,0,1-3.81-1.7h0A7,7,0,0,0,285,6.66,5.53,5.53,0,0,0,284,2a1.79,1.79,0,0,0-3.08.21,6.23,6.23,0,0,0-.8,3.65,9.31,9.31,0,0,0,1.41,4.4,2.78,2.78,0,0,0,.26.32h0c-1.81,1.42-4.44,2.28-7.52,3C257.94,17.07,242.85,6.23,227,3.36c-4.68-.84-14.27-1-20.69,2.92-5.19,3.18-8.81,10.6-3,16.43,5.5,5.57,13.45,6.23,19.86,5,4.52-.88,9-3.88,9.78-7.9.68-3.64-1.17-6.09-3.66-7.64A15.27,15.27,0,0,0,210.37,15c-.87,1.46.23,2.21,1.24,1.15a14.93,14.93,0,0,1,13.26-4.44c2.4.44,6.79,1.81,6.79,6.2,0,4-3.83,6.3-8.18,7.39a28.81,28.81,0,0,1-12.43.27,12.82,12.82,0,0,1-6.91-3.48c-5-5.07-1.72-12.28,3-14.85C213.21,4,222.31,5.2,227,6c15.86,2.63,30.93,11.66,47.27,8.2A19.45,19.45,0,0,0,282.1,11h0a10.38,10.38,0,0,0,5,2.89c6.16,1.67,15.7-.63,17.91-1.13,13.78-3.12,27.17-11.37,41.37-11.65,19.46-.31,31.4,11.33,59,7.24ZM282.41,10a5.59,5.59,0,0,1-1.55-4.18c0-1.48.49-2.71,1.31-3s2.28,1.1,2,3.55A5.9,5.9,0,0,1,282.46,10S282.43,10,282.41,10Z"/></g></g></svg>