<svg xmlns="http://www.w3.org/2000/svg" viewBox="0 0 406.84 25.02"><defs><style>.cls-1{fill-rule:evenodd;}</style></defs><title>8</title><g id="Layer_2" data-name="Layer 2"><g id="Layer_1-2" data-name="Layer 1"><path class="cls-1" d="M176.19,15.2c9.57-4.72,18.43-9.92,29-12.9A51.15,51.15,0,0,1,226.51.42c.26,0,.24.35,0,.37-5.61.52-12.71,3.11-16.4,4.73-10.48,4.59-19.56,10.58-30.86,14-5.38,1.65-10.81,2.4-16.08.45-4.35-1.6-6.3-4.91-6.34-8H7.43a3.77,3.77,0,0,1-3.62,2.73A3.8,3.8,0,1,1,7.43,9.87h149.7a6.77,6.77,0,0,1,4.56-4.73c.23-.07.35.29.21.34a6.23,6.23,0,0,0-4,4.39h5a3.79,3.79,0,0,1,7.29,0h.14V12h-.14a3.8,3.8,0,0,1-7.29,0h-5a1.92,1.92,0,0,0,.11.4,7.78,7.78,0,0,0,4.92,5.24c4.6,1.65,9.21-.39,13.3-2.42Zm1.06,8.93c-.52,0-.52.12,0,.29.18,0,19,5.33,52.53-16.34,4.58-2.94,11-5.66,15.79-1.76a5.5,5.5,0,0,1,2,3.55H243.9a3.79,3.79,0,1,0,0,2.11h3.6a6.54,6.54,0,0,1-2.68,4.1c-.09.06,0,.28.24.23,1.22-.29,2.65-2.35,3.1-4.33H399.41a3.8,3.8,0,0,0,7.29,0h.14V9.87h-.14a3.79,3.79,0,0,0-7.29,0H248.25c-.42-3.48-3.34-6.13-6.6-7.1C235.37.91,229,3.05,223.2,5.64,212.27,10.5,193.54,23.17,177.25,24.13Z"/></g></g></svg>