<svg xmlns="http://www.w3.org/2000/svg" viewBox="0 0 406.84 22.79"><defs><style>.cls-1{fill-rule:evenodd;}</style></defs><title>9</title><g id="Layer_2" data-name="Layer 2"><g id="Layer_1-2" data-name="Layer 1"><path class="cls-1" d="M399.13,8c1.62-.16,1.55-1.71,0-1.67-39.23,2.8-82.45,5.55-121.33-.35C227.17-1.71,187-2.2,134.54,5.81,94,12,48.75,8.89,7.78,6.07,6.13,6,6.11,7.79,7.78,8c41,2.82,85.88,4.23,126.76-.47C186,1.56,226.25,1.89,277.8,7.6,317,12,359.9,10.75,399.13,8Zm0,6.86c1.62.17,1.53,1.72,0,1.67-39.23-2.8-82.45-5.54-121.33.36C227.17,24.5,187,25,134.54,17,94,10.75,48.75,13.88,7.76,16.69c-1.63,0-1.65-1.71,0-1.88,41-2.82,85.9-4.23,126.78.48,51.45,5.92,91.71,5.57,143.26-.12C317,10.84,359.9,12,399.13,14.81ZM188.29,6.05A5.34,5.34,0,1,1,183,11.38a5.35,5.35,0,0,1,5.33-5.33Zm0,1a4.36,4.36,0,0,1,4.37,4.37,3.13,3.13,0,0,1,0,.61A4.36,4.36,0,0,0,184,12a4.18,4.18,0,0,1-.05-.61A4.36,4.36,0,0,1,188.29,7Zm-13.54-.4A4.78,4.78,0,1,1,170,11.38a4.78,4.78,0,0,1,4.77-4.77Zm0,.85a3.91,3.91,0,0,1,3.91,3.92,3.08,3.08,0,0,1,0,.54,3.92,3.92,0,0,0-7.75,0,3,3,0,0,1,0-.54,3.93,3.93,0,0,1,3.92-3.92Zm-12.66,0a3.88,3.88,0,1,1-3.88,3.87,3.88,3.88,0,0,1,3.88-3.87Zm0,.7a3.18,3.18,0,0,1,3.19,3.17,3,3,0,0,1,0,.45,3.18,3.18,0,0,0-6.3,0,2.12,2.12,0,0,1,0-.45,3.16,3.16,0,0,1,3.18-3.17Zm-10.63.12a3.06,3.06,0,1,1-3,3.05,3.05,3.05,0,0,1,3-3.05Zm0,.56A2.5,2.5,0,0,1,154,11.38a1.34,1.34,0,0,1,0,.35,2.5,2.5,0,0,0-5,0,2,2,0,0,1,0-.35,2.5,2.5,0,0,1,2.49-2.49Zm-9,.38a2.12,2.12,0,1,1-2.12,2.11,2.12,2.12,0,0,1,2.12-2.11Zm0,.37a1.74,1.74,0,0,1,1.74,1.74.58.58,0,0,1,0,.24,1.73,1.73,0,0,0-3.43,0,.86.86,0,0,1,0-.24,1.73,1.73,0,0,1,1.74-1.74Zm76.08-3.59a5.34,5.34,0,1,1-5.34,5.33,5.35,5.35,0,0,1,5.34-5.33Zm0,1a4.36,4.36,0,0,1,4.37,4.37c0,.21,0,.4,0,.61a4.38,4.38,0,0,0-8.68,0c0-.21,0-.4,0-.61A4.37,4.37,0,0,1,218.52,7Zm13.56-.4a4.78,4.78,0,1,1-4.79,4.77,4.78,4.78,0,0,1,4.79-4.77Zm0,.85a3.92,3.92,0,0,1,3.9,3.92,4.61,4.61,0,0,1,0,.54,3.93,3.93,0,0,0-7.78,0,4.61,4.61,0,0,1,0-.54,3.93,3.93,0,0,1,3.92-3.92Zm12.65,0a3.88,3.88,0,1,1-3.88,3.87,3.88,3.88,0,0,1,3.88-3.87Zm0,.7a3.18,3.18,0,0,1,3.19,3.17c0,.17,0,.31,0,.45a3.19,3.19,0,0,0-6.32,0,2.12,2.12,0,0,1,0-.45,3.18,3.18,0,0,1,3.18-3.17Zm10.62.12a3.06,3.06,0,1,1-3,3.05,3.05,3.05,0,0,1,3-3.05Zm0,.56a2.48,2.48,0,0,1,2.49,2.49v.35a2.52,2.52,0,0,0-5,0c0-.11,0-.23,0-.35a2.49,2.49,0,0,1,2.51-2.49Zm9,.38a2.12,2.12,0,1,1-2.12,2.11,2.13,2.13,0,0,1,2.12-2.11Zm0,.37a1.74,1.74,0,0,1,1.74,1.74v.24a1.75,1.75,0,0,0-3.46,0v-.24a1.74,1.74,0,0,1,1.72-1.74Zm-61-4.39a6.14,6.14,0,1,1-6.11,6.13,6.14,6.14,0,0,1,6.11-6.13Zm0,1.1a5,5,0,0,1,5,5c0,.24,0,.47-.05.71a5,5,0,0,0-10,0c0-.24,0-.47,0-.71a5,5,0,0,1,5-5ZM403.78,8.89a2.48,2.48,0,0,0-2.49,2.49,2,2,0,0,0,0,.35,2.49,2.49,0,0,1,2.47-2.16,2.52,2.52,0,0,1,2.49,2.16c0-.11,0-.23,0-.35a2.5,2.5,0,0,0-2.52-2.49Zm0-.56a3.06,3.06,0,1,1-3,3.05,3.05,3.05,0,0,1,3-3.05Zm-7.52,1.41a1.63,1.63,0,0,1,1.64,1.64v.24a1.66,1.66,0,0,0-3.28,0v-.24a1.63,1.63,0,0,1,1.64-1.64Zm0-.38a2,2,0,1,1-2,2,2,2,0,0,1,2-2ZM3.06,8.89a2.5,2.5,0,0,1,2.51,2.49c0,.12,0,.24,0,.35a2.5,2.5,0,0,0-5,0,1.34,1.34,0,0,1,0-.35,2.5,2.5,0,0,1,2.5-2.49Zm0-.56A3.06,3.06,0,1,1,0,11.38,3,3,0,0,1,3.06,8.33Zm7.52,1.41a1.63,1.63,0,0,1,1.64,1.64v.24a1.65,1.65,0,0,0-3.27,0,.86.86,0,0,1,0-.24,1.65,1.65,0,0,1,1.65-1.64Zm0-.38a2,2,0,1,1-2,2A2,2,0,0,1,10.58,9.36Z"/></g></g></svg>