<svg xmlns="http://www.w3.org/2000/svg" viewBox="0 0 406.82 15.64"><defs><style>.cls-1{fill-rule:evenodd;}</style></defs><title>10</title><g id="Layer_2" data-name="Layer 2"><g id="Layer_1-2" data-name="Layer 1"><path class="cls-1" d="M203.4,0c-.85,1.57-2.94,5-5.2,5.76,1.44.94,2.85,1.78,4.26,2.58a57.29,57.29,0,0,1-8,3.39,12.4,12.4,0,0,1-4.38.56,8.32,8.32,0,0,1-4.41-1.53c-1.27-1-2.14-2.86-.5-4.23,1-.84,2.54-.7,3.36,1a3.13,3.13,0,0,0-1.38-2.3c-2.45-1.7-5.83.56-4.89,3.31,1,2.92,5,4,7.75,4.23a9,9,0,0,0,.92,0,47.86,47.86,0,0,1-9.87,1.45c-3.81-.14-6.93-.77-9.35-2.25a9.66,9.66,0,0,1-3.86-4.07c-.8-1.81-.71-4.21,1.78-4.75,1.53-.33,3.06.64,3,2.89a3.46,3.46,0,0,0-.21-3.22C170.8.12,166.52,1.1,166,4.18s1.79,5.76,4.23,7.5c-1-.44-2-.94-2.93-1.46-4.4-2.35-8.35-5.21-13.05-7A19.63,19.63,0,0,0,147,2.07a14.27,14.27,0,0,0-7.87,2.37c-1.53-.49-3-1-4.61-1.41C119-1.36,104.92,2.35,88.44,4.94,69.12,7.94,49,10.08,28,9.92,19.22,9.85,9.16,8.49,1.21,7.43c-1.52-.12-1.69,1.71,0,1.81,30.95,2.7,59.89,1.81,87.27-2.49,10.88-1.7,20.75-3.91,30.67-3.93a17.14,17.14,0,0,0-3,.87,6.32,6.32,0,0,0-3.34,2.84,2.82,2.82,0,0,0,.63,3.37c1.44,1.08,3.34-.05,3.81-1.37-1.46,1.46-3.57.56-3.38-1.2.21-2.16,2.94-3.45,4.77-4a17,17,0,0,1,3.15-.49,53.43,53.43,0,0,1,12.78,2c1.09.31,2.17.64,3.23,1a5.46,5.46,0,0,0-1.06,3.76A3.45,3.45,0,0,0,139,12.67a4.46,4.46,0,0,0,5.48-2.45c-.92.87-2.8,1.25-3.79.45a2.4,2.4,0,0,1-.87-1.31,3.36,3.36,0,0,1,.66-2.71c20.73,6.63,39,15.26,63,2.21,24,13.05,42.26,4.42,63-2.21A3.46,3.46,0,0,1,267,9.36a2.35,2.35,0,0,1-.87,1.31c-1,.8-2.86.42-3.78-.45a4.48,4.48,0,0,0,5.5,2.45,3.47,3.47,0,0,0,2.21-3.08A5.41,5.41,0,0,0,269,5.83c1.08-.33,2.16-.66,3.25-1a53.28,53.28,0,0,1,12.78-2,17.25,17.25,0,0,1,3.15.49c1.84.52,4.54,1.81,4.77,4,.17,1.76-2,2.66-3.38,1.2C290,9.85,292,11,293.37,9.9A2.77,2.77,0,0,0,294,6.53a6.39,6.39,0,0,0-3.32-2.84,18.23,18.23,0,0,0-3-.87c9.92,0,19.76,2.23,30.65,3.93,27.41,4.3,56.34,5.19,87.29,2.49,1.65-.1,1.48-1.93,0-1.81-8,1.06-18,2.42-26.8,2.49-21,.16-41.15-2-60.47-5C301.9,2.35,287.76-1.36,272.27,3c-1.58.45-3.11.92-4.63,1.41a14.28,14.28,0,0,0-7.88-2.37,19.49,19.49,0,0,0-7.19,1.17c-4.7,1.77-8.68,4.63-13.07,7-1,.52-1.93,1-2.91,1.46,2.44-1.74,4.72-4.37,4.2-7.5a3.55,3.55,0,0,0-6.44-1.34,3.64,3.64,0,0,0-.21,3.22c0-2.25,1.48-3.22,3-2.89,2.49.54,2.59,2.94,1.81,4.75A9.59,9.59,0,0,1,235.08,12c-2.42,1.48-5.54,2.11-9.33,2.25a47.38,47.38,0,0,1-9.87-1.45c.3,0,.61,0,.92,0,2.72-.19,6.72-1.31,7.73-4.23,1-2.75-2.45-5-4.87-3.31a3,3,0,0,0-1.38,2.3c.82-1.69,2.32-1.83,3.33-1,1.65,1.37.78,3.18-.49,4.23a8.2,8.2,0,0,1-4.42,1.53,12.4,12.4,0,0,1-4.37-.56,56.59,56.59,0,0,1-8-3.39c1.39-.8,2.8-1.64,4.23-2.58C206.34,5,204.24,1.57,203.4,0Zm0,2.8A13.42,13.42,0,0,0,206.74,6c-1.13.68-2.23,1.31-3.34,1.9-1.08-.59-2.21-1.22-3.32-1.9A13.31,13.31,0,0,0,203.4,2.8ZM232,14.13a27.57,27.57,0,0,0,7.71-2.75c4.37-2.35,8.11-5.29,12.86-6.94A18,18,0,0,1,260,3.27a9.44,9.44,0,0,1,5,2c-11.26,3.72-21.84,8-33.05,8.87Zm-57.21,0c-11.21-.87-21.78-5.15-33-8.87a9.37,9.37,0,0,1,5-2,18.13,18.13,0,0,1,7.47,1.17C159,6.09,162.71,9,167.11,11.38A27.05,27.05,0,0,0,174.79,14.13Z"/></g></g></svg>