<svg xmlns="http://www.w3.org/2000/svg" viewBox="0 0 406.84 30.81"><defs><style>.cls-1{fill-rule:evenodd;}</style></defs><title>11</title><g id="Layer_2" data-name="Layer 2"><g id="Layer_1-2" data-name="Layer 1"><path class="cls-1" d="M250.72,15c-22.66-1.65-40.26-5-47.32-9.22-7.05,4.19-24.65,7.57-47.29,9.22-31.44-.75-55.49-2.07-65.83-3.67C77.4,13.26,43.2,14.81,0,15.4c43.2.58,77.4,2.13,90.28,4.11,10.34-1.58,34.39-2.89,65.81-3.65,22.66,1.63,40.26,5,47.31,9.22,7.08-4.19,24.68-7.59,47.34-9.22,31.41.76,55.47,2.07,65.82,3.65,12.88-2,47.05-3.53,90.28-4.11-43.23-.59-77.4-2.14-90.31-4.12-10.32,1.6-34.38,2.92-65.81,3.67ZM236,12.46c-15.32-2.21-26.91-5.32-32.58-8.86-5.66,3.54-17.22,6.65-32.55,8.86C186.3,9.52,198,5.12,203.4,0c5.43,5.12,17.14,9.52,32.58,12.46Zm-65.15,5.9c15.33,2.21,26.91,5.28,32.57,8.86,5.69-3.58,17.26-6.65,32.61-8.86-15.47,2.91-27.15,7.31-32.61,12.45C198,25.67,186.27,21.27,170.83,18.36Z"/></g></g></svg>