<svg xmlns="http://www.w3.org/2000/svg" viewBox="0 0 406.84 15.87"><defs><style>.cls-1{fill-rule:evenodd;}</style></defs><title>12</title><g id="Layer_2" data-name="Layer 2"><g id="Layer_1-2" data-name="Layer 1"><path class="cls-1" d="M168.88,8.67a.75.75,0,1,0,0-1.48C148.43,8,130.31,7.9,123.47,3c-.87.51-1.53,2.44.84,3.64-13.39-3.69-25.76.59-38.75.84H.64c-.87,0-.83,1,0,.92H85.58c13,.26,25.34,4.54,38.73.85-2.37,1.2-1.71,3.15-.84,3.64,6.84-4.91,25-5.05,45.41-4.21Zm69.05,0a.75.75,0,1,1,0-1.48C258.41,8,276.5,7.9,283.34,3c.87.51,1.53,2.44-.84,3.64,13.42-3.69,25.78.59,38.76.84H406.2c.87,0,.82,1,0,.92H321.26c-13,.26-25.34,4.54-38.76.85,2.37,1.2,1.71,3.15.84,3.64C276.5,8,258.41,7.83,237.93,8.67Zm-34.5,7.2c-1.57-2-5.1-4.73-10.11-6.84a3,3,0,0,1-.37-.17h0a79.19,79.19,0,0,1-16.2,4,77.41,77.41,0,0,1-12.62.76,47.71,47.71,0,0,1-7.33-.69c-2.17-.37-8-1.45-7.64-4.6.49-5,11.54-6.54,20-6.18a61.22,61.22,0,0,1,19,3.94c1.13.43,2.21.85,3.3,1.32h0A58.83,58.83,0,0,0,197.2,4.3c2.18-1.29,4.11-2.8,6.16-4.3,2,2.45,5.76,4.91,10.13,6.93a3.17,3.17,0,0,1,.38.17h0a79.29,79.29,0,0,1,16.21-4,77.23,77.23,0,0,1,12.6-.76A53.52,53.52,0,0,1,250,3c2.18.4,7.94,1.48,7.63,4.63-.49,5-11.54,6.54-20,6.19a60.33,60.33,0,0,1-19-4c-1.11-.4-2.21-.82-3.29-1.29h0a64.14,64.14,0,0,0-7.12,3.95c-1.17.75-3.78,2.61-4.77,3.34Zm.82-12.7A48.89,48.89,0,0,1,194,8.49l1.29.63c2.61,1.29,5.12,2.49,7.33,3.67a48.69,48.69,0,0,1,10.27-5.32l-1.29-.63c-2.61-1.29-5.1-2.49-7.31-3.67Zm12.2,4.89a75.5,75.5,0,0,0,26.87,3.81,39.25,39.25,0,0,0,10.5-1.57c1.48-.52,3.88-2,2.75-3.84s-5.52-2.58-7-2.75A78.29,78.29,0,0,0,230.08,4a49.87,49.87,0,0,0-13.63,4.06ZM190.38,7.9A76.15,76.15,0,0,0,163.5,4.07,38.44,38.44,0,0,0,153,5.67c-1.72.61-2.8,1.52-3,2.49-.57,2.91,5.43,3.87,7.26,4.09A78.53,78.53,0,0,0,176.73,12,51.13,51.13,0,0,0,190.38,7.9Z"/></g></g></svg>