<svg xmlns="http://www.w3.org/2000/svg" viewBox="0 0 406.84 23.18"><defs><style>.cls-1{fill-rule:evenodd;}</style></defs><title>13</title><g id="Layer_2" data-name="Layer 2"><g id="Layer_1-2" data-name="Layer 1"><path class="cls-1" d="M203.45,2.07c16.64,0,31.62,2.33,41.75,6l3-.87C238.22,2.84,221.86,0,203.45,0,185.26,0,169.09,2.77,159,7.07L161.9,8c10.13-3.64,25-5.94,41.55-5.94Zm0,19c16.64,0,31.62-2.33,41.75-6l3,.87c-10,4.37-26.37,7.22-44.78,7.22-18.19,0-34.36-2.78-44.42-7.08l2.87-.94C172,18.81,186.9,21.11,203.45,21.11ZM170,11.59a160.43,160.43,0,0,1,66.82,0,165.43,165.43,0,0,1-66.82,0Zm-5.1-1.22c-22.64-5.48-51.8-13.21-73.31-7.29,9.66-1.72,20-1.06,30.93.71-16.19-.47-27.4,3.52-41.88,6.88-17.12-3.85-39.09-6.35-79.14.66L0,11.61l1.53.24c40.05,7,62,4.51,79.14.68,14.48,3.33,25.69,7.33,41.88,6.86-10.91,1.77-21.27,2.42-30.93.71C113.13,26,142.29,18.29,165,12.81c27.27,6.47,49.74,6.44,77,0,22.66,5.5,51.83,13.21,73.31,7.29-9.64,1.71-20,1.06-30.93-.71,16.22.47,27.43-3.53,41.91-6.86,17.11,3.83,39.09,6.32,79.16-.68l1.44-.24-1.44-.28c-40.1-7-62.07-4.51-79.18-.66-14.48-3.36-25.67-7.35-41.89-6.88,10.93-1.77,21.29-2.43,30.93-.71C293.78-2.84,264.61,4.89,242,10.37c-27.28-6.49-49.78-6.44-77,0ZM76.48,11.59C60.12,15,39,17.16,2.94,11.59,39,6,60.12,8.16,76.48,11.59Zm8.14,0c14.59-3.58,26.16-7.71,44-6.75,9.85,1.88,20.09,4.42,30.64,6.75-10.55,2.33-20.79,4.86-30.64,6.75-17.84,1-29.41-3.18-44-6.75Zm163,0c10.55-2.33,20.82-4.87,30.65-6.75,17.84-1,29.4,3.17,44,6.75-14.6,3.57-26.16,7.71-44,6.75-9.83-1.89-20.1-4.42-30.65-6.75Zm156.37,0c-36.15,5.57-57.23,3.43-73.59,0C346.76,8.16,367.84,6,404,11.59Z"/></g></g></svg>