<svg xmlns="http://www.w3.org/2000/svg" viewBox="0 0 407.17 25.7"><defs><style>.cls-1{fill-rule:evenodd;}</style></defs><title>14</title><g id="Layer_2" data-name="Layer 2"><g id="Layer_1-2" data-name="Layer 1"><path class="cls-1" d="M3.57,8.93a3.59,3.59,0,0,1,3.53,3c55.8-.35,118.56-.59,185.4-.68-.84-1.08-2.58-1.88-5.24-1.77-4.79.19-116.06.69-120.93,0a23.44,23.44,0,0,1-9.1-3.06c-.09-.07,0-.18.08-.16A28.69,28.69,0,0,0,64.9,7.27c5.12,0,116.62-.73,121.89-.09,3.88.46,6.23,2.13,7.07,4h1.34c-.77-3.25-3.87-6.07-9.33-5.76l-63-.07A20.13,20.13,0,0,1,110,.31c-.14-.12,0-.35.08-.3a30.08,30.08,0,0,0,10.78,2c7.29.07,56.93-1.41,64.41-.19,6.91,1.06,10.74,5.06,11.49,9.36h2.21a5.07,5.07,0,0,1,4.82-3.46,5.13,5.13,0,0,1,4.84,3.46h2.18c.78-4.3,4.59-8.3,11.5-9.36,7.47-1.22,57.11.26,64.4.19a30.1,30.1,0,0,0,10.79-2c.12,0,.21.18.07.3a20.12,20.12,0,0,1-12.88,5.08l-63,.07c-5.45-.31-8.56,2.51-9.33,5.76h1.36c.82-1.91,3.2-3.58,7.05-4,5.27-.64,116.77.11,121.92.09a28.75,28.75,0,0,0,7.59-1.06c.07,0,.14.09.05.16a23.3,23.3,0,0,1-9.07,3.06c-4.89.71-116.16.21-121,0-2.63-.11-4.39.69-5.21,1.77,66.49.09,129.06.33,185.07.65a3.57,3.57,0,0,1,3.5-2.94,3.59,3.59,0,1,1-3.34,4.9c-56,.32-118.67.56-185.23.65.82,1.09,2.58,1.88,5.21,1.77,4.8-.19,116.07-.68,121,0a23.33,23.33,0,0,1,9.07,3.08.07.07,0,0,1-.05.14,28.75,28.75,0,0,0-7.59-1.06c-5.15,0-116.65.73-121.92.09-3.85-.47-6.23-2.13-7.05-4h-1.36c.77,3.25,3.88,6.07,9.33,5.76l63,.07a20.45,20.45,0,0,1,12.88,5.08c.14.12.05.35-.07.3a30.44,30.44,0,0,0-10.79-2c-7.29-.1-56.93,1.4-64.4.16-6.87-1.06-10.72-5-11.5-9.36h-2.18A5.15,5.15,0,0,1,203.74,18a5.08,5.08,0,0,1-4.82-3.48h-2.21c-.78,4.33-4.61,8.3-11.49,9.36-7.48,1.24-57.12-.26-64.41-.16a30.43,30.43,0,0,0-10.78,2c-.12,0-.22-.18-.08-.3a20.46,20.46,0,0,1,12.91-5.08l63-.07c5.46.31,8.56-2.51,9.33-5.76h-1.34c-.84,1.91-3.19,3.57-7.07,4-5.27.64-116.77-.11-121.89-.09a28.69,28.69,0,0,0-7.59,1.06c-.1,0-.17-.09-.08-.14a23.47,23.47,0,0,1,9.1-3.08c4.87-.7,116.14-.21,120.93,0,2.66.11,4.4-.68,5.24-1.77-66.92-.09-129.74-.33-185.56-.68a3.62,3.62,0,0,1-3.37,2.3,3.59,3.59,0,0,1,0-7.17Z"/></g></g></svg>