<svg xmlns="http://www.w3.org/2000/svg" viewBox="0 0 406.84 8.01"><defs><style>.cls-1{fill-rule:evenodd;}</style></defs><title>15</title><g id="Layer_2" data-name="Layer 2"><g id="Layer_1-2" data-name="Layer 1"><path class="cls-1" d="M203.4,1.46c2.62,0,4.8.91,5.25,2.09H213a2.55,2.55,0,0,1,5,0h3.31A15.17,15.17,0,0,0,229,0L322.5,2l84.34,1.81v.4L322.5,6,229,8a14.43,14.43,0,0,0-7.59-3.57H218a2.54,2.54,0,0,1-5,0h-4.32c-.45,1.2-2.63,2.1-5.25,2.1s-4.79-.9-5.21-2.1h-4.35a2.53,2.53,0,0,1-2.49,2.1,2.56,2.56,0,0,1-2.52-2.1h-3.36A14.36,14.36,0,0,0,177.88,8L84.31,6,0,4.21v-.4L84.31,2l93.57-2a15.11,15.11,0,0,0,7.64,3.55h3.31a2.58,2.58,0,0,1,2.52-2.09,2.54,2.54,0,0,1,2.49,2.09h4.32C198.61,2.37,200.8,1.46,203.4,1.46Z"/></g></g></svg>