<svg xmlns="http://www.w3.org/2000/svg" viewBox="0 0 406.84 12.89"><defs><style>.cls-1{fill-rule:evenodd;}</style></defs><title>16</title><g id="Layer_2" data-name="Layer 2"><g id="Layer_1-2" data-name="Layer 1"><path class="cls-1" d="M156.51,6.44c-5.1-.87-7.26-3.64-8-4.7-1.8.73-15.67,3-34.33,3.64C74.93,6.63,14.45,5.43.42,5.85c-.59,0-.54,1.2,0,1.23,14.06.42,74.72-.71,114,.54,18.56.61,32.34,2.79,34.14,3.52a11.8,11.8,0,0,1,8-4.7Zm-5.52,0a8.77,8.77,0,0,0-4.07,3.39c-1.15-.64-20.16-3-33.3-3.36,3.39,0,27.52-1.56,33.3-3.39A8.24,8.24,0,0,0,151,6.44Zm10.81-3.1a3.1,3.1,0,1,1-3.1,3.1,3.12,3.12,0,0,1,3.1-3.1Zm1.84-1.06a6.4,6.4,0,0,0-2.14,0,4.31,4.31,0,0,0-3.69,4.2,4.31,4.31,0,0,0,3.69,4.21,6.24,6.24,0,0,0,2.47-.12,4.3,4.3,0,0,0,3.14-4.09,4.32,4.32,0,0,0-3.47-4.16ZM250.3,6.44c5.1-.87,7.26-3.64,8-4.7,1.79.73,15.65,3,34.32,3.64,39.27,1.25,99.8,0,113.8.47.59,0,.55,1.2,0,1.23-14,.42-74.72-.71-114,.54-18.57.61-32.34,2.79-34.16,3.52a11.69,11.69,0,0,0-8-4.7Zm5.52,0a8.61,8.61,0,0,1,4.07,3.39c1.17-.64,20.16-3,33.3-3.36-3.36,0-27.5-1.56-33.3-3.39a8.24,8.24,0,0,1-4.07,3.36ZM245,3.34a3.1,3.1,0,1,0,3.12,3.1A3.1,3.1,0,0,0,245,3.34Zm-1.83-1.06a6.35,6.35,0,0,1,2.13,0A4.31,4.31,0,0,1,249,6.44a4.31,4.31,0,0,1-3.69,4.21,6.06,6.06,0,0,1-2.44-.12,4.3,4.3,0,0,1-3.17-4.09A4.32,4.32,0,0,1,243.18,2.28ZM190.34,9.9c4.42-1.2,16.59-6.14,23.5-7.95,6.37-1.66,14.81-2.91,20.69,0,3.73,1.86,4.67,5,2.32,7.54-3.74,4-13.63,3.86-17.79,1.95-1.48-.77-.78-1.88.28-1.19a16.28,16.28,0,0,0,10.84,1.6c3.2-.57,6.58-2.47,6.48-5.34-.09-2.35-2.46-4.42-6.18-5.1-6.25-1.18-11.91,1.18-16.92,3.08-6.75,2.56-17.35,7-27.62,8-5.52.54-11.05-.11-14.1-1.88-4-2.3-4.23-6-.43-8.39C176.54-1,184.74,0,187.14,1.69c.85.5.33,1.53-.59,1C181-.21,170.73.64,170.36,6.16c-.19,2.56,2.91,4.54,6.82,5.15,5,.77,9.47-.42,13.16-1.41Zm5.57,2.8c10.46,1.88,30.67-10.79,35.21-8.12C226-.28,203.73,12.43,195.91,12.7Zm17-12.51C202.47-1.69,182.25,11,177.72,8.3,182.86,13.17,205.1.45,212.92.19Z"/></g></g></svg>