<svg xmlns="http://www.w3.org/2000/svg" viewBox="0 0 406.84 30.75"><defs><style>.cls-1{fill-rule:evenodd;}</style></defs><title>17</title><g id="Layer_2" data-name="Layer 2"><g id="Layer_1-2" data-name="Layer 1"><path class="cls-1" d="M0,16.24l49.17.36,141.61,1-2.14-2.16,2.14-2.14L49.17,14.41,0,14.76v1.48Zm25.22,1.58L111,20.64l85.55,2.82L192.17,19,111,18.43l-85.82-.61Zm0-4.63L111,10.37l85.55-2.82L192.17,12,111,12.58l-85.82.61Zm381.62,3-49.2.36L216,17.65l2.16-2.16L216,13.35l141.61,1.06,49.2.35v1.48Zm-25.23,1.58-85.84,2.82-85.55,2.82L214.67,19l81.1-.59,85.84-.61Zm0-4.63-85.84-2.82L210.22,7.55,214.67,12l81.1.59,85.84.61ZM204.72,10.6l3.17-2.84L207,11.92l4.16-.89-2.84,3.17,4,1.29-4,1.32L211.16,20,207,19.09l.89,4.16-3.17-2.85L203.4,30.75,202.09,20.4l-3.15,2.85.87-4.16-4.16.89,2.87-3.17-4.07-1.32,4.07-1.29L195.65,11l4.16.89-.87-4.16,3.15,2.84L203.4,0Z"/></g></g></svg>