<svg xmlns="http://www.w3.org/2000/svg" viewBox="0 0 406.84 16.92"><defs><style>.cls-1{fill-rule:evenodd;}</style></defs><title>18</title><g id="Layer_2" data-name="Layer 2"><g id="Layer_1-2" data-name="Layer 1"><path class="cls-1" d="M203.4,0c26.35,0,47.84,3.81,47.84,8.46s-21.49,8.46-47.84,8.46-47.83-3.78-47.83-8.46S177.06,0,203.4,0Zm87.3,9.59h-3.2c-2.14,1.43-8.39,2.73-17.55,3.83,6.32-1.48,9.94-3.15,9.94-5S276.27,5,270,3.53c9.16,1.08,15.41,2.39,17.55,3.83h3.2c37.94,0,73.5.19,104,.49.9-1.62,5.29-3.12,12.16-4.32-4.24,1.45-6.66,3.15-6.66,4.93s2.42,3.48,6.66,5c-6.87-1.22-11.26-2.7-12.16-4.35-30.46.33-66,.52-104,.52Zm-174.56,0h3.17c2.16,1.43,8.39,2.73,17.58,3.83-6.32-1.48-9.94-3.15-9.94-5s3.62-3.48,9.94-4.93c-9.19,1.08-15.42,2.39-17.58,3.83h-3.17c-38,0-73.53.19-104,.49C11.28,6.23,6.86,4.73,0,3.53,4.23,5,6.65,6.68,6.65,8.46s-2.42,3.48-6.65,5c6.86-1.22,11.28-2.7,12.15-4.35,30.46.33,66,.52,104,.52ZM205.87,2V15c.52,0,1,0,1.53,0V2c-.49,0-1,0-1.53,0Zm-1.76,13V2H202.7V15c.23,0,.47,0,.7,0s.47,0,.71,0Zm5.08-12.9V14.88c.49,0,1,0,1.5-.05V2.09c-.49,0-1,0-1.5,0Zm3.29.11v12.6l1.5-.07V2.26l-1.5-.1Zm3.29.19V14.57c.52,0,1,0,1.53-.09v-12c-.52-.05-1-.1-1.53-.12Zm3.29.24V14.34l1.53-.14V2.73l-1.53-.14Zm3.29.32V14l1.53-.18V3.08l-1.53-.17Zm3.29.4V13.63l1.53-.21V3.53l-1.53-.22Zm3.29.5v9.31c.54-.08,1-.17,1.53-.26V4.09l-1.53-.28Zm3.29.63v8c.54-.12,1.06-.23,1.53-.37V4.82l-1.53-.38Zm3.32.89v6.28c.54-.19,1.05-.38,1.5-.56V5.88c-.45-.19-1-.38-1.5-.55Zm3.29,1.44v3.41c.82-.54,1.29-1.13,1.29-1.72s-.47-1.15-1.29-1.69ZM200.94,15V2c-.52,0-1,0-1.53,0v12.9c.52,0,1,0,1.53,0Zm-3.29-.07V2.05c-.52,0-1,0-1.53,0V14.83c.49,0,1,0,1.53.05Zm-3.3-.12V2.16l-1.52.1V14.69l1.52.07Zm-3.29-.19V2.35c-.51,0-1,.07-1.52.12v12c.49,0,1,.07,1.52.09Zm-3.31-.23V2.59l-1.5.14V14.2l1.5.14ZM184.46,14V2.91L183,3.08V13.85l1.51.18Zm-3.29-.4V3.31l-1.53.22v9.89l1.53.21Zm-3.29-.51V3.81l-1.53.28v8.77l1.53.26Zm-3.29-.64v-8l-1.53.38v7.29c.5.14,1,.25,1.53.37Zm-3.29-.87V5.33c-.57.17-1.06.36-1.53.55v5.17c.47.18,1,.37,1.53.56ZM168,10.18V6.77c-.85.54-1.3,1.1-1.3,1.69s.45,1.18,1.3,1.72ZM235.39.59C250.23,2.33,260,5.22,260,8.46s-9.75,6.16-24.59,7.88c23-1.46,38.77-4.45,38.77-7.88S258.36,2.07,235.39.59Zm-64,15.75c-14.82-1.72-24.58-4.61-24.58-7.88s9.78-6.13,24.61-7.87c-23,1.48-38.78,4.44-38.78,7.87S148.45,14.88,171.41,16.34Z"/></g></g></svg>