<svg xmlns="http://www.w3.org/2000/svg" viewBox="0 0 378.32 33.43"><title>19</title><g id="Layer_2" data-name="Layer 2"><g id="Layer_1-2" data-name="Layer 1"><path d="M233.14,22c.71,0,1.39,0,2.08,0q55,.75,110,1.49c5.74.08,11.48,0,17.22-.22,2.49-.1,5-.84,7.45-1,1.13-.09,2.29.5,3.44.62a3.5,3.5,0,0,0,2-.3c1-.58,2-.83,2.63.14a2.85,2.85,0,0,1,.13,2.48c-.61,1-1.66.92-2.76.3a4.1,4.1,0,0,0-2.27-.09c-.77.08-1.58.61-2.29.49-14.56-2.42-29.22-1.25-43.83-1.11-30.22.28-60.44.82-90.66,1.25C234.19,26.07,233.61,25.34,233.14,22ZM143.2,22c-30.57.42-61.14.91-91.71,1.22-14.62.15-29.27,1.32-43.83-1.08-.77-.12-1.63.42-2.46.52a3.69,3.69,0,0,1-2.12-.06C2,22,1,21.73.31,22.77a2.79,2.79,0,0,0,0,2.47c.64,1,1.69.89,2.76.21a3.36,3.36,0,0,1,2-.24c1,.12,2.09.68,3.1.61,3.89-.3,7.78-1.16,11.66-1.13,27.35.17,54.7.49,82.05.8,13.53.15,27.06.37,40.59.52a2.28,2.28,0,0,0,1.69-.74A19.05,19.05,0,0,0,145.45,22C144.47,22,143.84,22,143.2,22Zm35.7,1.57c-4.46-1.53-8.88-3.18-13.31-4.78l.07-.49a22.21,22.21,0,0,1,4,.52c2.4.75,4.74,1.7,7.06,2.66,2.6,1.08,5.19,2.13,8.1,1.86-1.32-.54-2.65-1-3.94-1.63-2.49-1.15-4.91-2.48-7.43-3.54a10.93,10.93,0,0,0-7.72-.58,11.47,11.47,0,0,1-3.48.56c-1.88,0-3.75-.28-5.17.66a53.07,53.07,0,0,1,6,1c2.41.68,4.72,1.73,7.09,2.57,4.06,1.44,8.07,3.2,12.85,2.21a5.91,5.91,0,0,1-5.31,1.49c-3.18-.74-6.3-1.73-9.42-2.7-3.79-1.18-7.48-2.73-11.34-3.63A8.67,8.67,0,0,0,146,28.21l.88-1.89c2-4.26,4.87-5.83,9.49-4.92a59.84,59.84,0,0,1,6.4,1.84c4.12,1.31,8.17,2.92,12.35,3.94,4.47,1.09,7.51-.34,9.69-3.81A7.27,7.27,0,0,1,178.9,23.6ZM202.82,21c2.49-1,5.05-1.74,7.61-2.5a3.2,3.2,0,0,1,2.28.37c-4.78,1.67-9.51,3.49-14.36,4.92-1.46.43-3.25-.26-4.89-.43,2.14,3.81,5.63,4.65,9.51,3.86,3.24-.67,6.37-1.89,9.55-2.87s6.53-2.25,9.88-3c3.87-.87,6.72.69,8.59,4.18.43.81.81,1.66,1.28,2.65a2.92,2.92,0,0,0,.11-.65c-1.07-5.91-5.54-9-11.39-7.68-3.34.78-6.56,2.08-9.85,3.11s-6.87,2.26-10.37,3.14a5.68,5.68,0,0,1-4.94-1,55.21,55.21,0,0,0,7-1c2.82-.73,5.53-1.89,8.28-2.89,3.35-1.21,6.64-2.69,10.39-2.25a5.48,5.48,0,0,0-2.29-.78c-2.87-.09-5.78.28-8.51-1a1.64,1.64,0,0,0-1,0c-2.46.66-5,1.2-7.36,2.1-2.11.81-4.06,2.06-6.11,3.06-.85.41-1.78.67-2.68,1C196.86,23.69,199.78,22.16,202.82,21Zm-2.13-7.79a40.72,40.72,0,0,0-4.84.55c-3.07.71-5.32,2.45-5.95,5.73a9.89,9.89,0,0,0,8.87,12.16c4.45.53,8.57-.62,12.6-2.4s8.13-3.48,12.44-5.32c-2.36.54-4.58.89-6.69,1.57-3.56,1.15-7,2.7-10.57,3.75s-7.28,1.32-10.81-.41c-3.08-1.51-4.73-4.76-4.44-8.67.21-2.84,2-4.81,5.52-5.81,1.28-.37,2.61-.57,3.92-.85ZM154.74,24.12c3.28,1.34,6.62,2.56,9.84,4,4,1.84,8,3.5,12.54,3.64,5.6.18,9.95-2.69,11.12-7.46,1.75-7.12-3.39-12.32-10.56-10.8,1.18.25,2.45.44,3.68.78,3.59,1,5.46,3,5.65,5.89.27,4-1.37,7.4-4.65,8.66a17.68,17.68,0,0,1-6,1.05c-4.5.06-8.48-2-12.61-3.47-2.93-1.06-6-1.77-9-2.64ZM174.22,9.2c-.55.05-1,1-1.49,1.59.71.34,1.52,1.1,2.12,1a15.88,15.88,0,0,1,12.06,1.76C183.46,9.86,179.09,8.68,174.22,9.2ZM197,11.59a32.77,32.77,0,0,1,6.25.19c1,.07,2.07.21,2.25-1s-.89-1.64-1.95-1.69a18.52,18.52,0,0,0-3.16,0,14.63,14.63,0,0,0-9.19,4.31A33.37,33.37,0,0,1,197,11.59ZM179,4.7a1.7,1.7,0,0,0-1.42.85,2.9,2.9,0,0,0,.79,1.67c.16.21.66.18,1,.23a14.29,14.29,0,0,1,8.26,4C185.9,7.74,182.77,5.79,179,4.7Zm18.56,3a8.19,8.19,0,0,0,2.21-.48,2,2,0,0,0,.94-1.55,1.81,1.81,0,0,0-1.47-1c-3.73,1.11-6.89,3-8.57,6.71A13.62,13.62,0,0,1,197.58,7.72Zm-10.88,23,2.75,2.73-.68-.33,2.85-2.38-2.47-4.06C188.29,28.08,187.44,29.49,186.7,30.7Zm3.64-21.91c1.54-1.4,3.11-2.76,4.58-4.23.32-.33.26-1,.37-1.58-.5.1-1.23,0-1.47.34C192.49,5,191.29,6.84,190,8.62Zm-1-1.81c.23-1.89.51-3.77.64-5.67,0-.41-.52-.87-.8-1.31-.31.46-.92.94-.89,1.39.1,1.86.39,3.71.61,5.57Zm-1.09,1.66C187,6.85,185.83,5,184.5,3.32c-.24-.31-1-.24-1.48-.35.11.54,0,1.26.37,1.58,1.46,1.48,3,2.84,4.58,4.24Z"/></g></g></svg>