<svg xmlns="http://www.w3.org/2000/svg" viewBox="0 0 383.93 18.57"><title>20</title><g id="Layer_2" data-name="Layer 2"><g id="Layer_1-2" data-name="Layer 1"><path d="M87.58,17.2V15.41h47.87c5.35-1.53,11.26-1.17,16-4.83,1-.74,1.9-2.17,2.79-2.12s1.74,1.54,2.69,2.3a20.55,20.55,0,0,0,12.27,4.63,54.49,54.49,0,0,0,6.5-.17,14.9,14.9,0,0,1-1.45-.41c-3.77-1.54-7.56-3.07-11.31-4.67a4.65,4.65,0,0,1-1.62-1.31,2.22,2.22,0,0,1-.11-3,2.2,2.2,0,0,1,3-.61,16.56,16.56,0,0,1,2.64,2c5.86,5.08,12.55,8.09,20.41,8.21.29,0,.58,0,.87,0,.1,0,.19-.11.47-.27a29.11,29.11,0,0,1-10.83-9,5.1,5.1,0,0,1-1.24-2.61,2.85,2.85,0,0,1,1.19-2.24,2.69,2.69,0,0,1,2.48.24A7.67,7.67,0,0,1,182,4.36c1.55,3.77,3.34,7.35,6.45,10.12,1.51,1.35,5.42,1.36,7,0,3.12-2.75,4.91-6.35,6.46-10.11a6.82,6.82,0,0,1,1.74-2.77,3.35,3.35,0,0,1,2.64-.4,1.94,1.94,0,0,1,1.18,2.6,5.05,5.05,0,0,1-.89,1.87c-3,3.72-6.25,7.16-10.7,9.18-.14.06-.23.21-.49.46a26.21,26.21,0,0,0,11.94-2,32.84,32.84,0,0,0,10.2-6.42,10.66,10.66,0,0,1,2.23-1.69,2.27,2.27,0,0,1,3.11.74,2.24,2.24,0,0,1-.3,3,5,5,0,0,1-1.66,1.28c-3.71,1.56-7.44,3.07-11.17,4.57-.46.19-1,.28-1.43.48,4.92.23,9.9.58,14.39-1.89A47.55,47.55,0,0,0,228.75,9c.64-.51,1.05-1.12,1.84-.25,3.74,4.13,8.84,4.7,13.93,5.77,8.18,1.7,16.35.55,24.51.81s16.52.06,24.78.06h2.53l.11,1.79Zm143.36-1.94h5.77l-6.94-4.65-7.94,4.68h6.59A9.79,9.79,0,0,1,229,13c.11-.22,1.27-.24,1.36-.06A11.38,11.38,0,0,1,230.94,15.26Zm-76.77-4.64-7,4.66H153a9.18,9.18,0,0,1,.57-2.3c.12-.22,1.27-.24,1.36-.05a12.08,12.08,0,0,1,.64,2.37h6.56ZM309,17.31q32.49,0,65,0a29.39,29.39,0,0,1,4.41.73,20.49,20.49,0,0,0,3.63.46,1.94,1.94,0,0,0,1.95-2.24c0-1.28-.74-2.2-2.07-2.12a30.69,30.69,0,0,0-4.11.7,16.1,16.1,0,0,1-2.7.53c-9.08,0-18.15,0-27.23,0H308.47c-1.21,0-2.18.09-1.52,1.91ZM75.2,15.41q-32.33,0-64.64,0a33.35,33.35,0,0,1-5.1-.8,24.67,24.67,0,0,0-3.29-.42A2,2,0,0,0,0,16.37a2,2,0,0,0,2.21,2.19A23.69,23.69,0,0,0,5.83,18a20.94,20.94,0,0,1,3.54-.65q32.94-.06,65.86,0H77C77.65,15.12,76.28,15.41,75.2,15.41Zm117-1.24c.74-3.7,1.53-7.4,2.19-11.13a2.41,2.41,0,0,0-2.3-3,2.32,2.32,0,0,0-2.57,2.62c.62,3.88,1.45,7.73,2.19,11.59ZM79.93,16.33a2.22,2.22,0,1,0,2.25-2.21A2.19,2.19,0,0,0,79.93,16.33Zm221.83-2.18a2.06,2.06,0,0,0-2.18,2.22,2.07,2.07,0,0,0,2.22,2.19,2.21,2.21,0,1,0,0-4.41ZM185,5c.17.59,1,1,1.54,1.45.44-.52,1.19-1,1.21-1.58s-.75-1-1.49-2C185.64,3.87,184.89,4.55,185,5ZM197.55,3.6c-.57.15-1,1-1.46,1.51.51.44,1,1.19,1.55,1.22s1.06-.71,2-1.43C198.65,4.24,198,3.49,197.55,3.6Zm12.08,3.8c.16.59,1,1,1.5,1.49.44-.53,1.18-1,1.22-1.57s-.71-1.05-1.43-2C210.26,6.32,209.51,7,209.63,7.4Zm-35.34.1c-.12-.59-.92-1-1.43-1.53-.46.49-1.24,1-1.29,1.49s.67,1.09,1.35,2.08C173.61,8.57,174.38,7.94,174.29,7.5Z"/></g></g></svg>