<svg xmlns="http://www.w3.org/2000/svg" viewBox="0 0 385.07 32.35"><title>21</title><g id="Layer_2" data-name="Layer 2"><g id="Layer_1-2" data-name="Layer 1"><path d="M192.59,30.94q-87.65,0-175.28,0c-.88,0-2.19.74-2.65-.83a10.69,10.69,0,0,1,2.63-.7q136-.06,272,0,39.47,0,78.94,0c.8,0,2-.57,2.19.87a4.34,4.34,0,0,1-2.18.67Q280.4,31,192.59,30.94Zm37-14.14a4.41,4.41,0,0,1,1.17,1.91c.05.22-1,1-1.53,1a10.41,10.41,0,0,1-4.19-.94c-2.66-1.57-5.09-3.53-7.68-5.23A101.67,101.67,0,0,0,208.46,8a9.72,9.72,0,0,0-7.72-.38,9.32,9.32,0,0,0-6.58,8.31c-.42,3.8,1.41,6.54,4.48,8.53,3.22,2.08,6.86,2.6,10.6,2.61,9.2,0,18.4,0,27.61,0,14.41,0,28.83.06,43.25,0a8.84,8.84,0,0,0,4-.94,3.4,3.4,0,0,0,1.24-4.6,4.07,4.07,0,0,0-5-.92c.66.18,1.25.17,1.59.46.66.56,1.7,1.34,1.63,1.91-.09.73-1,1.52-1.77,1.95a4.85,4.85,0,0,1-2.24.21q-24.27,0-48.53-.1c-7.85,0-15.71.11-23.55-.21A18.81,18.81,0,0,1,200,22.66c-2.53-1.28-3.54-3.78-3.26-6.69a7.13,7.13,0,0,1,4.18-6.25,6.64,6.64,0,0,1,7.08,1,5.41,5.41,0,0,1,.85,6,3.54,3.54,0,0,1-5.59,1,2.43,2.43,0,0,1,1.09-4.24c.43-.14.84-.3,1.66-.59-3.46-.77-5.07.49-4.82,3.28s1.52,4.22,4,4.5c3.1.35,5.55-1,6.23-3.63a37,37,0,0,0,.58-5c1.09.79,2.2,1.61,3.33,2.42a93.62,93.62,0,0,0,8,5.63,13.84,13.84,0,0,0,5.81,1.55,3.06,3.06,0,0,0,3-3.72c-.33-1.68-1.79-2.41-4.49-1.85C228.7,16.45,229.31,16.48,229.62,16.8ZM104.55,20.2a4.88,4.88,0,0,0-4.25.88c-1.18,1-1.12,2.26-.55,3.53.94,2.05,2.73,2.55,4.8,2.54l24.44,0,46.76-.06c3.86,0,7.63-.51,10.92-2.71,3-2,4.8-4.81,4.31-8.61a9.27,9.27,0,0,0-6.74-8.19,11.23,11.23,0,0,0-9.17,1.12c-2.58,1.47-5,3.27-7.45,5s-5,3.66-7.7,5.2a10.36,10.36,0,0,1-4.2.84c-.45,0-1.33-.62-1.35-1a2.65,2.65,0,0,1,.87-1.72,7.74,7.74,0,0,1,2-.88c-2.63-.49-4.13.32-4.35,2.1a3.26,3.26,0,0,0,3.22,3.62,10,10,0,0,0,6.42-2c2.57-1.74,5-3.64,7.54-5.47l3-2.18a34.21,34.21,0,0,0,.59,5c.71,2.72,3.26,4.06,6.39,3.61,2.54-.37,3.89-2.1,3.91-5,0-2.46-2.08-3.75-4.59-2.61l1.38.44a2.44,2.44,0,0,1,1.09,4.25,3.55,3.55,0,0,1-5.6-1,5.41,5.41,0,0,1,.86-6,6.66,6.66,0,0,1,7.24-.89,7.16,7.16,0,0,1,4,6.35A6.9,6.9,0,0,1,185,22.84c-2.87,1.87-6.12,2.19-9.44,2.2l-70.32.14a4.52,4.52,0,0,1-2.07-.24c-.68-.38-1.62-1.16-1.59-1.73s.84-1.47,1.47-2.05c.37-.33,1-.33,1.57-.48Zm87.24-9a1.1,1.1,0,0,0,.78.72,1.09,1.09,0,0,0,.79-.7c.61-2.85,1.24-5.7,1.66-8.58A2.31,2.31,0,0,0,192.59,0c-1.44,0-2.48,1.07-2.5,3C190.6,5.45,191.16,8.31,191.79,11.15Zm-18.55,8.63a22.23,22.23,0,0,1-1-3c-.51-1.83-1-2-2.46-.68-2.2,2-4.44,4-6.66,6-.34.31-.64.66-1,1l.41.53,7.95-5.39c1.43,3,3.22,5.33,6.84,5.07A5.52,5.52,0,0,1,173.24,19.78Zm41.46-1.62c2.74,1.84,5.15,3.93,8.14,5.07a3.49,3.49,0,0,0-1.06-1.38c-2.09-1.87-4.21-3.71-6.27-5.62-1.56-1.44-2-1.31-2.6.75-.78,2.8-1.67,5.54-5.09,6.33C211.5,23.57,213.26,21.14,214.7,18.16Zm-24.61,6.38a2.49,2.49,0,1,0,2.43-2.66A2.52,2.52,0,0,0,190.09,24.54Zm192,5.53c.12.62,1,1.09,1.57,1.62.5-.53,1.37-1.05,1.4-1.61s-.77-1.17-1.51-2.16C382.84,28.91,382,29.59,382.09,30.07ZM1.68,28.65C1,28.78.55,29.65,0,30.2c.54.5,1,1.32,1.63,1.39s1.17-.71,2.2-1.4C2.81,29.42,2.15,28.55,1.68,28.65Zm372.23,0c-.58,0-1.1.9-1.64,1.4.54.55,1,1.42,1.63,1.54s1.17-.72,2.18-1.43C375.07,29.4,374.46,28.6,373.91,28.64Zm-367.33,0c-.59,0-1.14.85-1.71,1.32.51.57,1,1.44,1.57,1.61.47.12,1.18-.66,2.24-1.33C7.69,29.46,7.11,28.63,6.58,28.65Zm6.2,1.6c-.12-.65-1-1.15-1.5-1.72-.52.53-1.38,1-1.46,1.6s.72,1.18,1.42,2.22C12,31.36,12.88,30.71,12.78,30.25Zm367.41,0c-.13-.64-1-1.14-1.51-1.7-.52.52-1.37,1-1.44,1.58s.69,1.17,1.38,2.22C379.4,31.36,380.28,30.71,380.19,30.25Z"/></g></g></svg>