<svg xmlns="http://www.w3.org/2000/svg" viewBox="0 0 358.74 30.85"><title>22</title><g id="Layer_2" data-name="Layer 2"><g id="Layer_1-2" data-name="Layer 1"><path d="M179.83,24l-.41,6.81h-.52c-.14-2.27-.27-4.53-.41-6.79-.78-2.67.08-5.66-1.48-8.32-2.72,4-2.25,6.4,1.49,8.31-3.74-.46-5-2.21-4.32-6a11.4,11.4,0,0,1,.38-1.53c.86-2.83,1-3-1.49-4.58-3-2-6.09-3.7-9.2-5.43A5.76,5.76,0,0,0,161.34,6c-4-.17-8.07-.22-12.11-.39a8.42,8.42,0,0,1-6.42-2.76C147.77,6,153,4,157.94,4.55l.12-.45c-1.77-.54-3.53-1.14-5.31-1.61s-3.73-.85-5.59-1.35c5.17-.49,10.05.69,14.92,2.27A68.86,68.86,0,0,0,169.5,5l.27-.9-7.81-3,0-.32a57.91,57.91,0,0,1,6.72,1.35,62.28,62.28,0,0,1,6.55,3l-.83-2.18.22-.15,4.49,6.72c1.7-2.54,3.1-4.61,4.5-6.69l.21.08-.76,2.19a62.39,62.39,0,0,1,6.5-2.93,25,25,0,0,1,6.86-1L188.6,4l.16.78c2.12-.31,4.34-.3,6.33-1C199.78,2.23,204.47.9,209.47,1c.56,0,1.13.05,1.83.09L200.23,4l.1.52c4.9-.4,9.94,1.37,14.72-1.18a8.55,8.55,0,0,1-6,2.27c-4,.2-8.08.23-12.11.4a6,6,0,0,0-2.68.6c-3.56,2.12-7.05,4.35-10.56,6.55a1.38,1.38,0,0,0-.49,2.07,11.52,11.52,0,0,1,.91,3c.66,3.66-.67,5.4-4.34,5.81,4.27-1.31,3.69-4.93,1.39-8.46a16.94,16.94,0,0,0-.68,2.26C180.25,19.9,180.06,22,179.83,24ZM190,6a7,7,0,0,0-8.07,3.3c-.62,1-1.12,2.22,0,3.1ZM168.3,6l8.12,6.46c1.05-1,.57-2.26-.11-3.24C174.19,6.18,171.55,5.2,168.3,6Zm183.54,6.43c-1.2.35-2.41.8-3.45-.61-.68-.93-1.67-.73-2.64-.05a4.59,4.59,0,0,1-2.39.93q-70-.39-140.08-.81c-2.6,0-5.2.82-7.8,1.26l.07.55h1.35l43.24,0q51.67,0,103.35,0c.83,0,1.65.61,2.51.76s1.79.31,2.22-.08a3.08,3.08,0,0,1,3.41-.44c1.42.47,2.82,1,4.63,1.67l-1.64-2.42,1.78-2.53C354.56,11.42,353.22,12,351.84,12.44Zm-189,.82a46.4,46.4,0,0,0-6.93-1.37c-3.85-.2-7.73,0-11.59.06q-64.68.41-129.35.76c-.81,0-1.59-.7-2.42-.88s-2.15-.47-2.45-.09c-1.23,1.56-2.56,1-3.93.58s-2.57-1-4.2-1.56L3.7,13.24,2,15.68C3.83,15,5.17,14.48,6.54,14s2.4-.68,3.57.42a2.06,2.06,0,0,0,2,.12c1-1,2.09-.85,3.24-.85H162.77ZM146.36,9.44c3.86.6,7.8.7,11.7,1.11a31.15,31.15,0,0,1,12.65,4.19c-1.46,4.72-.33,9.11,2.65,10.67-2.88-4.13-3-8.13-.07-11-.23-.18-.45-.35-.68-.51-6.3-4.44-13.42-6-21-5.77-6.12.16-11.45-1.5-15.69-6.19C138.37,5.85,141.7,8.71,146.36,9.44Zm40.73,10.32a43.48,43.48,0,0,1-1.66,5.64,9.61,9.61,0,0,0,2.16-10.71c.65-.34,1.21-.65,1.79-.94a36.75,36.75,0,0,1,15.25-3.57c3.57-.12,7.14-.24,10.51-1.69,3.11-1.35,6.38-4.34,7.21-6.83a18.11,18.11,0,0,1-14.62,6.43,72.56,72.56,0,0,0-7.37.33,31.15,31.15,0,0,0-15.49,6A5.32,5.32,0,0,1,187.09,19.76ZM179.47,4.07c.52-.71,1.34-1.35,1.49-2.13A1.63,1.63,0,0,0,179.24,0a1.62,1.62,0,0,0-1.88,1.79c.1.79.86,1.5,1.32,2.24ZM.91,12.09c-.33,0-.61.67-.91,1,.4.32.76.83,1.2.89s.68-.52,1.31-1C1.78,12.53,1.33,12.06.91,12.09Zm356.3,0c-.32,0-1,.7-.9.95a1.6,1.6,0,0,0,1,1c.3.07.73-.47,1.39-1C358.05,12.59,357.63,12.09,357.21,12.08Z"/></g></g></svg>