<svg xmlns="http://www.w3.org/2000/svg" viewBox="0 0 370.22 23.54"><title>23</title><g id="Layer_2" data-name="Layer 2"><g id="Layer_1-2" data-name="Layer 1"><path d="M126.74,19.1a46.36,46.36,0,0,1-7,1c-35.68-.27-71.36-.65-107-.94a61.44,61.44,0,0,0-7.25.75c-.84.1-1.66.3-2.49.39-1.81.2-3.14-.53-3-1.71.24-1.68,1.62-1.89,2.89-1.63,11.23,2.3,22.58.88,33.87,1.08s22.66-.08,34-.21c16.79-.21,33.57-.51,50.37-.66,1.85,0,3.72.72,5.58,1.1Zm116.82,0a42.62,42.62,0,0,0,6.76,1q55.05-.42,110.1-1a22.93,22.93,0,0,1,3.16.46,35.81,35.81,0,0,0,5.13.58,2.16,2.16,0,0,0,1.51-1.54c0-.57-.86-1.38-1.52-1.61a5.33,5.33,0,0,0-2.47.08c-1.88.29-3.76,1-5.63,1-37-.26-74-.62-111-.88-2,0-4,.7-6,1.07Zm-65.09-4.62a5.05,5.05,0,0,0-1.79-6.36,6.71,6.71,0,0,0-9,1.78,8,8,0,0,0,2.47,11.43,11.81,11.81,0,0,0,13.32-1c.56-.44,1.09-.91,1.68-1.4l1.42,1.2a11.72,11.72,0,0,0,13.29,1.31,7.73,7.73,0,0,0,3.82-4.58,7.92,7.92,0,0,0-2.33-8.34c-2.25-1.83-4.77-1.79-7.28-.64a4.9,4.9,0,0,0-2.3,6.44,4.37,4.37,0,0,0,5.3,2.51l-.94-.3c-2.3-.69-3.41-2-3.52-4a3.17,3.17,0,0,1,2-3.44,5.18,5.18,0,0,1,6,1,6.4,6.4,0,0,1-1.13,9.34c-3.2,2.21-8.79,2-11.88-.31a1.62,1.62,0,0,1-.56-2.49,17.56,17.56,0,0,0,1.61-13.07c-.6-2.31-2-3.55-3.55-3.54s-2.85,1.32-3.53,3.59a9.59,9.59,0,0,0-.38,1.75,18.27,18.27,0,0,0,2,11.31,1.55,1.55,0,0,1-.48,2.38c-3.14,2.47-9,2.62-12.18.25a6.41,6.41,0,0,1-.9-9.24,5.23,5.23,0,0,1,6-.92,3.18,3.18,0,0,1,2,3.47c-.13,2-1.23,3.25-3.57,3.94-.25.08-.49.18-.94.35A4.46,4.46,0,0,0,178.47,14.44Zm5.41-12c.19-.55.81-1,1.22-1.43.44.44,1.09.8,1.28,1.33a15.41,15.41,0,0,1-1.22,13.43A15.62,15.62,0,0,1,183.88,2.46Zm43.26,15.35c1.5,1.1,2.91,2.34,4.49,3.29a9.22,9.22,0,0,0,3.82,1.4,3.15,3.15,0,0,0,2.37-1.45,3.86,3.86,0,0,0,0-2.82c-.16-.47-1.22-.63-2.28-1.12.74.9,1.24,1.28,1.42,1.78a1.41,1.41,0,0,1-2.09,1.64,59.69,59.69,0,0,1-5.32-3.26,57.54,57.54,0,0,0-7.13-4.09c-3.23-1.35-6.23-.48-8.67,2.1a29.36,29.36,0,0,1-2.56,2.77c-1.41,1.15-3,2.11-4.46,3.15l-.35-.45a9.94,9.94,0,0,0,1.73-7.42,12.24,12.24,0,0,1-5.39,8.4c-.27.19-.52.92-.4,1a2.08,2.08,0,0,0,1.28.68,10.83,10.83,0,0,0,7.27-2.67c1.52-1.25,2.82-2.76,4.22-4.16s3.19-2.62,5.27-1.91a4.52,4.52,0,0,1,2.72,2.45,5.08,5.08,0,0,1-.92,3.9c-.58.71-2.27.77-3.4.62-.5-.07-1.09-1.33-1.18-2.11a2.24,2.24,0,0,1,1.92-2.45,8.31,8.31,0,0,0,1.08-.51c-2.39-.31-3.79.63-4.13,2.47a3.69,3.69,0,0,0,2.44,4.28,4.94,4.94,0,0,0,6.26-4.27c.08-.75,0-1.52,0-2.6C226,17,226.58,17.4,227.14,17.81Zm-76.38-.7a2.3,2.3,0,0,1,2,2.77,3.13,3.13,0,0,1-1.66,2,2.82,2.82,0,0,1-3.45-1.23,4.17,4.17,0,0,1,.15-4.71,4.05,4.05,0,0,1,5.08-.95,17.36,17.36,0,0,1,3.77,3.25c2.71,2.88,5.73,5.11,9.87,5.22a4.3,4.3,0,0,0,1.54-.58c-.28-.48-.44-1.1-.84-1.41A10.79,10.79,0,0,1,162.6,14a2.51,2.51,0,0,0-.3-.7l-.56.1a30.73,30.73,0,0,0,.61,3.86,35.55,35.55,0,0,0,1.55,3.81,14.82,14.82,0,0,1-6.43-4.8c-3.49-4-7-4.75-11.68-2.31a52.65,52.65,0,0,0-5.1,3.35c-1.43,1-2.81,2.05-4.3,2.92-.93.54-2.22,1-2.84-.27-.29-.57.33-1.59.53-2.39-1.32-.16-2.24.65-2.05,2.23.26,2.13,1.77,3.3,3.8,2.56a23.94,23.94,0,0,0,4.68-2.56c1.53-1,2.94-2.14,4.59-3.36,0,1,0,1.6,0,2.2a4.81,4.81,0,0,0,5.33,4.82,3.5,3.5,0,0,0,3.46-3.95c-.13-2.05-1.52-3.14-3.9-2.75A4.3,4.3,0,0,0,150.76,17.11Z"/></g></g></svg>