<svg xmlns="http://www.w3.org/2000/svg" viewBox="0 0 373.17 18.82"><title>24</title><g id="Layer_2" data-name="Layer 2"><g id="Layer_1-2" data-name="Layer 1"><path d="M184.61,13c-3.13-.14-6.27-.15-9.38-.46A23.16,23.16,0,0,1,163.31,8C160.25,5.67,156.47,4.37,153,2.6A9.08,9.08,0,0,1,162.29.49a50,50,0,0,1,9,4.48c2.11,1.19,4,2.71,6.37,3.69L172.88.93c5.37-.09,8.91,2.45,11.55,6.6,2.11,3.31,2.17,3.3,4.3,0,2.61-4,6.07-6.65,11.65-6.58l-5.92,8.83c2.61-1.71,4.92-3.4,7.4-4.8a51.32,51.32,0,0,1,9-4.47A8.94,8.94,0,0,1,220,2.37c-4.16,2.44-8.32,5-12.58,7.34-4.93,2.75-10.34,3.29-15.88,3a12.65,12.65,0,0,0-2.68,0c4.66,2.52,9.58,2.07,14.3.64,6.48-2,12.81-4.45,19.18-6.77,6-2.19,12-4.45,18.62-2.84a11.7,11.7,0,0,1,7.79,5.72C241.45,5,235.1,7.78,228.82,10.62s-12.28,6.77-19.42,7.75-13.92.13-20.13-4c-1.34-.88-3.15-1-4.74-1.53Zm0,0a16,16,0,0,1-11.79,1c-8-2.37-15.8-5.26-23.67-8C143.57,4.06,138,2.28,132,3.86a10.56,10.56,0,0,0-7.19,5.48c5.94-3.52,11.11-2.22,16.16-.21,3.34,1.33,6.5,3.12,9.78,4.61a69.21,69.21,0,0,0,8,3.36c8.08,2.53,16.05,2.52,23.63-1.77a10.8,10.8,0,0,0,2.24-2.45Zm-175-1.08a32.14,32.14,0,0,1,8.52-1.11q47.52-.1,95-.06a29.85,29.85,0,0,0,3.25-.34l-.09-1.06H58c-13.93,0-27.86.13-41.78-.08C12,9.17,7.18,9.66,5,4.33L0,10.14l4.51,5.13C6.44,13.93,7.85,12.37,9.57,11.89Zm247.36-1.13h4.54q46.77,0,93.54,0a39.88,39.88,0,0,1,7.07.62c2.61.47,5.26,1.18,5.83,4.77l5.26-6L368.68,5c-2,1.32-3.52,2.85-5.34,3.41A25.35,25.35,0,0,1,356,9.3q-47.38.07-94.77,0c-1.45,0-2.9.15-4.35.23Z"/></g></g></svg>