<svg xmlns="http://www.w3.org/2000/svg" viewBox="0 0 398.84 38.98"><title>25</title><g id="Layer_2" data-name="Layer 2"><g id="Layer_1-2" data-name="Layer 1"><path d="M28.31,31.47,41.17,20.19h-34l-.89,5.89L0,17.69l6.38-4.6c.35,2,.58,3.29.83,4.71H41.15L29.39,7.26l.52-.88a11,11,0,0,1,2.55,1c2,1.46,4.22,2.77,5.7,4.66,6,7.59,14,5.65,22.52,5.33l-17-16.17L44.59.13c1.63,1.19,3.34,2.28,4.87,3.59,4.67,4,9.21,8.18,13.95,12.11a7.38,7.38,0,0,0,4.31,1.68q62,.27,124.07.34c.64,0,1.28-.08,1.75-.11L188.32,10c3.32,1.95,6.65,5.19,10.4,5.79,4.71.74,7.44-3.62,9.44-7.77l1.22.89-5.49,9h12.67q56.1,0,112.2.11a8.92,8.92,0,0,0,6.88-2.58c4.44-4.26,9.19-8.2,13.87-12.21,1.39-1.19,3-2.17,4.46-3.24l.9,1.05L337.43,17.72c8.29.12,16.16,2.22,22.33-5.09,2.25-2.67,5.5-4.49,8.3-6.69.35.42.7.85,1.06,1.27L357.3,17.64h33.83l1-4.54L398.84,18l-6.48,8c-.47-2.24-.78-3.73-1.13-5.43H357.89L370,31.46l-1,1.21c-3-2.36-6.39-4.41-9-7.15-3.91-4.1-8.32-5.81-13.9-5.11-2.43.3-4.92.05-8.67.05L355.82,38l-.69.95a37.05,37.05,0,0,1-4.68-3c-5.35-4.7-10.52-9.58-15.91-14.22a6.55,6.55,0,0,0-4-1.19q-55.08-.15-110.14-.18H204.74l4.32,7.85c-3.4-2.23-6.57-5.52-10.32-6.47-4.74-1.21-7.21,3.41-10.47,6.35l4.28-7.66c-.81,0-1.69-.11-2.57-.12q-60.39-.2-120.79-.41a8,8,0,0,0-6.33,2.65c-5.34,5.28-11.21,10-16.92,14.93a14.45,14.45,0,0,1-2.69,1.45l-.69-.84,19-18.1c-5.55,0-10.05-.3-14.48.14-2,.2-4,1.66-5.68,2.95-3,2.31-5.82,5-8.81,7.39a23.49,23.49,0,0,1-3.58,2Z"/></g></g></svg>