<svg xmlns="http://www.w3.org/2000/svg" viewBox="0 0 421.87 59.03"><title>26</title><g id="Layer_2" data-name="Layer 2"><g id="Layer_1-2" data-name="Layer 1"><path d="M398.75,31.91c7.39.85,12.58,3.83,17.25,9.83-7.3.32-13.21-.58-17.76-5.31-2.24-2.32-3.9-2.32-6.62-.89-13.09,6.92-27.36,8.42-41.82,8.17-9.53-.16-19-1.17-28.91-1.82,4.32,4.44,7.55,9.3,7.83,16.24-6.47-3.23-10.55-7.57-12.4-14.08-.37-1.33-1.93-3.12-3.13-3.29-17.15-2.38-34.37-3.45-51.59-1C245.83,42,230.29,45.2,217,54.88c-1.95,1.42-3.78,4.12-5.7,4.15s-3.74-2.65-5.68-4.06c-11.49-8.38-24.82-11.82-38.51-14.27-19.36-3.48-38.73-2.52-58.08,0-1.1.15-2.54,1.85-2.86,3.07-1.72,6.71-6,11.06-12.53,14.7.4-7.2,3.39-12.27,8-16.62-9.94.66-19.6,1.61-29.27,1.87-14.52.39-28.67-1.72-41.79-8.4-2.8-1.42-4.54-1-6.65,1.21C20,40.73,12.6,42.66,7.51,41.05c3.86-5.46,9.2-8,16.21-9.18L19,28.06a47.25,47.25,0,0,1-14-18A4.69,4.69,0,0,0,2.92,7.92C.12,6.61-.78,4.59.72,2,2-.32,4.32-.56,6.37,1c2.57,1.9,2.16,4.14.13,6.28l-1,1.07c10.78,20.92,29,30.21,52.53,33.3-5.42-5.26-8.42-10.67-8.76-18.13,8,4.09,11.46,10.38,12.64,19.24,11.42-.8,22.63-1.18,33.74-2.47,19.56-2.27,39-6.11,58.85-3.83a8.67,8.67,0,0,0,1.65-.12c-5.64-6.3-7.74-11.08-7.47-17.3,6.19,3.54,10.35,8.25,11.47,15.17.35,2.15,1.12,2.81,3.23,3.27,8.94,2,17.88,4,26.68,6.44a49.06,49.06,0,0,1,21,12.17c13.44-12.46,30.7-15.33,47.76-18.61,2.34-.45,3.13-1.15,3.5-3.45,1.08-6.81,5.25-11.39,11.69-15.23a22.82,22.82,0,0,1-7.86,17.29,9.43,9.43,0,0,0,2.11.35c19.31-2.27,38.21,1.51,57.23,3.64,11.51,1.28,23.09,2,34.74,2.9,1.5-8.89,5.13-15.16,13-19.73-.78,7.49-3,13.12-8.21,17.64,14.75.09,41.79-9.85,51.69-32.51-.58-.81-1.77-1.73-1.69-2.52.17-1.79.51-4.45,1.66-5s4.29.3,5,1.46-.35,3.62-1.23,5.18c-1,1.73-3.07,2.86-3.9,4.62-3.21,6.74-8.2,11.9-13.82,16.59C401.59,29.58,400.46,30.5,398.75,31.91Z"/></g></g></svg>