<svg xmlns="http://www.w3.org/2000/svg" viewBox="0 0 448.13 46.9"><title>28</title><g id="Layer_2" data-name="Layer 2"><g id="Layer_1-2" data-name="Layer 1"><path d="M0,28.55a52.56,52.56,0,0,1,6-5.32c.65-.44,2.7.25,3.48,1,4,4.06,8.76,4.84,14.22,4.6,7.88-.35,15.8-.09,23.88-.09l-3.7-7.56,1.66-1c1.31,2,3,3.79,3.81,5.95s1.84,2.66,3.9,2.59c3.83-.13,7.66,0,11.93,0-2.3-3-4.68-5.57-6.34-8.53-.92-1.64-.65-4-.92-6,1.82,1.12,4.3,1.84,5.33,3.46C65.32,21,66.63,24.8,68.52,29H214l.05,1.71c-5.9.06-11.81.14-17.71.16s-12,0-18.08,0H159.72l-18.5,0-18.08,0L104.7,31q-9,0-18.08,0H68.68c-2.22,4.46-4,8.59-6.33,12.41-.74,1.21-2.82,1.61-4.29,2.38,0-1.62-.6-3.59.11-4.8,1.95-3.34,4.45-6.36,7-10-4.52,0-8.84-.15-13.14.12-.87.06-1.84,1.62-2.42,2.67C48.42,36.06,48,39,43.86,39l4.2-7.63A22.69,22.69,0,0,0,45.33,31c-8.22-.06-16.44.13-24.65-.19A13.22,13.22,0,0,0,11,34.09c-4.37,3.69-4.48,3.56-8.53-.66,5.68,2,7.81,1.28,11.49-4.2-1.13-.92-2.27-1.87-3.44-2.77s-2.4-1.75-3.6-2.62c-1.31.87-2.44,1.61-3.56,2.37S1.11,27.77,0,28.55Zm435.05.77c2-1.56,3.9-3.26,6-4.63.65-.41,2-.1,2.84.25a40.05,40.05,0,0,1,4.22,2.28c-5.23-5.36-5.34-5.51-10.83-1.18a12.13,12.13,0,0,1-8.64,2.79c-3.82-.18-7.66.06-11.49.07-5.22,0-10.43,0-15.69,0l3.71-7.8-1.78-1c-1.27,2.08-2.49,4.19-3.85,6.2-.6.9-1.47,2.23-2.28,2.27-4.31.23-8.64.11-13.64.11,3.84-4.73,8.94-8.16,7.47-16-2.17,1.92-3.85,2.91-4.81,4.37a23.61,23.61,0,0,0-3.58,7.32c-.86,3.75-2.82,4.61-6.36,4.37-4.77-.32-9.58-.1-14.37-.1q-61,0-122,0c-1.58,0-3.15.3-4.73.45l0,1.35a41.33,41.33,0,0,0,4.13.44c7.93,0,15.86-.06,23.79-.05q57.11.08,114.22.1c2.81,0,4,.77,4.88,3.53a39.64,39.64,0,0,0,4.58,9.1c.78,1.24,2.5,1.89,4.54,3.34.94-7.73-4.19-11-8-15.91,4.52,0,8.3.14,12.06,0,2.31-.11,3.36.73,4.1,2.9.82,2.4,1.46,5.28,6.12,6l-4.87-8.9c8.72,0,17.16.26,25.58-.09,5.06-.21,9.38.68,13,4.34,2.77,2.79,4.77,1.69,6.22-1.46C441.53,36,439.76,35.27,435.05,29.32ZM224.76,17.71C228.47,12.49,228.45,6,224.51,0,220.4,6,220.56,13,224.76,17.71Zm6.94,10.91a7,7,0,0,0-7.11-7.36,7.22,7.22,0,0,0-7.07,7.07,7.09,7.09,0,0,0,14.18.29Zm-7,4.91a4.84,4.84,0,0,1-5.19-5.11c-.08-3.21,2-5,5.1-5.22,2.65-.23,5.22,2.43,5.22,5.59C229.4,31.37,228,33.55,224.68,33.53Zm5.49-14.08c5.58-1,8.57-4,9.5-9.81C233.87,11,230.75,14.27,230.17,19.45ZM209.53,9.33c.87,5.75,4,9,10.24,10.33C218,14.18,215.18,10.5,209.53,9.33ZM446.25,29.84c-4.13-3.55-4.13-3.55-7.48.36l3.82,2.58Zm-443,.21c2.44,3.24,4.81,2.63,7.11-.17C6.47,26.18,6.27,26.19,3.23,30.05Z"/></g></g></svg>