<svg xmlns="http://www.w3.org/2000/svg" viewBox="0 0 443.01 39.07"><title>29</title><g id="Layer_2" data-name="Layer 2"><g id="Layer_1-2" data-name="Layer 1"><path d="M32.68,19.62c1.69-5.18,5.26-7.85,10.68-8.92l-8.28,7.89.74,1H142.05c2.41-11,10-16.95,20.8-19,8-1.52,15.82,0,23.42,2.55,14.47,4.88,20.66,9.27,34.94,24.39,6.16-5.33,11.88-11.22,18.51-15.82C250.22,4.44,262.05.14,275.06.16c13.88,0,22.28,6.25,26.65,19.52H407.33c-.68-4.71-4.52-6.06-7.63-8.19,4.23-.66,7.6,1.8,10.95,8.06,1.87-4.85,5-8,10.45-9l-8,7.83.73,1.47c7.3,0,14.59.06,21.88-.08.9,0,1.74-1.5,2.69-1.61,1.32-.15,3.25-.09,3.95.71a4.13,4.13,0,0,1,.22,4A4.12,4.12,0,0,1,438.78,24c-8.15-3.73-16.57-.66-24.79-1.89-.28.46-.57.91-.86,1.37,2.2,2.35,4.4,4.7,6.67,7.14-4.82-.56-7.28-3.85-9.19-8.65-1.76,5.38-5,8.33-9.84,9.41l7.51-7.7c-.29-.39-.57-.79-.85-1.18H301.92c-.72,6.09-3.09,11.17-8.39,14.42-6.43,3.95-13.38,2.32-15.5-3.72-.56-1.6-.23-3.51-.3-5.28l1-.16a7.39,7.39,0,0,1,.68,1.57c1.14,7,5.8,9.28,12.14,6.05,7-3.56,10-13.14,6.48-20.64-3.75-7.89-10.71-11.17-18.8-12-15.77-1.72-29.36,4-41.37,13.65-5.71,4.58-10.73,10-16.4,15.4-1.07-1.17-2.27-2.41-3.41-3.71-10.86-12.27-23.51-21.68-40-24.82-9.43-1.79-18.57-1.35-26.76,4.42a16.56,16.56,0,0,0-3.05,24.82c3,3.31,6.66,4.84,11.06,3.86s4.87-4.67,5.24-8.49c2.8,3.26,1.29,8-3,10.16-4.57,2.36-11.76.61-15.36-4.44-2.22-3.12-3.46-6.95-5.43-11.07h-105l-.91.87c2,2.39,4,4.79,6.24,7.49-4.68-1.13-7.14-4.07-8.57-8.95-2,4.79-4.61,8.31-9.68,9L30,23.56l-.82-1.19c-7.2,0-14.41,0-21.61.06-.8,0-1.58,1.2-2.38,1.22-1.6.05-3.5.08-4.72-.72-.63-.43-.6-3.47,0-3.85,1.23-.76,3.12-.72,4.68-.55s3.19,1.29,4.8,1.33c6.39.17,12.78.07,19.18.07L30,18.65l-7.29-7.47C26.44,10.89,28.77,12.72,32.68,19.62ZM268.33,20c-.1-1.23-1.92-3.19-3-3.22s-3.11,1.78-3.28,3,1.47,2.63,3,5.09C266.73,22.53,268.43,21.2,268.33,20Zm-86.72-.18c-.13-1.2-2.07-2.2-3.21-3.3-1.07,1.14-2.88,2.2-3,3.42s1.52,2.55,3.09,4.88C180.08,22.45,181.74,21,181.61,19.83Z"/></g></g></svg>