<svg xmlns="http://www.w3.org/2000/svg" viewBox="0 0 431.35 45.87"><title>30</title><g id="Layer_2" data-name="Layer 2"><g id="Layer_1-2" data-name="Layer 1"><path d="M251.12,23.77h12.49q54.64.07,109.31.22c3.14,0,5-.79,6.83-3.63a61.16,61.16,0,0,1,9.67-10.94c1.82-1.71,4.91-3,7-.41s.32,5.17-1.68,6.85c-3.32,2.78-7,5.12-10.88,7.9,1.34.07,2.7.2,4.06.21,10.27.08,20.54.17,30.81.13a4.61,4.61,0,0,0,2.93-1.53c2.85-3.15,5.67-3.79,8.05-1.61a5.28,5.28,0,0,1,0,7.68c-2.51,2.31-5.28,1.76-8-1.42a4.11,4.11,0,0,0-2.58-1.52c-11.59-.1-23.2-.06-34.8.71,3,2,6.25,3.67,9,6,2.45,2.07,5.6,5.09,3,8.29s-6.12.66-8.28-1.43c-3.31-3.19-5.87-7.14-9-10.54-1.1-1.2-2.92-2.48-4.42-2.48Q313,26,251.31,26.07a10,10,0,0,0-4.84,1.58c-6.33,3.78-15.1,3.42-20.88-1.13a22.73,22.73,0,0,1-2.54-2.89c5,1.66,9.29,3.75,13.83,4.48,7.47,1.19,14.4-5.18,13.92-12.06a6.74,6.74,0,0,0-6.32-6.38c-2.85-.18-5.16,1-5.2,3.9,0,1.72,1.46,3.46,2.32,5.28-1.85.27-3.68-.71-4.18-3.67a6.27,6.27,0,0,1,5.1-7.25,8.83,8.83,0,0,1,10.19,9.38A50.13,50.13,0,0,1,251.12,23.77Zm-75,0c-39,.05-78.06.06-117.09.24-3.64,0-5.65-.91-7.74-4.16C48.62,15.72,44.79,12.23,41,9c-1.22-1-4-.22-6-.26.32,2.13,0,4.73,1.13,6.28,1.61,2.22,4.19,3.8,6.51,5.44a46.68,46.68,0,0,0,5.11,2.8c-11.87.79-23.51.84-35.14.7-1,0-2.25-1.11-3-2C7.3,19.35,4,18.87,1.65,21a5.28,5.28,0,0,0-.27,7.39c2.21,2.27,5.6,1.95,8-.46a6.4,6.4,0,0,1,3.81-2.06c10.27-.08,20.55.07,30.82.18a18.68,18.68,0,0,1,2.47.3C43,29,39.26,31.3,36.32,34.39,35,35.77,35.36,38.74,35,41c2.19-.12,5.13.61,6.43-.53A73.12,73.12,0,0,0,51.78,29.11C53.34,27,54.6,26,57.27,26c40.67.06,81.34,0,122,0a12.33,12.33,0,0,1,5.66,1.63c6.79,3.72,13.41,3.28,19.89-.51,1.35-.79,2.28-2.29,3.41-3.46-3.09.7-5.49,2.22-8.1,3.2-5.73,2.15-11.31,2.13-16.08-2.39-3.39-3.2-4.82-8.65-2.35-11.46a11.13,11.13,0,0,1,6.9-3.1c1.14-.1,3.39,2.51,3.56,4.06s-1.7,3.2-2.63,4.74c2.66.35,4.29-1.16,4.47-4.33a6.17,6.17,0,0,0-5.49-6.57,8.9,8.9,0,0,0-9.82,10.58,44.91,44.91,0,0,0,1.69,5.3ZM215.75,0c-3.83,0-6.87,4-6,9a44.89,44.89,0,0,0,3.62,11.15,6.14,6.14,0,0,1,.09,5.58,54.89,54.89,0,0,0-3.68,13.19,6.22,6.22,0,0,0,6,7,6,6,0,0,0,6.15-6.72A38.81,38.81,0,0,0,218.27,26c-1.28-2.66-1.08-4.16.18-6.52A109.45,109.45,0,0,0,222.9,8.73C222.17,3.4,219.57,0,215.75,0Z"/></g></g></svg>