<svg xmlns="http://www.w3.org/2000/svg" viewBox="0 0 420.08 31.2"><title>31</title><g id="Layer_2" data-name="Layer 2"><g id="Layer_1-2" data-name="Layer 1"><path d="M31.54,17l-.3,4.78c-3.2-1.6-5.94-3.59-9-4.33s-6.22-.15-9.7-.15l-.81,4.28L0,15.67,11.78,9.52c.24,2,.42,3.38.59,4.74,7.07,2.16,12.68-1.66,18.77-4.81l.43,5.18H64.44q62.86-.08,125.73-.12c2.23,0,3.84-.24,5.5-2.36,1.5-1.91,4.51-2.62,7.58-4.25,1-3.2,2-8.07,7.63-7.9,4.5.15,5.69,4.05,6.54,8,4.23.24,8.43.69,9,6.46H388.74c.11-1.53.2-2.87.34-4.86,6,2.89,11.57,7.05,18.69,4.65l.4-4.77,11.91,6.18-11.83,6.14c-.22-1.81-.37-3.07-.51-4.28-6.85-2.07-12.58.94-18.53,4.11-.2-1.67-.34-2.85-.55-4.55h-4.74c-24.1-.14-48.19-.37-72.28-.38-27.66,0-55.32.14-83,.33-1.44,0-2.9.95-4.29,1.59-2.31,1.06-4.58,2.22-7.42,3.61-.91,3.4-.08,9.06-6.73,9-3.74,0-5.18-2.34-5.79-7.94-3.42-2-6.31-3.92-9.38-5.45a10.63,10.63,0,0,0-4.64-.86q-65.32,0-130.66.06ZM206,20.08c.31,3.55-1,8.71,4,8.93,6.37.27,3.81-5.92,5-9.21,2.11-.52,4.4-.55,6-1.64s2.84-3.12,2.8-4.73c0-1.17-2.46-3.34-3.71-3.26-4.14.26-5.19-1.9-6.1-5.3-1.05-3.87-4.7-4.38-7-1.05-1.27,1.84-1.78,4.19-2.73,6.54-2.32,1.52-7.75-.43-7.58,4.48C196.84,20.3,202.41,18.94,206,20.08Z"/></g></g></svg>