<svg xmlns="http://www.w3.org/2000/svg" viewBox="0 0 448.17 37.28"><title>32</title><g id="Layer_2" data-name="Layer 2"><g id="Layer_1-2" data-name="Layer 1"><path d="M110.87,17.17c-1.85-1-3.79-1.91-5.53-3.08a47.29,47.29,0,0,1-6.78-5.21c-2-2-2.69-4.5-.54-7s5.15-2.46,7-.62c3.43,3.4,6.82,7.18,8.95,11.44s4.9,5.42,9.52,5.38c24.78-.24,49.56-.11,74.34-.07,1.64,0,3.29.27,4.94.41l.07,1.32a27.94,27.94,0,0,1-4.3.65c-25.46,0-50.93.11-76.39-.09-3.92,0-6.26.87-7.92,4.58a44.7,44.7,0,0,1-5.75,8.93c-1.11,1.42-2.89,2.95-4.54,3.18-2,.26-4.82-.2-6-1.51-1-1.08-.59-4.15.25-5.79.93-1.8,3-3.15,4.71-4.39,2.11-1.48,4.45-2.64,7.46-4.39a35.21,35.21,0,0,0-3.66-.44q-46.83-.12-93.64-.11c-1.15,0-2.24,1.39-3.44,2-1.92.92-4.32,2.79-5.76,2.25C2.08,23.93,0,21.23,0,19.36a7.26,7.26,0,0,1,3.55-5.59c1.43-.65,4,1.07,6,2,1.41.64,2.65,2.37,4,2.37,31.76.08,63.51,0,95.27-.06.62,0,1.23-.1,1.85-.15Zm227.36,3.4c1-.09,2.07-.27,3.11-.27q46.62,0,93.25.14c1.26,0,2.45,1.5,3.77,2,2.11.87,4.58,2.51,6.37,2,1.61-.46,3.53-3.45,3.44-5.22a7.49,7.49,0,0,0-3.74-5.52c-1.45-.62-4.86.69-5.77,2.16-1.42,2.28-3,2.32-5,2.32q-46,0-92,0h-4.49l-.11-1.1c1.64-.93,3.34-1.79,4.91-2.83a54.45,54.45,0,0,0,7-5c2.37-2.18,3-5.12.78-7.71-2.1-2.44-4.87-1.68-7,0A29.91,29.91,0,0,0,337,7.47c-1.83,2.53-3,5.53-4.81,8.1a5.58,5.58,0,0,1-3.62,2.33c-7,.27-14,.26-20.94.25-19.71,0-39.43-.09-59.15-.1a20.23,20.23,0,0,0-3.15.5l0,1.34a33.71,33.71,0,0,0,4.44.57c25.59,0,51.19.08,76.79-.1,3.46,0,5.41.84,7,4a35.77,35.77,0,0,0,6.51,9.84c1.87,1.84,5.12,2.59,7.89,3.05.82.13,3.21-2.79,2.92-3.62a18.2,18.2,0,0,0-4.39-7.29c-2.36-2.15-5.56-3.38-8.39-5ZM221,16.88c.86-.58,1.82-1.71,2.56-1.59a4.12,4.12,0,0,1,2.68,2.07,3,3,0,0,1-.87,2.81c-1.14.72-3.18,1.51-4,1a6.83,6.83,0,0,1-2.85-4.37c-.13-1.36,1.23-3.9,2.3-4.11,2.19-.44,5.15-.39,6.81.81a7,7,0,0,1,2.1,6c-.48,2-2.7,3.75-4.53,5.1-1,.72-2.73.36-4.46.52,3.95,1.65,7.63.43,9.67-2.94a8.12,8.12,0,0,0-1.9-10.69c-3-2.29-7.92-2.28-10.21.16S215.3,17,217.2,19.48A10.13,10.13,0,0,0,223.44,23a4,4,0,0,0,4.39-4.71c-.28-1.74-2.12-3.5-3.7-4.62-.59-.41-3,.65-3.56,1.61s.25,2.7.74,4c.09.22,1.66.07,2.41-.24.3-.13.22-1.17.31-1.79l-2.34.28Z"/></g></g></svg>