<svg xmlns="http://www.w3.org/2000/svg" viewBox="0 0 441.82 30.03"><title>33</title><g id="Layer_2" data-name="Layer 2"><g id="Layer_1-2" data-name="Layer 1"><path d="M203.06,18.75c-9.53,0-19.06,0-28.59,0-5.75,0-11.51-.07-17.25.25-2.07.11-4,1.44-6.12,1.91-1.35.3-3.39.65-4.14-.06-4-3.78-8.58-1.09-12.82-1.64-.49-.07-1.17,1.29-1.75,2-2.16,2.64-6,3-7.68.22-1.55-2.58-3.5-2.46-5.81-2.4-12.72.28-25.45.44-38.17.81-4.91.14-8.27-.93-10.66-6.07-4.51-9.67-16.73-11.67-26.93-5C38,12.19,33.13,16,28,19.38c-5.44,3.62-11.41,5.19-18,3.69A12.51,12.51,0,0,1,.1,12.4C-.49,7.1,1.64,3.09,6.15,1a9.2,9.2,0,0,1,9.71,1c3,2.06,3.89,5.19,3.48,8.69-.34,2.83-1.82,4.29-6.06,3.65,4.79-1.64,5.32-4.66,4-7.73A7.51,7.51,0,0,0,9.42,1.8,8,8,0,0,0,1.88,8.29C.25,14.73,5.27,20.87,12.52,21.38c6.06.42,11.23-2.07,16.07-5.29S37.7,8.92,42.78,6.37a35.28,35.28,0,0,1,14.28-4c7.49-.21,12.62,4.59,16.09,11,1.16,2.12,2.44,3.28,5.06,3.25,14.1-.12,28.19,0,42.28-.15a9,9,0,0,0,4.61-1.77c2.24-1.56,4.3-1.63,6.4-.05,4.79,3.58,10,1.77,15.07,1.21a26.86,26.86,0,0,1,4.83,0c1.44.11,2.86.72,4.29.73,14.37.1,28.75.11,43.12.17,1.41,0,2.82.13,4.23.2C203.05,17.53,203.05,18.14,203.06,18.75ZM424.77,5.81a8.35,8.35,0,0,1,10-3.48c6.2,2.58,7.47,11,2.26,15.7a13.23,13.23,0,0,1-15.69,2c-7.22-3.77-13.89-8.6-20.79-13-13.36-8.5-24.09-6.14-32.41,7a5.42,5.42,0,0,1-3.7,2.41c-14.79.17-29.64.86-44.33-.32-4.57-.37-8.26-2-13.24.06-3.54,1.47-8.58-.67-13-1.16a8.93,8.93,0,0,0-2.42.09c-2.75.45-5.48,1.36-8.23,1.4-13.14.19-26.29.13-39.43.21a44.35,44.35,0,0,0-4.42.43A5.53,5.53,0,0,0,243,18.34c13.83.21,27.66.31,41.48.68,2,.05,4,1.37,6.06,1.94,1.13.32,3,.87,3.44.36,3.34-3.67,7.6-2.07,11.48-2.18a5.87,5.87,0,0,1,3.8,2c2.36,2.56,6,3.18,7.7.46,1.57-2.54,3.5-2.53,5.85-2.49,13.27.27,26.55.47,39.83.74,3.87.08,6.52-1,8.38-4.95,4-8.56,11.45-12.14,20.35-8.89,6.26,2.3,11.89,6.49,17.56,10.21,5.3,3.47,10.43,6.83,17.05,7.4,9.06.78,16.46-5.58,15.76-14A10.42,10.42,0,0,0,431.69.08c-5.2,0-8.94,3.51-9.36,8.91-.29,3.79,1.37,5.55,4.95,5.24C423.76,11.62,423,9.08,424.77,5.81Zm-204.92,1c-3.09-4.39-7.51-5.81-11.17-3.58-3.31,2-4,5.61-1.23,10.54a159.61,159.61,0,0,0,8.67,13.41c2.48,3.57,5.15,3.81,8,.39a95.92,95.92,0,0,0,9-12.66,13.63,13.63,0,0,0,1.38-7.08c-.15-5.14-4.8-7.26-9-4.26-1.66,1.18-3.12,2.64-4.91,4.19C220.52,7.69,220.16,7.28,219.85,6.84Zm5.23.28c1.47-1.25,3.68-1.64,5.56-2.41.57,1.92,1.88,4,1.6,5.74-1.06,6.8-5.66,11.68-10.13,16.46-.57.61-3.41.3-4-.48a144.23,144.23,0,0,1-9-14.1c-1.34-2.42-2.35-5.57,1.09-7.51,2.69-1.51,6.4.1,8.21,3.36.76,1.38,1.39,2.83,2.41,4.93C222.47,10.7,223.44,8.52,225.08,7.12Z"/></g></g></svg>