<svg xmlns="http://www.w3.org/2000/svg" viewBox="0 0 429.43 35.07"><title>34</title><g id="Layer_2" data-name="Layer 2"><g id="Layer_1-2" data-name="Layer 1"><path d="M405.48,6.31c-.94,2.86-1.89,5.71-2.83,8.56l1.6.86a14,14,0,0,0,2.15-2.9c3-7.37,8.5-11.66,17.32-12.83C418,4.44,411,7.07,409.93,15.15c3.13.3,5.82.86,8.1-2.26,1.85-2.52,4.9-2.85,7.81-1.3a6.28,6.28,0,0,1,3.44,7.22,6.23,6.23,0,0,1-5.54,5.29c-3.27.52-5.57-.87-7.1-3.68a16.23,16.23,0,0,1-.81-2.26h-6.18c1,9.19,8.26,12.59,15,16.87-8.53.63-16.88-6-18.86-14.44a12.68,12.68,0,0,0-1.52-2.85l-2,.87c1.44,4.51,2.89,9,4.36,13.63-4.19-3.6-5.22-8.68-6-13.68H29.77c-2.15,5-4,9.31-5.82,13.6l-1-.4Q25,25.7,27.06,19.65l-1.58-1c-.71.95-1.76,1.79-2.08,2.85-2.47,8-10.84,14.29-18.69,13.37,6.45-3.86,13-7.19,14.85-15.49-2.8-.19-5.2-1.65-7.1,1.47a6.36,6.36,0,0,1-8.16,2.9C1.05,22.6-.3,20,.06,16.65a6.09,6.09,0,0,1,5.55-5.74c3.5-.5,6.07,1.12,7.4,4.49.2.51.46,1,.67,1.44h5.66C19.25,7.64,12,4.6,5.84.38,13.51.27,21.06,6.36,23.35,14a13,13,0,0,0,1.94,3L27,16.2q-1.56-5.07-3.11-10.12l.83-.45c1.19,2.51,3.07,4.93,3.4,7.54.41,3.3,1.87,3.53,4.55,3.49,28.07-.4,56.15-.92,84.22-1q139.49-.25,279-.24h4.05l4.68-9.83C404.88,5.85,405.18,6.08,405.48,6.31Z"/></g></g></svg>