<svg xmlns="http://www.w3.org/2000/svg" viewBox="0 0 406.06 66.9"><title>35</title><g id="Layer_2" data-name="Layer 2"><g id="Layer_1-2" data-name="Layer 1"><path d="M203.08,43.32c-12.71-25.59-11-32.75-8-43.32.78.91,1.71,1.52,1.94,2.33a152.43,152.43,0,0,1,4.1,15.46c.58,3.25-.28,6.72,0,10.05s1.12,6.6,1.83,10.5c1.77-6.78,2.77-13,2.15-19.49-.66-6.81,1.6-13,5.54-18.81C214.61,8.75,215.54,19.1,203.08,43.32Zm-184,8.29c1,.41,1.88.91,2.86,1.23,5,1.64,9.76.45,14-2,10.76-6.36,21.27-6.61,32.22-.42a20.31,20.31,0,0,0,20.7.09c10.82-6.13,21.14-5.94,31.92.1,6.07,3.4,12.67,3.21,19.22.45,7.25-3.05,14.23-7.54,22.87-5.17-2-2.47-4.81-2.56-7.17-2a77.2,77.2,0,0,0-14.3,4.77c-7.3,3.43-14.4,3.68-21.34-.23-10.2-5.76-20.2-5.83-30.4-.11-7.35,4.12-14.75,3.8-22.24,0a58.27,58.27,0,0,0-10.69-4.07c-6.41-1.78-12.21.7-17.83,3.38C33,50.43,27.19,53.1,20.47,50.84c-.34-.12-.79.1-1.19.16Zm224.27-5.27c7.83-2.67,14.31,1.14,21,3.93.62.26,1.25.51,1.86.78a21.46,21.46,0,0,0,17.68.16c3.31-1.37,6.63-2.75,9.93-4.17a18.55,18.55,0,0,1,15.08,0c3.1,1.3,6.21,2.6,9.31,3.93a21.85,21.85,0,0,0,18.6-.09c1.94-.9,4-1.57,5.88-2.53a23.09,23.09,0,0,1,22,0,77.64,77.64,0,0,0,12.53,4.84c3.65,1.1,7.58-.13,9.43-2.63-6.86,2.69-13,.51-18.79-2.67-9.35-5.13-18.59-5.43-27.92-.21-8.36,4.67-16.67,4.69-25,0-9.09-5.11-18.21-5.06-27.28,0-8.24,4.63-16.32,4.44-24.74.13a50.29,50.29,0,0,0-12.77-4c-2.2-.45-4.67.47-7,.77Zm-37.78-3.29a.26.26,0,0,0,.24,0c3.7-2.45,7.29-5.11,11.13-7.33,4.66-2.68,9.57-4.93,14.3-7.5,2.51-1.36,4.85-3,7.27-4.54l-.27-.86a69.2,69.2,0,0,0-8.15.05c-8.09,1-13.07,7-18.56,12a85.24,85.24,0,0,0-6.44,7.42A4.74,4.74,0,0,0,205.57,43.05ZM182.25,32.16c6.36,3.71,14,5.34,18.82,11.56C195.7,33.33,179.55,18.66,167,23.56,172.54,26.7,177.44,29.36,182.25,32.16Zm-3.31,18.68c.85-.24,1.69-.54,2.55-.71,2.91-.56,5.42.14,7.06,2.73s2.27,5.41.56,8.26c-2.05,3.42-7.43,5.21-11.67,4-4.44-1.3-7.57-5.8-7.56-10.84a9.54,9.54,0,0,1,6.91-9.33c7.12-2,18.6,2.66,22.06,8.59a15.5,15.5,0,0,0-2.71,2.92c-.17.32,1,2,1.67,2,1.2.1,3.05-.18,3.52-1a4.28,4.28,0,0,0-.29-3.82c-5.17-7.29-12.38-10.89-21.29-10.89a11.16,11.16,0,0,0-11.53,10.09c-.66,5.94,3.3,12.12,8.74,13.66a12.87,12.87,0,0,0,12.54-3.9,8.79,8.79,0,0,0-1-11.64,6.65,6.65,0,0,0-9.5-.1Zm47.32-.62a6.84,6.84,0,0,0-9,1.18,8.55,8.55,0,0,0-.59,11.15C219.87,66.48,226.3,68,230.8,66c5-2.3,7.91-8.2,7-14.11a10.83,10.83,0,0,0-10.36-9c-9.19-.42-16.62,3.21-22.18,10.57-.4.53-1.12,1.35-1,1.7.57,1.25,1.23,2.8,2.31,3.37.71.37,2.57-.48,3.2-1.32.38-.51-.61-2-1-3.12a6,6,0,0,0-1.58,2.32,2.17,2.17,0,0,1-.85-.27,13.51,13.51,0,0,1,.31-2.09,1.33,1.33,0,0,1,.39-.54c5.31-6,11.84-9.31,19.93-8.86,5.6.32,9.34,4.35,9.39,9.59.05,5.62-4,10.73-9.2,11.23-4,.39-7.67-.72-10.05-4.25-1.87-2.77-1.19-5.58.45-8.24,2.1-3.41,5.41-3.07,8.71-2.77Zm-19.37-6.09c10.42-4.5,22.44-1.35,31.91-9C232,30.56,214.7,35.5,206.89,44.13Zm-7.84-.42c-8-6.79-16.88-11.05-27.6-10.38-1.33.08-2.62.8-4.51,1.42C176.8,42.82,188.92,39.6,199.05,43.71Zm-8.62-30.23c-.83-2.86-3-5.35-4.49-8-4.17,12.08-2.72,16,8.68,26.46C193.31,26,192.21,19.64,190.43,13.48Zm29.73-8c-1.53,2.67-3.64,5.18-4.45,8.06-1.74,6.17-2.81,12.53-4,18.33C223,21.35,224.49,17.9,221.13,6Zm6.17,44.65c-.29.45-.5,1.21-.86,1.29-3.55.83-4.59,2.51-3.06,5.74A55.85,55.85,0,0,0,226.08,63a62.32,62.32,0,0,0,6.57-5c1.89-1.88,1.34-4.14-.91-5.24-1.8-.88-3.65-1.65-5.48-2.47ZM179,50.88a22.81,22.81,0,0,1-3.19,1.36c-3.54.93-4.46,3.59-1.8,6.16a49.38,49.38,0,0,0,5.81,4.22c6.32-6.61,6-9.29-.88-11.78Zm-60.29-7.67c2.32,5,7.68,7.43,15,6.7C130.66,45,129,44.27,118.71,43.21ZM28.84,49.67c-3.4-5.84-8.93-6.52-14.82-6.3C16.28,48.47,22.69,51.23,28.84,49.67Zm310.79-6.45c-5.88-.21-11.52.49-14.94,6.51C331.46,50.9,337.63,48.1,339.63,43.22Zm52.2.25c-5.95-.63-11.21.64-14.92,6.54C384.88,50.58,390.29,48.05,391.83,43.47ZM351,47.3c3.36,5.83,9,6.33,15,6.29A13.11,13.11,0,0,0,351,47.3ZM0,53.07c10.37,1.65,11.73,1.5,16.54-2C10.13,48,3.14,48.89,0,53.07Zm406.06-.18C402.41,48.82,395,48,389.53,51.14,394.67,55.49,400.29,54.85,406.06,52.89ZM81.2,49.61c-3.38-6-9-6.53-15-6.48C68.8,48.33,74.94,51,81.2,49.61Zm191.1.14c6.69,1.18,12.55-1.41,15-6.4C281.25,43,275.72,43.88,272.3,49.75ZM92.94,53.39C98.78,54,104,52.83,107.57,47,100.21,46,94,48.9,92.94,53.39Zm51.79.18c9.49-.58,12-1.65,14.79-6.45C153,45.86,147.11,48.41,144.73,53.57Zm116.53-.12c-2.58-5.13-8.08-7.52-15-6.34C249.93,52.94,255.29,53.94,261.26,53.45Zm52.15-.11c-2.67-5-8.11-7.33-15-6.21C302.21,52.8,307.39,54.07,313.41,53.34Zm-272.94,0c6,.52,11.21-.6,14.68-6.29C48.17,46,42.16,48.62,40.47,53.38Z"/></g></g></svg>