<svg xmlns="http://www.w3.org/2000/svg" viewBox="0 0 456.56 38.69"><title>37</title><g id="Layer_2" data-name="Layer 2"><g id="Layer_1-2" data-name="Layer 1"><path d="M277.65,18.79H429.29v1H277.65Zm-251.43,1h152.7C174.77,17.56,28.63,17.8,26.22,19.77Zm211.2,10.51c-3.84-2.91-9-5.87-8-11,.85-4.29,4.65-8,7.39-12.36l-4.56-.46L227.82,0l-4.38,6.42-4.52.6c2.71,4.27,6.5,7.91,7.31,12.11,1,5.28-4.45,8.16-9,12.25l6,.77c1.55,2.19,3,4.18,4.66,6.54,1.61-2.57,2.9-4.62,4.05-6.47l5.38-.71Zm25.47-9.11c.55,1,1.09,2,1.63,2.94,1.08-.64,2.68-1.05,3.1-2s.28-3-.45-3.71c-1-1-3.15-1.81-4.23-1.35A7,7,0,0,0,259.45,21c-.94,2.88,1.11,5.95,3.93,6.8a8,8,0,0,0,9.46-4.32,7.68,7.68,0,0,0-1.28-8.14c-2.2-2.77-5.24-4.72-8.52-3.53-3.65,1.33-7,3.71-10.19,6-2.72,2-4.84,4.81-7.61,6.72-4.12,2.84-9.58,1.33-10.93-3.11a7.09,7.09,0,0,1,1.32-6c1.13-1.15,4-1.37,5.78-.94A3.23,3.23,0,0,1,242.6,20c-.78.62-2.23.57-3.35.48-.39,0-.69-1.13-1-1.73l3.58-1.09c-.93-.75-1.67-1.8-2.2-1.7-1,.18-2.45.91-2.58,1.63-.24,1.3-.11,3.52.68,4,1.39.81,3.93,1.37,5,.62,1.48-1.06,3-3.55,2.77-5.16-.28-1.83-2.27-4.43-3.91-4.77-2.4-.5-5.79-.05-7.57,1.43-1.63,1.35-2.55,4.72-2.25,7,.93,7.06,9.5,10,15.66,5.49,3.11-2.3,5.65-5.35,8.46-8,2.63-2.53,5.58-4.34,9.4-4a7,7,0,0,1,5.95,6c.16,2.62-2.17,5.66-4.93,5.76A6.34,6.34,0,0,1,262,24.18a3.78,3.78,0,0,1-.35-3.69c.63-.89,2.41-.95,3.7-1.38l.78,3.19-1.12.27-1-1.92Zm-48.46-3.28,2.87.8c-.44.67-.85,1.89-1.31,1.91-1.11,0-2.7-.12-3.28-.85-1.7-2.11-1-4.52,1.37-5.17,1.85-.51,4.95-.16,6,1.08a7.56,7.56,0,0,1,.87,6.4c-1.48,4-6.85,5.17-10.62,2.49-3-2.09-5.23-5.13-8.17-7.24-3.09-2.22-6.41-4.52-10-5.54s-6.82,1.13-8.82,4.43a7.4,7.4,0,0,0,.12,8.53c1.92,2.8,4.74,3.62,8,3.16s4.63-2.52,4.9-5.41c.25-2.63-.92-5-3.61-5.4A5.65,5.65,0,0,0,188.08,19c-.64.94.29,3.12.89,4.6.11.26,2.17,0,3.09-.5.35-.17.06-1.61.06-3.08l-1.76,2.59c-.72-1.11-1-2.22-.62-3A2.41,2.41,0,0,1,192,19c.92.39,2.13,1.37,2.18,2.17.09,1.22-.33,3-1.2,3.63a6,6,0,0,1-4.47.87,5.07,5.07,0,0,1-4-6,6.18,6.18,0,0,1,5.86-5.5c4.66-.47,7.72,2.43,10.75,5.34a91.79,91.79,0,0,0,7.41,7c3.23,2.47,8.61,2.32,11.75.06s4.13-5.6,3.51-9.35c-.55-3.35-3.72-5.65-7.49-5.61A6.21,6.21,0,0,0,210,16.86c-.28,3.06,1.14,5.47,4.08,5.81,1.5.17,3.62-1.27,4.65-2.61.45-.57-1.05-2.8-1.94-4.08-.13-.19-1.82.71-2.78,1.11ZM16.91,19H0l0,1.27c4-.26,8-.67,12-.71,1.55,0,3.11.8,5.12,1.36C17.1,20.58,17,19.72,16.91,19Zm439.65.74c-1.15-.79-1.43-1.16-1.72-1.16-5,0-10,.08-15,.29-.46,0-.87,1.2-1.24,1.73C444.58,18.09,450.4,21.14,456.56,19.78Z"/></g></g></svg>