<svg xmlns="http://www.w3.org/2000/svg" viewBox="0 0 454.91 39.32"><title>38</title><g id="Layer_2" data-name="Layer 2"><g id="Layer_1-2" data-name="Layer 1"><path d="M227.66,14.8C230.7,4,238.39-1.42,248,.33a15.93,15.93,0,0,1,12,21.05,11.54,11.54,0,0,1-13.37,7.19c-5.75-1.46-9.29-6.42-8.58-12,.48-3.8,3.35-6.48,6.76-6.32a5.94,5.94,0,0,1,5.68,6.29c-.13,1.42-1.43,2.89-2.56,3.95-.29.27-2.93-1.21-2.86-1.45a19.8,19.8,0,0,1,2-4.17c.15-.27.5-.44,1.6-1.38-2.33-.43-4.18-1.36-5.39-.83a6.06,6.06,0,0,0-2.93,3.86A8.7,8.7,0,0,0,247,26.76a9.68,9.68,0,0,0,11.41-6.94,14,14,0,0,0-9.87-17.37,14.93,14.93,0,0,0-18,9.82c-2.64,8.35.53,17.21,7.66,21.38a18.68,18.68,0,0,0,23.35-3.95,56.85,56.85,0,0,0,5.83-8.77c6.13-10.22,18-12.86,26.28-5.75a15,15,0,0,1,4.13,16.51,11.76,11.76,0,0,1-12.34,7.41,11.53,11.53,0,0,1-10.27-14,8.64,8.64,0,0,1,8.6-6.57A8.23,8.23,0,0,1,291.52,26c.21,3-1,5.33-4.07,5.9-2.79.51-4.63-1-5.16-3.75a5.06,5.06,0,0,1,.79-3c.14-.27,1.86-.11,1.89,0a14.76,14.76,0,0,1,.1,3,5.43,5.43,0,0,1-.2,1c3.31,1.14,4.46.49,4.54-2.45a5.91,5.91,0,0,0-5.1-6,6.13,6.13,0,0,0-7.06,4.81,9.1,9.1,0,0,0,3.41,9.76,9.27,9.27,0,0,0,10.62.87,10.78,10.78,0,0,0,5.49-10.43,13.3,13.3,0,0,0-10.68-12.15c-5.25-1.15-9.78,1.3-13.12,6.6-2.86,4.54-5.34,9.66-9.23,13.15-13.09,11.75-31.71,5.6-36-11.73a64.77,64.77,0,0,1-3,7c-8.07,14.09-27.9,14.12-37.84,0-1.87-2.66-3.21-5.69-4.83-8.52-3.48-6.08-9.15-8.27-15.29-5.92a13.36,13.36,0,0,0-8.16,15c1,5.08,6.19,8.86,11.12,8.1a9.79,9.79,0,0,0,8.42-10.75,6.34,6.34,0,0,0-6.25-5.89,6,6,0,0,0-6.28,5.32c-.39,3.13,1.27,4.33,4.88,3.16-.37-.62-1-1.25-1-1.72a11.22,11.22,0,0,1,1.22-2.61c.72.65,2,1.23,2.08,2,.35,2.75-1,4.61-3.76,5.23-2.52.56-4.89-1.34-5.28-4.17A7.52,7.52,0,0,1,167.3,20a7.78,7.78,0,0,1,8.89-.09c3.28,2,4.34,5.18,4,8.78-.67,7-6.86,11.52-14,10.3-6.62-1.13-11.07-8.18-9.61-15.2C159,12,173.82,6.93,182.76,15A33.72,33.72,0,0,1,189,23.42c3.32,5.85,7.7,10.2,14.3,12.07a17.26,17.26,0,0,0,21-10.76c3.2-8.9-.15-18-8-21.51a13.68,13.68,0,0,0-14.91,1.84c-4.34,3.4-5.83,8.09-5,13.47a9.53,9.53,0,0,0,10,8.37c4.61-.17,8.61-3.72,8.57-8.35a8.36,8.36,0,0,0-2.64-5.67c-1-.82-3.43.13-4.42.22a47.05,47.05,0,0,1,2.09,6.06c0,.18-2.44,1.51-3.35,1.18-3.08-1.11-2.34-3.95-1.71-6.12.83-2.85,3.25-4.21,6.17-3.92a6.07,6.07,0,0,1,5.67,5.22,10.84,10.84,0,0,1-8.43,13.11,11.56,11.56,0,0,1-13.54-8.06A15.83,15.83,0,0,1,204.74,1a16.84,16.84,0,0,1,21.13,9C226.51,11.48,227,13,227.66,14.8Zm128,15.2,3.1,1.39c.36-1.06,1.33-2.56.95-3.08-.76-1-2.37-2.27-3.41-2.1-1.25.21-3.07,1.71-3.2,2.81-.16,1.44.7,3.77,1.84,4.38a6.85,6.85,0,0,0,5.53.25,6.11,6.11,0,0,0,2.6-4.51c.21-4.38-4.76-7.56-8.85-5.52A15.46,15.46,0,0,0,349,28.7c-3.19,4.51-9,5.7-12.74,2.24a6.6,6.6,0,0,1-1.78-7.6c1-2.75,3.46-4.51,6.21-3.75,2,.54,3.81,2.49,5.06,4.27.54.76-.21,3-1.06,4a4.2,4.2,0,0,1-3.66,1c-1-.3-2-1.76-2.35-2.91-.21-.6.86-1.62,1.54-2.79l1.06,3.54c.48-.28,1.4-.67,1.36-.83-.23-1-.43-2.35-1.14-2.8a3.13,3.13,0,0,0-3,.09c-.78.71-1.57,2.64-1.18,3.16,1.17,1.56,2.93,3.72,4.43,3.7a6.84,6.84,0,0,0,5-3.38c1.67-3.6-1.31-7.93-5.41-8a9.72,9.72,0,0,0-6.17,1.88c-1.59,1.37-2.18,3.9-3.18,5.88-4.35-4.45-9.19-4.41-12.55.29-.66.91-1.13,2-1.81,2.87-3,3.92-8.79,4.83-11.9,1.35a8.71,8.71,0,0,1-1.89-6.68c.41-1.82,2.79-3.93,4.71-4.47,1.57-.44,4.31.76,5.46,2.13,1,1.18,1,3.81.38,5.45-.32.93-2.71,1.65-4.08,1.51-1-.09-2-1.69-2.46-2.84-.21-.58.93-1.65,1.46-2.51l.73.38c0,.93.09,1.87.13,2.81l1.06.19c.22-.94.91-2.15.56-2.75-.47-.8-2-1.76-2.63-1.51-1.06.44-2.56,1.86-2.45,2.68.2,1.54,1.1,3.76,2.28,4.21,1.6.61,4.24.46,5.49-.54s2-3.5,1.84-5.25c-.28-3.3-3.6-5.43-7.18-5.3a7,7,0,0,0-6.87,5.85A8.7,8.7,0,0,0,310,34.36c4.9.62,7.82-1.17,10.69-6.44,1.55-2.84,3.82-4.46,7.13-3.34,2.61.88,4,3.08,3,5.63a5.93,5.93,0,0,1-4,3c-1,.16-2.56-1.6-3.35-2.83-.35-.54.38-2.11,1-2.84a2.38,2.38,0,0,1,2.34-.1c.66.55.84,1.68,1.23,2.56l-.79.43-1.63-1.74c-.32,1.18-.08,2.21.53,2.49a2.51,2.51,0,0,0,2.36-.28c.52-.64.89-2.21.51-2.63-.92-1-2.34-2.18-3.51-2.13s-3.15,1.46-3.21,2.37a6.56,6.56,0,0,0,1.72,4.82c1.09.93,3.71,1.36,4.83.67,1.83-1.14,3-3.37,4.35-5a9.2,9.2,0,0,0,7.78,5.38c4.78.54,7.63-1.24,10.32-6.41,1.28-2.48,3.3-4.28,6-3.49a7.56,7.56,0,0,1,4.33,4,3.43,3.43,0,0,1-3.29,4.78c-1.45,0-3.06-1.82-4.3-3.1-.26-.26.62-2,1.34-2.66a2.41,2.41,0,0,1,2.33.18c.6.53.68,1.63,1,2.49l-.85.37-1.34-1.74ZM30.2,28a14.34,14.34,0,0,0,.62,3.32c1.28,2.86,3.7,3.72,6.56,2.91,2.51-.7,3.89-2.7,3.18-5.18a4.88,4.88,0,0,0-3.25-2.85c-1.05-.17-2.68,1.05-3.44,2.1-.38.53.61,2,1,3.1L37.91,30,36.5,28.17,36,31.07l-1.36-1c.37-.85.53-1.94,1.17-2.46a2.42,2.42,0,0,1,2.33-.09A3.6,3.6,0,0,1,39.5,30c.08,2.43-3.09,4.47-5.13,3-1.35-1-2.68-3.22-2.51-4.74a4.17,4.17,0,0,1,5.43-3.8,10.06,10.06,0,0,1,5.06,4.35c3,5.13,8.37,7.36,13.43,4.58,2-1.11,3.51-3.18,5.08-4.66.2.78.14,2.3.84,2.85,1.55,1.21,3.52,2.7,5.25,2.62,1.52-.08,3.64-1.89,4.18-3.4.41-1.14-.91-3.86-2.1-4.34s-3.16.89-4.6,1.78c-.32.2,0,1.88.42,2.65a2,2,0,0,0,2,.48c.74-.4,1.2-1.31,1.77-2l-.78-.64-1.6,1.78a2.73,2.73,0,0,1,.35-2.92,2.44,2.44,0,0,1,2.36,0c.66.53,1.4,2,1.13,2.43-.89,1.32-2.28,3.28-3.37,3.22-1.44-.07-3.61-1.62-4-2.94a5.41,5.41,0,0,1,1.73-4.77,6.63,6.63,0,0,1,5.48-.4c1.48.63,2.5,2.62,3.44,4.19,2.06,3.44,4.88,5.32,9,5.12,3.83-.19,7.21-1.69,8.27-5.4a12,12,0,0,0-.78-7.73,5.76,5.76,0,0,0-7.54-2.61,10.14,10.14,0,0,0-4.94,5c-.58,1.34.39,4.18,1.62,5.21s3.8,1.14,5.48.65c1.13-.34,2.11-2.36,2.43-3.79.19-.84-.85-2.27-1.72-2.92a2.68,2.68,0,0,0-2.63.36c-.62.67-.63,1.93-.79,2.95,0,.11.81.34,1.25.51L83.68,24l.85-.39c.35,1.12,1.31,2.79.91,3.23-1,1.06-2.66,2.23-3.85,2a5,5,0,0,1-3.09-3.1c-.86-2.73,1.18-5.4,4.15-6.16a6.15,6.15,0,0,1,7.08,3.63A7,7,0,0,1,86.57,32c-3.7,2-8.35.62-11.07-2.81-1.8-2.25-3.94-5.08-6.41-5.68s-5.44,1.31-8.17,2.11a16.89,16.89,0,0,0-.74-2.9,7.48,7.48,0,0,0-9.15-4,6.49,6.49,0,0,0-4.45,7.72c.67,2.76,2.8,4.35,5.24,3.7,1.78-.47,3.32-2.53,4.43-4.23.23-.36-1.86-2.24-2.89-3.41a27.9,27.9,0,0,0-2.6,2.73c-.11.14.76,1,1.17,1.56a7.65,7.65,0,0,0,1-1.55,3.57,3.57,0,0,0-.09-1.4c1.19.26,2.16,1,2.06,1.4-.31,1.23-.79,2.84-1.72,3.37s-3.09.46-3.72-.24c-1-1.14-2.17-3.53-1.64-4.44,1.08-1.83,3.21-4.12,5-4.18,2-.07,4.73,1.66,6,3.42,1.81,2.59.85,5.61-1.51,7.82-3.94,3.67-9.64,2.33-13-3-4.26-6.75-10.34-6.68-14.21.15Zm-.1.13A33.84,33.84,0,0,0,30,24.38c-.59-4-4.39-6.55-8.67-5.89a6.65,6.65,0,0,0-5.62,7.29,5.08,5.08,0,0,0,6,4.39c2.77-.52,4.21-2.2,3.89-5.06-.27-2.39-2.75-3.54-4.35-2-.64.63-.65,1.94-.82,3,0,.11.77.36,1.19.55L22.37,24c1.12.53,2.09,2,1.71,2.57-.66,1.09-2.2,2.41-3.25,2.32-1.28-.12-3.25-1.44-3.47-2.52-.31-1.6.14-4,1.24-5A7.36,7.36,0,0,1,24,19.71c3.71.47,5.6,4.28,4.54,8.12s-5.59,6.39-9.32,4.71a16.06,16.06,0,0,1-5.93-5.32C9.63,22.15,3.12,21.47.61,26.43-.16,28-.26,30.73.65,32A7,7,0,0,0,6,34.2c1.39-.1,3.38-2,3.72-3.46.29-1.28-1-3.67-2.19-4.32-.95-.51-3.08.71-4.35,1.62-.38.27.36,2.1.58,3.21L7,29.84,6.45,28.7,4.93,30.5l-.88-.45a8,8,0,0,1,1.46-2.62,2.34,2.34,0,0,1,2.27.3c.54,1,1.13,2.6.67,3.3A5.33,5.33,0,0,1,5,33.32c-1.09.1-3-.92-3.31-1.86a6.54,6.54,0,0,1,.25-4.89c2.28-3.89,7.32-2.79,9.76,1.95,2.92,5.66,8.19,7.76,13.46,4.82,2-1.14,3.4-3.51,5.07-5.32Zm363.19-1.94c-4.91-4.78-9.62-4.19-13.28,1.66a19.89,19.89,0,0,1-1.23,1.9c-3.13,3.92-9.08,4.25-12.3.71-2.45-2.69-2.31-7.31.3-9.54s6.92-2.11,8.61.84a8,8,0,0,1,.37,5.57c-.23.85-2.56,1.76-3.72,1.53s-2.23-1.75-2.84-3c-.23-.45.95-1.62,1.78-2.92.44,1.82.67,2.73.89,3.64a8.1,8.1,0,0,0,1.37-.78c-.38-1.07-.63-2.67-1.43-3-2.25-1-3.64.29-3.83,2.55-.25,2.91,1.46,4.43,4.19,4.82a5,5,0,0,0,5.66-4.34,6.63,6.63,0,0,0-5.53-7.36,7.28,7.28,0,0,0-8.73,5.81c-.73,4.29,1.68,8.14,6,9.63a9.8,9.8,0,0,0,12-4.56c1-1.76,2.38-3.74,4.09-4.55a5.63,5.63,0,0,1,5.06.86,5.6,5.6,0,0,1,1.37,4.92c-.44,1.27-2.75,2.63-4.18,2.58-1.12,0-2.32-2.11-3.11-3.5-.22-.38.73-1.91,1.45-2.22a3,3,0,0,1,2.61.54c.44.37.22,1.54.4,3.35l-2.15-2.57-.8.63c.57.69,1,1.71,1.74,2s2.07-.28,2.21-.74c.29-1,.35-2.6-.22-3.06-1-.83-2.88-1.68-3.88-1.28-1.21.49-2.85,2.52-2.61,3.45.44,1.68,1.83,3.82,3.34,4.39,4,1.51,8.54-1.84,6.38-8C393.28,26.16,393.3,26.23,393.29,26.21ZM425,28.94c1.48,1.47,2.74,3.32,4.49,4.32,5.41,3.06,10.82,1,13.94-5.23,1.28-2.53,3.25-4.23,5.94-3.56a7.3,7.3,0,0,1,4.25,3.58,3.4,3.4,0,0,1-2.77,5.07c-1.49.16-3.29-1.44-4.67-2.59-.31-.25.29-2.19,1-2.84a2.75,2.75,0,0,1,2.66,0c.61.42.68,1.64,1,2.51l-.8.37-1.51-1.85-.87,1.07,2.85,1.73c.49-1,1.59-2.67,1.36-2.88-1.15-1.06-2.81-2.53-4-2.3A4.84,4.84,0,0,0,445,29.84c-.21,2.72,1.7,4.38,4.45,4.6s5.26-1,5.48-3.91c.15-1.88-.56-4.69-1.89-5.6a8.86,8.86,0,0,0-6.84-1.16c-2.08.71-3.83,3-5.22,5-3.64,5.2-11.19,5.76-13.72.5a8.9,8.9,0,0,1,.32-7.27c.89-1.5,4.18-2.55,6.08-2.18,1.68.33,3.45,2.7,4.15,4.56.4,1.05-.9,3.44-2.09,4.19-.93.58-3.23,0-4.28-.83-1.87-1.51-1.08-3.27,1.28-3.74.14.84.29,1.69.44,2.53.51-.2,1.47-.44,1.46-.6a4.9,4.9,0,0,0-.67-2.71c-1.45-1.65-4.06-.65-4.58,1.63a4.55,4.55,0,0,0,4.84,5.32c2.86-.15,4.7-1.59,5-4.61a6.5,6.5,0,0,0-5.36-7.09c-4.93-.88-10.39,2.56-8.76,10.56Zm0,.1c-1.33-3.14-3-6-6.91-6s-6.22,2.27-7.83,5.54a6.12,6.12,0,0,1-1.11,1.52C406.9,32.39,404,33.88,401,32.6a11.55,11.55,0,0,1-5.35-5.17c-1.48-3,.8-6.64,4.1-7.72,3-1,6.6.64,7.24,3.62a5.9,5.9,0,0,1-.92,4.46,4.62,4.62,0,0,1-4,1c-1-.27-1.79-1.88-2.16-3.06-.17-.54.92-1.47,1.58-2.41.64,1.56,1,2.5,1.41,3.44.43-.52,1.34-1.31,1.22-1.51-.57-1-1.26-2.29-2.2-2.63-2.06-.73-4.38,2-3.21,4,.91,1.58,3,3.36,4.65,3.38s3.9-1.69,4.72-3.26c1.53-2.93-.56-6.64-3.8-7.88A7.57,7.57,0,0,0,394.58,23c-.41,1.08-.87,2.15-1.29,3.23,0,0,0-.05,0,0A10,10,0,0,1,394.44,28c1.32,4.12,4.34,6,8.43,6.33,4.9.4,8-1.94,9.93-6.4,1.21-2.81,3.75-4.58,6.66-3.32a7.58,7.58,0,0,1,3.62,4.88c.5,2.44-1.62,3.95-4,3.89-2.21-.07-3.95-1.45-3.5-3.9.17-.92,1.71-1.59,2.63-2.38l2.12,2.65-.94.63-1.74-1.51-.66.83c.81.59,1.6,1.57,2.45,1.64.61.05,2-1.29,1.86-1.73-.3-1.21-1-2.79-1.93-3.24a4.11,4.11,0,0,0-3.75.5c-.9.87-1.62,2.88-1.22,3.91a6.61,6.61,0,0,0,3.5,3.44c3.21,1.13,5.48-.76,7.14-5.32C425,28.94,425.05,29.05,425,29ZM122.49,27.16c.1,1.36-.32,3.23.4,4,1.44,1.44,3.53,3.11,5.31,3.07,1.55,0,3.67-2,4.36-3.65.41-1-1.14-3.76-2.34-4.17s-3.08,1.11-4.44,2.09c-.31.22,0,2,.59,2.56a2.55,2.55,0,0,0,2.39.14c.56-.3.74-1.34,1.09-2.06l-.9-.59L128,31.16,126.61,30a8.66,8.66,0,0,1,1.74-2.58,2.32,2.32,0,0,1,2.29.43,4.11,4.11,0,0,1,.62,3.06c-.83,2.43-2.74,3.18-5.12,2.14s-2.93-3.17-2.15-5.36c.89-2.49,3.1-4.17,5.6-3.15a11.94,11.94,0,0,1,4.92,4.58c2.16,3.32,4.75,5.46,8.86,5.34,3.79-.11,7.32-1.36,8.41-5.1a12.62,12.62,0,0,0-.62-8.08c-1.29-2.92-4.76-3.68-7.53-2.54a10.67,10.67,0,0,0-5,5c-1.29,2.68.75,5.65,3.59,6.33s5.78-.8,6-3.52A5.47,5.47,0,0,0,146.83,23a2.69,2.69,0,0,0-2.64,0,5.61,5.61,0,0,0-1.26,2.81c0,.15.89.57,1.37.87l.77-2.85c2.85.26,2.77,2.33,1.33,3.7-1,1-4.21,1.51-4.72.87a7.41,7.41,0,0,1-1.44-5.52c.63-2.83,4.21-4,7.13-3a6.16,6.16,0,0,1,4.17,7.13c-.71,3.29-2.75,5.44-6.08,5.89-4,.54-7-1.2-9.07-4.71-3.95-6.58-9.45-6.84-14-.8Zm-.08.14a25.51,25.51,0,0,0-1-4.75c-1.17-2.83-3.64-4.6-6.55-4a11.75,11.75,0,0,0-6.36,3.71c-1.91,2.36-.52,6.16,2,7.45a5,5,0,0,0,6.8-2.11c1.2-2.38-.08-5.39-2.33-5.07-1,.15-2,1.51-2.74,2.47-.15.19.62,1.12,1,1.71l2-3.41c.47,1.17,1.38,2.34,1.1,3-.5,1.11-1.66,2.51-2.67,2.62-1.24.13-3.49-.68-3.74-1.54-.5-1.69-.61-4.35.39-5.42a8,8,0,0,1,5.81-2.18c3.73.36,5.65,4.27,4.6,8.07s-5.83,6.42-9.68,4.61a16.06,16.06,0,0,1-5.61-5.16c-3-4.12-7.61-5.72-10.93-2.8a7.92,7.92,0,0,0-2.29,5.8c.12,1.46,2.17,3.54,3.7,3.9s4.35-.49,5.14-1.74-.07-3.72-.22-5.65a23.37,23.37,0,0,0-5.06.65c-.47.16-.57,2-.45,3,0,.43,1.37,1.18,1.69,1a10.57,10.57,0,0,0,2.1-2l-.69-.66-1.41,1.74c-.5-1.21-.44-2.44.16-2.85a2.76,2.76,0,0,1,2.66,0c.68.64,1.3,2.56,1,2.82-1.36,1.16-3.13,2.79-4.63,2.67a3.4,3.4,0,0,1-2.84-5c.72-1.57,2.79-3.64,4.14-3.56,2,.12,4.15,1.67,5.81,3.11,1.45,1.25,2,3.55,3.49,4.76,5.31,4.36,11.87,2.07,15.77-5.29C122.49,27.16,122.41,27.29,122.41,27.3Z"/></g></g></svg>