<svg xmlns="http://www.w3.org/2000/svg" viewBox="0 0 454.82 57.5"><title>39</title><g id="Layer_2" data-name="Layer 2"><g id="Layer_1-2" data-name="Layer 1"><path d="M244.63,20.8c5.65-.21,7.46,5,11.56,8-4,2.86-5.75,8.19-11.5,8-1.68,8.59-1.68,8.59-9.15,9,.31,5.83-5,7.62-8.11,11.72-2.83-4-8.09-5.63-7.8-11.76-6.09.31-10.66-1.34-8.74-9.06-6.43.49-8-5-12.14-7.84,4.07-2.88,5.78-8,11.24-7.95.68-2.49.66-5.58,2.19-7.14s4.64-1.68,7.36-2.52C219,5.88,224.71,4.39,227.4,0c2.94,4.2,8.29,5.83,8.12,11.53C243.51,13.22,243.51,13.22,244.63,20.8ZM233.08,34.36V23.21H222V34.36Zm2.51-11.22V34.25h6.52V23.14ZM222,20.81H233.1V14.15H222ZM212.91,34.3h6.61V23.2h-6.61ZM233,43.39V36.78H222v6.61ZM227.51,2.6c-2,3.59-6.66,4.55-5.4,9.28h11C233.94,7.25,229.49,6.24,227.51,2.6Zm26.1,26.14c-3.53-2-4.55-6.37-9.15-5.56V34.32C249.16,35.15,250.19,30.84,253.61,28.74Zm-52,.15c3.14,2,4.26,6.32,8.84,5.48V23.07C205.85,22.6,204.73,26.66,201.64,28.89ZM221.89,45.8c-.61,4.75,3.49,5.87,5.77,9,1.91-3.4,6.35-4.39,5.41-9Zm13.49-2.58c6.78.89,7.61.07,6.56-6.41h-6.56Zm-15.79-29c-6.67-.68-7.52.23-6.43,6.49h6.43Zm15.79,6.56h6.55c1.06-6.46-.34-7.78-6.55-6.28ZM219.49,43.34V36.79H213C212.36,43,213.19,43.87,219.49,43.34Zm-24.1-14.7H29.77c0,.26,0,.51,0,.76h165.6Zm64.17.72H425.25V28.5H259.55C259.56,28.78,259.56,29.07,259.56,29.36ZM263,32.64H422.5v-.55H262.94ZM32.76,32.57H191.9v-.44H32.76Zm396.1-3.82c10.27-6.67,16.68-6.24,26-.08C447.45,34.65,439.06,36.06,428.86,28.75Zm17.55,0c-3-2.75-5.9-2.61-8.85,0C440.42,31.65,443.27,31.76,446.41,28.78ZM444,32l.55,1,8.57-4.25-8.63-4-.49,1,5.38,3Zm-3.94-6.22-.5-1-8.67,4.06L439.39,33l.52-1-5.33-3.28Zm-440,3c8.66-6.39,17.24-6.47,25.73-.14C19,34.53,10,36.2,0,28.78Zm17.46-.11c-4.64-2.65-4.64-2.65-9,.18C11.5,31.45,14.38,31.78,17.46,28.67ZM15,32l.56,1,8.51-4.26-8.63-3.93-.47.92,5.33,3ZM1.85,28.84,10.41,33l.53-1.05L5.55,28.79l5.31-3c-.19-.34-.37-.69-.55-1Z"/></g></g></svg>