<svg xmlns="http://www.w3.org/2000/svg" viewBox="0 0 441.54 40.11"><title>40</title><g id="Layer_2" data-name="Layer 2"><g id="Layer_1-2" data-name="Layer 1"><path d="M209.65,18c1.47-3.94,3.88-7.08,8.35-8,5.42-1.17,10,1,12.87,5.85.65,1.1,2,2.46,3.13,2.48a241.19,241.19,0,0,0,25.25-.57c-1.23-.67-2.43-1.41-3.7-2-3.7-1.71-7.64-3-11.06-5.19-1.55-1-3.31-4-2.83-5.3A8.34,8.34,0,0,1,246.84.67c2-.49,4.72.49,6.69,1.6A17,17,0,0,1,262,14.37c.68,3.83,2.5,4.27,5.71,4.26,15.1-.07,30.19.09,45.29.08,26.09,0,52.19,0,78.28-.24a8,8,0,0,0,5.19-2.32c3.53-3.7,8.79-3.88,12.18,0,2.27,2.61,7.72,3.25,10.42,1,2.86-2.42,5.21-1.83,8.4-.29,2.41,1.17,5.71.46,8.61.65a18.07,18.07,0,0,1,5.23.74c.39.15.17,3.55-.11,3.6a12.1,12.1,0,0,1-5.64.06c-3-.95-5.65-1.91-8.27,1s-5.31,2.73-8.09,0a7.23,7.23,0,0,0-10.41.73c-3.21,4.21-8.87,4.1-12.33.08a7.12,7.12,0,0,0-4.72-2.32c-41.59-.13-83.19-.09-124.79-.2-2.94,0-4.1.73-4.73,3.76-1.11,5.37-3.73,10.13-8.77,12.86-1.88,1-4.43,2-6.32,1.51-2.12-.51-4.8-2.34-5.42-4.2-.49-1.49,1.37-4.26,2.88-5.76s3.73-1.86,5.65-2.73a47.28,47.28,0,0,0,9-4.92,16.36,16.36,0,0,0-2.56-.45c-7.19-.08-14.38-.05-21.57-.18-2.16,0-3.55.25-4.49,2.66-1.67,4.26-5.52,6.05-9.82,6.1s-8.16-1.67-10-5.87c-1-2.35-2.26-3.07-4.69-3-8.24.13-16.49.06-24.73.06l-.38,1c2,1.1,3.84,2.33,5.87,3.27,3.07,1.42,6.3,2.48,9.32,4,2.72,1.35,4.5,3.57,3.45,6.86a5.44,5.44,0,0,1-6.71,3.8,20,20,0,0,1-8.11-4c-2.1-1.78-3.31-4.61-4.91-7l1.17-.85c.84,1.23,1.46,2.73,2.56,3.63a46.82,46.82,0,0,0,8.73,6.11c1.07.52,3.26-1.23,4.93-1.94-.92-1.5-1.48-3.58-2.81-4.38-4.79-2.87-9.84-5.32-14.63-7.84l.74,3.79-1,.22c-.45-2.07-.91-4.14-1.5-6.79h-3.94q-61.78-.06-123.58-.15c-2.54,0-4.21.39-5.68,2.94-2.61,4.53-9.22,4.21-12.43-.23a6.32,6.32,0,0,0-10-.67c-2.82,3.07-5.85,3.09-8.61-.19-2.54-3-5-2.21-8-.66a8.31,8.31,0,0,1-5.21.35c-.45-.09-1-3-.45-3.92,1.34-2.19,3.39-1.85,5.49-.52,3,1.93,5.89,1.71,8.67-.87,2.21-2,4.85-2.07,7.36-.3,3.91,2.76,8.19,2.39,11.58-1,3.21-3.24,8.23-2.84,11.64.69a6,6,0,0,0,3.69,1.86q64.13.12,128.24,0a9,9,0,0,0,1.45-.26c1.11-6.18,3.27-11.89,8.77-15.64A13.35,13.35,0,0,1,190.87.43c4.23-1.22,7.88.21,8.81,3.48,1.15,4-1.38,6-4.56,7.41A75.71,75.71,0,0,0,182.42,18Zm52-1.16C259.46,10.71,257,5.16,250.21,2.9c-2.49-.84-5.15-.87-5.91,1.88-.31,1.15,1.6,3.54,3.06,4.43C251.86,11.92,256.64,14.18,261.68,16.82Zm-.05,6.09c-3.45,2.05-6.28,3.83-9.21,5.44-2.08,1.15-4.45,1.84-6.37,3.18-1,.72-2.28,2.86-1.91,3.53a5.22,5.22,0,0,0,3.79,2.44,10,10,0,0,0,5.43-1.79C257.64,32.74,260.15,28.46,261.63,22.91Zm-81.88-6.4c5.13-2.74,10.35-5.36,15.36-8.31,1.14-.67,1.58-2.52,2.34-3.83-1.37-.78-2.74-2.2-4.08-2.18a10.83,10.83,0,0,0-5.44,1.89C183.39,7.05,181.2,11.68,179.75,16.51Z"/></g></g></svg>