<svg xmlns="http://www.w3.org/2000/svg" viewBox="0 0 447.74 16.06"><title>41</title><g id="Layer_2" data-name="Layer 2"><g id="Layer_1-2" data-name="Layer 1"><path d="M1.41,6.84A80.24,80.24,0,0,1,8.26,1C9,.52,11,.9,11.71,1.6,16.39,6.27,21.9,7.06,28.32,6.94c21-.39,41.95-.14,64-.14-1.63-1.11-2.66-1.5-3.19-2.24A22.65,22.65,0,0,1,87.31.83c1.32-.27,2.9-1.15,3.93-.71,3.17,1.35,6.06,3.34,9.19,4.79a15.71,15.71,0,0,0,6.14,1.76c29.87.12,59.74.09,89.61.09h4.4l.29,1.57a18.56,18.56,0,0,1-4,.88q-21.88.12-43.76.09c-15.43,0-30.85,0-46.27-.15-3.8,0-7.12.45-9.89,3.22A5.85,5.85,0,0,1,94.61,14c-2.06.53-4.19.76-6.29,1.12.59-1.86,1.19-3.71,1.84-5.76-.51,0-1.68-.19-2.85-.2-22-.19-43.9-.52-65.85-.34-2.72,0-5.76,2.4-8,4.39-2.87,2.5-5.06,2.69-7.71,0C4.36,11.81,2.64,10.8,1.19,9.51,0,8.5-.94,7.31,1.56,6.69l7.38,8c2.13-1.61,3.46-2.6,4.76-3.61s2.5-2,3.78-3c-7.11-6.8-7.1-6.79-14.56-1.73A5.94,5.94,0,0,1,1.41,6.84Zm434.8.82,5.54-5.27c-2,1.2-4,2.45-6.05,3.57a7.61,7.61,0,0,1-3.3,1.22Q398.86,7,365.31,6.76h-3.49c1.93-1,3-1.29,3.49-2a28,28,0,0,0,2.2-4c-1.48-.22-3.15-1-4.39-.55a26.36,26.36,0,0,0-7.73,4c-2.71,2.2-5.52,2.61-8.81,2.61q-44.38-.12-88.78,0a41.36,41.36,0,0,0-4.42.45V8.77a37.24,37.24,0,0,0,4.44.5c29,0,58.07.15,87.11-.08,5.8,0,10.77.84,15.31,4.68,1.45,1.24,4.12,1,6.23,1.49-.61-2-1.21-4-1.84-6,.05,0,.83-.07,1.61-.08,18.61-.13,37.22-.37,55.84-.34,6.56,0,13.68-1.76,18.83,4.58,2.45,3,4.64,2.3,6.32-.93C443.12,14.35,440.64,13.29,436.21,7.66Zm-208.87,8.4c2.31-4,4.72-8,6.82-12.11.41-.8-.4-2.23-.65-3.36C232.3,1,230.69,1,230,1.85a41.9,41.9,0,0,0-3.6,6c-1.17-2.13-1.92-4.13-3.23-5.64-.8-.92-2.46-1.09-3.74-1.59-.24,1.24-1.09,2.78-.64,3.66,2.06,4,4.48,7.84,6.77,11.73Zm19.8-4.92-3.56-6.92-1.25.1q-1.67,3.4-3.31,6.83l1.3.76c.94-1,1.87-2.05,2.8-3.07l2.55,3ZM209.2,4.38l-3.59,6.73,1.31.88,3-3.18c.92,1,1.83,2.09,2.74,3.14l1.27-.8-3.31-6.81ZM440,8.09,444,11l3.77-3C444.84,3.91,442.56,5.38,440,8.09ZM5.36,8.33l4,2.72L13.5,7.94C9.2,4.13,8.52,4.18,5.36,8.33Z"/></g></g></svg>