<svg xmlns="http://www.w3.org/2000/svg" viewBox="0 0 447.78 38.63"><title>42</title><g id="Layer_2" data-name="Layer 2"><g id="Layer_1-2" data-name="Layer 1"><path d="M173.93,33.89c-.88-.48-1.3-.72-1.74-.94-4.89-2.54-5.7-8.38-1.29-11.71,1.9-1.43,4.56-1.91,6.93-2.61.61-.18,1.49.4,2.18.76.1.05,0,1-.23,1.1a4.54,4.54,0,0,1-2.32.33,6.4,6.4,0,0,0-8,4.79,5.15,5.15,0,0,0,1.44,4.93c1,1,2.15,1.66,3.58.91C178,29.59,181.78,28,185,25.72c4.89-3.52,9.31-7.67,14.07-11.38,3.47-2.7,7.29-4.69,12-3.84a2.17,2.17,0,0,0,1.4-.45c2.11-1.39,4.24-2.77,6.25-4.29a4.39,4.39,0,0,0,1.13-2c.69-2,1.64-3.71,4.12-3.72s3.4,1.64,4.18,3.65a9,9,0,0,0,2,2.64,16.56,16.56,0,0,0,1.67,1.09,14,14,0,0,0,8.33,3.23c3.08.19,6.33,2.11,9,4,4.71,3.38,8.88,7.51,13.57,10.93a56.19,56.19,0,0,0,10.07,5.66c2.9,1.33,5.58-.72,5.79-4s-2.74-6.76-6-7c-.73-.06-1.49.6-2.25.65a6.35,6.35,0,0,1-2.29-.48c-.16-.06-.27-.88-.16-.95a4.28,4.28,0,0,1,1.93-.84A10.26,10.26,0,0,1,278,22.05a6.71,6.71,0,0,1-2,10.75l-2.16,1.14H277q72.81,0,145.6,0a3.21,3.21,0,0,0,3.14-1.48c1.17-1.75,3.81-1.74,5.34-.3a3.8,3.8,0,0,1,.15,5.25c-1.44,1.52-4.14,1.68-5.33-.06-1.05-1.53-2.29-1.54-3.8-1.54q-198.27,0-396.53,0c-1.43,0-2.59,0-3.58,1.52-1.17,1.75-3.87,1.62-5.33.11a3.81,3.81,0,0,1,.08-5.25,3.62,3.62,0,0,1,5.36.23A3.17,3.17,0,0,0,25,34q73.8,0,147.61,0C172.89,34,173.16,33.92,173.93,33.89ZM218.51,7.32a22.32,22.32,0,0,0-2.34,1.53c-3.45,2.83-6.81,5.76-10.29,8.56-5.49,4.43-11,8.89-16.62,13.12-1.89,1.42-4.28,2.19-6.57,3.31H202c-.62-2.82.35-4,3.11-3.25,2.43.62,4.7,1.84,7.11,2.55a49.56,49.56,0,0,0,5.59,1c-2.77-3.1-5.65-5.55-8.35-8.2a10.5,10.5,0,0,1-2.33-3.73,2.84,2.84,0,0,1,.67-2.54,2.85,2.85,0,0,1,2.6-.28,8.83,8.83,0,0,1,3.15,2.73,85.6,85.6,0,0,1,5.7,9.57c1,2.1,2.21,2.7,4,2.09C221.7,25,220.12,16.22,218.51,7.32ZM264.83,33.9c-3.36-1.94-6.91-3.7-10.12-5.93s-6.27-5-9.36-7.61c-4.67-3.92-9.31-7.89-14-11.8a10.75,10.75,0,0,0-1.91-1.14c-1.62,8.9-3.2,17.62-4.79,26.35,2,.67,3-.15,4-2.06a117.26,117.26,0,0,1,7.06-11c1-1.41,2.7-2.5,4.43-1s.67,3-.19,4.43a4.41,4.41,0,0,1-.79,1.08c-2.63,2.41-5.28,4.79-7.93,7.19l-1.35,1.2.34.77c2.09-.51,4.2-.94,6.26-1.57s3.73-1.53,5.66-2a4.87,4.87,0,0,1,3.36.29c.59.36.5,1.83.73,2.87ZM210,12.14l-.33-.9c-2,.53-4.16.64-5.79,1.66-3.64,2.29-7,5-10.45,7.59-4.53,3.37-9,6.79-13.61,10.1a27.3,27.3,0,0,1-4.08,2c4.06.77,7.84-.07,12.29-2.64C196.27,25.15,202.82,18.27,210,12.14Zm61.49,20.65c-4-2.72-8.2-5.39-12.19-8.34-3-2.26-5.71-5-8.76-7.28a61.21,61.21,0,0,0-8.36-5.07c-1.14-.59-2.69-.4-4-.57l-.17.69c5,4.28,9.76,8.77,14.93,12.79a70.45,70.45,0,0,0,10.81,6.62A11.76,11.76,0,0,0,271.47,32.79ZM10.18,32.22a2.47,2.47,0,0,0-2.65,2.69,2.49,2.49,0,0,0,2.72,2.64c1.63,0,2.55-1,2.66-2.75C12.71,33.2,11.89,32.19,10.18,32.22Zm427.41,5.33A2.49,2.49,0,0,0,440.38,35a2.46,2.46,0,0,0-2.55-2.77c-1.71-.08-2.58.89-2.82,2.54A2.58,2.58,0,0,0,437.59,37.55Zm8.79-.28c.5-.83,1.51-1.75,1.38-2.47s-1.33-1.39-2.06-2.08c-.68.74-1.84,1.44-1.9,2.24s1,1.56,1.63,2.35ZM2.16,32.86c-.78.08-1.44,1.28-2.16,2,.7.71,1.35,1.9,2.12,2s1.63-1,3.12-1.93C3.77,33.87,2.91,32.79,2.16,32.86Zm201.86-8c-.54.18-.9.89-1.34,1.38.46.38.91,1,1.39,1.06s.91-.65,1.67-1.25C205,25.43,204.35,24.72,204,24.82Zm10.65-11.39c-.53.14-.9.84-1.35,1.3.46.38.9,1,1.39,1s.92-.6,1.73-1.19C215.6,14,215,13.33,214.67,13.43Zm29.41,11.4c-.53.12-.93.83-1.39,1.29.43.4.84,1.1,1.3,1.14s1-.59,1.76-1.13C245,25.5,244.44,24.75,244.08,24.83ZM233.4,13.42c-.47,0-.92.68-1.37,1.06.44.46.82,1.17,1.35,1.31.37.1,1-.59,1.8-1.18C234.35,14,233.86,13.4,233.4,13.42Z"/></g></g></svg>