<svg xmlns="http://www.w3.org/2000/svg" viewBox="0 0 451.59 31.45"><title>43</title><g id="Layer_2" data-name="Layer 2"><g id="Layer_1-2" data-name="Layer 1"><path d="M278.24,15.73c.85.74,1.57,1.27,2.19,1.9,3.77,3.83,2.74,9.45-2.17,11.58a13.43,13.43,0,0,1-11.31.12,114.85,114.85,0,0,1-12.83-7.54c-1.41-.92-2.23-1.08-3.62-.06-3.37,2.49-7,4.16-11.44,3.48a3.48,3.48,0,0,0-2,.76c-1.93,1.26-3.76,2.68-5.74,3.86a10.4,10.4,0,0,1-11,.08A15.51,15.51,0,0,1,218,28.52c-2.62-2.13-5.23-3.65-9-3.44-2.15.12-4.43-1.45-6.58-2.42a23.25,23.25,0,0,1-3.08-2c-3.3,2.22-6.42,4.5-9.72,6.48-4,2.38-8.26,3.76-13,3-3.43-.55-6.46-1.83-7.49-5.43s.63-6.36,3.55-8.45l.08-.05L170.45,13c-2.8-3.77-1.77-8.48,2.45-10.56a13.49,13.49,0,0,1,11.91-.28c4.27,2,8.23,4.7,12.3,7.13a20.94,20.94,0,0,1,2.08,1.62c1-.67,2.05-1.37,3.1-2,3.1-1.91,6.31-3.34,10.12-2.63a3.24,3.24,0,0,0,2-.71c2-1.28,3.9-2.75,5.95-3.95a10.24,10.24,0,0,1,10.83-.08,26.78,26.78,0,0,1,2.68,1.61c2.49,1.79,4.73,3.52,8.33,3.2,2.31-.2,4.83,1.59,7.19,2.63a19.3,19.3,0,0,1,2.86,1.86c3.12-2.14,6-4.35,9.15-6.22,4.29-2.57,8.85-4.25,14-3.23,3.35.67,6.21,2,7.08,5.6s-.82,6.2-3.64,8.24A6.86,6.86,0,0,0,278.24,15.73Zm-31.12-.19c-5-4.07-9.74-8-14.63-11.79-4.37-3.33-9-3.34-13.4,0-4.88,3.74-9.59,7.71-14.62,11.79C210.15,20.42,215,25.6,221.32,29a8.88,8.88,0,0,0,8.76.09C236.5,25.71,241.38,20.45,247.12,15.54Zm-53.54.14c-2.58-2.14-4.82-4.1-7.17-5.91a36.69,36.69,0,0,0-5.22-3.43A41.38,41.38,0,0,0,175,3.77a3.41,3.41,0,0,0-2.47.36,5.35,5.35,0,0,0-1.94,6.69,5.92,5.92,0,0,0,6.26,3.89,10.39,10.39,0,0,1,3.09-.15c.5.07.91.79,1.36,1.22-.41.39-.79,1.07-1.23,1.11a15.29,15.29,0,0,1-3.3-.17A5.71,5.71,0,0,0,171,19.91a5.64,5.64,0,0,0,.34,6.3,3.53,3.53,0,0,0,4.28,1.39C182.61,25.35,187.91,20.58,193.58,15.68Zm64.45.08c2.22,1.85,4.18,3.54,6.2,5.16a36.24,36.24,0,0,0,12,6.74,3.25,3.25,0,0,0,3.62-1,5.59,5.59,0,0,0,1-6.41,5.81,5.81,0,0,0-6-3.55,7.32,7.32,0,0,1-2.42.27,7.39,7.39,0,0,1-2.11-1.24,9.35,9.35,0,0,1,2-1.27,4.48,4.48,0,0,1,2,.1,6,6,0,0,0,7-4.62,5.59,5.59,0,0,0-1.65-5.5c-1.48-1.49-3-.85-4.55-.3C268.5,6.51,263.43,11,258,15.76Zm-81.3,13.31c9.05.52,15.14-4.46,21.5-9.41l-3.64-3c-2.87,2.29-5.49,4.61-8.34,6.6S180.21,27,176.73,29.07Zm79.91-14.54L274.15,2.38c-8.34-.59-14.39,4.46-20.79,9.4ZM177,2.7c6.76,2.73,12,7.59,17.54,12.14l3.67-3.09C191.76,6.83,185.73,1.77,177,2.7Zm97.13,26.37L256.66,16.92l-3.31,2.76C259.78,24.58,265.84,29.68,274.17,29.07ZM247.82,16.58l-7.81,7c4.59.77,7.9-1.44,11.31-4Zm-47.44,2.93C204,23,209,24.79,211.6,23.58l-7.85-7ZM239.5,7.4l8.35,7.47,3.44-3.1C247.78,9.24,244.5,7,239.5,7.4Zm-35.74,7.47,8.05-7.24C208.15,7,203.66,8.72,200.47,12Zm45,.85,3.65,3.09,3.62-3.11-3.72-3.06C251.12,13.7,250.06,14.61,248.78,15.72Zm-46,0-3.56-3.09-3.65,3.15,3.67,3.06Zm248.82-.37c-2.83-.45-5.64-1-8.48-1.3a8.79,8.79,0,0,0-2.58.53,14,14,0,0,1-2.94.63c-4.77,0-9.54-.16-14.31-.2s-9.54,0-14.31,0-9.55,0-14.32,0l-14.31.09c-4.77,0-9.56-.19-14.31.19s-9.15-1.18-13.76-.21c-.6.13-1.49-.44-2-.92-1.11-1-2.46-1.35-3.36-.27-1.06,1.27-2.24,1.21-3.56,1.21q-28.51-.19-57-.41c-1.49,0-2.39.16-1.52,2h1.77c19-.14,38-.3,57-.38a6.33,6.33,0,0,1,3.07,1.13c1.34.83,2.56,1,3.58-.28s2.2-1,3.54-.51a5.68,5.68,0,0,0,2.4.06c.7-.07,1.39-.45,2.09-.47,2.23-.06,4.47,0,6.7,0q36.69,0,73.36.05a3.17,3.17,0,0,1,1.52.18c4.1,2.36,7.83-.18,11.73-.38ZM0,16.17c3,.43,6.07.89,9.12,1.26A5.61,5.61,0,0,0,10.84,17a15.49,15.49,0,0,1,3.37-.72c5.74,0,11.48.1,17.22.13s11.33,0,17,0l17.22-.08c5.67,0,11.35.22,17-.12s11.12,1,16.7.15a3.06,3.06,0,0,1,2,.93c1.12,1,2.47,1.31,3.37.24,1.12-1.34,2.4-1.21,3.79-1.2l56.13.42H167c.67-2.29-.71-2-1.93-2q-28.74.21-57.47.36a4.37,4.37,0,0,1-2.46-1c-1.36-1.07-2.63-1.17-3.72.13s-2.21,1-3.55.52a5.54,5.54,0,0,0-2.37-.06c-.71.07-1.4.44-2.1.47-2.16.07-4.32.06-6.48.05Q52.22,15.11,17.55,15c-2.55,0-5.16.71-7.62-.78a4.34,4.34,0,0,0-2.64-.12c-2.42.37-4.82.87-7.23,1.32Zm237-1c-1.2,3.14-1.54,6.65-3.48,8.33a14.12,14.12,0,0,1-7.5,3.09,12.63,12.63,0,0,1-8-3.29,12.52,12.52,0,0,1-3.09-7.44c0-2.6,2.33-5.34,3.07-8.26a18.69,18.69,0,0,0,7.54-3,1.53,1.53,0,0,1,1.47.22,8.17,8.17,0,0,0,5.69,2.46c.69.07,1.75,1.53,1.77,2.37a5.28,5.28,0,0,0,1.84,4.28A3.31,3.31,0,0,1,237,15.19Zm-11.1-7c-4.06,0-7.6,3-7.61,6.52,0,5,2.74,8.5,6.78,8.51,4.78,0,8.25-2.83,8.26-6.79C233.33,11.28,230.58,8.23,225.88,8.22Zm-.13,3c-.1-.08-.65.27-.91.5-.55.49-1.06,1-1.58,1.56-2.39,2.4-2.39,2.41,0,4.73,3,3,2.17,2.87,5.17,0,.73-.7,1.38-1.48,2.32-2.49C228.94,14,227.37,12.61,225.75,11.27Z"/></g></g></svg>