<svg xmlns="http://www.w3.org/2000/svg" viewBox="0 0 454.89 52.08"><title>44</title><g id="Layer_2" data-name="Layer 2"><g id="Layer_1-2" data-name="Layer 1"><path d="M227.61,0c.23.28.6.52.69.83,2,6.77,6.49,11.8,11.2,16.72,1.39,1.45,2.8,2.89,4.19,4.34,2.32,2.42,2.32,2.42,5.5,1.14q-1.92-5.62-3.83-11.24l.53-.16c1.66,3.1,3.34,6.19,5,9.31.66,1.26,1.55,1.5,2.92,1.35a123.39,123.39,0,0,1,12.9-.81l-13.92,2.06a41.39,41.39,0,0,0,27.6,16.22c-5.41,1.07-13.63-.73-18.92-4.6a55.84,55.84,0,0,1-9.38-8.8c-1.61-1.88-2.76-2-4.5-.92,1.73,2.9,3.43,5.82,5.23,8.67.31.47,1.14.59,1.67,1,2,1.39,4,2.77,5.91,4.24,1.22.94.92,2-.26,2.67-1.68.88-3.5,1.48-5.24,2.23-.68.3-1.69.52-1.91,1-3.37,7.81-15,7.44-20.29,1.24-.43-.5-.82-1-1.46-1.85l-3,5.29-.35-.1c.69-1.67,1.4-3.33,2.07-5,.29-.73.83-1.54.72-2.23a13.5,13.5,0,0,1,3-10.58c-1.23-2.37-2.58-4.61-3.57-7s-1.61-4.93-2.39-7.42c0,0-.2,0-.21.08a38.51,38.51,0,0,1-5.54,13.55,2,2,0,0,0,.28,1.72,13.23,13.23,0,0,1,2.32,9.32,5,5,0,0,0,.6,2.25,49.85,49.85,0,0,1,2.63,7.54c-1.19-2.46-2.37-4.93-3.7-7.69-3.78,5.31-8.45,7.35-14.29,6.53a9.07,9.07,0,0,1-7.2-5.06,2.59,2.59,0,0,0-2.5-1.71,8.3,8.3,0,0,1-6.18-3.41,13.33,13.33,0,0,1,6.63-5.65,5.84,5.84,0,0,0,2.3-2.09c1.68-2.44,3.21-5,4.8-7.49-1.77-1.24-3-1.12-4.59,1-6.77,9-15.78,13.83-27.23,13.64a1.29,1.29,0,0,1-.69-.26,42,42,0,0,0,27.22-16.29l-14-2.11,0-.3c4.21.35,8.44.61,12.64,1.1,1.61.19,2.67-.05,3.44-1.57,1.53-3,3.16-6,4.9-9.31-.22,4.31-1.94,7.88-3.68,11.42,3.29,1.7,3.32,1.73,5.65-.79,3.49-3.78,7.15-7.42,10.3-11.46,2-2.59,3.27-5.8,4.89-8.71.34-.62.8-1.18,1.2-1.77-.12.18-.33.35-.37.54-1.3,6.6-5,11.88-9.26,16.83-2.13,2.46-4.3,4.88-6.43,7.29,2.94,1.86,5.75,3.62,8.6,5.41,3.94-4.89,6.13-10.57,7.43-16.72a38.23,38.23,0,0,0,7.34,16.68c2.94-1.85,5.72-3.59,8.45-5.32-3.21-3.81-6.46-7.49-9.52-11.34A30.94,30.94,0,0,1,227.61,0Zm22.54,44.47c-3.32-1.91-6.56-3.8-9.83-5.62a1.68,1.68,0,0,0-1.4-.07c-1.95,1.15-3.84,2.4-5.69,3.58a10.5,10.5,0,0,0,10.12,6.22C246.85,48.46,249.34,46.86,250.15,44.47Zm-45.29,0c1,2.56,3.66,4.11,7.18,4.07a10.21,10.21,0,0,0,9.73-6.32c-1.8-1.14-3.63-2.38-5.55-3.45a2.2,2.2,0,0,0-1.74.28C211.31,40.82,208.18,42.63,204.86,44.51Zm-.13-10.65c2.77.41,4.92.58,7,1.07,3.45.82,4.91.23,6.72-3.43-2.37-1.51-4.76-3.1-7.23-4.55a1.78,1.78,0,0,0-1.7.21C207.91,29.25,206.44,31.44,204.73,33.86Zm31.86-2.38-.12,1c1.51,1.07,3,3,4.51,3,2.93,0,5.86-1.12,9.15-1.85-1.52-2.18-2.95-4.34-4.55-6.37a2,2,0,0,0-1.85-.27C241.3,28.41,239,30,236.59,31.48ZM204,41.8l8.29-3.92-.24-.77c-1.37-.19-2.74-.48-4.11-.56C203.7,36.27,203.25,36.81,204,41.8Zm47.27,0a19.17,19.17,0,0,0-.05-3.42c-.14-.65-.72-1.72-1.12-1.73-2.36-.06-4.73.14-7.09.25l-.17,1ZM238,36.92,235,34.24c-1.7,2.12-2.29,4.18-1.69,6.22Zm-16.22,3.46.73-.24-2.3-6.55-3.15,3.3Zm36.66.14L254,37.41v4.38Zm-61.12-.46.07.73,3.59.9V37.43ZM434.6,27.69c-6-.1-11.93-.06-17.89-.1L268,26.63h-2.94c2.15,2.24,4,3.32,6.75,3.32q81.53-.15,163-.08c2.15,0,4.42-.41,5.3,1.44,2.12-.54,4-1.59,5.57-1.27,1.76.37,3.27,2,4.46,2.79l4.72-4.08L450.52,24c-1.62,1.3-3,3.16-4.62,3.51s-3.55-.86-5.84-1.52C439.1,27.77,436.9,27.73,434.6,27.69ZM187,26.63l-165.5,1c-2.63,0-5.45.63-6.65-1.72-2.15.68-4,1.93-5.56,1.58-1.74-.39-3.16-2.21-4.71-3.4L0,28.74,4.38,33.2C6,32.05,7.44,30.37,9.12,30.05s3.6.71,5.83,1.25c.74-1.92,3-1.43,5-1.43q81.65,0,163.27.08c2.8,0,4.59-1.09,6.67-3.32Z"/></g></g></svg>