<svg xmlns="http://www.w3.org/2000/svg" viewBox="0 0 455.41 40.8"><title>45</title><g id="Layer_2" data-name="Layer 2"><g id="Layer_1-2" data-name="Layer 1"><path d="M227.37,40.76a18,18,0,0,1-1.34-3.5,3.31,3.31,0,0,1,.74-2.32,1.82,1.82,0,0,1,1.78,0,3.15,3.15,0,0,1,.85,2.26A19.46,19.46,0,0,1,228,40.8Zm0-40.75A20,20,0,0,0,226,4.27c-.05.6,1.11,1.33,1.72,2,.6-.68,1.75-1.42,1.69-2A19.32,19.32,0,0,0,228,0Zm14,28.45a.51.51,0,0,1,.22,0c4.34,0,7.49-2.54,10.72-5a5.44,5.44,0,0,1,3-1q91.61-.07,183.19,0c.79,0,1.56.38,2.36.43a10.5,10.5,0,0,0,3.54,0c1.73-.51,3.18-.8,4.69.59a3.78,3.78,0,0,0,5.41-.39,3.93,3.93,0,0,0,0-5.13,3.72,3.72,0,0,0-5.4-.31c-1.54,1.39-3,1.08-4.71.51a8.28,8.28,0,0,0-3.15-.18c-1.07.09-2.13.63-3.19.63q-90.93.06-181.85.07a7.74,7.74,0,0,1-4.7-1.6,30.79,30.79,0,0,0-6.9-4c-4.67-1.72-9.52-3-14.29-4.46-.07,0-.08-.21-.18-.46l3.62-.8-.09-.5H221.85l-.06.59,4.28.8a7.44,7.44,0,0,1-1.78.71,17.81,17.81,0,0,0-9.4,3.19,2.47,2.47,0,0,1-1.24.43,13.52,13.52,0,0,0-8.85,3.81,8.1,8.1,0,0,1-6.71,2.26,18.37,18.37,0,0,0-2.46,0q-88.23,0-176.48-.08c-1.79,0-3.57-.63-5.38-.83a5.23,5.23,0,0,0-2.55.3c-1.77.79-3.28,1-4.89-.46a3.73,3.73,0,0,0-5.4.39A3.92,3.92,0,0,0,1,23a3.78,3.78,0,0,0,5.41.31c1.52-1.38,3-1.08,4.7-.51a8,8,0,0,0,3.17.19c1.07-.08,2.12-.62,3.18-.62q90.14,0,180.28-.09a10.06,10.06,0,0,1,7.49,2.6,11.31,11.31,0,0,0,3.56,2.27c4,1.58,8.15,3,12.28,4.41a26.07,26.07,0,0,0,4.27.71l0,.43-3.57,1,.17.36h11.62l.06-.5-3.19-.66Zm17.13-8.11c3.47-1,179.79-.83,181.3.31C436.33,21.5,260.08,21.14,258.45,20.35ZM196.9,20.3c-1.5.86-176.22,1.35-181.19.46C17,19.53,192.69,19.25,196.9,20.3Zm30.8,6.24-8.8-6.12,8.82-6.07,8.75,6.09Zm19.49-7.9c-6.92.26-10-4.56-13.93-8.06C238.83,11.35,242.45,15.31,247.19,18.64Zm-38.92,0c4.64-3.39,8.29-7.27,13.81-8.08C218.22,14.17,215.05,18.88,208.27,18.68Zm38.14,3.59c-2.86,3.72-9.59,7.78-13.42,8C237.15,26.82,240.18,22.11,246.41,22.27Zm-24.3,8c-5.44-.7-9-4.52-13-7.72C215.29,22.1,218.27,26.87,222.11,30.26Zm6.08-12.57c.63.91,1.65,1.76,1.81,2.76.23,1.39-.78,2.35-2.28,2.36s-2.52-.93-2.3-2.33c.16-1,1.14-1.86,1.76-2.79Z"/></g></g></svg>