<svg xmlns="http://www.w3.org/2000/svg" viewBox="0 0 439.5 50.85"><title>46</title><g id="Layer_2" data-name="Layer 2"><g id="Layer_1-2" data-name="Layer 1"><path d="M439.5,30.9c-4.06,1.61-8.12,3.25-12.21,4.79a2.39,2.39,0,0,1-1.8-.31c-1.53-.92-3-2-4.47-3a4.61,4.61,0,0,0-6.26.57,3.38,3.38,0,0,1-4.82,0c-1.68-1.64-4.39-2.27-6.09-.82-2.91,2.46-5.64,2-8.83.73a20.35,20.35,0,0,0-7.13-1.29q-77.73-.11-155.45-.05H230l-.11.31c1,.48,2.08,1,3.1,1.46,4.14,2.08,7.72,4.81,10,9,1.18,2.16.81,3.82-.93,4.53s-3-.13-3.75-2.39c-1.9-5.92-6.54-9.15-11.86-11.78a3.17,3.17,0,0,0,.4.49c4.31,3.62,6.53,8.42,7.75,13.77.52,2.28-.3,3.7-2.1,3.91s-3-.95-3-3.26c0-4.65-.8-9.07-3.61-12.89-1.29-1.76-2.65-3.71-5.66-2.91.7,3.23,1.32,6.42,2.11,9.57.36,1.45.41,2.82-.93,3.55a3.62,3.62,0,0,1-2.87,0c-1.39-.68-1.38-2.06-1-3.51.78-3.17,1.43-6.37,2.12-9.56l-.41-.63c-1.18.51-2.6.75-3.51,1.57-3.35,3-4.65,7-5.16,11.32-.15,1.25-.07,2.53-.16,3.79-.14,2-1.21,3-2.91,2.92s-2.67-1.42-2.29-3.38A24.64,24.64,0,0,1,212.08,34a5.07,5.07,0,0,0,1.22-1.45,9.15,9.15,0,0,0-1.4.58C207.15,36,203,39.32,201.36,45a2.49,2.49,0,0,1-3.46,1.87c-1.62-.52-2.18-2.05-1.35-3.85,1.95-4.26,5.4-7,9.4-9.21a28.48,28.48,0,0,0,3.88-2.24h-2.35q-76.83,0-153.65-.05c-3.8,0-7.45.3-10.85,2a5.22,5.22,0,0,1-5.77-.55,11.26,11.26,0,0,0-4.1-1.34,2.89,2.89,0,0,0-3.21,1.29c-1.18,1.63-3.48,1.49-4.92,0a4.68,4.68,0,0,0-5.72-.79,6.85,6.85,0,0,0-1.47,1c-2.93,3-6,2.9-9.57,1A79.66,79.66,0,0,0,0,30.77a18.84,18.84,0,0,1,1.66-.94c3.39-1.36,6.76-2.78,10.2-4a3.94,3.94,0,0,1,2.81.28c1.51.77,2.84,1.89,4.29,2.82A4.54,4.54,0,0,0,25,28.31a3.4,3.4,0,0,1,4.83-.07c1.72,1.64,4.42,2.31,6.07.91,3-2.49,5.73-2.07,9-.75a19.36,19.36,0,0,0,7.13,1.27q59.39.12,118.76,0a14.3,14.3,0,0,0,3.93-.65,29,29,0,0,1,14.79-.29c2.93.67,6,.91,8.95,1.34l.11-.58c-2.45-1-5-1.85-7.34-3A30.57,30.57,0,0,1,178,15.21c-1-1.58-1.6-3.31-.35-4.75a6.14,6.14,0,0,1,3.73-1.85c1.92-.17,3,1.33,3.63,3.07,3.61,9.39,11.16,14.42,20.1,17.72,1.67.62,3.67.31,5.63.06-1.55-.73-3.13-1.41-4.64-2.21-3.9-2.05-7.25-4.71-9.33-8.71-1.06-2-.69-3.72.92-4.38s3.09.17,3.83,2.31c2.37,6.86,7.61,11,14.12,12.93a14.84,14.84,0,0,0,12.69-1.7c4.47-3,8.54-6.22,10.12-11.72a2.56,2.56,0,0,1,3.7-1.77c1.62.84,1.87,2.24,1.12,3.8-2.52,5.21-7,8.18-12.07,10.45-.72.32-1.44.62-2.17.93l.2.79c2.68-.56,5.55-.68,8-1.76,8-3.53,14.66-8.54,17.76-17.22a4,4,0,0,1,5.67-2.28c2.09,1.06,2.69,3.68,1.3,6-4.17,6.82-10.47,10.84-17.81,13.5-1,.35-1.93.67-2.89,1l.09.6a66.46,66.46,0,0,0,7.49-1,29.25,29.25,0,0,1,15.67.1,15.77,15.77,0,0,0,4.37.64c38.47,0,76.94,0,115.41.08,4.84,0,9.45-.44,13.93-2.38a5,5,0,0,1,3.05.26c1.86.58,3.62,1.49,5.49,2A2.78,2.78,0,0,0,410,28.35a3.08,3.08,0,0,1,4.88.07c1.58,2.13,3.48,1.3,5.37.93a2,2,0,0,0,.94-.59c3.52-3.63,7.31-3.6,11.54-1.18a52.43,52.43,0,0,0,6.78,2.79Zm-228.23-14a43.53,43.53,0,0,1-.86-7c-.17-2.3-1.16-3.53-2.94-3.38s-3,1.79-2.15,4a66.69,66.69,0,0,0,4.87,10.66,10.81,10.81,0,0,0,7.92,5.29A14.38,14.38,0,0,1,211.27,16.89Zm23.38-8a3.22,3.22,0,0,0-2.1-2.3,4.13,4.13,0,0,0-2.83,1.75c-.48.66-.23,1.86-.28,2.83-.3,6.23-2.08,11.71-8.22,15.43C228.08,25.15,235.34,15.37,234.65,8.93Zm-14.47,13c.79-6.19,1.6-12.38,2.35-18.58.23-2-1-3.39-2.69-3.35s-2.74,1.48-2.52,3.49c.25,2.3.56,4.58.85,6.87L219.67,22Z"/></g></g></svg>