<svg xmlns="http://www.w3.org/2000/svg" viewBox="0 0 453.33 31.3"><title>47</title><g id="Layer_2" data-name="Layer 2"><g id="Layer_1-2" data-name="Layer 1"><path d="M219.93,22.63c-.45-.73-.72-1.76-1.37-2.14C211.42,16.33,204.3,12.13,197,8.25A108.14,108.14,0,0,0,183,2c-2.86-1-6.08-1.07-8.64-1.47a19,19,0,0,1,11.95,1.26c7.81,3.29,15.44,7,23.08,10.68,3.41,1.65,6.64,3.65,9.4,5.18,2.62-2.17,5-4.12,7.34-6.05.18-.15.7-.22.79-.1,2,2.36,6.09,2.54,6.56,6.69,1-.56,1.79-1,2.57-1.39,9.15-4.66,18.21-9.53,27.51-13.87C269.76,0,275-.36,280,.84c-9-.66-16.12,3.22-23.15,7.05C249.36,12,242,16.22,234.68,20.48c-.66.38-1,1.39-1.42,2.11l.44.45c1.33-.58,2.68-1.14,4-1.75,9.59-4.42,19.05-9.21,28.84-13.15,4.81-1.94,10.23-2.4,15.4-3.39a11.54,11.54,0,0,1,3.55.19c2.19.27,4.37.68,6.56.91,4.9.53,7.82,4.36,6.53,8.64-.84,2.8-3.06,4.35-7.3,4.68C295,17.68,297.65,16,296.79,12c-.46-2.11-2.26-3.18-5.39-3.33.93,3.23.94,6.28-1.6,8.68A28.68,28.68,0,0,0,291,11.84c.09-2.75-1-3.62-3.58-2.72-7.87,2.76-15.64,5.78-23.48,8.61-7.56,2.72-15.09,5.55-22.76,7.91-3.2,1-6.75.85-10.13,1.25a14,14,0,0,0-1.94.58,16.1,16.1,0,0,0,10.23.92c9.17-1.92,18.29-4.15,27.44-6.19,5.11-1.14,10.28-1.83,15.51-.73a12.55,12.55,0,0,1,2.93,1.05c-8.62-2-16.54.91-24.54,3.26-5.71,1.68-11.38,3.59-17.18,4.85-5.16,1.12-10.4,1-15-2.2-.67.63-1.23,1.56-2,1.72s-1.39-.68-2.4-1.25c-6,3.79-13.27,2.44-20.44.39-5.8-1.65-11.5-3.65-17.29-5.31-6-1.72-12.14-3.05-18.45-1.36,4.27-2.1,8.84-2.13,13.29-1.27,7.81,1.53,15.5,3.66,23.3,5.24,4.79,1,9.68,1.5,14.55,2,1.48.15,3-.45,4.57-.71l0-.59a14.25,14.25,0,0,0-3.65-.8c-6.51.31-12.52-1.71-18.45-3.93-10.8-4.06-21.53-8.31-32.31-12.44-1.38-.53-2.88-.74-4.3-1.2-1.66-.54-2.37.3-2.71,1.72A7.25,7.25,0,0,0,164,17.21c-2.56-1.25-3.24-4-2.15-8.33a4.49,4.49,0,0,0-5.3,2.77c-1,2.91.48,5.19,4.83,7.28a6.26,6.26,0,0,1-6.69-4.38,6.37,6.37,0,0,1,3.08-7.64A8.37,8.37,0,0,1,160,6.08c9-1.81,17.9-1.91,26.44,1.84,9.13,4,18.13,8.31,27.19,12.49l5.81,2.68ZM285.08,6.14a29.87,29.87,0,0,0-10.94,1.29C260.84,11,249.6,19,237.38,24.93a4.9,4.9,0,0,0,2-.17c4.3-1.42,8.7-2.61,12.87-4.36C263.24,15.77,274.17,10.89,285.08,6.14ZM168,5.77l0,.42c6.45,2.75,12.89,5.55,19.37,8.24q11.64,4.83,23.35,9.48a37.46,37.46,0,0,0,5,1.26c-4.9-3-9.86-5.65-14.84-8.29-7.49-4-15-8-23.38-9.81C174.39,6.38,171.16,6.19,168,5.77Zm60.47,7.94c.28,2.32.52,4.33.86,7.1,1.17-1.19,2.55-2,2.53-2.69A4.78,4.78,0,0,0,228.45,13.71Zm-3.72.09a4.57,4.57,0,0,0-3.36,4.38c0,.71,1.4,1.44,2.58,2.57C224.26,18,224.49,16,224.73,13.8ZM2.31,18.11c-1,.87-2.25,2-2.31,3.12s1.23,2.35,2.27,2.87a5.72,5.72,0,0,0,6.28-.8c.86-.64,2.2-1.42,3-1.17,3.36,1,6.6.13,9.91.08,23.39-.32,46.79-.19,70.19-.13a4.92,4.92,0,0,1,2.84,1.16c2.16,1.82,5.85,2.05,7.77,0A4,4,0,0,1,105.61,22c9.54,0,19.07,0,28.61.06,2.63,0,5.25.53,7.87.79a3.17,3.17,0,0,0,1.75-.1,3.19,3.19,0,0,1,4.08.21,2.47,2.47,0,0,0,2.11.32,15.77,15.77,0,0,0,2.71-2.16c-.88-.76-1.87-2.28-2.62-2.17-2.74.43-5.36,1.23-8.22.48-.92-.24-2.09.67-3.15.68q-16.87.07-33.75,0a4.14,4.14,0,0,1-2.44-1c-2.16-1.9-5.74-2.19-7.75-.17a4.41,4.41,0,0,1-3.55,1.25q-34.53,0-69.07-.05c-1.34,0-2.65-.7-4-.83a7.74,7.74,0,0,0-3.6.23,5.81,5.81,0,0,1-6.24-.61A15.3,15.3,0,0,0,5,17.4C3.85,17.68,2.84,17.63,2.31,18.11Zm448.26,6.2c1.62-.51,3.1-1.58,2.69-3.29a5.46,5.46,0,0,0-2.78-3,4.82,4.82,0,0,0-5.77,1.07c-1.74,1.84-3.8,1.43-5.48.68-1.91-.85-3.39-1.16-5.18.08a4.41,4.41,0,0,1-2.36.32q-35.1,0-70.19,0A4.94,4.94,0,0,1,358.66,19a6.4,6.4,0,0,0-7.86,0,5.37,5.37,0,0,1-3,1.18q-15.54.12-31.07,0a50.34,50.34,0,0,1-5.42-.73,3.26,3.26,0,0,0-1.95.1,3.18,3.18,0,0,1-4.07-.25,2.18,2.18,0,0,0-1.89-.35c-1.06.58-2.6,1.38-2.74,2.29a2.09,2.09,0,0,0,2.74,2.12c2.6-.69,5.11-1.27,7.77-.45.23.07.55-.21.83-.27a15.2,15.2,0,0,1,2.79-.52q16.65-.06,33.31,0a4.53,4.53,0,0,1,2.63,1.12c2.17,1.85,5.83,2.1,7.77.11a4.11,4.11,0,0,1,3.31-1.3c23.1,0,46.2,0,69.3.06,1.26,0,2.51.69,3.79.81a8.06,8.06,0,0,0,3.8-.18,5.53,5.53,0,0,1,6.23.67,14.47,14.47,0,0,0,3.29,1.45C449.27,24.59,449.94,24.51,450.57,24.31Z"/></g></g></svg>