<svg xmlns="http://www.w3.org/2000/svg" viewBox="0 0 456.96 27.43"><title>48</title><g id="Layer_2" data-name="Layer 2"><g id="Layer_1-2" data-name="Layer 1"><path d="M171.57,25.37a24.6,24.6,0,0,1,.89-4.88c.29-.71,1.45-1.15,2.3-1.52.3-.12.85.36,1.29.56-.24.4-.39,1-.73,1.16-2,.71-2,2-1.18,3.55.71,1.25,2.57,1.29,3.88,0,1.62-1.63,3-3.51,4.53-5.23,1.71-1.91,3.55-3.68,6.33-3.78.49,0,1,.41,1.5.63-.34.39-.6,1-1,1.16-2.76,1.17-3.62,3.15-2.45,5.86A4.19,4.19,0,0,0,193,24.6a27.69,27.69,0,0,0,5.2-4.49c2.34-2.4,4.37-5.1,6.76-7.44A14.38,14.38,0,0,1,220,9.07c6.94,2.11,9.51,8.62,6.2,15.15-.12.25-.21.51-.4,1h5.33c-.46-1-.88-1.74-1.18-2.54C227.44,16,232,9.27,239.5,8.47a14.69,14.69,0,0,1,12.66,4.32c2.34,2.39,4.42,5.05,6.73,7.46a25.28,25.28,0,0,0,4.84,4.25,4.26,4.26,0,0,0,6.71-2.93A3.79,3.79,0,0,0,267.86,17c-.5-.2-.86-.77-1.29-1.17.57-.22,1.27-.78,1.68-.62a16.45,16.45,0,0,1,4.68,2.35,44,44,0,0,1,4.29,4.83,12.77,12.77,0,0,0,2.22,2.19c1.22.84,2.63,1,3.47-.51.74-1.3.65-2.56-1-3.29-.42-.18-.66-.81-1-1.23.58-.18,1.2-.59,1.73-.5,1.69.31,2.81,2.19,2.6,4.15-.06.65-.21,1.29-.36,2.17h3q82.86,0,165.73,0a13.85,13.85,0,0,1,3.34.87c-.64,1.77-2.15,1-3.25,1q-225.22.06-450.44,0a12.28,12.28,0,0,1-3.27-1,13.13,13.13,0,0,1,3.31-.89q82.86-.06,165.73,0Zm73.69-.08c-.26-.92-.5-1.54-.61-2.18A3.8,3.8,0,0,1,248,18.44c.58-.06,1.21.47,1.82.73-.46.36-.87.92-1.39,1.06-1.28.34-2,1.05-1.83,2.37A2.53,2.53,0,0,0,249,25.1c2.72.33,4.14-.82,4.23-3.52a10.77,10.77,0,0,0-6.75-10.36c-4.77-1.92-10.27-.91-13.23,2.41a8,8,0,0,0-.83,9.54A3.89,3.89,0,0,0,236.57,25,4.21,4.21,0,0,0,240.32,22c.45-1.62.18-3.28-1.53-4s-2.91-.13-3.29,1.84c-.07.34-.71.57-1.09.85-.24-.41-.7-.83-.67-1.22A3.51,3.51,0,0,1,236.4,16a4.2,4.2,0,0,1,4.68,1.23,5.58,5.58,0,0,1,.91,5.87c-.27.71-.66,1.37-1.05,2.17Zm-29,0c-1.91-2.65-2.26-5.1-.64-7.57a3.65,3.65,0,0,1,4.65-1.63c1.18.51,2.07,1.83,2.91,2.93.21.28-.31,1.11-.5,1.68-.43-.38-.84-.79-1.29-1.15-.73-.59-1.54-1.67-2.21-1.59a3.58,3.58,0,0,0-2.35,1.81c-.9,1.91.17,3.95,2.23,4.91a4.11,4.11,0,0,0,5.62-1.57,8,8,0,0,0-3.41-11.41,12.08,12.08,0,0,0-12.36.47,10.2,10.2,0,0,0-5,10.22c.16,1.88,1.33,2.69,3.15,2.78s3-.38,3.35-2.19-.7-2.52-2.32-2.82c-.33-.06-.55-.69-.83-1.06.42-.24.82-.66,1.25-.7A3.87,3.87,0,0,1,212.31,23a21,21,0,0,1-.55,2.26Zm44.68,0-5.59-6.05c-.24,2.11-.45,4-.68,6.05Zm-58.57,0-.65-6.08-5.54,6.08Zm-22.38,0h5.74l-1.52-5.15Zm97.13.05-4.29-5.2c-.57,2-1,3.54-1.5,5.2ZM236.29,7.13c-.57.49-1,.84-1.4,1.22-1.76,1.66-3.61,3.24-5.21,5.05-.92,1-1.31,1.28-2.34.1A43.88,43.88,0,0,0,222,8.33c-1.36-1.08-1.08-1.46.11-2.41a42.06,42.06,0,0,0,5.23-5c.92-1,1.28-1.3,2.32-.11,1.63,1.87,3.54,3.5,5.34,5.22C235.3,6.35,235.7,6.64,236.29,7.13Zm-11.59.36L228.35,11l4-4.05L228.44,3.2Z"/></g></g></svg>