<svg xmlns="http://www.w3.org/2000/svg" viewBox="0 0 435.8 19.51"><title>49</title><g id="Layer_2" data-name="Layer 2"><g id="Layer_1-2" data-name="Layer 1"><path d="M255.22,9.06c-1.34-1.15-1.39-2.63-.09-3.51.83-.56,3-.59,3.39,0a7.62,7.62,0,0,1,1.36,4.73c-.28,2.11-2.16,3.13-4.33,3.17A5.65,5.65,0,0,1,250,8.91a7,7,0,0,1,3.23-7.55,9.15,9.15,0,0,1,10,1A8.78,8.78,0,0,1,266,11.73c-2,6.17-8.38,9.47-14.45,6.81-3.24-1.41-6.07-3.89-8.85-6.17s-5-5-7.8-7.23c-4.73-3.71-10.24-3-13.28,1.47a6.6,6.6,0,0,0,.56,8.32,6.25,6.25,0,0,0,7.58,1,4.16,4.16,0,0,0,1.83-5.29c-.78-1.58-2.1-2.58-3.88-1.94a5.2,5.2,0,0,0-2.16,2c-.15.21.49,1.43.74,1.42a13.53,13.53,0,0,0,3-.89c-.3,1.1-.27,2.39-.83,2.73a3.46,3.46,0,0,1-2.87.11c-1.95-.93-2.51-3.65-1.4-5.55a5,5,0,0,1,6.74-1.66A6.44,6.44,0,0,1,234,14.37a7.44,7.44,0,0,1-7.86,5.07c-4.08-.37-7-2.35-8.23-6.58-2.55,5.53-7.09,7.79-11.81,6.11a7.24,7.24,0,0,1-4.72-6.2,6.68,6.68,0,0,1,3.89-6.16,4.87,4.87,0,0,1,6.22,2A3.86,3.86,0,0,1,210.23,14a4,4,0,0,1-3.11,0c-.51-.24-.5-1.59-.8-2.7a15.06,15.06,0,0,0,3,.9c.18,0,.79-1.18.61-1.49a4.18,4.18,0,0,0-1.85-1.87c-1.85-.63-3.29.13-4.09,2A4,4,0,0,0,205.84,16a5.88,5.88,0,0,0,7-.55A5.89,5.89,0,0,0,215,8.78a8.34,8.34,0,0,0-11.75-5.11,35.92,35.92,0,0,0-6.5,5c-3,2.62-5.67,5.67-8.86,8-6.17,4.58-13.54,3.37-17.17-2.52a8.65,8.65,0,0,1,0-9.79c2.15-3.32,5.44-4.51,9.24-3.9a6.42,6.42,0,0,1,5.57,5,6.11,6.11,0,0,1-2,6.72,5.12,5.12,0,0,1-7-.36,4.47,4.47,0,0,1,.22-6.24c1.19-1.06,2.49-1.41,3.8-.22,1,.93.93,2.11-.42,3.9a4.08,4.08,0,0,0-.2-1.21,10.66,10.66,0,0,0-1.05-1.28c-.47.43-1.41,1.05-1.33,1.26.41,1,.89,2.42,1.73,2.78a2.63,2.63,0,0,0,3.81-1.78c.28-1.46.08-3.65-.85-4.56a6.75,6.75,0,0,0-4.92-1.64A6.42,6.42,0,0,0,172,10.3a8,8,0,0,0,8.1,6.29c4.24-.34,7.44-2.63,10.32-5.54,2.68-2.7,5.24-5.56,8.14-8,4.06-3.45,10.1-4.08,14.12-1.24,2.18,1.53,3.66,4.06,5.48,6.17-.36.32-.05.18,0,0,2-8.34,12.64-9.76,18-5.53a94.86,94.86,0,0,1,7.71,7.31c2.71,2.71,5.4,5.41,9.25,6.47,4.58,1.26,8.58-.66,10.2-4.86,1-2.66.19-4.91-1.72-6.76S257.54,2,255,3.13a4.56,4.56,0,0,0-2.58,5.92c.85,1.93,3.41,2.78,4.84,1.43a3.83,3.83,0,0,0,.81-2.54c0-.38-.94-.76-1.45-1.14ZM151.38,10a15.82,15.82,0,0,0-2.84-.5q-66.28,0-132.56,0c-4.62,0-9.23,0-13.84,0A8.5,8.5,0,0,0,0,10.07l.2.82h151Zm133.14-.08c1.44,1,148.2,1.34,151.28.2C433.88,8.66,286.25,8.63,284.52,9.88Z"/></g></g></svg>