<svg xmlns="http://www.w3.org/2000/svg" viewBox="0 0 435.2 16.43"><title>50</title><g id="Layer_2" data-name="Layer 2"><g id="Layer_1-2" data-name="Layer 1"><path d="M397.9,8.41H36.67V7.74H397.9ZM3.12,6.73C2.1,6.69,1,7.5,0,7.92A28.87,28.87,0,0,0,3,9.33a5.46,5.46,0,0,0,1.85,0l26.23-1.2C21.51,7.64,12.32,7.11,3.12,6.73ZM404.2,8.3c9.37.41,18.74.87,28.12,1.19.94,0,1.92-.8,2.88-1.23-1-.46-2-1.36-2.95-1.33-9.38.34-18.74.83-28.11,1.28ZM22.56,6.24,7.64.49C7.86,3.92,17.12,7.07,22.56,6.24ZM425.8,3.41c.82-.42,1.26-1.6,1.87-2.44-.94.14-2.06,0-2.8.46a30.21,30.21,0,0,1-13.44,4.69A24.43,24.43,0,0,0,425.8,3.41ZM8.12,15.43,22,9.8A25.78,25.78,0,0,0,9.17,13c-.78.45-1.19,1.53-1.76,2.32Zm417-.42a10.82,10.82,0,0,0,2.45.41c-.48-.75-.78-1.8-1.46-2.19A23.3,23.3,0,0,0,413.6,10C417.1,11.56,421.11,13.32,425.15,15ZM34.48,5.1c1-1.14,1.4-2.89,2.07-4.37L35.87.42C34.39,4.7,34.19,4.93,32,5.09a12.73,12.73,0,0,0,.52-3.39C32.46,1.12,31.45.61,30.81.17c-.07,0-.62.66-.95,1L32,2.31c.47,2.17-1.82,2.3-3.42,3.34C30.93,6.86,33,6.71,34.48,5.1Zm368,8.1a7.5,7.5,0,0,0,1.5,2.91c.08.11.91-.23,1.34-.46.12-.06.15-.66.07-.7a5.39,5.39,0,0,0-1.3-.38,3.32,3.32,0,0,0-.83,0l-.52-.75,3.48-3.34c-4.49-1.61-7.32.6-6.91,5.92.9-2.58,1-5.38,4.45-5.71C403.19,11.68,402.35,12.5,402.44,13.2ZM417.87,16c-.4-3-6.92-4.83-10.46-3.4ZM26.71,4.06,17,0C18.25,3.27,22.25,4.73,26.71,4.06Zm.62,8.33c-4.54-.89-9.14.46-10.28,3.63ZM408.09,4.17c4.67.74,8.72-.54,10.07-3.87ZM32,14.29l-2.15.52c.17.37.4,1.06.51,1,.71-.13,1.64-.21,2-.69A2.91,2.91,0,0,0,32.73,13a11.16,11.16,0,0,0-1.28-2.56L35,11.74C33,9.35,31,9.29,28.3,10.59,30.57,11.47,32.41,12.08,32,14.29ZM401.45,5.82c1.4.59,3.12.42,4.7.59l.06-1.12c-1.46-.07-3.27.37-4.29-.33-1.29-.9-1.95-2.72-2.91-4.2C398.85,2.89,399.34,4.93,401.45,5.82Z"/></g></g></svg>