<svg xmlns="http://www.w3.org/2000/svg" viewBox="0 0 435.07 33.01"><title>51</title><g id="Layer_2" data-name="Layer 2"><g id="Layer_1-2" data-name="Layer 1"><path d="M253,23.19c-8.33,9.27-18.66,11.63-30.4,8.27a18,18,0,0,0-10.52,0c-11,3.2-21.06,1.33-29.37-7.13-.37-.37-.69-.8-1-1.2l.31-.72a8.15,8.15,0,0,1,2.12,1.09c3.8,3.74,8,6.71,13.34,7.84,6.18,1.31,12.12.3,18.34-1.9-8.71-4-17.07-7.79-25.47-11.53a4.3,4.3,0,0,0-2.78-.21C180.82,19.82,174,21,166.44,20c.93.77,1.55,1.22,2.1,1.74a6.17,6.17,0,0,1-.76,9.68c-2.9,2-8.12,2.06-10.81,0a8.68,8.68,0,0,1-2.57-9.66,43.12,43.12,0,0,1,3-5.63A10.74,10.74,0,0,1,154,7.4c.29-3.38,2.27-6.13,5.24-7,3.94-1.13,8.3,0,10.17,2.74,2.06,3,1.47,5.82-2,9.26,3.5.22,6.88.28,10.21.71A50,50,0,0,1,186.13,15a6.8,6.8,0,0,0,5.31-.19c7.92-3.7,15.89-7.32,23.9-11C205.61-.6,195.07.34,187.52,6.56c-1.16,1-2.23,2-3.4,3a14.65,14.65,0,0,1-2.05,1.16l-.44-.54A15.85,15.85,0,0,1,183,8.45c6.94-6.83,15.34-9.84,24.81-7.65a40.61,40.61,0,0,0,19.11,0c8.72-2,16.68.44,23.46,6.37.67.58,1.28,1.23,1.9,1.87a11.45,11.45,0,0,1,.8,1l-.42.62a12,12,0,0,1-2.38-1.43c-4.6-4.42-9.82-7.59-16.35-8A34.42,34.42,0,0,0,219,3.66c8.77,4,17.11,7.81,25.47,11.57a3.43,3.43,0,0,0,2.25.28,51,51,0,0,1,20.86-2.71c-1-1-1.6-1.59-2.1-2.26a6.23,6.23,0,0,1,1-8.6,10.21,10.21,0,0,1,10.79-.72,8.27,8.27,0,0,1,3.29,9.15c-.67,2.21-2.06,4.21-3.23,6.51,2.77,2.81,4.37,6.37,3,10.78a6.83,6.83,0,0,1-6.07,5.19c-3.58.43-7,0-9.17-3.37-2-3.08-.93-6.29,2.53-8.86-4.18-.33-8.59-.65-13-1.05a10.71,10.71,0,0,1-3.62-.79c-3.8-1.82-7.24-1-10.84.75-6.89,3.42-13.91,6.58-20.92,9.87,12,4.67,22.35,3,30.93-5.52a15.83,15.83,0,0,1,2.34-1.65Zm-9.53-6.67c-8.29-4-16.32-7.88-24.4-11.67a4,4,0,0,0-3-.17c-8.34,3.86-16.62,7.84-25,11.82C199,20.29,206.73,24,214.42,27.77a5.93,5.93,0,0,0,5.76,0C227.87,24,235.63,20.32,243.5,16.52ZM269.12,6.44c1.39-.48,2.68-1.39,3.54-1.09a4.13,4.13,0,0,1,2.28,2.72c.63,3.28-2,4.28-4.58,5.26,1.46.6,2.66,1.18,3.91,1.58a2.41,2.41,0,0,0,1.87,0,7.41,7.41,0,0,0,2.9-7C278.7,5.2,277.6,3,274.8,2a7.18,7.18,0,0,0-7.63,1.61A4.12,4.12,0,0,0,269,10.74a5.1,5.1,0,0,0,3.19-.45c.44-.21.81-1.79.55-2C272,7.58,270.89,7.28,269.12,6.44Zm.44,19.68a9.58,9.58,0,0,0,3-1,2.17,2.17,0,0,0-.17-2.1c-.77-.55-2.09-1.09-2.8-.78-1.34.58-3.17,1.61-3.41,2.75a6,6,0,0,0,1.4,4.65c2.19,2.37,6.59,2.35,9,.43s3.27-6.46,1.46-9.7c-1.11-2-2.38-3.53-5-1.82a16.75,16.75,0,0,1-3.22,1.28c3.73.85,5.41,2.15,5.09,4.51a5,5,0,0,1-2.25,3.35A2.21,2.21,0,0,1,269.56,26.12ZM164.82,19.9c-1.66-.69-3.17-1.37-4.72-1.94a2,2,0,0,0-1.42,0c-2,1-3.41,4.75-3,7.54.44,3,2.21,5.13,4.79,5.75,2.85.69,6.48-.26,7.56-2.53.63-1.3.79-3.58,0-4.58s-2.93-1.53-4.54-1.83c-.4-.08-1.09,1.43-1.65,2.21A23.84,23.84,0,0,0,164,25.86c.27.14.71-.05,1.07-.08l.29,1c-1.17.35-2.67,1.32-3.43.92a4.7,4.7,0,0,1-2.25-3.34C159.63,21.24,162.11,20.35,164.82,19.9Zm1-13.35a20.06,20.06,0,0,0-3.8,1.7c-.24.18.15,1.91.53,2a6.33,6.33,0,0,0,3.68.26c3.3-1.2,3.63-5.21.75-7.43a7.47,7.47,0,0,0-8.89-.1c-2.38,1.91-3.2,5.87-1.85,9s2.6,3.55,5.6,2.32c.77-.31,1.57-.58,2.76-1-2.92-.86-5.41-1.94-4.88-5.19A4,4,0,0,1,162,5.35C162.92,5.06,164.23,6,165.82,6.55Zm19.9,10c-8.27-2.57-16.47-4-25.18,0C169.32,20.53,177.56,19.13,185.72,16.52Zm63.15,0c8.22,2.49,16.47,4.07,25.24,0C265.35,12.51,257.12,14,248.87,16.54Zm48.93,1c1,0,2,0,3.06,0,31.88.26,63.75.59,95.62.74,4.54,0,8.81.28,12.54,3.18a4.31,4.31,0,0,0,1.3.47V12.18c-3.47,1-6.8,2.59-10.16,2.69-13.67.41-27.34.34-41,.45q-29.43.25-58.85.54a14.51,14.51,0,0,0-2.66.51ZM40.29,18.3Q87.14,18,134,17.56h3.32l.2-1.23a19.13,19.13,0,0,0-3-.48q-47-.42-94-.77c-5.44,0-10.84.1-15.49-3.39-.08-.06-.32.08-.51.13V22.75C29.43,18,34.85,18.34,40.29,18.3Zm391.36-1c-2.57-1.11-4.88-.18-7.15.79-2.67,1.14-5.36,2.09-8.19.92-.92-.38-2.15-1.45-2.15-2.21s1.14-1.95,2-2.35c2.59-1.14,5.13-.41,7.71.54a17.72,17.72,0,0,0,6.36,1.34,4.6,4.6,0,0,0,4.48-6c-3.63,4.19-4.93,4.16-9.81,1.19a19.33,19.33,0,0,0-7.57-2.56c-3.25-.37-5.35,2.87-5.49,7.6s2,8.07,5.26,8.26c3,.18,5.48-1,7.86-2.71,4.53-3.23,6.31-3,10,1.38C435.33,20.09,434.3,18.44,431.65,17.29Zm-427.08-1A17.32,17.32,0,0,0,10.94,15c2.84-1,5.61-1.87,8.41-.25A3.18,3.18,0,0,1,20.81,17c0,.61-.87,1.51-1.57,1.84-2.58,1.22-5.17.69-7.73-.29a24.12,24.12,0,0,0-5-1.63C2.18,16.25-.87,19.58.23,23.5,3,19.22,5.34,18.81,9.57,21.74a19,19,0,0,0,4.11,2.38c5.06,1.83,8.29.28,9-4.75a17.88,17.88,0,0,0-1.05-8c-.39-1.17-2.4-2.25-3.83-2.51C14.43,8.26,11.72,10.1,9.06,12c-3.86,2.73-6.3,2.1-8.8-2.2C-.65,13.23,1.15,16.15,4.57,16.29Z"/></g></g></svg>