<svg xmlns="http://www.w3.org/2000/svg" viewBox="0 0 433.78 24.57"><title>52</title><g id="Layer_2" data-name="Layer 2"><g id="Layer_1-2" data-name="Layer 1"><path d="M401.46,11.86c-1.6,1.58-367.58,1.65-369.73,0Zm7-5-.84-.2-2.4,3.76c-1.88.54-3,2.35-1.62,2.83,2,.68,2.41,2,3.07,3.54.17.38.95.49,1.68.82-1.11-3.13-.53-4,2.09-3.59.14.89.27,1.78.33,2.13,1.1-.34,2.06-1,2.82-.8,2.16.51,4.16,1.73,4.24,4.13,0,1.06-1.38,2.16-2.38,3.59a3.36,3.36,0,0,0,4.36,1.09,5.79,5.79,0,0,0,2.67-3.5c.5-2.17-1.07-3.7-3-4.52-2.15-1-4.44-1.6-6.67-2.38a21.5,21.5,0,0,1,4.47.28c5.54.9,11.22,3.4,16.24-1.45a1.55,1.55,0,0,0,.2-.32,8.52,8.52,0,0,1-2.06-1.23c-2.37-2.58-5.09-2.53-8.25-1.74-3.68.93-7.48,1.33-11.46,2,3.06-1.3,5.86-2.32,8.49-3.67a3.47,3.47,0,0,0,1.92-4.48,5.91,5.91,0,0,0-3-2.9,3.38,3.38,0,0,0-4.15,1.41c1,1.15,2.59,2.08,2.61,3,.06,2.4-1.85,3.76-4,4.37-.88.25-2-.35-3.12-.59-.08.45-.23,1.38-.43,2.55C407.26,10.62,407.48,8.94,408.48,6.89Zm-389.61,4C15.29,10.31,11.75,9.45,8.16,9a9.12,9.12,0,0,0-4.45.84A20.36,20.36,0,0,0,0,12.47a9.91,9.91,0,0,1,2.37,1.31C4.52,15.91,6.93,16,9.73,15.35c3.71-.85,7.5-1.34,11.25-2-2.54,1.28-5.28,1.93-7.51,3.37a6,6,0,0,0-2.05,4.42c0,1.06,1.52,2.56,2.7,3.08A3.27,3.27,0,0,0,18.35,23c-1-1.26-2.7-2.84-2.44-3.29a13.31,13.31,0,0,1,3.94-4.21c.58-.4,2,.44,3.17.73l.29-2.34c2.7,0,3.1.63,2.88,3.88l1.92-3c.91-.9,2.26-1.65,2.29-2.44S29.05,10.74,28,9.62L26.3,7c-.65,1.55-.89,3.45-1.65,3.69-2.69.82-.71-2.24-1.34-2.54-1.3.55-2.15,1.27-2.8,1.12-2.27-.52-4.34-1.8-4.56-4.22-.09-1,1.48-2.2,2.45-3.52A3.3,3.3,0,0,0,14.17.35a6.08,6.08,0,0,0-2.85,3c-.7,1.88.45,3.58,2.13,4.41,2.64,1.3,5.44,2.26,7.66,3.15A10.38,10.38,0,0,1,18.87,10.92Z"/></g></g></svg>