<svg xmlns="http://www.w3.org/2000/svg" viewBox="0 0 435.2 8.64"><title>53</title><g id="Layer_2" data-name="Layer 2"><g id="Layer_1-2" data-name="Layer 1"><path d="M36.29,7.36H399C397.37,8.75,38.83,9,36.29,7.36ZM421.13,2.94A17,17,0,0,1,409.92,7.6a38,38,0,0,0-4.6.76c9.84,1.44,17.72-3,26-5.93C427.82-.31,424.57-.18,421.13,2.94ZM12,1.45a1.86,1.86,0,0,0-.7-.36A6.62,6.62,0,0,0,3.84,2.43c8.38,2.75,16.23,7.45,25.69,5.8C22.84,8.09,16.86,6.19,12,1.45ZM2.23,5C1.42,5.07.74,6.06,0,6.65c.8.35,1.61,1,2.41,1,3.44,0,6.89-.25,10.66-.42C9.56,5.46,6,4.44,2.23,5ZM432.8,7.68c.8,0,1.6-.66,2.4-1-.73-.59-1.4-1.6-2.2-1.7A18.29,18.29,0,0,0,422.2,7.2C425.94,7.39,429.37,7.64,432.8,7.68ZM23.61,6.44c-1.56-1.84-3-3.8-4.73-5.47-.69-.66-2-.67-3-1,.26,1,.19,2.48.84,2.94A75.27,75.27,0,0,0,23.5,6.88Zm388.29.49c2.27-1.36,4.62-2.59,6.75-4.15.6-.44.54-1.8.78-2.74-1,.28-2.39.23-3.07.89a67.27,67.27,0,0,0-4.73,5.49Zm-382,0a51.46,51.46,0,0,0-4.14-5c-.71-.68-2.05-.7-3.1-1,.21,1,.11,2.3.7,2.75a73.61,73.61,0,0,0,6.27,4ZM412.53,3c.33-.39.57-1.34.35-1.58a2.13,2.13,0,0,0-1.76-.69,5.19,5.19,0,0,0-2,1.57c-1.32,1.5-2.55,3.07-3.92,4.74C408.3,6.9,410.6,5.23,412.53,3Z"/></g></g></svg>