<svg xmlns="http://www.w3.org/2000/svg" viewBox="0 0 434.55 19.61"><title>54</title><g id="Layer_2" data-name="Layer 2"><g id="Layer_1-2" data-name="Layer 1"><path d="M29.83,10.26c2.57-1.46,372.84-1.38,374.83,0ZM20,12.41c1.07-1,2.29-1.71,3.86-.22.49.47,2.59.09,3.15-.58a3.21,3.21,0,0,0,0-3.2c-.69-.66-2.25-.51-3.44-.52-.38,0-.77.63-1.14,1C18.15,7.23,15.69,3.79,13.32,0l-3,2.25,7.12,6-.36.63L7.8,4,5.26,6l8.47,3.26a24.25,24.25,0,0,1-8.16-.91A4.74,4.74,0,0,0,0,9.92c1.56,2,3.33,2.39,5.79,1.66a60.46,60.46,0,0,1,8.11-1.36l.06.46L5.12,14.05,7.79,16l9.41-4.74.23.55-7.08,6,2.55,1.85C15.44,17,17.64,14.63,20,12.41ZM421.74,19.6l2.49-1.93-7.24-6,.33-.61L426.78,16l2.52-2-8.75-3.34a27.59,27.59,0,0,1,8.35,1c2.52.8,4.2.23,5.65-1.71-1.62-2-3.45-2.19-5.87-1.45a55.69,55.69,0,0,1-8,1.3l0-.46,8.75-3.34L426.76,4l-9.37,4.73-.25-.59,7.08-6-3-2.13c-3.56,5.53-5.28,7.16-9.21,8.79-1.27-1.61-2.93-2.38-4.4-.58a3.58,3.58,0,0,0,0,3.46c1.47,1.81,3.12,1,5-1.3C415.77,13.57,418.69,16.52,421.74,19.6Z"/></g></g></svg>