<svg xmlns="http://www.w3.org/2000/svg" viewBox="0 0 435.53 22.83"><title>55</title><g id="Layer_2" data-name="Layer 2"><g id="Layer_1-2" data-name="Layer 1"><path d="M248.29,11.09C254.78,15.44,260,20.17,267.2,21c3.18.37,5.56-.84,5.72-3.31a4.48,4.48,0,0,0-1.75-3.59,2.46,2.46,0,0,0-3.81,1.76l.53.64c0-.27,0-.68.15-.77.69-.41,1.47-1.06,2.14-1a2.12,2.12,0,0,1,1.32,1.64,3.16,3.16,0,0,1-1,2.21,2.89,2.89,0,0,1-4.31-1.08,3.5,3.5,0,0,1,1.69-4.89,5.2,5.2,0,0,1,7.07,2.76,5.32,5.32,0,0,1-3.39,6.83,11,11,0,0,1-8.79-.76A99.33,99.33,0,0,1,251,14.23c-2.22-1.62-3.75-2.05-6.17-.3C239,18.18,231.9,18.53,225,19c-8.6.62-17.24.46-25.67-1.54a32.34,32.34,0,0,1-9.19-3.93c-2-1.26-3.26-1.07-5.07.24a116.24,116.24,0,0,1-10.91,7.08,12.73,12.73,0,0,1-9.75,1.51c-2.92-.77-4.82-3.91-4.05-6.54s3.91-4.52,6.53-3.41a5.54,5.54,0,0,1,2.73,3.14c.25.82-.63,2.38-1.45,3.06a2.45,2.45,0,0,1-3.87-.79c-.37-.68.18-1.87.31-2.83l3.47.62c0-1.34-1.24-1.85-2.93-1.77-1.84.08-2.68,1.23-2.79,2.93A3.89,3.89,0,0,0,166.56,21a20.41,20.41,0,0,0,7.66-1.73c4.25-2.13,8.19-4.87,12.74-7.65-6-4.16-11.1-8.51-18-9.8-3.39-.63-6.06.58-6.43,3.1a4.65,4.65,0,0,0,1.14,3.47c.57.58,2.23.59,3.12.21.69-.31.94-1.62,1-2.48-.62.68-1.17,1.76-1.89,1.9-.57.12-2-1.07-1.93-1.46a3.91,3.91,0,0,1,1.64-2.6,2.69,2.69,0,0,1,3.75,1.52A3.31,3.31,0,0,1,168,10a5.18,5.18,0,0,1-7-1.81c-1.45-2.28-.83-5.73,1.75-6.89,1.9-.85,4.44-1.49,6.33-.95A49.09,49.09,0,0,1,179.41,5a94.91,94.91,0,0,1,8.29,5.79c8.87-7,19.51-7.12,30.06-7.09s21.06.06,30,7.06c3.46-2.38,6.68-4.93,10.22-6.89A33.84,33.84,0,0,1,267.23.2c4.1-.87,7.18,1.2,7.9,4.49A4.66,4.66,0,0,1,272.8,9.9c-1.92,1.25-4.09,1.27-5.64-.29a4.64,4.64,0,0,1-1-3.92c.29-.91,2.12-1.74,3.3-1.78.69,0,1.62,1.46,2.07,2.44.14.29-1,1.7-1.47,1.65-.87-.11-1.66-.9-2.64-1.51-.24,1.38.6,2.31,2.33,2.5,2.07.23,3.19-.92,3.41-2.87a4.05,4.05,0,0,0-4.07-4.36,11.93,11.93,0,0,0-5.44.86C258.6,5.14,253.76,8,248.29,11.09Zm-1.83.33c-9.41-9.76-49.19-9.37-57.4.11C198.73,21,237.65,20.76,246.46,11.42ZM0,12.82c50.35,0,100.7,0,151.15-.55a4.25,4.25,0,0,0-2.74-1q-66.7,0-133.4,0H.15Zm435.53-1.63a20.38,20.38,0,0,0-2.88-.41q-61.35,0-122.71,0c-7.81,0-15.61,0-23.42,0a8.82,8.82,0,0,0-2.27.65l.28.83H435.3C435.38,11.91,435.45,11.55,435.53,11.19Z"/></g></g></svg>