<svg xmlns="http://www.w3.org/2000/svg" viewBox="0 0 434.4 22.3"><title>56</title><g id="Layer_2" data-name="Layer 2"><g id="Layer_1-2" data-name="Layer 1"><path d="M36.42,9.74H397.69l.2.55a5.22,5.22,0,0,1-1.69.71c-2.3.08-4.61,0-6.92,0q-175,0-350,0a26.37,26.37,0,0,1-3.05-.35Zm366.91.78c10.32,1.26,20.59,3.46,31.07,1.19C424.16,8.48,413.72,10.34,403.33,10.52ZM31,10.11c-8.49,0-17-.07-25.46.05A29.79,29.79,0,0,0,0,11.3l.18,1c10.4,1.53,20.63-.42,30.91-1.49ZM11.19,7c4,1.37,8.31,2,12.48,2.94a63,63,0,0,0-8.53-3C12.08,5.92,10.05,4,10.47,0,8.13,3,8.38,6.06,11.19,7Zm12.32,5.13a75.23,75.23,0,0,0-11.39,3c-3.14,1.21-3.54,4.17-1.3,7C11.54,14.06,18.77,14.84,23.51,12.14ZM410.69,9.72a83.69,83.69,0,0,0,12.09-2.4c3.13-1,3.72-3.64,1.85-6.81C423.09,8.72,415.71,7.23,410.69,9.72Zm2.58,3.33c4.24,2.16,10.52,1.94,10.32,9.25,2.37-2.65,2.14-5.58-.76-6.9a85.66,85.66,0,0,0-9.41-3.11Z"/></g></g></svg>