<svg xmlns="http://www.w3.org/2000/svg" viewBox="0 0 435.6 28.28"><title>57</title><g id="Layer_2" data-name="Layer 2"><g id="Layer_1-2" data-name="Layer 1"><path d="M391.05,13.48c-1.53,5.81-5.67,8.66-11.22,10-7.82,1.8-15.62,2.08-23.39-.25-5.13-1.53-7.52-3.5-9.95-8a11.51,11.51,0,0,1-16.84,8.59,6,6,0,0,1-3.52-7c.82-3.09,4.85-5.67,8.37-5.29a11,11,0,0,1,2.58.6c2.61,1,3.94,3.18,3.29,5.32s-3.48,3.38-6,2.51a3.32,3.32,0,0,1-2-1.78c-.17-.73.57-1.68.82-2.32.88,1.2,1.52,2.81,2.21,2.84,1,0,2.12-1,3.19-1.63-.66-1.11-1.06-2.67-2-3.24-2.36-1.38-4.81-.8-6.92.87a4,4,0,0,0-1.25,4.81c.91,2.45,2.9,3.45,5.4,3.58.62,0,1.25.06,1.87,0,4.19-.13,7.34-2.17,8.11-5.22.81-3.28-1-7.3-4.33-9.27a25.12,25.12,0,0,0-14.3-3.41,81.77,81.77,0,0,0-14.86,2.48c-3.76.92-5.78,3.8-6.27,7.75a5.81,5.81,0,0,0,2.6,6,10.62,10.62,0,0,0,9.92,1.06,4.54,4.54,0,0,0,3.14-5c-.24-2.5-2.06-3.56-4.25-4.12s-4.34-.2-5.71,1.71a2.89,2.89,0,0,0,.08,2.8,3.58,3.58,0,0,0,3.06.78c.68-.22,1-1.67,1.61-2.92.33.68,1.14,1.56,1,2.28a3.13,3.13,0,0,1-1.82,1.89c-2.43.94-5.4-.25-6.14-2.26-.8-2.19.57-4.54,3.32-5.54a8.39,8.39,0,0,1,8.52,1.33,6,6,0,0,1-1,10.32c-4.08,2.13-10.76,1.44-13.91-1.9-1.59-1.69-2.43-4.1-3.44-5.88-1.83,4.6-6.3,6.64-11.52,7.75-7.79,1.66-15.56,1.91-23.08-.82a18.57,18.57,0,0,1-7.49-5.14c-3.62-4.26-2.21-9.94,2.69-12.65a13.24,13.24,0,0,1,11.31-.83,6,6,0,0,1,4.31,5.23c.27,2.58-1,4.43-3,5.85a9,9,0,0,1-9.56.15c-2.1-1.51-2.62-4.06-1.16-5.77s5.31-2.2,6.8-.67.64,2.64-.37,3.28c-.73-1-1.33-2.67-2.05-2.72-1-.08-2.93.91-3,1.61a4,4,0,0,0,1.7,3.25,5.44,5.44,0,0,0,6.87-.84,5.9,5.9,0,0,0,1.36-4.44c-.37-2.58-2.54-3.67-5.05-3.86a18.82,18.82,0,0,0-3.44,0c-3.1.35-5.86,1.6-6.72,4.77s-.09,6.77,2.9,8.5a34.29,34.29,0,0,0,10.75,4.11,38,38,0,0,0,19.9-2c3.92-1.41,5.89-4.4,6.13-8.51a6.18,6.18,0,0,0-.44-2.59C297,5.15,288.14,3.38,285,7a6.38,6.38,0,0,0-1.22,4.79A4.39,4.39,0,0,0,288.75,15a12.52,12.52,0,0,0,4.89-2c.34-.2.26-2-.22-2.52a3.23,3.23,0,0,0-2.74-.94c-.85.37-1.29,1.67-2.15,2.9-.24-.68-.94-1.65-.74-2.38a3.34,3.34,0,0,1,2-1.79c2.3-.8,5.17.47,5.87,2.38A4,4,0,0,1,292.59,16a13.61,13.61,0,0,1-6.68,0,6.22,6.22,0,0,1-4.56-6.44,6.35,6.35,0,0,1,5.51-5.68,20.88,20.88,0,0,1,6.83,0c5,.89,7.63,4.16,8,10,2.11-5.85,6.55-8,11.76-9.15,7.94-1.77,15.82-1.83,23.62.75A13.57,13.57,0,0,1,346.2,14c-.15-4.54,1.58-7.28,4.78-9a13.52,13.52,0,0,1,10.07-1.16c3.12.75,5.3,3,5.49,5.75.19,2.53-1.59,5.17-4.33,6.43s-6.8.86-8.79-1c-1.79-1.66-1.94-4.12-.34-5.63s5.49-1.88,6.53-.23c.51.8.09,2.18-.39,3.41-.66-1.7-.64-3.85-3.22-3A3.32,3.32,0,0,0,354,11.27a3.31,3.31,0,0,0,.86,2.55c1.48,1.59,4.79,1.75,7,.51,1.74-1,2.89-2.35,2.58-4.52-.36-2.47-2.05-4.05-4.92-4.46a13.59,13.59,0,0,0-3.43-.1c-4.06.44-6.78,2.48-7.42,5.42a8.43,8.43,0,0,0,4.26,8.79,38.38,38.38,0,0,0,10.53,3.35,38.46,38.46,0,0,0,18.6-2,8.94,8.94,0,0,0,6.5-8.49,5.79,5.79,0,0,0-3.07-5.75,11.16,11.16,0,0,0-9-1,4.8,4.8,0,0,0-3.63,4.74c-.08,2.42,1.52,3.79,3.56,4.43,2.27.72,4.7.73,6.33-1.37a3,3,0,0,0,.11-2.82,3.51,3.51,0,0,0-3-1c-.76.23-1.17,1.65-1.91,2.82-.26-.52-1.07-1.42-.93-2.14a3.3,3.3,0,0,1,1.89-1.9c2.3-.93,5.31.33,6.1,2.36s-.38,4.15-2.82,5.31a8.83,8.83,0,0,1-9.81-1.88,6,6,0,0,1,1.59-9.48,13.35,13.35,0,0,1,14,1.54A9.05,9.05,0,0,1,391,13.56ZM89.76,12.39c-.66,3.32-.78,6.51,1.93,9.15,3.51,3.42,10.36,4.38,14.64,2a5.91,5.91,0,0,0,1.33-9.65,8.71,8.71,0,0,0-9.37-1.74c-2.57,1.1-3.78,3.07-3.15,5.12A4.58,4.58,0,0,0,101,19.9,3.63,3.63,0,0,0,103.2,18c.2-.66-.68-1.64-1-2.2-.7,1.16-1.09,2.58-1.85,2.84a3.48,3.48,0,0,1-3-.95,2.9,2.9,0,0,1,.09-2.82c1.64-2,4-2.16,6.32-1.37,1.94.65,3.59,1.86,3.61,4.11a4.83,4.83,0,0,1-3.64,5,10.91,10.91,0,0,1-9.44-1.2,5.72,5.72,0,0,1-2.73-5.67C92,11.66,94.25,8.79,98,7.66a57.42,57.42,0,0,1,12.68-2.5,33.06,33.06,0,0,1,16,3.07,9,9,0,0,1,4.82,9.56c-.66,2.92-3.83,5.05-7.84,5.24a17.48,17.48,0,0,1-2.4,0c-2.93-.24-4.81-1.74-5.42-4.27-.49-2,.45-3.42,2-4.5,2.24-1.53,5.45-1.68,7.16,0,.71.7,1.28,2.42.89,3.12a3.4,3.4,0,0,1-3,1.25c-.8-.21-1.25-1.75-1.89-2.76-1.13.75-1.66,1.83-.6,3.19,1.18,1.53,4.9,1.43,6.61-.11s1.59-3.92-.2-5.62c-2.22-2.11-6.46-2.48-9.48-.78-2.34,1.32-3.8,3.32-3.66,6s1.82,4.49,4.37,5.5c7.84,3.09,15.33-1.45,15.93-9.92,1.45,4.87,4.82,7.46,9.3,8.81a45.73,45.73,0,0,0,19.49,1.47c4.3-.6,8.55-1.6,12-4.54,6-5,4.75-13.06-2.64-15.55a19.82,19.82,0,0,0-8.06-.5,6.37,6.37,0,0,0-5.85,5.65,6.46,6.46,0,0,0,5,6.66,13.18,13.18,0,0,0,6.45-.2,4.06,4.06,0,0,0,2.8-5.47c-.82-1.88-3.75-3-6-2.11a3.37,3.37,0,0,0-1.86,1.9c-.18.67.54,1.57.86,2.37a1.73,1.73,0,0,0,.63-1.11c.37-.72.76-1.9,1.26-2a3.88,3.88,0,0,1,2.84.8,2.75,2.75,0,0,1,.36,2.58c-1.1,2.09-3.19,2.35-5.31,2.08s-4.5-1.28-4.7-3.59a6.75,6.75,0,0,1,2-5c3.18-2.72,10.44-1.23,12.68,2.21s.53,9-3.77,11.08c-10.21,5.06-20.62,4.4-30.84,0-3.47-1.48-5.13-5.94-4.32-9.5.6-2.63,3.58-4.67,7.44-5a16.75,16.75,0,0,1,2.65,0c2.51.18,4.71,1.21,5.21,3.74a6,6,0,0,1-1.23,4.48c-1.7,2-4.19,2.16-6.63,1.22-1.48-.58-2.94-1.61-2.16-3.34a3.72,3.72,0,0,1,3-1.81c.8.08,1.44,1.72,2.23,2.79,1-.62,1.71-1.71.45-3.19s-5.21-1.32-6.79.43a3.72,3.72,0,0,0,.72,5.6,8.16,8.16,0,0,0,8.08,1c3.22-1.16,4.89-3.57,4.72-6.61-.15-2.8-2.16-5-5.42-5.75A13.65,13.65,0,0,0,138.6,5c-3,1.62-4.56,4.25-4.95,8.37C131.6,8.2,127.89,6.13,123.53,5a45.4,45.4,0,0,0-19.26-1.07c-5.89,1-11.38,2.78-14.52,8.52Zm0,0C88.85,10.6,88.3,8.42,87,7,83.68,3.34,79.32,2.8,74.72,3.79,71.26,4.54,69,7,69,9.86a7,7,0,0,0,5.66,6.53A13.17,13.17,0,0,0,80.33,16a4.14,4.14,0,0,0,3.11-5.11,4.84,4.84,0,0,0-6-2.63,3.69,3.69,0,0,0-2.11,2c-.19.63.74,1.58,1.08,2.21.6-1.2.92-2.74,1.53-2.86a4.15,4.15,0,0,1,3.22.94,2.92,2.92,0,0,1-.14,2.81c-1.67,2-4,2.07-6.35,1.3-2-.64-3.55-1.89-3.56-4.14a4.86,4.86,0,0,1,3.67-5,11.11,11.11,0,0,1,8.77.83,5.86,5.86,0,0,1,3.33,6.11,9.13,9.13,0,0,1-5.84,7.9c-6.19,2.82-12.71,3.22-19.29,2.27a45.39,45.39,0,0,1-9.71-2.61c-3.43-1.33-5.47-5.3-5.12-8.88A6.77,6.77,0,0,1,52.3,5.6a18.94,18.94,0,0,1,5.27-.29c2.52.14,4.61,1.39,5,4a5.75,5.75,0,0,1-1.3,4.2c-1.76,1.87-4.24,2.1-6.67,1.18-1.5-.57-2.88-1.64-2.17-3.37a3.47,3.47,0,0,1,2.8-1.79c.92.17,1.62,1.63,2.59,2.72,1.08-.67,1.67-2.24,0-3.18a7,7,0,0,0-5-.36,4,4,0,0,0-2.29,3.05c.08,1.34,1.13,3.42,2.2,3.75a15.46,15.46,0,0,0,7.38.56,6.28,6.28,0,0,0,4.8-6.54c-.25-2.7-2.45-4.95-5.57-5.71A13.68,13.68,0,0,0,49.31,5a8.74,8.74,0,0,0-4.76,8.64C43,9.2,39.85,6.71,35.66,5.42A45.29,45.29,0,0,0,14.88,3.93c-4.05.66-8,1.73-11.21,4.5-2.74,2.38-4.19,5.42-3.5,9A8.09,8.09,0,0,0,6.76,24a25.4,25.4,0,0,0,8.61.13,5.64,5.64,0,0,0,4.89-5.27,5.86,5.86,0,0,0-3.89-6.31,14.85,14.85,0,0,0-7.16-.42A4.15,4.15,0,0,0,6,17.63c.72,1.89,3.6,3.09,5.91,2.26a3.29,3.29,0,0,0,1.95-1.8c.17-.72-.55-1.67-.86-2.47-.71,1.29-1,2.73-1.77,3a3.77,3.77,0,0,1-3.05-.86A2.63,2.63,0,0,1,8,15.18c1.3-2,3.38-2.43,5.63-1.93s4.28,1.54,4.5,4.18c.19,2.35-.88,4.53-3.18,4.91a19.85,19.85,0,0,1-8.27-.18c-3.64-1-4.88-4.06-4.06-7.8A8.15,8.15,0,0,1,8.07,8,53.89,53.89,0,0,1,19.88,5.21,33.52,33.52,0,0,1,37.73,8.4a8.66,8.66,0,0,1,4.41,9.46c-.63,2.87-3.68,5-7.57,5.16a19.68,19.68,0,0,1-2.66,0c-2.75-.22-4.76-1.81-5.25-4.11A4.23,4.23,0,0,1,29,14c2.29-1.32,5.41-1.32,7,.32.64.7,1.21,2.32.84,2.9a3.5,3.5,0,0,1-3,1.42c-.86-.23-1.37-1.74-2.25-3-.26.83-1,1.92-.71,2.61A3.72,3.72,0,0,0,33.2,20c2.5.66,5.1-.71,5.65-2.74s-.73-4.17-3.24-5.13a8.44,8.44,0,0,0-8.56,1.15,6.07,6.07,0,0,0,1.18,10.62A11.67,11.67,0,0,0,45,15.16c2.24,5.33,6.54,7.68,11.66,8.36a77.23,77.23,0,0,0,15.31.95c8.06-.55,15.54-2.68,17.82-12.08Zm103.62,9.39c1.52-.18,3,.43,2.81,2a3.69,3.69,0,0,1-2.48,2.39,3.94,3.94,0,0,1-4.68-5,34.18,34.18,0,0,1,2.63-5.8c17.7,9.65,34.65,9.67,51.88.2a8.64,8.64,0,0,1,3.14,6.45,4.13,4.13,0,0,1-5.66,4,3,3,0,0,1-1.64-2.26c.07-.72,1.21-1.62,2.06-1.89s1.91.14,3.24.29c-1.75-1.8-3.65-2.1-5.3-1.08-1,.63-2.24,2.56-1.93,3.27a7.4,7.4,0,0,0,3.47,3.43c2.32,1.08,4.56.16,6.22-1.7a5.68,5.68,0,0,0,1.11-6.66,54.62,54.62,0,0,0-3.36-5.24,55.42,55.42,0,0,0,3.55-6c1-2.34.2-4.59-1.5-6.35A5.93,5.93,0,0,0,240.56.41c-1.9.58-3.31,1.79-3.2,3.72a4.38,4.38,0,0,0,2.07,3.05,3.73,3.73,0,0,0,5-1.09c-1,.15-1.88.6-2.45.33a15.36,15.36,0,0,1-2.81-2.14c.83-.76,1.55-2,2.51-2.21a4,4,0,0,1,4.94,4.38,8.2,8.2,0,0,1-3.16,6.2c-17.38-9.38-34.32-9.46-51.92.29-.88-2-2.15-4.07-2.63-6.29a4,4,0,0,1,5.17-4.51c.88.28,1.47,1.45,2.19,2.21a14.5,14.5,0,0,1-2.6,2.07c-.58.29-1.47-.06-2.89-.19,2.35,1.69,4.3,1.93,5.94.59.84-.69,1.7-2.64,1.32-3.3A7.78,7.78,0,0,0,194.36.31a5.25,5.25,0,0,0-6,1.86,6,6,0,0,0-1,6.73,48.6,48.6,0,0,0,3.28,5.21,45.36,45.36,0,0,0-3.38,5.53,5.9,5.9,0,0,0,1.26,6.67,5.79,5.79,0,0,0,6.33,1.56c1.83-.57,3.48-1.56,3.28-3.6A4.71,4.71,0,0,0,196,21.06c-1.67-.91-3.57-.67-5.21,1.3C191.91,22.13,192.63,21.91,193.37,21.83Zm.75-7.53c8.46-8.65,36.66-9.66,47.51-.08C229.84,23.12,205.81,23.17,194.12,14.3Zm196.94-.82c-.26,6.37,2.23,10,7.85,11a18.31,18.31,0,0,0,5.28.14c4.28-.46,6.9-2.93,7-6.34s-3-6.32-7-6.72a10.29,10.29,0,0,0-4.38.67c-2.57,1-3.68,3.13-3,5.17a4.54,4.54,0,0,0,5.72,2.53,3.71,3.71,0,0,0,2.24-1.85c.23-.67-.59-1.7-1-2.61-.61,1.33-.82,2.8-1.51,3.07a3.77,3.77,0,0,1-3.1-.65,2.9,2.9,0,0,1-.45-2.59c.61-1.87,4-2.74,6.57-1.87,2.76.93,4.17,3.05,3.58,5.37-.82,3.22-3.39,4.58-8.12,4.22-3.3-.26-6.06-1.5-7.32-4.81-1-2.69.51-7.07,3.12-9a8.38,8.38,0,0,1,3.28-1.67c4.84-.93,9.7-2.07,14.61-2.36A25.16,25.16,0,0,1,429,8.72c3.19,1.92,5,6.27,4,9.41-.79,2.75-4,4.78-7.82,4.91a19.23,19.23,0,0,1-2.4-.05c-2.95-.26-4.74-1.75-5.33-4.34-.46-2,.47-3.43,2.08-4.48,2.27-1.5,5.55-1.6,7.18.1.69.72,1.18,2.46.78,3.17a3.43,3.43,0,0,1-3.08,1.15c-.76-.22-1.16-1.77-1.71-2.7-1.53,1.43-1.69,2.38-.43,3.45,1.75,1.48,5.61.87,6.95-1.1s.49-4.26-1.76-5.65a8.69,8.69,0,0,0-10.32,1.29c-3.07,3-2.52,7.64,1.33,9.6a12.68,12.68,0,0,0,12.7-.5c4.69-2.74,5.91-8.44,2.35-12.54a18.47,18.47,0,0,0-7.3-5c-7.87-2.91-16-2.58-24.09-.69C397,6,393,8.4,391,13.56Z"/></g></g></svg>