<svg xmlns="http://www.w3.org/2000/svg" viewBox="0 0 435.48 33.12"><title>58</title><g id="Layer_2" data-name="Layer 2"><g id="Layer_1-2" data-name="Layer 1"><path d="M219.4,14.28c2.32-2.26,4-5.71,8.56-4.52-.75,4.25-6,3.45-7.44,6.7a39.77,39.77,0,0,1,5.58-1.63,5.89,5.89,0,0,1,3.5.69c.66.37.87,1.56,1.28,2.38-.87.12-1.88.6-2.58.32-3-1.21-5.71-1.27-8,1.3a8.61,8.61,0,0,0-1,9.69c.15.31.33.6.54,1l-2.08,2.95c-1.47-1.51-2.59-2.6-1.43-5.11,1.52-3.26-.27-7.6-3.06-9.41-2.09-1.36-4.12-1.06-6.31-.16-.88.36-2.05,0-3.08,0,.67-1,1.3-2.88,2-2.91a36,36,0,0,1,6.89.79,8.38,8.38,0,0,1,1.61.67c-1.91-3.52-6.76-2.71-8-6.68,4.52-1.83,6.34,1.95,9.38,3.65-1-1.38-2-2.74-2.9-4.13a16.61,16.61,0,0,1-2.07-3.33c-.25-.64.28-1.57.46-2.37.82.36,2,.5,2.4,1.13a32.87,32.87,0,0,1,1.81,4.68,1.43,1.43,0,0,0,1.12.93,35.27,35.27,0,0,1-.82-5.23,33.33,33.33,0,0,1,.74-5.59,3,3,0,0,1,1.12,0,33.3,33.3,0,0,1,.94,5.56,32.38,32.38,0,0,1-.59,5.15l.65.14c.35-1.13.68-2.26,1.06-3.38a8.36,8.36,0,0,1,1.09-2.65c.47-.56,1.46-.7,2.21-1,.22.72.75,1.53.58,2.14a13.6,13.6,0,0,1-1.64,3.25c-1,1.54-2,3-3.05,4.53Zm104.3,7.66a4.81,4.81,0,0,1-.41-4.25,5,5,0,0,1,3.85-2.12,16.86,16.86,0,0,1,7.13,1.68A142.28,142.28,0,0,1,346.66,25c4.36,2.92,8.73,5.63,14.07,6.57a118.75,118.75,0,0,0,25.2,1.22,43.56,43.56,0,0,0,26.38-9.9,46.55,46.55,0,0,1,9.28-5.66,20.56,20.56,0,0,1,7.41-1.7,4,4,0,0,1,4.34,4.34c-.18,1.84-1.24,3-3.15,2.88-1.56-.09-2.84-.7-2.64-2.11,1.08.42,2.07,1.09,3,1,.46,0,1.35-1.83,1.12-2.16-.63-.88-1.77-1.92-2.69-1.9a3.47,3.47,0,0,0-2.72,1.89,4.76,4.76,0,0,0,1,3.75c1.53,1.67,3.7,1.66,5.62.5s3.06-3,2.48-5.39c-.65-2.73-2.91-4.43-6.14-4.53-4-.14-7.49,1.35-10.72,3.45-3.57,2.32-6.89,5-10.54,7.21s-7.33,4.61-11.34,5.63c-11.85,3-23.9,2.76-35.89.46-7-1.35-12.37-5.91-18.09-9.78a76.72,76.72,0,0,0-10.57-6,9.36,9.36,0,0,0-9,.12,5.13,5.13,0,0,0,4.95,9,3.47,3.47,0,0,0,1.48-5,2.74,2.74,0,0,0-3.91-1.09c-.75.46-.94,1.84-1.38,2.8l3.32,1.52C326.48,22.93,324.75,23.43,323.7,21.94ZM5.64,22.73a2.8,2.8,0,0,1-3.39-2.26,4,4,0,0,1,4.11-5A15.82,15.82,0,0,1,13,16.91a120,120,0,0,1,11.79,7.14c5,3.37,9.91,7.14,16.17,7.59,8.2.59,16.44,1,24.66,1A39.31,39.31,0,0,0,91.52,23a20.64,20.64,0,0,1,4.18-2.83,84,84,0,0,1,10.66-4.56,7,7,0,0,1,5,.94c1.8,1.06,2,3.14.87,4.92a2.54,2.54,0,0,1-3.52,1c.92-1,2.46-1.91,2.51-2.9.1-1.81-1.53-2.49-3.23-2.14a2.89,2.89,0,0,0-2.37,3.78c.16.8.73,2,1.33,2.12,1.61.42,3.48.88,5,.43,2.36-.72,3.3-2.79,2.93-5.32a5.45,5.45,0,0,0-5.4-4.62,16.23,16.23,0,0,0-7.2,1.3,124.09,124.09,0,0,0-12.81,8c-4.77,3.29-9.6,6.39-15.39,7.55-9,1.8-18.17,1.6-27.3.93-8.12-.61-15.2-3.83-21.6-8.78a59.5,59.5,0,0,0-7.64-5.3A44.72,44.72,0,0,0,8.72,14a7.09,7.09,0,0,0-7,1.51,5.11,5.11,0,0,0,5.84,8.3c1.72-1,2.41-2.61,1.62-4.26a4,4,0,0,0-3-2c-.86,0-2,1.17-2.56,2.08-.19.29.85,2,1.38,2,.87.05,1.79-.74,2.74-1.2C8.09,21.77,7.07,22.52,5.64,22.73Zm94.54,1.73c-.14,1-.74,2.29-.34,3,.87,1.52,2.45,1.61,3.94.67a3.34,3.34,0,0,0-.1-5.61,4.78,4.78,0,0,0-5.74,0,4.61,4.61,0,0,0-2.07,5.31c.9,3.23,4,4.86,8.12,4.29,6.08-.83,10.83-4.36,15.39-8A45.77,45.77,0,0,1,146.5,14c15.14-.7,29.57.44,41.77,11,3.2,2.78,7.34,4.58,11.25,6.42a9.13,9.13,0,0,0,8.24-.08,5.23,5.23,0,0,0,2.34-7c-1.35-2.43-4.57-3.55-6.85-2.07a4.91,4.91,0,0,0-2,3.11,3.75,3.75,0,0,0,1.54,2.78,2.43,2.43,0,0,0,3.84-.83c.36-.7-.22-1.88-.37-2.85l-3.41.67a2.22,2.22,0,0,1,3.26-1.64,4.57,4.57,0,0,1,2.3,3.26c.22,2.36-2.18,4.13-5,3.82A16.32,16.32,0,0,1,197.27,29c-4.62-2.6-9.08-5.52-13.51-8.44-3.87-2.54-7.72-5-12.39-5.87-9.49-1.83-19-1.82-28.62-1.19a39.33,39.33,0,0,0-22.43,8.66,47.09,47.09,0,0,1-8.23,5.37,36.06,36.06,0,0,1-9,3,4.24,4.24,0,0,1-5.3-3.89c-.06-1.7.67-3,2.46-3.25s3.13.22,3.28,1.85Zm128.39,1.09c-.3.52.65,2.5,1.26,2.61a4.72,4.72,0,0,0,3.68-.81c1.8-1.74.45-4.83-2.2-5.52A5.15,5.15,0,0,0,225,25.26a5.34,5.34,0,0,0,3.84,6.6c3.74,1.06,7.31.11,10.48-1.75,4.2-2.46,8.22-5.23,12.16-8.08,5.65-4.1,11.79-7.09,18.78-7.43,7.86-.38,15.77-.44,23.63-.07,6.86.33,13.06,3,18.6,7.15,2.64,2,5.26,3.95,8,5.66a52.9,52.9,0,0,0,8.25,4.2,9.33,9.33,0,0,0,8.24-.28,5.25,5.25,0,0,0,2.13-6.9A5.19,5.19,0,0,0,332,22.31c-1.76,1.08-2.56,2.82-1.38,4.49.68,1,2.4,1.48,3.69,1.56.53,0,1.41-1.57,1.62-2.54.1-.43-1.14-1.67-1.62-1.6-.81.13-1.49,1-2.31,1.65-.54-1.33.36-2.15,1.77-2.45,1.78-.37,3.2.24,3.68,2.15.68,2.7-1.49,5.22-4.64,5a16.33,16.33,0,0,1-6.4-1.51A122,122,0,0,1,314.9,22c-5-3.38-9.92-7-16.16-7.61-6.88-.62-13.78-1.05-20.68-1.21-11.48-.28-21.79,2.93-30.79,10.36A40.85,40.85,0,0,1,237,29.48a15.17,15.17,0,0,1-7.47.63c-2.22-.29-3.26-3.21-2.28-5.11,1.13-2.18,2.84-1.89,4.33-1.25C230.42,24.36,229.05,24.7,228.57,25.55Z"/></g></g></svg>