<svg xmlns="http://www.w3.org/2000/svg" viewBox="0 0 435.53 18.76"><title>59</title><g id="Layer_2" data-name="Layer 2"><g id="Layer_1-2" data-name="Layer 1"><path d="M255,4.63A23.15,23.15,0,0,1,275,3.39a10.16,10.16,0,0,1,3.13,2c2.83,2.61,2.76,6.08-.56,8a23,23,0,0,1-8.4,2.95,35.63,35.63,0,0,1-20.91-3.65c-3.71-1.88-7.4-3.83-11.06-5.82a34.66,34.66,0,0,0-14.8-4.31c3.68,1.94,7.34,3.21,7.13,7.63s-4,5.36-6.9,7.6c2.38-.32,4.8-.46,7.13-1s4.47-1.46,6.91-2.28c-6.1,4.88-26.21,5.75-35.13,1.46l11.09,2c-2.54-2.55-6.6-3.37-6.75-7.75s3.49-5.67,7.19-7.65a34.28,34.28,0,0,0-13.91,3.82C194.05,9,189,11.8,183.74,14.08a33.37,33.37,0,0,1-20.35,1.78,15.84,15.84,0,0,1-4.88-2c-4.22-2.55-4.45-6.89-.12-9.24a31.86,31.86,0,0,1,10.06-2.94c3.75-.6,9,.94,12,2.65-3.17-.6-6.6-1.77-10-1.77a36.34,36.34,0,0,0-10.3,1.9,4.85,4.85,0,0,0-3.81,4.63c0,2.63,1.8,4,3.92,4.86,6.87,2.88,13.72,2.29,20.38-.64,4.54-2,8.89-4.44,13.41-6.47,16.43-7.39,32.8-7,49,.68,4.08,1.94,8,4.16,12.18,5.94,6.22,2.68,12.65,3.28,19.15.86A10.51,10.51,0,0,0,277,13c3.06-2.23,3.05-5.57-.07-7.68-4.7-3.19-9.95-3.47-15.33-2.48C259.33,3.27,257.16,4,255,4.63ZM229.13,10a14,14,0,0,0-1.62-3.19c-4.93-5.46-14.62-5.43-19.5-.07-1.82,2-1.91,4.42-.12,6.25a13.5,13.5,0,0,0,19.65,0A11.41,11.41,0,0,0,229.13,10ZM92.44.31C88,.56,83.62,1.38,80,4.3c-3.13,2.52-3.29,6.35-.17,8.89A15.38,15.38,0,0,0,85,15.86c8.51,2.59,16.73.76,24.64-2.41,5.83-2.33,11.31-5.49,17.08-8,7-3,14.25-3.76,21.32-.18,4.13,2.1,4.15,6.07.2,8.49a18.4,18.4,0,0,1-13.3,2.37c-3.25-.61-6.43-1.64-9.63-2.48a27.18,27.18,0,0,0,6,2.5c6,1.51,12,1.49,17.49-1.83,4.43-2.69,4.4-7.36-.28-9.51A31.25,31.25,0,0,0,137.79,2.2c-8.93-.6-16.79,3-24.33,7.3-5.72,3.28-11.55,6.23-18.3,6.7-4.66.32-9.26.12-13.36-2.43-4.37-2.71-4.45-7.1-.06-9.69a23,23,0,0,1,6.92-2.51c6.72-1.43,13.16-.07,19.5,2.49C104.41,1.46,98,0,92.44.31ZM47.37,2.85C53.94.67,60.55.22,67.18,2.55,71.35,4,73.52,6.27,73.43,8.93s-2.72,5.24-6.64,6.41a2,2,0,0,1-.26.05c-7.46,2-14.6.8-21.44-2.42-3.76-1.77-7.34-3.92-11-5.85-6.3-3.28-13-5.51-20.12-4.9A32.61,32.61,0,0,0,3.05,5.07c-3.91,1.83-4,5.9-.7,8.67,4.52,3.83,16,4.5,21.38.94-1.55.4-2.64.71-3.73,1-4.95,1.19-9.85,1.2-14.56-1-2.19-1-4.53-2.23-4.5-5,0-3,2.43-4.31,4.9-5.3a14,14,0,0,1,2.29-.68A29.11,29.11,0,0,1,27.22,6.24,207.44,207.44,0,0,0,47.1,15c6.92,2.45,14.18,3.17,21.35.41,3-1.17,5.72-2.8,5.85-6.46s-2.57-5.31-5.4-6.51C60.75-1,52.7-.14,44.94,3.7,45.75,3.42,46.56,3.12,47.37,2.85Zm322.16,13a28,28,0,0,0,4.71,1.06c7.6.42,14.76-1.46,21.61-4.59C401,10,406,7.18,411.18,5c6.44-2.64,13.11-3,19.65-.13,1.9.83,3.52,2.14,3.66,4.51S433,13.1,431.15,14.1a18.85,18.85,0,0,1-12.86,2c-3.25-.62-6.42-1.65-10-2.58,5.58,3.05,11.21,4.27,17.13,3.08a20.71,20.71,0,0,0,7.53-3c3.52-2.42,3.34-6.18-.3-8.45a20,20,0,0,0-6.86-2.6c-9.14-1.68-17.55.74-25.54,5.06-3.35,1.81-6.65,3.72-10.07,5.39-6.58,3.2-13.57,3.74-20.74,2.83Zm-17.1-1c-10,3.07-19.21,1.24-28-4-2.28-1.36-4.67-2.55-7-3.77-6.31-3.27-13-5.42-20.13-4.84a31.07,31.07,0,0,0-10.41,2.64c-4.41,2.07-4.57,6.56-.47,9.22a19.91,19.91,0,0,0,7.13,2.63A22.69,22.69,0,0,0,309.25,14c-1.36.27-2.66.79-4,1.18-6.25,1.79-12.43,2.1-18.2-1.52-3.68-2.31-3.69-6.18.17-8.18A23.7,23.7,0,0,1,295,3.18c6.78-.85,12.87,1.48,18.76,4.63,7.67,4.09,15.48,7.91,24.28,8.88,4.91.54,9.88.93,14.41-1.8Zm46.63.83c6.72-3.18,13.26-6.7,19.88-10.08-5.13,1.83-10.3,3.74-15.3,6-6.74,3.09-13.29,6.69-21.08,6.58A28.77,28.77,0,0,0,399.06,15.65Zm-158.58-12c5.15,1.86,10,4.59,15,6.75,2.52,1.08,5.21,1.73,7.14,2.36C257.31,10,251.46,7,245.58,3.94a31.75,31.75,0,0,0-18-3.56C231.17,1.26,236,2,240.48,3.66ZM40.05,15.29c-3.74-1.27-7.19-3.37-10.83-5C26.2,9,23.09,7.8,20,6.56c10.73,5.34,20.38,14,32.5,11.86C49,17.57,44.43,16.77,40.05,15.29ZM303.31,6.92c10.64,4.73,20,13.33,32.93,11.21C323.92,18.34,314.64,9.62,303.31,6.92ZM101.84,18.56c8.32,0,21-4.9,30.42-11.87-11.54,3.05-20.8,11.61-33,11.87ZM209.45,0c-4.17.43-8.64.07-12.46,1.47-7.31,2.69-14.26,6.37-21.36,9.64l.26.67a22.18,22.18,0,0,0,2.67-.8c3.32-1.44,6.66-2.85,9.91-4.43,6.63-3.23,13.23-6.46,21-5.48Zm160,15.92c-.68-.33-1.35-.69-2-1-2.74-1.26-5.42-2.73-5.37-6.2s2.73-4.79,5.41-5.86a25.32,25.32,0,0,1,13.58-1.55c2.84.45,5.63,1.14,8.44,1.73A26.18,26.18,0,0,0,372.45.77a28.31,28.31,0,0,0-9.16,3.85,4.89,4.89,0,0,0-.47,8c1.85,1.53,4.44,2.18,6.71,3.22Zm-17-1a6.29,6.29,0,0,0,5.15-4.76,5.22,5.22,0,0,0-1.81-5.5C351,.22,338.36-1.26,332.26,2.18c1.1-.19,1.78-.29,2.45-.43C340.49.59,346.17.69,351.69,3c2.43,1,4.78,2.29,5.16,5.21s-1.65,4.67-3.93,6.08a2.88,2.88,0,0,0-.49.55Z"/></g></g></svg>