<svg xmlns="http://www.w3.org/2000/svg" viewBox="0 0 435.32 26.74"><title>60</title><g id="Layer_2" data-name="Layer 2"><g id="Layer_1-2" data-name="Layer 1"><path d="M215.29,2l1.85,1.46c2-1.14,3.83-2.87,5.87-3.14a11.65,11.65,0,0,1,6.87,1.3c5,2.82,9.74,6.09,14.46,9.36,1.67,1.16,2.89,1.44,4.71.27a17,17,0,0,1,10.88-2.73c3.73.33,5.31,1.81,5.3,5.1,0,2.71-1.84,4.18-5.4,4.48a17.94,17.94,0,0,1-11.34-3,2.66,2.66,0,0,0-3.55.19c-3,2.3-6.09,4.59-9.29,6.66a42.31,42.31,0,0,1-7,3.65c-4.25,1.73-8.18,1.51-10.92-2.84-4.46,4.38-7.12,5.16-12.64,2.27a132.48,132.48,0,0,1-14-9.1c-1.86-1.29-3.28-1.8-5.4-.39A16.22,16.22,0,0,1,175,18.11c-3.39-.3-5.28-1.81-5.26-4.34,0-3.41,1.46-4.85,5.2-5.2a16.56,16.56,0,0,1,10.9,2.66c1.92,1.27,3.25,1,4.92-.31a90,90,0,0,1,9.54-6.76A44.21,44.21,0,0,1,209.51.29a5,5,0,0,1,5.87,1.83,10.36,10.36,0,0,0-7.66-.56c-7,2.4-12.22,7.56-18.32,11.81,4,2.92,7.5,5.77,11.3,8.19a35.63,35.63,0,0,0,8.13,3.79c3.43,1.11,6.71-.15,7.57-3a8,8,0,0,0-.57-5.67c-.56-1-2.94-1.61-4.37-1.41-2.36.34-2.62,2.54-2.54,4.61a1.54,1.54,0,0,1-.15.49c-2.88-1.94-2.66-3.65.88-7-3.57-3.44-3.78-5.13-.79-7.06,0,.39.06.73.08,1.08.16,2.94,1.29,4.32,3.56,4.34a4,4,0,0,0,4.37-4.54C216.76,5.42,215.85,3.74,215.29,2Zm10.83,18.46c0-.39-.09-.72-.1-1-.15-3.12-1.28-4.5-3.68-4.47-2.58,0-4.27,1.87-4.34,4.7-.11,4.38,3.58,7,8.32,5.68,7.53-2,12.8-7.6,19.71-12.25C240,9.23,234.49,5.57,228.83,2.19a10.89,10.89,0,0,0-5.13-1.1,5.66,5.66,0,0,0-5.54,7.47,4.19,4.19,0,0,0,4.69,3.11c2.25-.2,3.14-1.74,3.18-3.87,0-.52,0-1,0-1.64,3.05,2.18,2.87,3.7-.69,7.16C228.89,16.8,229.07,18.31,226.12,20.49Zm21.93-7.13a18.68,18.68,0,0,0,11.63,3.25c2.09-.15,3.57-1.12,3.63-3.11s-1.36-3.27-3.6-3.43A18.28,18.28,0,0,0,248.05,13.36Zm-61.18,0A17.93,17.93,0,0,0,175,10.1c-2,.17-3.26,1.31-3.32,3.15a3.15,3.15,0,0,0,3.14,3.3A17.49,17.49,0,0,0,186.87,13.33Zm27.58,0,3.08,3.23,3-3.28-3.06-3.27ZM151,12.68c-1.16-.09-2.32-.25-3.48-.25l-131.78,0c-4.53,0-9.06,0-13.58.06A6.71,6.71,0,0,0,0,13.31c.75.27,1.49.55,2.25.78a2.6,2.6,0,0,0,.79,0H65.6q41.15,0,82.27,0A30.46,30.46,0,0,0,151,13.8Zm133.1.74a24.05,24.05,0,0,0,2.92.38q28.08,0,56.16,0,44.86,0,89.71,0a8.48,8.48,0,0,0,2.45-.77c-.8-.28-1.61-.57-2.42-.83a1.87,1.87,0,0,0-.53,0H284.23Z"/></g></g></svg>