<svg xmlns="http://www.w3.org/2000/svg" viewBox="0 0 447.31 28.12"><title>61</title><g id="Layer_2" data-name="Layer 2"><g id="Layer_1-2" data-name="Layer 1"><path d="M410.28,12.49c-1.58-3-2.78-5.19-4-7.43l.78-.55,6.24,8.33L414.5,12l-3.63-6.9.59-.52c1.34,1.59,3.22,3,3.9,4.83,1.05,2.86,2.6,3.72,5.68,2.8,1.25-6,3.64-11.48,11.21-12.22-4.9,2.6-8.39,6.16-8.72,12.22,4.06.32,7.71,1.22,10.83-3,2.52-3.36,8.33-2.43,11.16,1A7.4,7.4,0,0,1,444.29,21c-3.68,2.81-9.52,2.26-11.32-1.89-2-4.65-5.2-4-9.17-3.59.69,5.8,4.43,9.21,8.34,12.58-6.44-1.64-9.32-6.57-10.92-12.4-3.11-.94-4.19,0-5.09,3.07s-3.33,5.91-5.81,8.43q2.54-5.48,5.05-11l-1.67-1-7.07,12.37-.74-.41,5.26-11.79H33.81l4.74,12.06C36.69,25,35,23.34,34,21.33S32.5,17,31.72,14.6c-2.61,3-1.87,5.67,2.88,12.1-4-1.91-5.86-5.06-6.8-11.75l-4.3-.24C21.8,21,19.32,26.49,12.26,28.12c4.71-3.14,7.94-7.23,9-13.07-2.72-.67-4.68-.82-6.41,2.11C13,20.27,9.64,22.61,5.91,20.77a12.3,12.3,0,0,1-5.56-6c-1.25-3.22,1-5.87,3.78-7.68a7.56,7.56,0,0,1,11,3.32c1.42,3.25,3.21,3.29,6.09,2.44.18-6.2-3.53-9.7-8.58-12.54C17.85.37,21,3.4,22.94,9.55c.41,1.27,1.77,3,2.77,3.08S28.05,11.08,29,10c1.21-1.44,2.16-3.1,4-4.18L30.1,12.2l1.56.89c.82-1.42,1.56-2.89,2.48-4.24a9.8,9.8,0,0,1,4-3.61l-3.76,7.25Zm-395.76.89a6.57,6.57,0,0,0-6.82-6c-3.52.12-6.36,2.78-6.36,6A6.94,6.94,0,0,0,8.2,19.88,6.45,6.45,0,0,0,14.52,13.38Zm431.3,1.46a6.33,6.33,0,0,0-6.71-6.05,6.15,6.15,0,0,0-6.18,6.13,6.31,6.31,0,0,0,6.45,6.31A6.44,6.44,0,0,0,445.82,14.84Z"/></g></g></svg>