<svg xmlns="http://www.w3.org/2000/svg" viewBox="0 0 396.56 70.41"><title>62</title><g id="Layer_2" data-name="Layer 2"><g id="Layer_1-2" data-name="Layer 1"><path d="M229.13,32.69a19.76,19.76,0,0,0-4.24,2c-.27.21.75,3,1.09,3,1.92-.1,4.34-.12,5.6-1.25,2.75-2.48,2.37-5.87.69-8.9s-4.27-4.85-8-4.1c-6,1.23-9.83,7.85-8.05,14,2.5,8.6,9.08,13.28,16.76,16.51,12.66,5.32,25.43,4.46,37.41-1.73,15.55-8,30.64-17,46-25.39C330.75,18.94,346,15,362.48,16.26c3.06.24,6.34.6,9.2-.23,2.36-.68,5.37-2.69,6-4.76s-.55-5.73-2.24-7.29-5-1.86-7.59-1.77c-1.09,0-2.44,2.34-3,3.87-.31.81.6,2.91,1.31,3.09,1.28.33,2.81-.34,4.5-.28-1.49.49-3.08,1.53-4.45,1.29a4.57,4.57,0,0,1-2.87-3c-.71-3.15.87-5.39,3.88-6.55,4.31-1.67,9.41.59,11.55,5.1,2,4.28.53,8.58-3.86,11-.7.39-1.44.71-2.39,1.18,3.76,2.11,7.4,3.8,10.65,6.05C394.81,32,399.52,46.39,394.67,58.3c-3.4,8.34-12.16,13.55-20.11,11.75-4.9-1.1-8.31-4.17-9.49-9.09-1-4.16-.39-8.11,3.22-11.06a8,8,0,0,1,11,.69c2.06,2.27,2.29,4.91.54,7.31s-4.27,3.91-8.28,1.69a8.77,8.77,0,0,0,2.46-.48c1.62-1.07,3.65-2,4.55-3.51.51-.88-.43-3.59-1.47-4.19-1.6-.92-4.58-1.67-5.65-.82-2.09,1.66-4.15,4.32-4.59,6.85-.65,3.71,1.26,7.09,4.71,9.17,7.53,4.54,17.55.13,21.32-9.35,4.22-10.65.25-23.41-10-30.84-12-8.63-25.43-9.31-40.08-6.86,4.12,3.14,6.45,6.51,5.19,11.39-1.61,6.22-9.06,9.29-13.83,5.28a7.14,7.14,0,0,1-1.93-6c.74-3,3.46-3,6.16-1.49-2.62-.46-4.88-.22-5,2.94-.1,3.33,2.06,4.72,5.07,5a8.43,8.43,0,0,0,8.65-7.5,7.17,7.17,0,0,0-7.32-7.95,25.38,25.38,0,0,0-10.49,2.33c-11.88,6-23.45,12.55-35.27,18.64C283.49,47.59,273.14,53.84,262,57.6c-14.14,4.78-28,2.1-40.06-7.37-6.65-5.23-9.81-13.65-7.71-20,1.91-5.74,7.47-9.7,12.32-8.76A10.94,10.94,0,0,1,235,32.56c-.23,5.21-5.37,9-9.57,6.78a6.41,6.41,0,0,1-2.82-4.15c-.18-1.06,1.11-3,2.22-3.5,1.28-.62,3.09-.15,4.67-.15ZM59.49,27.89c1.27,1.18,3.29,2.18,3.64,3.59.68,2.74-1.33,4.36-3.91,5-4.15,1.09-8.88-2.33-9.44-6.77-.82-6.39,4.84-10.69,11.94-8.26a132,132,0,0,1,20,8.74c12.21,6.59,24.1,13.75,36.16,20.59,11.21,6.36,23,10.41,36.15,8.31,10.35-1.65,19.33-5.72,25.59-14.52,4.11-5.78,4.47-13.41,1-18.15-3.19-4.4-8.36-6.07-12.92-4.17a10.26,10.26,0,0,0-5.85,11.44c.78,4.18,4.93,7.29,8.61,5.92a7.05,7.05,0,0,0,3.5-4.1c.32-1-.9-3.15-2-3.67-1.34-.65-3.24-.15-4.9-.15,0,.42,0,.84.05,1.25a6.19,6.19,0,0,0,1,.48,14.19,14.19,0,0,1,3.52,1c.31.17.1,2.3-.38,2.54-1.25.64-3,1.32-4.13.89a7,7,0,0,1-3.44-3.35c-1.48-3.18,0-7.94,2.92-9.77a8,8,0,0,1,9.79.48c4.49,3.45,6.35,9.59,3.2,14.24-2.91,4.3-6.54,8.6-10.84,11.38-13.83,8.94-28.64,8.34-42.89,1.31-13.06-6.44-25.71-13.75-38.2-21.24C71,20.88,53.34,14.65,33.46,16.4a41.41,41.41,0,0,1-8.83-.27c-4.73-.61-7.24-4.47-6-8.75s6.11-6.93,10-5.45c2.47.94,4.27,2.91,3.07,5.49-.57,1.22-3,1.57-5.08,2.52,1.65,0,3.6.5,5-.17,1-.49,2.1-2.84,1.72-3.79-.81-2-2.18-4.41-4-5.3C25.1-1.4,19.51,1.55,17.65,6.2s.1,8.79,4.92,10.87a21.35,21.35,0,0,1,2.08,1.19c-2.14.95-4,1.69-5.72,2.55C9.3,25.53,2.84,32.93.55,43.5s2.7,21.32,11.26,25.42c5.58,2.68,12.81,1.59,16.81-2.54a11.8,11.8,0,0,0,1.83-14c-3-5.28-10.44-5.9-13.65-1.09a5.54,5.54,0,0,0,.81,7.63c1.95,1.92,4.21,2.45,6.55.84-.65-.52-1.54-.3-2-.65C20.61,57.82,17.84,56.16,18,55a7.36,7.36,0,0,1,4-4.85c3.4-1.33,7.15,1.76,7.75,5.66A10.8,10.8,0,0,1,19.33,68.36C13,68.51,8.2,65.48,5.23,60,.41,51.22,1.4,42.5,6.58,34.13c8.59-13.87,30.31-18.89,46.74-14.41a39,39,0,0,0-4.19,5C47,28.31,48.32,33,52,36c3.31,2.74,7.85,3.14,10.71.18A7.66,7.66,0,0,0,64.21,30c-.27-1.19-3.08-1.8-4.74-2.68ZM198.28,35c-4.6,0-8.65,4.18-8.44,8.63a8.61,8.61,0,0,0,8.71,7.9,8,8,0,0,0,8-8.36A8.12,8.12,0,0,0,198.28,35Z"/></g></g></svg>