<svg xmlns="http://www.w3.org/2000/svg" viewBox="0 0 439.42 25.03"><title>63</title><g id="Layer_2" data-name="Layer 2"><g id="Layer_1-2" data-name="Layer 1"><path d="M3.6,12.12c6.91-3.45,13.75-7.07,20.8-10.2,1.47-.65,3.85.25,5.61.94A11.87,11.87,0,0,1,35,6c5.38,6.59,12.3,6.15,19.93,6,34.38-.81,68.78-1,103.17-1.37,16.83-.15,33.65-.07,50.48-.07,2.28,0,4-.14,5.66-2.45,2.59-3.66,7.83-3.15,11,.13A7.6,7.6,0,0,0,230,10.39q82.14.06,164.26-.24c2,0,4-1.45,5.87-2.37A10,10,0,0,0,402,6.14c9.17-7.58,12.12-7.89,22.67-2.32,4.68,2.47,9.32,5,14.71,7.9-7.49,5.34-14.4,10.21-22.85,11.48-6.78,1-11.92-3-16.62-7.51a9,9,0,0,0-5.65-2.51Q312.16,13,230,13.26a8.67,8.67,0,0,0-5.14,2.31c-3,2.66-8.1,3.1-10.53-.08-1.66-2.17-3.41-2.37-5.72-2.36q-80.19.51-160.37.84c-4.08,0-6.82.93-9.68,4.09-7.25,8-15,8.93-24.61,3.73-4.4-2.37-8.72-4.9-14-7.87L3.68,12c.4.81.59,2,1.24,2.37a120.15,120.15,0,0,0,10.77,5.67C25,24.21,32.25,22,38,13.33,31.39,4.1,26.78,2.77,16.71,7,12.39,8.83,8,10.42,3.6,12.12Zm433.79-.58c-7.06-3-13-5.7-19.13-7.9-2.18-.78-5.29-1.12-7.16-.12-3.7,2-6.84,5-10.21,7.65,7.17,9,13.42,11.29,21.82,7.77C427.42,17,431.87,14.34,437.39,11.54Zm-17.22.12c0-3.19-2.34-4.8-5.32-4.76s-5.39,1.58-5.33,4.79,2.26,4.63,5.44,4.83C417.83,16.19,420.17,14.85,420.17,11.66ZM30,13.3c0-3.05-2.24-4.7-5.27-4.81a5,5,0,0,0-5.41,5.07c.24,3.35,2.67,4.22,5.24,4.62C27.87,17.94,30.05,16.34,30,13.3Z"/></g></g></svg>