<svg xmlns="http://www.w3.org/2000/svg" viewBox="0 0 416.09 21.69"><title>64</title><g id="Layer_2" data-name="Layer 2"><g id="Layer_1-2" data-name="Layer 1"><path d="M219.55,12.06C215.86,19.82,212,22.5,206,21.48c-4-.69-7.31-2.88-8.43-6.73-.92-3.15-2.78-2.88-5-2.89q-54.94-.15-109.88-.33c-13.31,0-26.62-.11-39.93.05a5.9,5.9,0,0,0-4,2.37c-3.3,4.76-9.35,4.88-12.56,0a5.25,5.25,0,0,0-8.26-1c-2.28,2.08-4.44,2.4-6.49-.05s-4.56-1.79-7.17-1.1a10.81,10.81,0,0,1-4,0A5.69,5.69,0,0,1,.09,9.42a8.71,8.71,0,0,1,4-.46c2.76.6,5.12,1.09,7.72-1,1.17-1,4.12-1,5.58-.17C21.5,10,23.7,10,26.67,6.35c3.13-3.78,8.42-3.5,11.69.29A7.08,7.08,0,0,0,43,9.06q74.91.21,149.83.19c2.38,0,4-.12,5.15-2.91C199.67,2.18,203.28,0,208,0s8.2,2.18,10,6.42c1,2.43,2.37,2.91,4.72,2.91q75.15-.06,150.3,0c2.06,0,3.42-.32,4.71-2.37,2.9-4.6,8.72-4.49,12-.12,2.18,3,5,3.07,8.4,1.24,1.57-.83,4.51-1.22,5.65-.32,2.9,2.28,5.57,1.77,8.6,1a5,5,0,0,1,3.32.3,2.76,2.76,0,0,1,.29,2.53,4.45,4.45,0,0,1-3.27.92c-3.38-.93-6.35-1.25-9.31,1.39-.81.73-3.33.35-4.58-.37-4.32-2.5-6.27-2.35-9.66,1.5-3.26,3.68-8.34,3.21-11.61-.82a5.84,5.84,0,0,0-3.89-2.12q-76.2-.21-152.4-.17C220.62,11.93,220.07,12,219.55,12.06Zm-20-.8c1.23,5.46,4.06,7.92,8.25,8s7.31-2.49,8.71-8.06c-2,.91-3.75,1.26-4.87,2.27-2.56,2.33-4.75,2.24-7.32,0C203.15,12.59,201.51,12.19,199.51,11.26Zm.78-1.66a18.77,18.77,0,0,0,4.17-1.69,5.34,5.34,0,0,1,6.86-.09c1.25.86,2.9,1.14,5.34,2-1.75-5.18-4.4-7.21-8.43-7.32C204,2.44,201.2,4.44,200.29,9.6ZM28.47,8.91h7.82C33.31,5,31.3,5,28.47,8.91Zm350.87,0h8.5C384.17,5,382.8,5.05,379.34,8.91Zm-343,3H27.84C31.25,16.14,33.9,16.1,36.37,11.91Zm351,.44h-7.76C383,16.1,384.59,16.05,387.33,12.35Z"/></g></g></svg>