<svg xmlns="http://www.w3.org/2000/svg" viewBox="0 0 458.9 26.88"><title>65</title><g id="Layer_2" data-name="Layer 2"><g id="Layer_1-2" data-name="Layer 1"><path d="M409.8,23.37c2.78.69,5.67,2,6.09,1.39,1.13-1.52,2-4,1.53-5.76-.88-3.15-3.74-4.26-7.05-4-1.51.13-3.05,0-5,0,1.64,3.88,3.15,7.71-.39,10.63-1.3,1.08-3.85,1.18-5.69.87-1-.15-1.63-2.14-2.8-3.83,2.7,1.12,4.31,2.22,6,2.3.86,0,2.65-1.87,2.53-2.68a11.1,11.1,0,0,0-2.37-5.85c-1-1.08-3.31-1.32-5-1.32q-84.21-.17-168.41-.21c-55.3-.07-110.59-.21-165.88-.12A13.36,13.36,0,0,0,55.6,18a4.08,4.08,0,0,0,.32,6.62c2.46,1.83,4.52.62,5.51-2.6l1.17,1.08c-.81,1.23-1.52,3.42-2.44,3.5-2,.19-4.67,0-6-1.28-3.18-3-2.11-6.57.34-10.3-4.43-.4-8.56-1.25-11.73,2.47-1.83,2.14-2.36,4.82-.17,6.83,2.5,2.28,4.71,1.19,6-2.12l1.08.83c-.65,1.19-1.18,3.29-2,3.39-2,.27-4.74.37-6.09-.77-3.51-3-2.27-6.76-.25-10.43-7.13-2.51-12.54.65-17.55,4.9-5.41,4.58-5.23,4.48-10.77.49-3.83-2.76-8-5-13.06-8C6.55,8.69,12.43,5.05,18.53,1.83c1-.56,3.26.3,4.53,1.12a21,21,0,0,1,5.69,5c3.32,4.61,7.5,5.78,13,4.1-2-3.51-3.89-7.45-.31-10.83C42.7,0,45.49-.12,47.51.1c.89.09,1.56,2.22,2.54,3.74-2.57-1-4.23-2.13-5.95-2.22-.83-.05-2.6,1.93-2.47,2.76.32,2,1,4.93,2.45,5.7,3,1.6,6.68,2.05,10.35,2.52-1.86-4.16-3.9-8.08,0-11.43C55.78,0,58.5,0,60.51.19c.83.1,1.42,2.28,1.82,3-2.49-.44-4.84-1.61-6.44-1-2.46,1-2.27,5.51.52,7.5a13.41,13.41,0,0,0,7.27,2.41q77.05.21,154.11.13,88.83,0,177.64.14c3.78,0,7-.81,9-4.24,1.33-2.31,1.5-5-1.06-6.22-1.39-.64-3.66.61-5.95,1.09.31-.57.84-2.7,1.62-2.8,2-.24,4.84-.33,6.08.85,3.42,3.25,2.19,7.11-.3,10.69l.51,1.14c3.31-.8,6.88-1.11,9.84-2.61,1.5-.75,2.39-3.59,2.63-5.6.12-1-1.74-3-2.93-3.18s-2.7,1.23-4.73,2.28c.5-1.18.94-3.41,1.53-3.45,2.15-.15,4.81-.23,6.44.88,3,2.07,2.69,5.49-.41,10.86,4.88.37,8.59.2,12.74-3.71,10.24-9.65,7.16-8.54,18.24-2.51,3.53,1.92,6.79,4.36,10.26,6.62-5.53,3.77-10.65,7.37-15.92,10.74a4.25,4.25,0,0,1-3.47-.19,14.83,14.83,0,0,1-3.62-2.84,18.2,18.2,0,0,0-17.54-4.82c1.81,3.51,3.2,7.25-.43,10.23a7.08,7.08,0,0,1-5.3,1.13C411.46,26.52,410.67,24.49,409.8,23.37ZM3,12.44c4.48,2.72,8.69,5.42,13.06,7.85a4.24,4.24,0,0,0,3.69.09c3.4-2.35,6.57-5,10.1-7.83-2.28-2.15-4.46-4.08-6.5-6.16S19,3.93,16.22,5.51C12,7.93,7.58,10,3,12.44Zm427,.36c3.25,2.52,6.24,5.07,9.49,7.22a4.82,4.82,0,0,0,4.14.24c4.35-2.36,8.49-5.09,12.85-7.77-2.13-1.16-4.19-2.33-6.29-3.41-12.43-6.42-9.45-6.93-19.57,2.77A6.22,6.22,0,0,0,430,12.8Z"/></g></g></svg>