<svg xmlns="http://www.w3.org/2000/svg" viewBox="0 0 445.08 60.09"><title>66</title><g id="Layer_2" data-name="Layer 2"><g id="Layer_1-2" data-name="Layer 1"><path d="M430,36.68c3.24,2.51,6.69,4.64,9.34,7.51,1.1,1.18,1.33,5.1.46,5.74a7.3,7.3,0,0,1-6.27.59c-2.09-1-3.89-3.16-5.16-5.23-2.65-4.34-5.75-6.42-11.28-6-13.67,1-26.7-2.85-39.51-7-17.31-5.62-34.41-11.9-51.75-17.44A144.1,144.1,0,0,0,302,9.89c6.95,3.48,12.48,8,16,14.93,8,15.82-.56,32.57-18.18,34.79-8.39,1.06-16.29-.22-22.4-6.85-4-4.29-5-10.53-2.49-15.24,2.68-5.1,7.1-7.44,12.77-7.21,4,.16,7.07,2.24,8.2,6.11,1,3.28.16,6.32-3.53,8.24.9-1.94,2.25-3.56,2.27-5.21a9.4,9.4,0,0,0-1.94-5.34c-2.19-2.9-6.68-3.29-10.78-1.39-7.53,3.5-9.24,12.85-3.07,19,6.85,6.77,15.45,7.76,24.28,5.22s14.63-8.11,16-17.54c1.44-9.8-6.4-21.72-16.65-25.79-9.93-3.94-20.18-3.38-30.29-1.8-16.4,2.57-31.81,7.87-44.37,19.41-1.75,1.6-3.32,3.39-5.2,5.33-1.64-1.62-3-3.15-4.54-4.47C198,14.74,174.6,8.41,148.57,11.86c-9.44,1.25-16.44,6.8-20.5,15.67-6,13,.65,26.52,14.63,29.67,8.51,1.92,16.52.93,23.22-5.21a11.52,11.52,0,0,0,3.33-12.7c-1.47-4.52-5.09-6.94-9.74-7.61-4.08-.59-7.67,1.43-8.79,4.87-1.24,3.81.18,6.55,4.47,8.78-4.16-.69-6-2.67-6.32-5.81-.42-3.74,1.28-6.53,4.63-8.21,4.37-2.19,10.61-.89,14.33,2.9a13.32,13.32,0,0,1,2.33,14.85c-2.45,5-6.69,7.81-11.75,9.56-14.4,5-30.69-3.12-34-16.84-2.68-11.2,4.56-24.73,16.05-30,1-.44,2-.79,2.94-1.18l-.38-1.32c-7,1.55-14.23,2.58-21.06,4.76-16.41,5.23-32.51,11.43-49,16.4-12,3.62-24.43,6-36.71,8.7a22.54,22.54,0,0,1-8.39.15c-5.33-.89-8.37,1.59-10.95,5.84a14.85,14.85,0,0,1-5.5,5.46c-1.6.81-4.91.65-5.91-.46s-.88-4.7.19-5.88c2.63-2.89,6.09-5,9.24-7.47-1.61-1-4.09-2.4-6.35-4.08C.2,26.43-2.47,15,2.48,6.92c4.72-7.7,15.91-9.23,21.76-3,3.7,4,2.62,10.45-2.06,12.4-3.07,1.28-5.21-.31-5-2.89,1.53.51,4.25,1.88,4.57,1.45,1.53-2,3.56-4.71,3.27-6.87-.53-3.89-3.92-5.94-7.88-6.45C7.84.38.7,8.22,2.36,17.74c1.71,9.8,9.36,16.63,20.36,18.45,12,2,23.58-.38,34.82-3.85C77.47,26.19,97.08,19,117,12.76,147.78,3.1,177.67,6,206.1,21.19,212.16,24.44,217.23,29.53,223,34c14-15.46,32.87-22.15,53.39-25.3,19.79-3,39-.8,57.94,5.94q26.29,9.39,53,17.65c11.4,3.51,23.09,5.93,35.23,3.92,13.17-2.19,21.94-12.56,20.11-24C441.41,4.05,431.84-1,424.61,2.55c-4.55,2.24-6.14,6.66-3.75,10.39,2.11,3.29,4.86,3.18,7.56,0-.43,1-.64,2.7-1.34,2.95-1.43.5-3.93.9-4.56.15-1.65-2-3.28-4.51-3.54-7-.44-4.15,2.62-6.68,6.2-8a14.49,14.49,0,0,1,19.29,10.39c2.3,9.39-2.06,18.31-11.66,23.82C431.74,35.8,430.62,36.34,430,36.68Z"/></g></g></svg>