<svg xmlns="http://www.w3.org/2000/svg" viewBox="0 0 435.95 24.53"><title>67</title><g id="Layer_2" data-name="Layer 2"><g id="Layer_1-2" data-name="Layer 1"><path d="M313.7,14.42l7.38,6.52c-6.4-2.27-10.77-9.81-19.22-6l6.78,6.14-.67.84a76.35,76.35,0,0,0-7.16-5.33,13.9,13.9,0,0,0-6.41-2.25c-20.07-.24-40.15-.07-60.21-.42a10,10,0,0,0-9.34,4.77c-5.42,7.68-5.66,7.77-11.14.55-3-3.88-6.12-5.53-11.19-5.41-15.57.36-31.16.24-46.74-.06-4.54-.08-8.16,1.06-11.39,4.13a56.61,56.61,0,0,1-5,3.88l-.69-.88,7.2-6.35-.4-1.21c-3.4.65-7.09.7-10.13,2.12s-5.68,4.27-8.47,6.49l-.78-.92,8.15-7.23h-7.41q-54.54-.09-109.07-.23c-2.24,0-3.86.16-4.12,2.82a2.78,2.78,0,0,1-.85,1.87c-1.74,1.14-3.61,2.09-5.44,3.1L5.93,15.55,0,12.44,6.26,9.26C6.65,7.43,7,5.66,7.42,3.9c2,1.28,5.13,2.16,5.73,3.92,1.22,3.54,3.23,3.66,6.25,3.65,37.74-.08,75.48-.05,114.59-.05L126.72,4.9l.59-.93c5.5,3.57,10,10,18.09,6.46l-5.78-5.08.72-1a48.23,48.23,0,0,1,5.11,3.91c2.39,2.35,5.09,3,8.37,3,17.26-.09,34.53-.08,51.79.14,3.5,0,5.77-.87,7.56-3.91C214.62,5,216.69,2.89,219,0c2.83,3.35,5.1,6.33,7.7,9a7.13,7.13,0,0,0,4.38,2.29q31.8.27,63.59.11a10.59,10.59,0,0,0,5.3-1.88c2.54-1.64,4.81-3.71,7.19-5.59l.81.88-6.7,6.07c8.3,3.44,12.94-3.34,18.69-7,.19.3.39.6.59.9l-7.12,6.29H422.83c2.45-5.49,5.43-8.2,7.49-6.53.91.75.65,3,1,4.82L436,12.84l-5.13,3.89a3.52,3.52,0,0,1,.45,1.47c0,1,0,2.69-.5,2.91-1,.44-2.86.56-3.45-.06a64.45,64.45,0,0,1-5-6.63Z"/></g></g></svg>