<svg xmlns="http://www.w3.org/2000/svg" viewBox="0 0 424.48 47.93"><title>69</title><g id="Layer_2" data-name="Layer 2"><g id="Layer_1-2" data-name="Layer 1"><path d="M400.37,31.51c-7.17-4.59-14-10-21.61-13.58-14.4-6.75-29.71-6.17-44.36-1.16-13.31,4.56-26.18,10.54-38.95,16.51C283.09,39.05,270.8,44.74,257,46.07c-12,1.16-22.88-1.27-31.61-10.23a6.89,6.89,0,0,1-2.08-4,6.65,6.65,0,0,1,1.64.83c12.8,12,28.07,14.1,43.87,8.89,12.56-4.13,24.46-10.33,36.47-16,15.68-7.42,31.6-13.44,49.31-13.89,18.47-.48,33.46,6.54,46,19.58ZM25.16,31.05c1-.77,2-1.56,3-2.37C44.79,14.92,63.6,10.36,84.77,15.17c15.61,3.55,29.7,10.76,43.87,17.78,12.48,6.17,25.1,11.86,39.19,13.15C180,47.21,191,44.71,199.64,35.38a24,24,0,0,0,2-3c-1-.28-1.49-.2-1.75.06C191.74,40.79,181.5,44,170.18,43.92c-13.12,0-24.82-5.15-36.28-10.93C118.16,25.05,102.66,16.52,85,13.22c-23.31-4.36-44,0-61.07,18C24.67,31.14,25,31.18,25.16,31.05Zm51-12.75C71,17.23,65.45,16.84,60.82,20.2a6.38,6.38,0,0,0-2.26,5.16c.24,1.32,2.64,3,4.22,3.17,2.38.23,4.91-.59,7.31-1.24,5.2-1.43,10.36-3,17-5C83,20.75,79.7,19,76.19,18.3Zm278.56,9.1c1.87.54,3.9,1.55,5.64,1.22,2.05-.38,4.72-1.53,5.58-3.16,1.34-2.54-.59-4.71-3.06-6-6.52-3.46-18.81-1.71-24.06,3.21C344.18,24.24,349.46,25.85,354.75,27.4Zm38.48-6.77c4.54,1.33,9,3.21,13.65,3.8a22.2,22.2,0,0,0,10.58-1.54c1.79-.71,3.71-3.75,3.68-5.71,0-2.82-2.94-3.85-5.7-3.51a37.4,37.4,0,0,0-6.08,1.38c-5.17,1.49-10.31,3.07-15.47,4.61ZM17.36,15.75A59.82,59.82,0,0,0,9.7,13.69c-2.76-.39-5.62.18-6.28,3.47-.62,3.12,1.4,4.94,4.14,5.95,8.56,3.12,16.39,1.56,23.77-3.39C26.38,18.31,21.87,17,17.36,15.75Zm383,15.76c2.27,2.8,4.22,6,6.89,8.3a59.21,59.21,0,0,0,11.46,7.91c1.28.67,3.8-1,5.76-1.66-.89-1.84-1.4-4.06-2.77-5.42s-3.45-1.67-5.23-2.45l-15.84-6.95ZM8.74,38.09c-2.09.77-4.43,1.35-6.06,2.73C1.33,42,.86,44.16,0,45.88c1.93.72,4.29,2.51,5.7,1.94a35.5,35.5,0,0,0,10.18-6.24c2.8-2.51,4.73-6,6.48-8.3C18.26,34.72,13.48,36.36,8.74,38.09ZM212.81,22.73C214.52,15,217.33,7.93,213,0,208.81,4.37,208.9,15,212.81,22.73Zm4.3,9.85c-1.59-1.22-3.06-3.2-4.81-3.5A3.62,3.62,0,0,0,208,33.37a6.17,6.17,0,0,0,4.15,4c1.51.19,3.3-1.87,5-2.94C217.08,33.82,217.1,33.2,217.11,32.58ZM219,24.32c4.26-4.07,9.94-7.25,9.71-15.2C222.1,12.75,220.54,18.54,219,24.32Zm-12.39-.19c-1.2-6.88-4.84-12.51-9.21-14.28C196.2,14.32,200.5,21,206.58,24.13Z"/></g></g></svg>