<svg xmlns="http://www.w3.org/2000/svg" viewBox="0 0 412.38 25.16"><title>70</title><g id="Layer_2" data-name="Layer 2"><g id="Layer_1-2" data-name="Layer 1"><path d="M303.78,13.52c3.34,2.71,6.43,5,9.24,7.64.69.63.49,2.22.69,3.37-1.26.18-3,1-3.72.45-3.65-2.74-7-5.89-10.56-8.76-1.29-1-2.89-2.41-4.36-2.42-26.79-.14-53.58-.09-80.37-.08a6,6,0,0,0-1.07.27c.73,1.2,1.87,2.27,2,3.46.18,1.61-.4,3.3-.66,5-1.6-.44-3.67-.42-4.7-1.44-1.52-1.5-2.3-3.75-3.57-6-.89,1.92-1.33,4-2.61,5.3s-3.36,1.7-5.09,2.5a27.12,27.12,0,0,1-.72-5.61c.07-1,1.27-2,2.29-3.48h-4.44c-25.83,0-51.66.06-77.49-.07-3,0-4.73,1.08-6.69,3.21a61.36,61.36,0,0,1-9.48,8c-.84.6-2.72-.24-4.11-.42.31-1.27.21-3,1-3.73,2.77-2.46,5.85-4.58,9.14-7.08h-3.19c-24.84,0-49.69-.13-74.53,0a9,9,0,0,0-5.19,2.27c-2.69,2.27-5.72,2.38-8.17-.23S8.81,12.39,6,14.78c-1.95,1.65-4,2-5.42,0A5.25,5.25,0,0,1,.62,10c1.45-2.07,3.5-1.52,5.41.13,2.68,2.3,9.09,1.62,11.53-1s5.32-2.64,8-.11c1.09,1,2.67,2.11,4,2.11,25.82.13,51.65.1,77.48.1a9.54,9.54,0,0,0,1.31-.31c-2.56-1.63-5.15-2.76-7-4.62-1.46-1.48-2-3.86-3-5.83,2.15.21,4.81-.3,6.35.78,3,2.14,5.4,5.22,8.17,7.77,1,1,2.41,2.15,3.64,2.15,27.79.12,55.57.09,83.83.09-1.95-2.85-6.07-6-1.76-8.4,4.07-2.28,5.7,2.48,7.79,5.71,1-1.59,1.61-3.46,2.9-4.35,1.5-1,3.59-1.21,5.43-1.75a41.83,41.83,0,0,1-.17,6c-.15.92-1.25,1.68-2.14,2.8h31.14c16.42,0,32.84-.09,49.26,0a8.32,8.32,0,0,0,7.41-3.41A41.29,41.29,0,0,1,309.15.32c1-.7,3,0,4.49,0-.42,1.5-.38,3.48-1.35,4.4a86.44,86.44,0,0,1-8.17,6.22c1.05.08,2.06.22,3.07.22l74.12,0c2.24,0,4.08,0,5.7-2.36,1.91-2.78,5.17-2.38,7.56.22,2.54,2.78,8.79,3.28,11.85.79,2-1.65,4.08-1.71,5.41.36a5,5,0,0,1,0,4.45c-1.34,2.06-3.42,2-5.45.38-3.24-2.56-9-2.14-11.8.74s-5.57,2.5-8.35-.37a6,6,0,0,0-3.7-1.8C356.33,13.49,330.08,13.52,303.78,13.52Z"/></g></g></svg>