<svg xmlns="http://www.w3.org/2000/svg" viewBox="0 0 423.75 33.64"><title>71</title><g id="Layer_2" data-name="Layer 2"><g id="Layer_1-2" data-name="Layer 1"><path d="M416.87,12.22c-1.12,1.17-2.22,3.24-3.36,3.27-1.43,0-3.34-1.32-4.25-2.62a7.51,7.51,0,0,1,.28-9.41,10,10,0,0,1,6.6-3.29c3.46-.08,5.65,2.52,6.76,5.92,3,9.36-2.33,19.21-12,19.94-14.66,1.1-29.4,1.42-44.12,1.5-7.05,0-11.79-4.55-15.24-10.45a86.09,86.09,0,0,0-5.36-8.53c-3.27-4.33-6.91-4.38-10.42-.18a47.4,47.4,0,0,0-4,6.36c-1.57,2.65-2.88,5.49-4.66,8-3.84,5.37-8.43,5.72-13,.94a62.32,62.32,0,0,1-5.26-7.07c-1.63-2.28-3.05-4.73-4.84-6.87-4.35-5.21-8.7-5.11-12.73.42-2.39,3.27-4.19,7-6.45,10.33-5.4,8-11.33,8-16.65-.2-2.29-3.52-4.16-7.33-6.61-10.73-4.85-6.71-10-6.55-14.68.27A62.14,62.14,0,0,0,243.31,16c-4.91,9.34-9.36,11.64-19.65,10.07-6.45,10.8-17.89,9.44-22.22-.12-2.76.23-5.56.91-8.24.6-5.43-.62-9-4-11.59-8.74a80.16,80.16,0,0,0-6-9.6c-3.53-4.69-7.72-5-11.63-.56-2.39,2.68-4.11,6-6,9.05-2.68,4.28-5,9.58-10.74,9.64s-7.68-5.37-10.31-9.45c-1.73-2.71-3.23-5.63-5.34-8-3.66-4.13-7.38-4-11.08.21a99,99,0,0,0-6.31,8.9c-2.78,4-5.19,9-10.89,8.79s-7.59-5.46-10-9.73a64.91,64.91,0,0,0-5.17-8.62c-3.35-4.27-7.06-4.19-10.42.12A70.8,70.8,0,0,0,72.33,17C68.21,24.25,62.2,28.11,53.76,27.78,39.89,27.24,26,27.1,12.17,25.94c-9.42-.79-15-12.88-10.65-21.39A7.74,7.74,0,0,1,9,0c3.31.1,5.41,2.1,6.41,5.19,1,3.26.88,6.45-1.61,9-.84.86-2.7,1.62-3.64,1.25C8.9,15,8.08,13.33,7.42,11.78c2,1.06,3.32,4.44,6.06,1.12,2.35-2.85,1.77-7.75-1.28-10.18A5.78,5.78,0,0,0,4,3.79C-.29,9,1.93,19.49,8.1,22.45a17.23,17.23,0,0,0,6.44,1.69c12.61.62,25.23,1,37.84,1.56,8.95.41,15.37-3.22,19.48-11.22a44.34,44.34,0,0,1,5.06-7.73c4-4.87,7.78-4.94,11.8,0a75.45,75.45,0,0,1,6.16,9.51c6.34,10.74,12,10.79,18.59.14a68.9,68.9,0,0,1,5.82-8.72c4.52-5.31,9.18-5.27,13.76.06,2.09,2.41,3.63,5.3,5.43,8a49.38,49.38,0,0,0,4.05,5.85c3.08,3.37,6.43,3.54,9.4.1A81.51,81.51,0,0,0,159.36,11C166.48-.56,173-.57,180,11.1c1.36,2.27,2.58,4.65,4.12,6.8,4.1,5.74,9.62,7.81,16.6,6a31.43,31.43,0,0,1,1-4.5,11.53,11.53,0,0,1,11.4-7.64c5.28.41,9.15,3.86,10.09,9.6.38,2.31,1.28,3,3.45,3.14,6.33.36,10.67-2.76,14-7.75,2.23-3.4,4.08-7.07,6.56-10.27,4.19-5.41,8.81-5.67,13.41-.62,2.61,2.86,4.57,6.35,6.62,9.69,7,11.41,11.7,11.38,18.35-.09a50.28,50.28,0,0,1,5.73-8.26c4.26-4.79,8.66-4.75,12.89,0A72.66,72.66,0,0,1,309.13,14c.56.8,1,1.69,1.52,2.52,6.45,10.5,12,10.44,18.27-.05a81.44,81.44,0,0,1,7.34-10.71c3-3.57,6.7-3.54,9.73-.06a49.66,49.66,0,0,1,5.87,8.67c4.15,7.58,10.11,11.7,19,11.28,12.89-.61,25.81-.71,38.68-1.55,9.76-.63,15.1-9.3,11.67-17.91-1.08-2.7-2.82-5-5.81-4.46-2,.37-4.78,2-5.31,3.6a10.45,10.45,0,0,0,.7,7.76C413,16.62,414.42,12.25,416.87,12.22Zm-204.8,18.9A8.59,8.59,0,0,0,221,23a8.69,8.69,0,0,0-17.36-.54A8.43,8.43,0,0,0,212.07,31.12Zm-.57-13.4c-1.2,1.66-3.1,3.18-3.43,5a3.5,3.5,0,0,0,4.31,4.17c1.71-.35,4.13-2.44,4.26-3.92s-2-3.44-3.13-5.17Z"/></g></g></svg>