<svg xmlns="http://www.w3.org/2000/svg" viewBox="0 0 440.52 44.9"><title>72</title><g id="Layer_2" data-name="Layer 2"><g id="Layer_1-2" data-name="Layer 1"><path d="M33.16,34.49c.4-.13,2-1.19,2.6-.77a6.29,6.29,0,0,1,2.63,3.79c.4,3.33-3.41,7.19-6.75,7.38S25.57,42.33,25,38.55c-.56-4,1.44-7,3.8-9.87,1.41-1.7,3-3.24,4.59-4.9-5.08-1.62-6.19-1-9.47,2.09a11.51,11.51,0,0,1-7,3C10.77,29,5.28,26.53,0,22.63c5-4.11,10.08-6.9,16.17-6.95A12.19,12.19,0,0,1,23.09,18c3.75,2.81,3.56,3.06,8.94,2.48-1.69-2-3.21-3.7-4.63-5.49-2.57-3.25-4-6.78-2.31-10.93A6.06,6.06,0,0,1,33,.43c3.35,1.33,5.83,5.56,4.6,8.43a4.64,4.64,0,0,1-3,2.39c-.88.15-2-1.1-3.12-1.77l4.28-1.05c-.75-1.84-1.05-4.25-2.4-5.34-1.06-.85-3.93-.74-5.12.14-2.58,1.91-2.65,5.09-1,7.59,3.66,5.44,7.28,10.07,15.43,10.05Q221,20.5,399.29,20.75c5.63,0,14-6.75,14.38-12.35a7.72,7.72,0,0,0-3.12-6c-2.64-1.59-4.75.59-5.73,3.19A4.54,4.54,0,0,0,405,9c.24.44,2,.08,3.75.08-1.07.88-2.17,2.37-2.79,2.19a5.46,5.46,0,0,1-3.3-2.57C401.4,5.8,404,1.54,407.39.4s6.06.24,7.63,3.38c1.94,3.88.73,7.4-1.7,10.58-1.5,2-3.24,3.76-5.4,6.23,3.88,0,6.61.65,9.34-2.66,3-3.6,7.72-3,11.78-1.39,3.68,1.46,7.12,3.52,11.48,5.72-6.3,4.61-12.28,6.57-18.8,6.6-1.63,0-4.1-1-4.74-2.29-2.32-4.65-6.12-3.11-10.43-3.23,2.32,2.63,4.33,4.68,6.08,6.92,3,3.9,3.43,7.93,1.35,11.33-1.83,3-4.58,3.59-7.66,2.67-2.76-.82-5.25-5.28-4.32-7.85a5,5,0,0,1,2.71-2.79c.79-.27,2.05.85,3.09,1.35l-4,1.69c1.08,2,1.77,4.44,3.4,5.74.84.68,4.34-.18,4.84-1.22.92-1.9,1.48-5.07.48-6.62-3.88-6.09-7.82-11.45-16.87-11.41-78.59.26-157.19.06-235.79,0Q101.18,23.08,42.45,23c-5.77,0-15,8.09-15.63,13.71-.36,3,2.1,6.79,4.31,6s3.64-3.24,5.42-5Z"/></g></g></svg>