<svg xmlns="http://www.w3.org/2000/svg" viewBox="0 0 457.81 42.55"><title>73</title><g id="Layer_2" data-name="Layer 2"><g id="Layer_1-2" data-name="Layer 1"><path d="M303.8,20.37c10.65,0,20.74.06,30.83-.07a6.29,6.29,0,0,0,3.62-1.57c2.89-2.44,5.57-5.13,8.41-7.63C348.73,9.28,351,7.92,350,4.28c-.28-1.12,2.37-4.08,3.87-4.23s4,2,4.51,3.6C358.81,5,356.8,8.53,356,8.49c-5.93-.27-8.13,4.81-11.92,7.54-1.34,1-2.73,1.86-4.1,2.79l.93,1.32c1.33.06,2.66.17,4,.17q49.42,0,98.85-.07c1.44,0,2.83-1.41,4.31-2,2-.8,4.51-2.44,6.15-1.87a6.73,6.73,0,0,1,3.62,5.2,6.76,6.76,0,0,1-3.88,5.05c-1.64.48-4-1.29-6-2.26-1-.48-1.74-2-2.62-2-10.34-.15-20.68-.09-30.81-.09,3.3,3.6,6.5,7.2,9.85,10.66.5.51,1.72.42,2.6.43,3.33,0,5.57,2.14,5.21,5.15-.34,2.82-2.09,4.35-4.91,4-3.23-.39-4.32-2.47-4.05-5.68a5.29,5.29,0,0,0-1.32-3.76c-3.28-3.26-6.79-6.29-10.27-9.35a4.5,4.5,0,0,0-2.4-1.38c-10.48-.1-21-.07-32.81-.07,4.5,4.25,8,7.7,11.76,11,.51.46,1.79,0,2.71.07,3.24.34,5.11,2.41,4.3,5.37a6.32,6.32,0,0,1-4.48,3.69c-3.07.34-4.07-2.08-4.17-5a7.34,7.34,0,0,0-1.56-4.5,106.67,106.67,0,0,0-9.65-8.75,7.64,7.64,0,0,0-4.44-1.7q-57.27-.08-114.53.13a6.6,6.6,0,0,0-4.18,1.9c-2.32,2.28-4.57,2.67-7,.59a5,5,0,0,1,0-7.46c2.47-2,4.76-1.53,7.15.56a8.44,8.44,0,0,0,4.86,2.14c13,.2,26.1.25,39.15.06a11.81,11.81,0,0,0,6.2-2.38c2.61-1.86,4.78-4.32,7.15-6.51,2.21-2,4.76-3.64,3.94-7.59-.22-1,2.59-3.6,4.22-3.82,1.22-.17,3.86,2.26,3.94,3.65.09,1.67-1.49,4.48-3,5C313.05,10.69,308.47,13.79,303.8,20.37ZM431.72,37.94c-2-1.35-3.31-2.87-4.27-2.68s-2.26,1.9-2.46,3.11c-.12.67,1.71,2.35,2.63,2.32C428.73,40.66,429.8,39.31,431.72,37.94ZM354.24,0c-1.32,2.18-2.57,3.35-2.56,4.51,0,.91,1.75,2.68,2.37,2.54,1.14-.26,2.7-1.57,2.82-2.59S355.61,2.19,354.24,0ZM390.7,42c1.47-1.74,3.07-2.93,2.88-3.54-.43-1.32-1.78-2.34-2.75-3.49-.88.93-2.4,1.81-2.46,2.78S389.54,40.07,390.7,42ZM317.92,8.64c1.13-2.16,2.3-3.4,2.2-4.51-.09-1-1.65-1.78-2.55-2.66-.86,1.07-2.23,2.06-2.41,3.23C315,5.56,316.45,6.66,317.92,8.64ZM81.28,22.27c-11.36,0-21.84-.05-32.31.08-1,0-2.18,1-3.09,1.82-2.55,2.2-5,4.52-7.5,6.76-2.27,2-4.6,3.72-3.76,7.6a3.34,3.34,0,0,1-4.23,3.88,6.63,6.63,0,0,1-4.2-3.6c-.91-2.54.76-5.48,3.29-5.23,4.2.42,5.95-2.39,8.26-4.56,2.11-2,3.95-4.28,6.23-6.79-8.41,0-16.74,0-25.07,0-3.72,0-7.43-.89-10.15,3.46-1.66,2.66-5,1.93-7.29-.52a5.59,5.59,0,0,1,.41-7.94c2.53-2.17,5.73-2.34,7.39.32,2,3.14,4.44,2.78,7.17,2.78l83.78,0c5.59,0,11.19,0,17.12-.5-5-3.4-6.8-10.56-14.35-10.94a3.7,3.7,0,0,1-3.49-5.1c.63-1.68,3-3.81,4.49-3.75s4.18,2.93,4,4.11c-.72,3.74,1.81,5.11,3.63,7.3,6.1,7.35,13.48,10.44,23.19,9.13,6.28-.85,12.76-.16,19.35-.67-5-3.76-7.33-10.6-14.69-11.43C138.12,8.3,136,5.15,136.29,4c.47-1.63,3-3.78,4.47-3.69s4,3.11,3.75,4.27c-.77,3.17,1.08,4.34,2.82,5.9A3.81,3.81,0,0,1,148,11c6.24,8.68,14.86,10.41,25,9.57,9.21-.76,18.52-.08,27.78-.32A9.3,9.3,0,0,0,206,18c2.46-2.06,4.87-2.45,7.12-.3s2.06,5,0,7.18c-2.24,2.38-4.6,1.8-7.05-.19a8.66,8.66,0,0,0-4.91-2.12c-37.47-.15-74.94-.14-112.41-.27-2.87,0-5.08.59-7.08,2.7s-4.37,4-6.54,5.95-5,3.44-3.65,7.48c.29.88-2.39,3.86-3.76,3.9-1.66,0-4.44-1.78-4.76-3.23s1.64-5.16,2.61-5.16c6.83,0,9.14-6.14,13.61-9.25A19.14,19.14,0,0,0,81.28,22.27Zm63.49-17.9c-2.09-1.45-3.3-2.92-4.46-2.89-1,0-2.76,2-2.6,2.81a4.73,4.73,0,0,0,3,3C141.49,7.47,142.76,5.87,144.77,4.37ZM71.15,38.46c-1.81-1.6-2.84-3.22-3.88-3.23a3.88,3.88,0,0,0-2.81,2.63c-.13.86,1.41,2.63,2.43,2.82S69.17,39.57,71.15,38.46ZM34.5,38c-2.06-1.43-3.34-3-4.24-2.77S28,37.13,27.83,38.32c-.12.7,1.61,2.37,2.51,2.37C31.42,40.69,32.5,39.38,34.5,38ZM104.07,8.87c1.2-2.4,2.44-3.74,2.21-4.73s-1.88-1.79-2.91-2.66c-.75,1-2.09,2-2.07,3S102.59,6.68,104.07,8.87ZM238.56,20.22a10.14,10.14,0,0,1-9.82,10.45c-5.58.12-10.3-4.74-10.28-10.58,0-5.41,4.93-10.38,10.19-10.34S238.55,14.55,238.56,20.22Zm-10.12-8a7.91,7.91,0,0,0-7.59,7.9c-.07,4.65,3.21,8.17,7.65,8.2s7.77-3.29,7.78-8A7.83,7.83,0,0,0,228.44,12.17Z"/></g></g></svg>