<svg xmlns="http://www.w3.org/2000/svg" viewBox="0 0 457.87 50.78"><title>74</title><g id="Layer_2" data-name="Layer 2"><g id="Layer_1-2" data-name="Layer 1"><path d="M423.29,35.6c12.59-2.07,22.19-7.4,29-17.24.64-.93.27-2.51.65-3.7A8.41,8.41,0,0,1,454.88,11c.38-.34,2.84.59,2.94,1.19a6.13,6.13,0,0,1-.94,3.93c-.9,1.46-2.48,2.49-3.46,3.91-8,11.62-19.59,16.89-33.18,18-6.65.55-13.39.09-20,.09A17,17,0,0,1,402,40.1c.94,1.36,2.53,2.88,2.43,4.23-.16,2.12-1.49,4.16-2.32,6.23-1.91-.79-4.72-1.06-5.54-2.48-1.71-2.94-2.24-6.54-3.51-9.78-.49-1.25-1.45-2.95-2.53-3.24q-29.94-8.22-60-16.06c-3.63-.95-7.41-1.32-12.19-2.13a38.93,38.93,0,0,1,4.12,3.83c1.18,1.51,2.88,3.27,2.86,4.9,0,2-1.11,4.72-2.66,5.8-.88.61-4.38-.9-5.32-2.35a21.23,21.23,0,0,1-3-8.61c-.43-3.43-2-4.17-5.13-4.41-23.11-1.75-45,1.68-64.83,14.52-1.29.84-2.49,1.8-3.74,2.71a21,21,0,0,1-3.7,2.34c6.66-7.25,15.07-11.84,24-15.57a43.07,43.07,0,0,1,9.61-3c3.66-.58,5-2.5,5.51-5.91a26.44,26.44,0,0,1,2.22-7.61c1.52-3.16,5.35-4.3,7.84-2.79,2.3,1.4,2.35,4.8,0,7.77-1.64,2-3.47,3.91-5.48,6.16,3.22-.33,6.32-.77,9.43-.95a166.09,166.09,0,0,1,51.23,5.5,15,15,0,0,1,2,.42c7.71,3.2,14.53,3.62,18.95-5.3A4.73,4.73,0,0,1,366,12.18c2.11.28,4.81,1.08,5.85,2.63.65,1-.75,4.38-2.17,5.44-2.33,1.73-5.42,2.45-9,3.93,19.64,5.11,38,12.74,58.34,11.89.68-2.58,1.27-5,2-7.39.39-1.34.6-3,1.5-3.86a17.48,17.48,0,0,1,5.81-4.13c.87-.32,3.7,1.59,3.66,2.39a13.09,13.09,0,0,1-2.05,6.77C428.43,31.93,426,33.33,423.29,35.6ZM35.07,23.81c-1.72-3.55-5.75-4.58-8-2.41-2.75,2.63-1.59,5.36.58,7.7,1.77,1.9,3.76,3.58,5.66,5.36-10.89-1.59-20.15-5.94-26.57-15-1-1.38-.8-3.51-1.48-5.17a7.23,7.23,0,0,0-2.43-3.32c-.48-.3-2.77.93-2.81,1.54A7.19,7.19,0,0,0,1.38,16.3c.56.86,1.92,1.21,2.46,2.08C12.64,32.56,26.12,37.78,42,38.12c5.5.11,11-.64,16.62-1-1.49,1.78-3.19,3.31-4.25,5.19-1.58,2.84-1.54,6.08,1.43,7.83,3.22,1.89,5.34-.65,6.52-3.3a45.94,45.94,0,0,0,2.57-8.38,4.7,4.7,0,0,1,3.93-4.06C85.45,30,102,25.14,118.64,20.75c6.52-1.71,13.24-2.63,21.09-4.15-2.47,2.44-4.48,3.64-5.26,5.4a16.58,16.58,0,0,0-1.22,7.33c0,.8,2.83,2.43,3.42,2.09,2-1.17,4.24-2.75,5.17-4.75,1.51-3.21,2.06-6.87,3.06-10.5,27.4-2.86,52.8,1.48,75.41,18.2-.28-.85-.94-1.12-1.45-1.56-9.38-8.2-20.34-13.34-32.33-16.27-2.84-.7-3.87-1.81-4.18-4.66a27.91,27.91,0,0,0-2.42-8.43c-1.38-3-5.52-4.27-7.85-2.89s-2.4,4.84,0,7.82a87.37,87.37,0,0,0,6.26,6.3c-3.81-.41-6.72-.8-9.64-1-21.43-1.6-42.17,2.35-62.67,8-2.56.71-3.93.46-5.5-1.88a31.76,31.76,0,0,0-6.57-7c-2.54-2-6.59-1.24-7.84,1.18-1.62,3.09.26,5.23,2.73,6.54a65.09,65.09,0,0,0,7.94,3C86.3,29.45,51,36.8,39.16,35.51,37.76,31.4,36.8,27.42,35.07,23.81Z"/></g></g></svg>