<svg xmlns="http://www.w3.org/2000/svg" viewBox="0 0 393.03 27.32"><title>75</title><g id="Layer_2" data-name="Layer 2"><g id="Layer_1-2" data-name="Layer 1"><path d="M123.9,13.05H163L155.39,1.27c6.25-1,11.29,3.86,13.28,11.94h13.14l.24,1.06c-.66.37-1.3,1-2,1.08a26.48,26.48,0,0,1-5.19.05c-3.75-.38-6.22.17-7.66,4.58-1.35,4.12-5.45,6.22-9.64,7.34l-1.18-.73,5.53-11.07H141.14c-4.53,0-9.07.11-13.6-.06-2.47-.09-3.7.52-4.56,3.12-1.61,4.88-5.49,7.46-10.24,8.69l-1.23-.81c1.8-3.51,3.59-7,5.46-10.69a18.94,18.94,0,0,0-2.36-.26c-9.07-.07-18.15,0-27.21-.19-2.56-.05-3.64.81-4.44,3.31-1.57,5-5.52,7.42-10.26,8.66l-1.22-.83c1.88-3.59,3.76-7.18,5.72-10.94H14.74l4.51,9.33c-5-.53-7.26-2.17-9.1-6.68-1.26-3.07-2.5-4.63-5.76-1.89-.74.62-3,.09-4.08-.6C-.2,15.36,0,12.55.5,12.28c1.16-.56,3.21-.8,4.11-.13,2.89,2.15,4.51,1.53,5.65-1.63,1.34-3.7,4.09-5.77,9-7.11-1.54,3.64-2.76,6.52-4,9.56H79C74.87,9.66,72.1,5.89,71.57.78c6.1.3,10,4.15,12.21,12.15h34.86A48,48,0,0,1,114,7.43,45,45,0,0,1,111.12.84C117.43.92,121.51,5,123.9,13.05Zm87.48,1.68a17.53,17.53,0,0,0,3.07.66,64.05,64.05,0,0,0,7.2,0c2.46-.15,3.74.5,4.52,3.16,1.46,4.93,6.21,8.23,11.84,8.2-2.2-4-4.17-7.6-6.19-11.28,11.45,0,23.05.09,34.64-.07,2.77,0,3.9.79,4.72,3.45a10.91,10.91,0,0,0,11.56,7.51l-6.14-11c9.87,0,19.83.08,29.78-.06,2.49,0,3.74.52,4.54,3.13,1.47,4.8,6.3,8.28,11.92,8.46-2.18-4.08-4.11-7.67-6.14-11.46h61.87L374,25.54c5.45-1.48,8.23-3.92,9.48-7.91.94-3,2.32-3.37,5-1.74,1.13.69,3,.14,4.55.15,0-1.34-.07-2.68-.11-4-1.53.1-3.36-.31-4.52.39-2.56,1.56-4,1.4-5.09-1.56-1.37-3.9-4.13-6.21-9.3-7.29,1.65,3.72,2.95,6.62,4.21,9.45H314.61c4.64-3.24,7.25-7.07,7.71-12.41a14,14,0,0,0-11.49,9.69c-.39,1.11-1.59,2.76-2.44,2.78-11.11.19-22.23.12-34.26.12,5.2-3.25,7.65-7.2,8.45-13.19-7,2.24-11.34,6-12.08,13H229.45c5.17-3,7.41-7.1,8.32-12.92-7.26,2.17-11.39,6.19-12.33,13.52H211.52C211.47,14,211.43,14.34,211.38,14.73ZM195.15,9.2c-1.91,1.9-3.77,3.85-5.64,5.79,1.24,1.14,2.5,2.28,3.73,3.45.18.17.19.5.36.69.84,1,1.71,2,2.57,3l2.54-3c1.31-1.55,3.77-3.2,3.64-4.62s-2.66-2.9-4.17-4.3c-.56-.52-1.19-1-1.72-1.39C195.88,8.94,195.39,9,195.15,9.2Z"/></g></g></svg>