<svg xmlns="http://www.w3.org/2000/svg" viewBox="0 0 425.71 45.66"><title>76</title><g id="Layer_2" data-name="Layer 2"><g id="Layer_1-2" data-name="Layer 1"><path d="M189.49,11.55c-1.57,2.77-3.91,3.1-6.32,1.7-2.78-1.61-4.17-4.18-3.26-7.45S183.14.22,186.75,0a9,9,0,0,1,8.92,5c3.17,5.85,1,14.93-5.45,18.56a38,38,0,0,1-14.95,4.82c-23.87,2-47.73.59-71.57-1.13s-47.62-3.53-71.45-5A90.1,90.1,0,0,0,12,22.91,11.48,11.48,0,0,0,2.77,38.24C4,41.32,6.06,43.41,9.49,43.78c5.17.55,8.13-2.44,8.27-8A14.19,14.19,0,0,1,19,31.39a3.18,3.18,0,0,1,1.68.1c.26,1.64.78,3.4.42,4.94a11.64,11.64,0,0,1-10.33,9.2c-4.7.28-8.13-2.16-9.91-7.06C-1.1,33.18.31,27,5.07,24c3.15-2,7-3.86,10.63-4a272.31,272.31,0,0,1,27.55.33c36.62,2,73.22,4.47,109.86,6.14,9.89.46,20-.7,29.8-2.22a13.06,13.06,0,0,0,11.43-13.44,10.72,10.72,0,0,0-1.5-5.23,5.81,5.81,0,0,0-8-2.38,4.52,4.52,0,0,0-2.6,6C183.52,12.53,186.45,12.15,189.49,11.55ZM243.07,13a6.68,6.68,0,0,0,2.18-8.84A7.29,7.29,0,0,0,238.09,0a9.79,9.79,0,0,0-8.74,6.57c-1.9,5.38.42,12.54,5.34,16.49s10.93,5.18,17.16,5.56c23.89,1.47,47.72.27,71.54-1.47,25.94-1.9,51.87-3.83,77.82-5.45A41.83,41.83,0,0,1,415,23.2c7.53,2.13,10.85,10.38,7.26,16.53a7.74,7.74,0,0,1-9.22,3.77c-3.64-1.08-5.69-3.3-5-7.39a5.34,5.34,0,0,0-.15-2.76A9.57,9.57,0,0,0,406,31.1c-.61.76-1.62,1.44-1.77,2.28-.77,4.33,4.65,11.26,9.27,12.06,5.75,1,10.59-2.31,11.82-8.1C427,29.84,423,22.93,415,20.92a55.66,55.66,0,0,0-16.21-1.63c-19.57,1-39.13,2.44-58.68,4-28.73,2.29-57.46,4.18-86.3,2.81a45.92,45.92,0,0,1-12.14-2.2c-5.65-1.86-9.55-5.73-10.23-12-.5-4.7,1.75-8.7,5.74-9.12a7.55,7.55,0,0,1,5.51,2.05c.94,1,1.19,4,.4,5-1,1.21-3.35,1.34-5.15,1.83-.39.11-.91-.23-1.36-.36C238.18,14.42,240.51,14.64,243.07,13Zm-21.7,9.61c.82,0,1.59-1.37,2.38-2.11-.79-.57-1.57-1.61-2.38-1.64-2.4-.09-4.82.22-7.26.37.3-2.15.88-4.13.72-6.06-.11-1.33-1.24-2.57-1.92-3.85-.71,1.22-1.9,2.41-2,3.69a32.09,32.09,0,0,0,.56,6.26c-3.42.27-7.27-2.5-10.11,1.55,3.24,3.62,6.88,1.2,10.19,1.14-.17,3.73-2.25,7.33,1.23,10.65,3.78-3.32,1.6-7,1.23-10.55A56,56,0,0,0,221.37,22.62Z"/></g></g></svg>