<svg xmlns="http://www.w3.org/2000/svg" viewBox="0 0 322.75 80.93"><title>78</title><g id="Layer_2" data-name="Layer 2"><g id="Layer_1-2" data-name="Layer 1"><path d="M161.58,76a.21.21,0,0,1-.41,0,51.62,51.62,0,0,0-4.41-14.92,2.41,2.41,0,0,1-.12-2.11,27.59,27.59,0,0,1,3.93-5.79,1.1,1.1,0,0,1,1.6,0,27.26,27.26,0,0,1,4,5.89,2.36,2.36,0,0,1-.16,2A51.39,51.39,0,0,0,161.58,76ZM145,41.69C157.33,30,146.7,13.4,121.53,18.46,113.69,20,106.35,23.69,99,27,94.3,29.06,89.46,31,84.42,31.39c-5.93.43-10.49-1.46-11-7-.17-1.75,2.14-3.07,3.36-1.94.51.48,1,1.16,1.73,1.26a1.35,1.35,0,0,0,1.42-1.46,2.44,2.44,0,0,0-2.13-1.93c-4.54-.82-7.23,3.43-4.27,7.94C77.67,34.63,90.1,34,99.29,31.19c3.67-1.12,7.77-3.49,10.67-4.38.16,0,.31.11.2.24-2.5,3-.22,5.16-.92,9.43,0,.21.23.29.37.13,3.57-4,7.25-3.49,7.43-8.76,0-.14.19-.22.26-.09,3.35,6,11.49,5.06,13-1.14a.32.32,0,0,0-.53-.32c-4.2,4.11-8.81-2-5.52-5,8.9-8,31.55,3.28,23.12,15.77-1.85,2.75-5,4.52-7.52,2.23-3-2.94-.43-5.39.59-5a1.36,1.36,0,0,0-2.15-1.15c-3.16,2.06-1,8.64,3.45,9.12a.26.26,0,0,1,.19.43,29.33,29.33,0,0,0-6.22,11c-3.28,9.83,5.35,20.7,10.23,13A12.1,12.1,0,0,0,148,60c-.16-4.52-5.68-3.13-4.06.31a6.16,6.16,0,0,1,.22,3.52c-1.92,7.19-9.29-1.82-6.85-9.57A32.78,32.78,0,0,1,145,41.69Zm35.82,1.07a.26.26,0,0,1,.19-.43c4.49-.48,6.62-7.06,3.46-9.12a1.36,1.36,0,0,0-2.15,1.15c1-.42,3.56,2,.58,5-2.55,2.29-5.67.52-7.52-2.23C167,24.61,189.6,13.33,198.5,21.33c2.91,2.61-.62,9.15-5.47,5a.35.35,0,0,0-.58.32c1.52,6.2,9.65,7.16,13,1.14.07-.13.25-.05.25.09.18,5.27,3.87,4.78,7.43,8.76.15.17.41.08.37-.13-.7-4.27,1.59-6.44-.92-9.43-.11-.13,0-.29.2-.24,2.9.89,7,3.26,10.67,4.38,9.2,2.82,21.62,3.44,25.77-2.89,3-4.51.28-8.76-4.27-7.94a2.45,2.45,0,0,0-2.13,1.93,1.35,1.35,0,0,0,1.43,1.46c.74-.1,1.21-.78,1.73-1.26,1.21-1.13,3.52.19,3.35,1.94-.51,5.5-5.08,7.39-11,7-5-.36-9.88-2.33-14.56-4.41-7.37-3.29-14.71-6.94-22.55-8.52C176.06,13.4,165.43,30,177.75,41.69a34.79,34.79,0,0,1,7.69,12.59c2.23,7.82-4.93,16.76-6.85,9.57a6.16,6.16,0,0,1,.22-3.52c1.62-3.44-3.9-4.83-4.06-.31a12.1,12.1,0,0,0,2.06,6.76c4.88,7.69,13.56-3.2,10.23-13A29,29,0,0,0,180.82,42.76Zm-19,4.21a.66.66,0,0,0-.82,0c-23.31,18.22-27.7-.06-39.79,2.67-7.39,1.67-12.76,8.42-11.34,13.22.76,2.57,3.93,3.69,4.39,6.29a1.73,1.73,0,0,1-1,1.86c-2.5,1-5.19-1.79-5.61-4.56-2.14-14.13,12.34-18.08,15.6-19a.29.29,0,0,0,.07-.51,15.79,15.79,0,0,0-10.84-3c-11.07,1.34-17,10.08-11.77,18.26a.8.8,0,0,1-.43,1.22c-4.86,1.23-12.91-.66-9.8-13a.29.29,0,0,0-.38-.35c-4.8,1.82-10,.86-14.67-1.1-7.61-3.2-23.6-2.68-30.44,8.17A7.81,7.81,0,0,0,43.61,63c.77,3.69,5.89,4.93,7.59,1.86,1.44-2.6,3.2-1.12,2,1.55s-7.38,4-10.12.51c-2-2.47-1.55-6-.39-8.92-3.57,4.49-4.66,9.6-2.82,14,2.52,5.93,10.29,6.77,15,5.42C61.16,75.5,62.94,72,62,70.44a3.5,3.5,0,0,0-3.35-1.26c-.42,0-.71-.45-.39-.73,1.84-1.67,6.64-3.2,8.06.71s-3,9.5-10.89,11.29c-10.28,2.34-20.17-4.23-18.7-14.31,2-13.56,19-22.21,31.76-21.16a31,31,0,0,1-8.36-8.49c-1.84-3-4.43-5.45-7.58-4.27A5.83,5.83,0,0,0,49.06,38c.14,3,3,5.53,5,3.36h0a2.71,2.71,0,0,0,.4-3,.09.09,0,0,1,0-.11.05.05,0,0,1,.09,0c1,.78,1,2.76.41,4h0c-1.43,2.78-4.41,2.92-6.55,1.29h0C42.53,38.4,46.1,28.78,52.07,27a.18.18,0,0,0,0-.35C40.51,22.69,30,33,36.82,40.84c-2.44,2.91-8,4.18-7.69-6.25,0-.24-.29-.3-.49-.18C20.28,39.63,8.81,40.65.08,32.06a.26.26,0,0,1,.25-.43C16,37,26.48,23.71,46,24.07c22.62.41,24.64,21.31,44.17,18.64,6.84-.93,13.7-1.83,20.61-1.3,19.14.25,25.51,23.26,48.84,4.53a.51.51,0,0,0,0-.77c-14.78-13.45-5.92-23.84,0-25.11l.58-1.78a1,1,0,0,0-.26-1,3.24,3.24,0,0,1-.68-1.84.48.48,0,0,0-.55-.47,12.93,12.93,0,0,0-2.91.91.76.76,0,0,1-.94-1.06A86,86,0,0,0,160.67.46a.77.77,0,0,1,1.41,0,86,86,0,0,0,5.74,14.41.76.76,0,0,1-.94,1.06A12.93,12.93,0,0,0,164,15a.48.48,0,0,0-.55.47,3.24,3.24,0,0,1-.68,1.84,1.06,1.06,0,0,0-.26,1l.58,1.78c6,1.27,14.82,11.66.05,25.11a.51.51,0,0,0,0,.77c23.33,18.73,29.69-4.28,48.84-4.53,6.92-.53,13.77.37,20.61,1.3,19.54,2.67,21.55-18.23,44.17-18.64,19.57-.36,30,12.92,45.69,7.56a.26.26,0,0,1,.25.43c-8.73,8.59-20.2,7.57-28.55,2.35-.2-.12-.5-.06-.49.18.33,10.43-5.26,9.16-7.7,6.25,6.8-7.82-3.69-18.15-15.29-14.23a.19.19,0,0,0,0,.35c6,1.82,9.54,11.44,3.64,16.54h0c-2.15,1.63-5.13,1.49-6.56-1.29h0c-.54-1.22-.63-3.2.41-4,0,0,.07,0,.1,0a.11.11,0,0,1,0,.11,2.71,2.71,0,0,0,.4,3h0c2,2.17,4.88-.37,5-3.36a5.83,5.83,0,0,0-3.44-5.77c-3.15-1.18-5.74,1.27-7.58,4.27A31,31,0,0,1,254.31,45c12.74-1,29.79,7.6,31.76,21.16,1.47,10.08-8.41,16.65-18.7,14.31-7.84-1.79-12.32-7.33-10.89-11.29s6.22-2.38,8.07-.71c.31.28,0,.77-.4.73a3.5,3.5,0,0,0-3.35,1.26c-1,1.56.79,5.06,7.17,6.9,4.66,1.35,12.44.51,14.95-5.42,1.85-4.36.76-9.47-2.82-14,1.17,3,1.57,6.45-.39,8.92-2.74,3.45-8.82,2.26-10.11-.51s.51-4.15,1.95-1.55c1.7,3.07,6.82,1.83,7.59-1.86a7.81,7.81,0,0,0-1.31-5.84C271,46.27,255,45.75,247.39,49c-4.68,2-9.86,2.92-14.67,1.1a.29.29,0,0,0-.38.35c3.11,12.29-4.93,14.18-9.8,13a.8.8,0,0,1-.43-1.22c5.25-8.18-.7-16.92-11.77-18.26a15.79,15.79,0,0,0-10.84,3,.29.29,0,0,0,.08.51c3.25.95,17.73,4.9,15.59,19-.42,2.77-3.11,5.54-5.6,4.56a1.72,1.72,0,0,1-1-1.86c.46-2.6,3.63-3.72,4.39-6.29,1.42-4.8-3.94-11.55-11.34-13.22C189.67,47,185,65.12,161.79,47Zm1.84-22a.49.49,0,0,0-.66.35A68.58,68.58,0,0,0,162,36a.62.62,0,1,1-1.23,0,68.58,68.58,0,0,0-1-10.67.48.48,0,0,0-.66-.35c-5.72,2-6.1,11.33,1.87,19.11a.55.55,0,0,0,.77,0C169.73,36.28,169.35,26.93,163.63,25Z"/></g></g></svg>