<svg xmlns="http://www.w3.org/2000/svg" viewBox="0 0 322.75 80.24"><title>79</title><g id="Layer_2" data-name="Layer 2"><g id="Layer_1-2" data-name="Layer 1"><path d="M162.1.37a.9.9,0,0,0-1.45,0,14.54,14.54,0,0,0-3.05,8.25,14.57,14.57,0,0,0,3.05,8.25.9.9,0,0,0,1.45,0,14.57,14.57,0,0,0,3.05-8.25A14.54,14.54,0,0,0,162.1.37ZM161,15.82a12.64,12.64,0,0,1-1.76-6.07,12.65,12.65,0,0,1,1.82-6.16c.12-.21.41-.25.61.1a12.63,12.63,0,0,1,1.77,6.06,12.64,12.64,0,0,1-1.77,6.07C161.52,16.15,161.23,16.15,161,15.82ZM213.8,7.15c.9,4.22,3.52,7.78,7.81,8.86,7.51,1.88,22,3,29.37,12.26a14.12,14.12,0,0,1,1,16.6l-2.34-1.48a12.63,12.63,0,0,0-.91-13.65c-6.68-9.69-24.16-8.93-23.17.88-1.74-.69-5.31-4.3-.75-8.54.12-.11,0-.31-.16-.3C213.07,22.85,209.66,16.32,213.8,7.15Zm36.14,40.76c-11.54-8.23-21-11.88-28.3-12.62l-1.17-1c8.14.38,19,3.84,31.84,11.63Zm53,24.74c-13.35-15.2-18.13-2.51-46.28-21.18l2.44-1.72c3.74,2.44,6.77,4.56,9.29,4.43,3.71-.2,7.89-3.06,7.46-6.19-.21-1.48-1.89-2.39-1.93-3.86a.93.93,0,0,1,.75-.92c1.47-.31,2.74,1.46,2.74,3,0,5.65-5,8-8.71,8.7a.23.23,0,0,0-.11.41c10.63,7.71,15.26-3.31,12.06-6.64,3.6-.72,7.27,2.21,5.1,7.69a.35.35,0,0,0,.36.46C290.56,56.58,303.26,62,303,72.65Zm19.77-6.83c-7.69,3.52-9-3.65-8.34-9.87,0-.16-.15-.32-.25-.19-2.6,3.1-4.59,0-4.94-1.47,5.55,1.6,7.23-12.41-.22-19.8-18.08-18-39.92,7.39-50.47,14.86-52.8,37.37-65.94-9.16-45.49-14.42l.91.75c-17.68,4.38-4.65,46.74,39.22,10.76,22.34-18.33,37.5-29,54.78-15.49,8.84,6.93,8.92,21.61,9.8,27.81A8.8,8.8,0,0,0,322.75,65.82ZM246.7,46.55,249.1,48c-6.19,4.73-13.38,5-34.1-12.53-11.31-9.57-24.61-8.68-32.45-3.18a7.77,7.77,0,0,1-2.45-4c8.59-6.31,23.89-6.52,40.45,7.12C230.66,43.69,239.87,51.21,246.7,46.55ZM193.26,80.24c1.32-4.08.85-8.55-2.29-11.78-5.48-5.67-12.46-10.67-15.89-17.54-3.77-7.55-2.4-15.13,2.36-20.3a18.56,18.56,0,0,0,2.62,3.77c-3.89,3.9-5.5,9.22-3.19,14.7a15,15,0,0,0,8.73,7.74c3.15,1.19,7.91-.09,9.23-3,1.14,1.51,2.4,6.5-3.53,7.69-.17,0-.25.27-.09.36C201.5,67.12,201.51,74.53,193.26,80.24Zm6.88-50.49a7,7,0,0,1,1.19.3c-6.16,9.2-17.82,9.1-22.46,1.2-1.69-2.86-3.43-10.44.41-10.44a1.33,1.33,0,0,1,.83.29c1,.84.7,2.39-.27,3.7a5.28,5.28,0,0,0,.1,5.83C184.28,38.05,194.77,37.85,200.14,29.75Zm-34.25-.1a2.41,2.41,0,0,0,0-4.82h-.66a.47.47,0,0,1-.49-.51A22.86,22.86,0,0,1,180.82,5.51C193.35,1.9,204.23,13.13,202.4,24c.41.13.82.26,1.23.41C206.35,11.58,193.36-.5,180.05,3.34a25,25,0,0,0-17.58,20.92.64.64,0,0,1-.62.57h-.95a.64.64,0,0,1-.62-.57A25,25,0,0,0,142.7,3.34c-13.31-3.84-26.3,8.24-23.58,21.08.41-.15.82-.28,1.23-.41-1.82-10.88,9.05-22.11,21.58-18.5A22.84,22.84,0,0,1,158,24.32a.47.47,0,0,1-.49.51h-.66a2.41,2.41,0,0,0,0,4.82h.57a.24.24,0,0,1,.19.39c-8.52,9.43-7.78,31.79,3,43.51a1.06,1.06,0,0,0,1.58,0c10.74-11.72,11.48-34.08,3-43.51a.24.24,0,0,1,.19-.39Zm-4.12,23.24a.52.52,0,0,1-.79,0c-4.5-5-4.22-16.45,0-21.67a.48.48,0,0,1,.75,0C166,36.44,166.27,47.9,161.77,52.89Zm-91-8a14.14,14.14,0,0,1,1-16.6C79.13,19,93.63,17.89,101.14,16c4.29-1.08,6.91-4.64,7.81-8.86,4.14,9.17.73,15.7-10.88,14.63-.17,0-.28.19-.16.3,4.56,4.24,1,7.85-.75,8.54,1-9.76-16.46-10.6-23.17-.88a12.63,12.63,0,0,0-.91,13.65Zm30.37-9.58c-7.28.74-16.76,4.39-28.3,12.62l-2.37-2c12.87-7.79,23.7-11.25,31.84-11.63ZM63.61,49.75l2.45,1.72c-28.15,18.67-32.94,6-46.29,21.18C19.49,62,32.19,56.58,36.6,56.85a.34.34,0,0,0,.36-.46c-2.17-5.48,1.51-8.41,5.1-7.69C38.85,52.05,43.52,63,54.13,55.34a.23.23,0,0,0-.12-.41c-3.71-.68-8.71-3-8.71-8.7,0-1.56,1.27-3.33,2.75-3a.94.94,0,0,1,.74.92c0,1.47-1.72,2.38-1.92,3.86-.44,3.13,3.74,6,7.45,6.19C56.84,54.31,59.87,52.19,63.61,49.75Zm.61-.4C53.67,41.88,31.83,16.54,13.75,34.49c-7.3,7.24-5.93,21.44-.22,19.8-.35,1.45-2.34,4.57-4.94,1.47-.1-.13-.27,0-.25.19C9,62.17,7.69,69.34,0,65.82a8.76,8.76,0,0,0,5-7.06c.89-6.2,1-20.88,9.81-27.81,17.27-13.51,32.43-2.84,54.77,15.49,43.87,36,56.9-6.38,39.22-10.76l.91-.75C130.16,40.19,117,86.72,64.22,49.35ZM73.65,48l2.4-1.46c6.83,4.66,16-2.86,26.15-11.18,16.56-13.64,31.86-13.43,40.45-7.12a7.74,7.74,0,0,1-2.44,4c-7.85-5.5-21.15-6.39-32.46,3.18C87,53,79.84,52.74,73.65,48Zm71.66-17.39c4.76,5.17,6.13,12.75,2.36,20.3-3.43,6.87-10.4,11.87-15.89,17.54-3.14,3.23-3.61,7.7-2.29,11.78-8.24-5.71-8.24-13.12,2-18.38.17-.09.09-.32-.09-.36-5.93-1.19-4.67-6.18-3.53-7.69,1.32,2.93,6.08,4.21,9.23,3a15,15,0,0,0,8.73-7.74c2.31-5.48.7-10.8-3.19-14.7A18.56,18.56,0,0,0,145.31,30.62Zm-23.88-.57a6.49,6.49,0,0,1,1.19-.3c5.36,8.1,15.85,8.3,20.19.88a5.28,5.28,0,0,0,.11-5.83c-1-1.31-1.32-2.86-.28-3.7a1.34,1.34,0,0,1,.84-.29c3.83,0,2.09,7.58.41,10.44C139.24,39.15,127.58,39.25,121.43,30.05Z"/></g></g></svg>