<svg xmlns="http://www.w3.org/2000/svg" viewBox="0 0 322.75 94.13"><title>80</title><g id="Layer_2" data-name="Layer 2"><g id="Layer_1-2" data-name="Layer 1"><path d="M210.8,42.83c-.26,0-.52,0-.79,0l-.12,0c-1.31-3.68-7.21-6-13.47-6-5.58,0-13.35,3-21.44,6.93-7.79,3.78-14,7.59-25.34,3.09q1.19-.57,2.34-1.2l.06-.06c8.12,3.26,13.49,1.55,21.85-2.27,8.65-3.94,16.7-7.45,22.53-7.45C203.88,35.87,209.59,38.82,210.8,42.83Zm-51.48-2.66c-2.15,1.06-17.82,8.64-20.65,9.87.42.12.83.28,1.26.41,2.78-1.23,20.42-9.83,20.64-9.94A10,10,0,0,0,159.32,40.17Zm2.75,20.24C154.8,57.3,127.9,45.24,113.6,45.24h0a.33.33,0,0,1,0,.15v.81c10.79,0,33.79,10.49,45.77,15.51A18.32,18.32,0,0,0,162.07,60.41ZM210,45.86c-.89,4.3-5.58,6.83-10.84,6.83-6.46,0-11.69-3.75-22.87-8.39-.79.33-1.61.61-2.39,1,14.26,5.89,19.34,8.39,25.26,8.39S210,50.44,210.9,45.91Zm1-2c-8.29-1.21-16.44,1.53-22.84,4.34a12.26,12.26,0,0,1,1.2.44c6-2.51,15.38-4.83,21.66-3.79,4.65.77,7.64,4.17,7.64,7.74a7.37,7.37,0,0,1-1.52,4.31,8.57,8.57,0,0,1,.61.77,8.37,8.37,0,0,0,2-5.08C219.74,48.92,216.64,44.7,211,43.87Zm-76.9,8c-4.56,1.75-8.6,2.86-11.74,2.86-5.14,0-10.34-4.73-9.55-9.66.72-4.49,4.67-6.92,10.26-6.92,5.93,0,13.06,3,23.27,7.28A12.25,12.25,0,0,0,149,44.36c-11.62-4.54-19.45-7.13-25.86-7.13-7.37,0-12.24,3.62-13,8.08-.86,5.44,4.92,10.42,12.24,10.42,3.41,0,7.88-1.31,12.92-3.32A8.72,8.72,0,0,0,134.12,51.91Zm-24.84-4.79a.34.34,0,0,1-.06-.2V45.8c-5.24,1.45-7.85,5.46-7.85,9.37a8.3,8.3,0,0,0,2.22,5.59,4.93,4.93,0,0,0,1.48-2.17,3,3,0,0,0,.08-.32A8.19,8.19,0,0,1,104,54.21C104,50.89,106.36,48.38,109.28,47.12ZM102,49.9a9.8,9.8,0,0,1,.73-1h0C78.89,33.57,40.92,52.42,11.42,53,7.34,53.05,3.7,51.68,0,49.17c.43,14.24,21.7,9.47,32.19,6.48.08,0,.11.09,0,.13-4.63,2.76-7.67,3.66-6.16,8.72C41.85,51.75,82.29,35.53,102,49.9Zm82.86.77c0-.09-.91-.32-1-.44-3.7,1.81-21.4,11.09-30.72,15.32a7.22,7.22,0,0,1-3.78.63c-3.89-.45-4.73-6.63,1.26-6.44a.35.35,0,0,0,.27-.6c-3.92-3.25-11.47.08-10.61,6.35,0,.15-.13.31-.24.19-3.22-3.53-5.75-1.15-10.8-1.92-.21,0-.35.17-.21.29,3,2.56,2.57,5.31,6.23,6,.15,0,.13.24,0,.29-2.73,1-7.25,1.62-10.71,2.88-5.43,2-10.77,4.58-14.48,8.68-1.92,2.12-3.72,4.67-3.48,7.56a5.07,5.07,0,0,0,2.68,4.35,4.81,4.81,0,0,0,5.23-1.25A2.06,2.06,0,0,0,115,90a1.35,1.35,0,0,0-1.94-.21c-.51.48-.47,1.2-.58,1.82-.27,1.44-2.8,1.82-3.7.52a5.87,5.87,0,0,1-.88-5.36c.89-2.37,3-4.13,5.21-5.52,4.06-2.54,8.89-3.86,13.69-5,7.54-1.82,15.61-2.9,22.19-6.61C153.77,66.94,179.71,53.2,184.89,50.67Zm-79.25.74a5.62,5.62,0,0,0-.56,1.6,6.77,6.77,0,0,1,.88,5.81c-2.25,6.71-15.12,5.29-20.58,3.07-5.78-2.36-11.51-15.31-21.7-13.75-3,.46-6,1.83-7.2,4.36a21.2,21.2,0,0,1,5.79-1.1c6.46,0,14.18,7.72,22,11.46.08,0,0,.16-.11.15-9.67-1.08-19.57,3.35-28.1,7.89-9,4.83-24,7.7-27.25,0a.51.51,0,0,0-.52-.23.83.83,0,0,0-.59.31c-3.35,5.3-.91,10.13,6.64,10.79C43.05,82.51,52,78,58.54,73.7,71.49,65.21,79,63.78,86.27,64c0,0,0,.09,0,.1a27.17,27.17,0,0,0-10.94,4.1c-4.4,2.86-7.48,6.91-11.71,9.94-8,5.76-13.52,7.31-21.28,7.27-2.37,0-4.93-.87-7,.56C45.68,91.28,61.88,89.65,67,82a.34.34,0,0,1,.59,0c4.08,6.92,10.18,4.9,12.63,1.07-3.76-.6-6.11-1.74-6.73-5.75-.51-3.22,1.52-6.29,4-8.6a13.93,13.93,0,0,1,7.85-3.39.28.28,0,0,1,.26.43c-2,2.8-7.83,10.42.13,16.13,1.62,1.16,4.6,1.29,5.61-.31a1,1,0,0,0-.29-1.38c-1.55-1.06-4-.17-5.74-1.08-5.15-2.72-1.44-14.4,6-14.4,6.63,0,15.18.78,16.38-7.1A7.85,7.85,0,0,0,105.64,51.41ZM311.33,53c-29.5-.55-67.47-19.4-91.32-4.08h0a9.8,9.8,0,0,1,.73,1c19.74-14.37,60.19,1.85,76,14.6,1.32-4.42-.75-5.43-6.15-8.71-.06,0,0-.17,0-.14,10.49,3,31.76,7.76,32.19-6.48C319.05,51.68,315.41,53.05,311.33,53ZM198.22,73.2c-3.46-1.26-8-1.89-10.71-2.88-.14,0-.16-.26,0-.29,3.66-.67,3.19-3.42,6.23-6,.14-.12,0-.32-.21-.29-5.05.77-7.58-1.61-10.8,1.92-.11.12-.26,0-.23-.19.85-6.26-6.69-9.6-10.62-6.35a.35.35,0,0,0,.26.6c5.21-.17,5.52,4.8,2.16,6.2a101,101,0,0,1-9.47-4.2,16.47,16.47,0,0,0-2.37,1.2c4.09,1.67,6.76,4.24,11.34,6.72,6.66,3.61,14.65,4.79,22.2,6.61,4.79,1.15,9.62,2.47,13.68,5,2.22,1.39,4.32,3.15,5.22,5.52a5.9,5.9,0,0,1-.89,5.36c-.9,1.3-3.43.92-3.7-.52-.11-.62-.07-1.34-.58-1.82a1.35,1.35,0,0,0-1.94.21,2.07,2.07,0,0,0,.5,2.51,4.8,4.8,0,0,0,5.23,1.25,5.08,5.08,0,0,0,2.67-4.35c.24-2.89-1.56-5.44-3.48-7.56C209,77.78,203.65,75.17,198.22,73.2Zm96.22-2.54c-.26,0-.46.07-.53.23-3.22,7.71-18.21,4.84-27.25,0-8.53-4.54-18.43-9-28.1-7.89-.09,0-.19-.11-.1-.15,7.84-3.74,15.56-11.5,22-11.46a21.2,21.2,0,0,1,5.79,1.1c-1.16-2.53-4.24-3.9-7.2-4.36-10.19-1.56-15.92,11.39-21.7,13.75-5.45,2.22-18.05,3.57-20.58-3.07a6.59,6.59,0,0,1,.88-5.81,5.62,5.62,0,0,0-.56-1.6A7.81,7.81,0,0,0,215,57.62c1.19,7.88,9.74,7.1,16.37,7.1,8.2,0,10.48,12,6,14.4-1.73.91-4.19,0-5.74,1.08a1,1,0,0,0-.29,1.38c1,1.6,4,1.47,5.61.31,7.5-5.37,2.53-13.29.52-15.83a.41.41,0,0,1,.39-.66,13.69,13.69,0,0,1,7.33,3.32c2.45,2.31,4.48,5.38,4,8.6-.62,4-3.22,5.19-6.74,5.75.72,1.13,7.49,7.85,12.68-1.15.12-.21.42-.15.56.06,5.46,8.16,21.85,9,31.69,4-2.06-1.43-4.62-.57-7-.56-8.11,0-13.53-1.68-21.28-7.27-4.23-3-7.3-7.08-11.72-9.94a26.84,26.84,0,0,0-10.92-4.1c-.06,0-.07-.09,0-.1,7.37-.26,14.9,1.25,27.72,9.66,6.59,4.33,15.49,8.81,24.17,8.06,7.55-.66,10-5.49,6.64-10.79A.83.83,0,0,0,294.44,70.66ZM124.86,62c-1.36-.64-2.57.61-2.28,1.27a1.31,1.31,0,0,1-.14,1.34c-.58.89-1.8.83-2.9.83a18.23,18.23,0,0,1-12.08-4.33A7.28,7.28,0,0,1,106,62.82c3.41,2.29,8.4,3.26,13.58,3.4,1.92,0,4.71-.17,5.83-1.91A1.57,1.57,0,0,0,124.86,62Zm89.3-2.34c-2.57,1.61-6.34,2.74-11.62,2.74-1.44,0-3,.06-3.58-.84a1.27,1.27,0,0,1-.14-1.34c.28-.65-.89-1.92-2.28-1.27a1.57,1.57,0,0,0-.56,2.33c1.12,1.74,4.24,2.08,6.56,2.08,5.43,0,9.36-1.21,12.1-2.92A6.28,6.28,0,0,1,214.16,59.64ZM176.68,30.79c-8.63-6.46-12.05-12-15-30a.86.86,0,0,0-1.72,0c-2.93,18-6.35,23.56-15,30-1.51,1.13-1.58,1.81,1.08,2.9,4.47,1.85,21.9,9.13,24.4,10.16a8.76,8.76,0,0,0,2.16-1c-3.33-1.36-26.08-9.72-24.52-11,6.13-5,9.89-9.42,12.56-18.95a.16.16,0,0,1,.31,0c2.72,9.57,7.67,15,13.8,20,.26.21-7.54,3.15-11,5a7.53,7.53,0,0,1,.95.45,76.19,76.19,0,0,1,11-4.7C178.26,32.66,178.27,32,176.68,30.79Z"/></g></g></svg>