<svg xmlns="http://www.w3.org/2000/svg" viewBox="0 0 322.75 79.95"><title>81</title><g id="Layer_2" data-name="Layer 2"><g id="Layer_1-2" data-name="Layer 1"><path d="M257,43.79c-12.46,4.48-20.68,14.47-31,19.39-27.65,13.18-43.36,5.07-48.43-.18-10.41-10.81-6.87-24.62-2.71-29.64,10.16-12.23,28.88-13.64,38.58-4.92,4.47,4,5.56,11.24,1.78,16-5.5,6.92-18.4,10.32-24.74,3.74a7,7,0,0,1-1.13-7.73c2.31-5.05,10.53-6.69,14.39-2.41a3.93,3.93,0,0,1,.62,4.29,2.13,2.13,0,0,1-2.46,1.12c-2.42-1,.29-5.18-2.08-6.59a4.84,4.84,0,0,0-6.05,1.52,7.94,7.94,0,0,0,1.79,10.88c3.84,2.61,14.47,1.54,16.64-7.7a15,15,0,0,0-2-11.64c-5.7-8.58-22.15-6.64-29.73,1.34-3.21,3.39-9.69,15.39-1.84,26.73,10.36,15,32.37,9,44.66,2.59,8.35-4.38,13.71-14,33.21-19.67a16,16,0,0,1,10.24.33A42,42,0,0,0,257,43.79Zm-191.22,0c12.46,4.48,20.68,14.47,31,19.39,27.66,13.18,43.36,5.07,48.43-.18,10.41-10.81,6.87-24.62,2.71-29.64C137.76,21.13,119,19.72,109.34,28.44c-4.48,4-5.57,11.24-1.78,16,5.49,6.92,18.39,10.32,24.74,3.74a7,7,0,0,0,1.12-7.73c-2.3-5.05-10.53-6.69-14.39-2.41a3.91,3.91,0,0,0-.62,4.29,2.13,2.13,0,0,0,2.46,1.12c2.43-1-.29-5.18,2.08-6.59a4.83,4.83,0,0,1,6,1.52c2.32,3.32,1.77,8.46-1.79,10.88-3.83,2.61-14.47,1.54-16.64-7.7a15,15,0,0,1,2-11.64c5.7-8.58,22.15-6.64,29.73,1.34,3.22,3.39,9.68,15.39,1.84,26.73-10.36,15-32.37,9-44.65,2.59-8.36-4.38-13.72-14-33.22-19.67a16,16,0,0,0-10.24.33A42.06,42.06,0,0,1,65.77,43.79ZM210.44,61.5a37.19,37.19,0,0,0,10.61-6.14c20-18.24,31.57-21.06,40.09-21.44,1.2-.78,2.44-1.49,3.7-2.15a27.54,27.54,0,0,1,5.86.89c-.79.46-1.57,1-2.3,1.45a.2.2,0,0,0,.11.37c15.15,1.14,26.33,25,53.92,12.83.25-.11.45.22.22.36-34,21-42.46-9.6-61.16-9.6-8.3,0-22.73,6.8-34.87,17.3C220.32,60.82,205,63.79,210.44,61.5Zm93.92-32.27c-8.84-6.84-24-3.36-31.63-.81a31.54,31.54,0,0,1,4.06,1.38c5.2-1.93,18.84-5,26.18,1.05,5.54,4.56,2.66,11.33-2.11,11.17a3.91,3.91,0,0,1-3.56-2.24,1.84,1.84,0,0,1,.09-1.46.24.24,0,0,1,.43,0,1.66,1.66,0,0,0,1.79,1.22,2.06,2.06,0,0,0,1.24-3.42,3.31,3.31,0,0,0-4.75-.32,4.24,4.24,0,0,0-1.29,4.26c.58,2.43,3.18,4,5.8,4.13C308.06,44.65,311.59,34.82,304.36,29.23Zm-192,32.27a37.19,37.19,0,0,1-10.61-6.14c-20-18.24-31.57-21.06-40.09-21.44-1.2-.78-2.43-1.49-3.7-2.15a27.54,27.54,0,0,0-5.86.89c.79.46,1.57,1,2.31,1.45a.2.2,0,0,1-.12.37C39.09,35.62,27.91,59.51.33,47.31c-.26-.11-.46.22-.23.36,34,21,42.46-9.6,61.16-9.6,8.3,0,22.73,6.8,34.87,17.3C102.43,60.82,117.78,63.79,112.31,61.5ZM22.14,44.24c2.63-.14,5.23-1.7,5.8-4.13a4.24,4.24,0,0,0-1.29-4.26,3.3,3.3,0,0,0-4.74.32,2.05,2.05,0,0,0,1.23,3.42,1.68,1.68,0,0,0,1.8-1.22.23.23,0,0,1,.42,0,1.84,1.84,0,0,1,.09,1.46A3.91,3.91,0,0,1,21.89,42c-4.77.16-7.64-6.61-2.11-11.17,7.34-6.05,21-3,26.19-1.05A31.37,31.37,0,0,1,50,28.42c-7.61-2.55-22.79-6-31.63.81C11.16,34.82,14.69,44.65,22.14,44.24Zm249,6a7,7,0,0,1,1.12,7.73c-2.3,5.05-10.53,6.69-14.39,2.41a3.93,3.93,0,0,1-.62-4.29,2.13,2.13,0,0,1,2.46-1.12c2.43,1-.29,5.18,2.08,6.59a4.84,4.84,0,0,0,6-1.53,7.92,7.92,0,0,0-1.79-10.87c-5.39-3.67-14.93.44-16.64,7.7a15,15,0,0,0,2,11.64c6.74,10.15,23.8,4.9,29.73-1.34a23.69,23.69,0,0,0,5.57-15.29,37.48,37.48,0,0,0,4,1.93,20.87,20.87,0,0,1-4,11.27c-10,12-28.82,13.68-38.57,4.92-4.48-4-5.57-11.24-1.78-16C252.38,46.42,265.65,44.51,271.14,50.21Zm-75.09,7.55s-.1.06-.07.06c25.4-1.51,27-11.64,42.39-20,14.9-8.09,34.82-10.71,44.24,2,.56.37,5.19,3.44,7,4.52-4.25-12.3-22-24.84-54-9.12C223,41.42,210.53,55.93,196.05,57.76ZM51.61,50.21a7,7,0,0,0-1.12,7.73C52.8,63,61,64.63,64.88,60.35a3.91,3.91,0,0,0,.62-4.29A2.13,2.13,0,0,0,63,54.94c-2.42,1,.29,5.18-2.07,6.59a4.84,4.84,0,0,1-6-1.53A7.9,7.9,0,0,1,56.7,49.13c5.39-3.67,14.93.44,16.64,7.7a15,15,0,0,1-2,11.64c-6.74,10.15-23.79,4.9-29.73-1.34A23.69,23.69,0,0,1,36,51.84a37.48,37.48,0,0,1-4,1.93A21,21,0,0,0,36,65c10,12,28.83,13.68,38.58,4.92,4.47-4,5.56-11.24,1.78-16C70.38,46.42,57.11,44.51,51.61,50.21Zm35.53-15c-32-15.72-49.74-3.18-54,9.12,1.81-1.08,6.43-4.15,7-4.52,9.41-12.73,29.34-10.11,44.24-2,15.41,8.38,17,18.51,42.38,20,0,0,0-.06-.07-.06C112.22,55.93,99.78,41.42,87.14,35.22Zm85.5-7.52C166.46,21.87,164,16.84,161.91.59c-.09-.79-1-.79-1.07,0-2.09,16.25-4.55,21.28-10.73,27.11-1.14,1.07-1.9,1.22,0,2.17,2.58,1.28,7.69,6.47,9.48,8.45a.88.88,0,0,1,.11,1,35.23,35.23,0,0,1-2.49,4.12,1.6,1.6,0,0,0,0,1.82,35.18,35.18,0,0,1,2.53,4.2.82.82,0,0,1-.11.86c-5.42,6.64-7.71,17.36,1.08,29.32a.82.82,0,0,0,1.31,0c8.79-12,6.5-22.68,1.09-29.32a.88.88,0,0,1-.07-.95,35.23,35.23,0,0,1,2.49-4.12,1.58,1.58,0,0,0,0-1.81,35.23,35.23,0,0,1-2.49-4.12.88.88,0,0,1,.11-1c1.8-2,6.91-7.17,9.48-8.45C174.54,28.92,173.79,28.77,172.64,27.7Zm-10.9,43.77a.45.45,0,0,1-.73,0c-2.15-3-4.73-12.39,0-18.83a.47.47,0,0,1,.75,0C166.47,59.08,163.89,68.49,161.74,71.47Zm1.94-27.59a.74.74,0,0,1,0,.89c-.71.87-1.38,1.73-2,2.52a.41.41,0,0,1-.66,0c-.6-.8-1.27-1.65-2-2.53a.69.69,0,0,1,0-.87c.7-.88,1.37-1.73,2-2.52a.4.4,0,0,1,.65,0C162.3,42.15,163,43,163.68,43.88Zm-1.94-9.74a.5.5,0,0,1-.73,0c-2-2.18-3.84-4.42-6-5.7a.41.41,0,0,1-.07-.64c2.86-3.1,4.82-5.48,6.3-9.92a.19.19,0,0,1,.36,0c1.49,4.43,3.45,6.81,6.31,9.9a.42.42,0,0,1-.09.63C165.59,29.72,163.73,32,161.74,34.14Z"/></g></g></svg>