<svg xmlns="http://www.w3.org/2000/svg" viewBox="0 0 322.75 55.75"><title>82</title><g id="Layer_2" data-name="Layer 2"><g id="Layer_1-2" data-name="Layer 1"><path d="M129,15.13a.2.2,0,0,1,0,.39c-16.6,4-32.66,39-61.07,22a.39.39,0,0,1,.16-.71C92.27,33.94,111.61,13.08,129,15.13ZM84.17,52.22a.48.48,0,0,0-.14.86c19,11.47,25.93-17.43,35.76-22.48.24-.13.23-.51,0-.51C108.86,30,98.78,48,84.17,52.22ZM193.82,14.74a.21.21,0,0,0,0,.4c16.6,4.05,32.67,39,61.08,22a.39.39,0,0,0-.23-.7C230.46,33.53,211.14,12.71,193.82,14.74Zm9.18,15c-.27,0-.28.38,0,.5,9.83,5.06,16.71,33.95,35.76,22.49a.48.48,0,0,0-.15-.86C224,47.6,213.89,29.66,203,29.71Zm-43.82-3.22c-2.89-17-17.86-20.78-27.44-20.78-26.44,0-56.23,17.22-65.42,14.58-10.24-2.94-6.06-12,2.48-8.81a.52.52,0,0,0,.71-.66C66.18,3.49,45.39.58,50.68,19.62a.22.22,0,0,1-.33.25C30.22,8.09,16.11,5.39.12,15.8a.26.26,0,0,0,.19.48c17.29-2.07,28.58,11.59,42.8,14.17C84.47,38,106.63,10.68,128.26,9.26c12.61-.82,24.52,6.28,26.53,18,1.6,9.34-4.21,18.11-13,19.6-7,1.19-13.74-3.91-15-11.38-1-6,2.69-11.59,8.3-12.54a8.55,8.55,0,0,1,9.62,7.28,6.81,6.81,0,0,1-5.32,8,5.48,5.48,0,0,1-6.15-4.66c-.42-2.45,6.86,3.25,8.17-1.95.65-2.56-2.57-3.84-4.86-3.45a5.28,5.28,0,0,0-4.32,6.08,6.6,6.6,0,0,0,7.61,5.39,8.24,8.24,0,0,0,6.74-9.5,10.31,10.31,0,0,0-11.89-8.43,12.87,12.87,0,0,0-10.52,14.86A16.09,16.09,0,0,0,142.74,49.7,20.11,20.11,0,0,0,159.18,26.49Zm4.39-.38c2.89-17,17.86-20.78,27.43-20.78,26.45,0,56.24,17.22,65.43,14.58,10.24-2.94,6.06-12-2.48-8.81-.42.16-.92-.17-.74-.58,3.21-7.39,24.14-10.39,18.87,8.68a.23.23,0,0,0,.32.28C292.53,7.71,306.64,5,322.63,15.41a.26.26,0,0,1-.18.48c-17.3-2.07-28.59,11.6-42.81,14.18-41.36,7.51-63.52-19.77-85.15-21.19C181.88,8.05,170,15.16,168,26.83c-1.61,9.34,4.2,18.11,13,19.59,7,1.19,13.74-3.9,15-11.37,1-6-2.69-11.59-8.3-12.54A8.55,8.55,0,0,0,178,29.79a6.82,6.82,0,0,0,5.32,8,5.48,5.48,0,0,0,6.15-4.67c.42-2.44-6.86,3.26-8.17-1.94-.65-2.56,2.57-3.85,4.86-3.45a5.28,5.28,0,0,1,4.32,6.08,6.59,6.59,0,0,1-7.61,5.39,8.24,8.24,0,0,1-6.74-9.5,10.31,10.31,0,0,1,11.89-8.43,12.87,12.87,0,0,1,10.52,14.85A16.07,16.07,0,0,1,180,49.31,20.1,20.1,0,0,1,163.57,26.11Zm8.27-9.93h-21.2a4.08,4.08,0,1,0,0,8.16h21.2a4.08,4.08,0,0,0,0-8.16ZM161.24,0a5.21,5.21,0,1,0,5.2,5.2A5.2,5.2,0,0,0,161.24,0Z"/></g></g></svg>