<svg xmlns="http://www.w3.org/2000/svg" viewBox="0 0 322.75 72.43"><title>83</title><g id="Layer_2" data-name="Layer 2"><g id="Layer_1-2" data-name="Layer 1"><path d="M179.36,26.23A1.21,1.21,0,0,0,180.42,25c-.71-5.29-8-6.82-11.87-5.93a.4.4,0,0,1-.49-.44c1.3-10-3.43-16-5.85-18.25a1.23,1.23,0,0,0-1.68,0c-2.42,2.29-7.16,8.23-5.86,18.25a.4.4,0,0,1-.49.44c-3.85-.89-11.15.64-11.86,5.93a1.19,1.19,0,0,0,1,1.27c5.3,1,9.6,5,12.5,12.35,1,2.61.85,7.08,4.08,10.66a.71.71,0,0,1,.08.87c-1,1.42-1.53,3.17-2.59,4.57-1.29,1.69-3.55,1.93-5.61,1.79a.88.88,0,0,0-1,1c.35,1.86,1.68,5,6.38,3a.33.33,0,0,1,.46.32,24.68,24.68,0,0,0,3.19,11.37.59.59,0,0,0,1,.06,24.85,24.85,0,0,0,3.22-11.38.36.36,0,0,1,.5-.35c4.61,2,6-1,6.33-2.91a.9.9,0,0,0-1-1c-2.07.14-4.32-.1-5.61-1.79-1.06-1.4-1.57-3.15-2.59-4.57a.7.7,0,0,1,.08-.87c3.22-3.58,3.06-8,4.08-10.66C169.76,31.28,173.9,27.26,179.36,26.23Zm-18.3,26.1a.36.36,0,0,1,.62,0c1.51,2.75,1.21,7.33,0,9.18a.38.38,0,0,1-.64,0C159.84,59.66,159.55,55.08,161.06,52.33Zm14.15-28a.73.73,0,0,1-.35.81c-3.67,2.25-7.5,9-9.36,13.68,0,.06-.15.1-.14,0,1.09-7.21,1.42-15.6-4-15.6s-5.08,8.39-4,15.6c0,.07-.11,0-.13,0-1.88-4.63-6.15-11.67-9.34-13.68a.75.75,0,0,1-.37-.82c1-3.59,6-4.57,8.88-2.54a.47.47,0,0,0,.75-.38c-.38-4.56.44-9.66,3.8-12.91a.59.59,0,0,1,.82,0c3.36,3.25,4.18,8.35,3.8,12.91a.46.46,0,0,0,.75.38C169.25,19.79,174.24,20.77,175.21,24.36ZM314.57,41.2a.27.27,0,0,0-.1.52c6.09,2.85,6.86,12.93-5.37,10.68A49.49,49.49,0,0,1,297,48c-.86-7.27-7.78-14.36-25.3-7.8-.06,0-.06-.1,0-.13,7.08-4.52,10.55-9.43,12.15-12.46a.47.47,0,0,0-.59-.65c-4,1.37-11.25,5.16-14.76,10.18-.07.11-.25.09-.24,0A23.54,23.54,0,0,0,266.93,24c-4.68-10.82-19.58-14.38-33.1-9-5.15,2.06-9.67,5.3-14.18,8.44-.05,0-.09-.06-.05-.1a7.61,7.61,0,0,0,1.44-9,1,1,0,0,0-1.48-.35c-1.75,1.31-4.8,4.24-4.84,8.65,0,0-.08,0-.09,0C211.56,8,190.88,6.87,190.5,21.5c-.07,2.6,1.21,5.53,3.9,6.32,4.44,1.31,6.37-5-.09-7a8.24,8.24,0,0,1,.72-4.25c3.25-6.79,15.74-4.88,16.4,6.39a15.65,15.65,0,0,1-3.88,10.6c-4.19,5.08-10.3,9-17.05,9.06a.24.24,0,0,0-.24.24.25.25,0,0,0,.25.25,25.52,25.52,0,0,0,12.94-3.61c6.39-3.82,11.35-9.49,17.31-13.86a137,137,0,0,1,12.53-8.28c11.25-6.34,27.11-5.1,32.45,6.26a19.21,19.21,0,0,1,.92,12.71A12.5,12.5,0,0,1,264,41.83c-.12.13-.32,0-.29-.19a23,23,0,0,0,.21-6.73C261.74,21,246.23,18.56,233.26,24c-8.3,3.48-15.35,9.21-22.52,14.55-4.28,3.18-8.68,6.4-13.72,8.28-5.71,2.21-12.89.86-13.67-3.78-.2-1.15-.34-2.51.5-3.47,1.45-1.65,4.16-1.09,5.63-2.57,1.25-1.25-1.09-5.53-5.6-.81A8.5,8.5,0,0,0,182.07,43c.68,5.72,9.44,6.54,15.64,4.46s12-5.68,17.81-8.9c6.69-3.73,13.39-4.71,16,.93a.7.7,0,0,0,1.16.21c3.18-3.93.85-6.92-3.3-7.74a.18.18,0,0,1-.05-.34c7.79-4,16.71,2.77,19.14,4.05a6.81,6.81,0,0,0,6.58-.46.35.35,0,0,0-.2-.63,8,8,0,0,1-3.46-1c-8.29-4.82-11.35-6-22.08-2.78-.09,0-.11-.12,0-.17C252.5,15,261,29.54,261.83,32a16.74,16.74,0,0,1-.66,13,.57.57,0,0,1-.78.2c-1.75-.84-2.55.16-2.37,1.84a1.19,1.19,0,0,1-.31,1c-7.09,6.89-16.49,5-16.64-2.73-.13-6.54,5.38-6.65,7-4.7,1.86,2.27.25,3.09.58,4.6.2.93,1.41.8,1.75.05a4.13,4.13,0,0,0-.33-4c-4.58-6.13-13.89.44-10.39,7.37,1.49,3,8.52,8.25,18.91.76a1.06,1.06,0,0,1,1-.18c2,.67,2.83.3,2.77-1.83a1,1,0,0,1,.48-.85c8.31-5.29,22.55-4.43,33.23,2.18-.45,7.22-7.58,8.86-10.93,6.46-1.56-1-1.69-3.17-3.41-4a1.67,1.67,0,0,0-2.37,1.23,4.08,4.08,0,0,0,2,3.64c6.08,4,15,1.43,15.72-6.89,3.72,1.93,7.51,3.85,11.64,4.73C324.87,57.25,327.44,40.26,314.57,41.2Zm-18.68,6.28c-10.4-5.34-17.13-6.4-27.14-4.34-.08,0-.17-.09-.1-.13C287.38,32.89,295.24,41.77,295.89,47.48ZM186.59,31.23c-1.4.18-2.68-.77-4.09-.74a10.21,10.21,0,0,0-10.31,9.19c-.41,3.65.28,7.66,2.84,10.44,5.24,5.67,14.91,5.27,21,3.13,4.13-1.47,7.87-3.81,11.76-5.8,7.06-3.62,16-9.24,21.41-3.58A4.8,4.8,0,0,1,226.06,52a.41.41,0,0,1-.33-.69c1.78-2.07,3.81-6.07-.44-8-6-2.74-13.1,2.79-18.45,5.9-2.91,1.69-5.66,3.68-8.78,5-9.48,3.91-19.7,2.76-24.66-4.23a14.28,14.28,0,0,1-2-11c1.44-7.11,8.15-11.92,14.25-10.57C187.8,28.82,187.88,31.07,186.59,31.23ZM14.09,54c4.13-.88,7.92-2.81,11.64-4.74.75,8.32,9.64,10.88,15.72,6.9a4.08,4.08,0,0,0,2-3.64A1.66,1.66,0,0,0,41,51.24c-1.71.86-1.84,3-3.4,4-3.35,2.4-10.49.75-10.94-6.47,10.68-6.6,24.92-7.47,33.24-2.17a1,1,0,0,1,.48.85c-.07,2.12.78,2.5,2.77,1.82a1.09,1.09,0,0,1,1,.18c10.39,7.49,17.42,2.2,18.91-.75,3.5-6.94-5.81-13.5-10.39-7.38a4.16,4.16,0,0,0-.34,4c.35.75,1.56.88,1.76,0,.32-1.51-1.28-2.33.58-4.59,1.61-1.95,7.12-1.85,7,4.69C81.51,53.16,72.12,55,65,48.16a1.21,1.21,0,0,1-.31-1c.18-1.67-.61-2.68-2.37-1.84a.57.57,0,0,1-.79-.2,16.78,16.78,0,0,1-.65-13c.88-2.43,9.33-17,32.58-1.36.07.05.05.19,0,.16-10.73-3.25-13.8-2-22.08,2.78a7.74,7.74,0,0,1-3.46,1,.35.35,0,0,0-.2.64,6.83,6.83,0,0,0,6.58.45c2.43-1.27,11.34-8.06,19.14-4.05a.18.18,0,0,1-.05.34c-4.15.83-6.49,3.81-3.3,7.75a.69.69,0,0,0,1.15-.22c2.6-5.64,9.3-4.65,16-.92C113,42,118.71,45.51,125,47.64s15,1.26,15.64-4.47a8.5,8.5,0,0,0-1.81-6.8c-4.51-4.73-6.85-.44-5.6.81,1.47,1.47,4.17.92,5.63,2.57.84,1,.7,2.32.5,3.47-.79,4.63-8,6-13.67,3.77-5-1.87-9.44-5.09-13.72-8.28-7.17-5.33-14.23-11.07-22.52-14.55-13-5.43-28.48-3-30.69,10.92A23.29,23.29,0,0,0,59,41.8c0,.18-.17.33-.29.2a12.48,12.48,0,0,1-2.64-5.49A19.18,19.18,0,0,1,57,23.81c5.34-11.37,21.2-12.6,32.45-6.27A141.3,141.3,0,0,1,102,25.82c6,4.37,10.92,10,17.31,13.86a25.49,25.49,0,0,0,12.94,3.61.25.25,0,1,0,0-.49c-6.74-.09-12.85-4-17-9.06a15.57,15.57,0,0,1-3.88-10.6C112,11.88,124.46,10,127.7,16.76a8.11,8.11,0,0,1,.73,4.24c-6.46,2-4.54,8.29-.09,7,2.69-.8,4-3.73,3.9-6.33-.38-14.62-21.06-13.53-24.13,1.1,0,.06-.09.06-.09,0,0-4.4-3.09-7.34-4.85-8.64a1,1,0,0,0-1.47.34,7.61,7.61,0,0,0,1.44,9s0,.14,0,.1c-4.51-3.14-9-6.38-14.18-8.43-13.52-5.4-28.42-1.84-33.1,9a23.64,23.64,0,0,0-1.29,13.18c0,.13-.16.16-.23.05-3.51-5-10.76-8.82-14.76-10.18a.47.47,0,0,0-.59.65c1.59,3,5.06,7.93,12.14,12.46.06,0,.06.15,0,.12-17.52-6.55-24.44.54-25.3,7.81a50.48,50.48,0,0,1-12.14,4.37C1.41,54.82,2.18,44.74,8.27,41.88a.27.27,0,0,0-.1-.52C-4.79,40.42-2,57.37,14.09,54Zm40-10.78c.08,0,0,.15-.09.13-10-2-16.74-1-27.14,4.35C27.5,41.94,35.36,33.06,54.08,43.17Zm83-14.66c6.1-1.35,12.81,3.46,14.25,10.58a14.25,14.25,0,0,1-2,11c-5,7-15.19,8.15-24.66,4.24-3.12-1.29-5.87-3.28-8.78-5-5.35-3.12-12.49-8.64-18.45-5.9-4.25,1.95-2.22,5.94-.44,8a.41.41,0,0,1-.33.69c-5.12-.61-5.25-5.9-3.12-8.11C99,38.38,107.91,44,115,47.61c3.89,2,7.62,4.34,11.76,5.81,6.06,2.14,15.74,2.54,21-3.14,2.57-2.77,3.26-6.79,2.85-10.44a10.23,10.23,0,0,0-10.31-9.19c-1.41,0-2.69.93-4.09.75S134.93,29,137.09,28.51Z"/></g></g></svg>