<svg xmlns="http://www.w3.org/2000/svg" viewBox="0 0 322.75 67.22"><title>84</title><g id="Layer_2" data-name="Layer 2"><g id="Layer_1-2" data-name="Layer 1"><path d="M320.85,37.46C315.62,30.4,302.42,27.58,293,34c-7.11,4.89-1.93,14.69,11,11.8a.3.3,0,0,0,0-.57c-9.44-2.76-8.92-7.21-5.85-9.71,6.42-5.26,18.89-3.71,22.52,3.66,3.89,7.92-5.85,16.18-17.95,17.33-20.25,1.93-38.12-7.36-55.27-16.68-.05,0-.06-.13,0-.11C258,43.1,274,46.29,275.66,33.43a.51.51,0,0,0-.76-.53c-8,5.38-15.25,3.75-36.69-1.88C227.76,9.72,198.32,11.35,179.09,23c-.11.07-.21-.1-.13-.22C186.55,10.59,186,4.37,196,3.08a.45.45,0,0,0,.18-.82,9.74,9.74,0,0,0-7.6-.73c-10.75,2.87-7,18.39-14.79,25a1.27,1.27,0,0,1-1,.24c-1.43-.12-2.54.57-2.6,1.68a1,1,0,0,1-.38.85c-6,3.36-10.68,3.57-17,0a1,1,0,0,1-.4-.87c-.08-1.13-1.2-1.8-2.61-1.68a1.27,1.27,0,0,1-1-.24c-7.82-6.66-4-22.14-14.78-25a9.76,9.76,0,0,0-7.61.73.45.45,0,0,0,.19.82c10,1.29,9.49,7.51,17.07,19.65.08.12,0,.29-.13.22C124.43,11.35,95,9.72,84.54,31c-21.29,5.59-28.63,7.29-36.68,1.88a.51.51,0,0,0-.77.53c1.64,12.86,17.67,9.67,28.16,6.32,0,0,0,.09,0,.11C58.08,49.18,40.21,58.47,20,56.54,7.87,55.39-1.88,47.13,2,39.21c3.63-7.37,16.09-8.92,22.52-3.66,3.06,2.5,3.59,7-5.86,9.71a.3.3,0,0,0,0,.57c12.92,2.89,18.1-6.91,11-11.8-9.3-6.4-22.53-3.69-27.8,3.43C-4.63,46.28,6.74,55.82,19.63,57.6,38.86,60.24,56.33,52.28,73,43.44a.18.18,0,0,1,.24.24,5.11,5.11,0,0,0-.44,3.84.66.66,0,0,0,1.11.28,80.92,80.92,0,0,1,11.33-8.62c3.6,10.48,19,17.32,27.06,9.6,2.7-2.91,3.35-8.33-1.56-10.77-1.81-.81-5.06-.67-4.77,1.53,5.36-1.24,5.8,5.3,1.79,7.93-6.58,3.89-17.35-1-20.2-9.74,13.61-8.17,41.42-17.17,58.54-9.06a.67.67,0,0,1,.34.74c-.32,1.59,1.4,2.58,3.38,2a1.07,1.07,0,0,1,1,.17,24.42,24.42,0,0,1,8.28,12.76.57.57,0,0,1-.37.71c-1.66.45-2.77,1.32-2.77,2.32s1.18,1.92,2.92,2.36a.55.55,0,0,1,.42.66c-1.56,5.53-7.59,10.85-14.95,13.08-8.12,2.47-17.11-2.63-17.1-10.36,0-5.09,4.51-7.26,6.2-4.55a.48.48,0,0,0,.9-.22c0-3.33-5.75-3.29-7.41,1.37-1.41,3.93.76,8.45,2.75,10.83,0,.06,0,.19-.06.15A15.82,15.82,0,0,1,123,45.23c.81-5.53,5.46-10.36,10.86-10.51,2.9-.08,6,.9,6.77,3.55a2.87,2.87,0,0,1-1.56,3.8.66.66,0,0,0-.05,1.18c2.14,1,4.25-1.59,4.44-3.43.49-4.56-4.51-7.64-9.6-7.11-5.74.6-9.8,5.23-11.33,9.89-3.39,10.24,4,18.59,10.86,21.17a18.37,18.37,0,0,0,5.83,1.16c.1,0,.13.13,0,.15a33.29,33.29,0,0,1-25-3.5c-.13-.08-.28.08-.17.18,16.75,11.86,42.49,2.71,46.53-11.24a.83.83,0,0,1,1.52,0c4,13.95,29.77,23.1,46.53,11.24.1-.1,0-.26-.18-.18a33.29,33.29,0,0,1-25,3.5c-.09,0-.05-.15,0-.15a18.37,18.37,0,0,0,5.83-1.16c6.86-2.58,14.25-10.93,10.87-21.17-1.54-4.66-5.59-9.29-11.34-9.89-5.08-.53-10.08,2.55-9.6,7.11.19,1.84,2.3,4.41,4.44,3.43a.66.66,0,0,0-.05-1.18,2.87,2.87,0,0,1-1.56-3.8c.76-2.65,3.87-3.63,6.77-3.55,5.4.15,10,5,10.86,10.51a15.79,15.79,0,0,1-6.63,15.46c-.06,0-.11-.09-.06-.15,2-2.38,4.17-6.9,2.76-10.83-1.7-4.72-7.39-4.65-7.42-1.37a.49.49,0,0,0,.91.22c1.7-2.74,6.18-.5,6.19,4.55,0,7.73-9,12.83-17.1,10.36-7.35-2.23-13.39-7.55-14.95-13.08a.56.56,0,0,1,.42-.66c1.74-.44,2.92-1.33,2.92-2.36s-1.11-1.87-2.77-2.32a.57.57,0,0,1-.37-.71A24.42,24.42,0,0,1,172,31.58a1.07,1.07,0,0,1,1-.17c2,.58,3.7-.41,3.38-2a.67.67,0,0,1,.35-.74c17.11-8.11,44.93.89,58.53,9.06-2.43,7.45-12.64,14.2-20.2,9.74-4.21-2.76-3.66-9.19,1.8-7.93.28-2.2-3-2.34-4.78-1.53-4.91,2.44-4.26,7.86-1.56,10.77,7,6.69,22.9,2.53,27.06-9.6a80.33,80.33,0,0,1,11.33,8.62.66.66,0,0,0,1.11-.27,5.2,5.2,0,0,0-.44-3.85.19.19,0,0,1,.25-.24c16.64,8.84,34.11,16.8,53.35,14.16C316,55.82,327.39,46.28,320.85,37.46ZM87.21,30.31c15.37-26.79,54.25-7.1,59.44-3.38.06,0,.06.17,0,.14C120.68,14.59,96.73,27.77,87.21,30.31Zm74.61,14a.45.45,0,0,1-.88,0,25.76,25.76,0,0,0-5.86-11.83c-.1-.12.06-.25.2-.2a14.73,14.73,0,0,0,12.24,0,.14.14,0,0,1,.16.22A25.68,25.68,0,0,0,161.82,44.35ZM176.1,27.07c-.06,0,0-.11,0-.14,5.19-3.72,44.07-23.41,59.44,3.38C226,27.77,202.07,14.59,176.1,27.07ZM154.48.39c1.86-.95,5.58-.44,6.94,4.47,0,.14.23,0,.26-.1C163,.06,166.75-.55,168.6.39c1,.51.58,1.17.28,1-3.33-1.81-5.77,2.16-3.57,5.78.52.86,1.12,1.63,1.69,2.42,1.19,1.63,2.44,3.9,2,6.1A1.87,1.87,0,0,1,167.51,17a4.28,4.28,0,0,0-1.5.77,1.14,1.14,0,0,1-1.47,0,4.91,4.91,0,0,0-6,0,1.12,1.12,0,0,1-1.45,0,4.18,4.18,0,0,0-1.48-.78,2,2,0,0,1-1.52-1.22c-.54-2.41,1-4.78,2-6.14.56-.79,1.16-1.56,1.68-2.42,2.27-3.72-.31-7.55-3.57-5.78C153.9,1.56,153.47.9,154.48.39Zm-3.23,19.79c-.53-.14-.93-.7-.6-1.13a4.31,4.31,0,0,1,6.78.07.41.41,0,0,0,.66,0c1.82-2.34,4.77-2.31,6.91.1a.43.43,0,0,0,.65-.09,4.31,4.31,0,0,1,6.78-.07c.33.43-.06,1-.59,1.13-.92.26-2.54,1.4-2,2.33a3.3,3.3,0,0,1,.52,1.73c0,2.83-4,5.12-8.87,5.12s-8.87-2.29-8.87-5.12a3.3,3.3,0,0,1,.52-1.73C153.78,21.57,152.18,20.44,151.25,20.18Z"/></g></g></svg>