<svg xmlns="http://www.w3.org/2000/svg" viewBox="0 0 322.75 80.32"><title>85</title><g id="Layer_2" data-name="Layer 2"><g id="Layer_1-2" data-name="Layer 1"><path d="M141.5,36c-9.29-.84-16.47-8.82-24-3.86-.35.22-.84,0-.71-.44a7.49,7.49,0,0,1,3.94-4.08c7-3.42,14.3,6.21,19.06,7,13.42,2.16,18.77-8.9,9.62-13.26-17.68-8.43-43.15,13.38-51.75,27.44a.23.23,0,0,1-.4,0c-1.76-3.17-.51-4.46,2.42-8.08.06-.07,0-.19-.11-.13C92.74,45.15,79,53.17,75,42.16a.23.23,0,0,1,.3-.29c18,6.83,48.15-31.38,73.91-21.77C159.44,23.92,155.74,37.25,141.5,36Zm24.86-18.28C180.77,2.18,214.92,23.76,222,27.87c1.53-1.41,3.44-2.64,4.29-4.61,3.59-8.31-8.59-13-9.34-3.86a.49.49,0,0,1-.82.34,3.41,3.41,0,0,1-1.2-2.9.4.4,0,0,0-.55-.36,7.78,7.78,0,0,1-9.12-3.12c-.19-.29.14-.61.47-.5,9.15,3.14,20.59-5.69,22.42,7a.23.23,0,0,0,.42.1c3.58-4.87,13.77-8,15.08.3a.45.45,0,0,1-.74.38c-6.87-5-12.89,1.59-19.82,7.83,9.25,7.15,39.28,18.82,44.68.64,2.82-9.52-9.24-13.32-12.92-12.25-1.49.43-2.41,1.76-3.71,2.52-2,1.18-3.64-.76-2.68-2.66a4.88,4.88,0,0,1,3-2.14c8.86-2.91,21,4.08,17.95,14-6.42,21.11-39.35,6.91-47.17.58C197.49,45.57,177.64,42,169,36.93,161.51,32.6,161.57,22.84,166.36,17.69Zm2.8,18.4c6.62,4.18,25.31,9.44,52-7.56-15.76-11.45-46.74-19.68-54.84-7.83C162.62,25.38,164.13,32.9,169.16,36.09Zm-15.37.84c-8.68,5-28.52,8.64-53.32-7.76-7.82,6.33-40.74,20.53-47.16-.58-3-9.91,9.08-16.9,17.94-14a4.88,4.88,0,0,1,3,2.14c1,1.9-.67,3.84-2.68,2.66-1.29-.76-2.22-2.09-3.71-2.52C64.23,15.81,52.16,19.61,55,29.13c5.39,18.18,35.42,6.51,44.68-.64-7-6.27-13-12.85-19.83-7.83a.45.45,0,0,1-.73-.41C80.44,12,90.64,15.12,94.19,20a.23.23,0,0,0,.41-.12c1.83-12.67,13.31-3.89,22.42-7,.33-.12.65.24.45.52a7.76,7.76,0,0,1-9.15,3.08.38.38,0,0,0-.5.35,3.39,3.39,0,0,1-1.18,2.91.49.49,0,0,1-.84-.32c-.75-9.18-12.92-4.45-9.34,3.86.85,2,2.76,3.2,4.3,4.61,7.08-4.11,41.22-25.69,55.63-10.18C161.18,22.84,161.24,32.6,153.79,36.93Zm2.68-16.23c-8.1-11.85-39.08-3.62-54.84,7.83,26.66,17,45.34,11.74,52,7.56C158.62,32.9,160.14,25.38,156.47,20.7ZM181.26,36c9.28-.84,16.46-8.82,24-3.86.34.22.83,0,.7-.44A7.49,7.49,0,0,0,202,27.59c-7-3.42-14.3,6.21-19.06,7-13.37,2.15-18.79-8.89-9.62-13.26,17.68-8.43,43.15,13.38,51.76,27.44a.23.23,0,0,0,.39,0c1.61-2.91.64-4.27-2.48-8.15-.05-.06.1-.11.17-.06,6.84,4.63,20.61,12.65,24.57,1.64a.22.22,0,0,0-.29-.29c-18,6.83-48.16-31.38-73.92-21.77C163.31,23.91,167,37.25,181.26,36ZM183.17,47c22,0,23.67,16.53,11.92,16.53-8.78,0-29.89-9.62-25.72-26,2-8,11.06-13.06,20.16-11.26,8.69,1.73,13.07,10.64,8.93,15.57-.82,1-2.36,1-3.22,1.92a2.12,2.12,0,0,0-.58,1.34,1,1,0,0,0,.1.46,1.46,1.46,0,0,0,1.38.69,2.84,2.84,0,0,0,2.2-1c5.65-7.93.76-17.39-8.75-19.28s-19.18,3.43-21.34,11.92c-3.78,14.81,12.38,26.76,26.48,26.76,14.39,0,11.53-19.41-10.84-19.41-14.21,0-29,8.07-29,22.15,0,7.59,5,12.94,6.49,12.94s6.48-5.32,6.48-12.95c0-13.92-14.57-22.14-29-22.14-22.18,0-25.35,19.41-10.83,19.41,12.8,0,30.47-11.1,26.47-26.76-2.16-8.49-11.71-13.83-21.34-11.92s-14.4,11.35-8.75,19.28a2.85,2.85,0,0,0,2.2,1,1.45,1.45,0,0,0,1.38-.69,1,1,0,0,0,.1-.46,2.12,2.12,0,0,0-.58-1.34c-.86-.93-2.4-1-3.22-1.92-4.14-4.93.25-13.84,8.94-15.57,9.09-1.8,18.11,3.24,20.15,11.26,4.17,16.36-16.95,26-25.71,26C115.92,63.56,117.58,47,139.58,47c13.5,0,27,7.84,27,20.87,0,6.66-4.24,11.57-5.18,11.57S156.2,75,156.2,67.89C156.2,54.72,169.89,47,183.17,47ZM65.2,22.35c0-3.9-4-3.88-6.13.58-3.3,7,6.08,7.94,14.4,7.94a46.55,46.55,0,0,0,14.9-2.49c.16-.06.09-.18-.11-.14a56.71,56.71,0,0,1-13.08,1.49c-6.68,0-18.05-.59-15.3-6.42,1.5-3.21,4.12-3.5,4.12-1.46,0,5.36-8,9.09-13.33,9.09-11.7,0-5.75-13-1-7.85a.36.36,0,0,0,.63-.23h0C50.13,17.1,43,15.24,39.19,22A.12.12,0,0,1,39,22v0c.39-5.49-2.84-4.86-5.49-8.89-.11-.16-.33-.07-.33.14h0c.15,4.42-2,6.75-.23,9.75.09.16-.05.38-.22.31-3.75-1.32-8.93-6-18.69-6-9.5,0-14,6-14,10.24,0,4.81,5.74,4.76,6.4,1.59.18-.86-.43-1.61-1.07-1.48-1.12.22-1.43,1.85-2.67,1.85-3.51,0-1.59-10,7.52-10,10.26,0,20.57,9.83,31.68,13.57C50.37,35.89,65.2,30.21,65.2,22.35ZM280.89,33c11.11-3.75,21.42-13.58,31.68-13.58,9.11,0,11,10,7.52,10-1.24,0-1.55-1.63-2.66-1.85-.65-.13-1.26.61-1.08,1.47.66,3.18,6.4,3.23,6.4-1.59,0-4.26-4.51-10.23-14-10.23-9.76,0-14.94,4.71-18.68,6a.2.2,0,0,1-.22-.31c1.77-3-.39-5.34-.24-9.76h0c0-.21-.22-.31-.33-.14-2.65,4-5.88,3.39-5.48,8.89h0a.12.12,0,0,1-.23.06c-3.8-6.81-10.94-4.94-11.12.81h0a.36.36,0,0,0,.63.23c4.77-5.14,10.71,7.84-1,7.84-5.34,0-13.33-3.72-13.33-9.08,0-2.05,2.62-1.76,4.13,1.45,2.74,5.83-8.63,6.42-15.31,6.42a57.29,57.29,0,0,1-13.08-1.48c-.2-.05-.27.08-.11.13a46.59,46.59,0,0,0,14.9,2.49c8.32,0,17.7-.93,14.4-7.94-2.1-4.45-6.12-4.47-6.12-.57C257.56,30.23,272.38,35.91,280.89,33ZM161.6.16a.24.24,0,0,0-.45,0,26,26,0,0,1-5.28,9.43.9.9,0,0,0,.21,1.34,13.72,13.72,0,0,1,5.21,8.39.09.09,0,0,0,.17,0,13.73,13.73,0,0,1,5.22-8.39.9.9,0,0,0,.2-1.34A26,26,0,0,1,161.6.16Zm.08,13.11a.36.36,0,0,1-.6,0,16.21,16.21,0,0,0-2.39-2.9.64.64,0,0,1-.07-.84,28.2,28.2,0,0,0,2.51-3.88.29.29,0,0,1,.51,0,27.51,27.51,0,0,0,2.51,3.87.63.63,0,0,1-.08.82A15.4,15.4,0,0,0,161.68,13.27Z"/></g></g></svg>