<svg xmlns="http://www.w3.org/2000/svg" viewBox="0 0 322.75 64.24"><title>86</title><g id="Layer_2" data-name="Layer 2"><g id="Layer_1-2" data-name="Layer 1"><path d="M128.69,52.92a.13.13,0,0,1,0,.26C115.89,54.68,81.61,46.3,96.91,24,104.58,12.79,89.24,44.2,128.69,52.92Zm65.38.25a.14.14,0,0,0,0,.27c12.7,1.49,47.09-6.85,31.77-29.2C218.17,13,233.52,44.45,194.07,53.17ZM162.36,35.34c-.23,11.69,6.72,33.6,46.29,28s54.48-34.95,86.07-34.95c15.75,0,23.5,12.3,19.58,23.32-4.51,12.68-21.66,9.58-21,.61a9.7,9.7,0,0,0,4.56-3.27c2.52-3.12,3-6.91,1.08-8.46-2.7-2.17-8.07,1.23-9.79,5.9-7.94,18,22.14,23.81,28.28,6.1C321.77,40,314,25.08,294.19,25.08c-34.44,0-49.22,26-84.6,35-31.72,8.11-44.73-11.28-44.73-23a18.78,18.78,0,0,1,18.3-18.8c16.34,0,21.34,23.65,6.82,18.6-.59-6.7-9.34-6.23-10.74-2.6-1.19,3.11,2.6,7.72,8.29,7.74,20.14.07,14.75-25.75-4.37-25.75C174.75,16.28,162.62,23,162.36,35.34ZM238.9,22.4c1.87-1.38-2-2.89-4.08-2.59-1.41-4.79,6.06-8.23,13.27-6.93,7.61,1.38,12.29,6.35,10.43,11.09-3.87,9.79-14.53,12.41-20.88,12.46-1,0-.7.71.64.7,9-.06,13.79-3.56,20.33-7.47,11.62-6.95,24.53,3.66,22.83,15.14-1.43,9.61-10.93,12.6-15.73,7.51a7.74,7.74,0,0,1-1.95-6.74c.68-3,4.07-4.44,5.4-2.52.26.39-.22,1-.56,1.68a2,2,0,0,0,2.22,2.64c1.81-.43,3-3.73,1.54-6-1.66-2.55-6.06-2.77-8.4,0-2.52,3-2.27,8.58.67,11.75C270.79,59.76,284,54.51,282.58,41a16.31,16.31,0,0,0-16.8-14.68.45.45,0,0,1-.24-.84c28-14.59,53.86-3.78,56.95,5.08a.13.13,0,0,0,.15.09.14.14,0,0,0,.11-.14c-.84-9.66-23.38-19.42-49.33-11.63a1,1,0,0,1-1.16-1.3,14.84,14.84,0,0,0,.33-5.36.26.26,0,0,0-.34-.23c-1.38.4-7,2.2-9.47,5.06a1.28,1.28,0,0,1-2.06,0c-6-9.18-24.62-6-27.37.52C231.76,21.27,236.42,24.23,238.9,22.4Zm-99.31-6.12c-19.12,0-24.51,25.82-4.36,25.75,5.69,0,9.47-4.63,8.28-7.74-1.4-3.63-10.14-4.1-10.74,2.6-14.52,5-9.52-18.6,6.82-18.6a18.78,18.78,0,0,1,18.3,18.8c0,11.7-13,31.09-44.73,23-35.38-9-50.16-35-84.6-35C8.78,25.08,1,40,5.34,52.59c6.14,17.71,36.22,11.86,28.29-6.1-1.74-4.68-7.1-8.07-9.8-5.9-1.92,1.55-1.44,5.34,1.08,8.46a9.7,9.7,0,0,0,4.56,3.27c.65,9-16.51,12.07-21-.61C4.53,40.69,12.29,28.39,28,28.39c31.59,0,46.49,29.35,86.07,35s46.52-16.31,46.29-28C160.13,23,148,16.28,139.59,16.28ZM89.4,17.5C86.65,11,68,7.8,62,17A1.28,1.28,0,0,1,60,17c-2.44-2.86-8.09-4.66-9.47-5.06a.26.26,0,0,0-.34.23,14.84,14.84,0,0,0,.33,5.36,1,1,0,0,1-1.16,1.3C23.38,11.06.83,20.82,0,30.48a.14.14,0,0,0,.11.14.13.13,0,0,0,.15-.09c3.09-8.86,28.9-19.67,57-5.08a.45.45,0,0,1-.24.84A16.29,16.29,0,0,0,40.18,41C38.74,54.51,52,59.76,58.12,53.13c2.94-3.17,3.19-8.78.67-11.75-2.34-2.76-6.74-2.54-8.4,0-1.48,2.25-.27,5.55,1.54,6a2,2,0,0,0,2.22-2.64c-.34-.66-.82-1.29-.56-1.68,1.33-1.92,4.72-.44,5.41,2.52a7.78,7.78,0,0,1-2,6.74c-4.8,5.09-14.3,2.1-15.73-7.51-1.7-11.48,11.21-22.09,22.84-15.14,6.52,3.91,11.31,7.41,20.32,7.47,1.34,0,1.68-.7.64-.7-6.35,0-17-2.67-20.87-12.46-1.87-4.74,2.81-9.71,10.42-11.09,7.22-1.3,14.68,2.14,13.27,6.93-2-.3-6,1.21-4.08,2.59C86.33,24.23,91,21.27,89.4,17.5ZM161.49.06a.14.14,0,0,0-.23,0,38.16,38.16,0,0,0-4.6,10.59c-1.42,5.77,2.11,10.76,4.72,10.76s6.13-5,4.71-10.76A37.54,37.54,0,0,0,161.49.06Zm2.84,56.45c.88-3.61-1.32-6.72-3-6.72s-3.84,3.11-2.95,6.72A23.63,23.63,0,0,0,161.22,63a.19.19,0,0,0,.31,0A23.56,23.56,0,0,0,164.33,56.51ZM167.76,31H155a3.37,3.37,0,0,0,0,6.73h12.77a3.37,3.37,0,1,0,0-6.73Z"/></g></g></svg>