<svg xmlns="http://www.w3.org/2000/svg" viewBox="0 0 322.75 80.07"><title>87</title><g id="Layer_2" data-name="Layer 2"><g id="Layer_1-2" data-name="Layer 1"><path d="M149.56,45.11c3,5.17.51,12.18-5.7,14.91-7.18,3.17-16.13,1-22.83-4-.06,0-.21,0-.16.05,3.09,4.37,2.76,10.26-.87,12.25-3,1.63-5.65.76-7.17-1.93-1.09-1.92-1-5,.82-6a2,2,0,0,1,2.88.77,2.19,2.19,0,0,1-.63,2.75,2.08,2.08,0,0,0-.3,3c.65,1,2.38,1.19,3.74.39,2.86-1.67,3.47-5.86.4-10.52-4.17-6.33-18.17-11.92-25.3-8.7-6.12,2.76-.45,7.35,1.84,9.23.17.14,0,.43-.2.32C92.91,56,86,50.17,94,45.88c3.19-1.7,8.08-1.23,14,1.18.06,0,.08-.09,0-.13-2-1.42-8.57-6-9.73-6.9-5.89-4.31-14-2.53-16.41-.12-1.08,1.07-3.11-.91-2-2.14,2.46-2.65,7.59-3.34,12.59-1.83,0,0,0-.09,0-.11-8.37-4.33-17.92-.23-20.81,5.29-.91,1.74-4.24-.17-3.17-2.45,2.67-5.67,11.35-8.23,19.41-6.21.09,0,.22-.09.14-.14-2-1.21-9.48-4.88-13.64-4.88C62.5,27.44,60,40.67,60.24,48.16a.47.47,0,0,0,.57.4,3.57,3.57,0,0,1,4.08,4,1.52,1.52,0,0,0,.18,1c5.6,8.58,15.35,5.76,16.37-1.88a9.89,9.89,0,0,0-.11-3.44,3,3,0,0,1-2.61-.67A2,2,0,0,1,78,44.83a1.68,1.68,0,0,1,2.75-.32,9.1,9.1,0,0,1,2.51,7.13c-.17,2.59-.8,7.44-9.79,9.07a.27.27,0,0,0-.09.48c9.58,8,19,16.76,32,16.45.34,0,.59.42.28.56C95.13,83,73,66.78,63.19,56.1a.79.79,0,0,0-.83-.19,4,4,0,0,1-5-3.94.9.9,0,0,0-.43-.85c-5.05-2.93-14.33-2.71-19.65-.69-3.05,1.16-4.27,4-4.84,6.29-2.1,8.33,10.05,19.76,22.78,17.1,7.23-1.52,8.94-14.16-.67-17.41-4.76-1.68-14.23-1-14.42,3.7,1.16,4.11,10.36-3.64,10,3.64-.37,4.76-8.5,1.32-10.26-.66S36.6,55.17,48,54.77c14.86-.52,15.82,12,16,11.95,1.24,0,4.16.3,5.77,1.75.25.23-.08.56-.41.5-1.26-.23-3.63-.14-7.14,2.25-15.6,12.46-34-3.84-31.39-14.94a11.63,11.63,0,0,1,1.28-3.23.18.18,0,0,0-.24-.23L18,58.87c-4.43,1.92-13.45,3-16.77-1.43C-1.63,53.6.3,46.44,9,46.2c9.89.32,6.27,11.28,0,7.28-.06,0,0-.12.07-.09,6.43,3.28,7.87-6.71-.09-6.71-3.66,0-8,2.15-8,6.78s4.09,8.61,17.2,2.7c0,0,17.3-10,33.32-9.56.16,0,.28-.17.15-.26-8.2-5.68-8-12.19-13-19,0,0,0,0,0,0,5.71,5.26,11.13,5.91,15.77,12.41.11.14.34.1.34-.08.51-24,25.22-24.3,46.05-12a.15.15,0,0,0,.21-.21c-1.28-2.49-3.67-6-7.16-6.22,0,0,.63-3.51,4.14-1.08a.11.11,0,0,0,.16-.14,8.37,8.37,0,0,1-1.29-4.62c.27-2.37-.72-5.3-.48-6.08.11-.32.32-.39.6-.2.68.45,1.72,3.37,3.41,5.05a8.39,8.39,0,0,1,1.88,4.41.11.11,0,0,0,.21,0c1.22-4.1,3.91-1.75,3.91-1.75-2.68,2.48-2.25,7-1.66,9.69a.19.19,0,0,0,.35.05c1.94-3.9,6.2-8,10.17-9,7.51-1.93,14.34,1.9,15.8,7.86,2.11,8.61-6.59,10.83-8.71,7.84-.06-.09.08-.17.16-.1,2.46,2.2,7.86-.66,6.4-7.76a9.48,9.48,0,0,0-12.33-7.27c-13.4,4.08-7.49,28.14,11.55,28.14.93,0,.63.89-.58.89-12.67,0-18-11.29-29.66-18.14C66.32,6.74,49.39,31.73,58.39,46.65c.09.14.29.06.3-.11.23-8,3.74-20.84,15.92-20.84,11.5,0,14.33,4.84,47.7,29.54,6.87,5.08,15.12,5.66,20.81,3.13,4.44-2,7.56-7.55,4.84-12.09h0a2.25,2.25,0,0,0-4.07.5,2.16,2.16,0,0,1-1.23,1.35c-1.36.54-2.73-.07-3.44-1.83a3.59,3.59,0,0,1,1.94-4.44C143.26,40.7,147.36,41.32,149.56,45.11ZM313.77,46.2c-9.93.33-6.21,11.25,0,7.28.05,0,0-.11-.08-.09-6.37,3.25-7.92-6.71.09-6.71,3.66,0,8,2.16,8,6.78s-4.1,8.61-17.21,2.7c0,0-17.29-10-33.31-9.56-.16,0-.28-.17-.15-.26,8.2-5.68,8-12.17,13-19,0,0,0-.06,0,0-5.77,5.34-11.12,5.87-15.83,12.49-.1.13-.3,0-.3-.14-.5-24-25.23-24.3-46.05-12a.15.15,0,0,1-.21-.21c1.28-2.49,3.67-6,7.17-6.21,0,0-.63-3.52-4.14-1.09a.11.11,0,0,1-.16-.14,8.45,8.45,0,0,0,1.28-4.62c-.27-2.37.73-5.3.48-6.08-.1-.32-.32-.39-.6-.2-.67.45-1.72,3.37-3.4,5.05a8.31,8.31,0,0,0-1.88,4.41.11.11,0,0,1-.21,0c-1.23-4.1-3.91-1.75-3.91-1.75,2.68,2.48,2.25,7,1.65,9.69a.18.18,0,0,1-.34.05c-2-3.9-6.21-8-10.17-9-7.51-1.93-14.35,1.9-15.8,7.86-2.11,8.63,6.59,10.82,8.71,7.84.06-.09-.09-.17-.16-.1-2.41,2.16-7.88-.59-6.4-7.76a9.47,9.47,0,0,1,12.32-7.27c13.52,4.12,7.49,28.14-11.54,28.14-.94,0-.64.89.57.89,12.66,0,18.06-11.3,29.66-18.14,31.28-22,48.82,2.35,39.56,17.67-.09.14-.29.06-.3-.11-.23-8-3.73-20.84-15.92-20.84-11.5,0-14.32,4.84-47.7,29.54-6.87,5.08-15.12,5.66-20.8,3.13-4.44-2-7.57-7.55-4.85-12.09h0a2.25,2.25,0,0,1,4.07.5,2.16,2.16,0,0,0,1.23,1.35c1.37.54,2.74-.07,3.45-1.83a3.6,3.6,0,0,0-1.95-4.44c-2.1-1.15-6.2-.54-8.39,3.25-3,5.17-.51,12.18,5.7,14.91,7.17,3.17,16.13,1,22.82-4,.06,0,.21,0,.17.05-3.09,4.37-2.76,10.26.86,12.25,2.95,1.63,5.65.76,7.18-1.93,1.08-1.92,1-5-.83-6a2,2,0,0,0-2.88.77,2.2,2.2,0,0,0,.63,2.75,2.08,2.08,0,0,1,.3,3c-.65,1-2.37,1.19-3.74.39-2.86-1.67-3.46-5.85-.4-10.52,4.17-6.33,18.17-11.92,25.3-8.7,6.12,2.76.46,7.35-1.83,9.23-.18.14,0,.43.19.32,3.18-1.63,10.07-7.41,2-11.7-3.18-1.7-8.07-1.23-14,1.18-.06,0-.08-.09,0-.13,2-1.42,8.57-6,9.73-6.89,5.88-4.32,14-2.54,16.4-.13,1.08,1.07,3.11-.91,2-2.14-2.46-2.65-7.59-3.34-12.59-1.83-.05,0,0-.09,0-.11,8.36-4.33,17.92-.23,20.8,5.29.91,1.74,4.25-.17,3.17-2.45-2.66-5.67-11.34-8.23-19.4-6.21-.09,0-.22-.09-.14-.14,2-1.21,9.47-4.88,13.64-4.88,11.92,0,14.44,13.23,14.19,20.72a.47.47,0,0,1-.58.4,3.56,3.56,0,0,0-4.07,4,1.74,1.74,0,0,1-.21,1.1c-5.55,8.42-15.31,5.82-16.34-1.93a9.43,9.43,0,0,1,.11-3.44,3,3,0,0,0,2.6-.67,2,2,0,0,0,.78-2.79,1.69,1.69,0,0,0-2.76-.32,9.1,9.1,0,0,0-2.5,7.13c.17,2.59.79,7.44,9.79,9.07a.27.27,0,0,1,.09.48c-9.58,8-19,16.76-32,16.45-.34,0-.59.42-.28.56,10.62,4.9,32.72-11.6,42.37-22.05a.88.88,0,0,1,.91-.23,4,4,0,0,0,4.94-4,.89.89,0,0,1,.43-.81c5-2.92,14.33-2.71,19.65-.69,3.06,1.16,4.27,4,4.84,6.29,2.1,8.33-10,19.76-22.78,17.1-8.34-1.75-10-13.81.68-17.41,4.75-1.68,14.22-1,14.41,3.7-1.16,4.11-10.36-3.64-10,3.64.37,4.76,8.51,1.32,10.26-.66s3.33-7.92-8.06-8.32c-14.86-.52-15.83,12-16,11.95-1.23,0-4.15.3-5.76,1.75-.25.23.07.56.41.5,1.26-.23,3.62-.14,7.13,2.25,12,12,34.33-2.57,31.4-14.94a12.28,12.28,0,0,0-1.28-3.23c-.09-.14.08-.3.23-.23l13.83,6c4.43,1.92,13.46,3,16.78-1.43C324.38,53.6,322.46,46.44,313.77,46.2Zm-150,16.4a.13.13,0,0,0-.23.1c.31,1.86,1.66,7.39,5.4,8.61,0,0-2,2.68-4.86-.3-.1-.1-.23,0-.2.18a5.52,5.52,0,0,1-.38,4c-1.08,1.68-.9,3-1.58,4.49a.59.59,0,0,1-1.07.07c-.73-1.6-.51-2.84-1.61-4.56a5.48,5.48,0,0,1-.39-4c0-.14-.1-.28-.2-.18-2.86,3-4.86.3-4.86.3,3.75-1.22,5.09-6.75,5.4-8.61a.13.13,0,0,0-.23-.1c-3.13,4.9-6.51,2.3-6.51,2.3,2.74-1.48,4.55-4.8,5.77-8.55a2.17,2.17,0,0,0,.08-1.07c-1.91-10.81-6.19-23.93-15.85-28.21,0,0,7.62-4.83,14.43,4.8a.17.17,0,0,0,.31-.1c-.12-2.57-1.23-13-11.88-15.88,0,0,4.41-4.85,10.68.85.1.09.22-.06.18-.18-.44-1.34-1.31-4.88.68-7.43,2.51-3.21,2.57-7.85,3.76-8.83a1.11,1.11,0,0,1,1.52,0c1.18,1,1.25,5.62,3.75,8.83,2,2.55,1.12,6.09.68,7.43,0,.12.08.27.19.18,6.27-5.7,10.68-.85,10.68-.85-10.65,2.86-11.77,13.31-11.88,15.88a.17.17,0,0,0,.31.1c6.8-9.63,14.42-4.8,14.42-4.8-9.66,4.28-13.94,17.4-15.85,28.21a2.18,2.18,0,0,0,.09,1.07c1.21,3.75,3,7.07,5.76,8.55C170.29,64.9,166.91,67.5,163.78,62.6Zm10.94-33.68c.06-.05-.05-.12-.12-.09a30,30,0,0,0-11.2,10.38.35.35,0,0,1-.67-.07c-.46-3.62-1.18-15.55,8.2-21.74a.12.12,0,0,0-.1-.22c-1.91.41-4.88,2.68-6.32,3.86a.4.4,0,0,1-.64-.39c.39-2.32,1.13-7.62,0-9.12-1.83-2.33-3.15-2.25-4.9,0-1.18,1.5-.44,6.8-.05,9.12a.4.4,0,0,1-.64.39c-1.44-1.18-4.4-3.45-6.32-3.86a.12.12,0,0,0-.1.22c9.39,6.19,8.67,18.12,8.2,21.74a.35.35,0,0,1-.66.07,30.13,30.13,0,0,0-11.2-10.38c-.07,0-.18,0-.12.09,5.91,5,9.74,11.54,11.71,19.69,0,.07.13,0,.13-.08.2-4.56,2.78-4.57,3,0,0,.07.12.17.13.1C165,40.46,168.8,33.91,174.72,28.92Z"/></g></g></svg>