<?xml version="1.0" encoding="utf-8"?>
<!-- Generator: Adobe Illustrator 26.0.2, SVG Export Plug-In . SVG Version: 6.00 Build 0)  -->
<svg version="1.1" id="Layer_1" xmlns="http://www.w3.org/2000/svg" xmlns:xlink="http://www.w3.org/1999/xlink" x="0px" y="0px"
	 viewBox="0 0 175.7 79.7" style="enable-background:new 0 0 175.7 79.7;" xml:space="preserve">
<style type="text/css">
	.st0{fill:url(#SVGID_1_);}
	.st1{fill:url(#SVGID_00000155133735652157480770000006957486635787024288_);}
	.st2{fill:url(#SVGID_00000039841906258503095310000004686441433557318539_);}
	.st3{fill:url(#SVGID_00000039124049096519217660000018146330589464533658_);}
	.st4{fill:#F77112;}
</style>
<desc>Created with Fabric.js 4.4.0</desc>
<g id="logo-logo" transform="matrix(1.1821952604233492 0 0 1.1821952604233492 416.7545693779905 512.4779904306221)">
	<g>
		<g transform="matrix(0.5515571806638938 0 0 0.5515571806638938 -19.479379256363416 -43.10102582779402)">
			
				<linearGradient id="SVGID_1_" gradientUnits="userSpaceOnUse" x1="8368.25" y1="-5441.2505" x2="8540.0908" y2="-5441.2505" gradientTransform="matrix(0.1274 0 0 -0.1274 -1631.1147 -1355.8145)">
				<stop  offset="0" style="stop-color:#EB4B35"/>
				<stop  offset="0.5" style="stop-color:#FD8105"/>
			</linearGradient>
			<path class="st0" d="M-565.4-653.7l23.7,13.7l1.8-1v-25.3l0,0v-2.2c0.3,0,2.4,0,2.7,0h5.4l-4.9-8.6l-4.9-8.6
				c-1.2,2.1-8.7,15-9.9,17.1h8.1v2.2L-565.4-653.7z"/>
		</g>
		<g transform="matrix(0.5515571806638938 0 0 0.5515571806638938 -0.00000838366918287647 31.129943342457608)">
			
				<linearGradient id="SVGID_00000142143031938962596200000017475814239248952451_" gradientUnits="userSpaceOnUse" x1="8518.8662" y1="-5898.3232" x2="8518.8662" y2="-5746.9365" gradientTransform="matrix(0.1274 0 0 -0.1274 -1661.9341 -1507.5387)">
				<stop  offset="0" style="stop-color:#EB4B35"/>
				<stop  offset="0.5" style="stop-color:#FD8105"/>
			</linearGradient>
			<path style="fill:url(#SVGID_00000142143031938962596200000017475814239248952451_);" d="M-602.1-778.9
				c12,2.2,21.7,11.1,25.1,22.5c3.4-11.4,13-20.3,25.1-22.5v-7l-25.1,14.5l-25.1-14.5V-778.9z"/>
		</g>
		<g transform="matrix(0.5515571806638938 0 0 0.5515571806638938 39.780754548345044 -17.28822384685313)">
			
				<linearGradient id="SVGID_00000171001237829662831220000017324548600091587987_" gradientUnits="userSpaceOnUse" x1="8482.0332" y1="-5559.8242" x2="8580.2588" y2="-5559.8242" gradientTransform="matrix(0.1274 0 0 -0.1274 -1724.8733 -1408.5745)">
				<stop  offset="0.5" style="stop-color:#FD8105"/>
				<stop  offset="1" style="stop-color:#EB4B35"/>
			</linearGradient>
			<polygon style="fill:url(#SVGID_00000171001237829662831220000017324548600091587987_);" points="-644.7,-689.4 -625.5,-700.5 
				-644.7,-711.6 			"/>
		</g>
		<g transform="matrix(0.5515571806638938 0 0 0.5515571806638938 0 48.626061555895234)">
			
				<linearGradient id="SVGID_00000152963582401405853830000011258919232844391068_" gradientUnits="userSpaceOnUse" x1="8518.8662" y1="-6026.3667" x2="8518.8662" y2="-5812.8091" gradientTransform="matrix(0.1274 0 0 -0.1274 -1661.9341 -1543.2998)">
				<stop  offset="0" style="stop-color:#EB4B35"/>
				<stop  offset="0.5" style="stop-color:#FD8105"/>
			</linearGradient>
			<path style="fill:url(#SVGID_00000152963582401405853830000011258919232844391068_);" d="M-549.3-817.5v9.3
				c-14.8,1.6-26.3,14.2-26.3,29.3c-1.1,0-1.8,0-2.8,0c0-15.1-11.5-27.7-26.3-29.3c0-2,0-7.4,0-9.3c-1.8,1-15.3,8.8-17.1,9.9
				c1.8,1,15.3,8.8,17.1,9.9v-6.9c0.9,0.1,1.8,0.2,2.7,0.4v13.9l25.1,14.5l25.1-14.5v-13.9c0.9-0.2,1.8-0.3,2.7-0.4v6.9
				c1.8-1,15.3-8.8,17.1-9.9C-534-808.7-547.5-816.5-549.3-817.5z"/>
		</g>
	</g>
</g>
<g id="text-logo-path-group" transform="matrix(1.9211538461538462 0 0 1.9211538461538462 770.4878934756136 477.02029946722615)">
	<g>
		<g id="text-logo-path-0" transform="matrix(1 0 0 1 0 0)">
			<path class="st4" d="M-354.2-233.9l-2.2,7.2h-2.6l3.5-9.4h1.6L-354.2-233.9z M-352.4-226.7l-2.2-7.2l-0.3-2.3h1.7l3.5,9.4H-352.4
				z M-352.4-230.3v2h-4.8v-2H-352.4z M-343.4-229.8h-2.3v-2h2.3c0.3,0,0.5,0,0.7-0.1c0.2-0.1,0.3-0.2,0.4-0.4
				c0.1-0.2,0.1-0.4,0.1-0.6l0,0c0-0.2,0-0.5-0.1-0.7c-0.1-0.2-0.2-0.4-0.4-0.5c-0.2-0.1-0.4-0.2-0.7-0.2l0,0h-1.4v7.5h-2.4v-9.4
				h3.8c0.8,0,1.4,0.1,2,0.4s1,0.7,1.3,1.2c0.3,0.5,0.5,1.1,0.5,1.7l0,0c0,0.6-0.2,1.2-0.5,1.6c-0.3,0.5-0.7,0.8-1.3,1.1
				C-341.9-229.9-342.6-229.8-343.4-229.8L-343.4-229.8z M-331.8-236.2v9.4h-2.4v-9.4H-331.8z M-329-236.2v2h-8v-2H-329z"/>
		</g>
	</g>
</g>
<g id="tagline-eca3026f-444c-45f2-8813-4679f5ecbcf0-logo-path-group" transform="matrix(1.9211538461538462 0 0 1.9211538461538462 824.5444966264206 574.5381231633755)">
	<g>
		<g id="tagline-eca3026f-444c-45f2-8813-4679f5ecbcf0-logo-path-0" transform="matrix(1 0 0 1 0 0)">
			<path class="st4" d="M-384.9-271.4h-1.2v-1h1.2c0.2,0,0.3,0,0.4-0.1c0.1-0.1,0.2-0.1,0.2-0.2c0-0.1,0.1-0.2,0.1-0.3l0,0
				c0-0.1,0-0.2-0.1-0.3c0-0.1-0.1-0.2-0.2-0.3c-0.1-0.1-0.2-0.1-0.4-0.1l0,0h-0.7v4h-1.3v-5h2c0.4,0,0.8,0.1,1,0.2
				c0.3,0.2,0.5,0.4,0.7,0.6c0.2,0.3,0.2,0.6,0.2,0.9l0,0c0,0.3-0.1,0.6-0.2,0.9c-0.2,0.2-0.4,0.4-0.7,0.6
				C-384.1-271.5-384.5-271.4-384.9-271.4L-384.9-271.4z M-380-273.6l-1.2,3.8h-1.4l1.8-5h0.9L-380-273.6z M-379.1-269.8l-1.2-3.8
				l-0.2-1.2h0.9l1.8,5H-379.1z M-379.1-271.7v1h-2.6v-1H-379.1z M-373.8-271.5h1.3c0,0.4-0.1,0.7-0.3,0.9c-0.2,0.3-0.4,0.5-0.7,0.6
				c-0.3,0.2-0.7,0.2-1.1,0.2l0,0c-0.5,0-0.8-0.1-1.2-0.3c-0.3-0.2-0.6-0.5-0.7-0.8c-0.2-0.4-0.3-0.8-0.3-1.3l0,0v-0.2
				c0-0.5,0.1-1,0.3-1.3c0.2-0.4,0.4-0.7,0.7-0.9c0.3-0.2,0.7-0.3,1.1-0.3l0,0c0.4,0,0.8,0.1,1.1,0.2c0.3,0.2,0.5,0.4,0.7,0.7
				c0.2,0.3,0.3,0.6,0.3,0.9l0,0h-1.3c0-0.3-0.1-0.5-0.2-0.6c-0.1-0.1-0.3-0.2-0.6-0.2l0,0c-0.2,0-0.3,0-0.5,0.1
				c-0.1,0.1-0.2,0.2-0.3,0.4c-0.1,0.2-0.1,0.5-0.1,0.8l0,0v0.2c0,0.4,0,0.6,0.1,0.8c0.1,0.2,0.1,0.4,0.3,0.4
				c0.1,0.1,0.3,0.1,0.5,0.1l0,0c0.2,0,0.3,0,0.4-0.1c0.1-0.1,0.2-0.1,0.3-0.2C-373.9-271.2-373.8-271.4-373.8-271.5L-373.8-271.5z
				 M-370-274.8v5h-1.3v-5H-370z M-367.1-274.8l-1.9,2.6l-1.1,1.3l-0.2-1.2l0.7-1.1l1-1.5H-367.1z M-368.6-269.8l-1.2-2.2l1-0.8
				l1.7,2.9H-368.6z M-363.9-273.6l-1.2,3.8h-1.4l1.8-5h0.9L-363.9-273.6z M-363-269.8l-1.2-3.8l-0.2-1.2h0.9l1.8,5H-363z
				 M-363-271.7v1h-2.6v-1H-363z M-356.4-272.5v2.1c-0.1,0.1-0.2,0.2-0.4,0.3c-0.2,0.1-0.4,0.2-0.7,0.3c-0.3,0.1-0.6,0.1-0.9,0.1
				l0,0c-0.4,0-0.8-0.1-1.2-0.3c-0.3-0.2-0.6-0.5-0.8-0.8c-0.2-0.4-0.3-0.8-0.3-1.3l0,0v-0.2c0-0.5,0.1-1,0.3-1.3
				c0.2-0.4,0.4-0.6,0.8-0.8c0.3-0.2,0.7-0.3,1.1-0.3l0,0c0.5,0,0.8,0.1,1.1,0.2c0.3,0.1,0.5,0.4,0.7,0.6c0.1,0.3,0.2,0.6,0.3,0.9
				l0,0h-1.2c0-0.2-0.1-0.3-0.1-0.4c-0.1-0.1-0.1-0.2-0.2-0.2c-0.1-0.1-0.2-0.1-0.4-0.1l0,0c-0.2,0-0.3,0.1-0.5,0.2
				c-0.1,0.1-0.2,0.3-0.3,0.5c-0.1,0.2-0.1,0.5-0.1,0.8l0,0v0.2c0,0.3,0,0.6,0.1,0.8c0.1,0.2,0.2,0.4,0.3,0.5s0.3,0.2,0.6,0.2l0,0
				c0.1,0,0.2,0,0.3,0c0.1,0,0.2,0,0.2-0.1c0.1,0,0.1-0.1,0.1-0.1l0,0v-0.7h-0.8v-0.9H-356.4z M-351.6-270.8v1h-2.6v-1H-351.6z
				 M-353.8-274.8v5h-1.3v-5H-353.8z M-351.9-272.9v1h-2.3v-1H-351.9z M-351.6-274.8v1h-2.7v-1H-351.6z M-350.4-274.8h2
				c0.4,0,0.7,0.1,1,0.2c0.3,0.1,0.5,0.3,0.7,0.5c0.2,0.2,0.2,0.5,0.2,0.8l0,0c0,0.3,0,0.5-0.1,0.7c-0.1,0.2-0.2,0.4-0.4,0.5
				c-0.2,0.1-0.3,0.2-0.6,0.3l0,0l-0.4,0.3h-1.6l0-1h1.2c0.1,0,0.3,0,0.4-0.1c0.1,0,0.2-0.1,0.2-0.2c0-0.1,0.1-0.2,0.1-0.3l0,0
				c0-0.2-0.1-0.3-0.2-0.4c-0.1-0.1-0.3-0.2-0.5-0.2l0,0h-0.7v4h-1.3V-274.8z M-347.8-269.8l-1.1-2.2l1.4,0l1.1,2.2v0.1H-347.8z"/>
		</g>
	</g>
</g>
</svg>
