<?xml version="1.0" encoding="UTF-8" standalone="no"?>
<svg
   clip-rule="evenodd"
   fill-rule="evenodd"
   stroke-linejoin="round"
   stroke-miterlimit="2"
   viewBox="0 0 120 60"
   version="1.1"
   id="svg26"
   sodipodi:docname="c-sharp.svg"
   width="120"
   height="60"
   inkscape:version="1.1.1 (3bf5ae0d25, 2021-09-20)"
   xmlns:inkscape="http://www.inkscape.org/namespaces/inkscape"
   xmlns:sodipodi="http://sodipodi.sourceforge.net/DTD/sodipodi-0.dtd"
   xmlns="http://www.w3.org/2000/svg"
   xmlns:svg="http://www.w3.org/2000/svg">
  <defs
     id="defs30" />
  <sodipodi:namedview
     id="namedview28"
     pagecolor="#ffffff"
     bordercolor="#666666"
     borderopacity="1.0"
     inkscape:pageshadow="2"
     inkscape:pageopacity="0.0"
     inkscape:pagecheckerboard="0"
     showgrid="false"
     inkscape:zoom="8.5333333"
     inkscape:cx="60"
     inkscape:cy="29.941406"
     inkscape:window-width="1920"
     inkscape:window-height="951"
     inkscape:window-x="-8"
     inkscape:window-y="-8"
     inkscape:window-maximized="1"
     inkscape:current-layer="svg26" />
  <g
     id="g859"
     transform="matrix(0.20589114,0,0,0.20589114,47.646537,23.823267)">
    <g
       fill-rule="nonzero"
       id="g24"
       transform="matrix(0.9,0,0,0.9,-191.99995,-149.99997)">
      <g
         transform="matrix(0.831388,0,0,0.831388,145,48.2714)"
         id="g12">
        <path
           d="m 324.741,107.31 c -0.003,-6.137 -1.315,-11.56 -3.97,-16.214 C 318.164,86.519 314.26,82.683 309.021,79.65 265.787,54.721 222.512,29.868 179.291,4.913 167.639,-1.813 156.342,-1.568 144.776,5.255 127.568,15.404 41.41,64.765 15.737,79.636 5.163,85.756 0.018,95.123 0.016,107.299 0,157.433 0.016,207.565 0,257.701 c 0.002,6.002 1.259,11.32 3.796,15.904 2.609,4.715 6.568,8.657 11.926,11.758 25.676,14.871 111.845,64.229 129.049,74.38 11.571,6.827 22.868,7.071 34.524,0.342 43.221,-24.956 86.5,-49.808 129.741,-74.736 5.358,-3.101 9.317,-7.045 11.926,-11.756 2.534,-4.585 3.793,-9.903 3.796,-15.905 0,0 0,-100.243 -0.017,-150.378 z"
           fill="#9b4993"
           id="path2" />
        <path
           d="M 162.875,182.011 3.796,273.605 c 2.609,4.715 6.568,8.657 11.926,11.758 25.676,14.871 111.845,64.229 129.049,74.38 11.571,6.827 22.868,7.071 34.524,0.342 43.221,-24.956 86.5,-49.808 129.741,-74.736 5.358,-3.101 9.317,-7.045 11.926,-11.756 z"
           fill="#682876"
           id="path4" />
        <path
           d="m 115.758,209.142 c 9.257,16.16 26.659,27.06 46.621,27.06 20.085,0 37.586,-11.038 46.796,-27.371 l -46.3,-26.82 z"
           fill="#682876"
           id="path6" />
        <path
           d="m 324.741,107.31 c -0.003,-6.137 -1.315,-11.56 -3.97,-16.214 l -157.896,90.915 158.087,91.582 c 2.534,-4.585 3.793,-9.903 3.796,-15.905 0,0 0,-100.243 -0.017,-150.378 z"
           fill="#823085"
           id="path8" />
        <path
           d="m 209.175,208.831 c -9.21,16.333 -26.711,27.371 -46.796,27.371 -19.962,0 -37.364,-10.9 -46.621,-27.06 -4.496,-7.853 -7.082,-16.945 -7.082,-26.643 0,-29.659 24.044,-53.702 53.703,-53.702 19.834,0 37.143,10.764 46.446,26.759 l 46.939,-27.03 C 237.107,96.321 202.275,74.653 162.379,74.653 c -59.564,0 -107.848,48.285 -107.848,107.846 0,19.54 5.198,37.864 14.284,53.67 18.61,32.376 53.542,54.177 93.564,54.177 40.095,0 75.082,-21.888 93.665,-54.36 z"
           fill="#ffffff"
           id="path10" />
      </g>
      <g
         fill="#ffffff"
         stroke-width="0.831388"
         id="g22">
        <path
           d="m 359.34845,178.79932 h 8.86842 v 42.95449 h -8.86842 z"
           id="path14" />
        <path
           d="m 379.02491,178.79932 h 8.86759 v 42.95449 h -8.86759 z"
           id="path16" />
        <path
           d="m 352.14281,186.00496 h 42.95533 v 8.86758 h -42.95533 z"
           id="path18" />
        <path
           d="m 352.14281,205.68058 h 42.95533 v 8.86842 h -42.95533 z"
           id="path20" />
      </g>
    </g>
  </g>
</svg>
