<?xml version="1.0" encoding="UTF-8" standalone="no"?>
<svg
   height="60"
   viewBox="20.7 244.9 28.8144 60.000001"
   width="120"
   version="1.1"
   id="svg10"
   sodipodi:docname="docker.svg"
   inkscape:version="1.1.1 (3bf5ae0d25, 2021-09-20)"
   xmlns:inkscape="http://www.inkscape.org/namespaces/inkscape"
   xmlns:sodipodi="http://sodipodi.sourceforge.net/DTD/sodipodi-0.dtd"
   xmlns="http://www.w3.org/2000/svg"
   xmlns:svg="http://www.w3.org/2000/svg">
  <defs
     id="defs14" />
  <sodipodi:namedview
     id="namedview12"
     pagecolor="#ffffff"
     bordercolor="#666666"
     borderopacity="1.0"
     inkscape:pageshadow="2"
     inkscape:pageopacity="0.0"
     inkscape:pagecheckerboard="0"
     showgrid="false"
     inkscape:zoom="8.5333333"
     inkscape:cx="60"
     inkscape:cy="29.941406"
     inkscape:window-width="1920"
     inkscape:window-height="951"
     inkscape:window-x="-8"
     inkscape:window-y="-8"
     inkscape:window-maximized="1"
     inkscape:current-layer="svg10" />
  <g
     fill="#0091e2"
     id="g8"
     transform="matrix(0.18530203,0,0,0.18530203,-24.356006,215.18644)">
    <path
       d="m 303,290 c -3.2,-0.1 -5.8,2.4 -5.9,5.5 v 28.8 c -13.7,-11 -33.8,-8.8 -44.8,4.9 -4.5,5.7 -7,12.7 -7,20 -0.3,17.6 13.7,32.1 31.3,32.4 17.6,0.3 32.1,-13.7 32.4,-31.3 v -54.4 c 0,-1.6 -0.6,-3.1 -1.7,-4.2 -1.2,-1.1 -2.7,-1.7 -4.3,-1.7 m -7.5,66.9 c -2,4.8 -5.8,8.6 -10.6,10.7 -5,2.1 -10.6,2.1 -15.6,0 -4.8,-2 -8.5,-5.9 -10.5,-10.6 -2.1,-4.9 -2.1,-10.5 0,-15.5 2,-4.8 5.8,-8.6 10.5,-10.6 5,-2.1 10.6,-2.1 15.6,0 4.8,2.1 8.6,5.9 10.6,10.7 2.1,4.8 2.1,10.4 0,15.3 m 74,-30.2 c -12.4,-12.4 -32.6,-12.4 -45,0 -6,6 -9.3,14.1 -9.3,22.5 -0.3,17.6 13.7,32.1 31.3,32.4 17.6,0.3 32.1,-13.7 32.4,-31.3 v -1.1 c 0,-4.2 -0.8,-8.3 -2.4,-12.2 -1.6,-3.9 -4,-7.4 -7,-10.3 m -4.1,30.1 c -1,2.4 -2.5,4.5 -4.3,6.3 -1.8,1.8 -4,3.3 -6.3,4.3 -5,2.1 -10.6,2.1 -15.6,0 -4.8,-2 -8.6,-5.9 -10.6,-10.6 -2.1,-4.9 -2.1,-10.5 0,-15.5 2,-4.8 5.8,-8.5 10.6,-10.6 5,-2.1 10.6,-2.1 15.6,0 2.4,1 4.5,2.5 6.3,4.3 1.8,1.8 3.3,4 4.3,6.3 2.1,5.1 2.1,10.7 0,15.5 m 135.8,-33.6 c 0,-0.8 -0.2,-1.6 -0.5,-2.3 -0.3,-0.7 -0.8,-1.3 -1.3,-1.9 -0.5,-0.5 -1.2,-1 -1.9,-1.3 -0.7,-0.3 -1.5,-0.5 -2.3,-0.5 -1.1,0 -2.2,0.3 -3.2,0.9 l -34,22.1 V 296 c 0,-1.6 -0.6,-3.1 -1.7,-4.2 -1.1,-1.1 -2.6,-1.8 -4.2,-1.8 -3.3,0 -5.9,2.6 -6,5.9 V 375 c 0,1.6 0.6,3.1 1.7,4.2 1.1,1.2 2.6,1.8 4.2,1.8 1.6,0 3.1,-0.6 4.2,-1.8 1.1,-1.1 1.8,-2.6 1.7,-4.2 v -20.5 l 6.9,-4.5 26.3,29.5 c 1.1,1 2.5,1.6 4,1.5 0.8,0 1.6,-0.1 2.3,-0.5 0.7,-0.3 1.3,-0.7 1.9,-1.3 0.5,-0.6 1,-1.2 1.3,-1.9 0.3,-0.7 0.5,-1.5 0.5,-2.3 0,-1.5 -0.6,-3 -1.6,-4.1 l -24.4,-27.5 23.8,-15.5 c 1.6,-1 2.4,-2.8 2.3,-4.7 M 402.5,335 c 1.8,-1.8 4,-3.3 6.4,-4.3 2.5,-1 5.1,-1.6 7.8,-1.6 2.4,0 4.7,0.4 6.9,1.2 2.2,0.9 4.3,2.1 6.1,3.7 1.1,0.9 2.5,1.3 3.9,1.3 1.6,0.1 3.2,-0.5 4.3,-1.7 1.1,-1.1 1.7,-2.7 1.7,-4.3 0,-1.7 -0.7,-3.4 -2.1,-4.5 -5.7,-5.1 -13.1,-7.9 -20.8,-7.7 -17.6,0 -31.9,14.3 -31.9,31.9 0,17.6 14.2,31.8 31.7,31.9 7.7,0 15.1,-2.7 20.9,-7.7 1.2,-1.1 1.9,-2.7 1.9,-4.4 0.1,-3.2 -2.4,-5.8 -5.5,-5.9 h -0.4 c -1.4,0 -2.7,0.4 -3.8,1.2 -1.8,1.6 -3.8,2.8 -6,3.7 -2.2,0.8 -4.6,1.2 -6.9,1.2 -2.7,0 -5.3,-0.5 -7.8,-1.6 -2.4,-1 -4.5,-2.5 -6.4,-4.3 -7.8,-7.8 -7.8,-20.4 -0.1,-28.2 0.1,0.2 0.1,0.2 0.1,0.1 m 216.8,-13.7 c -1.2,-1.1 -2.5,-1.9 -4,-2.4 -1.7,-0.6 -3.5,-1 -5.3,-1.2 -1.8,-0.2 -3.6,-0.3 -5.4,-0.3 -3.6,0 -7.3,0.6 -10.7,1.9 -3.4,1.2 -6.5,3 -9.3,5.2 v -1.2 c -0.1,-3.3 -2.9,-5.8 -6.2,-5.7 a 5.9,5.9 0 0 0 -5.7,5.7 v 51.9 c 0.1,3.3 2.9,5.8 6.2,5.7 a 5.9,5.9 0 0 0 5.7,-5.7 v -25.9 c 0,-2.7 0.5,-5.3 1.6,-7.8 1,-2.4 2.4,-4.5 4.3,-6.3 1.8,-1.8 4,-3.3 6.3,-4.3 2.5,-1 5.1,-1.6 7.8,-1.6 2.7,0 5.3,0.5 7.8,1.4 0.8,0.4 1.6,0.6 2.5,0.6 0.8,0 1.6,-0.1 2.3,-0.5 0.7,-0.3 1.3,-0.7 1.9,-1.3 0.5,-0.5 1,-1.2 1.3,-1.9 0.3,-0.7 0.5,-1.5 0.5,-2.3 0.1,-1.5 -0.5,-2.9 -1.6,-4 M 564.1,337 c -5.1,-11.8 -16.7,-19.5 -29.5,-19.6 -17.6,0 -31.8,14.2 -31.9,31.8 0,17.6 14.3,31.9 31.9,31.9 7.6,0 15,-2.7 20.8,-7.7 l 0.2,-0.2 c 0.5,-0.4 1,-0.9 1.3,-1.5 1.9,-2.8 1.2,-6.5 -1.5,-8.4 -2.3,-1.5 -5.3,-1.2 -7.3,0.7 -0.2,0.2 -0.8,0.7 -0.8,0.8 l -0.1,0.1 c -1.7,1.4 -3.6,2.6 -5.7,3.3 -2.2,0.8 -4.5,1.2 -6.9,1.1 -2.2,0 -4.3,-0.3 -6.4,-1 -2,-0.7 -3.9,-1.6 -5.6,-2.9 -1.7,-1.2 -3.2,-2.7 -4.4,-4.4 -1.3,-1.7 -2.2,-3.7 -2.8,-5.7 h 45 c 1.6,0 3.1,-0.6 4.2,-1.7 1.2,-1.1 1.8,-2.6 1.7,-4.2 0.1,-4.3 -0.7,-8.5 -2.2,-12.4 m -48.7,6.4 c 0.6,-2.1 1.5,-4 2.8,-5.7 1.2,-1.7 2.7,-3.2 4.4,-4.4 1.7,-1.2 3.6,-2.2 5.6,-2.9 2,-0.7 4.2,-1 6.3,-1 2.1,0 4.3,0.3 6.3,1 4,1.3 7.5,3.9 10,7.3 1.3,1.7 2.2,3.7 2.9,5.7 z m 83.6,29 c -2.3,0 -4.1,1.9 -4.1,4.2 0,2.3 1.9,4.1 4.2,4.1 2.3,0 4.1,-1.9 4.1,-4.1 0,-2.4 -1.9,-4.2 -4.2,-4.2 z m 0,7.4 c -1.8,0.1 -3.3,-1.3 -3.4,-3.1 -0.1,-1.8 1.3,-3.3 3.1,-3.4 1.8,-0.1 3.3,1.3 3.4,3.1 v 0.2 c 0.1,1.7 -1.3,3.2 -3,3.2 z"
       id="path2" />
    <path
       d="m 600,376.6 c 0.5,-0.1 0.8,-0.5 0.8,-1 0,-0.4 -0.1,-0.7 -0.4,-0.9 -0.4,-0.2 -0.9,-0.3 -1.4,-0.3 -0.5,0 -1.1,0 -1.6,0.1 v 4.1 h 0.9 V 377 h 0.4 c 0.5,0 0.8,0.2 0.9,0.6 0.1,0.3 0.2,0.7 0.3,1 h 1 c -0.2,-0.3 -0.3,-0.7 -0.3,-1 0.1,-0.4 -0.2,-0.8 -0.6,-1 m -1.2,-0.3 h -0.5 v -1.2 h 0.5 c 0.6,0 0.9,0.3 0.9,0.6 0.1,0.4 -0.4,0.7 -0.9,0.6 M 234.4,303.4 c -0.6,-0.5 -6,-4.6 -17.6,-4.6 -3,0 -6.1,0.3 -9.1,0.8 -2.2,-15.3 -14.9,-22.7 -15.4,-23.1 l -3.1,-1.8 -2,2.9 c -2.5,3.9 -4.4,8.3 -5.5,12.8 -2.1,8.7 -0.8,16.9 3.6,23.9 -5.3,3 -13.9,3.7 -15.7,3.8 h -142 c -3.7,0 -6.7,3 -6.7,6.7 -0.2,12.4 1.9,24.8 6.2,36.5 4.9,12.8 12.2,22.3 21.6,28.1 10.6,6.5 27.9,10.2 47.4,10.2 8.8,0 17.6,-0.8 26.3,-2.4 12.1,-2.2 23.7,-6.4 34.4,-12.5 8.8,-5.1 16.7,-11.6 23.4,-19.2 11.3,-12.7 18,-26.9 22.9,-39.5 h 2 c 12.3,0 19.9,-4.9 24.1,-9.1 2.8,-2.6 4.9,-5.8 6.4,-9.4 l 0.9,-2.6 z"
       id="path4" />
    <path
       d="m 40.8,314 h 19 c 0.9,0 1.7,-0.7 1.7,-1.7 v -17 c 0,-0.9 -0.7,-1.7 -1.7,-1.7 h -19 c -0.9,0 -1.7,0.7 -1.7,1.7 v 17 c 0.1,1 0.8,1.7 1.7,1.7 z m 26.2,0 h 19 c 0.9,0 1.7,-0.7 1.7,-1.7 v -17 c 0,-0.9 -0.7,-1.7 -1.7,-1.7 H 67 c -0.9,0 -1.7,0.7 -1.7,1.7 v 17 c 0.1,1 0.8,1.7 1.7,1.7 m 26.7,0 h 19 c 0.9,0 1.7,-0.7 1.7,-1.7 v -17 c 0,-0.9 -0.7,-1.7 -1.7,-1.7 h -19 c -0.9,0 -1.7,0.7 -1.7,1.7 v 17 c 0,1 0.7,1.7 1.7,1.7 z m 26.3,0 h 19 c 0.9,0 1.7,-0.7 1.7,-1.7 v -17 c 0,-0.9 -0.7,-1.7 -1.7,-1.7 h -19 c -0.9,0 -1.7,0.7 -1.7,1.7 v 17 c 0,1 0.8,1.7 1.7,1.7 z M 67,289.7 h 19 c 0.9,0 1.7,-0.8 1.7,-1.7 v -17 c 0,-0.9 -0.7,-1.7 -1.7,-1.7 H 67 c -0.9,0 -1.7,0.7 -1.7,1.7 v 17 c 0.1,0.9 0.8,1.7 1.7,1.7 m 26.7,0 h 19 c 0.9,0 1.7,-0.8 1.7,-1.7 v -17 c 0,-0.9 -0.7,-1.7 -1.7,-1.7 h -19 c -0.9,0 -1.7,0.7 -1.7,1.7 v 17 c 0,0.9 0.7,1.7 1.7,1.7 m 26.3,0 h 19 c 0.9,0 1.7,-0.8 1.7,-1.7 v -17 c 0,-0.9 -0.8,-1.7 -1.7,-1.7 h -19 c -0.9,0 -1.7,0.7 -1.7,1.7 v 17 c 0,0.9 0.8,1.7 1.7,1.7 m 0,-24.4 h 19 c 0.9,0 1.7,-0.7 1.7,-1.7 v -17 c 0,-0.9 -0.8,-1.7 -1.7,-1.7 h -19 c -0.9,0 -1.7,0.7 -1.7,1.7 v 17 c 0,0.9 0.8,1.7 1.7,1.7 m 26.5,48.7 h 19 c 0.9,0 1.7,-0.7 1.7,-1.7 v -17 c 0,-0.9 -0.7,-1.7 -1.7,-1.7 h -19 c -0.9,0 -1.7,0.7 -1.7,1.7 v 17 c 0.1,1 0.8,1.7 1.7,1.7"
       id="path6" />
  </g>
</svg>
