<?xml version="1.0" encoding="UTF-8" standalone="no"?>
<svg
   id="Layer_1"
   viewBox="0 0 120 60.000001"
   width="120"
   height="60"
   version="1.1"
   sodipodi:docname="macos-logo-vector.svg"
   inkscape:version="1.1.1 (3bf5ae0d25, 2021-09-20)"
   xmlns:inkscape="http://www.inkscape.org/namespaces/inkscape"
   xmlns:sodipodi="http://sodipodi.sourceforge.net/DTD/sodipodi-0.dtd"
   xmlns="http://www.w3.org/2000/svg"
   xmlns:svg="http://www.w3.org/2000/svg">
  <defs
     id="defs9" />
  <sodipodi:namedview
     id="namedview7"
     pagecolor="#ffffff"
     bordercolor="#666666"
     borderopacity="1.0"
     inkscape:pageshadow="2"
     inkscape:pageopacity="0.0"
     inkscape:pagecheckerboard="0"
     showgrid="false"
     inkscape:zoom="8.5333333"
     inkscape:cx="60"
     inkscape:cy="29.941406"
     inkscape:window-width="1920"
     inkscape:window-height="951"
     inkscape:window-x="-8"
     inkscape:window-y="-8"
     inkscape:window-maximized="1"
     inkscape:current-layer="Layer_1" />
  <style
     id="style2">.st0{fill:#333}</style>
  <path
     class="st0"
     d="M 31.574295,44.306077 H 28.389949 V 32.546538 c 0,-4.329849 -1.527786,-6.494775 -4.584702,-6.494775 -0.70823,0 -1.358781,0.148888 -1.952995,0.446667 -0.594215,0.297778 -1.110631,0.70018 -1.549249,1.209891 -0.438617,0.509707 -0.777977,1.089168 -1.01942,1.739717 -0.241442,0.650553 -0.360819,1.330612 -0.360819,2.0375 V 44.306077 H 15.739761 V 31.783314 c 0,-1.698138 -0.36887,-3.078377 -1.103926,-4.139379 -0.736394,-1.060999 -1.825566,-1.592172 -3.268847,-1.592172 -0.735056,0 -1.415117,0.162303 -2.0375003,0.488248 -0.6223789,0.325947 -1.1602591,0.764566 -1.6136307,1.315857 -0.4533738,0.55129 -0.8061471,1.175015 -1.0610017,1.868487 -0.2548557,0.693474 -0.3822819,1.393655 -0.3822819,2.101884 V 44.306077 H 3.0895688 V 29.151602 c 0,-0.8209 -0.01475,-1.676676 -0.042919,-2.568666 -0.028181,-0.891994 -0.071087,-1.81886 -0.1274299,-2.780602 h 2.844986 v 3.353353 h 0.2964379 c 1.4432814,-2.519039 3.5652826,-3.778558 6.3673462,-3.778558 1.358777,0 2.540501,0.368868 3.545164,1.103924 1.004668,0.736396 1.718261,1.741062 2.143464,3.013994 h 0.0845 c 0.735056,-1.358779 1.676677,-2.383565 2.822181,-3.077038 1.146847,-0.693472 2.454656,-1.04088 3.927449,-1.04088 2.00933,0 3.614915,0.771272 4.818098,2.313813 1.203181,1.542543 1.804102,3.687349 1.804102,6.431733 v 12.183402 z m 16.558859,0 -0.296436,-2.631712 h -0.12743 c -1.386948,2.065668 -3.452611,3.098501 -6.198339,3.098501 -0.877237,0 -1.684725,-0.142183 -2.41978,-0.423865 -0.736395,-0.283025 -1.373533,-0.685427 -1.91007,-1.209889 -0.536536,-0.524465 -0.961741,-1.138801 -1.272932,-1.847028 -0.311191,-0.706889 -0.466786,-1.486206 -0.466786,-2.335275 0,-2.490872 1.032832,-4.379481 3.098498,-5.667167 2.065666,-1.287687 5.066246,-1.931532 8.999059,-1.931532 v -0.466788 c 0,-3.366765 -1.570711,-5.051491 -4.712133,-5.051491 -1.952994,0 -3.679299,0.494956 -5.178917,1.486206 l -0.764565,-2.207848 c 1.81081,-1.16026 3.947566,-1.74106 6.41027,-1.74106 4.9804,0 7.471269,2.730971 7.471269,8.192912 v 7.854895 c 0,0.989911 0.02145,1.889952 0.06438,2.696096 0.04292,0.807489 0.120722,1.535836 0.233395,2.186386 H 48.133153 Z M 47.581861,33.693384 h -0.637135 c -5.49011,0 -8.235838,1.613634 -8.235838,4.839561 0,1.274274 0.33936,2.221261 1.01942,2.844986 0.67872,0.62238 1.527789,0.933573 2.547207,0.933573 0.650551,0 1.294394,-0.112663 1.931532,-0.33936 0.637136,-0.226687 1.203183,-0.544585 1.698138,-0.955036 0.494954,-0.41045 0.898699,-0.912111 1.209891,-1.506326 0.31119,-0.594214 0.466785,-1.259521 0.466785,-1.994574 z m 22.11872,-6.665123 c -1.246107,-0.680061 -2.68939,-1.019421 -4.32985,-1.019421 -1.16026,0 -2.194434,0.205226 -3.099841,0.615677 -0.905404,0.410449 -1.669969,0.976495 -2.292351,1.698137 -0.622382,0.721642 -1.103924,1.577417 -1.443283,2.568668 -0.339361,0.989912 -0.509711,2.065667 -0.509711,3.225927 0,1.188429 0.177058,2.278938 0.531171,3.268848 0.354116,0.989911 0.849069,1.832275 1.486207,2.525745 0.635794,0.693474 1.393654,1.231354 2.270891,1.613635 0.877236,0.382282 1.853733,0.572754 2.92949,0.572754 1.527787,0 3.042161,-0.339361 4.543124,-1.019421 l 0.635795,2.461361 c -1.585467,0.792733 -3.508951,1.188429 -5.773134,1.188429 -1.50096,0 -2.858398,-0.248146 -4.076336,-0.743103 -1.216596,-0.494954 -2.264185,-1.203184 -3.141423,-2.122002 -0.877236,-0.920159 -1.549247,-2.016035 -2.016034,-3.29031 -0.466788,-1.274274 -0.70018,-2.702804 -0.70018,-4.288268 0,-1.613634 0.26156,-3.085085 0.784684,-4.415696 0.523123,-1.329269 1.252813,-2.476116 2.186387,-3.437858 0.933571,-0.961742 2.058958,-1.712892 3.374815,-2.249429 1.315855,-0.537879 2.765845,-0.807488 4.351311,-0.807488 2.065666,0 3.763804,0.368869 5.094415,1.103925 z m 28.105127,2.674634 c 0,2.236014 -0.304482,4.273513 -0.913454,6.112491 -0.608973,1.840321 -1.471453,3.424444 -2.590132,4.755056 -1.117338,1.330612 -2.462701,2.363444 -4.033412,3.098499 -1.570711,0.735055 -3.318479,1.103925 -5.241962,1.103925 -1.840319,0 -3.523705,-0.360822 -5.051491,-1.082464 -1.529131,-0.721641 -2.844985,-1.726306 -3.948911,-3.013994 -1.103923,-1.287688 -1.959698,-2.816818 -2.568667,-4.584703 -0.608971,-1.767889 -0.912112,-3.714176 -0.912112,-5.837519 0,-2.206507 0.317896,-4.237297 0.955032,-6.091032 0.637138,-1.853733 1.521081,-3.437857 2.653175,-4.755054 1.132093,-1.315856 2.482821,-2.341983 4.053534,-3.077037 1.572053,-0.735055 3.291646,-1.103925 5.160141,-1.103925 1.867143,0 3.57199,0.354115 5.114535,1.061001 1.542539,0.708228 2.851691,1.698138 3.927445,2.972412 1.075755,1.274274 1.910068,2.802062 2.504283,4.584706 0.594214,1.782642 0.891996,3.735636 0.891996,5.857638 z m -3.439203,0.170351 c 0,-1.69814 -0.226683,-3.275557 -0.680056,-4.733594 -0.453373,-1.456697 -1.08247,-2.730971 -1.888609,-3.820141 -0.807491,-1.089169 -1.769232,-1.938239 -2.886572,-2.547208 -1.117334,-0.607627 -2.356734,-0.912111 -3.71417,-0.912111 -1.386947,0 -2.653176,0.304484 -3.800021,0.912111 -1.146845,0.608969 -2.122004,1.456697 -2.92949,2.547208 -0.807488,1.08917 -1.436578,2.391612 -1.889949,3.905986 -0.453373,1.514376 -0.678719,3.162883 -0.678719,4.945526 0,1.66997 0.226687,3.233972 0.678719,4.690671 0.453371,1.458038 1.082461,2.724264 1.889949,3.800019 0.806144,1.075755 1.775936,1.924824 2.908029,2.547209 1.132091,0.62238 2.376859,0.933572 3.735637,0.933572 1.386947,0 2.653169,-0.311192 3.800015,-0.933572 1.146851,-0.622385 2.122004,-1.486207 2.929495,-2.590132 0.807482,-1.103923 1.428529,-2.398319 1.868486,-3.884525 0.437281,-1.486207 0.657256,-3.106546 0.657256,-4.861019 z m 22.714275,6.749628 c 0,1.216597 -0.2267,2.328568 -0.68006,3.333234 -0.45337,1.004665 -1.09722,1.861781 -1.93153,2.568668 -0.83431,0.708229 -1.84569,1.252811 -3.03546,1.635095 -1.18843,0.382282 -2.51903,0.572754 -3.99049,0.572754 -2.94424,0 -5.27817,-0.607628 -7.00448,-1.825566 l 0.89065,-2.674635 c 1.89532,1.188428 4.0039,1.782644 6.32577,1.782644 1.95299,0 3.46736,-0.466789 4.54311,-1.400363 1.07577,-0.933571 1.61364,-2.178338 1.61364,-3.735634 0,-1.443284 -0.41849,-2.61025 -1.25281,-3.502242 -0.83566,-0.890651 -2.21455,-1.704846 -4.13939,-2.441242 -4.89589,-1.838979 -7.34383,-4.528368 -7.34383,-8.065485 0,-1.102584 0.21864,-2.122002 0.65725,-3.055576 0.43862,-0.933574 1.0543,-1.741061 1.84703,-2.41978 0.79273,-0.678719 1.73301,-1.201843 2.82219,-1.570709 1.08916,-0.367529 2.27088,-0.551293 3.54515,-0.551293 2.46136,0 4.47069,0.453374 6.028,1.358779 l -0.9765,2.631712 c -1.38696,-0.877238 -3.11326,-1.315856 -5.17892,-1.315856 -1.64181,0 -2.97241,0.410451 -3.99049,1.231351 -1.01942,0.8209 -1.52778,1.910071 -1.52778,3.268849 0,0.65055 0.0912,1.23135 0.27497,1.741061 0.18375,0.50971 0.48824,0.98991 0.91345,1.443284 0.42386,0.453373 0.99796,0.885285 1.7196,1.294395 0.72164,0.410449 1.63509,0.84236 2.73767,1.294392 1.27295,0.509712 2.36344,1.054295 3.26886,1.635096 0.90539,0.580801 1.64851,1.20989 2.22931,1.888608 0.5808,0.680062 0.99794,1.423165 1.25281,2.229311 0.25486,0.802122 0.38228,1.686064 0.38228,2.649148 z"
     id="path4"
     style="stroke-width:0.0134135" />
</svg>
