<?xml version="1.0" encoding="UTF-8" standalone="no"?>
<svg
   id="Layer_1"
   data-name="Layer 1"
   viewBox="0 0 120 60"
   version="1.1"
   sodipodi:docname="nuget.svg"
   width="120"
   height="60"
   inkscape:version="1.1.1 (3bf5ae0d25, 2021-09-20)"
   xmlns:inkscape="http://www.inkscape.org/namespaces/inkscape"
   xmlns:sodipodi="http://sodipodi.sourceforge.net/DTD/sodipodi-0.dtd"
   xmlns="http://www.w3.org/2000/svg"
   xmlns:svg="http://www.w3.org/2000/svg"
   xmlns:rdf="http://www.w3.org/1999/02/22-rdf-syntax-ns#"
   xmlns:cc="http://creativecommons.org/ns#"
   xmlns:dc="http://purl.org/dc/elements/1.1/">
  <sodipodi:namedview
     id="namedview24"
     pagecolor="#ffffff"
     bordercolor="#666666"
     borderopacity="1.0"
     inkscape:pageshadow="2"
     inkscape:pageopacity="0.0"
     inkscape:pagecheckerboard="0"
     showgrid="false"
     inkscape:zoom="8.5333333"
     inkscape:cx="60"
     inkscape:cy="29.941406"
     inkscape:window-width="1920"
     inkscape:window-height="951"
     inkscape:window-x="-8"
     inkscape:window-y="-8"
     inkscape:window-maximized="1"
     inkscape:current-layer="Layer_1" />
  <defs
     id="defs4">
    <style
       id="style2">.cls-1{fill:#fff;stroke:#004880;}</style>
  </defs>
  <title
     id="title6">Logo-Header-5</title>
  <g
     id="g959"
     transform="matrix(1.21,0,0,1.21,1.315,11.134857)">
    <path
       class="cls-1"
       d="M 19.52,5.65 H 12.84 A 6.91,6.91 0 0 0 5.9,12.57 v 6.68 a 6.91,6.91 0 0 0 6.91,6.91 h 6.68 A 6.91,6.91 0 0 0 26.4,19.24 V 12.57 A 6.91,6.91 0 0 0 19.52,5.65 Z m -6.75,7.47 A 2,2 0 1 1 13,10.6 2,2 0 0 1 12.77,13.12 Z m 6.63,9.69 a 3.5,3.5 0 1 1 3.5,-3.5 3.5,3.5 0 0 1 -3.5,3.5 z"
       id="path8"
       style="fill:#000000;stroke:none" />
    <path
       id="Shape"
       class="cls-1"
       d="M 87.65,16.86 A 7.08,7.08 0 0 0 86.18,12.15 5.25,5.25 0 0 0 82,10.36 a 5.84,5.84 0 0 0 -4.5,2 7.3,7.3 0 0 0 -1.81,5.08 7.42,7.42 0 0 0 1.64,5.1 5.81,5.81 0 0 0 4.56,1.89 7.69,7.69 0 0 0 4.62,-1.29 l 0.31,-0.22 v -3.75 l -1.21,1 A 5.15,5.15 0 0 1 82.35,21.35 3,3 0 0 1 80,20.49 3.29,3.29 0 0 1 79.19,18.66 h 8.44 z m -8.26,-1.37 a 3.33,3.33 0 0 1 0.77,-1.27 2.36,2.36 0 0 1 1.77,-0.75 2,2 0 0 1 1.63,0.66 2.67,2.67 0 0 1 0.57,1.35 z"
       style="fill:#000000;stroke:none" />
    <path
       id="Shape-2"
       data-name="Shape"
       class="cls-1"
       d="m 56.54,18.3 a 3.23,3.23 0 0 1 -0.72,2.22 2.19,2.19 0 0 1 -1.75,0.78 c -1.47,0 -2.16,-0.89 -2.16,-3 V 10.64 H 48.5 v 7.92 c 0,3.79 1.73,5.86 5,5.86 a 4.81,4.81 0 0 0 3,-0.94 v 0.66 h 3.42 v -13.5 h -3.38 z"
       style="fill:#000000;stroke:none" />
    <path
       id="Shape-3"
       data-name="Shape"
       class="cls-1"
       d="m 71,11.2 -0.07,0.15 a 4.92,4.92 0 0 0 -2.8,-1 5.61,5.61 0 0 0 -4.59,2.09 8.28,8.28 0 0 0 -1.63,5.35 7.19,7.19 0 0 0 1.53,4.8 5.21,5.21 0 0 0 4.16,1.87 5.67,5.67 0 0 0 3.4,-1.4 c -0.1,2.5 -1.25,3.63 -3.65,3.63 a 7.16,7.16 0 0 1 -3.48,-1 l -1.12,-0.63 v 3.67 l 0.41,0.21 a 9.12,9.12 0 0 0 4.21,0.93 c 4.62,0 7,-2.56 7,-7.39 V 10.59 H 71 Z m 0,6.8 a 3.58,3.58 0 0 1 -0.82,2.46 2.56,2.56 0 0 1 -2,0.9 2.35,2.35 0 0 1 -2,-0.92 4.29,4.29 0 0 1 -0.8,-2.75 5.13,5.13 0 0 1 0.85,-3.18 2.56,2.56 0 0 1 2.18,-1 2.4,2.4 0 0 1 1.85,0.79 2.72,2.72 0 0 1 0.76,2 z"
       style="fill:#000000;stroke:none" />
    <path
       id="Shape-4"
       data-name="Shape"
       class="cls-1"
       d="m 41.83,10.36 a 5.06,5.06 0 0 0 -3.23,1.07 v -0.79 h -3.42 v 13.5 h 3.42 v -7.59 a 3.27,3.27 0 0 1 0.76,-2.24 2.28,2.28 0 0 1 1.82,-0.83 c 1.39,0 2,0.9 2,3.07 v 7.59 h 3.47 v -8.08 a 6.37,6.37 0 0 0 -1.21,-4.15 4.41,4.41 0 0 0 -3.61,-1.55 z"
       style="fill:#000000;stroke:none" />
    <path
       id="Shape-5"
       data-name="Shape"
       class="cls-1"
       d="m 96.09,13.78 v -3.14 h -3 V 6.81 l -3.44,1.1 v 2.73 h -2.07 v 3.14 h 2.07 v 6.35 c 0,2.74 1.37,4.27 3.9,4.27 a 4.42,4.42 0 0 0 2.16,-0.47 L 96.1,23.72 V 20.13 L 94.9,21 a 1.27,1.27 0 0 1 -0.8,0.25 c -0.42,0 -0.66,-0.09 -0.77,-0.23 a 2.23,2.23 0 0 1 -0.25,-1.26 v -6 z"
       style="fill:#000000;stroke:none" />
    <circle
       id="path-2"
       class="cls-1"
       cx="3.6500001"
       cy="4.0599999"
       r="2"
       style="fill:#000000;stroke:none" />
    <circle
       class="cls-1"
       cx="3.6500001"
       cy="4.0599999"
       r="2.75"
       id="circle17"
       style="fill:#000000;stroke:none" />
  </g>
  <metadata
     id="metadata841">
    <rdf:RDF>
      <cc:Work
         rdf:about="">
        <dc:title>Logo-Header-5</dc:title>
      </cc:Work>
    </rdf:RDF>
  </metadata>
</svg>
