<?xml version="1.0" encoding="UTF-8" standalone="no"?>
<svg
   height="60"
   viewBox="0 0 120.00056 59.9992"
   width="120"
   version="1.1"
   id="svg33"
   sodipodi:docname="puppet.svg"
   inkscape:version="1.1.1 (3bf5ae0d25, 2021-09-20)"
   xmlns:inkscape="http://www.inkscape.org/namespaces/inkscape"
   xmlns:sodipodi="http://sodipodi.sourceforge.net/DTD/sodipodi-0.dtd"
   xmlns="http://www.w3.org/2000/svg"
   xmlns:svg="http://www.w3.org/2000/svg"
   xmlns:rdf="http://www.w3.org/1999/02/22-rdf-syntax-ns#"
   xmlns:cc="http://creativecommons.org/ns#"
   xmlns:dc="http://purl.org/dc/elements/1.1/">
  <defs
     id="defs37" />
  <sodipodi:namedview
     id="namedview35"
     pagecolor="#ffffff"
     bordercolor="#666666"
     borderopacity="1.0"
     inkscape:pageshadow="2"
     inkscape:pageopacity="0.0"
     inkscape:pagecheckerboard="0"
     showgrid="false"
     inkscape:zoom="1.244135"
     inkscape:cx="380.98759"
     inkscape:cy="149.90334"
     inkscape:window-width="1920"
     inkscape:window-height="951"
     inkscape:window-x="-8"
     inkscape:window-y="-8"
     inkscape:window-maximized="1"
     inkscape:current-layer="svg33" />
  <clipPath
     id="a">
    <path
       d="M 0,792 H 612 V 0 H 0 Z"
       id="path2" />
  </clipPath>
  <title
     id="title5">Puppet logo</title>
  <metadata
     id="metadata7">
    <rdf:RDF>
      <cc:Work
         rdf:about="">
        <dc:title>Puppet logo</dc:title>
      </cc:Work>
    </rdf:RDF>
  </metadata>
  <g
     clip-path="url(#a)"
     transform="matrix(1.4459382,0,0,-1.4327673,-53.821083,1123.1989)"
     id="g31">
    <path
       d="M 0,0 H -3.068 V 13.807 H 0 v -0.883 c 0.384,0.541 1.374,1.06 2.457,1.06 2.934,0 4.568,-2.437 4.568,-5.281 C 7.025,5.86 5.408,3.445 2.475,3.445 1.391,3.445 0.384,3.964 0,4.506 Z m 0,7.056 c 0.384,-0.7 1.012,-1.174 1.825,-1.174 1.512,0 2.379,1.219 2.379,2.821 0,1.625 -0.849,2.844 -2.361,2.844 C 1.008,11.547 0.384,11.05 0,10.373 Z"
       fill="#040404"
       transform="translate(60.69,749.19)"
       id="path9" />
    <path
       d="M 0,0 H -3.068 V 0.761 C -3.452,0.129 -4.545,-0.39 -5.719,-0.39 c -2.257,0 -3.486,1.489 -3.486,3.723 V 9.972 H -6.52 V 3.898 c 0,-1.061 0.53,-1.783 1.636,-1.783 0.857,0 1.816,0.519 1.816,1.399 V 9.972 H 0 Z"
       fill="#040404"
       transform="translate(77.95,753.03)"
       id="path11" />
    <path
       d="M 0,0 H -2.685 V 13.807 H 0 v -0.883 c 0.384,0.541 1.411,1.06 2.494,1.06 2.934,0 4.587,-2.437 4.587,-5.281 C 7.081,5.86 5.436,3.445 2.502,3.445 1.419,3.445 0.384,3.964 0,4.506 Z m 0,7.056 c 0.384,-0.7 1.05,-1.174 1.862,-1.174 1.512,0 2.398,1.219 2.398,2.821 0,1.625 -0.877,2.844 -2.389,2.844 C 1.036,11.547 0.384,11.05 0,10.373 Z"
       fill="#040404"
       transform="translate(82.56,749.19)"
       id="path13" />
    <path
       d="M 0,0 H -2.685 V 13.807 H 0 v -0.883 c 0.384,0.541 1.424,1.06 2.507,1.06 2.934,0 4.594,-2.437 4.594,-5.281 C 7.101,5.86 5.446,3.445 2.512,3.445 1.429,3.445 0.384,3.964 0,4.506 Z m 0,7.056 c 0.384,-0.7 1.063,-1.174 1.875,-1.174 1.512,0 2.405,1.219 2.405,2.821 0,1.625 -0.887,2.844 -2.399,2.844 C 1.046,11.547 0.384,11.05 0,10.373 Z"
       fill="#040404"
       transform="translate(93.68,749.19)"
       id="path15" />
    <path
       d="m 0,0 c -0.361,-1.918 -1.941,-3.49 -4.469,-3.49 -2.933,0 -4.896,2.16 -4.896,5.274 0,3.047 2.059,5.289 4.88,5.289 2.957,0 4.61,-2.046 4.61,-5.002 v -0.92 h -6.782 c 0.09,-1.534 0.948,-2.415 2.188,-2.415 0.949,0 1.648,0.497 1.874,1.264 z m -6.59,3.068 h 3.904 c -0.022,0.767 -0.654,1.896 -1.805,1.896 -1.083,0 -1.851,-0.745 -2.099,-1.896"
       fill="#040404"
       transform="translate(110.81,756.1)"
       id="path17" />
    <path
       d="M 0,0 H -1.534 V 2.301 H 0 V 4.986 H 2.685 V 2.301 H 4.986 V 0 H 2.685 v -4.427 c 0,-0.79 0.394,-1.151 1.116,-1.151 0.429,0 0.801,0.135 1.185,0.338 V -7.722 C 4.602,-7.925 4.005,-8.038 3.26,-8.038 1.207,-8.038 0,-7.023 0,-4.788 Z"
       fill="#040404"
       transform="translate(112.85,760.7)"
       id="path19" />
    <path
       d="M 53.407,769.136 H 47.271 V 763 h 6.136 z"
       fill="#ffa61a"
       id="path21" />
    <path
       d="m 43.819,757.631 h -1.918 v 1.918 h 1.918 z m 2.301,4.218 H 39.6 v -6.52 h 6.52 z"
       fill="#ffa61a"
       id="path23" />
    <path
       d="M 0,0 -3.874,3.874 -2.378,5.37 1.496,1.496 Z"
       fill="#ffa61a"
       transform="translate(47.4,767.58)"
       id="path25" />
    <path
       d="M 0,0 -1.496,1.496 1.57,4.562 3.066,3.066 Z"
       fill="#ffa61a"
       transform="translate(46.06,760.36)"
       id="path27" />
    <path
       d="m 43.819,772.588 h -1.918 v 1.918 h 1.918 z m 2.301,4.219 H 39.6 v -6.52 h 6.52 z"
       fill="#ffa61a"
       id="path29" />
  </g>
</svg>
