<?xml version="1.0" encoding="UTF-8" standalone="no"?>
<svg
   id="Layer_1"
   data-name="Layer 1"
   viewBox="0 0 120 60"
   version="1.1"
   sodipodi:docname="redhat.svg"
   width="120"
   height="60"
   inkscape:version="1.1.1 (3bf5ae0d25, 2021-09-20)"
   xmlns:inkscape="http://www.inkscape.org/namespaces/inkscape"
   xmlns:sodipodi="http://sodipodi.sourceforge.net/DTD/sodipodi-0.dtd"
   xmlns="http://www.w3.org/2000/svg"
   xmlns:svg="http://www.w3.org/2000/svg"
   xmlns:rdf="http://www.w3.org/1999/02/22-rdf-syntax-ns#"
   xmlns:cc="http://creativecommons.org/ns#"
   xmlns:dc="http://purl.org/dc/elements/1.1/">
  <sodipodi:namedview
     id="namedview15"
     pagecolor="#ffffff"
     bordercolor="#666666"
     borderopacity="1.0"
     inkscape:pageshadow="2"
     inkscape:pageopacity="0.0"
     inkscape:pagecheckerboard="0"
     showgrid="false"
     width="120px"
     inkscape:zoom="1.725938"
     inkscape:cx="276.37146"
     inkscape:cy="72.714083"
     inkscape:window-width="1920"
     inkscape:window-height="951"
     inkscape:window-x="-8"
     inkscape:window-y="-8"
     inkscape:window-maximized="1"
     inkscape:current-layer="Layer_1" />
  <defs
     id="defs4">
    <style
       id="style2">.cls-1{fill:#e00;}</style>
  </defs>
  <title
     id="title6">RedHat-Logo-A-Color</title>
  <g
     id="g837"
     transform="matrix(0.16777216,0,0,0.16777216,8.5912542,17.836518)">
    <path
       class="cls-1"
       d="m 127.47,83.49 c 12.51,0 30.61,-2.58 30.61,-17.46 a 14,14 0 0 0 -0.31,-3.42 L 150.32,30.25 C 148.6,23.13 147.09,19.9 134.59,13.65 124.89,8.69 103.76,0.5 97.51,0.5 91.69,0.5 90,8 83.06,8 76.38,8 71.42,2.4 65.17,2.4 c -6,0 -9.91,4.09 -12.93,12.5 0,0 -8.41,23.72 -9.49,27.16 A 6.43,6.43 0 0 0 42.53,44 c 0,9.22 36.3,39.45 84.94,39.45 M 160,72.07 c 1.73,8.19 1.73,9.05 1.73,10.13 0,14 -15.74,21.77 -36.43,21.77 C 78.54,104 37.58,76.6 37.58,58.49 a 18.45,18.45 0 0 1 1.51,-7.33 C 22.27,52 0.5,55 0.5,74.22 c 0,31.48 74.59,70.28 133.65,70.28 45.28,0 56.7,-20.48 56.7,-36.65 0,-12.72 -11,-27.16 -30.83,-35.78"
       id="path8" />
    <path
       d="m 160,72.07 c 1.73,8.19 1.73,9.05 1.73,10.13 0,14 -15.74,21.77 -36.43,21.77 C 78.54,104 37.58,76.6 37.58,58.49 a 18.45,18.45 0 0 1 1.51,-7.33 L 42.75,42.1 A 6.43,6.43 0 0 0 42.53,44 c 0,9.22 36.3,39.45 84.94,39.45 12.51,0 30.61,-2.58 30.61,-17.46 a 14,14 0 0 0 -0.31,-3.42 z"
       id="path10" />
    <path
       d="m 579.74,92.8 c 0,11.89 7.15,17.67 20.19,17.67 a 52.11,52.11 0 0 0 11.89,-1.68 V 95 a 24.84,24.84 0 0 1 -7.68,1.16 c -5.37,0 -7.36,-1.68 -7.36,-6.73 V 68.3 h 15.56 V 54.1 h -15.56 v -18 l -17,3.68 V 54.1 h -11.29 v 14.2 h 11.25 z m -53,0.32 c 0,-3.68 3.69,-5.47 9.26,-5.47 a 43.12,43.12 0 0 1 10.1,1.26 v 7.15 a 21.51,21.51 0 0 1 -10.63,2.63 c -5.46,0 -8.73,-2.1 -8.73,-5.57 m 5.2,17.56 c 6,0 10.84,-1.26 15.36,-4.31 v 3.37 h 16.82 V 74.08 c 0,-13.56 -9.14,-21 -24.39,-21 -8.52,0 -16.94,2 -26,6.1 l 6.1,12.52 c 6.52,-2.74 12,-4.42 16.83,-4.42 7,0 10.62,2.73 10.62,8.31 v 2.73 a 49.53,49.53 0 0 0 -12.62,-1.58 c -14.31,0 -22.93,6 -22.93,16.73 0,9.78 7.78,17.24 20.19,17.24 m -92.44,-0.94 h 18.09 V 80.92 h 30.29 v 28.82 H 506 V 36.12 H 487.93 V 64.41 H 457.64 V 36.12 h -18.09 z m -68.86,-27.9 c 0,-8 6.31,-14.1 14.62,-14.1 A 17.22,17.22 0 0 1 397,72.09 V 91.54 A 16.36,16.36 0 0 1 385.24,96 c -8.2,0 -14.62,-6.1 -14.62,-14.09 m 26.61,27.87 h 16.83 V 32.44 l -17,3.68 v 20.93 a 28.3,28.3 0 0 0 -14.2,-3.68 c -16.19,0 -28.92,12.51 -28.92,28.5 a 28.25,28.25 0 0 0 28.4,28.6 25.12,25.12 0 0 0 14.93,-4.83 z M 320,67 c 5.36,0 9.88,3.47 11.67,8.83 h -23.2 C 310.15,70.3 314.36,67 320,67 m -28.67,15 c 0,16.2 13.25,28.82 30.28,28.82 9.36,0 16.2,-2.53 23.25,-8.42 l -11.26,-10 c -2.63,2.74 -6.52,4.21 -11.14,4.21 a 14.39,14.39 0 0 1 -13.68,-8.83 h 39.65 v -4.23 c 0,-17.67 -11.88,-30.39 -28.08,-30.39 a 28.57,28.57 0 0 0 -29,28.81 M 262,51.58 c 6,0 9.36,3.78 9.36,8.31 0,4.53 -3.36,8.31 -9.36,8.31 H 244.11 V 51.58 Z m -36,58.16 h 18.09 V 82.92 h 13.77 l 13.89,26.82 H 292 L 275.8,80.29 a 22.27,22.27 0 0 0 13.88,-20.72 c 0,-13.25 -10.41,-23.45 -26,-23.45 H 226 Z"
       id="path12" />
  </g>
  <metadata
     id="metadata832">
    <rdf:RDF>
      <cc:Work
         rdf:about="">
        <dc:title>RedHat-Logo-A-Color</dc:title>
      </cc:Work>
    </rdf:RDF>
  </metadata>
</svg>
