<?xml version="1.0" encoding="UTF-8" standalone="no"?>
<svg
   viewBox="0 0 120 60"
   fill="#ffffff"
   fill-rule="evenodd"
   stroke="#000000"
   stroke-linecap="round"
   stroke-linejoin="round"
   version="1.1"
   id="svg195"
   sodipodi:docname="ruby.svg"
   width="120"
   height="60"
   inkscape:version="1.1.1 (3bf5ae0d25, 2021-09-20)"
   xmlns:inkscape="http://www.inkscape.org/namespaces/inkscape"
   xmlns:sodipodi="http://sodipodi.sourceforge.net/DTD/sodipodi-0.dtd"
   xmlns:xlink="http://www.w3.org/1999/xlink"
   xmlns="http://www.w3.org/2000/svg"
   xmlns:svg="http://www.w3.org/2000/svg">
  <sodipodi:namedview
     id="namedview197"
     pagecolor="#ffffff"
     bordercolor="#666666"
     borderopacity="1.0"
     inkscape:pageshadow="2"
     inkscape:pageopacity="0.0"
     inkscape:pagecheckerboard="0"
     showgrid="false"
     inkscape:zoom="7.3472222"
     inkscape:cx="89.829868"
     inkscape:cy="21.028355"
     inkscape:window-width="1920"
     inkscape:window-height="951"
     inkscape:window-x="-8"
     inkscape:window-y="-8"
     inkscape:window-maximized="1"
     inkscape:current-layer="svg195" />
  <use
     xlink:href="#Q"
     x="0.5"
     y="0.5"
     id="use2"
     width="100%"
     height="100%"
     transform="matrix(0.81,0,0,0.81,1.91814,13.391343)" />
  <defs
     id="defs152">
    <linearGradient
       id="A"
       x1="0.84750003"
       y1="1.114"
       x2="0.58249998"
       y2="0.64579999">
      <stop
         offset="0%"
         stop-color="#fb7655"
         id="stop4" />
      <stop
         offset="0%"
         stop-color="#fb7655"
         id="stop6" />
      <stop
         offset="41%"
         stop-color="#e42b1e"
         id="stop8" />
      <stop
         offset="99%"
         stop-color="#900"
         id="stop10" />
    </linearGradient>
    <linearGradient
       id="B"
       x1="1.1667"
       y1="0.60909998"
       x2="0.0177"
       y2="0.19309999">
      <stop
         offset="0%"
         stop-color="#871101"
         id="stop13" />
      <stop
         offset="0%"
         stop-color="#871101"
         id="stop15" />
      <stop
         offset="99%"
         stop-color="#911209"
         id="stop17" />
    </linearGradient>
    <linearGradient
       id="C"
       x1="0.75769997"
       y1="2.1928"
       x2="0.38979998"
       y2="0.077699997">
      <stop
         offset="0%"
         stop-color="#871101"
         id="stop20" />
      <stop
         offset="0%"
         stop-color="#871101"
         id="stop22" />
      <stop
         offset="99%"
         stop-color="#911209"
         id="stop24" />
    </linearGradient>
    <linearGradient
       id="D"
       x1="0.50009996"
       y1="0.072499998"
       x2="0.66480005"
       y2="0.79150003">
      <stop
         offset="0%"
         stop-color="#fff"
         id="stop27" />
      <stop
         offset="0%"
         stop-color="#fff"
         id="stop29" />
      <stop
         offset="23%"
         stop-color="#e57252"
         id="stop31" />
      <stop
         offset="46%"
         stop-color="#de3b20"
         id="stop33" />
      <stop
         offset="99%"
         stop-color="#a60003"
         id="stop35" />
    </linearGradient>
    <linearGradient
       id="E"
       x1="0.46169999"
       y1="0.16350001"
       x2="0.4993"
       y2="0.83059996">
      <stop
         offset="0%"
         stop-color="#fff"
         id="stop38" />
      <stop
         offset="0%"
         stop-color="#fff"
         id="stop40" />
      <stop
         offset="23%"
         stop-color="#e4714e"
         id="stop42" />
      <stop
         offset="56%"
         stop-color="#be1a0d"
         id="stop44" />
      <stop
         offset="99%"
         stop-color="#a80d00"
         id="stop46" />
    </linearGradient>
    <linearGradient
       id="F"
       x1="0.36970001"
       y1="0.15609999"
       x2="0.49529999"
       y2="0.92480004">
      <stop
         offset="0%"
         stop-color="#fff"
         id="stop49" />
      <stop
         offset="0%"
         stop-color="#fff"
         id="stop51" />
      <stop
         offset="18%"
         stop-color="#e46342"
         id="stop53" />
      <stop
         offset="40%"
         stop-color="#c82410"
         id="stop55" />
      <stop
         offset="99%"
         stop-color="#a80d00"
         id="stop57" />
    </linearGradient>
    <linearGradient
       id="G"
       x1="0.13590001"
       y1="0.58349997"
       x2="0.85760003"
       y2="-0.46720001">
      <stop
         offset="0%"
         stop-color="#fff"
         id="stop60" />
      <stop
         offset="0%"
         stop-color="#fff"
         id="stop62" />
      <stop
         offset="54%"
         stop-color="#c81f11"
         id="stop64" />
      <stop
         offset="99%"
         stop-color="#bf0905"
         id="stop66" />
    </linearGradient>
    <linearGradient
       id="H"
       x1="0.2762"
       y1="0.21129999"
       x2="0.50740004"
       y2="0.79040003">
      <stop
         offset="0%"
         stop-color="#fff"
         id="stop69" />
      <stop
         offset="0%"
         stop-color="#fff"
         id="stop71" />
      <stop
         offset="31%"
         stop-color="#de4024"
         id="stop73" />
      <stop
         offset="99%"
         stop-color="#bf190b"
         id="stop75" />
    </linearGradient>
    <linearGradient
       id="I"
       x1="-0.2068"
       y1="1.2228"
       x2="1.0424"
       y2="-0.0634">
      <stop
         offset="0%"
         stop-color="#bd0012"
         id="stop78" />
      <stop
         offset="0%"
         stop-color="#bd0012"
         id="stop80" />
      <stop
         offset="7%"
         stop-color="#fff"
         id="stop82" />
      <stop
         offset="17%"
         stop-color="#fff"
         id="stop84" />
      <stop
         offset="27%"
         stop-color="#c82f1c"
         id="stop86" />
      <stop
         offset="33%"
         stop-color="#820c01"
         id="stop88" />
      <stop
         offset="46%"
         stop-color="#a31601"
         id="stop90" />
      <stop
         offset="72%"
         stop-color="#b31301"
         id="stop92" />
      <stop
         offset="99%"
         stop-color="#e82609"
         id="stop94" />
    </linearGradient>
    <linearGradient
       id="J"
       x1="0.58789998"
       y1="0.65199995"
       x2="0.1196"
       y2="0.50130004">
      <stop
         offset="0%"
         stop-color="#8c0c01"
         id="stop97" />
      <stop
         offset="0%"
         stop-color="#8c0c01"
         id="stop99" />
      <stop
         offset="54%"
         stop-color="#990c00"
         id="stop101" />
      <stop
         offset="99%"
         stop-color="#a80d0e"
         id="stop103" />
    </linearGradient>
    <linearGradient
       id="K"
       x1="0.7931"
       y1="0.6275"
       x2="0.2309"
       y2="0.17889999">
      <stop
         offset="0%"
         stop-color="#7e110b"
         id="stop106" />
      <stop
         offset="0%"
         stop-color="#7e110b"
         id="stop108" />
      <stop
         offset="99%"
         stop-color="#9e0c00"
         id="stop110" />
    </linearGradient>
    <linearGradient
       id="L"
       x1="0.92879999"
       y1="0.74110001"
       x2="0.5984"
       y2="0.3969">
      <stop
         offset="0%"
         stop-color="#79130d"
         id="stop113" />
      <stop
         offset="0%"
         stop-color="#79130d"
         id="stop115" />
      <stop
         offset="99%"
         stop-color="#9e120b"
         id="stop117" />
    </linearGradient>
    <radialGradient
       id="M"
       cx="0.31999999"
       cy="0.40000001"
       r="0.91000003"
       fx="0.31999999"
       fy="0.40000001">
      <stop
         offset="0%"
         stop-color="#a80d00"
         id="stop120" />
      <stop
         offset="0%"
         stop-color="#a80d00"
         id="stop122" />
      <stop
         offset="99%"
         stop-color="#7e0e08"
         id="stop124" />
    </radialGradient>
    <radialGradient
       id="N"
       cx="0.14"
       cy="0.41"
       r="0.99000001"
       fx="0.14"
       fy="0.41">
      <stop
         offset="0%"
         stop-color="#a30c00"
         id="stop127" />
      <stop
         offset="0%"
         stop-color="#a30c00"
         id="stop129" />
      <stop
         offset="99%"
         stop-color="#800e08"
         id="stop131" />
    </radialGradient>
    <linearGradient
       id="O"
       x1="0.56569999"
       y1="1.017"
       x2="0.031099999"
       y2="0.11979999">
      <stop
         offset="0%"
         stop-color="#8b2114"
         id="stop134" />
      <stop
         offset="0%"
         stop-color="#8b2114"
         id="stop136" />
      <stop
         offset="43%"
         stop-color="#9e100a"
         id="stop138" />
      <stop
         offset="99%"
         stop-color="#b3100c"
         id="stop140" />
    </linearGradient>
    <linearGradient
       id="P"
       x1="0.3087"
       y1="0.35639998"
       x2="0.9249"
       y2="1.0073">
      <stop
         offset="0%"
         stop-color="#b31000"
         id="stop143" />
      <stop
         offset="0%"
         stop-color="#b31000"
         id="stop145" />
      <stop
         offset="44%"
         stop-color="#910f08"
         id="stop147" />
      <stop
         offset="99%"
         stop-color="#791c12"
         id="stop149" />
    </linearGradient>
  </defs>
  <symbol
     id="Q"
     overflow="visible">
    <g
       stroke="none"
       id="g192">
      <path
         d="M 34.831,7.023 26.985,22.924 7.099,34.734 32.848,32.986 Z"
         fill="url(#A)"
         id="path154" />
      <path
         d="m 24.647,25.655 8.241,7.313 -2.215,-15.277 z"
         fill="url(#B)"
         id="path156" />
      <path
         d="M 7.185,34.702 32.922,32.97 16.708,31.697 Z"
         fill="url(#C)"
         id="path158" />
      <path
         d="m 2.345,23.34 4.863,11.362 4.05,-13.269 z"
         fill="url(#D)"
         id="path160" />
      <path
         d="M 10.254,21.096 24.647,25.697 20.92,11.1 Z"
         fill="url(#E)"
         id="path162" />
      <path
         d="M 21.096,12.147 33.986,11.303 23.904,3.069 Z"
         fill="url(#F)"
         id="path164" />
      <path
         d="M 19.601,0.091 29.27,0.135 23.34,3.412 Z"
         fill="url(#G)"
         id="path166" />
      <path
         d="M 0.475,17.865 0,27.794 2.484,23.264 Z"
         fill="url(#H)"
         id="path168" />
      <path
         d="m 0.342,17.694 2.022,5.735 8.785,-1.969 10.029,-9.321 2.83,-8.99 L 19.549,0 11.972,2.836 4.785,9.534 C 4.62,9.618 1.726,15.089 0.337,17.696 Z"
         id="path170" />
      <path
         d="m 7.44,7.392 c 5.174,-5.13 11.843,-8.161 14.403,-5.578 2.56,2.583 -0.155,8.86 -5.327,13.987 C 11.344,20.928 4.755,24.127 2.197,21.544 -0.361,18.961 2.267,12.52 7.441,7.392 Z"
         fill="url(#I)"
         id="path172" />
      <path
         d="m 7.208,34.699 4.019,-13.311 13.347,4.29 C 19.748,30.203 14.381,34.027 7.209,34.7 Z"
         fill="url(#J)"
         id="path174" />
      <path
         d="m 21.194,12.112 3.428,13.572 c 4.033,-4.237 7.647,-8.795 9.421,-14.433 l -12.847,0.861 z"
         fill="url(#K)"
         id="path176" />
      <path
         d="M 34.007,11.321 C 35.378,7.183 35.694,1.248 29.229,0.144 l -5.306,2.932 z"
         fill="url(#L)"
         id="path178" />
      <path
         d="m 0,27.732 c 0.19,6.83 5.116,6.932 7.217,6.991 L 2.368,23.399 Z"
         fill="#9e1209"
         id="path180" />
      <path
         d="m 21.214,12.13 9.467,5.801 c 0.197,0.111 2.69,-4.207 3.258,-6.645 L 21.215,12.13 Z"
         fill="url(#M)"
         id="path182" />
      <path
         d="m 11.221,21.388 5.372,10.365 c 3.177,-1.723 5.664,-3.822 7.942,-6.07 L 11.22,21.388 Z"
         fill="url(#N)"
         id="path184" />
      <path
         d="M 2.347,23.416 1.586,32.48 c 1.436,1.962 3.411,2.132 5.485,1.98 C 5.571,30.728 2.576,23.265 2.347,23.416 Z"
         fill="url(#O)"
         id="path186" />
      <path
         d="M 23.891,3.094 34.562,4.592 C 33.992,2.18 32.241,0.619 29.262,0.134 Z"
         fill="url(#P)"
         id="path188" />
      <path
         d="M 75.737,31.1 H 68.07 l -4.616,-6.904 -4.456,-6 h -2.9 v 9.032 c 0,0.468 0.074,0.883 0.22,1.244 0.147,0.348 0.462,0.615 0.943,0.803 0.24,0.094 0.662,0.18 1.264,0.26 l 1.525,0.14 V 31.1 H 48 v -1.425 l 1.385,-0.14 c 0.615,-0.067 1.044,-0.154 1.284,-0.26 0.4,-0.174 0.7,-0.428 0.863,-0.763 0.187,-0.334 0.28,-0.763 0.28,-1.284 V 6.623 c 0,-0.468 -0.067,-0.883 -0.2,-1.244 C 51.479,5.018 51.164,4.743 50.669,4.556 A 8.07,8.07 0 0 0 49.364,4.235 11.23,11.23 0 0 0 48,4.034 V 2.6 h 13.146 c 1.204,0 2.335,0.127 3.392,0.38 1.057,0.24 2.014,0.636 2.87,1.184 a 6,6 0 0 1 1.987,2.107 c 0.495,0.856 0.743,1.893 0.743,3.1 0,1.097 -0.167,2.067 -0.502,2.9 a 6.1,6.1 0 0 1 -1.485,2.188 c -0.602,0.575 -1.325,1.077 -2.168,1.505 -0.843,0.415 -1.773,0.77 -2.8,1.064 l 3.492,4.696 3.432,4.636 c 0.6,0.803 1.117,1.398 1.586,1.786 0.445,0.351 0.922,0.66 1.425,0.923 0.348,0.174 0.783,0.308 1.305,0.4 0.522,0.092 0.957,0.147 1.305,0.16 v 1.425 M 65.18,9.854 c 0,-1.726 -0.495,-3.1 -1.485,-4.094 -1,-1.017 -2.388,-1.525 -4.195,-1.525 H 56.088 V 16.46 h 2.63 c 1.846,0 3.385,-0.6 4.616,-1.766 1.23,-1.2 1.846,-2.803 1.846,-4.837 m 32.333,20.872 -6.443,0.442 -0.3,-0.28 v -2.5 h -0.12 l -1.084,1.084 c -0.4,0.375 -0.863,0.716 -1.385,1.024 -0.602,0.36 -1.184,0.636 -1.746,0.823 -0.562,0.187 -1.358,0.28 -2.388,0.28 -1.753,0 -3.1,-0.57 -4.014,-1.706 -0.9,-1.15 -1.365,-2.817 -1.365,-4.997 v -9.473 c 0,-0.482 -0.094,-0.883 -0.28,-1.204 -0.174,-0.334 -0.435,-0.622 -0.783,-0.863 -0.24,-0.16 -0.542,-0.274 -0.903,-0.34 -0.36,-0.08 -0.743,-0.134 -1.144,-0.16 v -1.32 l 6.603,-0.482 0.3,0.28 v 13.748 c 0,1.432 0.32,2.5 0.963,3.23 0.643,0.73 1.412,1.084 2.308,1.084 0.736,0 1.392,-0.114 1.967,-0.34 0.575,-0.226 1.057,-0.495 1.445,-0.803 0.36,-0.28 0.676,-0.575 0.943,-0.883 0.245,-0.271 0.46,-0.567 0.642,-0.883 V 15.27 c 0,-0.442 -0.094,-0.83 -0.28,-1.164 a 2.59,2.59 0 0 0 -0.783,-0.883 c -0.24,-0.16 -0.602,-0.254 -1.084,-0.28 l -1.586,-0.1 V 11.54 l 7.185,-0.482 0.3,0.28 v 15.715 c 0,0.455 0.094,0.843 0.28,1.164 a 2.53,2.53 0 0 0 0.783,0.823 c 0.24,0.147 0.528,0.248 0.863,0.3 l 1.104,0.08 v 1.305 m 22.56,-9.55 c 0,2.97 -0.937,5.466 -2.8,7.486 -1.863,2.02 -4.047,3.03 -6.523,3.03 -1.084,0 -2.154,-0.167 -3.2,-0.502 a 13.65,13.65 0 0 1 -2.95,-1.345 l -1.485,2.308 -1.244,-0.28 0.14,-3.572 0.04,-4.034 V 4.677 a 3.18,3.18 0 0 0 -0.321,-1.365 c -0.2,-0.455 -0.462,-0.783 -0.783,-0.983 -0.254,-0.174 -0.682,-0.3 -1.284,-0.38 L 98.236,1.769 V 0.485 l 7.265,-0.462 0.28,0.3 V 13.37 l 0.14,0.04 c 0.83,-0.883 1.733,-1.545 2.7,-1.987 1,-0.442 1.96,-0.662 2.9,-0.662 2.435,0 4.47,0.963 6.1,2.9 1.63,1.937 2.45,4.436 2.45,7.526 m -4.195,0.14 c -0.003,-1.019 -0.111,-2.034 -0.321,-3.031 -0.214,-1.03 -0.55,-1.927 -1.004,-2.7 -0.454,-0.773 -1.05,-1.405 -1.786,-1.887 -0.736,-0.482 -1.62,-0.723 -2.65,-0.723 -0.937,0 -1.76,0.187 -2.47,0.562 a 6.61,6.61 0 0 0 -1.887,1.485 v 11.52 c 0.08,0.32 0.234,0.696 0.462,1.124 a 5.38,5.38 0 0 0 0.963,1.224 5.33,5.33 0 0 0 1.365,0.923 c 0.508,0.227 1.13,0.34 1.867,0.34 1.632,0 2.95,-0.8 3.954,-2.368 1.004,-1.568 1.505,-3.74 1.505,-6.483 m 5.642,16.228 c 0,-0.67 0.18,-1.218 0.542,-1.646 a 1.79,1.79 0 0 1 1.385,-0.622 c 0.428,0 0.796,0.08 1.104,0.24 0.308,0.16 0.582,0.368 0.823,0.622 0.2,0.2 0.415,0.475 0.642,0.823 l 0.542,0.863 c 0.67,-0.36 1.465,-1.305 2.388,-2.83 0.937,-1.525 1.612,-2.863 2.027,-4.014 l -3.452,-8.5 -3.23,-7.767 a 2.83,2.83 0 0 0 -1.284,-1.425 c -0.602,-0.348 -1.204,-0.57 -1.806,-0.662 V 11.3 h 9.032 v 1.405 c -0.4,0.013 -0.883,0.1 -1.445,0.26 -0.562,0.147 -0.843,0.355 -0.843,0.622 l 0.1,0.301 0.2,0.582 4.759,11.73 1.867,-4.436 2.188,-5.44 0.4,-1.044 c 0.174,-0.455 0.26,-0.843 0.26,-1.164 0,-0.348 -0.308,-0.67 -0.923,-0.963 -0.602,-0.308 -1.177,-0.495 -1.726,-0.562 V 11.3 h 7.346 v 1.244 c -0.4,0.067 -0.93,0.3 -1.586,0.702 -0.656,0.388 -1.144,0.943 -1.465,1.666 l -4.255,10.095 -2.8,6.703 c -0.843,1.873 -1.6,3.332 -2.268,4.375 -0.656,1.057 -1.298,1.887 -1.927,2.5 -0.615,0.562 -1.177,0.937 -1.686,1.124 a 4.05,4.05 0 0 1 -1.545,0.3 c -1.044,0 -1.867,-0.248 -2.47,-0.743 -0.603,-0.495 -0.883,-1.064 -0.883,-1.706"
         fill="#000000"
         fill-rule="nonzero"
         id="path190" />
    </g>
  </symbol>
</svg>
