<?xml version="1.0" encoding="utf-8"?>
<!-- Generator: Adobe Illustrator 26.0.2, SVG Export Plug-In . SVG Version: 6.00 Build 0)  -->
<svg version="1.1" id="Layer_1" xmlns="http://www.w3.org/2000/svg" xmlns:xlink="http://www.w3.org/1999/xlink" x="0px" y="0px"
	 viewBox="0 0 250 184" style="enable-background:new 0 0 250 184;" xml:space="preserve">
<style type="text/css">
	.st0{fill:#FFFFFF;fill-opacity:0;}
	.st1{fill:#7E34C2;}
	.st2{fill:#4887DA;}
	.st3{fill:url(#SVGID_1_);}
	.st4{fill:url(#SVGID_00000126284544633330422820000002338076463685190821_);}
</style>
<desc>Created with Fabric.js 4.4.0</desc>
<g id="background-logo" transform="matrix(1 0 0 1 640 512)">
	<rect x="-640" y="-516" class="st0" width="250" height="200"/>
</g>
<g id="text-logo-path-group" transform="matrix(1.9211538461538462 0 0 1.9211538461538462 635.0871293269231 746.0608778358182)">
	<g>
		<g id="text-logo-path-0" transform="matrix(1 0 0 1 0 0)">
			<path class="st1" d="M-271.7-319.1h-2.7l-0.7,1.5l-0.7-1.5h-2.7l2,4.4l-2.1,4.6h2.7L-271.7-319.1L-271.7-319.1z M-264-317.6
				c0-0.8-0.7-1.5-1.5-1.5h-0.9v5.4l-1.8,0.4l0,0v-5.8h-0.9c-0.8,0-1.5,0.7-1.5,1.5v7.6h6.7L-264-317.6L-264-317.6z M-253.6-317.6
				c0-0.8-0.7-1.5-1.5-1.5h-2.1c-0.7,0-1.2,0.5-1.2,1.2c0-0.7-0.5-1.2-1.2-1.2h-3.5v9.1h2.4v-5.1l1.1-0.3v5.3h2.4v-5.9l1.1-0.3v6.2
				h2.4L-253.6-317.6L-253.6-317.6z"/>
		</g>
	</g>
</g>
<g id="tagline-3d60614f-a6c8-46fd-b301-f80b3dc18669-logo-path-group" transform="matrix(1.9211538461538462 0 0 1.9211538461538462 636.839701923077 843.2910474819985)">
	<g>
		<g id="tagline-3d60614f-a6c8-46fd-b301-f80b3dc18669-logo-path-0" transform="matrix(1 0 0 1 0 0)">
			<path class="st2" d="M-283.8-355.9L-283.8-355.9l-1.2,0.2v-1h1.2L-283.8-355.9L-283.8-355.9z M-283.2-358.3h-2.4
				c-0.5,0-1,0.4-1,1v5h1.6v-1.8l1.2-0.2l0,0l0.1,0l1.5-0.3v-2.7C-282.2-357.9-282.7-358.3-283.2-358.3L-283.2-358.3z M-278.8-355.9
				L-278.8-355.9l-1.2,0.2v-1h1.2L-278.8-355.9L-278.8-355.9z M-278.2-358.3h-2.4c-0.5,0-1,0.4-1,1v5h1.6v-1.8l1.2-0.2l0,0v2h1.6v-5
				C-277.2-357.9-277.6-358.3-278.2-358.3L-278.2-358.3z M-272.1-357.3c0-0.5-0.4-1-1-1h-2.4c-0.5,0-1,0.4-1,1v5h4.4v-2.6l-1.6,0.3
				v0.7h-1.2v-2.8h1.2v0.5l1.6-0.3L-272.1-357.3L-272.1-357.3z M-267.1-356l-1.7,0.3l1.7-2.6h-1.9l-0.9,1.3v-1.3h-0.6
				c-0.5,0-1,0.4-1,1v5h1.6v-1.5l1.2-0.2v1.8h1.6L-267.1-356L-267.1-356z M-263.6-355.9L-263.6-355.9l-1.2,0.2v-1h1.2L-263.6-355.9
				L-263.6-355.9z M-263-358.3h-2.4c-0.5,0-1,0.4-1,1v5h1.6v-1.8l1.2-0.2l0,0v2h1.6v-5C-262-357.9-262.5-358.3-263-358.3L-263-358.3
				z M-259.8-356.7h2.8v-0.6c0-0.5-0.4-1-1-1h-2.4c-0.5,0-1,0.4-1,1v5h4.4v-3.9l-2.5,0.4v1.5l0.9-0.2v0.6h-1.2L-259.8-356.7
				L-259.8-356.7z M-254.7-356.7h2.8v-0.6c0-0.5-0.4-1-1-1h-2.4c-0.5,0-1,0.4-1,1v5h4.4v-1.6h-2.8v-0.5l1.8-0.3v-1.6l-1.8,0.3
				L-254.7-356.7L-254.7-356.7z M-248.4-356.6L-248.4-356.6l0,0.6l0,0l0,0l-1.2,0.2v-1h1.2V-356.6z M-246.8-355.9L-246.8-355.9v-0.6
				l0,0v-0.7c0-0.5-0.4-1-1-1h-2.4c-0.5,0-1,0.4-1,1v5h1.6v-1.8l1.2-0.2l0,0l0,0v2h1.6v-2.3v0c0-0.4-0.3-0.7-0.7-0.7
				c0,0-0.1,0-0.1,0l0.2,0C-247.1-355.3-246.9-355.6-246.8-355.9L-246.8-355.9z"/>
		</g>
	</g>
</g>
<g id="logo-logo" transform="matrix(1.8703645573794672 0 0 1.8703645573794672 640 390.897029721727)">
	<g>
		<g transform="matrix(2.21249120727614 0 0 -2.21249120727614 -43.12106825513189 -12.999999999999972)">
			
				<linearGradient id="SVGID_1_" gradientUnits="userSpaceOnUse" x1="-334.2929" y1="-67.3762" x2="-333.2929" y2="-67.3762" gradientTransform="matrix(27.2779 -66.8815 -66.8815 -27.2779 4502.1401 -24114.0449)">
				<stop  offset="0" style="stop-color:#2491EB"/>
				<stop  offset="1" style="stop-color:#073660"/>
			</linearGradient>
			<path class="st3" d="M-114.2,80.3l6.5-16.2l4.5,11.1c-1.2,3.1-4.2,5.1-7.5,5.1l0,0H-114.2z"/>
		</g>
		<g transform="matrix(2.21249120727614 0 0 -2.21249120727614 21.87893174486811 2.842171e-14)">
			
				<linearGradient id="SVGID_00000157275898151672584910000010600950725728928151_" gradientUnits="userSpaceOnUse" x1="-365.8693" y1="-61.6622" x2="-364.8693" y2="-61.6622" gradientTransform="matrix(-38.9756 -95.8387 -95.8387 38.9756 -20297.1992 -32575.0195)">
				<stop  offset="0" style="stop-color:#02F4FA"/>
				<stop  offset="1" style="stop-color:#9A0AB6"/>
			</linearGradient>
			<path style="fill:url(#SVGID_00000157275898151672584910000010600950725728928151_);" d="M-135.3,75.8l-4.5-11.2l0,0h7l1,2.5
				l6.3,15.8c1.2,3.1-1,6.5-4.4,6.5l0,0L-135.3,75.8z"/>
		</g>
	</g>
</g>
</svg>
