<svg width="120" height="24" fill="none" xmlns="http://www.w3.org/2000/svg"><path d="m59.822 12.146-.004.003c-.76.507-1.326.507-1.802.507h-.036a2.951 2.951 0 0 1-2.95-2.95 2.942 2.942 0 0 1 2.95-2.948c1.442 0 2.948 1.039 2.948 2.949 0 .088-.072.173-.187.173h-5.445l.233.665a2.595 2.595 0 0 0 2.45 1.75c.365 0 1.038-.034 1.81-.533l.002-.001a.02.02 0 0 1 .013-.004c.007 0 .023 0 .046.01.051.019.1.062.126.111a.112.112 0 0 1 0 .098.395.395 0 0 1-.154.17Zm.15-2.626h.672l-.193-.644c-.368-1.226-1.487-1.758-2.471-1.758a2.6 2.6 0 0 0-2.45 1.734l-.238.668h4.679ZM65.327 9.401l-.236.306.236.305 1.814 2.35c.069.089.042.191-.022.238l-.007.005-.006.005c-.052.04-.084.046-.105.046a.197.197 0 0 1-.148-.076l-1.6-2.066-.396-.51-.395.51-1.601 2.066a.197.197 0 0 1-.147.076c-.021 0-.053-.006-.106-.046l-.006-.005-.007-.005c-.064-.047-.09-.149-.022-.238l1.814-2.35.236-.305-.236-.306-1.814-2.35a.182.182 0 0 1 .034-.26l.009-.007c.06-.05.168-.05.238.04v.001L64.462 8.9l.395.51.395-.51 1.608-2.075c.07-.09.177-.09.238-.041l.009.007a.182.182 0 0 1 .034.26l-1.814 2.35ZM70.974 6.272v.5h1.475c.116 0 .187.085.187.173a.189.189 0 0 1-.187.187h-1.475v5.35a.189.189 0 0 1-.187.187.163.163 0 0 1-.118-.053.193.193 0 0 1-.055-.134v-5.35h-1.49a.164.164 0 0 1-.117-.053.193.193 0 0 1-.056-.134c0-.095.078-.173.173-.173h1.49V3.524c0-.095.078-.174.173-.174.115 0 .187.085.187.174v2.748ZM73.52 9.72a2.951 2.951 0 0 1 2.95-2.948c.114 0 .186.085.186.173a.189.189 0 0 1-.187.187 2.588 2.588 0 0 0-2.588 2.589v2.761c0 .049-.02.097-.056.134a.163.163 0 0 1-.118.053.189.189 0 0 1-.187-.187V9.721ZM82.346 12.146l-.005.003c-.76.507-1.326.507-1.802.507h-.037a2.951 2.951 0 0 1-2.948-2.95 2.942 2.942 0 0 1 2.948-2.948c1.444 0 2.95 1.039 2.95 2.949 0 .088-.072.173-.188.173H77.82l.233.665a2.594 2.594 0 0 0 2.45 1.75c.365 0 1.038-.034 1.81-.533l.003-.001a.02.02 0 0 1 .012-.004c.007 0 .023 0 .046.01.051.019.1.062.126.111a.112.112 0 0 1 0 .098.395.395 0 0 1-.153.17Zm.149-2.626h.672l-.193-.644c-.368-1.226-1.487-1.758-2.472-1.758a2.6 2.6 0 0 0-2.45 1.734l-.237.668h4.679ZM89.186 7.56l.379.44.379-.44a2.219 2.219 0 0 1 1.696-.775 2.26 2.26 0 0 1 2.256 2.087l-.126.126.132.244v3.254a.189.189 0 0 1-.187.187c-.089 0-.174-.072-.174-.187V9.034a1.896 1.896 0 0 0-1.901-1.888c-1.04 0-1.902.835-1.902 1.887v3.463c0 .115-.085.187-.173.187a.189.189 0 0 1-.187-.187V9.033a1.884 1.884 0 0 0-1.888-1.887c-1.039 0-1.901.835-1.901 1.887v3.463c0 .115-.085.187-.174.187a.18.18 0 0 1-.187-.187V9.033a2.26 2.26 0 0 1 2.262-2.248c.676 0 1.28.292 1.696.775ZM100.443 12.146l-.005.003c-.76.507-1.325.507-1.802.507H98.6a2.951 2.951 0 0 1-2.949-2.95A2.942 2.942 0 0 1 98.6 6.759c1.443 0 2.949 1.039 2.949 2.949 0 .088-.072.173-.187.173h-5.445l.232.665a2.595 2.595 0 0 0 2.451 1.75c.365 0 1.038-.034 1.81-.533l.002-.001a.02.02 0 0 1 .012-.004c.007 0 .023 0 .047.01.05.019.1.062.126.111a.113.113 0 0 1 0 .098.395.395 0 0 1-.154.17Zm.603-.488c-.165-.33-.591-.522-.907-.316l.907.316Zm-.454-2.138h.672l-.193-.644c-.368-1.226-1.486-1.758-2.471-1.758a2.6 2.6 0 0 0-2.45 1.734l-.237.668h4.679ZM60.552 21.02v-1.07l-.821.687c-.484.405-1.023.57-1.713.57-1.68 0-2.976-1.236-2.976-2.88a2.954 2.954 0 0 1 2.976-2.976c1.643 0 2.88 1.297 2.88 2.976v2.694c0 .075-.025.117-.047.139-.022.022-.062.046-.133.048a.287.287 0 0 1-.098-.06c-.053-.05-.068-.096-.068-.127Zm-5.164-2.692c0 1.46 1.23 2.533 2.63 2.533 1.43 0 2.534-1.103 2.534-2.534 0-1.4-1.074-2.63-2.534-2.63-1.43 0-2.63 1.2-2.63 2.63ZM66.838 15.51c0-.088.072-.172.188-.172.094 0 .173.078.173.173v3.461a2.283 2.283 0 0 1-4.565 0V15.51c0-.094.078-.172.173-.172.115 0 .187.085.187.173v3.435c0 1.053.85 1.929 1.915 1.929a1.928 1.928 0 0 0 1.93-1.93v-3.434Z" fill="#E46977" stroke="#FFFBFB"/><path d="M70.999 14.837v.5h1.475c.115 0 .187.085.187.174a.19.19 0 0 1-.187.187H71v5.35a.189.189 0 0 1-.187.187.164.164 0 0 1-.118-.053.194.194 0 0 1-.056-.134v-5.35H69.15a.164.164 0 0 1-.117-.053.194.194 0 0 1-.056-.134c0-.095.078-.174.173-.174h1.49V12.09c0-.095.078-.173.173-.173.115 0 .187.085.187.173v2.748ZM79.47 18.273a2.951 2.951 0 0 1-2.948 2.948 2.96 2.96 0 0 1-2.95-2.948 2.951 2.951 0 0 1 2.95-2.95 2.942 2.942 0 0 1 2.948 2.95Zm-.36 0a2.588 2.588 0 1 0-5.175-.002 2.588 2.588 0 0 0 5.175.002ZM85.15 16.125l.379.44.379-.44a2.219 2.219 0 0 1 1.696-.774 2.26 2.26 0 0 1 2.256 2.087l-.126.126.132.244v3.254a.189.189 0 0 1-.187.187c-.089 0-.174-.072-.174-.187V17.6a1.896 1.896 0 0 0-1.901-1.889c-1.04 0-1.902.836-1.902 1.888v3.463c0 .115-.085.187-.173.187a.189.189 0 0 1-.187-.187v-3.463a1.884 1.884 0 0 0-1.888-1.888c-1.039 0-1.901.836-1.901 1.888v3.463c0 .115-.085.187-.174.187a.18.18 0 0 1-.187-.187v-3.463a2.26 2.26 0 0 1 2.262-2.248c.676 0 1.28.292 1.696.774ZM97.139 21.02v-1.07l-.821.687c-.484.405-1.022.57-1.713.57-1.68 0-2.976-1.236-2.976-2.88a2.954 2.954 0 0 1 2.976-2.976c1.643 0 2.88 1.297 2.88 2.976v2.694c0 .075-.025.117-.047.139-.022.022-.062.046-.133.048a.287.287 0 0 1-.098-.06c-.053-.05-.068-.096-.068-.127Zm-5.163-2.692c0 1.46 1.23 2.533 2.63 2.533 1.43 0 2.533-1.103 2.533-2.534 0-1.4-1.074-2.63-2.534-2.63-1.43 0-2.63 1.2-2.63 2.63ZM100.433 14.837v.5h1.476c.115 0 .187.085.187.174a.19.19 0 0 1-.187.187h-1.476v5.35a.19.19 0 0 1-.187.187.162.162 0 0 1-.117-.053.194.194 0 0 1-.056-.134v-5.35h-1.49a.164.164 0 0 1-.117-.053.194.194 0 0 1-.056-.134c0-.095.079-.174.174-.174H100.073V12.09c0-.095.078-.173.173-.173.115 0 .187.085.187.173v2.748ZM104.187 12.663l.354-.354-.354.609a.188.188 0 0 1-.127.046.19.19 0 0 1-.128-.046l-.353.353.354-.353a.2.2 0 0 1-.06-.128c0-.032.019-.087.059-.127l-.353-.354.353.354a.206.206 0 0 1 .128-.06c.032 0 .087.02.127.06Zm.046 8.385c0 .115-.085.187-.173.187a.18.18 0 0 1-.187-.187v-5.537c0-.088.072-.173.187-.173.095 0 .173.078.173.173v5.537ZM111.853 18.273a2.95 2.95 0 0 1-2.949 2.948 2.96 2.96 0 0 1-2.949-2.948 2.951 2.951 0 0 1 2.949-2.95 2.942 2.942 0 0 1 2.949 2.95Zm-.36 0a2.588 2.588 0 1 0-2.589 2.588 2.597 2.597 0 0 0 2.589-2.588ZM113.602 18.273a2.951 2.951 0 0 1 2.949-2.95 2.951 2.951 0 0 1 2.949 2.95v2.761a.18.18 0 0 1-.187.187c-.088 0-.173-.072-.173-.187v-2.761a2.588 2.588 0 1 0-5.177 0v2.761a.18.18 0 0 1-.187.187c-.089 0-.174-.072-.174-.187v-2.761Z" fill="#E46977" stroke="#FFFBFB"/><g opacity=".998" fill="#E46977" stroke="#FFFBFB"><path opacity=".998" d="m18.155 20.375-.004.002c-2.701 1.801-4.777 1.8-6.358 1.799h-.106c-5.808 0-10.489-4.722-10.489-10.488C1.198 5.879 5.878 1.2 11.687 1.2c5.077 0 10.487 3.682 10.487 10.488 0 .9-.732 1.645-1.688 1.645H4.678l.233.665c.986 2.817 3.619 4.844 6.776 4.844 1.055 0 2.96-.095 5.174-1.525h.002c.345-.226.763-.246 1.174-.09.414.159.787.488.993.897.374.785.007 1.676-.875 2.25Zm-.12-10.376h.671l-.193-.644c-.998-3.328-4.04-4.821-6.827-4.821-3.154 0-5.788 2.025-6.774 4.797L4.674 10h13.36Z"/><path opacity=".998" d="m5.196 9.433-.094.264H18.3l-.076-.255-13.028-.01Zm0 0c.948-2.662 3.48-4.6 6.49-4.6m-6.49 4.6 6.49-4.6m0 0c2.71 0 5.602 1.488 6.538 4.608l-6.539-4.607Zm6.855 16.123-.044.029-.005.005c-2.853 1.885-5.184 1.885-6.757 1.885h-.05C5.5 22.875.5 17.834.5 11.689.5 5.505 5.502.5 11.685.5c2.702 0 5.487.98 7.613 2.871 2.118 1.884 3.577 4.71 3.577 8.318 0 1.278-1.067 2.341-2.39 2.341H5.854l.438.752c1.101 1.887 2.952 3.361 5.392 3.361 1.015 0 2.723-.075 4.795-1.411l.002-.002c.549-.358 1.225-.374 1.804-.153.55.21 1.024.612 1.319 1.14v.092l.088.086c.245.564.226 1.176.018 1.694-.22.548-.635 1.018-1.17 1.367ZM11.685.898h-.227L11.456.9A10.754 10.754 0 0 0 .898 11.69c0 5.938 4.803 10.787 10.787 10.787h.17c.77.001 1.666.003 2.689-.206 1.074-.219 2.273-.665 3.645-1.559h.061l.116-.115c.449-.305.8-.718.978-1.159a1.701 1.701 0 0 0-.046-1.446l-.005-.011a2.23 2.23 0 0 0-1.15-1.036c-.43-.164-.883-.18-1.305.038h-.018l-.124.08c-2.13 1.375-4.013 1.478-5.01 1.478-3.01 0-5.543-1.938-6.489-4.642l-.092-.262h15.38c1.128 0 1.992-.861 1.992-1.948 0-3.526-1.39-6.196-3.442-8.022-2.043-1.818-4.755-2.77-7.35-2.77Zm5.01 8.401h.85l-.413-.743c-1.17-2.107-3.232-3.325-5.447-3.325-2.43 0-4.27 1.467-5.373 3.311L5.86 9.3H16.695Z"/></g><path opacity=".998" d="M43.4 20.443v-1.07l-.822.687c-1.775 1.486-3.756 2.072-6.158 2.072-5.915 0-10.575-4.391-10.575-10.27 0-5.896 4.679-10.575 10.575-10.575 5.878 0 10.27 4.66 10.27 10.576v8.58c0 .993-.696 1.689-1.69 1.689-.281 0-.69-.16-1.037-.484-.339-.316-.564-.738-.564-1.205Zm-14.265-8.58c0 3.983 3.362 6.979 7.285 6.979 3.954 0 6.98-3.026 6.98-6.98 0-3.922-2.997-7.285-6.98-7.285-3.953 0-7.285 3.332-7.285 7.286Z" fill="#E46977" stroke="#FFFBFB"/><path opacity=".998" d="m43.085 21.18-.244-.564-.503.354c-1.76 1.24-3.7 1.86-5.917 1.86-6.262 0-11.276-4.72-11.276-10.967C25.145 5.597 30.155.59 36.42.59c6.248 0 10.966 5.01 10.966 11.272v8.58a2.37 2.37 0 0 1-2.386 2.386c-.526 0-1.053-.238-1.514-.67-.054-.05-.109-.141-.175-.328l-.055-.166a5.672 5.672 0 0 0-.172-.485Zm-.311-.89.325-.272v.425c0 .579.28 1.071.658 1.425.198.185.424.322.63.414.194.086.418.154.614.154.567 0 1.078-.173 1.448-.544.37-.372.54-.883.54-1.449v-8.58C46.99 5.78 42.52.984 36.422.984c-6.08 0-10.879 4.8-10.879 10.879 0 6.097 4.796 10.573 10.879 10.573 2.474 0 4.491-.587 6.353-2.146Zm-13.337-8.427c0-3.795 3.19-6.984 6.984-6.984 3.766 0 6.678 3.198 6.678 6.984 0 3.755-2.923 6.678-6.678 6.678-3.785 0-6.984-2.912-6.984-6.678Zm13.264 0c0-3.567-2.69-6.586-6.28-6.586-3.56 0-6.586 3.026-6.586 6.586 0 3.59 3.019 6.28 6.586 6.28 3.598 0 6.28-2.682 6.28-6.28Z" fill="#E46977" stroke="#FFFBFB"/></svg>