<svg xmlns="http://www.w3.org/2000/svg" xmlns:xlink="http://www.w3.org/1999/xlink" version="1.1" x="0px" y="0px" viewBox="0 0 100 100" enable-background="new 0 0 100 100" xml:space="preserve"><rect x="47.5" y="30" width="5" height="5"></rect><rect x="7.5" y="30" width="5" height="15"></rect><rect x="52.5" y="25" width="5" height="5"></rect><rect x="57.5" y="20" width="5" height="5"></rect><rect x="62.5" y="15" width="15" height="5"></rect><rect x="77.5" y="20" width="5" height="5"></rect><rect x="82.5" y="25" width="5" height="5"></rect><rect x="12.5" y="25" width="5" height="5"></rect><rect x="17.5" y="20" width="5" height="5"></rect><rect x="22.5" y="15" width="15" height="5"></rect><rect x="37.5" y="20" width="5" height="5"></rect><rect x="42.5" y="25" width="5" height="5"></rect><rect x="87.5" y="30" width="5" height="15"></rect><rect x="82.5" y="45" width="5" height="5"></rect><rect x="77.5" y="50" width="5" height="5"></rect><rect x="72.5" y="55" width="5" height="5"></rect><rect x="67.5" y="60" width="5" height="5"></rect><rect x="62.5" y="65" width="5" height="5"></rect><rect x="57.5" y="70" width="5" height="5"></rect><rect x="52.5" y="75" width="5" height="5"></rect><rect x="47.5" y="80" width="5" height="5"></rect><rect x="12.5" y="45" width="5" height="5"></rect><rect x="17.5" y="50" width="5" height="5"></rect><rect x="22.5" y="55" width="5" height="5"></rect><rect x="27.5" y="60" width="5" height="5"></rect><rect x="32.5" y="65" width="5" height="5"></rect><rect x="37.5" y="70" width="5" height="5"></rect><rect x="42.5" y="75" width="5" height="5"></rect></svg>