<svg xmlns="http://www.w3.org/2000/svg" xmlns:xlink="http://www.w3.org/1999/xlink" version="1.1" x="0px" y="0px" viewBox="0 0 100 100" enable-background="new 0 0 100 100" xml:space="preserve"><path fill="#000000" d="M58,80h6v-2h4v-2h2v-2h2v-2h2v-2h2v-2h2v-4h2v-6h2V42h-2v-6h-2v-4h-2v-2h-2v-2h-2v-2h-2v-2h-2v-2h-4v-2h-6  v-2H42v2h-6v2h-4v2h-2v2h-2v2h-2v2h-2v2h-2v4h-2v6h-2v16h2v6h2v4h2v2h2v2h2v2h2v2h2v2h4v2h6v2h16V80z M36,66v-2h-2v-4h2v-2h16v-2  l-2,0v-2h-2v-2h-2v-2h-2v-2h-2v-2h-2v-2h-2v-2h-2v-2h-2v-4h2v-2h4v2h2v2h2v2h2v2h2v2h2v2h2v2h2v2h2v2h2V36h2v-2h4v2h2v28h-2v2H36z"></path></svg>