<svg xmlns="http://www.w3.org/2000/svg" viewBox="0 0 60 60" x="0px" y="0px"><title>pencil</title><g data-name="Layer 2"><g data-name="Layer 1"><rect x="56" y="56" width="4" height="4"></rect><rect x="52" y="56" width="4" height="4"></rect><rect x="48" y="56" width="4" height="4"></rect><rect x="44" y="56" width="4" height="4"></rect><rect x="56" y="52" width="4" height="4"></rect><rect x="52" y="52" width="4" height="4"></rect><rect x="44" y="52" width="4" height="4"></rect><rect x="40" y="52" width="4" height="4"></rect><rect x="56" y="48" width="4" height="4"></rect><rect x="48" y="48" width="4" height="4"></rect><rect x="44" y="48" width="4" height="4"></rect><rect x="36" y="48" width="4" height="4"></rect><rect x="56" y="44" width="4" height="4"></rect><rect x="52" y="44" width="4" height="4"></rect><rect x="48" y="44" width="4" height="4"></rect><rect x="44" y="44" width="4" height="4"></rect><rect x="32" y="44" width="4" height="4"></rect><rect x="52" y="40" width="4" height="4"></rect><rect x="40" y="40" width="4" height="4"></rect><rect x="28" y="40" width="4" height="4"></rect><rect x="48" y="36" width="4" height="4"></rect><rect x="36" y="36" width="4" height="4"></rect><rect x="24" y="36" width="4" height="4"></rect><rect x="44" y="32" width="4" height="4"></rect><rect x="32" y="32" width="4" height="4"></rect><rect x="20" y="32" width="4" height="4"></rect><rect x="40" y="28" width="4" height="4"></rect><rect x="28" y="28" width="4" height="4"></rect><rect x="16" y="28" width="4" height="4"></rect><rect x="36" y="24" width="4" height="4"></rect><rect x="24" y="24" width="4" height="4"></rect><rect x="12" y="24" width="4" height="4"></rect><rect x="32" y="20" width="4" height="4"></rect><rect x="20" y="20" width="4" height="4"></rect><rect x="8" y="20" width="4" height="4"></rect><rect x="28" y="16" width="4" height="4"></rect><rect x="16" y="16" width="4" height="4"></rect><rect x="8" y="16" width="4" height="4"></rect><rect x="4" y="16" width="4" height="4"></rect><rect x="24" y="12" width="4" height="4"></rect><rect x="12" y="12" width="4" height="4"></rect><rect x="8" y="12" width="4" height="4"></rect><rect x="4" y="12" width="4" height="4"></rect><rect y="12" width="4" height="4"></rect><rect x="20" y="8" width="4" height="4"></rect><rect x="16" y="8" width="4" height="4"></rect><rect x="12" y="8" width="4" height="4"></rect><rect x="8" y="8" width="4" height="4"></rect><rect x="4" y="8" width="4" height="4"></rect><rect y="8" width="4" height="4"></rect><rect x="16" y="4" width="4" height="4"></rect><rect x="12" y="4" width="4" height="4"></rect><rect x="8" y="4" width="4" height="4"></rect><rect x="4" y="4" width="4" height="4"></rect><rect x="12" width="4" height="4"></rect><rect x="8" width="4" height="4"></rect></g></g></svg>