<svg xmlns="http://www.w3.org/2000/svg" xmlns:xlink="http://www.w3.org/1999/xlink" version="1.1" x="0px" y="0px" viewBox="0 0 100 100" enable-background="new 0 0 100 100" xml:space="preserve"><rect x="28" y="40" fill="#000000" width="2" height="2"></rect><rect x="32" y="40" fill="#000000" width="2" height="2"></rect><rect x="36" y="40" fill="#000000" width="2" height="2"></rect><rect x="40" y="40" fill="#000000" width="2" height="2"></rect><rect x="28" y="36" fill="#000000" width="2" height="2"></rect><rect x="32" y="36" fill="#000000" width="2" height="2"></rect><rect x="36" y="36" fill="#000000" width="2" height="2"></rect><rect x="40" y="36" fill="#000000" width="2" height="2"></rect><rect x="44" y="36" fill="#000000" width="2" height="2"></rect><rect x="48" y="36" fill="#000000" width="2" height="2"></rect><rect x="32" y="60" fill="#000000" width="2" height="2"></rect><rect x="36" y="60" fill="#000000" width="2" height="2"></rect><rect x="40" y="60" fill="#000000" width="2" height="2"></rect><rect x="44" y="60" fill="#000000" width="2" height="2"></rect><rect x="48" y="68" fill="#000000" width="4" height="2"></rect><rect x="28" y="44" fill="#000000" width="2" height="2"></rect><rect x="32" y="44" fill="#000000" width="2" height="2"></rect><rect x="32" y="48" fill="#000000" width="2" height="2"></rect><rect x="28" y="52" fill="#000000" width="2" height="2"></rect><rect x="28" y="48" fill="#000000" width="2" height="2"></rect><rect x="32" y="52" fill="#000000" width="2" height="2"></rect><rect x="32" y="56" fill="#000000" width="2" height="2"></rect><rect x="36" y="56" fill="#000000" width="2" height="2"></rect><rect x="36" y="52" fill="#000000" width="2" height="2"></rect><rect x="28" y="60" fill="#000000" width="2" height="2"></rect><rect x="28" y="56" fill="#000000" width="2" height="2"></rect><path fill="#000000" d="M80,28v44H20V28H80v-2H20v2h-2v44h2v2h22v4h-2v2h-2v2h24v-2h-2v-2h-2v-4h22v-2h2V28H80z M42,80v-2h2v-4h12v4  h2v2H42z"></path><polygon fill="#000000" points="76,64 76,34 74,34 74,32 26,32 26,34 24,34 24,64 26,64 26,66 74,66 74,64 26,64 26,34 74,34 74,64   "></polygon></svg>