<svg xmlns="http://www.w3.org/2000/svg" xmlns:xlink="http://www.w3.org/1999/xlink" version="1.1" x="0px" y="0px" viewBox="0 0 100 100" style="enable-background:new 0 0 100 100;" xml:space="preserve"><path d="M80,74v-2h-2v-2h-2v-2h-2v-2h-2v-2h-2v-2h-2v-2h-2v-2h-4v-6h2v-4h2V36h-2v-4h-2v-4h-2v-2h-2v-2h-2v-2h-4v-2h-4v-2H36v2h-4v2  h-4v2h-2v2h-2v2h-2v4h-2v4h-2v12h2v4h2v4h2v2h2v2h2v2h4v2h4v2h12v-2h4v-2h6v4h2v2h2v2h2v2h2v2h2v2h2v2h2v2h2v2h4v-2h2v-2h2v-4H80z   M56,58v2h-4v2h-4v2H36v-2h-4v-2h-4v-2h-2v-2h-2v-4h-2v-4h-2V36h2v-4h2v-4h2v-2h2v-2h4v-2h4v-2h12v2h4v2h4v2h2v2h2v4h2v4h2v12h-2v4  h-2v4h-2v2H56z"></path></svg>