<svg xmlns="http://www.w3.org/2000/svg" xmlns:xlink="http://www.w3.org/1999/xlink" version="1.1" x="0px" y="0px" viewBox="0 0 100 100" enable-background="new 0 0 100 100" xml:space="preserve"><polygon fill="#000000" points="82,62 82,62 82,62 76,62 76,32 74,32 74,62 72,62 72,36 70,36 70,62 54,62 54,64   80,64 80,68 20,68 20,64 46,64 46,66 54,66 54,64 46,64 46,62 30,62 30,36 70,36 70,34 30,34 30,36 28,36 28,62 26,62 26,32 74,32   74,30 26,30 26,32 24,32 24,62 18,62 18,68 20,68 20,70 80,70 80,68 82,68 "></polygon><rect x="32" y="42" fill="#000000" width="2" height="2"></rect><rect x="36" y="42" fill="#000000" width="2" height="2"></rect><rect x="40" y="42" fill="#000000" width="2" height="2"></rect><rect x="32" y="38" fill="#000000" width="2" height="2"></rect><rect x="36" y="38" fill="#000000" width="2" height="2"></rect><rect x="40" y="38" fill="#000000" width="2" height="2"></rect><rect x="44" y="38" fill="#000000" width="2" height="2"></rect><rect x="48" y="38" fill="#000000" width="2" height="2"></rect><rect x="52" y="38" fill="#000000" width="2" height="2"></rect><rect x="32" y="46" fill="#000000" width="2" height="2"></rect><rect x="36" y="46" fill="#000000" width="2" height="2"></rect><rect x="32" y="54" fill="#000000" width="2" height="2"></rect><rect x="36" y="54" fill="#000000" width="2" height="2"></rect><rect x="32" y="58" fill="#000000" width="2" height="2"></rect><rect x="36" y="58" fill="#000000" width="2" height="2"></rect><rect x="40" y="58" fill="#000000" width="2" height="2"></rect><rect x="40" y="54" fill="#000000" width="2" height="2"></rect><rect x="32" y="50" fill="#000000" width="2" height="2"></rect><rect x="36" y="50" fill="#000000" width="2" height="2"></rect><rect x="44" y="42" fill="#000000" width="2" height="2"></rect></svg>