<svg xmlns="http://www.w3.org/2000/svg" xmlns:xlink="http://www.w3.org/1999/xlink" version="1.1" x="0px" y="0px" viewBox="0 0 100 100" style="enable-background:new 0 0 100 100;" xml:space="preserve"><rect x="48" y="68" width="4" height="2"></rect><path d="M80,28v44H20V28H80v-2H20v2h-2v44h2v2h22v4h-2v2h-2v2h24v-2h-2v-2h-2v-4h22v-2h2V28H80z M42,80v-2h2v-4h12v4h2v2H42z"></path><polygon points="76,64 76,34 74,34 74,32 26,32 26,34 24,34 24,64 26,64 26,66 74,66 74,64 26,64 26,34 74,34 74,64 "></polygon><rect x="56" y="40" width="2" height="4"></rect><rect x="42" y="40" width="2" height="4"></rect><polygon points="50,40 50,50 48,50 48,52 52,52 52,40 "></polygon><polygon points="54,54 54,56 46,56 46,54 44,54 44,56 46,56 46,58 54,58 54,56 56,56 56,54 "></polygon></svg>