<svg xmlns="http://www.w3.org/2000/svg" xmlns:xlink="http://www.w3.org/1999/xlink" version="1.1" x="0px" y="0px" viewBox="0 0 100 100" enable-background="new 0 0 100 100" xml:space="preserve"><polygon fill="#000000" points="58,30 58,32 50,32 50,34 42,34 42,37 42,40 42,58 38,58 38,60 34,60 34,62 32,62 32,68 34,68 34,70   38,70 38,68 42,68 42,66 44,66 44,60 44,40 50,40 50,38 58,38 58,36 64,36 64,54 60,54 60,56 56,56 56,58 54,58 54,64 56,64 56,66   60,66 60,64 64,64 64,62 66,62 66,57 66,56 66,36 66,30 "></polygon><polygon fill="#000000" points="42,78 36,78 36,76 32,76 32,74 30,74 30,72 28,72 28,70 26,70 26,68 24,68 24,64   22,64 22,58 20,58 20,42 22,42 22,36 24,36 24,32 26,32 26,30 28,30 28,28 30,28 30,26 32,26 32,24 36,24 36,22 42,22 42,20 58,20   58,18 42,18 42,20 36,20 36,22 32,22 32,24 30,24 30,26 28,26 28,28 26,28 26,30 24,30 24,32 22,32 22,36 20,36 20,42 18,42 18,58   20,58 20,64 22,64 22,68 24,68 24,70 26,70 26,72 28,72 28,74 30,74 30,76 32,76 32,78 36,78 36,80 38,80 42,80 42,82 58,82 58,80   64,80 64,78 68,78 68,76 70,76 70,74 72,74 72,72 74,72 74,70 76,70 76,68 78,68 78,64 80,64 80,58 82,58 82,42 80,42 80,36 78,36   78,32 76,32 76,30 74,30 74,28 72,28 72,26 70,26 70,24 68,24 68,22 64,22 64,20 58,20 58,22 64,22 64,24 68,24 68,26 70,26 70,28   72,28 72,30 74,30 74,32 76,32 76,36 78,36 78,42 80,42 80,58 78,58 78,64 76,64 76,68 74,68 74,70 72,70 72,72 70,72 70,74 68,74   68,76 64,76 64,78 58,78 58,80 42,80 "></polygon></svg>