<svg xmlns="http://www.w3.org/2000/svg" xmlns:xlink="http://www.w3.org/1999/xlink" version="1.1" x="0px" y="0px" viewBox="0 0 100 100" style="enable-background:new 0 0 100 100;" xml:space="preserve"><rect x="48" y="68" width="4" height="2"></rect><path d="M80,28v44H20V28H80v-2H20v2h-2v44h2v2h22v4h-2v2h-2v2h24v-2h-2v-2h-2v-4h22v-2h2V28H80z M42,80v-2h2v-4h12v4h2v2H42z"></path><polygon points="76,64 76,34 74,34 74,32 26,32 26,34 24,34 24,64 26,64 26,66 74,66 74,64 26,64 26,34 74,34 74,64 "></polygon><polygon points="60,42 60,40 58,40 58,42 56,42 56,40 54,40 54,42 56,42 56,44 54,44 54,46 56,46 56,44 58,44 58,46 60,46 60,44   58,44 58,42 "></polygon><polygon points="46,42 46,40 44,40 44,42 42,42 42,40 40,40 40,42 42,42 42,44 40,44 40,46 42,46 42,44 44,44 44,46 46,46 46,44   44,44 44,42 "></polygon><polygon points="54,48 52,48 52,50 48,50 48,48 46,48 46,50 48,50 48,52 52,52 52,50 54,50 "></polygon><polygon points="46,58 46,56 56,56 56,58 60,58 60,60 62,60 62,58 60,58 60,56 56,56 56,54 46,54 46,56 44,56 44,58 "></polygon></svg>