<svg xmlns="http://www.w3.org/2000/svg" xmlns:xlink="http://www.w3.org/1999/xlink" version="1.1" x="0px" y="0px" viewBox="0 0 100 100" enable-background="new 0 0 100 100" xml:space="preserve"><path fill="#000000" d="M74,20h-2v-2H28v2l0,0h-2v60h2l0,0v2h36v-2h4v-2h2v-2h2v-4h2V20z M70,72v4h-2v2h-4v2H28l0,0V20l0,0h44v52H70  z"></path><polygon fill="#000000" points="68,48 68,26 66,26 66,24 34,24 34,26 32,26 32,48 34,48 34,50 66,50 66,48 34,48 34,26 66,26 66,48   "></polygon><path fill="#000000" d="M42,70h-6v-4h-4v-6h4v-4h6v4h4v6h-4V70z M38,68h2v-4h4v-2h-4v-4h-2v4h-4v2h4V68z"></path><path fill="#000000" d="M68,58h-2v-2h-4v2h-2v4h2v2h4v-2h2V58z M66,58v4h-4v-4H66z"></path><path fill="#000000" d="M60,64h-2v-2h-4v2h-2v4h2v2h4v-2h2V64z M58,64v4h-4v-4H58z"></path><rect x="36" y="32" fill="#000000" width="2" height="2"></rect><rect x="40" y="32" fill="#000000" width="2" height="2"></rect><rect x="44" y="32" fill="#000000" width="2" height="2"></rect><rect x="36" y="44" fill="#000000" width="2" height="2"></rect><rect x="40" y="44" fill="#000000" width="2" height="2"></rect><rect x="44" y="44" fill="#000000" width="2" height="2"></rect><rect x="36" y="28" fill="#000000" width="2" height="2"></rect><rect x="40" y="28" fill="#000000" width="2" height="2"></rect><rect x="44" y="28" fill="#000000" width="2" height="2"></rect><rect x="48" y="28" fill="#000000" width="2" height="2"></rect><rect x="52" y="28" fill="#000000" width="2" height="2"></rect><rect x="36" y="36" fill="#000000" width="2" height="2"></rect><rect x="36" y="40" fill="#000000" width="2" height="2"></rect><rect x="40" y="36" fill="#000000" width="2" height="2"></rect><rect x="40" y="40" fill="#000000" width="2" height="2"></rect></svg>