<svg xmlns="http://www.w3.org/2000/svg" xmlns:xlink="http://www.w3.org/1999/xlink" version="1.1" x="0px" y="0px" viewBox="0 0 100 100" enable-background="new 0 0 100 100" xml:space="preserve"><polygon fill="#000000" points="64,28 64,26 36,26 36,28 34,28 34,46 36,46 36,48 64,48 64,46 36,46 36,28 64,28 64,46 66,46 66,28   "></polygon><polygon fill="#000000" points="70,24 70,22 68,22 68,24 70,24 70,78 68,78 68,80 32,80 32,78 30,78 30,24 32,24 32,22 68,22 68,20   32,20 32,22 30,22 30,24 28,24 28,78 30,78 30,80 32,80 32,82 68,82 68,80 70,80 70,78 72,78 72,24 "></polygon><rect x="48" y="62" transform="matrix(-1.836970e-16 1 -1 -1.836970e-16 114 14)" fill="#000000" width="4" height="4"></rect><rect x="38" y="30" fill="#000000" width="2" height="2"></rect><rect x="42" y="30" fill="#000000" width="2" height="2"></rect><rect x="38" y="34" fill="#000000" width="2" height="2"></rect><rect x="38" y="38" fill="#000000" width="2" height="2"></rect><rect x="42" y="34" fill="#000000" width="2" height="2"></rect><rect x="42" y="38" fill="#000000" width="2" height="2"></rect><rect x="42" y="42" fill="#000000" width="2" height="2"></rect><rect x="46" y="34" fill="#000000" width="2" height="2"></rect><rect x="38" y="42" fill="#000000" width="2" height="2"></rect><rect x="46" y="30" fill="#000000" width="2" height="2"></rect><rect x="50" y="30" fill="#000000" width="2" height="2"></rect><rect x="54" y="30" fill="#000000" width="2" height="2"></rect><polygon fill="#000000" points="42,72 42,74 46,74 46,76 54,76 54,74 58,74 58,72 60,72 60,68 62,68 62,60 60,60   60,56 58,56 58,54 54,54 54,52 46,52 46,54 42,54 42,56 40,56 40,60 38,60 38,68 40,68 40,72 42,72 42,68 40,68 40,60 42,60 42,56   46,56 46,54 54,54 54,56 58,56 58,60 60,60 60,68 58,68 58,72 54,72 54,74 46,74 46,72 "></polygon></svg>