<svg xmlns="http://www.w3.org/2000/svg" xmlns:xlink="http://www.w3.org/1999/xlink" version="1.1" x="0px" y="0px" viewBox="0 0 100 100" style="enable-background:new 0 0 100 100;" xml:space="preserve"><path d="M76,28v-2h-2v-2h-2v-2H24v2h-2v52h2v2h52v-2h2V28H76z M36,24h28v16H36V24z M32,76V50h36v26H32z M76,76h-6V50h-2v-2H32v2h-2  v26h-6V24h10v16h2v2h28v-2h2V24h6v2h2v2h2V76z"></path><path d="M60,38h-8V26h8V38z M54,36h4v-8h-4V36z"></path><rect x="72" y="70" width="2" height="2"></rect><rect x="26" y="70" width="2" height="2"></rect><rect x="38" y="56" width="24" height="2"></rect><rect x="38" y="62" width="24" height="2"></rect><rect x="38" y="68" width="24" height="2"></rect></svg>